<svg version="1.1" xmlns="http://www.w3.org/2000/svg" xmlns:xlink="http://www.w3.org/1999/xlink" width="99.98111" height="101.20301" viewBox="0,0,99.98111,101.20301"><defs><linearGradient x1="257.26746" y1="207.61571" x2="255.32178" y2="226.11368" gradientUnits="userSpaceOnUse" id="color-1"><stop offset="0" stop-color="#ffffff"/><stop offset="1" stop-color="#9f9f9f"/></linearGradient></defs><g transform="translate(-201.59327,-139.52186)"><g data-paper-data="{&quot;isPaintingLayer&quot;:true}" stroke-miterlimit="10" stroke-dasharray="" stroke-dashoffset="0" style="mix-blend-mode: normal"><path d="M245.7732,198.63837c-0.06548,2.21939 -1.2481,10.53812 0.90575,12.21473c2.07162,1.56153 9.30508,0.73862 8.8947,5.63775c-0.39395,4.80051 -6.82207,3.83136 -11.9023,1.46467c-6.59278,-3.02411 -7.99157,-14.10442 -2.96171,-19.95765c1.85745,-2.02234 5.14548,-1.67751 5.06357,0.64052z" data-paper-data="{&quot;index&quot;:null}" fill="#717171" fill-rule="evenodd" stroke="#001026" stroke-width="1.2" stroke-linecap="round" stroke-linejoin="round"/><g fill-rule="nonzero" stroke="#001026" stroke-width="1.2" stroke-linejoin="miter"><g><g><path d="M255.18989,213.02808l1.12975,-10.74075l2.58573,0.27198l-1.12975,10.74075z" fill="#2c2c2c" stroke-linecap="butt"/><path d="M254.14388,224.55693l2.38063,0.30435l-2.47196,14.60444z" fill="#6c6c6c" stroke-linecap="butt"/><path d="M251.64207,225.72664l1.94568,-18.49796l7.3594,0.77409l-1.94568,18.49797z" fill="url(#color-1)" stroke-linecap="butt"/><path d="M256.87513,210.38989l-3.55934,-0.57549" fill="none" stroke-linecap="round"/><path d="M253.35792,213.2376l3.16152,0.53364" fill="none" stroke-linecap="round"/><path d="M255.65075,216.2942l-2.7428,-0.69071" fill="none" stroke-linecap="round"/><path d="M255.0962,219.65463l-2.18793,-0.23013" fill="none" stroke-linecap="round"/><path d="M252.19665,222.36621l2.92078,0.91053" fill="none" stroke-linecap="round"/></g><path d="M253.62929,203.00987l0.29289,-2.78464l7.5583,0.79501l-0.2929,2.78465z" fill="#2c2c2c" stroke-linecap="butt"/></g><path d="M255.08543,215.93308c-0.3062,2.91106 -1.84566,5.13511 -3.4385,4.96755c-1.59283,-0.16754 -2.63587,-2.66323 -2.32968,-5.57428c0.3062,-2.91106 1.84567,-5.13511 3.43851,-4.96756c1.59283,0.16754 2.63587,2.66323 2.32968,5.57429z" fill="#717171" stroke-linecap="butt"/><path d="M265.33408,216.00557c-0.46796,4.44897 -3.11814,7.81671 -5.91934,7.52207c-2.80119,-0.29463 -4.69265,-4.14009 -4.2247,-8.58904c0.46796,-4.44897 3.11813,-7.81672 5.91933,-7.52207c2.80119,0.29463 4.69266,4.14009 4.22471,8.58905z" fill="#717171" stroke-linecap="butt"/></g><g fill-rule="evenodd"><path d="M227.78635,207.42737c0.47302,0.88104 2.96215,2.47299 -0.8286,4.12231c-3.87459,1.53544 -13.30695,3.03565 -20.91935,-6.11156c-8.19931,-9.94441 -1.39976,-20.74562 3.01041,-20.48018c4.3113,0.25043 1.57913,6.91566 3.47235,15.0928c2.65274,11.83271 14.79215,6.49557 15.26517,7.37662z" fill="#717171" stroke="#001026" stroke-width="1.2" stroke-linecap="round" stroke-linejoin="round"/><path d="M211.03599,190.51953c-0.16659,4.42518 0.37145,7.54135 0.37145,7.54135c0,0 -1.28143,-2.21763 -3.71428,-2.18267c-2.9422,0.05872 -4.19248,2.29631 -4.3965,2.97335c-0.43671,-1.78586 -0.71447,-3.95216 0.02401,-7.48127c1.02005,-3.38519 3.73583,-6.61389 6.14739,-5.84291c1.91723,0.69588 1.57803,2.2627 1.56794,4.99215z" fill="#ffffff" stroke="none" stroke-width="1" stroke-linecap="butt" stroke-linejoin="miter"/></g><path d="M248.3198,236.3753c0,3.86599 -11.83333,3 -11.83333,3c0,0 -10.5,0.86599 -10.5,-3c0,-3.45051 2.7452,-32.89294 7.69909,-34.5825c3.83539,-1.30808 4.43187,28.24917 5.13424,28.24917c6.53537,0 9.5,2.46734 9.5,6.33333z" fill="#717171" fill-rule="nonzero" stroke="#001026" stroke-width="1.2" stroke-linecap="butt" stroke-linejoin="miter"/><path d="M242.3198,237.04197c0,3.86599 -11.83333,3 -11.83333,3c0,0 -10.5,0.86599 -10.5,-3c0,-3.45051 2.7452,-32.89294 7.69909,-34.58249c3.83539,-1.30808 4.43187,28.24916 5.13424,28.24916c6.53537,0 9.5,2.46734 9.5,6.33333z" fill="#717171" fill-rule="nonzero" stroke="#001026" stroke-width="1.2" stroke-linecap="butt" stroke-linejoin="miter"/><g fill-rule="evenodd"><path d="M228.87384,214.62757c-9.10782,-1.2013 -5.54995,-9.40893 -3.98372,-18.71951c0.81154,-5.03501 3.61177,-10.93598 9.67676,-11.74589c3.37846,-0.62923 4.09171,5.65333 6.14048,4.84551c3.08936,-1.1644 4.07785,3.57087 4.03693,6.22762c0,0 -0.12491,3.95403 -0.73876,6.17286c-0.73555,2.78908 -1.66029,5.64302 -2.50372,6.88342c0,0 -2.81674,7.63005 -12.62797,6.33597z" fill="#717171" stroke="#001026" stroke-width="1.2" stroke-linecap="round" stroke-linejoin="round"/><path d="M240.74039,208.44988c0,0 -1.80801,-0.64892 -3.80788,-1.54922c-2.47553,-1.05442 -4.85378,-1.82503 -3.96676,-5.40599c0.92473,-2.85392 1.49555,-6.43221 6.69266,-5.14766c4.94307,1.16019 3.95614,4.14112 3.95614,4.14112c-0.62236,4.97017 -2.87415,7.96176 -2.87415,7.96176z" fill="#ffffff" stroke="none" stroke-width="1" stroke-linecap="butt" stroke-linejoin="miter"/></g><path d="M234.18997,194.00031c0,0 -4.30024,20.48451 -4.50881,24.69278c-0.36452,7.35437 -8.40233,12.56523 -8.39691,-1.51807c0.0056,-14.55527 4.78046,-24.91907 4.78046,-24.91907" fill="#717171" fill-rule="nonzero" stroke="#001026" stroke-width="1.2" stroke-linecap="round" stroke-linejoin="miter"/><g><path d="M271.00611,142.38045c0.31857,-0.16886 0.80599,-0.01913 0.86531,0.3889l1.51202,10.90705c0,0 5.8955,5.31913 7.4544,8.79329c2.63132,5.79363 2.27879,10.28091 2.27879,10.28091c0,0 6.85313,2.80259 7.47449,8.59431c0.62135,5.79172 -4.84127,16.09509 -23.91785,17.88788c-19.07657,1.79279 -33.5879,-4.79826 -39.50683,-16.85381c-5.91894,-12.05554 6.59056,-24.46169 5.91324,-23.72601l-0.29128,-18.02041c-0.05932,-0.40802 0.46829,-0.65628 0.84618,-0.41712l11.24523,9.07552c0,0 4.64801,-1.23936 9.34432,-0.96623c2.80593,0.08227 5.17369,0.52234 7.42188,1.15137z" fill="#717171" fill-rule="evenodd" stroke="#001026" stroke-width="1.2" stroke-linecap="butt" stroke-linejoin="miter"/><path d="M276.32259,171.10462c-0.40916,4.0525 -6.81011,6.72493 -14.29692,5.96903c-7.48681,-0.75589 -13.22441,-4.65386 -12.81524,-8.70636c0.40916,-4.0525 6.81011,-6.72493 14.29692,-5.96903c7.48681,0.75589 13.22441,4.65386 12.81524,8.70636z" fill="#393939" fill-rule="nonzero" stroke="none" stroke-width="NaN" stroke-linecap="butt" stroke-linejoin="miter"/><path d="M282.77796,173.11842c0,0 6.68429,2.48402 7.30564,8.27573c0.62135,5.79172 -5.18903,15.55744 -24.05658,17.27082c-24.57986,2.54376 -34.57517,-12.93861 -26.84427,-22.81196c7.74095,-9.97284 18.26866,0.23634 26.68645,0.48316c7.21381,0.22578 8.64261,-5.96199 16.90875,-3.21776z" fill="#ffffff" fill-rule="evenodd" stroke="none" stroke-width="1" stroke-linecap="butt" stroke-linejoin="miter"/><path d="M300.97438,176.0612c-5.05794,3.30865 -12.23158,2.68489 -12.23158,2.68489" fill="none" fill-rule="evenodd" stroke="#001026" stroke-width="1.2" stroke-linecap="round" stroke-linejoin="round"/><path d="M298.5559,187.07395c-6.31837,-0.13539 -10.00778,-2.41753 -10.00778,-2.41753" fill="none" fill-rule="evenodd" stroke="#001026" stroke-width="1.2" stroke-linecap="round" stroke-linejoin="round"/><path d="M265.7324,173.70915c2.08937,0.21095 4.25817,0.63092 4.28734,1.33745c-0.04113,1.40297 -1.81482,4.03813 -3.41676,3.9769c-1.81099,0.01818 -5.73861,-2.89108 -5.57788,-4.48299c0.02105,-1.20397 2.71743,-1.03225 4.70732,-0.83135z" fill="#001026" fill-rule="evenodd" stroke="#001026" stroke-width="1.2" stroke-linecap="round" stroke-linejoin="round"/><path d="M221.11069,167.69639c0,0 8.27524,3.64973 11.44613,7.08563" fill="none" fill-rule="evenodd" stroke="#001026" stroke-width="1.2" stroke-linecap="round" stroke-linejoin="round"/><path d="M232.50372,178.29445c-4.44902,1.25946 -11.70108,-0.57832 -11.70108,-0.57832" fill="none" fill-rule="evenodd" stroke="#001026" stroke-width="1.2" stroke-linecap="round" stroke-linejoin="round"/><path d="M278.64801,163.25366c2.43329,4.76855 2.02049,9.85279 -0.94617,11.36242c-2.96665,1.50964 -7.33244,-1.04183 -9.86522,-5.82043c-2.43329,-4.76855 -2.02049,-9.85279 0.94617,-11.36242c2.97669,-1.60912 7.43193,1.05187 9.86522,5.82043z" fill="#ffffff" fill-rule="evenodd" stroke="#001026" stroke-width="1.2" stroke-linecap="round" stroke-linejoin="round"/><path d="M253.69218,163.54829c2.54284,4.6791 1.80141,10.0317 -1.0758,11.65086c-0.4501,0.20196 -0.91301,0.34696 -1.38338,0.4362c-3.16024,0.59951 -6.65735,-1.31843 -8.87074,-5.39131c-2.64234,-4.68915 -2.07023,-9.85783 1.23509,-11.7353c3.31536,-1.97697 7.55199,0.36044 10.09483,5.03954z" fill="#ffffff" fill-rule="evenodd" stroke="#001026" stroke-width="1.2" stroke-linecap="round" stroke-linejoin="round"/><path d="M258.9351,196.04485c-0.44383,4.39593 -2.58542,7.77964 -4.78338,7.55772c-2.19797,-0.22191 -3.61998,-3.96541 -3.17615,-8.36134c0.44383,-4.39593 2.58542,-7.77964 4.78338,-7.55772c2.19797,0.22191 3.61998,3.96541 3.17615,8.36134z" fill="#000000" fill-rule="nonzero" stroke="#001026" stroke-width="1.2" stroke-linecap="butt" stroke-linejoin="miter"/></g></g></g></svg>