<svg version="1.1" xmlns="http://www.w3.org/2000/svg" xmlns:xlink="http://www.w3.org/1999/xlink" width="81.14805" height="112.45324" viewBox="0,0,81.14805,112.45324"><defs><linearGradient x1="249.20307" y1="191.83749" x2="261.68321" y2="205.62902" gradientUnits="userSpaceOnUse" id="color-1"><stop offset="0" stop-color="#ffffff"/><stop offset="1" stop-color="#9f9f9f"/></linearGradient></defs><g transform="translate(-195.40609,-128.27163)"><g data-paper-data="{&quot;isPaintingLayer&quot;:true}" stroke-miterlimit="10" stroke-dasharray="" stroke-dashoffset="0" style="mix-blend-mode: normal"><path d="M236.47935,190.48193c1.21228,1.86021 4.98639,9.36727 7.71183,9.51565c2.59226,0.10077 8.0639,-4.70144 10.52156,-0.44353c2.4149,4.16753 -3.41758,7.03848 -8.94021,7.99266c-7.13997,1.27707 -14.60962,-7.02559 -13.81742,-14.70234c0.37193,-2.7206 3.2692,-4.31304 4.52426,-2.36244z" data-paper-data="{&quot;index&quot;:null}" fill="#717171" fill-rule="evenodd" stroke="#001026" stroke-width="1.2" stroke-linecap="round" stroke-linejoin="round"/><g fill-rule="nonzero" stroke="#001026" stroke-width="1.2" stroke-linejoin="miter"><g><g><path d="M251.84831,196.99625l-7.24653,-8.00799l1.92785,-1.74454l7.24653,8.00799z" fill="#2c2c2c" stroke-linecap="butt"/><path d="M259.73774,205.4677l1.8151,-1.57016l9.22887,11.58568z" fill="#6c6c6c" stroke-linecap="butt"/><path d="M258.93973,208.11163l-12.48014,-13.79152l5.48695,-4.96522l12.48015,13.79153z" fill="url(#color-1)" stroke-linecap="butt"/><path d="M248.20413,196.24795l2.80353,-2.26722" fill="none" stroke-linecap="round"/><path d="M250.78204,198.50059l2.50692,-1.99882" fill="none" stroke-linecap="round"/><path d="M252.24407,200.41434l2.34453,-1.58214" fill="none" stroke-linecap="round"/><path d="M255.09038,202.96357l1.63125,-1.47614" fill="none" stroke-linecap="round"/><path d="M256.80671,205.4564l2.62702,-1.56804" fill="none" stroke-linecap="round"/></g><path d="M243.34491,191.47428l-1.87873,-2.07614l5.63525,-5.09942l1.87874,2.07615z" fill="#2c2c2c" stroke-linecap="butt"/></g><path d="M253.94243,199.01234c1.96402,2.1704 2.59346,4.80102 1.40588,5.87566c-1.18757,1.07465 -3.74244,0.18638 -5.70646,-1.98401c-1.96402,-2.1704 -2.59345,-4.80102 -1.40588,-5.87567c1.18757,-1.07465 3.74244,-0.18638 5.70646,1.98402z" fill="#717171" stroke-linecap="butt"/><path d="M260.83455,191.42692c3.00161,3.31702 3.74184,7.53807 1.65335,9.42797c-2.08849,1.8899 -6.21482,0.733 -9.21644,-2.58401c-3.00161,-3.31702 -3.74185,-7.53806 -1.65336,-9.42796c2.08849,-1.8899 6.21483,-0.73301 9.21645,2.584z" fill="#717171" stroke-linecap="butt"/></g><g fill-rule="evenodd"><path d="M226.16505,207.4125c0.87604,0.48223 3.83066,0.46487 1.54601,3.91022c-2.41693,3.39536 -9.51742,9.78309 -20.87981,6.24529c-12.28843,-3.88773 -12.45478,-16.64988 -8.60917,-18.82505c3.75447,-2.13401 5.08555,4.94541 11.12062,10.77877c8.66014,8.48835 15.9463,-2.59147 16.82234,-2.10923z" fill="#717171" stroke="#001026" stroke-width="1.2" stroke-linecap="round" stroke-linejoin="round"/><path d="M202.91383,202.33011c2.2663,3.80446 4.4122,6.12719 4.4122,6.12719c0,0 -2.28125,-1.16442 -4.30403,0.18774c-2.43734,1.64905 -2.27001,4.20678 -2.07311,4.88592c-1.33754,-1.26135 -2.74853,-2.92842 -4.04764,-6.29179c-0.98454,-3.39568 -0.46084,-7.58206 1.98229,-8.24624c1.98742,-0.45843 2.55468,1.04097 4.03029,3.33718z" fill="#ffffff" stroke="none" stroke-width="1" stroke-linecap="butt" stroke-linejoin="miter"/></g><path d="M267.22196,210.54994c3.10281,2.30618 -4.65115,11.28692 -4.65115,11.28692c0,0 -5.56852,8.9438 -8.67133,6.63762c-2.76935,-2.05833 -24.76199,-21.82488 -23.16288,-26.8087c1.23807,-3.85856 25.31628,13.29448 25.73526,12.73076c3.89854,-5.24523 7.64729,-6.15278 10.7501,-3.8466z" fill="#717171" fill-rule="nonzero" stroke="#001026" stroke-width="1.2" stroke-linecap="butt" stroke-linejoin="miter"/><path d="M242.3198,237.04197c0,3.86599 -11.83333,3 -11.83333,3c0,0 -10.5,0.86599 -10.5,-3c0,-3.45051 2.7452,-32.89294 7.69909,-34.58249c3.83539,-1.30808 4.43187,28.24916 5.13424,28.24916c6.53537,0 9.5,2.46734 9.5,6.33333z" fill="#717171" fill-rule="nonzero" stroke="#001026" stroke-width="1.2" stroke-linecap="butt" stroke-linejoin="miter"/><g fill-rule="evenodd"><path d="M230.9927,212.86405c-8.29702,3.94399 -9.77377,-4.87887 -13.52174,-13.54447c-2.05659,-4.66694 -2.91501,-11.14196 1.73472,-15.1194c2.49327,-2.36506 6.50789,2.51983 7.78811,0.72788c1.95966,-2.65702 5.36397,0.77964 6.77418,3.03159c0,0 2.0451,3.38638 2.73636,5.58232c0.89919,2.7407 1.67486,5.63871 1.64146,7.13833c0,0 1.78471,7.93514 -7.15309,12.18374z" fill="#717171" stroke="#001026" stroke-width="1.2" stroke-linecap="round" stroke-linejoin="round"/><path d="M237.59282,201.22716c0,0 -1.87023,0.43846 -4.03816,0.77026c-2.65093,0.46108 -5.06591,1.10747 -6.26855,-2.38018c-0.77567,-2.89798 -2.24223,-6.21147 2.81794,-7.95922c4.77935,-1.71399 5.57188,1.3244 5.57188,1.3244c2.18011,4.50966 1.91689,8.24475 1.91689,8.24475z" fill="#ffffff" stroke="none" stroke-width="1" stroke-linecap="butt" stroke-linejoin="miter"/></g><path d="M218.23479,195.26894c-1.75624,1.66001 -6.21851,1.28846 -7.19401,1.8347c-0.25129,0.19198 -0.26579,5.69468 -0.29989,8.98387c0.00957,4.64865 -6.84417,5.62649 -8.71577,1.40545c-1.67963,-3.96973 -0.6852,-13.08627 0.05748,-14.92705c1.60678,-4.25186 11.84367,-4.79615 18.64154,-5.28096" fill="#717171" fill-rule="evenodd" stroke="#001026" stroke-width="1.2" stroke-linecap="round" stroke-linejoin="round"/><g><g><path d="M253.35127,138.32159c0.34597,-0.10152 0.79345,0.14294 0.76971,0.55456l-0.70665,10.98866c0,0 4.70867,6.39363 5.53897,10.10989c1.41565,6.2037 0.17014,10.52906 0.17014,10.52906c0,0 6.15165,4.12035 5.59857,9.91897c-0.55308,5.79863 -7.97151,14.79679 -27.01996,12.72642c-19.04845,-2.07037 -31.94266,-11.43837 -35.32297,-24.4362c-3.38031,-12.99783 11.36356,-22.64243 10.55243,-22.05757l3.32949,-17.71255c0.02374,-0.41163 0.59042,-0.549 0.91265,-0.23889l9.19612,11.14681c0,0 4.80214,-0.2818 9.34821,0.92786c2.73239,0.64347 4.96375,1.54957 7.04006,2.61678z" fill="#717171" fill-rule="evenodd" stroke="#001026" stroke-width="1.2" stroke-linecap="butt" stroke-linejoin="miter"/><path d="M252.79769,167.52839c-1.21376,3.88805 -8.02068,5.22214 -15.20369,2.97978c-7.18301,-2.24236 -12.02204,-7.21205 -10.80829,-11.1001c1.21376,-3.88805 8.02068,-5.22214 15.20369,-2.97978c7.18301,2.24236 12.02204,7.21205 10.80829,11.1001z" fill="#393939" fill-rule="nonzero" stroke="none" stroke-width="NaN" stroke-linecap="butt" stroke-linejoin="miter"/><path d="M258.71788,170.79619c0,0 6.05013,3.77438 5.49705,9.57301c-0.55308,5.79863 -8.20434,14.20031 -27.03208,12.09408c-24.59051,-2.4386 -31.27694,-19.6113 -21.7226,-27.73317c9.58413,-8.21732 17.84993,3.89617 26.04709,5.82657c7.02189,1.66827 9.6629,-4.10712 17.21054,0.23951z" fill="#ffffff" fill-rule="evenodd" stroke="none" stroke-width="1" stroke-linecap="butt" stroke-linejoin="miter"/><path d="M275.95414,177.32929c-5.61884,2.22679 -12.52153,0.17669 -12.52153,0.17669" fill="none" fill-rule="evenodd" stroke="#001026" stroke-width="1.2" stroke-linecap="round" stroke-linejoin="round"/><path d="M271.37568,187.63306c-6.16277,-1.40007 -9.3194,-4.37593 -9.3194,-4.37593" fill="none" fill-rule="evenodd" stroke="#001026" stroke-width="1.2" stroke-linecap="round" stroke-linejoin="round"/><path d="M241.9003,167.95561c2.00459,0.62579 4.04504,1.47228 3.9319,2.17028c-0.32173,1.36619 -2.58797,3.59199 -4.14508,3.21066c-1.77782,-0.34547 -5.04202,-3.98347 -4.56523,-5.51078c0.26214,-1.17528 2.86927,-0.46616 4.7784,0.12983z" fill="#001026" fill-rule="evenodd" stroke="#001026" stroke-width="1.2" stroke-linecap="round" stroke-linejoin="round"/><path d="M199.39173,153.11406c0,0 7.3749,5.23553 9.79211,9.23767" fill="none" fill-rule="evenodd" stroke="#001026" stroke-width="1.2" stroke-linecap="round" stroke-linejoin="round"/><path d="M208.42724,165.78211c-4.61123,0.34139 -11.34724,-2.91378 -11.34724,-2.91378" fill="none" fill-rule="evenodd" stroke="#001026" stroke-width="1.2" stroke-linecap="round" stroke-linejoin="round"/><path d="M256.65072,160.30349c1.42728,5.15974 0.00297,10.05783 -3.20621,10.94167c-3.20918,0.88384 -6.9744,-2.49152 -8.49714,-7.68106c-1.42728,-5.15974 -0.00297,-10.05783 3.20621,-10.94167c3.23898,-0.9793 7.06986,2.52132 8.49714,7.68106z" fill="#ffffff" fill-rule="evenodd" stroke="#001026" stroke-width="1.2" stroke-linecap="round" stroke-linejoin="round"/><path d="M232.14306,155.58604c1.55253,5.09408 -0.24754,10.18915 -3.39107,11.19824c-3.71626,0.8303 -7.49917,-1.81726 -9.0517,-6.91134c-1.64799,-5.12388 -0.0507,-10.07273 3.56405,-11.249c3.64455,-1.27173 7.32619,1.86802 8.87872,6.9621z" fill="#ffffff" fill-rule="evenodd" stroke="#001026" stroke-width="1.2" stroke-linecap="round" stroke-linejoin="round"/></g><path d="M230.01498,183.51884c-1.27559,2.21301 -15.06954,-0.46226 -20.45253,-3.56504c-5.383,-3.10278 -0.31661,-5.4581 0.95897,-7.67111c1.27559,-2.21301 4.7932,3.77277 10.1762,6.87554c5.383,3.10278 10.59295,2.1476 9.31736,4.36061z" fill="#000000" fill-rule="nonzero" stroke="#001026" stroke-width="1.2" stroke-linecap="butt" stroke-linejoin="miter"/></g></g></g></svg>