<svg version="1.1" xmlns="http://www.w3.org/2000/svg" xmlns:xlink="http://www.w3.org/1999/xlink" width="72.83387" height="38.79814" viewBox="0,0,72.83387,38.79814"><g transform="translate(-248.56741,-179.87267)"><g data-paper-data="{&quot;isPaintingLayer&quot;:true}" fill-rule="nonzero" stroke="none" stroke-linecap="butt" stroke-linejoin="miter" stroke-miterlimit="10" stroke-dasharray="" stroke-dashoffset="0" style="mix-blend-mode: normal"><path d="M260.87266,198.29181c0.0225,0.03142 0.04083,0.06215 0.0555,0.09211c1.79239,-0.67089 3.61499,-1.5454 4.50045,-2.6747c0.42133,-0.53737 0.39296,-1.36483 0.86761,-1.85575c1.53417,-1.58675 3.84434,-2.68386 5.53591,-4.28787c3.17002,-1.68481 5.36511,-4.88507 8.47227,-6.87399c2.82724,-1.80976 6.58338,-2.19026 9.84125,-2.49757c7.23268,-0.68223 13.75675,-0.24174 20.90494,0.97575c3.32083,1.15853 4.50597,4.46372 6.63625,7.09906c1.01517,1.25586 3.59907,1.40148 3.7117,3.58119c0.09742,1.88521 -2.41476,4.06913 -3.80692,4.98853c-1.15116,0.94018 0.22766,1.91812 0.24875,3.18258c0.01756,1.0532 -0.58982,4.09821 -1.00535,5.08026c-1.47735,3.49137 -7.70976,4.32516 -10.89489,5.34379c-3.03455,0.97047 -6.46013,2.66089 -9.61366,3.06527c-3.54178,0.45417 -7.38041,0.26511 -10.98488,0.59512c-3.31903,0.30387 -6.58952,1.28791 -9.88409,1.46975c-0.96018,0.053 -2.00892,-0.26556 -2.95897,-0.13607c-2.51068,0.34222 -5.36556,1.16229 -7.87331,1.15023c-1.07353,0.20525 -1.93263,-0.0507 -2.98654,0.02029c-3.43343,0.23124 -6.27726,2.03228 -9.71349,1.92412c-1.07136,-0.03372 -2.58865,0.6713 -3.23277,-0.82512c-0.63443,-1.47391 1.31449,-3.86894 2.06974,-4.94925c0.26659,-0.37715 3.37533,-2.93482 3.24838,-3.20879c-0.47188,-1.01837 -1.60858,-2.06267 -1.54058,-3.63488c0.02735,-0.63248 0.49278,-1.2252 0.4146,-1.85343c-0.05443,-0.43741 -0.72195,-1.85344 -0.54055,-2.19179c0.46277,-0.86317 2.4573,-0.57149 3.24356,-0.76285c0.89186,-0.21707 1.52342,-0.38825 2.05817,-0.67171c-0.12488,-0.03228 -0.25563,-0.11997 -0.32298,-0.33063c-0.15227,-0.47625 0.32398,-0.62852 0.32398,-0.62852c0.45191,-0.14449 0.98436,-0.30898 1.55798,-0.49557c0.03792,-0.05149 0.07625,-0.10452 0.11506,-0.15913l0.85524,-0.64586c0,0 0.40654,-0.29108 0.69762,0.11545z" fill="#000000" stroke-width="0.5"/><path d="M295.91615,193.54178c-1.10185,3.69316 -5.44946,5.87072 -9.71062,4.86371c-4.26115,-1.007 -5.6043,-16.01827 -5.6043,-16.01827c0,0 16.41676,7.4614 15.3149,11.15455z" data-paper-data="{&quot;index&quot;:null}" fill="#ffffff" stroke-width="0"/><path d="M299.73239,195.96274c1.10185,-3.69316 19.51512,-2.92347 19.51512,-2.92347c0,0 -9.53356,12.44087 -13.7947,11.43386c-4.26117,-1.00701 -6.82228,-4.81725 -5.7204,-8.5104z" data-paper-data="{&quot;index&quot;:null}" fill="#ffffff" stroke-width="0"/></g></g></svg>