<svg version="1.1" xmlns="http://www.w3.org/2000/svg" xmlns:xlink="http://www.w3.org/1999/xlink" width="89.38312" height="105.61442" viewBox="0,0,89.38312,105.61442"><defs><linearGradient x1="253.09471" y1="212.0848" x2="247.16332" y2="229.71372" gradientUnits="userSpaceOnUse" id="color-1"><stop offset="0" stop-color="#ffffff"/><stop offset="1" stop-color="#9f9f9f"/></linearGradient><radialGradient cx="273.12" cy="178.08002" r="8.13758" gradientUnits="userSpaceOnUse" id="color-2"><stop offset="0" stop-color="#ffffff"/><stop offset="1" stop-color="#1a1a1a"/></radialGradient><radialGradient cx="251.8112" cy="172.1813" r="6.75889" gradientUnits="userSpaceOnUse" id="color-3"><stop offset="0" stop-color="#ffffff"/><stop offset="1" stop-color="#1a1a1a"/></radialGradient></defs><g transform="translate(-208.85165,-137.0802)"><g data-paper-data="{&quot;isPaintingLayer&quot;:true}" stroke-miterlimit="10" stroke-dasharray="" stroke-dashoffset="0" style="mix-blend-mode: normal"><path d="M248.05796,200.32207c-1.03028,1.96685 -5.73463,8.92882 -4.53189,11.37901c1.17918,2.31074 8.04315,4.73686 5.52986,8.96217c-2.45534,4.14383 -7.81085,0.45891 -11.34274,-3.8926c-4.60412,-5.60465 -1.01207,-16.17948 6.07232,-19.24076c2.55524,-1.00536 5.36066,0.74383 4.27244,2.79219z" data-paper-data="{&quot;index&quot;:null}" fill="#717171" fill-rule="evenodd" stroke="#001026" stroke-width="1.2" stroke-linecap="round" stroke-linejoin="round"/><g fill-rule="nonzero" stroke="#001026" stroke-width="1.2" stroke-linejoin="miter"><g><g><path d="M249.88723,216.9141l3.44404,-10.23615l2.46426,0.82912l-3.44404,10.23615z" fill="#2c2c2c" stroke-linecap="butt"/><path d="M246.35311,227.93764l2.25702,0.816l-5.59624,13.7143z" fill="#6c6c6c" stroke-linecap="butt"/><path d="M243.65649,228.53382l5.93139,-17.62891l7.01365,2.3598l-5.93139,17.62892z" fill="url(#color-1)" stroke-linecap="butt"/><path d="M248.75876,213.36916l3.34828,1.33757" fill="none" stroke-linecap="round"/><path d="M248.05365,216.71921l2.96915,1.21001" fill="none" stroke-linecap="round"/><path d="M249.625,220.20214l-2.52626,-1.27202" fill="none" stroke-linecap="round"/><path d="M246.26607,222.65928l2.08514,0.70156" fill="none" stroke-linecap="round"/><path d="M244.93028,225.37511l2.65204,1.52535" fill="none" stroke-linecap="round"/></g><path d="M250.54811,206.79663l0.89289,-2.65381l7.20322,2.42358l-0.8929,2.65382z" fill="#2c2c2c" stroke-linecap="butt"/></g><path d="M249.152,219.72646c-0.93344,2.77429 -2.92071,4.60925 -4.43871,4.0985c-1.51801,-0.51074 -1.9919,-3.17379 -1.05847,-5.94808c0.93344,-2.77429 2.92072,-4.60925 4.43873,-4.09851c1.51801,0.51074 1.9919,3.17379 1.05846,5.94808z" fill="#717171" stroke-linecap="butt"/><path d="M259.13836,222.03137c-1.42657,4.23995 -4.74717,6.94897 -7.41677,6.05076c-2.6696,-0.89821 -3.67727,-5.0635 -2.25071,-9.30345c1.42657,-4.23995 4.74716,-6.94897 7.41676,-6.05077c2.6696,0.89821 3.67728,5.0635 2.25072,9.30346z" fill="#717171" stroke-linecap="butt"/></g><g fill-rule="evenodd"><path d="M224.51446,207.71385c-0.22432,0.97451 0.60024,3.81179 -3.33849,2.55626c-3.92683,-1.39644 -12.0126,-6.47978 -11.7164,-18.37651c0.3796,-12.88316 12.60993,-16.53268 15.7537,-13.42837c3.07926,3.0279 -3.36643,6.24397 -7.32734,13.64405c-5.79696,10.65107 6.85286,14.63005 6.62853,15.60457z" fill="#717171" stroke="#001026" stroke-width="1.2" stroke-linecap="round" stroke-linejoin="round"/><path d="M223.04568,183.95901c-3.03982,3.22017 -4.68729,5.9194 -4.68729,5.9194c0,0 0.49629,-2.5127 -1.35743,-4.08868c-2.25264,-1.89357 -4.66716,-1.03326 -5.26658,-0.65817c0.84757,-1.63145 2.0653,-3.4445 4.94529,-5.61374c2.99708,-1.87549 7.16712,-2.51641 8.47401,-0.34799c0.98438,1.78634 -0.30279,2.74195 -2.10802,4.78918z" fill="#ffffff" stroke="none" stroke-width="1" stroke-linecap="butt" stroke-linejoin="miter"/></g><path d="M248.3198,236.3753c0,3.86599 -11.83333,3 -11.83333,3c0,0 -10.5,0.86599 -10.5,-3c0,-3.45051 2.7452,-32.89294 7.69909,-34.5825c3.83539,-1.30808 4.43187,28.24917 5.13424,28.24917c6.53537,0 9.5,2.46734 9.5,6.33333z" fill="#717171" fill-rule="nonzero" stroke="#001026" stroke-width="1.2" stroke-linecap="butt" stroke-linejoin="miter"/><path d="M242.3198,237.04197c0,3.86599 -11.83333,3 -11.83333,3c0,0 -10.5,0.86599 -10.5,-3c0,-3.45051 2.7452,-32.89294 7.69909,-34.58249c3.83539,-1.30808 4.43187,28.24916 5.13424,28.24916c6.53537,0 9.5,2.46734 9.5,6.33333z" fill="#717171" fill-rule="nonzero" stroke="#001026" stroke-width="1.2" stroke-linecap="butt" stroke-linejoin="miter"/><g fill-rule="evenodd"><path d="M227.86869,213.31527c-9.02654,-1.70797 -5.01594,-9.70414 -2.93229,-18.91274c1.09141,-4.98184 4.21675,-10.71725 10.3175,-11.18726c3.40832,-0.43961 3.76967,5.87297 5.86035,5.18081c3.14956,-0.99009 3.87211,3.79299 3.68291,6.44331c0,0 -0.34549,3.94089 -1.08227,6.12198c-0.89013,2.74366 -1.97278,5.54151 -2.88415,6.73289c0,0 -3.23837,7.46087 -12.96204,5.621z" fill="#717171" stroke="#001026" stroke-width="1.2" stroke-linecap="round" stroke-linejoin="round"/><path d="M240.06166,207.80979c0,0 -1.76896,-0.74886 -3.71544,-1.75942c-2.41279,-1.191 -4.74431,-2.0932 -3.65873,-5.61904c1.08264,-2.79783 1.85236,-6.33867 6.96964,-4.76594c4.87058,1.43438 3.71875,4.35555 3.71875,4.35555c-0.8989,4.92767 -3.31422,7.78886 -3.31422,7.78886z" fill="#ffffff" stroke="none" stroke-width="1" stroke-linecap="butt" stroke-linejoin="miter"/></g><g stroke="#001026" stroke-width="1.2"><path d="M236.20417,204.22962c1.13589,-9.75617 0.4281,-7.58369 1.66388,-7.43981c1.23578,0.14388 3.94717,-1.79533 2.81128,7.96084c-1.13588,9.75617 -3.0585,17.54847 -4.29428,17.40459c-1.23578,-0.14388 -1.31677,-8.16946 -0.18088,-17.92563z" fill="#ff8200" fill-rule="nonzero" stroke-linecap="butt" stroke-linejoin="miter"/><path d="M233.10266,195.98237c0.71867,2.30728 -1.57717,6.15162 -1.51552,7.26795c0.06192,0.31011 4.99773,2.74276 7.93688,4.2197c4.17933,2.0355 2.04386,8.62106 -2.57019,8.44596c-4.30392,-0.23703 -12.05455,-5.13886 -13.38125,-6.6153c-3.11222,-3.31273 0.90026,-12.74618 3.45398,-19.06477" fill="#717171" fill-rule="evenodd" stroke-linecap="round" stroke-linejoin="round"/></g><g><path d="M273.49217,205.09239c-1.56092,4.37925 -12.42651,4.50747 -24.26897,0.2864c-11.84247,-4.22107 -20.17732,-11.193 -18.6164,-15.57225c1.56092,-4.37925 12.42651,-4.50747 24.26897,-0.2864c11.84247,4.22107 20.17732,11.193 18.6164,15.57225z" fill="#ff8200" fill-rule="nonzero" stroke="#001026" stroke-width="1.2" stroke-linecap="butt" stroke-linejoin="miter"/><g><g><g><path d="M279.59438,151.11502c0.35524,-0.06169 0.77217,0.23186 0.70196,0.63816l-1.94642,10.83796c0,0 3.95439,6.8857 4.35853,10.67208c0.70406,6.3241 -1.02323,10.48061 -1.02323,10.48061c0,0 5.6455,4.79043 4.43937,10.48914c-1.20614,5.69871 -9.59577,13.79896 -28.28726,9.58492c-18.69149,-4.21404 -30.44197,-14.98187 -32.32871,-28.27888c-1.88673,-13.297 13.85442,-21.21002 12.98228,-20.72077l5.31378,-17.2216c0.0702,-0.40629 0.64879,-0.47861 0.93384,-0.13401l7.87475,12.11645c0,0 4.80317,0.26379 9.18302,1.98045c2.64195,0.94874 4.75636,2.10167 6.69847,3.39714z" fill="#717171" fill-rule="evenodd" stroke="#001026" stroke-width="1.2" stroke-linecap="butt" stroke-linejoin="miter"/><path d="M275.73708,180.07128c-1.64622,3.7256 -8.56043,4.28032 -15.44332,1.239c-6.88289,-3.04132 -11.12805,-8.52699 -9.48183,-12.25259c1.64622,-3.7256 8.56043,-4.28032 15.44332,-1.239c6.88289,3.04132 11.12805,8.52699 9.48183,12.25259z" fill="#000000" fill-rule="nonzero" stroke="none" stroke-width="NaN" stroke-linecap="butt" stroke-linejoin="miter"/><path d="M281.24916,183.98845c0,0 5.58382,4.4352 4.37768,10.1339c-1.20614,5.69871 -9.75956,13.17995 -28.2277,8.95527c-24.15621,-5.20746 -28.85505,-23.02685 -18.44248,-30.01458c10.45299,-7.0792 17.29393,5.89237 25.21977,8.73858c6.78781,2.45267 10.06582,-2.98651 17.07272,2.18683z" fill="#ffffff" fill-rule="evenodd" stroke="none" stroke-width="1" stroke-linecap="butt" stroke-linejoin="miter"/><path d="M297.63477,192.4313c-5.83485,1.57621 -12.461,-1.24234 -12.461,-1.24234" fill="none" fill-rule="evenodd" stroke="#001026" stroke-width="1.2" stroke-linecap="round" stroke-linejoin="round"/><path d="M291.91899,202.15035c-5.96459,-2.08892 -8.76394,-5.40308 -8.76394,-5.40308" fill="none" fill-rule="evenodd" stroke="#001026" stroke-width="1.2" stroke-linecap="round" stroke-linejoin="round"/><path d="M264.86141,179.26177c1.92083,0.84875 3.85231,1.92087 3.66086,2.60156c-0.47437,1.32097 -2.97807,3.27584 -4.48197,2.72064c-1.72727,-0.54457 -4.55852,-4.52878 -3.91185,-5.99228c0.39353,-1.13804 2.9036,-0.13826 4.73297,0.67009z" fill="#001026" fill-rule="evenodd" stroke="#001026" stroke-width="1.2" stroke-linecap="round" stroke-linejoin="round"/><path d="M224.30685,159.70215c0,0 6.73461,6.03697 8.68308,10.28708" fill="none" fill-rule="evenodd" stroke="#001026" stroke-width="1.2" stroke-linecap="round" stroke-linejoin="round"/><path d="M231.84976,173.31189c-4.62023,-0.18296 -10.94431,-4.17996 -10.94431,-4.17996" fill="none" fill-rule="evenodd" stroke="#001026" stroke-width="1.2" stroke-linecap="round" stroke-linejoin="round"/><path d="M280.01733,177.73941c0.83382,5.28816 -0.76984,5.58322 -4.05846,6.09798c-3.28862,0.51476 -6.64741,-3.26525 -7.57271,-8.59384c-0.4392,-2.73432 -0.84129,-7.95724 0.20996,-6.90955c11.95287,11.91238 11.00049,7.74385 11.24176,8.69922c0.05952,0.2357 0.1414,0.46482 0.17945,0.70619z" fill="url(#color-2)" fill-rule="evenodd" stroke="#001026" stroke-width="1.2" stroke-linecap="round" stroke-linejoin="round"/><path d="M256.56761,165.86688c0.96571,5.23712 -1.39973,10.09558 -4.6373,10.74223c-3.78638,0.40414 -7.24515,-2.65476 -8.21087,-7.89188c8.26967,3.06402 11.88245,-8.08747 12.84817,-2.85035z" fill="url(#color-3)" fill-rule="evenodd" stroke="#001026" stroke-width="1.2" stroke-linecap="round" stroke-linejoin="round"/></g><path d="M248.7466,175.70437c0.00631,0.02952 0.01002,0.06195 0.01089,0.09744c0.13412,0.03072 0.27738,0.053 0.43108,0.06581c0.10812,0.04696 0.21669,0.09494 0.32569,0.143c0.47319,0.03417 0.92783,0.05147 1.14917,0.09016c0.27535,0.00952 0.53704,0.09906 0.7834,0.20236c0.22993,-0.2844 0.51691,-0.48591 0.99528,-0.39267c0.27006,0.05264 0.488,0.15132 0.64992,0.27776c0.13312,-0.05872 0.26427,-0.11215 0.38819,-0.15334c0.8242,-0.76847 1.68612,-2.0492 2.07322,-2.46901l0.10628,-0.24053c0.0558,-0.12629 0.20342,-0.18343 0.32972,-0.12763c0.12629,0.0558 0.18343,0.20342 0.12763,0.32972l-0.11867,0.26857l-0.0578,-0.02554c-0.0012,0.00732 -0.00243,0.01465 -0.00368,0.02197l0.04234,0.03889c-0.0204,0.02288 -0.04129,0.04676 -0.06262,0.0716c-0.36905,1.87353 -2.0691,4.15311 -3.43939,5.85315c-0.91556,1.86132 -2.3146,4.27384 -3.78353,5.32743l0.0392,0.03627l-0.20072,0.21693c-0.07018,0.07951 -0.18631,0.10828 -0.28848,0.06314c-0.12629,-0.0558 -0.18343,-0.20342 -0.12763,-0.32972c0.00033,-0.00075 0.00066,-0.0015 0.00101,-0.00224l0.20579,-0.45529l0.00775,0.0035l0.00438,-0.02695c0.93876,-1.279 1.76246,-2.59789 2.70516,-3.86334c0.46433,-0.5716 0.8589,-1.13582 1.21837,-1.70086c0.12385,-0.24133 0.24137,-0.48587 0.35107,-0.73414c0.126,-0.2836 0.28951,-0.54324 0.456,-0.80147c-0.17483,0.1371 -0.41387,0.25211 -0.72081,0.32777c-1.33354,0.48193 -2.40866,0.09474 -3.46046,-0.16607l-0.11222,0.10975c-0.0708,0.07252 -0.18184,0.09737 -0.28,0.054c-0.11029,-0.04873 -0.16785,-0.1675 -0.14349,-0.28093c-0.65851,-0.11847 -1.32357,-0.1208 -2.05306,0.23812l-0.39564,0.27471c-0.06961,0.05011 -0.1632,0.06304 -0.2473,0.02588c-0.11753,-0.05193 -0.17518,-0.18339 -0.13762,-0.30317l0.11533,-0.38779l0.07305,0.02172c0.14901,-0.60602 0.44272,-0.99102 0.82841,-1.21489c-0.00416,-0.03718 -0.00881,-0.07524 -0.01394,-0.11402c-1.6517,1.46429 -2.10118,3.84906 -3.44591,5.48065c-0.03588,0.06271 -0.07214,0.12554 -0.1087,0.18869l-0.11457,0.25929c-0.0558,0.12629 -0.20342,0.18343 -0.32972,0.12763c-0.12629,-0.0558 -0.18343,-0.20342 -0.12763,-0.32972l0.11867,-0.26857l0.00585,0.00259l-0.00008,-0.01476c0.02952,-0.05119 0.05887,-0.10214 0.08804,-0.15296c0.02817,-0.45216 0.50953,-1.20357 0.65779,-1.53583c0.26864,-0.60206 0.67504,-1.3568 1.15695,-2.08635c0.32592,-0.63611 0.65036,-1.2769 0.94048,-1.9152l-0.07236,0.03719c-0.06517,0.03416 -0.14474,0.03937 -0.21726,0.00732c-0.12629,-0.0558 -0.18343,-0.20342 -0.12763,-0.32972c0.01697,-0.0384 0.04243,-0.07042 0.0732,-0.0948l0.3334,-0.27578l0.00956,0.01156c0.09526,-0.12853 0.19699,-0.2517 0.30906,-0.36537c0.00478,-0.00485 0.00993,-0.0099 0.0154,-0.01515c-0.16264,-0.23215 -0.32806,-0.46057 -0.50014,-0.67615c-0.00461,0.00139 -0.00922,0.00284 -0.01385,0.00433c-0.04409,0.01421 -0.08798,0.03308 -0.13167,0.05581c-0.36483,0.45081 -0.72641,0.89075 -1.14906,1.27733l0.04599,0.03829l-0.31641,0.37999c-0.06906,0.08689 -0.19043,0.1199 -0.29669,0.07294c-0.07394,-0.03267 -0.12418,-0.09682 -0.14192,-0.16973c-0.12459,-0.05662 -0.18064,-0.20314 -0.12519,-0.32863l0.15823,-0.3581l0.07116,0.03144c0.19869,-0.65143 0.56418,-1.03263 0.99235,-1.19315c0.13996,-0.12353 0.28636,-0.24003 0.43426,-0.34403c-0.03882,-0.03862 -0.07808,-0.07635 -0.11781,-0.1131c-0.10099,-0.26559 -0.11271,-0.56875 -0.06951,-0.84957l0.0046,-0.00912l-0.0023,-0.00059l0.12297,-0.47978c0.00349,-0.01467 0.00835,-0.02924 0.01466,-0.04354c0.0558,-0.12629 0.20342,-0.18343 0.32972,-0.12763c0.11477,0.05072 0.17243,0.17727 0.14011,0.29472l-0.0831,0.32422c0.02837,0.07203 0.0584,0.14016 0.09001,0.20463c0.06677,-0.03864 0.15046,-0.04594 0.22643,-0.01237l0.3581,0.15823l-0.00585,0.01322l0.04117,0.00591c0.1759,0.15697 0.33224,0.32601 0.47684,0.50081c0.14653,0.11213 0.26382,0.2501 0.31134,0.40381c0.03596,0.04927 0.07149,0.09861 0.10673,0.1479c0.71591,0.26582 1.48273,0.46955 2.01169,1.34991c0.06925,0.11526 0.09215,0.22963 0.08142,0.34123zM250.60856,177.33412c-0.01673,-0.00206 -0.03346,-0.0042 -0.05016,-0.00641c0.01768,0.01231 0.02961,0.01787 0.03498,0.01493c0.00509,-0.00279 0.01016,-0.00563 0.01519,-0.00853zM253.64352,176.64817c0.04537,-0.08049 0.091,-0.16121 0.13694,-0.24218c-0.11281,0.10079 -0.22677,0.19449 -0.34142,0.27881c0.00953,0.06509 0.01419,0.12336 0.01443,0.17536c0.00515,-0.00934 0.01028,-0.01872 0.01537,-0.02811c0.03061,-0.05644 0.10179,-0.12126 0.17468,-0.18388zM252.71136,177.14831c-0.03976,-0.01452 -0.07976,-0.03008 -0.11964,-0.04622c-0.0954,0.02051 -0.19046,0.03075 -0.28489,0.02942c-0.0025,-0.00004 -0.00502,-0.00008 -0.00753,-0.00015l0.0411,0.01816c0.05342,0.0236 0.09446,0.06363 0.11982,0.11152c0.09735,-0.03495 0.18089,-0.07287 0.25114,-0.11273zM251.86537,176.4863c0.00122,0.00052 0.00245,0.00104 0.00367,0.00156c0.14039,0.01427 0.28445,0.03984 0.42052,0.06983c0.09211,-0.03942 0.18957,-0.08431 0.28994,-0.13141c-0.09974,-0.02928 -0.21629,-0.05088 -0.34859,-0.06259c-0.13549,-0.012 -0.25496,0.03664 -0.36556,0.12261zM247.53055,176.38316c-0.02593,-0.01032 -0.05164,-0.02094 -0.07708,-0.0318c-0.0258,0.03285 -0.05132,0.06686 -0.07666,0.10169l0.13145,-0.05089c0.00752,-0.00636 0.01496,-0.0127 0.02228,-0.01899zM250.98203,177.58142c0.21483,-0.00586 0.43655,-0.03054 0.66705,-0.08023c-0.06533,-0.00583 -0.12922,-0.01549 -0.18965,-0.0302c-0.06009,0.05208 -0.14306,0.07353 -0.22266,0.05419l-0.16486,-0.03664c-0.02927,0.03261 -0.05919,0.06371 -0.08987,0.09287zM246.11305,175.73727c0.04606,-0.03872 0.09219,-0.07608 0.13833,-0.11195c-0.01951,-0.02757 -0.03899,-0.05525 -0.05845,-0.08302c-0.02562,0.06444 -0.05229,0.12945 -0.07988,0.19497zM247.14547,177.00902c0.00225,-0.00025 0.00452,-0.0005 0.00677,-0.00074c-0.00164,-0.00061 -0.00328,-0.00125 -0.00491,-0.0019zM250.14392,177.51734c-0.11271,-0.11548 -0.24027,-0.23758 -0.35357,-0.3144c-0.13596,0.06048 -0.26719,0.1092 -0.39402,0.14698c0.24474,0.06428 0.49263,0.12437 0.74759,0.16742zM247.09719,175.40224c-0.00795,0.04623 -0.0193,0.09571 -0.0343,0.14863c0.07151,0.01918 0.14416,0.04043 0.21728,0.06379c-0.06118,-0.06997 -0.12209,-0.14091 -0.18298,-0.21242zM247.06788,176.28266c0.00273,0.00398 0.00545,0.00797 0.00818,0.01194c0.00821,-0.01137 0.01662,-0.02269 0.0252,-0.03398c-0.0109,0.0062 -0.02203,0.01356 -0.03338,0.02204zM246.38589,177.19162c0.04725,-0.01765 0.09415,-0.03399 0.14071,-0.04905c-0.00362,-0.02251 -0.00419,-0.04565 -0.00145,-0.06877l0.00859,-0.09071c-0.04863,0.07097 -0.09804,0.14143 -0.14784,0.20854z" fill="#000000" fill-rule="nonzero" stroke="none" stroke-width="0.5" stroke-linecap="butt" stroke-linejoin="miter"/><path d="M275.2217,185.8605c0.11194,-0.04549 0.22695,-0.0989 0.34285,-0.15872c-0.10079,0.03084 -0.1924,0.06089 -0.27121,0.09037c-0.02405,0.02277 -0.04793,0.04555 -0.07165,0.06835zM277.03406,185.26312c-0.7351,0.68755 -1.77269,1.33487 -2.42451,1.24316c-0.03082,0.0283 -0.06139,0.05637 -0.09175,0.08419c-1.17571,1.31924 -1.90097,2.69199 -2.56181,4.22796c-0.15288,0.95395 -0.25336,1.96932 -0.86189,2.65152l0.06466,0.05877l-0.20431,0.22475c-0.07003,0.08074 -0.18703,0.11022 -0.2899,0.06476c-0.09129,-0.04033 -0.14644,-0.12864 -0.14894,-0.22219l-0.02056,-0.4318l0.01574,-0.00075l-0.01294,-0.05028c0.48743,-1.34683 0.95271,-2.57656 1.52895,-3.72223c0.39473,-1.1298 0.90146,-2.06147 2.02086,-3.02557c0.29915,-0.33778 0.62429,-0.66971 0.98028,-0.997c0.18575,-0.07394 0.48474,-0.15644 0.81067,-0.24607c-0.49644,0.05522 -0.98689,-0.26701 -1.43545,-0.63702c-0.35329,-0.04147 -0.66328,-0.11554 -0.9071,-0.22327c-0.26839,-0.11859 -0.54999,-0.29058 -0.83676,-0.46711c-0.10095,0.20474 -0.17666,0.53479 -0.22279,1.03022c-0.03787,0.40669 -0.14593,0.72283 -0.07734,1.13131c-0.07203,1.73763 -2.04983,6.50151 -3.97164,7.43286l0.04284,0.11068l-0.25816,0.09993v0v0c-0.05966,0.02309 -0.12814,0.02342 -0.19129,-0.00447c-0.12629,-0.0558 -0.18343,-0.20342 -0.12763,-0.32972l0.15823,-0.3581c0.26557,-0.59568 0.43452,-1.22551 0.70163,-1.83005c0.76527,-1.68754 2.21569,-3.2331 2.7683,-5.04621c0.12636,-0.41458 0.10523,-0.84983 0.11645,-1.27868c-0.08621,0.07045 -0.17335,0.13925 -0.26014,0.20594c-0.40777,0.68532 -0.97472,1.53033 -1.57723,2.28342c-0.30623,0.63812 -0.65765,1.18584 -1.11753,1.49504c-0.55432,0.35275 -3.28712,3.964 -3.66574,3.24432c-0.24624,-0.46804 2.01602,-2.79296 2.24466,-3.23644c0.19871,-0.22032 0.4153,-0.4611 0.64002,-0.71845c0.28012,-0.88922 0.64952,-2.21122 0.96784,-2.41351c0.33585,-0.21344 0.72535,-0.30089 1.12092,-0.43715c0.34535,-0.62991 0.6031,-1.27489 0.70102,-1.90575c-0.17113,-0.17536 -0.28422,-0.49966 -0.25268,-1.0262c-0.04801,-0.0271 -0.09709,-0.05321 -0.14734,-0.07835l-0.01453,-0.09697l-0.03774,0.01461l-0.09993,-0.25816c-0.02309,-0.05966 -0.02342,-0.12814 0.00447,-0.19129c0.0558,-0.12629 0.20342,-0.18343 0.32972,-0.12763l0.26857,0.11867l-0.00769,0.0174c0.01232,0.00069 0.02521,0.00215 0.03873,0.00449c0.05164,0.00892 0.09059,0.0268 0.1199,0.04949c2.0914,0.58492 3.39196,2.3436 6.14243,1.88122c0.08566,0.0081 0.16703,0.01329 0.24443,0.01573c0.29583,-0.389 0.60235,-0.82951 0.93821,-0.93319c0.43318,-0.13372 0.8244,-0.21063 1.17156,-0.23454c0.04212,-0.03509 0.08607,-0.06958 0.13227,-0.10323c0.00144,-0.26603 0.11471,-0.448 0.41731,-0.46046c0.08527,-0.00351 0.1595,0.01434 0.22385,0.05059l0.06807,-0.07486c0.07003,-0.08074 0.18703,-0.11022 0.2899,-0.06476c0.12629,0.0558 0.18343,0.20342 0.12763,0.32972l-0.11867,0.26857l-0.07715,-0.03409l-0.00753,0.00829c0.02101,0.07323 0.03797,0.15311 0.05134,0.23847c0.8938,0.40419 1.09109,1.52486 0.47018,3.14127c-0.34083,0.78517 -0.69833,1.55803 -1.06314,2.32611c-0.37973,2.02147 -1.05978,4.40274 -2.42627,5.42735l0.06348,0.09357l-0.41019,0.27829c-0.06936,0.04874 -0.1618,0.06097 -0.24498,0.02422c-0.12629,-0.0558 -0.18343,-0.20342 -0.12763,-0.32972l0.11867,-0.26857c0.72939,-1.6507 1.52344,-3.24555 2.29545,-4.85322c0.24308,-0.75805 0.43625,-1.54182 0.54312,-2.36895c0.01884,-0.29016 0.02676,-1.67637 0.08563,-2.66842c-0.0555,-0.04584 -0.11303,-0.08762 -0.17264,-0.12416c-0.40857,0.30562 -0.92294,0.55824 -1.48394,0.75517c-0.08916,0.34625 -0.1721,0.71671 -0.35831,0.88465c-0.1489,0.13429 -0.40922,0.25367 -0.71219,0.36182zM271.78882,186.59237c-0.65529,1.64808 -1.99856,3.23489 -2.61836,4.68733c-0.14052,0.31802 -0.25436,0.64103 -0.36883,0.96293c0.28554,-0.31103 0.59189,-0.60332 0.68503,-0.73774c0.79603,-1.14872 1.99737,-3.32868 2.30216,-4.91252zM270.8557,184.63962c0.24114,-0.31051 0.4312,-0.59303 0.53485,-0.83222l0.08836,-0.19996c-0.23333,0.27798 -0.43564,0.63474 -0.62321,1.03218zM268.96073,186.68371c0.1702,-0.22614 0.33621,-0.45811 0.49384,-0.69424c-0.24803,0.0616 -0.46723,0.11287 -0.46686,0.11751c0.01571,0.19356 0.0044,0.38574 -0.02699,0.57673zM272.11557,183.46948c-0.02725,-0.01531 -0.05449,-0.03038 -0.08173,-0.04519c-0.01822,-0.00703 -0.03634,-0.01412 -0.05435,-0.02127c0.01876,0.02577 0.0324,0.05488 0.04025,0.08561l0.01988,0.07512c0.02193,-0.02799 0.04788,-0.06002 0.07595,-0.09428zM276.14584,185.03728c0.22362,-0.06279 0.44739,-0.12858 0.64543,-0.19692c0.1687,-0.15793 0.31302,-0.31801 0.41961,-0.47079c-0.17611,0.19807 -0.36995,0.3361 -0.61088,0.32792c-0.15057,0.16103 -0.30231,0.27118 -0.45416,0.33978zM280.3882,184.62825c-0.08995,0.69446 -0.2042,1.29466 -0.21512,1.47482c-0.00603,0.04345 -0.01219,0.08767 -0.01848,0.13261c0.10456,-0.23247 0.20788,-0.46585 0.30971,-0.70029c0.051,-0.13164 0.09713,-0.25848 0.13826,-0.38049c-0.00304,-0.0012 -0.00607,-0.00247 -0.0091,-0.00381c-0.08063,-0.03563 -0.13308,-0.10869 -0.14593,-0.18972l-0.05664,-0.3262c-0.00084,-0.00223 -0.00173,-0.00454 -0.00269,-0.00693zM275.64342,184.50862c0.15618,0.02411 0.30579,0.01488 0.44569,-0.03919c-0.15025,0.01688 -0.29914,0.02995 -0.44569,0.03919zM275.67669,184.10956c-0.33614,-0.01719 -0.70606,-0.04876 -1.08881,-0.09635c0.03185,0.02133 0.06369,0.04234 0.09551,0.06297c0.32143,0.0446 0.65631,0.05472 0.9933,0.03339zM277.8385,183.52207c-0.00436,0.00528 -0.0087,0.01058 -0.01303,0.01593c0.00326,-0.00163 0.00651,-0.00326 0.00976,-0.00491c0.00108,-0.00368 0.00217,-0.00735 0.00327,-0.01102zM280.49767,183.25059c0.11498,0.08146 0.21644,0.17281 0.30031,0.27332c-0.0557,-0.18385 -0.15539,-0.3279 -0.30115,-0.43149c0.00098,0.05189 0.00124,0.10467 0.00084,0.15817z" fill="#000000" fill-rule="nonzero" stroke="none" stroke-width="0.5" stroke-linecap="butt" stroke-linejoin="miter"/></g><path d="M252.08909,198.80547c-1.42912,3.23428 -3.89859,5.27691 -5.51574,4.56235c-1.61713,-0.71456 -1.76956,-3.91572 -0.34043,-7.15c1.42912,-3.23428 3.89859,-5.27691 5.51574,-4.56235c1.61713,0.71456 1.76956,3.91572 0.34043,7.15z" fill="#000000" fill-rule="nonzero" stroke="#001026" stroke-width="1.2" stroke-linecap="butt" stroke-linejoin="miter"/></g></g></g></g></svg>