<svg version="1.1" xmlns="http://www.w3.org/2000/svg" xmlns:xlink="http://www.w3.org/1999/xlink" width="89.45019" height="107.83218" viewBox="0,0,89.45019,107.83218"><defs><linearGradient x1="243.94109" y1="186.38957" x2="249.67053" y2="204.08515" gradientUnits="userSpaceOnUse" id="color-1"><stop offset="0" stop-color="#ffffff"/><stop offset="1" stop-color="#9f9f9f"/></linearGradient><radialGradient cx="234.21002" cy="160.90245" r="9.00472" gradientUnits="userSpaceOnUse" id="color-2"><stop offset="0" stop-color="#1a1a1a"/><stop offset="1" stop-color="#ffffff"/></radialGradient><radialGradient cx="210.75043" cy="164.03247" r="6.89369" gradientUnits="userSpaceOnUse" id="color-3"><stop offset="0" stop-color="#1a1a1a"/><stop offset="1" stop-color="#ffffff"/></radialGradient></defs><g transform="translate(-179.70227,-132.89269)"><g data-paper-data="{&quot;isPaintingLayer&quot;:true}" stroke-miterlimit="10" stroke-dasharray="" stroke-dashoffset="0" style="mix-blend-mode: normal"><path d="M229.61017,187.58678c1.78986,1.20505 8.01248,6.49197 10.5075,5.59171c2.35781,-0.8924 5.43371,-7.26348 9.24679,-4.38496c3.74056,2.81385 -0.39026,7.59357 -4.97035,10.54068c-5.90493,3.84908 -15.73595,-0.74902 -17.93687,-7.9186c-0.69841,-2.57543 1.29053,-5.09855 3.15294,-3.82883z" data-paper-data="{&quot;index&quot;:null}" fill="#717171" fill-rule="evenodd" stroke="#001026" stroke-width="1.2" stroke-linecap="round" stroke-linejoin="round"/><g fill-rule="nonzero" stroke="#001026" stroke-width="1.2" stroke-linejoin="miter"><g><g><path d="M244.23902,192.17933l-3.32677,-10.27486l2.47357,-0.80089l3.32677,10.27486z" fill="#2c2c2c" stroke-linecap="butt"/><path d="M247.96218,203.14047l2.29926,-0.68806l3.66821,14.35076z" fill="#6c6c6c" stroke-linecap="butt"/><path d="M246.15045,205.22488l-5.72945,-17.69558l7.04018,-2.27945l5.72944,17.69558z" fill="url(#color-1)" stroke-linecap="butt"/><path d="M241.22189,190.00287l3.48656,-0.91865" fill="none" stroke-linecap="round"/><path d="M242.64976,193.11434l3.106,-0.79543" fill="none" stroke-linecap="round"/><path d="M243.19876,195.45924l2.78706,-0.48194" fill="none" stroke-linecap="round"/><path d="M244.74985,198.95125l2.09302,-0.67767" fill="none" stroke-linecap="round"/><path d="M248.33235,201.57532l-3.03895,0.35328" fill="none" stroke-linecap="round"/></g><path d="M238.74671,183.65674l-0.8625,-2.66385l7.23046,-2.34107l0.8625,2.66386z" fill="#2c2c2c" stroke-linecap="butt"/></g><path d="M245.3226,194.8767c0.90165,2.78479 0.39735,5.44223 -1.1264,5.93558c-1.52375,0.49336 -3.48992,-1.36421 -4.39157,-4.14899c-0.90165,-2.78479 -0.39734,-5.44224 1.1264,-5.93559c1.52375,-0.49336 3.48993,1.36421 4.39158,4.149z" fill="#717171" stroke-linecap="butt"/><path d="M254.71858,190.78338c1.37799,4.25598 0.32275,8.4095 -2.35694,9.27713c-2.67969,0.86763 -5.96909,-1.87918 -7.34709,-6.13516c-1.37799,-4.25598 -0.32276,-8.40949 2.35694,-9.27712c2.67969,-0.86763 5.96909,1.87917 7.34709,6.13515z" fill="#717171" stroke-linecap="butt"/></g><g fill-rule="evenodd"><path d="M225.7772,205.53016c0.99071,0.13595 3.74254,-0.93993 2.84557,3.0956c-1.03837,4.03631 -5.37548,12.54568 -17.25079,13.31842c-12.86524,0.77821 -17.59771,-11.07521 -14.78808,-14.48491c2.73931,-3.33859 6.52091,2.79244 14.24662,6.0732c11.12837,4.81762 13.95596,-8.13826 14.94667,-8.0023z" fill="#717171" stroke="#001026" stroke-width="1.2" stroke-linecap="round" stroke-linejoin="round"/><path d="M202.25005,209.12504c3.48001,2.73854 6.3162,4.1371 6.3162,4.1371c0,0 -2.54709,-0.26877 -3.95035,1.71892c-1.68375,2.4135 -0.61021,4.74106 -0.18283,5.30439c-1.70094,-0.69772 -3.61596,-1.74782 -6.03493,-4.42149c-2.13691,-2.81666 -3.14952,-6.91234 -1.10713,-8.40858c1.69078,-1.14073 2.75806,0.05547 4.95905,1.66968z" fill="#ffffff" stroke="none" stroke-width="1" stroke-linecap="butt" stroke-linejoin="miter"/></g><path d="M267.37341,208.22803c3.07634,2.34136 -4.7794,11.2332 -4.7794,11.2332c0,0 -5.67003,8.8798 -8.74637,6.53843c-2.74572,-2.08974 -24.51181,-22.10549 -22.85603,-27.07077c1.28194,-3.8442 25.16321,13.58196 25.5886,13.02305c3.95803,-5.20049 7.71687,-6.06528 10.79321,-3.72391z" fill="#717171" fill-rule="nonzero" stroke="#001026" stroke-width="1.2" stroke-linecap="butt" stroke-linejoin="miter"/><path d="M242.3198,237.04197c0,3.86599 -11.83333,3 -11.83333,3c0,0 -10.5,0.86599 -10.5,-3c0,-3.45051 2.7452,-32.89294 7.69909,-34.58249c3.83539,-1.30808 4.43187,28.24916 5.13424,28.24916c6.53537,0 9.5,2.46734 9.5,6.33333z" fill="#717171" fill-rule="nonzero" stroke="#001026" stroke-width="1.2" stroke-linecap="butt" stroke-linejoin="miter"/><g fill-rule="evenodd"><path d="M232.23889,208.88756c-6.3305,6.65736 -10.87336,-1.04888 -17.47993,-7.79373c-3.59358,-3.61885 -6.71718,-9.35521 -3.80333,-14.73568c1.47916,-3.10193 6.97867,0.0181 7.53103,-2.11379c0.87634,-3.18309 5.28673,-1.19604 7.4108,0.40032c0,0 3.12357,2.4276 4.55643,4.22952c1.82234,2.23586 3.58578,4.66287 4.09244,6.0747c0,0 4.51195,6.76712 -2.30745,13.93864z" fill="#717171" stroke="#001026" stroke-width="1.2" stroke-linecap="round" stroke-linejoin="round"/><path d="M234.22629,195.65771c0,0 -1.58855,1.08006 -3.49325,2.16732c-2.30919,1.38118 -4.33168,2.8507 -6.70516,0.02641c-1.76343,-2.42699 -4.32083,-4.99404 -0.22414,-8.44037c3.84665,-3.3141 5.67619,-0.76209 5.67619,-0.76209c3.65248,3.42773 4.74637,7.00874 4.74637,7.00874z" fill="#ffffff" stroke="none" stroke-width="1" stroke-linecap="butt" stroke-linejoin="miter"/></g><g data-paper-data="{&quot;index&quot;:null}"><g><path d="M226.43834,133.3813c0.29362,-0.20926 0.7965,-0.12488 0.90891,0.27181l2.93215,10.61379c0,0 6.54335,4.49829 8.54526,7.73748c3.36982,5.39762 3.61,9.89232 3.61,9.89232c0,0 7.16199,1.87775 8.53902,7.53758c1.37703,5.65984 -2.68431,16.5917 -21.35988,20.87572c-18.67558,4.28402 -33.92716,-0.34299 -41.37894,-11.51621c-7.45178,-11.17323 3.31901,-25.11562 2.74423,-24.29731l-2.65675,-17.82587c-0.11242,-0.39669 0.378,-0.71212 0.78403,-0.52469l12.34029,7.51912c0,0 4.44484,-1.83939 9.13633,-2.18575c2.7924,-0.28716 5.19748,-0.16203 7.50882,0.1661z" fill="#717171" fill-rule="evenodd" stroke="#001026" stroke-width="1.2" stroke-linecap="butt" stroke-linejoin="miter"/><path d="M235.48326,161.15778c0.12692,4.07112 -5.86735,7.56151 -13.38857,7.79598c-7.52122,0.23448 -13.72127,-2.87574 -13.84819,-6.94686c-0.12692,-4.07112 5.86736,-7.5615 13.38858,-7.79598c7.52122,-0.23448 13.72127,2.87574 13.84819,6.94686z" fill="#000000" fill-rule="nonzero" stroke="none" stroke-width="NaN" stroke-linecap="butt" stroke-linejoin="miter"/><path d="M242.14727,162.30585c0,0 6.95274,1.58412 8.32977,7.24396c1.37703,5.65984 -3.09968,16.10441 -21.57848,20.28224c-24.03245,5.75166 -35.97557,-8.28301 -29.60912,-19.08664c6.36333,-10.90358 18.1413,-2.16635 26.51853,-3.0278c7.18092,-0.72411 7.78423,-7.04598 16.3393,-5.41177z" fill="#ffffff" fill-rule="evenodd" stroke="none" stroke-width="1" stroke-linecap="butt" stroke-linejoin="miter"/><path d="M260.57262,162.83197c-4.57931,3.9446 -11.77269,4.26891 -11.77269,4.26891" fill="none" fill-rule="evenodd" stroke="#001026" stroke-width="1.2" stroke-linecap="round" stroke-linejoin="round"/><path d="M259.62225,174.06704c-6.28136,0.69607 -10.23867,-1.08148 -10.23867,-1.08148" fill="none" fill-rule="evenodd" stroke="#001026" stroke-width="1.2" stroke-linecap="round" stroke-linejoin="round"/><path d="M225.32715,165.13134c2.09898,-0.06544 4.30414,0.06592 4.4259,0.76246c0.14357,1.3962 -1.26844,4.24158 -2.86455,4.3914c-1.79289,0.25599 -6.06876,-2.11192 -6.11861,-3.71114c-0.13734,-1.1963 2.55822,-1.38039 4.55726,-1.4427z" fill="#001026" fill-rule="evenodd" stroke="#001026" stroke-width="1.2" stroke-linecap="round" stroke-linejoin="round"/><path d="M180.30227,165.03429c0,0 8.68307,2.53066 12.27797,5.52009" fill="none" fill-rule="evenodd" stroke="#001026" stroke-width="1.2" stroke-linecap="round" stroke-linejoin="round"/><path d="M192.98915,174.04333c-4.24494,1.83316 -11.67563,0.96429 -11.67563,0.96429" fill="none" fill-rule="evenodd" stroke="#001026" stroke-width="1.2" stroke-linecap="round" stroke-linejoin="round"/><path d="M238.33405,157.20417c3.03881,4.40745 1.72048,5.36702 -1.02208,7.2534c-2.74255,1.88637 -7.40575,-0.06926 -10.54452,-4.4736c-1.57854,-2.27545 -4.19985,-6.81077 -2.79889,-6.32078c15.92907,5.57145 13.26757,2.22477 13.89828,2.98184c0.15559,0.18677 0.32851,0.35795 0.46721,0.55912z" fill="url(#color-2)" fill-rule="evenodd" stroke="#001026" stroke-width="1.2" stroke-linecap="round" stroke-linejoin="round"/><path d="M212.05613,156.64075c3.13564,4.30438 3.10401,9.70799 0.46453,11.6912c-3.23919,2.00191 -7.68068,0.7397 -10.81632,-3.56469c8.78143,-0.81376 7.21615,-12.43089 10.3518,-8.12651z" fill="url(#color-3)" fill-rule="evenodd" stroke="#001026" stroke-width="1.2" stroke-linecap="round" stroke-linejoin="round"/><path d="M225.31495,179.98378c0.08389,2.69108 -13.85898,10.66257 -20.62118,10.87339c-6.7622,0.21081 -3.78302,-7.41888 -3.86691,-10.10996c-0.08389,-2.69108 2.24511,0.30519 9.00731,0.09437c6.7622,-0.21081 15.39689,-3.54888 15.48079,-0.8578z" fill="#000000" fill-rule="nonzero" stroke="#001026" stroke-width="1.2" stroke-linecap="butt" stroke-linejoin="miter"/></g><path d="M209.25881,168.89306c0.01845,0.02389 0.03582,0.05153 0.05195,0.08315c0.13421,-0.03031 0.27302,-0.07217 0.41714,-0.1271c0.1178,-0.00443 0.23644,-0.00811 0.3555,-0.01192c0.44143,-0.17383 0.85883,-0.35485 1.07513,-0.4157c0.25239,-0.1105 0.52705,-0.14294 0.79387,-0.15635c0.08431,-0.35587 0.25592,-0.66167 0.72756,-0.78447c0.26626,-0.06933 0.50544,-0.07461 0.70612,-0.03064c0.09463,-0.11051 0.18977,-0.21541 0.28369,-0.30614c0.41079,-1.04934 0.63407,-2.57685 0.80154,-3.12278l-0.0082,-0.26283c-0.00431,-0.138 0.10409,-0.25337 0.2421,-0.25767c0.138,-0.00431 0.25337,0.10409 0.25766,0.2421l0.00915,0.29348l-0.06316,0.00196c0.00208,0.00712 0.00414,0.01426 0.00619,0.0214l0.05499,0.01676c-0.00851,0.02945 -0.01701,0.06002 -0.0255,0.09165c0.47749,1.84887 -0.06949,4.63947 -0.56977,6.76492c-0.02054,2.07421 -0.23863,4.8545 -1.10744,6.43974l0.05103,0.01576l-0.08717,0.28239c-0.0289,0.10204 -0.12116,0.17821 -0.2328,0.18168c-0.138,0.00431 -0.25337,-0.10409 -0.25767,-0.24209c-0.00002,-0.00082 -0.00004,-0.00164 -0.00007,-0.00245l-0.01135,-0.49953l0.0085,-0.00019l-0.00771,-0.0262c0.29328,-1.5592 0.4656,-3.10459 0.7683,-4.65328c0.17146,-0.71619 0.28321,-1.39555 0.36296,-2.06049c0.00731,-0.27116 0.0075,-0.54247 -0.00095,-0.81376c-0.00905,-0.3102 0.0261,-0.61502 0.06454,-0.91984c-0.09834,0.19922 -0.26414,0.40629 -0.50816,0.60726c-0.99396,1.01125 -2.13078,1.1271 -3.19193,1.34682l-0.05373,0.14748c-0.03248,0.09601 -0.12185,0.16644 -0.2291,0.16978c-0.12052,0.00376 -0.22378,-0.07843 -0.25087,-0.19124c-0.64498,0.17797 -1.24563,0.46348 -1.74815,1.1026l-0.23792,0.4188c-0.0411,0.07527 -0.11988,0.12742 -0.21179,0.13029c-0.12843,0.004 -0.23725,-0.08959 -0.25519,-0.21383l-0.06373,-0.39953l0.07527,-0.012c-0.12773,-0.61085 -0.02941,-1.08501 0.22152,-1.45367c-0.01983,-0.03172 -0.04047,-0.06404 -0.06187,-0.09678c-0.85598,2.03459 -0.22991,4.37921 -0.73676,6.43188c-0.00524,0.07206 -0.01076,0.14439 -0.0164,0.21713l0.00883,0.28335c0.00431,0.138 -0.10409,0.25337 -0.2421,0.25767c-0.138,0.00431 -0.25337,-0.10409 -0.25766,-0.2421l-0.00915,-0.29348l0.0064,-0.0002l-0.00646,-0.01328c0.00448,-0.05891 0.00891,-0.11756 0.01322,-0.17599c-0.17015,-0.41987 -0.0611,-1.30555 -0.07112,-1.66926c-0.01815,-0.65904 0.02187,-1.5153 0.14087,-2.38149c0.01876,-0.7145 0.03417,-1.43257 0.01971,-2.13357l-0.04917,0.06482c-0.04398,0.05899 -0.11348,0.09809 -0.19273,0.10056c-0.138,0.00431 -0.25337,-0.10409 -0.25766,-0.24209c-0.00131,-0.04197 0.00781,-0.08185 0.025,-0.11714l0.18134,-0.39284l0.01362,0.00628c0.03029,-0.15709 0.06876,-0.31214 0.12065,-0.46311c0.0022,-0.00644 0.00467,-0.01322 0.00733,-0.02031c-0.24704,-0.13898 -0.49498,-0.2734 -0.74337,-0.39336c-0.00355,0.00325 -0.00709,0.00654 -0.01062,0.0099c-0.03361,0.03188 -0.06502,0.06787 -0.09458,0.10726c-0.13398,0.56425 -0.26974,1.11729 -0.48363,1.64864l0.05803,0.01464l-0.12095,0.47946c-0.02469,0.10822 -0.11984,0.19046 -0.23597,0.19407c-0.08081,0.00252 -0.15384,-0.03359 -0.20137,-0.09167c-0.13682,0.00283 -0.25072,-0.10504 -0.255,-0.24217l-0.0122,-0.39131l0.07775,-0.00242c-0.10258,-0.67328 0.0621,-1.17507 0.37875,-1.50496c0.07277,-0.17191 0.15439,-0.34027 0.24277,-0.498c-0.05171,-0.01804 -0.10342,-0.03508 -0.15513,-0.05103c-0.20592,-0.19579 -0.34759,-0.46406 -0.43009,-0.73596l0.0002,-0.01022l-0.00234,0.00047l-0.09662,-0.48578c-0.0032,-0.01473 -0.00511,-0.02997 -0.00561,-0.0456c-0.00431,-0.138 0.10409,-0.25337 0.24209,-0.25767c0.12542,-0.00391 0.23214,0.08526 0.25379,0.20514l0.06529,0.32827c0.05673,0.05268 0.11328,0.10111 0.16965,0.14557c0.0435,-0.06372 0.1158,-0.10649 0.19881,-0.10908l0.39131,-0.0122l0.00045,0.01445l0.03968,-0.01247c0.22649,0.06546 0.44055,0.15025 0.64653,0.24533c0.18061,0.03773 0.34603,0.1114 0.45534,0.22944c0.05372,0.02887 0.10711,0.058 0.1602,0.0872c0.76046,-0.06994 1.53996,-0.21788 2.39764,0.34714c0.11229,0.07398 0.1824,0.16719 0.22099,0.27246zM211.64247,169.55727c-0.01598,0.00538 -0.03199,0.01069 -0.048,0.01592c0.02127,0.00345 0.03443,0.0033 0.038,-0.00166c0.00339,-0.00472 0.00671,-0.00947 0.01,-0.01426zM214.08228,167.62625c0.00609,-0.0922 0.01233,-0.1847 0.01874,-0.27759c-0.05811,0.13967 -0.12036,0.27344 -0.18726,0.39904c0.03675,0.05456 0.06615,0.10509 0.08884,0.15188c0.00061,-0.01065 0.00118,-0.02133 0.0017,-0.03199c0.00319,-0.06413 0.03934,-0.15335 0.07797,-0.24133zM213.45808,168.48034c-0.04213,0.0041 -0.08493,0.00737 -0.12786,0.01006c-0.07715,0.05975 -0.15842,0.1101 -0.24415,0.14974c-0.00226,0.00105 -0.00456,0.00209 -0.00685,0.00312l0.04491,-0.0014c0.05838,-0.00182 0.11269,0.01651 0.15626,0.04873c0.07266,-0.07361 0.13159,-0.14393 0.17768,-0.21025zM212.40901,168.2493c0.00133,-0.00006 0.00266,-0.00012 0.004,-0.00018c0.13276,-0.04784 0.27371,-0.0871 0.40937,-0.1189c0.066,-0.07538 0.13447,-0.158 0.20459,-0.24388c-0.1026,0.01673 -0.21701,0.04766 -0.34136,0.09431c-0.12736,0.04778 -0.21404,0.1433 -0.27658,0.26865zM208.45593,170.031c-0.02784,0.00191 -0.05562,0.00346 -0.08325,0.00466c-0.00906,0.04078 -0.01736,0.08247 -0.02515,0.12484l0.09651,-0.10273c0.00403,-0.00899 0.00799,-0.01792 0.01188,-0.02676zM212.08616,169.61874c0.19116,-0.09819 0.3804,-0.21634 0.56674,-0.36081c-0.06143,0.023 -0.12321,0.04192 -0.18405,0.0548c-0.03166,0.07295 -0.09719,0.12817 -0.17733,0.14516l-0.16449,0.03827c-0.01229,0.04207 -0.02581,0.08304 -0.04087,0.1226zM206.8985,170.06167c0.02479,-0.05483 0.05022,-0.10846 0.07632,-0.16076c-0.02951,-0.01643 -0.05906,-0.03296 -0.08861,-0.04957c0.00477,0.06918 0.00884,0.13933 0.01229,0.21034zM208.37939,170.76185c0.00193,-0.0012 0.00386,-0.0024 0.00578,-0.00359c-0.00174,0.00015 -0.0035,0.00028 -0.00525,0.00041zM211.30277,169.92341c-0.15157,-0.05538 -0.31938,-0.11031 -0.45477,-0.13057c-0.09644,0.11333 -0.19369,0.21401 -0.29171,0.30292c0.24847,-0.04788 0.49797,-0.1009 0.74646,-0.17236zM207.64096,169.33398c0.01282,0.04513 0.024,0.09465 0.03335,0.14884c0.07277,-0.01363 0.14746,-0.02588 0.22351,-0.03645c-0.08543,-0.03663 -0.17103,-0.07426 -0.25685,-0.1124zM207.9953,170.14048c0.00418,0.00241 0.00836,0.00482 0.01254,0.00723c0.00249,-0.01381 0.00518,-0.02765 0.00803,-0.04153c-0.00715,0.01029 -0.014,0.02175 -0.02057,0.03431zM207.77349,171.25498c0.03497,-0.03635 0.0702,-0.07136 0.10566,-0.10508c-0.01301,-0.01873 -0.02352,-0.03934 -0.03105,-0.06138l-0.03149,-0.0855c-0.01316,0.08502 -0.02723,0.16992 -0.04311,0.25196z" fill="#000000" fill-rule="nonzero" stroke="none" stroke-width="0.5" stroke-linecap="butt" stroke-linejoin="miter"/><path d="M237.52226,166.60051c0.08125,-0.08942 0.16185,-0.18733 0.24049,-0.29139c-0.07754,0.07139 -0.14714,0.13811 -0.20545,0.19877c-0.01183,0.03093 -0.02351,0.0618 -0.03504,0.09262zM238.898,165.27808c-0.36545,0.93785 -1.02104,1.97022 -1.6484,2.16943c-0.01555,0.03885 -0.03099,0.07738 -0.04631,0.11559c-0.48954,1.69794 -0.54979,3.24934 -0.48136,4.92003c0.27472,0.92625 0.62325,1.8852 0.36959,2.76347l0.08372,0.02503l-0.08703,0.291c-0.02822,0.10309 -0.12097,0.18027 -0.23338,0.18377c-0.09975,0.00311 -0.18767,-0.05266 -0.23038,-0.13592l-0.20528,-0.38043l0.01387,-0.00749l-0.03341,-0.03973c-0.14298,-1.42517 -0.25528,-2.73516 -0.23119,-4.01737c-0.1327,-1.18939 -0.07873,-2.24858 0.51362,-3.60197c0.12365,-0.43393 0.27325,-0.87382 0.45269,-1.32288c0.13551,-0.147 0.36941,-0.35069 0.62451,-0.57246c-0.42372,0.26448 -1.0053,0.18606 -1.56976,0.04643c-0.33648,0.1154 -0.64801,0.18267 -0.91444,0.19099c-0.29328,0.00914 -0.62157,-0.02414 -0.95647,-0.05929c-0.00246,0.22826 0.07198,0.55859 0.24466,1.02524c0.14174,0.38307 0.18103,0.71484 0.41952,1.05349c0.68654,1.59787 0.96351,6.74856 -0.36649,8.41945l0.08649,0.08127l-0.18955,0.20175v0v0c-0.04381,0.04663 -0.10541,0.07654 -0.17442,0.0787c-0.138,0.00431 -0.25337,-0.10409 -0.25766,-0.24209l-0.0122,-0.39131c-0.01816,-0.65194 -0.13822,-1.29291 -0.15882,-1.95349c-0.03982,-1.85253 0.59954,-3.87333 0.31367,-5.74711c-0.06537,-0.42845 -0.27265,-0.81175 -0.44799,-1.20328c-0.04727,0.1008 -0.09607,0.20052 -0.14548,0.2982c-0.07129,0.79428 -0.21703,1.80136 -0.43458,2.74094c-0.00015,0.7078 -0.08012,1.35362 -0.36106,1.8313c-0.34725,0.55778 -1.24949,4.99572 -1.90212,4.51057c-0.42442,-0.31551 0.60985,-3.39014 0.62421,-3.88888c0.08389,-0.28458 0.17504,-0.59535 0.26636,-0.92458c-0.13199,-0.92291 -0.37064,-2.27463 -0.17113,-2.5947c0.21051,-0.3377 0.52387,-0.58498 0.82162,-0.87892c0.03897,-0.71731 -0.00757,-1.41033 -0.19212,-2.02149c-0.23014,-0.0841 -0.47236,-0.3276 -0.67163,-0.81598c-0.055,-0.00368 -0.11055,-0.00599 -0.16674,-0.00692l-0.05504,-0.08115l-0.02771,0.02949l-0.20175,-0.18955c-0.04663,-0.04381 -0.07654,-0.10541 -0.0787,-0.17442c-0.00431,-0.138 0.10409,-0.25337 0.24209,-0.25766l0.29348,-0.00915l0.0006,0.01902c0.0114,-0.00471 0.02366,-0.00898 0.03686,-0.0127c0.05042,-0.01429 0.09327,-0.01502 0.12951,-0.00723c2.13866,-0.37709 4.07189,0.64617 6.35188,-0.96024c0.08074,-0.02974 0.15634,-0.06026 0.22719,-0.09152c0.0985,-0.47868 0.18437,-1.00843 0.44235,-1.24716c0.33274,-0.30791 0.65223,-0.54644 0.9549,-0.71814c0.02281,-0.04985 0.04753,-0.09997 0.07462,-0.15029c-0.11375,-0.24048 -0.09033,-0.45354 0.17712,-0.59564c0.07536,-0.04003 0.15001,-0.05604 0.22372,-0.05119l0.029,-0.09694c0.02822,-0.10309 0.12097,-0.18027 0.23337,-0.18377c0.138,-0.00431 0.25337,0.10409 0.25767,0.2421l0.00915,0.29348l-0.08431,0.00262l-0.00321,0.01074c0.0506,0.05694 0.10045,0.12163 0.14942,0.1928c0.9807,-0.02211 1.64323,0.90301 1.78246,2.62897c0.03226,0.85534 0.04416,1.70681 0.04741,2.55711c0.53185,1.98687 0.94852,4.42804 0.15955,5.94284l0.09771,0.05691l-0.24949,0.42831c-0.04146,0.07394 -0.11951,0.12495 -0.21041,0.12779c-0.138,0.00431 -0.25337,-0.10409 -0.25767,-0.24209l-0.00915,-0.29348c-0.05623,-1.80378 -0.03001,-3.58519 -0.02921,-5.36861c-0.10866,-0.78861 -0.27346,-1.57885 -0.5348,-2.37083c-0.1085,-0.26977 -0.70086,-1.52306 -1.07681,-2.44301c-0.06986,-0.01733 -0.1398,-0.03012 -0.20935,-0.03728c-0.23621,0.45226 -0.59075,0.90249 -1.0114,1.32267c0.06935,0.35076 0.15478,0.72064 0.05952,0.95259c-0.07618,0.18547 -0.25928,0.4057 -0.48566,0.63425zM234.74353,168.74502c0.12191,1.76937 -0.40298,3.78105 -0.33369,5.35868c0.01084,0.34752 0.04789,0.68799 0.08388,1.02772c0.12294,-0.40393 0.27276,-0.79996 0.29861,-0.96143c0.22095,-1.37999 0.36135,-3.8651 -0.0488,-5.42498zM233.05767,167.38788c0.08313,-0.38425 0.13232,-0.72118 0.12233,-0.98168l-0.00682,-0.21851c-0.09016,0.35155 -0.11827,0.76072 -0.11553,1.20019zM232.23309,170.05045c0.05566,-0.27751 0.10502,-0.55846 0.14503,-0.83953c-0.19699,0.1628 -0.37247,0.30383 -0.37012,0.30786c0.09787,0.16772 0.17078,0.3459 0.22509,0.53167zM233.68757,165.78797c-0.03119,-0.00201 -0.06226,-0.00383 -0.09323,-0.0054c-0.01947,0.00154 -0.03888,0.00299 -0.05821,0.00433c0.02806,0.01512 0.05294,0.03548 0.07332,0.05979l0.05043,0.05914c0.00767,-0.03472 0.01722,-0.07483 0.02771,-0.11786zM237.99948,165.45858c0.17448,-0.15333 0.34778,-0.30941 0.49679,-0.45668c0.08382,-0.21536 0.1447,-0.4221 0.17473,-0.60596c-0.07313,0.25476 -0.18821,0.46302 -0.40897,0.55985c-0.06612,0.21031 -0.15528,0.37525 -0.26254,0.50277zM241.64769,163.25507c0.21924,0.66506 0.37579,1.25563 0.44387,1.42279c0.01336,0.04179 0.02692,0.08432 0.04068,0.12756c-0.00627,-0.25483 -0.01403,-0.50993 -0.02361,-0.76536c-0.01094,-0.14075 -0.02421,-0.27506 -0.03989,-0.40287c-0.00327,0.00024 -0.00655,0.00039 -0.00986,0.00049c-0.08811,0.00275 -0.16699,-0.04045 -0.21363,-0.10794l-0.19215,-0.26961c-0.00172,-0.00165 -0.00353,-0.00334 -0.00542,-0.00508zM237.31785,165.19921c0.15126,-0.0458 0.28216,-0.11884 0.38491,-0.22809c-0.12817,0.0802 -0.25677,0.15638 -0.38491,0.22809zM237.17526,164.82499c-0.31052,0.12988 -0.6577,0.26139 -1.02339,0.38401c0.03794,0.00546 0.07574,0.01062 0.11334,0.01547c0.30911,-0.09879 0.61541,-0.2345 0.91004,-0.39947zM238.87038,163.36037c-0.00164,0.00665 -0.00327,0.01331 -0.00487,0.01999c0.00222,-0.00288 0.00446,-0.00576 0.00668,-0.00864c-0.00062,-0.00378 -0.00123,-0.00757 -0.00183,-0.01135zM241.1506,161.96557c0.1389,0.02372 0.26988,0.06221 0.38897,0.11657c-0.12974,-0.14168 -0.28192,-0.22844 -0.45814,-0.2588c0.02332,0.04636 0.04639,0.09384 0.06917,0.14224z" fill="#000000" fill-rule="nonzero" stroke="none" stroke-width="0.5" stroke-linecap="butt" stroke-linejoin="miter"/></g><path d="M216.89934,199.46214c-6.8126,-0.18602 -17.0635,-0.28057 -18.85533,-4.45782c-0.82274,-1.80641 -2.21626,-10.87053 -0.71246,-14.91015c1.68457,-4.29911 8.57461,-3.62297 8.76905,1.02162c0.17841,3.28453 0.43436,8.7813 0.69384,8.96206c0.99854,0.5029 5.4402,-0.06411 7.2676,1.51724" data-paper-data="{&quot;index&quot;:null}" fill="#717171" fill-rule="evenodd" stroke="#001026" stroke-width="1.2" stroke-linecap="round" stroke-linejoin="round"/></g></g></svg>