<svg version="1.1" xmlns="http://www.w3.org/2000/svg" xmlns:xlink="http://www.w3.org/1999/xlink" width="59.61268" height="121.07665" viewBox="0,0,59.61268,121.07665"><g transform="translate(-219.85942,-65.52026)"><g data-paper-data="{&quot;isPaintingLayer&quot;:true}" fill-rule="nonzero" stroke="none" stroke-linecap="butt" stroke-linejoin="miter" stroke-miterlimit="10" stroke-dasharray="" stroke-dashoffset="0" style="mix-blend-mode: normal"><path d="M220.18108,140.78711c0,0 -0.41603,-0.27735 -0.13868,-0.69338c0.27735,-0.41603 0.69338,-0.13868 0.69338,-0.13868c0.08767,0.05939 0.1774,0.1162 0.26892,0.17033c0.06177,-0.12642 0.18676,-0.25431 0.43963,-0.25431c0.5,0 0.5,0.5 0.5,0.5l0,0.19262c0.14519,0.05122 0.29235,0.096 0.44067,0.13401l0.42117,0.11123c-0.31513,-1.43392 -0.67409,-2.86043 -0.8652,-4.29159c-0.38836,-2.90841 -0.01072,-6.12939 -0.01073,-9.06619c-0.00001,-2.6157 0.23417,-5.35188 0.00197,-7.95559c-0.18506,-2.0751 -1.20327,-3.68974 -1.72771,-5.61812c-0.59294,-2.18028 -0.24127,-4.88129 -0.24424,-7.12166c0.01852,-3.32825 2.20694,-3.71415 4.52971,-5.20023c1.35064,-0.86412 2.2314,-2.41522 3.27583,-3.57477c2.00559,-2.22666 4.23612,-4.2221 6.13523,-6.54267c4.43732,-5.41801 8.9551,-10.67162 13.58922,-15.96172c2.61856,-2.98922 5.65903,-5.62898 7.91671,-8.91539l0.56243,-0.81802c0.08965,-0.13428 0.24257,-0.22272 0.41614,-0.22272c0.27255,0 0.49417,0.21807 0.49989,0.48926l0.02448,0.99818l-0.08555,0.0021c0.91317,6.26596 -2.47218,12.44646 -1.73931,18.76327c0.09415,0.81819 0.01227,2.08107 0.30797,2.84567c1.36481,3.52903 7.4089,0.38643 9.17068,2.57215c0.72178,0.89546 0.44852,3.05227 0.73258,4.0972c0.35101,1.29124 1.45406,1.84688 2.49052,2.48453c4.32672,2.67909 14.69935,2.01744 10.84112,9.64783c-0.58433,1.15563 -1.55498,2.24947 -2.24406,3.36059c-1.83501,2.91909 -2.64638,6.9232 -3.92109,10.10946c-1.23747,3.09317 -3.33649,5.51952 -4.29121,8.85676c-1.99597,6.90131 -6.01902,12.65845 -9.82073,18.59091c-1.63821,2.55638 -3.23373,5.10701 -5.26244,7.38171c-2.65537,2.97734 -5.83301,5.4068 -8.01092,8.74646c-3.61831,6.1666 -4.8843,12.78394 -6.68688,19.63352c-0.87349,1.68591 -3.0266,4.09937 -4.22731,1.00397c-1.07227,-2.76428 -0.78588,-6.08688 -1.35686,-8.9646c-0.45799,-2.30829 -1.08047,-4.54855 -1.46708,-6.88413c-0.06836,-2.27667 -1.09503,-4.49073 -1.70624,-6.66941c-1.20192,-4.28431 -2.56847,-9.07752 -4.96886,-12.88153c-1.56427,-2.48823 -3.69927,-5.31837 -3.71989,-8.34551l0,-0.13835c-0.26403,-0.12804 -0.51957,-0.27295 -0.76326,-0.43322z" fill="#000000" stroke-width="0.5"/><path d="M243.70601,118.53324c1.45151,3.57024 -0.57712,7.9893 -4.53106,9.87023c-3.95394,1.88092 -14.39489,-8.98777 -14.39489,-8.98777c0,0 17.47444,-4.45269 18.92595,-0.88244z" data-paper-data="{&quot;index&quot;:null}" fill="#ffffff" stroke-width="0"/><path d="M248.19769,118.03364c-1.45151,-3.57023 13.39292,-14.49192 13.39292,-14.49192c0,0 0.34844,15.66979 -3.6055,17.55072c-3.95395,1.88092 -8.33593,0.51146 -9.78743,-3.0588z" data-paper-data="{&quot;index&quot;:null}" fill="#ffffff" stroke-width="0"/></g></g></svg>