<svg version="1.1" xmlns="http://www.w3.org/2000/svg" xmlns:xlink="http://www.w3.org/1999/xlink" width="117.77776" height="80.27981" viewBox="0,0,117.77776,80.27981"><g transform="translate(-169.17356,-109.34676)"><g data-paper-data="{&quot;isPaintingLayer&quot;:true}" fill-rule="nonzero" stroke="none" stroke-linecap="butt" stroke-linejoin="miter" stroke-miterlimit="10" stroke-dasharray="" stroke-dashoffset="0" style="mix-blend-mode: normal"><path d="M169.32721,159.73927c0.34989,-0.35717 0.70707,-0.00728 0.70707,-0.00728l0.32803,0.32134c0.41371,0.40528 0.84178,0.79103 1.27798,1.16401c-0.05279,-2.72425 -0.30154,-5.63392 0.36412,-8.25056c0.72525,-2.85086 2.62475,-5.40402 3.03505,-8.2771c0.1768,-7.04824 3.01572,-13.60368 3.01778,-20.60765c0.00025,-2.63616 -0.76867,-6.73707 0.30317,-9.17035c1.73215,-3.93229 6.70432,-5.05553 10.58223,-5.54825c7.03907,-0.16333 13.96267,0.92745 20.99389,0.93028c6.37093,0.00041 15.1983,-1.57388 20.98692,1.26986c1.99828,0.98168 4.5866,1.74843 6.40431,2.98618c2.4903,1.69574 4.18088,4.6762 5.6455,7.20454c0.87897,1.51734 2.01674,2.92541 2.11438,4.6964c0.11554,7.23854 0.56305,13.49937 4.18292,19.92425c3.40887,6.05038 7.23467,11.9736 11.00511,17.81923c3.88581,5.83703 7.42951,11.66289 13.55587,15.44366c3.38339,2.08799 6.88282,4.03974 10.41839,5.85979c0.65616,0.33778 2.99636,1.11146 2.67043,2.27259c-0.13009,0.46345 -0.87533,0.40469 -1.33033,0.56183c-1.56346,0.53995 -3.29163,0.81211 -4.89907,1.20819c-7.47435,0.33904 -13.71826,-0.26619 -20.7698,-2.78706c-6.92281,-1.03256 -13.73527,-2.50331 -20.6186,-3.77065c-3.94296,-0.72689 -7.73465,-2.10014 -11.64676,-2.93676c-2.94647,-0.63011 -5.94521,-0.8405 -8.87161,-1.59155c-6.78987,-1.74261 -13.73171,-2.7245 -20.43607,-4.29244c-5.06845,-1.20581 -10.77801,-0.48415 -15.75609,-2.59315c-1.543,-0.6537 -2.8641,-2.01702 -4.29041,-2.88316c-2.26418,-3.21355 -5.7045,-5.043 -8.63911,-7.9178l-0.32803,-0.32134c0,0 -0.35717,-0.34989 -0.00728,-0.70707z" fill="#000000" stroke-width="0.5"/><path d="M215.44852,134.27345c1.49103,-4.68077 26.3347,-1.43787 26.3347,-1.43787c0,0 -12.87789,15.05968 -18.62621,13.22861c-5.74832,-1.83109 -9.19953,-7.10999 -7.70851,-11.79076z" data-paper-data="{&quot;index&quot;:null}" fill="#ffffff" stroke-width="0"/><path d="M208.66343,134.2555c-1.49103,4.68077 -7.35966,6.9909 -13.10798,5.15982c-5.7483,-1.83108 -7.54309,-21.56464 -7.54309,-21.56464c0,0 22.14206,11.72406 20.65105,16.40482z" data-paper-data="{&quot;index&quot;:null}" fill="#ffffff" stroke-width="0"/></g></g></svg>