<svg version="1.1" xmlns="http://www.w3.org/2000/svg" xmlns:xlink="http://www.w3.org/1999/xlink" width="120.39925" height="118.57575" viewBox="0,0,120.39925,118.57575"><defs><linearGradient x1="264.04803" y1="147.18894" x2="268.27534" y2="163.92219" gradientUnits="userSpaceOnUse" id="color-1"><stop offset="0" stop-color="#ffce72"/><stop offset="1" stop-color="#ff4400"/></linearGradient><linearGradient x1="237.40737" y1="124.35457" x2="234.76875" y2="214.07851" gradientUnits="userSpaceOnUse" id="color-2"><stop offset="0" stop-color="#979797"/><stop offset="1" stop-color="#030303"/></linearGradient><linearGradient x1="203.1773" y1="144.14222" x2="192.55729" y2="157.74687" gradientUnits="userSpaceOnUse" id="color-3"><stop offset="0" stop-color="#ffce72"/><stop offset="1" stop-color="#ff4400"/></linearGradient></defs><g transform="translate(-179.80037,-119.97141)"><g data-paper-data="{&quot;isPaintingLayer&quot;:true}" stroke-miterlimit="10" stroke-dasharray="" stroke-dashoffset="0" style="mix-blend-mode: normal"><g><path d="M264.04803,147.18894c12.09261,-3.05494 24.18546,-13.47595 24.18546,-13.47595c0,0 -7.86553,27.15424 -19.95814,30.2092c-12.09261,3.05494 -12.45581,-0.83823 -13.62313,-5.45898c-1.16735,-4.62076 -2.69679,-8.21931 9.39582,-11.27426z" data-paper-data="{&quot;index&quot;:null}" fill="url(#color-1)" fill-rule="nonzero" stroke="#001026" stroke-width="1.2" stroke-linecap="butt" stroke-linejoin="miter"/><g><g><g><path d="M258.27499,130.23485c0.48898,-0.22068 1.19857,0.04754 1.2482,0.65901l1.21732,16.33785c0,0 8.25273,8.45366 10.24005,13.7592c3.36119,8.85065 2.41485,15.48038 2.41485,15.48038c0,0 9.9118,4.80725 10.28866,13.46566c0.37685,8.65839 -8.70527,23.44262 -37.20015,24.30698c-28.49485,0.86437 -49.42093,-10.2898 -57.07365,-28.74828c-7.65272,-18.4585 12.09115,-35.70098 11.0161,-34.67243l1.26562,-26.78511c-0.0496,-0.61143 0.75718,-0.93035 1.29575,-0.5396l15.8423,14.5355c0,0 7.01839,-1.40228 13.96601,-0.55415c4.15863,0.38658 7.63295,1.26315 10.9119,2.409z" fill="url(#color-2)" fill-rule="evenodd" stroke="#001026" stroke-width="1.2" stroke-linecap="butt" stroke-linejoin="miter"/><path d="M272.85788,176.98556c0,0 9.6911,4.31829 10.06794,12.97669c0.37685,8.65839 -9.17095,22.61153 -37.34795,23.37767c-36.73717,1.46085 -50.11982,-22.47008 -37.71015,-36.40204c12.43396,-14.07877 27.10401,2.07243 39.57996,3.23217c10.69018,1.01506 13.39484,-8.03825 25.41026,-3.1845z" fill="#ffffff" fill-rule="evenodd" stroke="none" stroke-width="1" stroke-linecap="butt" stroke-linejoin="miter"/><path d="M299.59963,183.06985c-7.82209,4.43625 -18.41511,2.83405 -18.41511,2.83405" fill="none" fill-rule="evenodd" stroke="#001026" stroke-width="1.2" stroke-linecap="round" stroke-linejoin="round"/><path d="M294.97076,199.1943c-9.36907,-0.79642 -14.63228,-4.53277 -14.63228,-4.53277" fill="none" fill-rule="evenodd" stroke="#001026" stroke-width="1.2" stroke-linecap="round" stroke-linejoin="round"/><path d="M247.49209,176.25647c3.08256,0.51013 6.26328,1.3381 6.24004,2.38989c-0.1933,2.07932 -3.07525,5.82501 -5.44814,5.58314c-2.69076,-0.14367 -8.24853,-4.83361 -7.85989,-7.18219c0.1447,-1.78575 4.13225,-1.27665 7.06802,-0.79085z" fill="#001026" fill-rule="evenodd" stroke="#001026" stroke-width="1.2" stroke-linecap="round" stroke-linejoin="round"/><path d="M181.80199,163.1235c0,0 11.94356,6.19912 16.32811,11.59974" fill="none" fill-rule="evenodd" stroke="#001026" stroke-width="1.2" stroke-linecap="round" stroke-linejoin="round"/><path d="M197.72028,179.93366c-6.72483,1.45085 -17.31991,-1.96138 -17.31991,-1.96138" fill="none" fill-rule="evenodd" stroke="#001026" stroke-width="1.2" stroke-linecap="round" stroke-linejoin="round"/><path d="M244.23341,196.87202c-0.65403,3.95207 15.71371,46.95465 6.68986,40.3959c-24.41917,-17.74843 -26.11742,-4.96765 -37.03992,-3.60597c-12.09684,1.50808 -5.87076,-41.18318 -5.61292,-42.74134c0.65403,-3.95207 7.09333,7.72896 17.02423,9.37237c9.93092,1.64343 19.59275,-7.37306 18.93872,-3.42099z" fill="#000000" fill-rule="nonzero" stroke="#001026" stroke-width="1.2" stroke-linecap="butt" stroke-linejoin="miter"/></g><path d="M230.35925,176.65343c-0.08177,0.11726 -0.16028,0.23707 -0.18344,0.32977c-0.00386,0.0154 -0.00776,0.03082 -0.01173,0.04619c-0.01961,-0.07483 -0.04796,-0.15708 -0.08586,-0.24731c0.1339,-0.16405 0.26334,-0.34131 0.38845,-0.52841c-0.03616,0.13372 -0.07194,0.26697 -0.10745,0.39978zM229.20178,177.72c-0.0864,0.08348 -0.19272,0.16911 -0.32002,0.25561c-0.0543,-0.05961 -0.12829,-0.10203 -0.21404,-0.11623l-0.06597,-0.01092c0.00365,-0.00083 0.00727,-0.00171 0.0109,-0.00258c0.13658,-0.03312 0.26974,-0.08316 0.39958,-0.14811c0.06343,0.00846 0.12682,0.01605 0.18951,0.02222zM227.73714,177.08006c0.12744,-0.16492 0.28154,-0.27932 0.48121,-0.31232c0.19497,-0.03221 0.3709,-0.04437 0.52546,-0.03918c-0.12711,0.1051 -0.25088,0.20595 -0.36897,0.29692c-0.20716,0.00728 -0.42422,0.0239 -0.6318,0.05542c-0.00196,-0.00026 -0.00393,-0.0006 -0.00588,-0.00087zM221.45319,178.54003c-0.00822,0.01178 -0.01658,0.02369 -0.02507,0.03565l-0.17051,0.12211c0.02358,-0.05963 0.04773,-0.11808 0.07274,-0.17498c0.04069,0.00621 0.08167,0.01198 0.12285,0.01721zM226.87085,178.98569c0.03339,-0.05338 0.06496,-0.10928 0.09502,-0.16714l0.25111,-0.0084c0.12186,-0.00165 0.23345,-0.06337 0.30069,-0.1607c0.09252,-0.00123 0.18817,-0.01104 0.28445,-0.02688c-0.31367,0.15711 -0.62397,0.27494 -0.93134,0.36313zM219.17116,178.13541c0.01544,-0.10464 0.02973,-0.20821 0.04274,-0.31056c0.03835,0.03278 0.07669,0.06545 0.11503,0.09794c-0.05321,0.06881 -0.1058,0.13975 -0.15777,0.21262zM221.13231,179.5802c0.00261,0.00032 0.00518,0.00062 0.00778,0.00091c-0.00315,0.00119 -0.00633,0.00238 -0.00947,0.00357zM225.63947,179.20438c-0.38331,0.0326 -0.76277,0.03799 -1.13925,0.03619c0.16873,-0.1015 0.33973,-0.22039 0.51317,-0.35798c0.19177,0.06862 0.42085,0.19723 0.62611,0.3218zM220.46484,177.28749c0.11427,0.08042 0.22834,0.16003 0.34246,0.23815c-0.11404,-0.00651 -0.22664,-0.0102 -0.33678,-0.0113c0.00195,-0.08181 -0.00006,-0.15731 -0.00576,-0.22687zM220.10397,180.12967c0.04685,-0.11519 0.09189,-0.23502 0.13563,-0.35533l0.02129,0.13388c0.00465,0.0343 0.01405,0.06741 0.02762,0.0985c-0.06151,0.03897 -0.12301,0.07991 -0.18454,0.12291z" fill="#000000" fill-rule="nonzero" stroke="none" stroke-width="0.5" stroke-linecap="butt" stroke-linejoin="miter"/><path d="M264.86807,181.91956c0.02572,-0.04166 0.05167,-0.08335 0.07787,-0.12508c0.10262,-0.07171 0.22344,-0.149 0.35723,-0.23084c-0.14482,0.12919 -0.29069,0.24882 -0.43509,0.3559zM260.19351,184.24789c0.14855,2.39513 -0.7734,5.98189 -1.49408,7.93237c-0.08434,0.22822 -0.41727,0.76302 -0.71327,1.31712c0.04548,-0.50628 0.08962,-1.01391 0.17408,-1.52426c0.35408,-2.32271 1.70065,-5.10745 2.03324,-7.72521zM256.15263,185.42894c-0.02568,-0.28683 -0.08069,-0.56792 -0.17515,-0.84096c-0.00227,-0.00658 0.29452,-0.16177 0.62904,-0.34256c-0.13948,0.39872 -0.29263,0.79457 -0.45392,1.18355zM259.43099,179.79117l-0.05651,-0.10088c-0.02271,-0.04136 -0.05316,-0.07824 -0.08977,-0.10842c0.02857,0.00362 0.05735,0.00712 0.08621,0.01048c0.04473,0.01122 0.0896,0.02281 0.13453,0.03477c-0.02772,0.05978 -0.05325,0.11557 -0.07445,0.16403zM265.89412,180.39049c0.19335,-0.1552 0.3711,-0.37019 0.5283,-0.6581c0.35018,-0.07764 0.57823,-0.34843 0.75848,-0.69917c-0.09687,0.25969 -0.2454,0.54388 -0.42987,0.83405c-0.26,0.17196 -0.558,0.3498 -0.85689,0.52323zM271.85479,178.22684c0.00226,0.00308 0.00442,0.00609 0.00644,0.00899l0.20267,0.44898c0.04859,0.11198 0.15125,0.19777 0.28064,0.21919c0.00486,0.0008 0.00971,0.00148 0.01455,0.00211c-0.01401,0.19106 -0.03338,0.39091 -0.05803,0.59953c-0.05972,0.37562 -0.12197,0.75018 -0.18637,1.12393c-0.00759,-0.06707 -0.01513,-0.13307 -0.02258,-0.19793c-0.05114,-0.26362 -0.10925,-1.17079 -0.23733,-2.20475zM265.60169,179.59337c-0.18152,0.12983 -0.39366,0.19868 -0.62763,0.22186c0.20773,-0.06769 0.41743,-0.14178 0.62763,-0.22186zM264.87393,179.2279c-0.47764,0.15578 -0.96388,0.26547 -1.44355,0.32047c-0.05351,-0.01793 -0.1072,-0.03639 -0.161,-0.05529c0.56913,-0.07348 1.11384,-0.16523 1.60453,-0.26522zM267.77069,177.57923c-0.0002,0.00571 -0.0004,0.01139 -0.00062,0.01709c-0.0041,0.00357 -0.00816,0.00714 -0.01224,0.01069c0.00423,-0.00928 0.00852,-0.01854 0.01285,-0.02776zM271.50135,176.20132c-0.01928,-0.07724 -0.03925,-0.15317 -0.05992,-0.22757c0.24844,0.09517 0.44553,0.2657 0.59401,0.50993c-0.15816,-0.11369 -0.33823,-0.20766 -0.53412,-0.28237z" fill="#000000" fill-rule="nonzero" stroke="none" stroke-width="0.5" stroke-linecap="butt" stroke-linejoin="miter"/></g><path d="M241.36079,170.0847c-0.14442,4.91083 -6.38616,8.71172 -13.94126,8.48956c-7.55512,-0.22218 -13.94136,-19.44132 -13.94136,-19.44132c0,0 28.02706,6.04093 27.88263,10.95177z" fill="#ffffff" fill-rule="nonzero" stroke="#001026" stroke-width="1.2" stroke-linecap="butt" stroke-linejoin="miter"/><path d="M282.16277,163.70449c0,0 -7.50462,18.81062 -15.05975,18.58843c-7.55512,-0.22218 -13.56268,-4.38331 -13.41828,-9.29414c0.14442,-4.91083 28.47804,-9.29431 28.47804,-9.29431z" data-paper-data="{&quot;index&quot;:null}" fill="#ffffff" fill-rule="nonzero" stroke="#001026" stroke-width="1.2" stroke-linecap="butt" stroke-linejoin="miter"/></g><path d="M210.37066,154.89505c-0.14976,5.09241 -3.13427,9.13643 -6.66611,9.03256c-3.53183,-0.10388 -6.27355,-4.31628 -6.12377,-9.40869c0.14976,-5.09241 3.13427,-9.13642 6.66611,-9.03257c3.53183,0.10388 6.27355,4.31629 6.12378,9.40869z" fill="#000000" fill-rule="nonzero" stroke="#001026" stroke-width="1.2" stroke-linecap="butt" stroke-linejoin="miter"/><path d="M208.46231,145.43538c0.31385,-0.06874 0.41598,0.193 0.43797,0.2656c0.15162,0.05054 0.2589,0.19582 0.25396,0.36383c-0.00141,0.04818 -0.01193,0.09396 -0.02987,0.13572c0.35203,0.34613 1.00435,0.1523 1.39633,0.64395c1.00167,1.25642 2.16632,3.68157 2.17294,5.40239c-0.12959,2.89214 -0.41024,5.77432 -2.04592,8.80945c-2.17408,2.98776 -4.85001,6.95051 -8.98947,5.30449c-0.57547,-1.06176 -2.20897,-1.98259 -2.30346,-3.14146c-0.16027,-1.9656 1.60287,-0.83895 1.95059,0.23474l-0.07067,0.15402c2.018,1.3953 4.8634,-0.45947 6.4268,-2.42111c1.46513,-2.065 3.30978,-3.48191 3.46255,-6.23091c-0.03784,-0.0375 -0.05807,-0.06987 -0.05807,-0.06987c-1.22072,-2.03972 -1.63903,-4.6786 -2.90691,-6.92265l-0.18677,-0.18191c0,0 -0.25518,-0.27063 0.01547,-0.52581c0.01387,-0.01309 0.02769,-0.02476 0.04145,-0.03519l-0.27105,-0.08056c0.00909,-0.16257 0.01233,-0.38249 0.0459,-0.57955c-0.08681,-0.18357 0.04445,-0.36845 0.04445,-0.36845c0.10753,-0.13082 0.21508,-0.26165 0.32261,-0.39249c-0.00094,-0.1115 0.03531,-0.30824 0.29113,-0.36425z" fill="#cf0000" fill-rule="nonzero" stroke="none" stroke-width="0.5" stroke-linecap="butt" stroke-linejoin="miter"/><path d="M207.22487,158.24919c-2.93263,3.75683 -4.8359,7.17244 -14.66758,-0.50233c-9.83169,-7.67476 -6.07125,-35.69402 -6.07125,-35.69402c0,0 6.85957,14.41459 16.69124,22.08935c9.83169,7.67476 6.98021,10.35016 4.04758,14.107z" fill="url(#color-3)" fill-rule="nonzero" stroke="#001026" stroke-width="1.2" stroke-linecap="butt" stroke-linejoin="miter"/></g></g></g></svg>