<svg version="1.1" xmlns="http://www.w3.org/2000/svg" xmlns:xlink="http://www.w3.org/1999/xlink" width="99.09901" height="104.7241" viewBox="0,0,99.09901,104.7241"><defs><linearGradient x1="244.13966" y1="214.59135" x2="225.76792" y2="217.49647" gradientUnits="userSpaceOnUse" id="color-1"><stop offset="0" stop-color="#ffffff"/><stop offset="1" stop-color="#9f9f9f"/></linearGradient></defs><g transform="translate(-191.901,-136.00077)"><g data-paper-data="{&quot;isPaintingLayer&quot;:true}" stroke-miterlimit="10" stroke-dasharray="" stroke-dashoffset="0" style="mix-blend-mode: normal"><path d="M243.83335,196.69893c-1.51659,1.62171 -7.90418,7.08054 -7.39691,9.76246c0.52166,2.54124 6.49236,6.70666 2.94516,10.11069c-3.46965,3.34089 -7.65127,-1.63646 -9.89763,-6.77104c-2.9464,-6.62788 3.33055,-15.8653 10.97417,-16.93067c2.73065,-0.28902 4.96935,2.14372 3.37522,3.82857z" data-paper-data="{&quot;index&quot;:null}" fill="#878787" fill-rule="evenodd" stroke="#001026" stroke-width="1.2" stroke-linecap="round" stroke-linejoin="round"/><g data-paper-data="{&quot;index&quot;:null}" fill-rule="nonzero" stroke="#001026" stroke-width="1.2" stroke-linejoin="miter"><g><g><path d="M238.37409,213.98442l10.66747,-1.68684l0.40609,2.56808l-10.66747,1.68684z" fill="#2c2c2c" stroke-linecap="butt"/><path d="M226.96701,215.95599l0.32177,2.37834l-14.74682,1.38966z" fill="#6c6c6c" stroke-linecap="butt"/><path d="M225.19003,213.84187l18.37173,-2.9051l1.15579,7.30917l-18.37172,2.90511z" fill="url(#color-1)" stroke-linecap="butt"/><path d="M240.99368,211.34284l0.36473,3.58707" fill="none" stroke-linecap="round"/><path d="M237.69787,212.26898l0.30226,3.19195" fill="none" stroke-linecap="round"/><path d="M235.33832,215.2744l-0.04223,-2.82812" fill="none" stroke-linecap="round"/><path d="M231.6052,213.4349l0.34361,2.173" fill="none" stroke-linecap="round"/><path d="M228.45546,216.56527l0.12408,-3.05691" fill="none" stroke-linecap="round"/></g><path d="M247.64772,209.88568l2.76564,-0.43733l1.18704,7.50674l-2.76565,0.43733z" fill="#2c2c2c" stroke-linecap="butt"/></g><path d="M235.54094,214.63491c-2.89118,0.45717 -5.43775,-0.45463 -5.6879,-2.0366c-0.25016,-1.58197 1.89082,-3.23503 4.782,-3.69221c2.89118,-0.45718 5.43773,0.45465 5.68791,2.03661c0.25016,1.58197 -1.89081,3.23504 -4.782,3.69222z" fill="#878787" stroke-linecap="butt"/><path d="M238.12178,224.55354c-4.4186,0.69871 -8.35724,-0.9902 -8.79718,-3.77229c-0.43993,-2.78208 2.78542,-5.60383 7.20403,-6.30253c4.4186,-0.69871 8.35723,0.9902 8.79717,3.77228c0.43993,2.78208 -2.78541,5.60384 -7.20402,6.30256z" fill="#878787" stroke-linecap="butt"/></g><path d="M217.42121,205.10891c-2.21732,-1.12606 -4.51404,-2.51126 -5.63906,-4.43509c-0.94156,-1.61011 -1.54242,-3.78095 -2.09129,-5.56272c-0.90927,-2.95514 -2.11401,-4.51456 -3.88365,-6.89891c-0.93617,-1.26137 -0.80519,-3.0396 -1.53132,-4.29929c-1.11029,-1.92612 -2.4598,-2.80888 -4.54634,-3.69282c-0.94291,-0.46767 -1.25782,-1.17175 -2.21606,-1.59138c-1.32025,-0.57816 -3.11946,-0.75054 -4.31478,-1.53432c-0.60162,-0.39449 -1.77429,-1.09342 -1.08943,-2.0281c0.30519,-0.41652 2.41248,-0.14645 2.85355,-0.14645c2.25,0 4.5,0 6.75,0c3.64411,0.00534 7.76909,-2.05963 11.31935,-1.49517c2.51508,0.39988 5.07635,1.60527 7.53973,2.29613c4.02613,1.13113 8.20827,1.88433 12.27333,2.90425c3.16719,0.79465 5.61127,1.94357 5.59587,5.40939c-0.70342,1.072 -1.4448,2.62924 -2.38789,3.50164c-2.0537,1.89977 -5.38924,2.21699 -7.22118,4.47093c-1.35379,1.66564 -2.20205,4.71323 -2.43389,6.8089c-0.37089,3.26676 0.19645,7.10783 -0.70806,10.25301c-0.57737,2.00766 -3.12279,2.5165 -4.76961,1.25654c-0.92927,-0.71097 -1.73246,-1.72333 -2.5612,-2.55207c-0.75106,-0.77591 -0.92077,-1.69216 -0.93808,-2.66448z" fill="#000000" fill-rule="nonzero" stroke="none" stroke-width="0.5" stroke-linecap="butt" stroke-linejoin="miter"/><g fill-rule="evenodd"><path d="M224.78334,200.96667c0.6,0.8 3.3,2 -0.2,4.2c-3.6,2.1 -12.7,5 -21.6,-2.9c-9.6,-8.6 -4.5,-20.3 -0.1,-20.7c4.3,-0.4 2.6,6.6 5.7,14.4c4.4,11.3 15.6,4.2 16.2,5z" fill="#878787" stroke="#001026" stroke-width="1.2" stroke-linecap="round" stroke-linejoin="round"/><path d="M205.68334,186.76667c0.5,4.4 1.5,7.4 1.5,7.4c0,0 -1.6,-2 -4,-1.6c-2.9,0.5 -3.8,2.9 -3.9,3.6c-0.7,-1.7 -1.3,-3.8 -1.1,-7.4c0.5,-3.5 2.7,-7.1 5.2,-6.7c2,0.4 1.9,2 2.3,4.7z" fill="#ffffff" stroke="none" stroke-width="1" stroke-linecap="butt" stroke-linejoin="miter"/></g><path d="M226.4449,192.91737c-0.53175,2.35738 -4.44264,4.53794 -4.94762,5.53543c-0.10149,0.2995 2.95576,4.87478 4.76209,7.62381c2.60084,3.853 -2.54229,8.48745 -6.4501,6.02796c-3.6083,-2.35799 -7.86791,-10.47931 -8.27824,-12.42138c-1.03797,-4.42523 7.15496,-10.58688 12.52673,-14.78095" fill="#878787" fill-rule="evenodd" stroke="#001026" stroke-width="1.2" stroke-linecap="round" stroke-linejoin="round"/><path d="M248.3198,236.3753c0,3.86599 -11.83333,3 -11.83333,3c0,0 -10.5,0.86599 -10.5,-3c0,-3.45051 2.7452,-32.89294 7.69909,-34.5825c3.83539,-1.30808 4.43187,28.24917 5.13424,28.24917c6.53537,0 9.5,2.46734 9.5,6.33333z" fill="#878787" fill-rule="nonzero" stroke="#001026" stroke-width="1.2" stroke-linecap="butt" stroke-linejoin="miter"/><path d="M242.3198,237.04197c0,3.86599 -11.83333,3 -11.83333,3c0,0 -10.5,0.86599 -10.5,-3c0,-3.45051 2.7452,-32.89294 7.69909,-34.58249c3.83539,-1.30808 4.43187,28.24916 5.13424,28.24916c6.53537,0 9.5,2.46734 9.5,6.33333z" fill="#878787" fill-rule="nonzero" stroke="#001026" stroke-width="1.2" stroke-linecap="butt" stroke-linejoin="miter"/><g fill-rule="evenodd"><path d="M228.46746,211.92774c-9.18562,-0.14169 -6.59918,-8.70522 -6.1184,-18.13437c0.22478,-5.09504 2.32496,-11.27985 8.25588,-12.7846c3.28322,-1.01509 4.71707,5.1431 6.65887,4.10414c2.93427,-1.51331 4.46287,3.07617 4.72896,5.71988c0,0 0.33245,3.94201 -0.02111,6.21687c-0.40861,2.85536 -0.99765,5.79696 -1.69222,7.12646c0,0 -1.91695,7.90424 -11.81198,7.75161z" fill="#878787" stroke="#001026" stroke-width="1.2" stroke-linecap="round" stroke-linejoin="round"/><path d="M239.54139,204.42127c0,0 -1.87085,-0.43583 -3.96129,-1.09921c-2.58071,-0.76155 -5.03204,-1.25242 -4.5644,-4.91184c0.58904,-2.9416 0.7429,-6.56186 6.05356,-5.88595c5.04397,0.58172 4.40781,3.65665 4.40781,3.65665c-0.04435,5.00879 -1.93568,8.24035 -1.93568,8.24035z" fill="#ffffff" stroke="none" stroke-width="1" stroke-linecap="butt" stroke-linejoin="miter"/></g><path d="M220.06371,195.99621l2.11464,-8.76682l4.89755,0.85834l-2.11464,8.76682z" fill="#878787" fill-rule="nonzero" stroke="#001026" stroke-width="0" stroke-linecap="butt" stroke-linejoin="miter"/><g><g fill-rule="evenodd"><g><path d="M257.2,136.5c0.3,-0.2 0.8,-0.1 0.9,0.3l2.6,10.7c0,0 6.4,4.7 8.3,8c3.2,5.5 3.3,10 3.3,10c0,0 7.1,2.1 8.3,7.8c1.2,5.7 -3.2,16.5 -22,20.2c-18.8,3.7 -33.9,-1.4 -41,-12.8c-7.1,-11.4 4.1,-25 3.5,-24.2l-2.1,-17.9c-0.1,-0.4 0.4,-0.7 0.8,-0.5l12.1,7.9c0,0 4.5,-1.7 9.2,-1.9c2.8,-0.2 5.2,0 7.5,0.4z" fill="#878787" stroke="#001026" stroke-width="1.2" stroke-linecap="butt" stroke-linejoin="miter"/><path d="M272.00001,165.9c0,0 6.9,1.8 8.1,7.5c1.2,5.7 -3.6,16 -22.2,19.6c-24.2,5 -35.7,-9.4 -29,-20c6.7,-10.7 18.2,-1.6 26.6,-2.2c7.2,-0.5 8,-6.8 16.5,-4.9z" fill="#ffffff" stroke="none" stroke-width="1" stroke-linecap="butt" stroke-linejoin="miter"/><path d="M290.40001,167c-4.7,3.8 -11.9,3.9 -11.9,3.9" fill="none" stroke="#001026" stroke-width="1.2" stroke-linecap="round" stroke-linejoin="round"/><path d="M289.10001,178.2c-6.3,0.5 -10.2,-1.4 -10.2,-1.4" fill="none" stroke="#001026" stroke-width="1.2" stroke-linecap="round" stroke-linejoin="round"/><path d="M255.10001,168.2c2.1,0 4.3,0.2 4.4,0.9c0.1,1.4 -1.4,4.2 -3,4.3c-1.8,0.2 -6,-2.3 -6,-3.9c-0.1,-1.2 2.6,-1.3 4.6,-1.3z" fill="#001026" stroke="#001026" stroke-width="1.2" stroke-linecap="round" stroke-linejoin="round"/><path d="M210.10001,166.7c0,0 8.6,2.8 12.1,5.9" fill="none" stroke="#001026" stroke-width="1.2" stroke-linecap="round" stroke-linejoin="round"/><path d="M222.50001,176.1c-4.3,1.7 -11.7,0.6 -11.7,0.6" fill="none" stroke="#001026" stroke-width="1.2" stroke-linecap="round" stroke-linejoin="round"/><g><path d="M266.90001,156.5c2.9,4.5 3,9.6 0.2,11.4c-2.8,1.8 -7.4,-0.3 -10.4,-4.8c-2.9,-4.5 -3,-9.6 -0.2,-11.4c2.8,-1.9 7.5,0.3 10.4,4.8z" fill="#ffffff" stroke="#001026" stroke-width="1.2" stroke-linecap="round" stroke-linejoin="round"/><path d="M263.25001,163.2c0,1.1 -0.8,2 -1.8,2c-1,0 -1.8,-0.9 -1.8,-2c0,-1.1 0.8,-2 1.8,-2c1,0 1.8,0.9 1.8,2" fill="#3d3d3d" stroke="none" stroke-width="1" stroke-linecap="butt" stroke-linejoin="miter"/></g><g><path d="M242.10001,159.3c3,4.4 2.8,9.8 0.1,11.7c-3.3,1.9 -7.7,0.5 -10.7,-3.9c-3.1,-4.4 -0.55,-8.85 2.55,-11.05c3.1,-2.3 5.05,-1.15 8.05,3.25z" fill="#ffffff" stroke="#001026" stroke-width="1.2" stroke-linecap="round" stroke-linejoin="round"/><path d="M239.00001,165.85c0,1.1 -0.8,2 -1.8,2c-1,0 -1.8,-0.9 -1.8,-2c0,-1.1 0.8,-2 1.8,-2c1,0.1 1.8,0.9 1.8,2" fill="#3d3d3d" stroke="none" stroke-width="1" stroke-linecap="butt" stroke-linejoin="miter"/></g></g></g><path d="M250.71285,181.22917c0,2.01692 -5.99962,5.44066 -10.625,5.44066c-4.62538,0 -8.875,-4.61622 -8.875,-6.63314c0,-2.01692 6.49962,0.67076 11.125,0.67076c4.62538,0 8.375,-1.49521 8.375,0.52171z" fill="none" fill-rule="nonzero" stroke="#001026" stroke-width="1.2" stroke-linecap="butt" stroke-linejoin="miter"/></g><path d="M234.76119,179.92543l-0.1245,4.10838" fill="none" fill-rule="nonzero" stroke="#001026" stroke-width="1.2" stroke-linecap="round" stroke-linejoin="miter"/></g></g></svg>