<svg version="1.1" xmlns="http://www.w3.org/2000/svg" xmlns:xlink="http://www.w3.org/1999/xlink" width="143.62447" height="114.26208" viewBox="0,0,143.62447,114.26208"><defs><linearGradient x1="256.45445" y1="202.21146" x2="251.92789" y2="220.25226" gradientUnits="userSpaceOnUse" id="color-1"><stop offset="0" stop-color="#ffffff"/><stop offset="1" stop-color="#9f9f9f"/></linearGradient></defs><g transform="translate(-149.08108,-126.46279)"><g data-paper-data="{&quot;isPaintingLayer&quot;:true}" stroke-miterlimit="10" stroke-dasharray="" stroke-dashoffset="0" style="mix-blend-mode: normal"><g data-paper-data="{&quot;index&quot;:null}" stroke="#001026" stroke-width="1.2"><path d="M239.87301,195.48177c0.8977,2.03079 3.41684,10.04665 6.08305,10.63092c2.54242,0.51589 8.71442,-3.34498 10.45616,1.25246c1.71404,4.50133 -4.50388,6.39805 -10.10808,6.45266c-7.25239,0.11349 -13.29127,-9.28129 -11.27614,-16.73106c0.80416,-2.62552 3.91959,-3.73186 4.84501,-1.60498z" data-paper-data="{&quot;index&quot;:null}" fill="#878787" fill-rule="evenodd" stroke-linecap="round" stroke-linejoin="round"/><g data-paper-data="{&quot;index&quot;:null}" fill-rule="nonzero" stroke-linejoin="miter"><g><g><path d="M253.63671,207.27805l2.62833,-10.47531l2.52182,0.63274l-2.62833,10.47531z" fill="#2c2c2c" stroke-linecap="butt"/><path d="M250.98053,218.54541l2.31421,0.63597l-4.50031,14.11195z" fill="#6c6c6c" stroke-linecap="butt"/><path d="M248.33914,219.35181l4.52656,-18.0408l7.17751,1.80089l-4.52654,18.0408z" fill="url(#color-1)" stroke-linecap="butt"/><path d="M252.23293,203.83282l3.44311,1.0701" fill="none" stroke-linecap="round"/><path d="M251.79347,207.22796l3.05512,0.97275" fill="none" stroke-linecap="round"/><path d="M251.01542,209.50713l2.61847,1.0694" fill="none" stroke-linecap="round"/><path d="M252.61248,213.82564l-2.13385,-0.5354" fill="none" stroke-linecap="round"/><path d="M252.12434,217.41476l-2.7638,-1.31207" fill="none" stroke-linecap="round"/></g><path d="M253.49983,197.13995l0.68141,-2.71582l7.37152,1.84955l-0.68141,2.71583z" fill="#2c2c2c" stroke-linecap="butt"/></g><path d="M253.12496,210.13952c-0.71235,2.8391 -2.54915,4.82469 -4.10261,4.4349c-1.55348,-0.38977 -2.23536,-3.00731 -1.52299,-5.8464c0.71235,-2.8391 2.54917,-4.82466 4.10264,-4.43491c1.55348,0.38977 2.23535,3.0073 1.52299,5.84641z" fill="#878787" stroke-linecap="butt"/><path d="M263.26165,211.65189c-1.08869,4.339 -4.18595,7.3008 -6.91792,6.61534c-2.73197,-0.68547 -4.06412,-4.75862 -2.97544,-9.09762c1.08869,-4.339 4.18595,-7.30079 6.91792,-6.61533c2.73197,0.68547 4.06413,4.75861 2.97546,9.09763z" fill="#878787" stroke-linecap="butt"/></g></g><path d="M233.22712,181.8279c0.21292,0.07036 0.4276,0.13289 0.64415,0.18702c0,0 0.48507,0.12127 0.3638,0.60634c-0.12127,0.48507 -0.60634,0.3638 -0.60634,0.3638c-0.81589,-0.20397 -1.60734,-0.51941 -2.37823,-0.91989c0.46859,1.13711 3.52159,2.03368 4.16834,2.47651c0.73981,0.90988 2.12814,2.48281 2.2463,3.70966c0.19277,2.00132 -1.89005,4.38013 -3.3623,5.33298c-3.28052,2.12317 -5.28855,4.55355 -9.05531,6.10544c-6.79262,2.77639 -14.06324,1.54819 -20.92041,-0.15145c-3.4413,-0.85335 -7.52836,-1.15571 -10.76665,-2.4897c-0.7723,-0.31814 -2.32519,-0.68015 -2.92401,-1.24638c-1.41781,-1.34063 -1.1145,-5.2473 -3.16706,-5.58563c-6.78586,-1.57183 -13.83251,-2.75862 -20.45352,-4.91993c-3.35515,-1.09523 -7.52439,-2.34015 -9.79786,-5.3168c-1.8365,-2.40453 -2.73809,-6.5395 -3.90488,-9.34455c-0.48813,-1.17352 -1.33446,-2.55665 -1.54679,-3.8101c-0.22063,-1.3024 0.57509,-2.74416 0.37163,-3.98077c-0.22901,-1.3919 -1.67628,-2.04653 -1.87854,-3.47921c-0.41228,-2.92027 1.7089,-5.89292 0.63035,-8.74942c-1.02456,-2.77436 -2.48506,-5.96927 -1.45952,-9.03342c0.44858,-1.34028 2.00832,-2.11636 3.06812,-2.92366c2.12132,-1.6159 4.24263,-3.2318 6.36395,-4.84769c3.95481,-3.01255 10.60852,-6.37397 15.54083,-7.2911c1.43586,-0.26699 2.70055,0.48568 4.07847,0.52731c3.56098,0.93074 8.65313,0.92566 11.84231,2.84958c2.37447,1.43243 4.30205,4.79043 6.00123,6.92953c4.39544,5.53341 8.10372,11.32822 11.72172,17.40854c4.13828,5.55819 8.29229,11.21385 12.12933,16.97053c3.45248,2.62978 6.80909,7.15654 10.70816,9.51901c0.49021,-0.11946 1.19962,0.21079 1.68378,0.85899c0.05015,0.02062 0.10039,0.04082 0.15073,0.0606l0.04327,-0.1439c0,0 0.36838,0.00897 0.46495,0.32776z" fill="#000000" fill-rule="nonzero" stroke="none" stroke-width="0.5" stroke-linecap="butt" stroke-linejoin="miter"/><g fill-rule="evenodd"><path d="M224.78334,200.96667c0.6,0.8 3.3,2 -0.2,4.2c-3.6,2.1 -12.7,5 -21.6,-2.9c-9.6,-8.6 -4.5,-20.3 -0.1,-20.7c4.3,-0.4 2.6,6.6 5.7,14.4c4.4,11.3 15.6,4.2 16.2,5z" fill="#878787" stroke="#001026" stroke-width="1.2" stroke-linecap="round" stroke-linejoin="round"/><path d="M205.68334,186.76667c0.5,4.4 1.5,7.4 1.5,7.4c0,0 -1.6,-2 -4,-1.6c-2.9,0.5 -3.8,2.9 -3.9,3.6c-0.7,-1.7 -1.3,-3.8 -1.1,-7.4c0.5,-3.5 2.7,-7.1 5.2,-6.7c2,0.4 1.9,2 2.3,4.7z" fill="#ffffff" stroke="none" stroke-width="1" stroke-linecap="butt" stroke-linejoin="miter"/></g><path d="M226.4449,192.91737c-0.53175,2.35738 -4.44264,4.53794 -4.94762,5.53543c-0.10149,0.2995 2.95576,4.87478 4.76209,7.62381c2.60084,3.853 -2.54229,8.48745 -6.4501,6.02796c-3.6083,-2.35799 -7.86791,-10.47931 -8.27824,-12.42138c-1.03797,-4.42523 7.15496,-10.58688 12.52673,-14.78095" fill="#878787" fill-rule="evenodd" stroke="#001026" stroke-width="1.2" stroke-linecap="round" stroke-linejoin="round"/><path d="M248.3198,236.3753c0,3.86599 -11.83333,3 -11.83333,3c0,0 -10.5,0.86599 -10.5,-3c0,-3.45051 2.7452,-32.89294 7.69909,-34.5825c3.83539,-1.30808 4.43187,28.24917 5.13424,28.24917c6.53537,0 9.5,2.46734 9.5,6.33333z" fill="#878787" fill-rule="nonzero" stroke="#001026" stroke-width="1.2" stroke-linecap="butt" stroke-linejoin="miter"/><path d="M242.3198,237.04197c0,3.86599 -11.83333,3 -11.83333,3c0,0 -10.5,0.86599 -10.5,-3c0,-3.45051 2.7452,-32.89294 7.69909,-34.58249c3.83539,-1.30808 4.43187,28.24916 5.13424,28.24916c6.53537,0 9.5,2.46734 9.5,6.33333z" fill="#878787" fill-rule="nonzero" stroke="#001026" stroke-width="1.2" stroke-linecap="butt" stroke-linejoin="miter"/><g fill-rule="evenodd"><path d="M228.46746,211.92774c-9.18562,-0.14169 -6.59918,-8.70522 -6.1184,-18.13437c0.22478,-5.09504 2.32496,-11.27985 8.25588,-12.7846c3.28322,-1.01509 4.71707,5.1431 6.65887,4.10414c2.93427,-1.51331 4.46287,3.07617 4.72896,5.71988c0,0 0.33245,3.94201 -0.02111,6.21687c-0.40861,2.85536 -0.99765,5.79696 -1.69222,7.12646c0,0 -1.91695,7.90424 -11.81198,7.75161z" fill="#878787" stroke="#001026" stroke-width="1.2" stroke-linecap="round" stroke-linejoin="round"/><path d="M239.54139,204.42127c0,0 -1.87085,-0.43583 -3.96129,-1.09921c-2.58071,-0.76155 -5.03204,-1.25242 -4.5644,-4.91184c0.58904,-2.9416 0.7429,-6.56186 6.05356,-5.88595c5.04397,0.58172 4.40781,3.65665 4.40781,3.65665c-0.04435,5.00879 -1.93568,8.24035 -1.93568,8.24035z" fill="#ffffff" stroke="none" stroke-width="1" stroke-linecap="butt" stroke-linejoin="miter"/></g><path d="M220.06371,195.99621l2.11464,-8.76682l4.89755,0.85834l-2.11464,8.76682z" fill="#878787" fill-rule="nonzero" stroke="#001026" stroke-width="0" stroke-linecap="butt" stroke-linejoin="miter"/><path d="M173.16667,151.74894c0,3.45353 -3.43815,6.25317 -7.67933,6.25317c-4.24117,0 -9.65401,-12.83544 -9.65401,-12.83544c0,0 17.33333,3.12875 17.33333,6.58228z" fill="#ffffff" fill-rule="nonzero" stroke="none" stroke-width="0" stroke-linecap="butt" stroke-linejoin="miter"/><path d="M179.26483,147.89553c-0.45747,-3.4231 16.30868,-8.82032 16.30868,-8.82032c0,0 -3.66491,13.43934 -7.8687,14.00114c-4.20381,0.5618 -7.98251,-1.75772 -8.43998,-5.18082z" data-paper-data="{&quot;index&quot;:null}" fill="#ffffff" fill-rule="nonzero" stroke="none" stroke-width="0" stroke-linecap="butt" stroke-linejoin="miter"/><g><path d="M261.44229,138.69581c0.31499,-0.17545 0.80542,-0.03591 0.87323,0.37079l1.73885,10.8732c0,0 6.00501,5.19519 7.63592,8.63613c2.75142,5.73757 2.49241,10.23122 2.49241,10.23122c0,0 6.91002,2.65925 7.65186,8.43677c0.74184,5.77752 -4.50502,16.19243 -23.54012,18.38213c-19.03511,2.1897 -33.68054,-4.09768 -39.84927,-16.02734c-6.16873,-11.92966 6.07968,-24.59364 5.41782,-23.84402l-0.66653,-18.01044c-0.0678,-0.4067 0.45453,-0.66589 0.83731,-0.43465l11.4318,8.83934c0,0 4.62118,-1.3359 9.32217,-1.16063c2.80703,0.02382 5.18346,0.41449 7.44425,0.99654z" fill="#878787" fill-rule="evenodd" stroke="#001026" stroke-width="1.2" stroke-linecap="butt" stroke-linejoin="miter"/><path d="M273.85176,169.18196c0,0 6.73457,2.34426 7.47641,8.12178c0.74184,5.77752 -4.86389,15.66214 -23.69166,17.7681c-24.52154,3.05514 -34.83715,-12.21569 -27.31355,-22.24792c7.53157,-10.1319 18.26962,-0.1442 26.69072,-0.07274c7.21694,0.0755 8.51656,-6.14069 16.83807,-3.56921z" fill="#ffffff" fill-rule="evenodd" stroke="none" stroke-width="1" stroke-linecap="butt" stroke-linejoin="miter"/><path d="M292.10555,171.7451c-4.98794,3.41328 -12.173,2.93906 -12.173,2.93906" fill="none" fill-rule="evenodd" stroke="#001026" stroke-width="1.2" stroke-linecap="round" stroke-linejoin="round"/><path d="M289.91694,182.80584c-6.31981,-0.00376 -10.05595,-2.20857 -10.05595,-2.20857" fill="none" fill-rule="evenodd" stroke="#001026" stroke-width="1.2" stroke-linecap="round" stroke-linejoin="round"/><path d="M256.82222,170.12757c2.09331,0.16739 4.27038,0.54212 4.31426,1.24785c-0.01192,1.40352 -1.73033,4.07504 -3.3332,4.04719c-1.81022,0.05588 -5.79758,-2.77094 -5.67005,-4.36585c-0.00403,-1.20415 2.69535,-1.08862 4.68898,-0.9292z" fill="#001026" fill-rule="evenodd" stroke="#001026" stroke-width="1.2" stroke-linecap="round" stroke-linejoin="round"/><path d="M212.08496,165.04544c0,0 8.34946,3.47659 11.59122,6.8457" fill="none" fill-rule="evenodd" stroke="#001026" stroke-width="1.2" stroke-linecap="round" stroke-linejoin="round"/><path d="M223.69624,175.40391c-4.42183,1.35184 -11.71059,-0.3345 -11.71059,-0.3345" fill="none" fill-rule="evenodd" stroke="#001026" stroke-width="1.2" stroke-linecap="round" stroke-linejoin="round"/><path d="M269.51726,159.40535c2.53208,4.71684 2.22525,9.80858 -0.70932,11.37967c-2.93457,1.57109 -7.35255,-0.8889 -9.9843,-5.6137c-2.53208,-4.71684 -1.22525,-9.30858 1.70932,-10.87967c2.94254,-1.67077 6.45222,0.39686 8.9843,5.1137z" fill="#ffffff" fill-rule="evenodd" stroke="#001026" stroke-width="1.2" stroke-linecap="round" stroke-linejoin="round"/><path d="M244.57298,160.21967c2.63973,4.62512 2.00995,9.99201 -0.83291,11.67074c-3.44095,1.63092 -7.71536,-0.11535 -10.35509,-4.74047c-2.73942,-4.6331 -1.02509,-8.06256 2.2404,-10.00847c3.27347,-2.04558 6.30787,-1.54693 8.9476,3.07821z" fill="#ffffff" fill-rule="evenodd" stroke="#001026" stroke-width="1.2" stroke-linecap="round" stroke-linejoin="round"/><path d="M255.16544,184.88731c-0.21461,2.68383 -15.79382,6.38641 -22.53779,5.84715c-6.74397,-0.53927 -2.09888,-5.11618 -1.88426,-7.80001c0.21461,-2.68383 2.19751,0.55192 8.94148,1.09119c6.74397,0.53927 15.69518,-1.82214 15.48057,0.86168z" fill="#ffffff" fill-rule="nonzero" stroke="#001026" stroke-width="1.2" stroke-linecap="butt" stroke-linejoin="miter"/><path d="M232.18904,189.94698l1.78405,-6.62889" fill="none" fill-rule="nonzero" stroke="#001026" stroke-width="1.2" stroke-linecap="round" stroke-linejoin="miter"/></g></g></g></svg>