<svg version="1.1" xmlns="http://www.w3.org/2000/svg" xmlns:xlink="http://www.w3.org/1999/xlink" width="102.22525" height="101.75579" viewBox="0,0,102.22525,101.75579"><defs><linearGradient x1="252.69187" y1="207.2193" x2="262.47337" y2="223.03962" gradientUnits="userSpaceOnUse" id="color-1"><stop offset="0" stop-color="#ffffff"/><stop offset="1" stop-color="#9f9f9f"/></linearGradient></defs><g transform="translate(-203.86289,-141.50208)"><g data-paper-data="{&quot;isPaintingLayer&quot;:true}" stroke-miterlimit="10" stroke-dasharray="" stroke-dashoffset="0" style="mix-blend-mode: normal"><path d="M246.02354,197.02452c0.14707,2.21548 -0.23459,10.60918 2.06972,12.07212c2.21146,1.35626 9.33307,-0.15463 9.39308,4.76129c0.06695,4.81618 -6.42441,4.46621 -11.70768,2.5962c-6.85177,-2.37976 -9.30379,-13.27552 -4.85674,-19.58295c1.65553,-2.19071 4.96147,-2.1619 5.10162,0.15335z" data-paper-data="{&quot;index&quot;:null}" fill="#717171" fill-rule="evenodd" stroke="#001026" stroke-width="1.2" stroke-linecap="round" stroke-linejoin="round"/><g data-paper-data="{&quot;index&quot;:null}" fill-rule="nonzero" stroke="#001026" stroke-width="1.2" stroke-linejoin="miter"><g><g><path d="M254.361,212.77124l-5.67957,-9.186l2.21144,-1.36731l5.67957,9.186z" fill="#2c2c2c" stroke-linecap="butt"/><path d="M260.58911,222.52928l2.06904,-1.21618l6.98253,13.06309z" fill="#6c6c6c" stroke-linecap="butt"/><path d="M259.32631,224.9854l-9.78149,-15.82032l6.2941,-3.89156l9.7815,15.82032z" fill="url(#color-1)" stroke-linecap="butt"/><path d="M250.91211,211.37652l3.16718,-1.72309" fill="none" stroke-linecap="round"/><path d="M253.04036,214.05806l2.82694,-1.51273" fill="none" stroke-linecap="round"/><path d="M254.13237,216.20456l2.59191,-1.13226" fill="none" stroke-linecap="round"/><path d="M256.47096,219.22632l1.87122,-1.15695" fill="none" stroke-linecap="round"/><path d="M257.7084,221.98833l2.8672,-1.06732" fill="none" stroke-linecap="round"/></g><path d="M246.99588,205.80311l-1.47248,-2.38155l6.46422,-3.99674l1.47249,2.38156z" fill="#2c2c2c" stroke-linecap="butt"/></g><path d="M256.05618,215.13267c1.53932,2.48967 1.68287,5.19073 0.32059,6.033c-1.36227,0.84228 -3.71448,-0.4932 -5.2538,-2.98287c-1.53932,-2.48967 -1.68286,-5.19074 -0.32059,-6.03302c1.36227,-0.84228 3.71448,0.4932 5.25381,2.98287z" fill="#717171" stroke-linecap="butt"/><path d="M264.20595,208.91807c2.35256,3.80496 2.31757,8.09029 -0.07815,9.57153c-2.39572,1.48124 -6.24495,-0.40251 -8.5975,-4.20747c-2.35256,-3.80496 -2.31757,-8.09028 0.07814,-9.57152c2.39572,-1.48124 6.24496,0.4025 8.59752,4.20746z" fill="#717171" stroke-linecap="butt"/></g><g fill-rule="evenodd"><path d="M229.22863,205.8729c0.26236,0.96496 2.32881,3.0768 -1.73608,3.82963c-4.12091,0.62299 -13.64875,-0.04054 -19.0045,-10.66767c-5.74796,-11.53607 3.31034,-20.52758 7.54731,-19.27533c4.14402,1.21535 -0.01961,7.09363 -0.01742,15.48708c-0.08144,12.12615 12.94833,9.66131 13.21068,10.62628z" fill="#717171" stroke="#001026" stroke-width="1.2" stroke-linecap="round" stroke-linejoin="round"/><path d="M216.71838,185.62584c-1.15932,4.27387 -1.33721,7.43114 -1.33721,7.43114c0,0 -0.74884,-2.44932 -3.12702,-2.96339c-2.87978,-0.60568 -4.60206,1.29268 -4.95337,1.90634c-0.02311,-1.83834 0.19435,-4.01152 1.70896,-7.28351c1.75652,-3.06832 5.12992,-5.60213 7.30577,-4.30764c1.71115,1.10995 1.02766,2.56006 0.40286,5.21706z" fill="#ffffff" stroke="none" stroke-width="1" stroke-linecap="butt" stroke-linejoin="miter"/></g><path d="M248.3198,236.3753c0,3.86599 -11.83333,3 -11.83333,3c0,0 -10.5,0.86599 -10.5,-3c0,-3.45051 2.7452,-32.89294 7.69909,-34.5825c3.83539,-1.30808 4.43187,28.24917 5.13424,28.24917c6.53537,0 9.5,2.46734 9.5,6.33333z" fill="#717171" fill-rule="nonzero" stroke="#001026" stroke-width="1.2" stroke-linecap="butt" stroke-linejoin="miter"/><path d="M223.31441,241.8463c-2.15986,3.20638 -11.4904,-4.12293 -11.4904,-4.12293c0,0 -9.19232,-5.14793 -7.03245,-8.35431c1.92774,-2.86179 20.65353,-25.7471 25.70613,-24.38073c3.9118,1.05787 -12.10661,25.90534 -11.52407,26.29774c5.42031,3.6512 6.50067,7.35386 4.34081,10.56024z" fill="#717171" fill-rule="nonzero" stroke="#001026" stroke-width="1.2" stroke-linecap="butt" stroke-linejoin="miter"/><g fill-rule="evenodd"><path d="M228.66591,213.13299c-8.60298,-3.22246 -3.28737,-10.41745 0.33632,-19.13575c1.92509,-4.7227 5.98284,-9.84104 12.07437,-9.26365c3.43336,0.14813 2.71278,6.42985 4.89088,6.10441c3.27228,-0.43841 3.16847,4.39782 2.53002,6.97704c0,0 -1.01256,3.82422 -2.11054,5.8477c-1.34503,2.55165 -2.889,5.12385 -3.99021,6.14234c0,0 -4.4634,6.79924 -13.73081,3.32791z" fill="#717171" stroke="#001026" stroke-width="1.2" stroke-linecap="round" stroke-linejoin="round"/><path d="M241.61921,209.78773c0,0 -1.61532,-1.03959 -3.36093,-2.36733c-2.17431,-1.58506 -4.31779,-2.87169 -2.64677,-6.16072c1.54396,-2.57219 2.90631,-5.92987 7.68037,-3.50741c4.55458,2.24406 2.92141,4.92598 2.92141,4.92598c-1.72616,4.70216 -4.59408,7.10949 -4.59408,7.10949z" fill="#ffffff" stroke="none" stroke-width="1" stroke-linecap="butt" stroke-linejoin="miter"/></g><path d="M236.96893,196.43291c0.17956,2.40993 -2.92447,5.63715 -3.11628,6.7386c-0.00964,0.31609 4.25002,3.79965 6.78015,5.90165c3.6123,2.92598 0.04602,8.8599 -4.40953,7.64827c-4.13946,-1.20199 -10.58426,-7.72616 -11.54363,-9.46387c-2.28454,-3.9295 3.75291,-12.21439 7.66642,-17.79386" fill="#717171" fill-rule="evenodd" stroke="#001026" stroke-width="1.2" stroke-linecap="round" stroke-linejoin="round"/><g><g><path d="M274.32955,143.00576c0.31231,-0.18019 0.80479,-0.04807 0.87872,0.35756l1.90276,10.84571c0,0 6.08273,5.10395 7.7654,8.51989c2.83771,5.69539 2.64656,10.19244 2.64656,10.19244c0,0 6.94937,2.55465 7.77834,8.32031c0.82896,5.76566 -4.26009,16.25859 -23.25998,18.73535c-18.99988,2.47676 -33.73856,-3.58884 -40.08664,-15.42403c-6.34809,-11.83519 5.70778,-24.68262 5.0573,-23.92308l-0.93831,-17.99832c-0.07393,-0.40563 0.44442,-0.67268 0.83065,-0.44723l11.56392,8.66578c0,0 4.6005,-1.4055 9.30359,-1.30121c2.80708,-0.01855 5.18912,0.3362 7.45845,0.88407z" fill="#717171" fill-rule="evenodd" stroke="#001026" stroke-width="1.2" stroke-linecap="butt" stroke-linejoin="miter"/><path d="M280.67423,171.52047c-0.26334,4.06458 -6.56418,6.96517 -14.07332,6.47866c-7.50913,-0.48651 -13.38301,-4.17591 -13.11967,-8.24048c0.26334,-4.06458 6.56418,-6.96517 14.07332,-6.47866c7.50913,0.48651 13.38301,4.17591 13.11967,8.24048z" fill="#393939" fill-rule="nonzero" stroke="none" stroke-width="NaN" stroke-linecap="butt" stroke-linejoin="miter"/><path d="M287.19777,173.30112c0,0 6.76919,2.24234 7.59815,8.008c0.82896,5.76566 -4.62693,15.73376 -23.42077,18.12368c-24.47264,3.42491 -35.01756,-11.68847 -27.64624,-21.83312c7.37778,-10.24444 18.26536,-0.41995 26.68658,-0.4756c7.21726,-0.03344 8.42291,-6.26854 16.78229,-3.82296z" fill="#ffffff" fill-rule="evenodd" stroke="none" stroke-width="1" stroke-linecap="butt" stroke-linejoin="miter"/><path d="M305.48814,175.58845c-4.93586,3.48817 -12.12726,3.12246 -12.12726,3.12246" fill="none" fill-rule="evenodd" stroke="#001026" stroke-width="1.2" stroke-linecap="round" stroke-linejoin="round"/><path d="M270.18442,174.50366c2.09561,0.13577 4.27807,0.47759 4.33261,1.18259c0.00928,1.40354 -1.66862,4.1007 -3.27174,4.09704c-1.80917,0.08321 -5.83875,-2.68311 -5.7353,-4.27976c-0.0222,-1.20396 2.67862,-1.12918 4.67443,-0.99987z" fill="#001026" fill-rule="evenodd" stroke="#001026" stroke-width="1.2" stroke-linecap="round" stroke-linejoin="round"/><path d="M225.37555,170.09737c0,0 8.40098,3.35017 11.69323,6.66997" fill="none" fill-rule="evenodd" stroke="#001026" stroke-width="1.2" stroke-linecap="round" stroke-linejoin="round"/><path d="M237.14186,180.27941c-4.40092,1.41844 -11.71431,-0.15771 -11.71431,-0.15771" fill="none" fill-rule="evenodd" stroke="#001026" stroke-width="1.2" stroke-linecap="round" stroke-linejoin="round"/><path d="M282.71618,163.59105c2.60299,4.67808 2.37304,9.77387 -0.53747,11.38908c-2.91052,1.61521 -7.36512,-0.77781 -10.0679,-5.46235c-2.60299,-4.67808 -2.37304,-9.77387 0.53747,-11.38908c2.91698,-1.715 7.46491,0.78428 10.0679,5.46235z" fill="#ffffff" fill-rule="evenodd" stroke="#001026" stroke-width="1.2" stroke-linecap="round" stroke-linejoin="round"/><path d="M257.78704,164.78177c2.70925,4.58475 2.16054,9.96053 -0.65666,11.68199c-3.41593,1.68267 -7.71621,0.00112 -10.42546,-4.58364c-2.80904,-4.59122 -2.42294,-9.77711 0.81282,-11.77208c3.24222,-2.09476 7.56006,0.08897 10.26931,4.67373z" fill="#ffffff" fill-rule="evenodd" stroke="#001026" stroke-width="1.2" stroke-linecap="round" stroke-linejoin="round"/><path d="M262.7589,191.54946c-0.75373,3.16408 -18.12859,10.73045 -24.99917,9.09379c-6.87057,-1.63667 -0.63511,-11.85661 0.11862,-15.02069c0.75373,-3.16408 3.19195,4.04693 10.06253,5.6836c6.87057,1.63667 15.57175,-2.92077 14.81802,0.24332z" fill="#000000" fill-rule="nonzero" stroke="#001026" stroke-width="1.2" stroke-linecap="butt" stroke-linejoin="miter"/></g><path d="M303.46675,186.68096c-6.31914,0.09164 -10.08814,-2.05654 -10.08814,-2.05654" fill="none" fill-rule="evenodd" stroke="#001026" stroke-width="1.2" stroke-linecap="round" stroke-linejoin="round"/></g></g></g></svg>