<svg version="1.1" xmlns="http://www.w3.org/2000/svg" xmlns:xlink="http://www.w3.org/1999/xlink" width="83.03935" height="109.72575" viewBox="0,0,83.03935,109.72575"><defs><linearGradient x1="249.70404" y1="194.13667" x2="260.40381" y2="209.35098" gradientUnits="userSpaceOnUse" id="color-1"><stop offset="0" stop-color="#ffffff"/><stop offset="1" stop-color="#9f9f9f"/></linearGradient></defs><g transform="translate(-195.4061,-130.99912)"><g data-paper-data="{&quot;isPaintingLayer&quot;:true}" stroke-miterlimit="10" stroke-dasharray="" stroke-dashoffset="0" style="mix-blend-mode: normal"><path d="M237.24161,191.2352c0.97568,1.99451 3.80336,9.90678 6.49019,10.38736c2.56048,0.41704 8.57835,-3.67995 10.49682,0.84657c1.88709,4.43158 -4.25272,6.56768 -9.85059,6.83929c-7.24256,0.39428 -13.64073,-8.75958 -11.91563,-16.28182c0.70186,-2.65469 3.77214,-3.88085 4.77922,-1.7914z" data-paper-data="{&quot;index&quot;:null}" fill="#717171" fill-rule="evenodd" stroke="#001026" stroke-width="1.2" stroke-linecap="round" stroke-linejoin="round"/><g fill-rule="nonzero" stroke="#001026" stroke-width="1.2" stroke-linejoin="miter"><g><g><path d="M251.69851,199.58022l-6.21277,-8.83412l2.12673,-1.49567l6.21277,8.83412z" fill="#2c2c2c" stroke-linecap="butt"/><path d="M258.49268,208.95294l1.9935,-1.33639l7.74268,12.62739z" fill="#6c6c6c" stroke-linecap="butt"/><path d="M257.37731,211.47943l-10.69978,-15.21429l6.053,-4.2569l10.69978,15.2143z" fill="url(#color-1)" stroke-linecap="butt"/><path d="M248.17321,198.39186l3.05976,-1.90733" fill="none" stroke-linecap="round"/><path d="M253.18882,199.26564l-2.73255,1.67722" fill="none" stroke-linecap="round"/><path d="M251.67328,203.02105l2.52042,-1.28353" fill="none" stroke-linecap="round"/><path d="M255.98599,204.63368l-1.79953,1.26556" fill="none" stroke-linecap="round"/><path d="M255.58503,208.58326l2.79907,-1.23499" fill="none" stroke-linecap="round"/></g><path d="M243.93427,193.05974l-1.61072,-2.29032l6.2166,-4.37196l1.61073,2.29033z" fill="#2c2c2c" stroke-linecap="butt"/></g><path d="M253.53035,201.83728c1.68384,2.3943 1.98683,5.08216 0.67674,6.00349c-1.31008,0.92135 -3.73714,-0.27271 -5.42098,-2.66701c-1.68384,-2.3943 -1.98682,-5.08216 -0.67674,-6.0035c1.31008,-0.92135 3.73714,0.27271 5.42098,2.66702z" fill="#717171" stroke-linecap="butt"/><path d="M261.29842,195.1517c2.57341,3.65921 2.79186,7.93911 0.48791,9.5594c-2.30394,1.62029 -6.25781,-0.03256 -8.83124,-3.69177c-2.57341,-3.65921 -2.79187,-7.9391 -0.48792,-9.55939c2.30394,-1.62029 6.25782,0.03256 8.83125,3.69176z" fill="#717171" stroke-linecap="butt"/></g><g fill-rule="evenodd"><path d="M226.16505,207.4125c0.87604,0.48223 3.83066,0.46487 1.54601,3.91022c-2.41693,3.39536 -9.51742,9.78309 -20.87981,6.24529c-12.28843,-3.88773 -12.45478,-16.64988 -8.60917,-18.82505c3.75447,-2.13401 5.08555,4.94541 11.12062,10.77877c8.66014,8.48835 15.9463,-2.59147 16.82234,-2.10923z" fill="#717171" stroke="#001026" stroke-width="1.2" stroke-linecap="round" stroke-linejoin="round"/><path d="M202.91383,202.33011c2.2663,3.80446 4.4122,6.12719 4.4122,6.12719c0,0 -2.28125,-1.16442 -4.30403,0.18774c-2.43734,1.64905 -2.27001,4.20678 -2.07311,4.88592c-1.33754,-1.26135 -2.74853,-2.92842 -4.04764,-6.29179c-0.98454,-3.39568 -0.46084,-7.58206 1.98229,-8.24624c1.98742,-0.45843 2.55468,1.04097 4.03029,3.33718z" fill="#ffffff" stroke="none" stroke-width="1" stroke-linecap="butt" stroke-linejoin="miter"/></g><path d="M266.01938,213.00165c2.9078,2.54767 -5.54164,10.87741 -5.54164,10.87741c0,0 -6.26808,8.46824 -9.17588,5.92058c-2.5953,-2.27386 -22.9313,-23.74104 -20.93752,-28.58051c1.54363,-3.7468 24.16815,15.2826 24.631,14.75431c4.30677,-4.91557 8.11624,-5.51945 11.02404,-2.97179z" fill="#717171" fill-rule="nonzero" stroke="#001026" stroke-width="1.2" stroke-linecap="butt" stroke-linejoin="miter"/><path d="M242.3198,237.04197c0,3.86599 -11.83333,3 -11.83333,3c0,0 -10.5,0.86599 -10.5,-3c0,-3.45051 2.7452,-32.89294 7.69909,-34.58249c3.83539,-1.30808 4.43187,28.24916 5.13424,28.24916c6.53537,0 9.5,2.46734 9.5,6.33333z" fill="#717171" fill-rule="nonzero" stroke="#001026" stroke-width="1.2" stroke-linecap="butt" stroke-linejoin="miter"/><g fill-rule="evenodd"><path d="M230.9927,212.86405c-8.29702,3.94399 -9.77377,-4.87887 -13.52174,-13.54447c-2.05659,-4.66694 -2.91501,-11.14196 1.73472,-15.1194c2.49327,-2.36506 6.50789,2.51983 7.78811,0.72788c1.95966,-2.65702 5.36397,0.77964 6.77418,3.03159c0,0 2.0451,3.38638 2.73636,5.58232c0.89919,2.7407 1.67486,5.63871 1.64146,7.13833c0,0 1.78471,7.93514 -7.15309,12.18374z" fill="#717171" stroke="#001026" stroke-width="1.2" stroke-linecap="round" stroke-linejoin="round"/><path d="M237.59282,201.22716c0,0 -1.87023,0.43846 -4.03816,0.77026c-2.65093,0.46108 -5.06591,1.10747 -6.26855,-2.38018c-0.77567,-2.89798 -2.24223,-6.21147 2.81794,-7.95922c4.77935,-1.71399 5.57188,1.3244 5.57188,1.3244c2.18011,4.50966 1.91689,8.24475 1.91689,8.24475z" fill="#ffffff" stroke="none" stroke-width="1" stroke-linecap="butt" stroke-linejoin="miter"/></g><path d="M218.58644,196.89205c-1.46792,1.91969 -5.93214,2.2671 -6.80764,2.96242c-0.21733,0.22972 0.64905,5.66381 1.14181,8.91606c0.75345,4.58719 -5.85545,6.64935 -8.37848,2.78226c-2.29332,-3.64974 -2.77078,-12.80792 -2.33228,-14.74383c0.90557,-4.45421 10.92339,-6.62986 17.55604,-8.1964" fill="#717171" fill-rule="evenodd" stroke="#001026" stroke-width="1.2" stroke-linecap="round" stroke-linejoin="round"/><g><g><path d="M250.02836,136.19732c0.32845,-0.14873 0.80563,0.031 0.83947,0.44191l0.83122,10.97994c0,0 5.55353,5.67525 6.89349,9.23958c2.26616,5.94596 1.63542,10.40267 1.63542,10.40267c0,0 6.66571,3.2231 6.92591,9.04222c0.2602,5.81913 -5.83223,15.76309 -24.98335,16.3668c-19.15112,0.60371 -33.22475,-6.87646 -38.38299,-19.27657c-5.15824,-12.40011 8.09812,-24.0048 7.37638,-23.31264l0.82925,-18.00367c-0.03384,-0.41092 0.50817,-0.6259 0.87047,-0.36371l10.65944,9.75686c0,0 4.71604,-0.9481 9.38631,-0.38361c2.79539,0.25651 5.13123,0.84289 7.33598,1.61042z" fill="#717171" fill-rule="evenodd" stroke="#001026" stroke-width="1.2" stroke-linecap="butt" stroke-linejoin="miter"/><path d="M253.54936,165.19639c-0.66023,4.01923 -7.21489,6.28867 -14.64026,5.06894c-7.42537,-1.21973 -12.90959,-5.46676 -12.24938,-9.486c0.66023,-4.01923 7.21489,-6.28867 14.64026,-5.06894c7.42537,1.21973 12.90959,5.46676 12.24938,9.486z" fill="#393939" fill-rule="nonzero" stroke="none" stroke-width="NaN" stroke-linecap="butt" stroke-linejoin="miter"/><path d="M259.86709,167.6075c0,0 6.51698,2.89465 6.77718,8.71378c0.2602,5.81913 -6.14589,15.20487 -25.08345,15.74232c-24.69043,1.01121 -33.7042,-15.06243 -25.37461,-24.43623c8.34579,-9.47247 18.21867,1.37126 26.60483,2.14078c7.18583,0.67369 8.99644,-5.41333 17.07605,-2.16065z" fill="#ffffff" fill-rule="evenodd" stroke="none" stroke-width="1" stroke-linecap="butt" stroke-linejoin="miter"/><path d="M277.84545,171.67547c-5.2538,2.98791 -12.37479,1.91951 -12.37479,1.91951" fill="none" fill-rule="evenodd" stroke="#001026" stroke-width="1.2" stroke-linecap="round" stroke-linejoin="round"/><path d="M274.7472,182.51664c-6.29773,-0.5278 -9.83818,-3.03484 -9.83818,-3.03484" fill="none" fill-rule="evenodd" stroke="#001026" stroke-width="1.2" stroke-linecap="round" stroke-linejoin="round"/><path d="M242.81777,167.1377c2.07223,0.3404 4.21071,0.89435 4.19592,1.60131c-0.12825,1.39769 -2.06228,3.91752 -3.65733,3.75685c-1.80861,-0.09441 -5.54783,-3.24215 -5.28848,-4.82099c0.09584,-1.20034 2.77634,-0.86137 4.74988,-0.53718z" fill="#001026" fill-rule="evenodd" stroke="#001026" stroke-width="1.2" stroke-linecap="round" stroke-linejoin="round"/><path d="M198.65602,158.36333c0,0 8.0324,4.15697 10.98363,7.78331" fill="none" fill-rule="evenodd" stroke="#001026" stroke-width="1.2" stroke-linecap="round" stroke-linejoin="round"/><path d="M209.36836,169.64897c-4.51869,0.98051 -11.64253,-1.30443 -11.64253,-1.30443" fill="none" fill-rule="evenodd" stroke="#001026" stroke-width="1.2" stroke-linecap="round" stroke-linejoin="round"/><path d="M256.35821,157.50514c2.13223,4.91056 1.40423,9.95932 -1.65051,11.28165c-3.05474,1.32233 -7.2535,-1.49552 -9.48442,-6.4223c-2.13223,-4.91056 -1.40423,-9.95932 1.65051,-11.28165c3.07095,-1.42101 7.35219,1.51173 9.48442,6.4223z" fill="#ffffff" fill-rule="evenodd" stroke="#001026" stroke-width="1.2" stroke-linecap="round" stroke-linejoin="round"/><path d="M231.43233,156.24818c2.24711,4.82809 1.17446,10.12426 -1.79782,11.56148c-3.56434,1.33996 -7.67922,-0.75473 -9.92633,-5.58282c-2.34579,-4.8443 -1.45357,-9.96743 1.96204,-11.63584c3.43182,-1.7671 7.515,0.82909 9.76211,5.65719z" fill="#ffffff" fill-rule="evenodd" stroke="#001026" stroke-width="1.2" stroke-linecap="round" stroke-linejoin="round"/></g><path d="M233.21669,184.20504c-0.95483,2.36915 -14.98697,1.64178 -20.74975,-0.68076c-5.76279,-2.32254 -1.07396,-5.36076 -0.11915,-7.7299c0.95483,-2.36915 5.27209,3.06817 11.03487,5.3907c5.76279,2.32254 10.78885,0.65081 9.83402,3.01996z" fill="#000000" fill-rule="nonzero" stroke="#001026" stroke-width="1.2" stroke-linecap="butt" stroke-linejoin="miter"/></g></g></g></svg>