<svg version="1.1" xmlns="http://www.w3.org/2000/svg" xmlns:xlink="http://www.w3.org/1999/xlink" width="89.14776" height="105.90419" viewBox="0,0,89.14776,105.90419"><defs><linearGradient x1="252.42153" y1="211.29082" x2="249.54286" y2="229.66672" gradientUnits="userSpaceOnUse" id="color-1"><stop offset="0" stop-color="#ffffff"/><stop offset="1" stop-color="#9f9f9f"/></linearGradient><radialGradient cx="270.65" cy="174.70279" r="8.13758" gradientUnits="userSpaceOnUse" id="color-2"><stop offset="0" stop-color="#ffffff"/><stop offset="1" stop-color="#1a1a1a"/></radialGradient><radialGradient cx="248.80659" cy="171.27859" r="6.75889" gradientUnits="userSpaceOnUse" id="color-3"><stop offset="0" stop-color="#ffffff"/><stop offset="1" stop-color="#1a1a1a"/></radialGradient></defs><g transform="translate(-208.09684,-137.16323)"><g data-paper-data="{&quot;isPaintingLayer&quot;:true}" stroke-miterlimit="10" stroke-dasharray="" stroke-dashoffset="0" style="mix-blend-mode: normal"><path d="M245.47628,200.544c-0.68443,2.11223 -4.14949,9.76686 -2.5514,11.97958c1.55139,2.07923 8.72584,3.31508 6.95981,7.90322c-1.72263,4.49806 -7.62209,1.76741 -11.83619,-1.92735c-5.48201,-4.74949 -3.72163,-15.77813 2.74622,-19.98845c2.3495,-1.42121 5.40937,-0.16932 4.68155,2.03302z" data-paper-data="{&quot;index&quot;:null}" fill="#717171" fill-rule="evenodd" stroke="#001026" stroke-width="1.2" stroke-linecap="round" stroke-linejoin="round"/><g fill-rule="nonzero" stroke="#001026" stroke-width="1.2" stroke-linejoin="miter"><g><g><path d="M250.07291,216.5912l1.6715,-10.66988l2.56868,0.4024l-1.6715,10.66988z" fill="#2c2c2c" stroke-linecap="butt"/><path d="M248.44519,228.0524l2.36219,0.42436l-3.20739,14.46073z" fill="#6c6c6c" stroke-linecap="butt"/><path d="M245.88743,229.09408l2.87868,-18.37588l7.31083,1.14528l-2.87868,18.37589z" fill="url(#color-1)" stroke-linecap="butt"/><path d="M248.36372,213.28686l3.52568,0.75475" fill="none" stroke-linecap="round"/><path d="M251.36318,217.40064l-3.13049,-0.69284" fill="none" stroke-linecap="round"/><path d="M247.66365,219.04792l2.70436,0.82854" fill="none" stroke-linecap="round"/><path d="M247.47071,222.86404l2.17349,0.34049" fill="none" stroke-linecap="round"/><path d="M246.61123,225.766l2.87099,1.05707" fill="none" stroke-linecap="round"/></g><path d="M249.02096,206.50689l0.43334,-2.76626l7.50843,1.17623l-0.43335,2.76627z" fill="#2c2c2c" stroke-linecap="butt"/></g><path d="M249.82167,219.4872c-0.45303,2.89184 -2.10299,5.03519 -3.68532,4.78731c-1.58233,-0.24787 -2.49781,-2.79312 -2.04479,-5.68497c0.45303,-2.89184 2.103,-5.03519 3.68533,-4.78732c1.58233,0.24787 2.49781,2.79312 2.04478,5.68497z" fill="#717171" stroke-linecap="butt"/><path d="M260.05354,220.07789c-0.69236,4.41961 -3.50946,7.64902 -6.29218,7.21309c-2.78272,-0.43593 -4.47728,-4.37211 -3.78493,-8.79171c0.69236,-4.41961 3.50945,-7.64902 6.29217,-7.2131c2.78272,0.43593 4.47729,4.3721 3.78494,8.79172z" fill="#717171" stroke-linecap="butt"/></g><g fill-rule="evenodd"><path d="M226.83844,209.90913c-0.02851,0.99959 1.33736,3.6196 -2.77127,3.16228c-4.12464,-0.59782 -13.05146,-3.99369 -15.0981,-15.71679c-2.15865,-12.7067 9.11643,-18.68771 12.80878,-16.26147c3.61408,2.36399 -2.07423,6.78363 -4.50424,14.81762c-3.59164,11.58232 9.59335,12.99876 9.56483,13.99836z" fill="#717171" stroke="#001026" stroke-width="1.2" stroke-linecap="round" stroke-linejoin="round"/><path d="M220.73173,186.9057c-2.348,3.75459 -3.43311,6.72486 -3.43311,6.72486c0,0 -0.00699,-2.56123 -2.13419,-3.74235c-2.58073,-1.41415 -4.7792,-0.09628 -5.29325,0.38926c0.51056,-1.76616 1.3484,-3.7831 3.74613,-6.47584c2.57025,-2.42771 6.53313,-3.87533 8.24053,-2.0059c1.31612,1.55815 0.24176,2.748 -1.12613,5.10997z" fill="#ffffff" stroke="none" stroke-width="1" stroke-linecap="butt" stroke-linejoin="miter"/></g><path d="M248.3198,236.3753c0,3.86599 -11.83333,3 -11.83333,3c0,0 -10.5,0.86599 -10.5,-3c0,-3.45051 2.7452,-32.89294 7.69909,-34.5825c3.83539,-1.30808 4.43187,28.24917 5.13424,28.24917c6.53537,0 9.5,2.46734 9.5,6.33333z" fill="#717171" fill-rule="nonzero" stroke="#001026" stroke-width="1.2" stroke-linecap="butt" stroke-linejoin="miter"/><path d="M242.3198,237.04197c0,3.86599 -11.83333,3 -11.83333,3c0,0 -10.5,0.86599 -10.5,-3c0,-3.45051 2.7452,-32.89294 7.69909,-34.58249c3.83539,-1.30808 4.43187,28.24916 5.13424,28.24916c6.53537,0 9.5,2.46734 9.5,6.33333z" fill="#717171" fill-rule="nonzero" stroke="#001026" stroke-width="1.2" stroke-linecap="butt" stroke-linejoin="miter"/><g fill-rule="evenodd"><path d="M227.86869,213.31527c-9.02654,-1.70797 -5.01594,-9.70414 -2.93229,-18.91274c1.09141,-4.98184 4.21675,-10.71725 10.3175,-11.18726c3.40832,-0.43961 3.76967,5.87297 5.86035,5.18081c3.14956,-0.99009 3.87211,3.79299 3.68291,6.44331c0,0 -0.34549,3.94089 -1.08227,6.12198c-0.89013,2.74366 -1.97278,5.54151 -2.88415,6.73289c0,0 -3.23837,7.46087 -12.96204,5.621z" fill="#717171" stroke="#001026" stroke-width="1.2" stroke-linecap="round" stroke-linejoin="round"/><path d="M240.06166,207.80979c0,0 -1.76896,-0.74886 -3.71544,-1.75942c-2.41279,-1.191 -4.74431,-2.0932 -3.65873,-5.61904c1.08264,-2.79783 1.85236,-6.33867 6.96964,-4.76594c4.87058,1.43438 3.71875,4.35555 3.71875,4.35555c-0.8989,4.92767 -3.31422,7.78886 -3.31422,7.78886z" fill="#ffffff" stroke="none" stroke-width="1" stroke-linecap="butt" stroke-linejoin="miter"/></g><g stroke="#001026" stroke-width="1.2"><path d="M235.74622,204.48895c2.43727,-9.51487 1.44382,-7.45728 2.64904,-7.14856c1.20522,0.30872 4.15271,-1.24834 1.71544,8.26653c-2.43726,9.51487 -5.39008,16.97794 -6.59529,16.66921c-1.20522,-0.30872 -0.20645,-8.27232 2.23082,-17.7872z" fill="#ff8200" fill-rule="nonzero" stroke-linecap="butt" stroke-linejoin="miter"/><path d="M233.78169,195.89959c0.40194,2.38295 -2.38992,5.88372 -2.47892,6.9982c0.01966,0.31562 4.5836,3.38979 7.29749,5.24848c3.86772,2.57892 0.86622,8.81758 -3.68239,8.02372c-4.23298,-0.81353 -11.2542,-6.71291 -12.37035,-8.35431c-2.63858,-3.70108 2.60578,-12.50942 5.98583,-18.4273" fill="#717171" fill-rule="evenodd" stroke-linecap="round" stroke-linejoin="round"/></g><g><path d="M274.10757,201.49554c-1.05009,4.52897 -11.82979,5.89843 -24.07715,3.05877c-12.24736,-2.83966 -21.32455,-8.81312 -20.27446,-13.34209c1.05009,-4.52897 11.82979,-5.89843 24.07715,-3.05877c12.24736,2.83966 21.32455,8.81312 20.27446,13.34209z" fill="#ff8200" fill-rule="nonzero" stroke="#001026" stroke-width="1.2" stroke-linecap="butt" stroke-linejoin="miter"/><g><g><g><path d="M273.99951,147.17445c0.34586,-0.10189 0.79361,0.14207 0.77031,0.55373l-0.69475,10.98942c0,0 4.71559,6.38853 5.54991,10.10389c1.42237,6.20216 0.18154,10.52887 0.18154,10.52887c0,0 6.1561,4.11368 5.60931,9.91291c-0.5468,5.79923 -7.95548,14.80542 -27.00616,12.75567c-19.05068,-2.04975 -31.95503,-11.40378 -35.34941,-24.39794c-3.39438,-12.99416 11.33904,-22.65471 10.52854,-22.06898l3.31031,-17.71614c0.0233,-0.41165 0.58983,-0.54964 0.9124,-0.23988l9.20819,11.13684c0,0 4.80183,-0.287 9.34921,0.91773c2.73309,0.64051 4.96543,1.54419 7.04289,2.60916z" fill="#717171" fill-rule="evenodd" stroke="#001026" stroke-width="1.2" stroke-linecap="butt" stroke-linejoin="miter"/><path d="M273.47754,176.38183c-1.20954,3.88937 -8.01502,5.23083 -15.20046,2.99624c-7.18543,-2.23459 -12.02984,-7.19902 -10.8203,-11.08839c1.20954,-3.88937 8.01502,-5.23083 15.20046,-2.99624c7.18543,2.23459 12.02984,7.19902 10.8203,11.08839z" fill="#000000" fill-rule="nonzero" stroke="none" stroke-width="NaN" stroke-linecap="butt" stroke-linejoin="miter"/><path d="M279.40127,179.64322c0,0 6.05422,3.76782 5.50741,9.56705c-0.5468,5.79923 -8.18896,14.20919 -27.01897,12.12334c-24.59314,-2.41197 -31.29815,-19.57743 -21.75261,-27.70963c9.57523,-8.22769 17.85414,3.87684 26.05338,5.79837c7.02369,1.66067 9.65844,-4.11758 17.21079,0.22087z" fill="#ffffff" fill-rule="evenodd" stroke="none" stroke-width="1" stroke-linecap="butt" stroke-linejoin="miter"/><path d="M296.64459,186.15766c-5.61643,2.23287 -12.52133,0.19025 -12.52133,0.19025" fill="none" fill-rule="evenodd" stroke="#001026" stroke-width="1.2" stroke-linecap="round" stroke-linejoin="round"/><path d="M292.07729,196.46638c-6.16429,-1.3934 -9.32413,-4.36584 -9.32413,-4.36584" fill="none" fill-rule="evenodd" stroke="#001026" stroke-width="1.2" stroke-linecap="round" stroke-linejoin="round"/><path d="M262.58063,176.82085c2.00527,0.62361 4.04664,1.46791 3.93425,2.16603c-0.32025,1.36654 -2.58408,3.5948 -4.14159,3.21515c-1.77819,-0.34355 -5.04633,-3.978 -4.5712,-5.50583c0.26086,-1.17556 2.86876,-0.46927 4.77855,0.12466z" fill="#001026" fill-rule="evenodd" stroke="#001026" stroke-width="1.2" stroke-linecap="round" stroke-linejoin="round"/><path d="M220.05601,162.02533c0,0 7.38056,5.22755 9.8021,9.22706" fill="none" fill-rule="evenodd" stroke="#001026" stroke-width="1.2" stroke-linecap="round" stroke-linejoin="round"/><path d="M229.10523,174.6836c-4.61086,0.34639 -11.35039,-2.90149 -11.35039,-2.90149" fill="none" fill-rule="evenodd" stroke="#001026" stroke-width="1.2" stroke-linecap="round" stroke-linejoin="round"/><path d="M277.46318,173.57596c1.43286,5.15818 -0.12657,5.63463 -3.33478,6.52194c-3.20822,0.88731 -6.97709,-2.48397 -8.50545,-7.67185c-0.74889,-2.66619 -1.74539,-7.80891 -0.58127,-6.88826c13.23625,10.46794 11.8136,6.4356 12.1625,7.35712c0.08607,0.22735 0.1936,0.44561 0.259,0.68105z" fill="url(#color-2)" fill-rule="evenodd" stroke="#001026" stroke-width="1.2" stroke-linecap="round" stroke-linejoin="round"/><path d="M252.81,164.46185c1.55805,5.0924 -0.23651,10.18941 -3.37894,11.20191c-3.71536,0.83432 -7.50113,-1.80915 -9.05918,-6.90154c8.56572,2.09862 10.88007,-9.39276 12.43812,-4.30037z" fill="url(#color-3)" fill-rule="evenodd" stroke="#001026" stroke-width="1.2" stroke-linecap="round" stroke-linejoin="round"/></g><path d="M246.1648,175.12888c0.00964,0.0286 0.01704,0.0604 0.02196,0.09556c0.13675,0.01519 0.28162,0.02095 0.43577,0.0161c0.11278,0.03429 0.22612,0.06954 0.33991,0.10483c0.47399,-0.02014 0.92763,-0.05493 1.15194,-0.0418c0.27464,-0.02202 0.54484,0.03702 0.8014,0.11148c0.19591,-0.30882 0.45798,-0.54181 0.94387,-0.50386c0.27431,0.02143 0.50209,0.09454 0.67741,0.20164c0.12554,-0.07355 0.24971,-0.14162 0.36811,-0.19671c0.73095,-0.85765 1.44082,-2.22851 1.77739,-2.68982l0.07809,-0.2511c0.041,-0.13184 0.18112,-0.20548 0.31297,-0.16449c0.13184,0.041 0.20548,0.18112 0.16449,0.31297l-0.08719,0.28038l-0.06034,-0.01877c-0.00036,0.00741 -0.00074,0.01483 -0.00114,0.02225l0.04651,0.0338c-0.01765,0.02506 -0.03567,0.05118 -0.05403,0.07829c-0.15247,1.90343 -1.58079,4.36241 -2.74776,6.20794c-0.69678,1.95378 -1.81088,4.51041 -3.14974,5.72501l0.04309,0.03156l-0.1746,0.23845c-0.06063,0.08701 -0.17271,0.12887 -0.27937,0.0957c-0.13184,-0.041 -0.20548,-0.18112 -0.16449,-0.31297c0.00024,-0.00078 0.00048,-0.00157 0.00074,-0.00234l0.1524,-0.47583l0.0081,0.00259l0.00127,-0.02727c0.7864,-1.37793 1.45394,-2.78233 2.2458,-4.14724c0.39595,-0.62093 0.72343,-1.22655 1.01596,-1.82899c0.09545,-0.25391 0.18424,-0.51028 0.26485,-0.76946c0.09276,-0.29615 0.22552,-0.57278 0.3614,-0.84834c-0.15801,0.15618 -0.38234,0.29776 -0.67861,0.40802c-1.26971,0.63121 -2.38204,0.36946 -3.45676,0.2306l-0.09893,0.12186c-0.06204,0.08014 -0.16951,0.11752 -0.27199,0.08565c-0.11514,-0.03581 -0.1859,-0.14722 -0.17466,-0.26269c-0.66774,-0.04242 -1.3287,0.03129 -2.01238,0.47125l-0.36164,0.31813c-0.06342,0.05773 -0.15492,0.08128 -0.24272,0.05398c-0.12269,-0.03816 -0.19499,-0.16216 -0.17137,-0.28545l0.07024,-0.39843l0.07505,0.01323c0.07876,-0.61908 0.32653,-1.03513 0.6841,-1.30162c-0.00839,-0.03646 -0.01735,-0.07374 -0.02688,-0.11168c-1.47349,1.6435 -1.64741,4.06402 -2.79682,5.83864c-0.02848,0.0664 -0.05732,0.13297 -0.08642,0.19988l-0.08418,0.27069c-0.041,0.13184 -0.18112,0.20548 -0.31297,0.16449c-0.13184,-0.041 -0.20548,-0.18112 -0.16449,-0.31297l0.08719,-0.28038l0.00611,0.0019l-0.00177,-0.01465c0.02348,-0.05423 0.04681,-0.1082 0.06997,-0.16202c-0.02371,-0.45242 0.3686,-1.25393 0.47791,-1.60096c0.19806,-0.62883 0.51552,-1.42507 0.91087,-2.20492c0.25107,-0.6692 0.50013,-1.34287 0.71539,-2.01016l-0.06764,0.04522c-0.06084,0.04139 -0.13929,0.05566 -0.215,0.03211c-0.13184,-0.041 -0.20548,-0.18112 -0.16449,-0.31297c0.01247,-0.04009 0.03411,-0.07481 0.06188,-0.10255l0.29969,-0.31208l0.01082,0.01039c0.07994,-0.13858 0.16692,-0.27257 0.26527,-0.39831c0.0042,-0.00537 0.00874,-0.01097 0.01357,-0.01681c-0.18811,-0.21203 -0.37856,-0.42005 -0.57415,-0.61455c-0.00442,0.00191 -0.00883,0.00387 -0.01327,0.00588c-0.04218,0.01916 -0.08362,0.04292 -0.12442,0.07049c-0.3109,0.48956 -0.61982,0.96795 -0.99551,1.40031l0.05006,0.03278l-0.2709,0.41367c-0.05867,0.09421 -0.17547,0.14088 -0.28641,0.10638c-0.07719,-0.02401 -0.13444,-0.08199 -0.16039,-0.15239c-0.13024,-0.042 -0.20268,-0.18116 -0.16194,-0.31216l0.11626,-0.37384l0.07428,0.0231c0.12292,-0.66987 0.44244,-1.09035 0.84946,-1.29877c0.12492,-0.13872 0.25705,-0.2712 0.39208,-0.39141c-0.04299,-0.03393 -0.0863,-0.06692 -0.12997,-0.09889c-0.13069,-0.25231 -0.17698,-0.55214 -0.16617,-0.83606l0.00353,-0.00959l-0.00236,-0.00032l0.06732,-0.49069c0.00179,-0.01498 0.00495,-0.03 0.00959,-0.04493c0.041,-0.13184 0.18112,-0.20548 0.31297,-0.16449c0.11982,0.03726 0.19157,0.1564 0.17288,0.27677l-0.04549,0.3316c0.03642,0.06832 0.07404,0.13256 0.11282,0.193c0.06192,-0.04602 0.14422,-0.06284 0.22353,-0.03817l0.37384,0.11626l-0.0043,0.0138l0.04158,0.00116c0.19269,0.13584 0.36733,0.28589 0.53096,0.44302c0.15839,0.09465 0.29068,0.2183 0.35546,0.36557c0.04135,0.04483 0.08229,0.08979 0.12294,0.13473c0.74161,0.18224 1.52668,0.29697 2.15282,1.1111c0.08197,0.10659 0.1178,0.21759 0.11989,0.32969zM248.20086,176.53511c-0.01686,-0.00013 -0.03372,-0.00034 -0.05057,-0.00063c0.01897,0.01021 0.03146,0.01436 0.03645,0.01083c0.00474,-0.00336 0.00945,-0.00676 0.01411,-0.01021zM251.13751,175.50673c0.03587,-0.08515 0.07197,-0.17055 0.10836,-0.25625c-0.10055,0.11303 -0.20305,0.21914 -0.30731,0.31601c0.01691,0.06357 0.0282,0.12093 0.03438,0.17256c0.00405,-0.00987 0.00807,-0.01977 0.01206,-0.02968c0.02396,-0.05957 0.08726,-0.1321 0.15251,-0.20265zM250.26863,176.11014c-0.04116,-0.00987 -0.08268,-0.02077 -0.12413,-0.03224c-0.09243,0.03128 -0.1857,0.05233 -0.27966,0.0618c-0.00249,0.00025 -0.00499,0.00049 -0.0075,0.00071l0.04291,0.01334c0.05577,0.01734 0.10112,0.05242 0.13179,0.09709c0.09271,-0.04585 0.17138,-0.09307 0.23661,-0.1407zM249.35252,175.54918c0.00127,0.00038 0.00255,0.00075 0.00383,0.00113c0.1411,-0.00187 0.28714,0.00706 0.42575,0.0213c0.087,-0.04969 0.17869,-0.10542 0.27302,-0.16369c-0.10244,-0.01769 -0.22069,-0.02582 -0.35346,-0.02234c-0.13597,0.00357 -0.2491,0.06554 -0.34915,0.16359zM245.03432,175.94224c-0.02694,-0.00729 -0.05369,-0.0149 -0.08021,-0.02278c-0.02188,0.03559 -0.04334,0.07228 -0.06454,0.10979l0.12477,-0.06558c0.00674,-0.00718 0.01341,-0.01433 0.01997,-0.02142zM248.60015,176.7381c0.21275,-0.03038 0.43019,-0.08024 0.6535,-0.15596c-0.06557,0.00168 -0.13015,-0.00061 -0.19186,-0.00832c-0.05375,0.05861 -0.13372,0.0894 -0.21501,0.07929l-0.16797,-0.01755c-0.02535,0.03574 -0.05152,0.07006 -0.07867,0.10254zM243.55227,175.46262c0.04133,-0.04373 0.08288,-0.08612 0.12463,-0.12703c-0.02254,-0.02516 -0.04506,-0.05043 -0.06756,-0.07579c-0.01808,0.06695 -0.03715,0.13458 -0.05707,0.20282zM244.72331,176.60801c0.00221,-0.00051 0.00443,-0.00101 0.00664,-0.00151c-0.0017,-0.00042 -0.0034,-0.00087 -0.0051,-0.00133zM247.76021,176.77024c-0.12517,-0.10184 -0.26585,-0.20856 -0.3872,-0.27192c-0.12816,0.07562 -0.25295,0.13903 -0.37464,0.19106c0.25049,0.03588 0.50361,0.06725 0.76182,0.08086zM244.49167,175.01728c-0.00261,0.04684 -0.00824,0.09729 -0.01709,0.15157c0.07323,0.01088 0.14783,0.02369 0.22315,0.03854c-0.06878,-0.06252 -0.1374,-0.12603 -0.20606,-0.19011zM244.56319,175.89529c0.00316,0.00364 0.00633,0.00729 0.00949,0.01093c0.00686,-0.01224 0.01392,-0.02445 0.02115,-0.03663c-0.01012,0.0074 -0.02033,0.01599 -0.03065,0.02571zM243.98958,176.87625c0.04492,-0.02293 0.08965,-0.04453 0.13418,-0.06482c-0.00617,-0.02195 -0.00938,-0.04487 -0.0093,-0.06815l-0.00184,-0.0911c-0.0402,0.07606 -0.08123,0.15171 -0.12303,0.22408z" fill="#000000" fill-rule="nonzero" stroke="none" stroke-width="0.5" stroke-linecap="butt" stroke-linejoin="miter"/><path d="M273.62733,182.19201c0.10601,-0.05799 0.21415,-0.1242 0.32246,-0.19687c-0.09661,0.04216 -0.18418,0.08249 -0.2591,0.12078c-0.02129,0.02537 -0.04241,0.05073 -0.06336,0.07609zM275.35952,181.39138c-0.65168,0.76708 -1.60847,1.52876 -2.26651,1.51216c-0.02738,0.03164 -0.05455,0.06301 -0.08152,0.09413c-1.0172,1.44499 -1.58078,2.89165 -2.06171,4.49309c-0.04283,0.96517 -0.02658,1.98537 -0.55314,2.73266l0.07095,0.051l-0.17728,0.24663c-0.06034,0.08822 -0.17321,0.13088 -0.2806,0.09748c-0.0953,-0.02963 -0.16018,-0.11105 -0.17336,-0.20371l-0.06979,-0.42662l0.01555,-0.00254l-0.0186,-0.04847c0.33028,-1.39372 0.65193,-2.66857 1.09343,-3.87261c0.26299,-1.16752 0.6599,-2.15101 1.66175,-3.23675c0.25858,-0.36976 0.54364,-0.73668 0.85988,-1.10252c0.17608,-0.09469 0.46368,-0.21082 0.77722,-0.33713c-0.48687,0.1116 -1.01094,-0.15245 -1.49886,-0.46875c-0.35571,-0.00081 -0.67214,-0.03897 -0.92667,-0.11812c-0.28019,-0.08713 -0.5796,-0.2258 -0.88467,-0.36839c-0.07688,0.21494 -0.11437,0.55148 -0.10357,1.04893c0.00887,0.40835 -0.06234,0.73478 0.05249,1.13273c0.12708,1.73447 -1.29319,6.69322 -3.09594,7.83814l0.05521,0.10506l-0.24505,0.12879v0v0c-0.05663,0.02976 -0.12462,0.03792 -0.19055,0.01742c-0.13184,-0.041 -0.20548,-0.18112 -0.16449,-0.31297l0.11626,-0.37384c0.19574,-0.62213 0.29158,-1.26715 0.48784,-1.89826c0.56734,-1.76396 1.83158,-3.46518 2.17331,-5.32958c0.07814,-0.42631 0.0074,-0.85628 -0.03048,-1.28361c-0.07759,0.07984 -0.15629,0.15816 -0.23489,0.23432c-0.32676,0.72745 -0.79339,1.63172 -1.30587,2.44875c-0.23128,0.66895 -0.51778,1.25324 -0.9393,1.61299c-0.51037,0.4138 -2.81244,4.31377 -3.27085,3.6421c-0.29813,-0.43682 1.68353,-3.00511 1.85998,-3.47182c0.17222,-0.24159 0.35987,-0.50555 0.5537,-0.7869c0.17664,-0.91541 0.3925,-2.27097 0.6856,-2.50832c0.30925,-0.25043 0.6862,-0.38184 1.0636,-0.56242c0.27108,-0.66526 0.45341,-1.33548 0.47857,-1.97339c-0.19006,-0.15465 -0.33948,-0.4639 -0.36833,-0.99059c-0.05079,-0.02143 -0.10254,-0.04177 -0.15533,-0.06099l-0.02552,-0.09467l-0.03582,0.01883l-0.12879,-0.24505c-0.02976,-0.05663 -0.03792,-0.12462 -0.01742,-0.19055c0.041,-0.13184 0.18112,-0.20548 0.31297,-0.16449l0.28038,0.08719l-0.00565,0.01816c0.01231,-0.00073 0.02529,-0.00075 0.03899,0.00003c0.05232,0.00296 0.09306,0.01627 0.12477,0.03546c2.14456,0.34201 3.63763,1.9405 6.31721,1.16674c0.08603,-0.00175 0.16746,-0.0059 0.24463,-0.01231c0.24943,-0.42027 0.50358,-0.89293 0.82538,-1.03432c0.41505,-0.18237 0.79492,-0.30349 1.13707,-0.36693c0.03784,-0.03968 0.07755,-0.07896 0.1196,-0.11767c-0.02898,-0.26445 0.06274,-0.45818 0.36194,-0.50514c0.08431,-0.01323 0.1601,-0.00399 0.22816,0.02467l0.05906,-0.08216c0.06034,-0.08822 0.17321,-0.13088 0.2806,-0.09748c0.13184,0.041 0.20548,0.18112 0.16449,0.31297l-0.08719,0.28038l-0.08054,-0.02504l-0.00653,0.0091c0.02924,0.07034 0.05522,0.14777 0.07826,0.23104c0.93415,0.29937 1.25825,1.39014 0.82619,3.06694c-0.24884,0.81898 -0.51565,1.62764 -0.79027,2.43239c-0.14617,2.05162 -0.54955,4.49503 -1.78995,5.66912l0.07376,0.0857l-0.37568,0.32336c-0.06333,0.05635 -0.15377,0.07907 -0.24061,0.05206c-0.13184,-0.041 -0.20548,-0.18112 -0.16449,-0.31297l0.08719,-0.28038c0.53591,-1.72325 1.14245,-3.39842 1.72562,-5.0838c0.15484,-0.78086 0.25714,-1.58158 0.26876,-2.4155c-0.01445,-0.29041 -0.16505,-1.66844 -0.21996,-2.66071c-0.06037,-0.0392 -0.1223,-0.07412 -0.1857,-0.10361c-0.37096,0.35032 -0.85308,0.66008 -1.38789,0.91985c-0.049,0.35417 -0.08905,0.73169 -0.25484,0.91981c-0.13257,0.15043 -0.37754,0.29878 -0.66616,0.44086zM270.30061,183.31151c-0.4626,1.71218 -1.61567,3.44215 -2.06538,4.95591c-0.10324,0.332 -0.17941,0.6659 -0.25633,0.99878c0.24812,-0.34163 0.51904,-0.66702 0.59621,-0.81121c0.6595,-1.23218 1.60377,-3.53519 1.72551,-5.14348zM269.15038,181.47822c0.20406,-0.33604 0.36058,-0.63844 0.43622,-0.8879l0.06492,-0.20875c-0.20002,0.30283 -0.36022,0.68038 -0.50114,1.09666zM267.5015,183.72553c0.14324,-0.24412 0.28164,-0.49354 0.41124,-0.74614c-0.23936,0.08955 -0.45127,0.16554 -0.45037,0.17011c0.03773,0.19049 0.04846,0.38271 0.03912,0.57603zM270.26823,180.17174c-0.02882,-0.01209 -0.05761,-0.02395 -0.08636,-0.03555c-0.01891,-0.00491 -0.03772,-0.00987 -0.05643,-0.01492c0.02158,0.02346 0.03847,0.05082 0.04977,0.08045l0.02834,0.07236c0.01859,-0.03031 0.04071,-0.0651 0.06468,-0.10235zM274.4513,181.26855c0.21498,-0.08794 0.42976,-0.17888 0.61869,-0.26941c0.14954,-0.17617 0.27462,-0.35171 0.36304,-0.51567c-0.15232,0.21691 -0.3291,0.37618 -0.56939,0.3956c-0.13117,0.17719 -0.26933,0.30396 -0.41234,0.38947zM278.6191,180.37724c-0.00997,0.70019 -0.05487,1.30951 -0.04512,1.48974c-0.00102,0.04386 -0.00209,0.08849 -0.0032,0.13386c0.0773,-0.2429 0.15326,-0.48655 0.22762,-0.7311c0.03562,-0.1366 0.06694,-0.26789 0.09386,-0.3938c-0.00316,-0.00085 -0.00632,-0.00176 -0.00948,-0.00275c-0.08418,-0.02618 -0.14463,-0.09277 -0.16666,-0.1718l-0.09356,-0.31758c-0.00109,-0.00212 -0.00224,-0.00431 -0.00346,-0.00658zM273.89175,180.80079c0.15792,0.0061 0.30549,-0.02017 0.43829,-0.08988c-0.14734,0.03395 -0.29375,0.06395 -0.43829,0.08988zM273.87918,180.40054c-0.33591,0.02135 -0.707,0.03227 -1.09269,0.02875c0.03408,0.01755 0.06812,0.03478 0.10208,0.05164c0.32442,0.00757 0.65826,-0.02066 0.99061,-0.08037zM275.95966,179.56979c-0.00373,0.00574 -0.00743,0.01151 -0.01112,0.01731c0.00305,-0.00199 0.0061,-0.00399 0.00914,-0.00599c0.00065,-0.00378 0.00132,-0.00755 0.00198,-0.01132zM278.57037,178.99611c0.12354,0.06778 0.23477,0.14693 0.32958,0.2372c-0.07635,-0.17628 -0.19185,-0.30799 -0.3485,-0.39423c0.0069,0.05144 0.0132,0.10384 0.01892,0.15703z" fill="#000000" fill-rule="nonzero" stroke="none" stroke-width="0.5" stroke-linecap="butt" stroke-linejoin="miter"/></g><path d="M252.12613,197.69647c-1.05004,3.37644 -3.26982,5.68798 -4.95805,5.16296c-1.68822,-0.52502 -2.20557,-3.68777 -1.15553,-7.06421c1.05004,-3.37644 3.26982,-5.68798 4.95805,-5.16296c1.68822,0.52502 2.20557,3.68777 1.15553,7.06421z" fill="#000000" fill-rule="nonzero" stroke="#001026" stroke-width="1.2" stroke-linecap="butt" stroke-linejoin="miter"/></g></g></g></g></svg>