<svg version="1.1" xmlns="http://www.w3.org/2000/svg" xmlns:xlink="http://www.w3.org/1999/xlink" width="86.18426" height="104.10027" viewBox="0,0,86.18426,104.10027"><defs><linearGradient x1="255.85303" y1="203.63256" x2="252.16503" y2="221.86327" gradientUnits="userSpaceOnUse" id="color-1"><stop offset="0" stop-color="#ffffff"/><stop offset="1" stop-color="#9f9f9f"/></linearGradient><radialGradient cx="254.03602" cy="161.03045" r="8.13758" gradientUnits="userSpaceOnUse" id="color-2"><stop offset="0" stop-color="#ffffff"/><stop offset="1" stop-color="#1a1a1a"/></radialGradient><radialGradient cx="234.49607" cy="171.37695" r="6.75889" gradientUnits="userSpaceOnUse" id="color-3"><stop offset="0" stop-color="#ffffff"/><stop offset="1" stop-color="#1a1a1a"/></radialGradient></defs><g transform="translate(-198.64703,-136.6246)"><g data-paper-data="{&quot;isPaintingLayer&quot;:true}" stroke-miterlimit="10" stroke-dasharray="" stroke-dashoffset="0" style="mix-blend-mode: normal"><path d="M239.8848,198.18521c0.76957,2.08272 2.78496,10.23982 5.40963,10.9889c2.50537,0.67312 8.90571,-2.79614 10.35794,1.90076c1.43059,4.59929 -4.89333,6.10535 -10.49006,5.81108c-7.24539,-0.33808 -12.68787,-10.09048 -10.21302,-17.40041c0.96598,-2.57038 4.14425,-3.48068 4.9355,-1.30032z" data-paper-data="{&quot;index&quot;:null}" fill="#717171" fill-rule="evenodd" stroke="#001026" stroke-width="1.2" stroke-linecap="round" stroke-linejoin="round"/><g fill-rule="nonzero" stroke="#001026" stroke-width="1.2" stroke-linejoin="miter"><g><g><path d="M253.27244,208.82396l2.14142,-10.58558l2.54838,0.51552l-2.14142,10.58558z" fill="#2c2c2c" stroke-linecap="butt"/><path d="M251.13978,220.20203l2.34112,0.52834l-3.84334,14.30485z" fill="#6c6c6c" stroke-linecap="butt"/><path d="M248.53849,221.12964l3.68799,-18.2307l7.25307,1.46726l-3.68799,18.23071z" fill="url(#color-1)" stroke-linecap="butt"/><path d="M251.71096,205.44731l3.48888,0.90983" fill="none" stroke-linecap="round"/><path d="M254.52567,209.68964l-3.0968,-0.83052" fill="none" stroke-linecap="round"/><path d="M250.75696,211.17181l2.66509,0.94724" fill="none" stroke-linecap="round"/><path d="M250.39556,214.97567l2.15632,0.43622" fill="none" stroke-linecap="round"/><path d="M252.23014,219.01972l-2.82147,-1.18292" fill="none" stroke-linecap="round"/></g><path d="M252.66719,198.70301l0.55518,-2.74441l7.44911,1.50692l-0.55519,2.74442z" fill="#2c2c2c" stroke-linecap="butt"/></g><path d="M252.89347,211.70603c-0.58039,2.869 -2.32347,4.93733 -3.89329,4.61976c-1.56983,-0.31756 -2.37193,-2.90079 -1.79155,-5.76977c0.58039,-2.869 2.32348,-4.93733 3.8933,-4.61976c1.56983,0.31756 2.37193,2.90079 1.79154,5.76978z" fill="#717171" stroke-linecap="butt"/><path d="M263.08922,212.74834c-0.88701,4.38468 -3.84409,7.48644 -6.60482,6.92796c-2.76073,-0.55848 -4.27968,-4.56571 -3.39268,-8.9504c0.88701,-4.38468 3.84408,-7.48644 6.60481,-6.92796c2.76073,0.55848 4.27968,4.56571 3.39269,8.9504z" fill="#717171" stroke-linecap="butt"/></g><g fill-rule="evenodd"><path d="M228.45892,209.55612c0.76872,0.63957 3.67304,1.18273 0.7766,4.13242c-3.01684,2.87553 -11.19965,7.80115 -21.68518,2.17323c-11.32843,-6.14708 -9.07208,-18.70928 -4.88382,-20.11588c4.09097,-1.38346 4.05566,5.81993 8.87528,12.69171c6.89369,9.97634 16.1484,0.47893 16.91711,1.11851z" fill="#717171" stroke="#001026" stroke-width="1.2" stroke-linecap="round" stroke-linejoin="round"/><path d="M206.59305,200.15752c1.50387,4.16514 3.17046,6.85261 3.17046,6.85261c0,0 -2.0191,-1.57581 -4.26156,-0.63169c-2.70579,1.15702 -3.02644,3.70009 -2.96187,4.40425c-1.07413,-1.49207 -2.14346,-3.39642 -2.78132,-6.94509c-0.32287,-3.52076 0.98506,-7.5319 3.50981,-7.72083c2.03829,-0.07331 2.31097,1.50645 3.32447,4.04078z" fill="#ffffff" stroke="none" stroke-width="1" stroke-linecap="butt" stroke-linejoin="miter"/></g><path d="M248.3198,236.3753c0,3.86599 -11.83333,3 -11.83333,3c0,0 -10.5,0.86599 -10.5,-3c0,-3.45051 2.7452,-32.89294 7.69909,-34.5825c3.83539,-1.30808 4.43187,28.24917 5.13424,28.24917c6.53537,0 9.5,2.46734 9.5,6.33333z" fill="#717171" fill-rule="nonzero" stroke="#001026" stroke-width="1.2" stroke-linecap="butt" stroke-linejoin="miter"/><path d="M242.3198,237.04197c0,3.86599 -11.83333,3 -11.83333,3c0,0 -10.5,0.86599 -10.5,-3c0,-3.45051 2.7452,-32.89294 7.69909,-34.58249c3.83539,-1.30808 4.43187,28.24916 5.13424,28.24916c6.53537,0 9.5,2.46734 9.5,6.33333z" fill="#717171" fill-rule="nonzero" stroke="#001026" stroke-width="1.2" stroke-linecap="butt" stroke-linejoin="miter"/><g fill-rule="evenodd"><path d="M230.4734,217.08111c-8.99395,1.87204 -8.34436,-7.04994 -9.93883,-16.35572c-0.89573,-5.02071 -0.20002,-11.51523 5.2578,-14.2815c2.98147,-1.70903 5.7283,3.98607 7.39565,2.54733c2.53194,-2.11879 5.02791,2.02488 5.86613,4.54627c0,0 1.18711,3.77369 1.33998,6.07078c0.2262,2.87556 0.29522,5.87478 -0.09155,7.32405c0,0 -0.14061,8.13215 -9.82917,10.14877z" fill="#717171" stroke="#001026" stroke-width="1.2" stroke-linecap="round" stroke-linejoin="round"/><path d="M239.63606,207.33305c0,0 -1.92087,-0.01583 -4.10582,-0.20562c-2.68482,-0.17829 -5.18415,-0.12078 -5.52872,-3.79383c-0.06902,-2.9992 -0.7112,-6.56538 4.61865,-7.06811c5.049,-0.53628 5.10123,2.60335 5.10123,2.60335c1.05291,4.89707 -0.08533,8.46423 -0.08533,8.46423z" fill="#ffffff" stroke="none" stroke-width="1" stroke-linecap="butt" stroke-linejoin="miter"/></g><g><g><path d="M240.22348,136.98379c0.21585,-0.28881 0.72051,-0.36176 0.94851,-0.01822l6.02832,9.21463c0,0 7.60322,2.28933 10.49734,4.76402c4.85495,4.11333 6.45396,8.32084 6.45396,8.32084c0,0 7.39351,-0.39507 10.43046,4.57553c3.03695,4.97061 2.50169,16.62021 -13.97882,26.39379c-16.48051,9.77358 -32.41666,10.01649 -42.92002,1.64692c-10.50335,-8.36956 -4.49582,-24.93186 -4.79378,-23.97728l-7.96473,-16.16735c-0.228,-0.34353 0.1429,-0.79347 0.58675,-0.73873l14.04515,3.39908c0,0 3.67248,-3.1069 8.03505,-4.86703c2.57194,-1.12479 4.90066,-1.73884 7.20201,-2.13097z" fill="#717171" fill-rule="evenodd" stroke="#001026" stroke-width="1.2" stroke-linecap="butt" stroke-linejoin="miter"/><path d="M257.30586,160.68054c1.36202,3.83863 -3.28282,8.99028 -10.37452,11.50654c-7.0917,2.51626 -13.94479,1.44427 -15.3068,-2.39436c-1.36202,-3.83863 3.28282,-8.99028 10.37452,-11.50654c7.0917,-2.51626 13.94479,-1.44427 15.3068,2.39436z" fill="#000000" fill-rule="nonzero" stroke="none" stroke-width="NaN" stroke-linecap="butt" stroke-linejoin="miter"/><path d="M264.00264,159.74234c0,0 7.1047,-0.61092 10.14165,4.35968c3.03695,4.97061 1.95751,16.28276 -14.36795,25.89521c-21.13494,12.80446 -36.78818,3.07892 -34.01843,-9.15131c2.73631,-12.32447 16.61727,-7.59383 24.33308,-10.96819c6.61833,-2.87884 5.26561,-9.08369 13.91164,-10.1354z" fill="#ffffff" fill-rule="evenodd" stroke="none" stroke-width="1" stroke-linecap="butt" stroke-linejoin="miter"/><path d="M281.71126,154.6262c-3.15875,5.15289 -9.91084,7.65476 -9.91084,7.65476" fill="none" fill-rule="evenodd" stroke="#001026" stroke-width="1.2" stroke-linecap="round" stroke-linejoin="round"/><path d="M284.23129,165.61617c-5.77014,2.57788 -10.08097,2.09139 -10.08097,2.09139" fill="none" fill-rule="evenodd" stroke="#001026" stroke-width="1.2" stroke-linecap="round" stroke-linejoin="round"/><path d="M248.8446,167.56117c1.97911,-0.70222 4.11935,-1.2494 4.44766,-0.62313c0.56239,1.28596 0.08504,4.42637 -1.38941,5.05564c-1.6295,0.79039 -6.42371,-0.16124 -6.95873,-1.66914c-0.49551,-1.09748 2.01562,-2.09458 3.90048,-2.76337z" fill="#001026" fill-rule="evenodd" stroke="#001026" stroke-width="1.2" stroke-linecap="round" stroke-linejoin="round"/><path d="M205.93349,181.19517c0,0 9.04123,-0.23696 13.37637,1.51422" fill="none" fill-rule="evenodd" stroke="#001026" stroke-width="1.2" stroke-linecap="round" stroke-linejoin="round"/><path d="M220.76296,185.90758c-3.484,3.04003 -10.82584,4.47785 -10.82584,4.47785" fill="none" fill-rule="evenodd" stroke="#001026" stroke-width="1.2" stroke-linecap="round" stroke-linejoin="round"/><path d="M258.81563,156.04602c4.23782,3.27122 3.27478,4.58703 1.23787,7.2197c-2.03691,2.63268 -7.07433,2.19177 -11.4064,-1.046c-2.19709,-1.6859 -6.07628,-5.20618 -4.59263,-5.1666c16.86931,0.45004 13.31423,-1.92593 14.14573,-1.39718c0.20513,0.13045 0.422,0.24076 0.61542,0.39007z" fill="url(#color-2)" fill-rule="evenodd" stroke="#001026" stroke-width="1.2" stroke-linecap="round" stroke-linejoin="round"/><path d="M233.61687,163.5206c4.29863,3.14354 5.91585,8.29956 4.00663,10.99304c-2.47469,2.89412 -7.08954,3.04603 -11.38817,-0.09749c8.11531,-3.45216 3.08291,-14.03907 7.38154,-10.89555z" fill="url(#color-3)" fill-rule="evenodd" stroke="#001026" stroke-width="1.2" stroke-linecap="round" stroke-linejoin="round"/><path d="M253.36095,181.71028c0.90031,2.5374 -8.00203,18.75152 -14.37806,21.01385c-6.37603,2.26233 -7.81126,-10.28384 -8.71157,-12.82124c-0.90031,-2.5374 2.23127,-0.39379 8.6073,-2.65612c6.37603,-2.26233 13.58201,-8.07389 14.48233,-5.53649z" fill="#000000" fill-rule="nonzero" stroke="#001026" stroke-width="1.2" stroke-linecap="butt" stroke-linejoin="miter"/></g><path d="M234.68799,176.04246c0.02486,0.01713 0.04983,0.03815 0.07483,0.06336c0.11858,-0.06978 0.23802,-0.15197 0.35853,-0.24822c0.11084,-0.04013 0.22271,-0.07981 0.33495,-0.11973c0.36742,-0.30013 0.70976,-0.59979 0.89722,-0.72367c0.20669,-0.18218 0.45839,-0.29682 0.70841,-0.39092c-0.02819,-0.36463 0.04202,-0.70819 0.45378,-0.96894c0.23245,-0.1472 0.45864,-0.22515 0.66316,-0.24445c0.05644,-0.1341 0.11506,-0.26301 0.17685,-0.37805c0.07134,-1.12461 -0.1817,-2.64748 -0.18865,-3.21848l-0.08793,-0.24783c-0.04617,-0.13012 0.02189,-0.27304 0.15201,-0.3192c0.13012,-0.04617 0.27304,0.02189 0.3192,0.15201l0.09818,0.27672l-0.05955,0.02113c0.00416,0.00615 0.0083,0.01231 0.01243,0.0185l0.05748,-0.00081c0.00088,0.03064 0.0021,0.06235 0.00366,0.09506c1.01842,1.61529 1.34823,4.4398 1.51973,6.61658c0.61279,1.98172 1.25269,4.69616 0.90853,6.4708l0.05341,-0.00055l0.00307,0.29552c0.00359,0.10599 -0.06106,0.20666 -0.16633,0.24401c-0.13012,0.04617 -0.27304,-0.02189 -0.3192,-0.15201c-0.00027,-0.00078 -0.00055,-0.00154 -0.00081,-0.00233l-0.1631,-0.47228l0.00803,-0.00278l-0.01533,-0.02259c-0.19602,-1.57439 -0.50304,-3.09875 -0.68689,-4.66599c-0.05505,-0.73437 -0.15573,-1.41546 -0.28249,-2.07306c-0.07571,-0.26048 -0.15824,-0.51893 -0.249,-0.77474c-0.10318,-0.29267 -0.16264,-0.5937 -0.21896,-0.89574c-0.03292,0.21972 -0.12769,0.46748 -0.29884,0.73327c-0.63835,1.26614 -1.68574,1.72305 -2.62938,2.25582l-0.0062,0.15684c-0.00166,0.10134 -0.0653,0.19566 -0.16643,0.23155c-0.11364,0.04032 -0.23704,-0.00647 -0.29723,-0.10566c-0.56002,0.36612 -1.04504,0.82118 -1.32879,1.58306l-0.09892,0.47139c-0.01618,0.08422 -0.07532,0.1579 -0.16199,0.18865c-0.1211,0.04297 -0.25328,-0.013 -0.30824,-0.12585l-0.1825,-0.36108l0.06802,-0.03437c-0.30789,-0.54284 -0.35879,-1.02439 -0.2322,-1.452c-0.02856,-0.02417 -0.05807,-0.04864 -0.08843,-0.07331c-0.19496,2.19869 1.1161,4.24082 1.25916,6.35031c0.01698,0.07023 0.03378,0.1408 0.05057,0.2118l0.09479,0.26716c0.04617,0.13012 -0.02189,0.27304 -0.15201,0.3192c-0.13012,0.04617 -0.27304,-0.02189 -0.3192,-0.15201l-0.09818,-0.27672l0.00604,-0.00214l-0.01019,-0.01067c-0.0137,-0.05747 -0.02735,-0.11467 -0.04106,-0.17164c-0.29006,-0.34801 -0.45621,-1.22478 -0.57663,-1.56811c-0.2182,-0.62213 -0.44113,-1.44983 -0.59187,-2.31108c-0.19995,-0.6862 -0.4042,-1.3748 -0.63168,-2.03801l-0.02706,0.07672c-0.0239,0.06959 -0.07817,0.12802 -0.1529,0.15453c-0.13012,0.04617 -0.27304,-0.02189 -0.3192,-0.15201c-0.01404,-0.03957 -0.01751,-0.08033 -0.01189,-0.11918l0.05295,-0.42943l0.01489,0.00184c-0.01903,-0.15885 -0.02967,-0.31823 -0.02628,-0.47784c0.00014,-0.00681 0.00041,-0.01402 0.00079,-0.02159c-0.27765,-0.05705 -0.55476,-0.10948 -0.8279,-0.14801c-0.00239,0.00418 -0.00475,0.00839 -0.00709,0.01267c-0.0223,0.04061 -0.04123,0.08445 -0.05738,0.13099c0.04441,0.57823 0.08372,1.14633 0.042,1.7176l0.05972,-0.00375l0.03097,0.49351c0.00948,0.11058 -0.05608,0.21793 -0.16557,0.25677c-0.07618,0.02703 -0.15676,0.0149 -0.21972,-0.02591c-0.12944,0.04441 -0.27081,-0.0236 -0.31669,-0.1529l-0.13092,-0.36896l0.07331,-0.02601c-0.30295,-0.60995 -0.29909,-1.13806 -0.09809,-1.54879c0.01689,-0.18591 0.04331,-0.37113 0.07938,-0.5483c-0.05475,-0.00141 -0.10919,-0.00187 -0.16331,-0.00129c-0.25581,-0.12369 -0.47252,-0.336 -0.63399,-0.5698l-0.00292,-0.00979l-0.00208,0.00115l-0.24011,-0.4332c-0.00755,-0.01306 -0.01401,-0.02699 -0.01924,-0.04172c-0.04617,-0.13012 0.02189,-0.27304 0.15201,-0.3192c0.11826,-0.04195 0.24708,0.01043 0.30424,0.11801l0.16226,0.29274c0.07009,0.03287 0.13871,0.06176 0.20596,0.08692c0.022,-0.07395 0.07782,-0.13672 0.15608,-0.16449l0.36896,-0.13092l0.00483,0.01362l0.03399,-0.02397c0.23566,-0.0067 0.46539,0.0088 0.69054,0.03655c0.18352,-0.01913 0.36352,0.0006 0.50362,0.0797c0.05997,0.01111 0.11968,0.02259 0.17915,0.03421c0.70294,-0.29845 1.40023,-0.67699 2.38933,-0.40034c0.1295,0.03622 0.22469,0.10363 0.29352,0.19212zM237.16067,175.94836c-0.01358,0.01 -0.0272,0.01993 -0.04086,0.02978c0.0213,-0.0032 0.03379,-0.00736 0.03568,-0.01317c0.00179,-0.00553 0.00351,-0.01107 0.00517,-0.01663zM238.89564,173.36545c-0.0223,-0.08966 -0.04457,-0.17967 -0.06678,-0.27009c-0.01277,0.15074 -0.03127,0.29711 -0.05669,0.43713c0.05163,0.04076 0.09503,0.07992 0.13092,0.11756c-0.00267,-0.01033 -0.00539,-0.02067 -0.00813,-0.03098c-0.01651,-0.06205 -0.00928,-0.15805 0.00068,-0.25362zM238.56153,174.36918c-0.03888,0.01675 -0.07864,0.03291 -0.1187,0.04856c-0.05526,0.08042 -0.11732,0.15316 -0.18688,0.21705c-0.00184,0.00169 -0.00371,0.00338 -0.00558,0.00505l0.04235,-0.01502c0.05504,-0.01953 0.11236,-0.01863 0.16368,-0.00123c0.04676,-0.09226 0.08145,-0.17719 0.10513,-0.25441zM237.49198,174.46896c0.00125,-0.00046 0.00249,-0.00093 0.00374,-0.00139c0.11185,-0.08603 0.23413,-0.16639 0.35363,-0.23804c0.03988,-0.0919 0.07991,-0.19147 0.12051,-0.29464c-0.09261,0.04721 -0.19216,0.11156 -0.29636,0.19389c-0.10672,0.08433 -0.16016,0.20173 -0.18152,0.34018zM234.27024,177.371c-0.02593,0.0103 -0.05192,0.02024 -0.07788,0.02981c0.0038,0.0416 0.00861,0.08383 0.01412,0.12657l0.06061,-0.12727c0.0011,-0.00979 0.00215,-0.0195 0.00316,-0.02911zM237.60197,175.87163c0.15213,-0.1518 0.29634,-0.32201 0.42976,-0.51642c-0.05149,0.04062 -0.10457,0.07748 -0.15859,0.1083c-0.00792,0.07913 -0.05349,0.15169 -0.12463,0.1923l-0.145,0.08659c0.00113,0.0438 0.00073,0.08696 -0.00154,0.12922zM232.79631,177.87501c0.00688,-0.05977 0.01475,-0.1186 0.02367,-0.17638c-0.03312,-0.00665 -0.06629,-0.01338 -0.09951,-0.0202c0.02563,0.06443 0.0509,0.13001 0.07583,0.19658zM234.42016,178.09039c0.00147,-0.00173 0.00294,-0.00346 0.00441,-0.00519c-0.00162,0.00068 -0.00324,0.00134 -0.00487,0.00199zM236.94876,176.40064c-0.16124,-0.00654 -0.33781,-0.00769 -0.47293,0.0143c-0.0573,0.13733 -0.11922,0.26287 -0.18547,0.37744c0.22204,-0.12136 0.4435,-0.24792 0.65838,-0.39173zM233.28157,176.95561c0.02597,0.03906 0.05171,0.08283 0.07714,0.13159c0.06515,-0.03517 0.13255,-0.06961 0.20175,-0.10285c-0.09253,-0.00885 -0.18552,-0.01858 -0.27888,-0.02874zM233.86491,177.6157c0.00471,0.00103 0.00944,0.00204 0.01415,0.00307c-0.00183,-0.01391 -0.00351,-0.02792 -0.00501,-0.04201c-0.00367,0.01199 -0.0067,0.02499 -0.00914,0.03895zM233.99344,178.74476c0.02222,-0.04528 0.04509,-0.08937 0.06859,-0.13229c-0.01809,-0.01388 -0.03439,-0.0303 -0.04828,-0.04898l-0.05606,-0.07183c0.01339,0.08499 0.02587,0.17013 0.03576,0.25312z" fill="#000000" fill-rule="nonzero" stroke="none" stroke-width="0.5" stroke-linecap="butt" stroke-linejoin="miter"/><path d="M260.90706,165.24255c0.05012,-0.10994 0.09704,-0.22775 0.14021,-0.35083c-0.05209,0.09163 -0.09804,0.1764 -0.13507,0.25194c-0.00184,0.03307 -0.00355,0.06603 -0.00514,0.09889zM261.81416,163.56367c-0.06214,1.00462 -0.37179,2.18771 -0.90856,2.56869c-0.00297,0.04174 -0.00592,0.08313 -0.00887,0.1242c0.05141,1.76636 0.46699,3.26226 1.0415,4.83257c0.54402,0.7984 1.16831,1.60546 1.19448,2.51924l0.08736,-0.00168l0.00583,0.30369c0.00455,0.10678 -0.06025,0.20857 -0.16624,0.24618c-0.09406,0.03337 -0.19479,0.00707 -0.26085,-0.05922l-0.3115,-0.29974l0.01093,-0.01136l-0.04394,-0.02766c-0.57066,-1.31374 -1.07698,-2.52713 -1.44494,-3.75564c-0.48899,-1.09232 -0.7605,-2.11754 -0.60894,-3.58708c-0.01453,-0.45097 -0.00615,-0.91554 0.02784,-1.39792c0.08424,-0.1813 0.24491,-0.44662 0.42026,-0.7356c-0.32292,0.38107 -0.90073,0.48367 -1.48088,0.52278c-0.28528,0.21248 -0.56147,0.37153 -0.81269,0.46068c-0.27653,0.09812 -0.59934,0.1665 -0.92901,0.23513c0.06723,0.21815 0.23886,0.51005 0.54557,0.90185c0.25177,0.32163 0.39034,0.62562 0.72072,0.87544c1.14098,1.3125 2.97504,6.13356 2.21773,8.13038l0.10715,0.05102l-0.11902,0.24994v0v0c-0.0275,0.05777 -0.07705,0.10503 -0.14212,0.12812c-0.13012,0.04617 -0.27304,-0.02189 -0.3192,-0.15201l-0.13092,-0.36896c-0.21605,-0.61537 -0.5258,-1.18921 -0.7468,-1.81208c-0.60268,-1.7522 -0.60984,-3.87173 -1.45335,-5.56916c-0.19287,-0.38813 -0.50714,-0.68998 -0.7935,-1.00942c-0.01428,0.11041 -0.03036,0.22027 -0.04766,0.32834c0.17425,0.77819 0.34248,1.78177 0.42172,2.74296c0.21564,0.67415 0.33636,1.31362 0.21444,1.85419c-0.16067,0.63709 0.33301,5.13882 -0.43645,4.87574c-0.50041,-0.1711 -0.45271,-3.41468 -0.59108,-3.89405c-0.00687,-0.29661 -0.0148,-0.62037 -0.02819,-0.96177c-0.40707,-0.83874 -1.04646,-2.05336 -0.95401,-2.419c0.09754,-0.38579 0.3206,-0.71685 0.51456,-1.08757c-0.18157,-0.69504 -0.43717,-1.34089 -0.79926,-1.86668c-0.24483,-0.00993 -0.54974,-0.168 -0.88842,-0.57239c-0.05351,0.01326 -0.10712,0.028 -0.16091,0.04424l-0.07715,-0.0605l-0.0174,0.03654l-0.24994,-0.11902c-0.05777,-0.0275 -0.10503,-0.07705 -0.12812,-0.14212c-0.04617,-0.13012 0.02189,-0.27304 0.15201,-0.3192l0.27672,-0.09818l0.00636,0.01793c0.00942,-0.00796 0.01981,-0.01576 0.03123,-0.02334c0.04367,-0.02898 0.08426,-0.04273 0.12114,-0.04637c1.9219,-1.01114 4.07505,-0.62596 5.75677,-2.85099c0.06784,-0.05294 0.13054,-0.10506 0.18848,-0.15643c-0.05212,-0.48593 -0.13185,-1.01662 0.04108,-1.32265c0.22302,-0.39469 0.4546,-0.71927 0.69051,-0.97507c0.00653,-0.05443 0.01479,-0.10969 0.02526,-0.16588c-0.18165,-0.19435 -0.22429,-0.40442 -0.01289,-0.62129c0.05956,-0.06111 0.12578,-0.09912 0.19745,-0.11697l-0.00194,-0.10116c-0.00455,-0.10678 0.06025,-0.20857 0.16624,-0.24618c0.13012,-0.04617 0.27304,0.02189 0.3192,0.15201l0.09818,0.27672l-0.0795,0.0282l0.00021,0.0112c0.06556,0.0388 0.13274,0.08522 0.20108,0.13808c0.92728,-0.32004 1.84031,0.35906 2.49908,1.96042c0.29148,0.80479 0.5624,1.61209 0.82471,2.42092c1.11226,1.73015 2.25332,3.92809 1.96371,5.61131l0.1104,0.02442l-0.10703,0.48399c-0.01694,0.08306 -0.07573,0.15544 -0.16144,0.18586c-0.13012,0.04617 -0.27304,-0.02189 -0.3192,-0.15201l-0.09818,-0.27672c-0.60346,-1.70077 -1.12157,-3.40537 -1.66451,-5.10413c-0.3439,-0.71795 -0.74177,-1.42032 -1.23213,-2.09494c-0.18558,-0.22385 -1.13183,-1.2369 -1.77033,-1.99843c-0.07183,0.00479 -0.14233,0.01394 -0.21075,0.02831c-0.08709,0.50274 -0.28749,1.03962 -0.56001,1.56804c0.17298,0.31292 0.36711,0.63915 0.3471,0.8891c-0.016,0.19987 -0.12325,0.46543 -0.26918,0.75211zM258.91441,168.13211c0.65553,1.64798 0.7689,3.72392 1.31585,5.20532c0.11626,0.32766 0.25535,0.64063 0.39321,0.95323c-0.00605,-0.42218 0.0159,-0.84503 -0.00871,-1.00669c-0.21028,-1.38166 -0.83417,-3.79128 -1.70035,-5.15185zM256.89505,167.35354c-0.03797,-0.39131 -0.09384,-0.72719 -0.18277,-0.97225l-0.07311,-0.20603c0.02131,0.3623 0.11926,0.76056 0.25586,1.17827zM256.92145,170.14074c-0.03159,-0.28127 -0.07024,-0.5639 -0.11782,-0.84379c-0.13798,0.21511 -0.26211,0.40292 -0.25864,0.40604c0.14435,0.1299 0.26811,0.27737 0.37646,0.43775zM257.00722,165.63774c-0.03032,0.00759 -0.06047,0.01534 -0.09044,0.02328c-0.01807,0.0074 -0.03611,0.01469 -0.05412,0.02186c0.03134,0.00585 0.06125,0.01764 0.08805,0.03459l0.06605,0.04095c-0.00328,-0.0354 -0.00642,-0.07651 -0.00954,-0.1207zM261.01345,164.0095c0.11943,-0.19922 0.2369,-0.40071 0.33391,-0.58639c0.01417,-0.23065 0.00913,-0.44613 -0.01832,-0.63038c0.00802,0.26492 -0.03809,0.49837 -0.21882,0.65788c0.00115,0.22045 -0.03351,0.40472 -0.09677,0.55888zM263.81622,160.79868c0.41156,0.56655 0.74069,1.08129 0.85648,1.21974c0.02546,0.03572 0.05135,0.07211 0.07764,0.10909c-0.08365,-0.24079 -0.16883,-0.48137 -0.25581,-0.72172c-0.05333,-0.13071 -0.10692,-0.25458 -0.16081,-0.37153c-0.00304,0.00122 -0.00612,0.00237 -0.00923,0.00348c-0.08308,0.02948 -0.17137,0.01239 -0.23637,-0.03768l-0.26519,-0.1982c-0.00214,-0.00105 -0.00438,-0.00211 -0.00671,-0.00318zM260.28519,163.97027c0.13009,-0.08973 0.2325,-0.19919 0.29705,-0.33457c-0.09762,0.11546 -0.19687,0.22721 -0.29705,0.33457zM260.0353,163.65735c-0.25613,0.21836 -0.5467,0.44946 -0.8576,0.67772c0.03779,-0.00637 0.07537,-0.01297 0.11266,-0.01983c0.26427,-0.18832 0.51463,-0.41095 0.74494,-0.65789zM261.20322,161.74567c0.00046,0.00683 0.00095,0.01367 0.00147,0.02052c0.00125,-0.00342 0.0025,-0.00685 0.00374,-0.01027c-0.00174,-0.00342 -0.00347,-0.00683 -0.00519,-0.01025zM262.94967,159.72211c0.13951,-0.01975 0.276,-0.02302 0.40599,-0.00757c-0.16676,-0.09539 -0.33814,-0.13163 -0.51523,-0.10682c0.03635,0.03705 0.07279,0.07523 0.10924,0.11439z" fill="#000000" fill-rule="nonzero" stroke="none" stroke-width="0.5" stroke-linecap="butt" stroke-linejoin="miter"/></g><path d="M228.44565,200.84822c-5.56832,3.92936 -13.83598,9.99036 -17.77197,7.71702c-1.74043,-0.95442 -8.28292,-7.38062 -9.49668,-11.51665c-1.22431,-4.45209 4.69945,-8.03524 7.6357,-4.43128c2.1092,2.52413 5.60487,6.77386 5.92093,6.76332c1.1009,-0.19495 4.31927,-3.30814 6.7297,-3.13544" data-paper-data="{&quot;index&quot;:null}" fill="#717171" fill-rule="evenodd" stroke="#001026" stroke-width="1.2" stroke-linecap="round" stroke-linejoin="round"/></g></g></svg>