<svg version="1.1" xmlns="http://www.w3.org/2000/svg" xmlns:xlink="http://www.w3.org/1999/xlink" width="86.54791" height="106.35531" viewBox="0,0,86.54791,106.35531"><defs><linearGradient x1="268.46254" y1="191.58595" x2="258.00326" y2="206.96658" gradientUnits="userSpaceOnUse" id="color-1"><stop offset="0" stop-color="#ffffff"/><stop offset="1" stop-color="#9f9f9f"/></linearGradient></defs><g transform="translate(-201.67889,-134.36956)"><g data-paper-data="{&quot;isPaintingLayer&quot;:true}" stroke-miterlimit="10" stroke-dasharray="" stroke-dashoffset="0" style="mix-blend-mode: normal"><path d="M242.97711,192.43794c1.63296,1.50446 7.13922,7.8512 9.81729,7.32398c2.53728,-0.54057 6.65812,-6.54214 10.08847,-3.02041c3.36666,3.44466 -1.57941,7.66326 -6.69711,9.9478c-6.60573,2.9957 -15.88965,-3.21225 -17.01196,-10.84773c-0.30936,-2.72843 2.10664,-4.98518 3.80333,-3.40364z" data-paper-data="{&quot;index&quot;:null}" fill="#717171" fill-rule="evenodd" stroke="#001026" stroke-width="1.2" stroke-linecap="round" stroke-linejoin="round"/><g fill-rule="evenodd"><path d="M227.18493,206.06558c0.42309,0.90608 2.81945,2.63453 -1.05748,4.06961c-3.95428,1.3167 -13.45569,2.28791 -20.54547,-7.27007c-7.63127,-10.38671 -0.23923,-20.79141 4.14924,-20.28014c4.29059,0.49076 1.19053,6.99304 2.62422,15.26314c1.98792,11.96237 14.40639,7.31136 14.82948,8.21745z" fill="#717171" stroke="#001026" stroke-width="1.2" stroke-linecap="round" stroke-linejoin="round"/><path d="M211.40475,188.24885c-0.41341,4.40898 -0.05021,7.55033 -0.05021,7.55033c0,0 -1.15561,-2.28572 -3.58662,-2.38665c-2.94089,-0.10565 -4.31416,2.05864 -4.55566,2.72323c-0.33631,-1.80746 -0.49268,-3.98589 0.44169,-7.46826c1.20747,-3.32295 4.09929,-6.39498 6.46404,-5.49055c1.87538,0.80184 1.44923,2.34728 1.28675,5.07191z" fill="#ffffff" stroke="none" stroke-width="1" stroke-linecap="butt" stroke-linejoin="miter"/></g><path d="M248.3198,236.3753c0,3.86599 -11.83333,3 -11.83333,3c0,0 -10.5,0.86599 -10.5,-3c0,-3.45051 2.7452,-32.89294 7.69909,-34.5825c3.83539,-1.30808 4.43187,28.24917 5.13424,28.24917c6.53537,0 9.5,2.46734 9.5,6.33333z" fill="#717171" fill-rule="nonzero" stroke="#001026" stroke-width="1.2" stroke-linecap="butt" stroke-linejoin="miter"/><path d="M242.3198,237.04197c0,3.86599 -11.83333,3 -11.83333,3c0,0 -10.5,0.86599 -10.5,-3c0,-3.45051 2.7452,-32.89294 7.69909,-34.58249c3.83539,-1.30808 4.43187,28.24916 5.13424,28.24916c6.53537,0 9.5,2.46734 9.5,6.33333z" fill="#717171" fill-rule="nonzero" stroke="#001026" stroke-width="1.2" stroke-linecap="butt" stroke-linejoin="miter"/><g fill-rule="evenodd"><path d="M230.5445,215.94526c-9.18102,0.32314 -7.03108,-8.36026 -7.0279,-17.80165c-0.03324,-5.09988 1.75139,-11.38302 7.5986,-13.18586c3.22766,-1.17988 4.9712,4.8979 6.85795,3.76204c2.85396,-1.6598 4.61276,2.84647 5.01225,5.47334c0,0 0.53143,3.92015 0.2934,6.20998c-0.26364,2.87237 -0.70313,5.84002 -1.32956,7.20294c0,0 -1.51465,7.99109 -11.40474,8.33919z" fill="#717171" stroke="#001026" stroke-width="1.2" stroke-linecap="round" stroke-linejoin="round"/><path d="M241.22453,207.88822c0,0 -1.8905,-0.34064 -4.01182,-0.89742c-2.61593,-0.63003 -5.08895,-0.99627 -4.80703,-4.67466c0.43948,-2.96763 0.41001,-6.59104 5.74807,-6.18464c5.06694,0.32582 4.58714,3.429 4.58714,3.429c0.20908,5.00462 -1.51636,8.32773 -1.51636,8.32773z" fill="#ffffff" stroke="none" stroke-width="1" stroke-linecap="butt" stroke-linejoin="miter"/></g><path d="M228.1574,196.446c-1.32345,2.022 -5.75024,2.6953 -6.5725,3.45285c-0.19993,0.24501 1.06196,5.60109 1.79148,8.80855c1.08725,4.51973 -5.35293,7.06018 -8.15231,3.38818c-2.55435,-3.47206 -3.701,-12.5707 -3.40541,-14.53352c0.57706,-4.50856 10.40871,-7.41176 16.90888,-9.45966" data-paper-data="{&quot;index&quot;:null}" fill="#717171" fill-rule="evenodd" stroke="#001026" stroke-width="1.2" stroke-linecap="round" stroke-linejoin="round"/><g fill-rule="nonzero" stroke="#001026" stroke-width="1.2" stroke-linejoin="miter"><g><g><path d="M264.07313,195.37319l6.07314,-8.93068l2.14998,1.46205l-6.07314,8.93068z" fill="#2c2c2c" stroke-linecap="butt"/><path d="M257.70122,205.03793l1.95392,1.39361l-9.08242,11.70085z" fill="#6c6c6c" stroke-linecap="butt"/><path d="M254.94367,204.88596l10.45928,-15.38061l6.11917,4.16123l-10.45928,15.38062z" fill="url(#color-1)" stroke-linecap="butt"/><path d="M266.80533,193.84508l-2.86443,-2.18976" fill="none" stroke-linecap="round"/><path d="M264.89341,196.65659l-2.53366,-1.96483" fill="none" stroke-linecap="round"/><path d="M260.84478,196.56389l2.09043,1.90528" fill="none" stroke-linecap="round"/><path d="M259.03872,199.9311l1.81921,1.23712" fill="none" stroke-linecap="round"/><path d="M259.16431,204.37004l-2.14335,-2.18313" fill="none" stroke-linecap="round"/></g><path d="M267.43396,185.80737l1.5745,-2.31536l6.28457,4.27369l-1.57452,2.31537z" fill="#2c2c2c" stroke-linecap="butt"/></g><path d="M262.60777,197.8837c-1.646,2.42048 -4.05397,3.65254 -5.37837,2.7519c-1.3244,-0.90063 -1.06371,-3.59294 0.58228,-6.01339c1.646,-2.42048 4.05398,-3.65254 5.37839,-2.75191c1.3244,0.90063 1.06371,3.59294 -0.58228,6.0134z" fill="#717171" stroke-linecap="butt"/><path d="M271.60462,202.79251c-2.51558,3.69921 -6.443,5.41402 -8.77213,3.83014c-2.32912,-1.58388 -2.17799,-5.86666 0.33758,-9.56587c2.51558,-3.69921 6.44299,-5.41403 8.77212,-3.83015c2.32912,1.58388 2.17799,5.86667 -0.33758,9.56588z" fill="#717171" stroke-linecap="butt"/></g><g><path d="M251.29613,134.82948c0.27638,-0.23155 0.7843,-0.18672 0.92737,0.19997l3.75235,10.35228c0,0 6.87476,3.97337 9.1236,7.04628c3.7812,5.11787 4.37176,9.58007 4.37176,9.58007c0,0 7.28679,1.3125 9.10177,6.84747c1.81498,5.53497 -1.37994,16.75069 -19.66377,22.48057c-18.28383,5.72988 -33.85027,2.30848 -42.15215,-8.24845c-8.30187,-10.55694 1.3468,-25.29814 0.83771,-24.43743l-4.04121,-17.56385c-0.14307,-0.3867 0.32121,-0.73948 0.74064,-0.58434l12.88999,6.53211c0,0 4.28756,-2.18101 8.93765,-2.89281c2.76144,-0.50441 5.16894,-0.56758 7.49886,-0.421z" fill="#717171" fill-rule="evenodd" stroke="#001026" stroke-width="1.2" stroke-linecap="butt" stroke-linejoin="miter"/><path d="M262.48333,161.81448c0.44458,4.04877 -5.2587,7.99675 -12.73863,8.81809c-7.47991,0.82133 -13.90399,-1.79502 -14.34857,-5.84379c-0.44458,-4.04877 5.2587,-7.99675 12.73863,-8.81809c7.47991,-0.82133 13.90399,1.79502 14.34857,5.84379z" fill="#393939" fill-rule="nonzero" stroke="none" stroke-width="NaN" stroke-linecap="butt" stroke-linejoin="miter"/><path d="M269.21667,162.43844c0,0 7.05525,1.03613 8.87021,6.57109c1.81498,5.53497 -1.83212,16.29734 -19.92806,21.90598c-23.50968,7.61152 -36.5127,-5.44725 -31.0097,-16.71521c5.49209,-11.36737 17.91663,-3.57693 26.20095,-5.09019c7.10241,-1.28288 7.21,-7.63255 15.86659,-6.67166z" fill="#ffffff" fill-rule="evenodd" stroke="none" stroke-width="1" stroke-linecap="butt" stroke-linejoin="miter"/><path d="M287.6268,161.52354c-4.25715,4.2903 -11.40322,5.17556 -11.40322,5.17556" fill="none" fill-rule="evenodd" stroke="#001026" stroke-width="1.2" stroke-linecap="round" stroke-linejoin="round"/><path d="M287.55703,172.79851c-6.20778,1.18465 -10.29187,-0.27833 -10.29187,-0.27833" fill="none" fill-rule="evenodd" stroke="#001026" stroke-width="1.2" stroke-linecap="round" stroke-linejoin="round"/><path d="M252.66868,166.5693c2.08745,-0.22921 4.29614,-0.27053 4.47195,0.41437c0.25221,1.38073 -0.93321,4.32771 -2.51274,4.60176c-1.76742,0.39527 -6.2152,-1.63137 -6.38984,-3.22181c-0.23038,-1.18191 2.44257,-1.57602 4.43063,-1.79431z" fill="#001026" fill-rule="evenodd" stroke="#001026" stroke-width="1.2" stroke-linecap="round" stroke-linejoin="round"/><path d="M207.7738,169.98992c0,0 8.85423,1.84459 12.67168,4.54405" fill="none" fill-rule="evenodd" stroke="#001026" stroke-width="1.2" stroke-linecap="round" stroke-linejoin="round"/><path d="M221.12572,177.98033c-4.08876,2.15917 -11.56461,1.87344 -11.56461,1.87344" fill="none" fill-rule="evenodd" stroke="#001026" stroke-width="1.2" stroke-linecap="round" stroke-linejoin="round"/><path d="M263.12115,153.65125c3.37385,4.15658 4.0299,9.2152 1.44309,11.31006c-2.58681,2.09485 -7.38854,0.50948 -10.86178,-3.63618c-3.37385,-4.15658 -4.0299,-9.2152 -1.44309,-11.31006c2.57589,-2.19427 7.48794,-0.52041 10.86178,3.63618z" fill="#ffffff" fill-rule="evenodd" stroke="#001026" stroke-width="1.2" stroke-linecap="round" stroke-linejoin="round"/><path d="M238.77492,159.1414c3.46232,4.04626 3.85292,9.43583 1.37644,11.61918c-3.07291,2.24884 -7.59943,1.33745 -11.06175,-2.70882c-3.56174,-4.03535 -4.0796,-9.20974 -1.23825,-11.73496c2.83044,-2.62462 7.46123,-1.22167 10.92357,2.82459z" fill="#ffffff" fill-rule="evenodd" stroke="#001026" stroke-width="1.2" stroke-linecap="round" stroke-linejoin="round"/><path d="M253.76514,178.61644c0.29387,2.6763 -12.65809,17.96863 -16.38095,18.02062c-6.30451,0.08804 -7.67881,-12.67018 -7.97267,-15.34648c-0.29387,-2.6763 7.55966,2.5652 14.28473,1.82676c6.72507,-0.73844 9.77502,-7.1772 10.06889,-4.50089z" fill="#000000" fill-rule="nonzero" stroke="#001026" stroke-width="1.2" stroke-linecap="butt" stroke-linejoin="miter"/></g></g></g></svg>