<svg version="1.1" xmlns="http://www.w3.org/2000/svg" xmlns:xlink="http://www.w3.org/1999/xlink" width="82.63568" height="106.87111" viewBox="0,0,82.63568,106.87111"><defs><linearGradient x1="249.6796" y1="194.77765" x2="260.48158" y2="209.91956" gradientUnits="userSpaceOnUse" id="color-1"><stop offset="0" stop-color="#ffffff"/><stop offset="1" stop-color="#9f9f9f"/></linearGradient></defs><g transform="translate(-195.48288,-133.85376)"><g data-paper-data="{&quot;isPaintingLayer&quot;:true}" stroke-miterlimit="10" stroke-dasharray="" stroke-dashoffset="0" style="mix-blend-mode: normal"><path d="M237.19792,191.96017c0.98909,1.98789 3.86999,9.88094 6.55999,10.34342c2.56323,0.39979 8.55337,-3.73763 10.50228,0.77587c1.91689,4.41877 -4.2084,6.59617 -9.80431,6.90547c-7.23974,0.44304 -13.69941,-8.66753 -12.025,-16.20121c0.68397,-2.65936 3.74592,-3.90616 4.76705,-1.82354z" data-paper-data="{&quot;index&quot;:null}" fill="#717171" fill-rule="evenodd" stroke="#001026" stroke-width="1.2" stroke-linecap="round" stroke-linejoin="round"/><g fill-rule="nonzero" stroke="#001026" stroke-width="1.2" stroke-linejoin="miter"><g><g><path d="M251.71068,200.20765l-6.27212,-8.79208l2.11661,-1.50996l6.27212,8.79208z" fill="#2c2c2c" stroke-linecap="butt"/><path d="M258.56781,209.5344l1.98446,-1.34978l7.82754,12.57496z" fill="#6c6c6c" stroke-linecap="butt"/><path d="M257.46948,212.06835l-10.80199,-15.14189l6.0242,-4.29756l10.80199,15.1419z" fill="url(#color-1)" stroke-linecap="butt"/><path d="M248.17746,199.04305l3.04685,-1.92789" fill="none" stroke-linecap="round"/><path d="M250.47765,201.57862l2.72119,-1.69558" fill="none" stroke-linecap="round"/><path d="M254.22034,202.34809l-2.51172,1.30047" fill="none" stroke-linecap="round"/><path d="M254.24113,206.50977l1.79097,-1.27765" fill="none" stroke-linecap="round"/><path d="M255.65774,209.18431l2.79069,-1.25381" fill="none" stroke-linecap="round"/></g><path d="M243.90271,193.7396l-1.62611,-2.27942l6.18702,-4.41372l1.62612,2.27943z" fill="#2c2c2c" stroke-linecap="butt"/></g><path d="M253.55768,202.45232c1.69992,2.38291 2.02101,5.06867 0.71715,5.9988c-1.30385,0.93015 -3.73889,-0.24754 -5.43882,-2.63044c-1.69992,-2.38291 -2.021,-5.06867 -0.71715,-5.99881c1.30385,-0.93015 3.73889,0.24754 5.43882,2.63045z" fill="#717171" stroke-linecap="butt"/><path d="M261.28055,195.71458c2.59799,3.6418 2.84526,7.92013 0.55227,9.5559c-2.29298,1.63577 -6.25789,0.00958 -8.8559,-3.63222c-2.59799,-3.6418 -2.84527,-7.92012 -0.55228,-9.55589c2.29298,-1.63577 6.2579,-0.00958 8.85591,3.63221z" fill="#717171" stroke-linecap="butt"/></g><g fill-rule="evenodd"><path d="M226.04797,206.81269c0.84988,0.52697 3.80143,0.66271 1.34135,3.98507c-2.5896,3.26558 -10.0115,9.27686 -21.17533,5.15513c-12.0705,-4.51917 -11.57543,-17.2728 -7.62229,-19.24581c3.85999,-1.93663 4.8225,5.20225 10.54724,11.34045c8.20873,8.92563 16.05915,-1.76182 16.90903,-1.23484z" fill="#717171" stroke="#001026" stroke-width="1.2" stroke-linecap="round" stroke-linejoin="round"/><path d="M203.09129,200.53249c2.06615,3.91677 4.08883,6.34756 4.08883,6.34756c0,0 -2.21786,-1.28105 -4.30798,-0.0355c-2.5195,1.52056 -2.48491,4.08352 -2.32346,4.77195c-1.27039,-1.32895 -2.59312,-3.06689 -3.71623,-6.49305c-0.80729,-3.44213 -0.0674,-7.59575 2.40686,-8.13246c2.0085,-0.35485 2.49732,1.17193 3.85198,3.54151z" fill="#ffffff" stroke="none" stroke-width="1" stroke-linecap="butt" stroke-linejoin="miter"/></g><path d="M263.44146,218.17443c2.44996,2.99059 -7.25264,9.81973 -7.25264,9.81973c0,0 -7.5736,7.32397 -10.02356,4.33339c-2.18667,-2.66918 -18.72137,-27.18441 -15.95994,-31.63077c2.13795,-3.44245 21.33043,19.0439 21.87375,18.59879c5.05551,-4.1416 8.91243,-4.11171 11.3624,-1.12114z" fill="#717171" fill-rule="nonzero" stroke="#001026" stroke-width="1.2" stroke-linecap="butt" stroke-linejoin="miter"/><path d="M242.3198,237.04197c0,3.86599 -11.83333,3 -11.83333,3c0,0 -10.5,0.86599 -10.5,-3c0,-3.45051 2.7452,-32.89294 7.69909,-34.58249c3.83539,-1.30808 4.43187,28.24916 5.13424,28.24916c6.53537,0 9.5,2.46734 9.5,6.33333z" fill="#717171" fill-rule="nonzero" stroke="#001026" stroke-width="1.2" stroke-linecap="butt" stroke-linejoin="miter"/><g fill-rule="evenodd"><path d="M230.58669,212.50704c-8.49021,3.50883 -9.50787,-5.37869 -12.80185,-14.22684c-1.81204,-4.76722 -2.33383,-11.27802 2.51572,-15.00922c2.61245,-2.23271 6.3686,2.85362 7.73994,1.1304c2.09469,-2.55192 5.31637,1.0565 6.60802,3.37849c0,0 1.86691,3.48779 2.44347,5.71659c0.75599,2.78361 1.38047,5.71791 1.26942,7.21379c0,0 1.3712,8.01695 -7.77472,11.79678z" fill="#717171" stroke="#001026" stroke-width="1.2" stroke-linecap="round" stroke-linejoin="round"/><path d="M237.78085,201.22773c0,0 -1.89043,0.34098 -4.07264,0.56001c-2.67126,0.32312 -5.11648,0.84352 -6.13681,-2.70175c-0.62448,-2.93428 -1.9174,-6.3193 3.22652,-7.80253c4.86173,-1.46407 5.49578,1.6113 5.49578,1.6113c1.94354,4.61655 1.48716,8.33299 1.48716,8.33299z" fill="#ffffff" stroke="none" stroke-width="1" stroke-linecap="butt" stroke-linejoin="miter"/></g><path d="M219.24723,196.4518c-1.23242,2.07873 -5.62499,2.94779 -6.41282,3.74108c-0.18886,0.25364 1.30943,5.54846 2.18056,8.72038c1.28672,4.46703 -5.03441,7.29074 -7.99395,3.74656c-2.7059,-3.3553 -4.25513,-12.39411 -4.04691,-14.36811c0.37644,-4.52972 10.0696,-7.8663 16.47249,-10.20061" fill="#717171" fill-rule="evenodd" stroke="#001026" stroke-width="1.2" stroke-linecap="round" stroke-linejoin="round"/><g><g><path d="M245.52645,134.36552c0.30753,-0.18822 0.80328,-0.0689 0.88769,0.33467l2.18306,10.79279c0,0 6.21291,4.94469 7.98349,8.31589c2.98427,5.61997 2.90968,10.12047 2.90968,10.12047c0,0 7.01321,2.37379 7.99124,8.11603c0.97803,5.74225 -3.83753,16.36347 -22.76688,19.33155c-18.92935,2.96808 -33.82019,-2.71372 -40.47272,-14.38052c-6.65252,-11.66679 5.06652,-24.82218 4.43594,-24.04605l-1.40418,-17.96797c-0.08441,-0.40358 0.42684,-0.68395 0.81879,-0.46859l11.7845,8.36334c0,0 4.56254,-1.5242 9.26677,-1.54176c2.80565,-0.09125 5.19609,0.20168 7.47885,0.69059z" fill="#717171" fill-rule="evenodd" stroke="#001026" stroke-width="1.2" stroke-linecap="butt" stroke-linejoin="miter"/><path d="M252.60761,162.70631c-0.15798,4.07003 -6.38156,7.13286 -13.90079,6.84102c-7.51922,-0.29184 -13.48668,-3.82785 -13.32872,-7.89789c0.15798,-4.07003 6.38156,-7.13286 13.90079,-6.84102c7.51922,0.29184 13.48668,3.82785 13.32872,7.89789z" fill="#393939" fill-rule="nonzero" stroke="none" stroke-width="NaN" stroke-linecap="butt" stroke-linejoin="miter"/><path d="M259.17507,164.3174c0,0 6.825,2.06626 7.80303,7.80851c0.97803,5.74225 -4.21784,15.84834 -22.94346,18.72425c-24.37571,4.05766 -35.30857,-10.77751 -28.2025,-21.1097c7.10994,-10.4321 18.24837,-0.89293 26.66531,-1.1667c7.21398,-0.22038 8.25771,-6.48462 16.67763,-4.25637z" fill="#ffffff" fill-rule="evenodd" stroke="none" stroke-width="1" stroke-linecap="butt" stroke-linejoin="miter"/><path d="M277.51856,166.13019c-4.84384,3.61486 -12.0423,3.43554 -12.0423,3.43554" fill="none" fill-rule="evenodd" stroke="#001026" stroke-width="1.2" stroke-linecap="round" stroke-linejoin="round"/><path d="M275.78517,177.27135c-6.31465,0.25529 -10.13803,-1.79454 -10.13803,-1.79454" fill="none" fill-rule="evenodd" stroke="#001026" stroke-width="1.2" stroke-linecap="round" stroke-linejoin="round"/><path d="M242.19858,165.96022c2.09842,0.08145 4.289,0.36661 4.36178,1.06997c0.04563,1.40282 -1.56184,4.14254 -3.16452,4.18041c-1.8064,0.13004 -5.90628,-2.53098 -5.84422,-4.12977c-0.05338,-1.20298 2.64846,-1.19819 4.64695,-1.12062z" fill="#001026" fill-rule="evenodd" stroke="#001026" stroke-width="1.2" stroke-linecap="round" stroke-linejoin="round"/><path d="M197.29062,162.71607c0,0 8.48493,3.13143 11.86207,6.36485" fill="none" fill-rule="evenodd" stroke="#001026" stroke-width="1.2" stroke-linecap="round" stroke-linejoin="round"/><path d="M209.31672,172.58991c-4.36269,1.53194 -11.71447,0.14578 -11.71447,0.14578" fill="none" fill-rule="evenodd" stroke="#001026" stroke-width="1.2" stroke-linecap="round" stroke-linejoin="round"/><path d="M254.44347,154.72668c2.72329,4.60909 2.62542,9.70912 -0.24229,11.39917c-2.86771,1.69005 -7.38279,-0.58677 -10.20602,-5.19975c-2.72329,-4.60909 -2.62542,-9.70912 0.24229,-11.39917c2.87158,-1.78997 7.48272,0.59065 10.20602,5.19975z" fill="#ffffff" fill-rule="evenodd" stroke="#001026" stroke-width="1.2" stroke-linecap="round" stroke-linejoin="round"/><path d="M229.55355,156.56272c2.82709,4.51304 2.41782,9.90122 -0.35385,11.69507c-3.37121,1.77058 -7.7136,0.20099 -10.54069,-4.31205c-2.92702,-4.51692 -2.67538,-9.71107 0.50761,-11.78918c3.18687,-2.17805 7.55984,-0.10689 10.38693,4.40616z" fill="#ffffff" fill-rule="evenodd" stroke="#001026" stroke-width="1.2" stroke-linecap="round" stroke-linejoin="round"/></g><path d="M234.78248,184.08413c-0.65443,2.46907 -14.66877,3.48307 -20.67459,1.89122c-6.00583,-1.59184 -1.72884,-5.18674 -1.07443,-7.65579c0.65443,-2.46907 5.61113,2.39244 11.61695,3.98428c6.00583,1.59184 10.78649,-0.68878 10.13206,1.78029z" fill="#000000" fill-rule="nonzero" stroke="#001026" stroke-width="1.2" stroke-linecap="butt" stroke-linejoin="miter"/></g></g></g></svg>