<svg version="1.1" xmlns="http://www.w3.org/2000/svg" xmlns:xlink="http://www.w3.org/1999/xlink" width="64.43024" height="95.42275" viewBox="0,0,64.43024,95.42275"><g transform="translate(-261.15091,-104.87434)"><g data-paper-data="{&quot;isPaintingLayer&quot;:true}" fill-rule="nonzero" stroke="none" stroke-linecap="butt" stroke-linejoin="miter" stroke-miterlimit="10" stroke-dasharray="" stroke-dashoffset="0" style="mix-blend-mode: normal"><path d="M270.97889,184.84411c0.51682,-2.10296 0.99548,-4.19994 1.45621,-6.2556c1.09468,-4.87994 2.25503,-9.6969 3.00046,-14.61969c-0.1886,-0.40204 -0.372,-0.81364 -0.54967,-1.23971c-0.63427,-1.5362 -0.85089,-3.66348 -0.19976,-5.27092c0.20521,-0.50659 0.69491,-0.99998 0.57895,-1.5341c-0.94115,-4.33518 -3.65199,-8.65858 -6.70456,-11.73294c-4.02669,-3.81914 -10.16086,-14.12637 -6.04652,-19.27832c4.10499,-5.09257 11.67071,-8.90801 17.27486,-12.14935c6.28511,-3.63521 12.55012,-6.02214 19.6835,-7.33385c4.89693,-0.90047 10.15835,-0.59667 15.07869,0.13624c1.97348,0.29396 4.37123,0.23234 5.9655,1.46306c1.37045,1.1234 1.80106,2.89882 2.46554,4.51933c2.15535,5.25638 2.65077,10.15132 2.59496,15.80547c-0.05538,5.44221 -1.47401,9.56746 -2.82087,14.71823c-0.50179,1.91899 -0.50453,3.9602 -1.01135,5.90276c-0.87823,3.36557 -3.18293,5.46894 -3.80144,8.98086c-0.25621,1.45478 0.14607,5.02583 -0.67944,6.17345c-0.68707,0.95516 -3.72799,1.63666 -4.8272,2.09568c-6.45794,2.69677 -12.9122,5.39195 -19.32208,8.20123c-3.26602,1.4314 -5.27324,3.53221 -8.20948,5.40509c-3.02278,1.92806 -6.7556,3.19253 -10.00151,4.72408c-0.93776,0.41023 -1.98817,0.81934 -2.91972,1.38242c-1.17876,4.80924 -2.55199,9.65346 -4.35875,14.11994l-0.37493,0.92678c-0.04833,0.11964 -0.14266,0.22062 -0.27116,0.2742c-0.25487,0.10628 -0.54764,-0.01418 -0.65392,-0.26905c-0.0042,-0.01006 -0.00804,-0.02018 -0.01153,-0.03034l-0.33077,-0.93923l0.27234,-0.09591c-0.31668,-1.62733 0.30934,-3.27992 0.65556,-5.07435c0.74941,-3.88413 1.66072,-6.81894 4.06809,-9.00547z" data-paper-data="{&quot;index&quot;:null}" fill="#000000" stroke-width="0.5"/><path d="M292.00402,130.85911c1.89066,4.53411 -1.09056,10.09198 -6.65877,12.41386c-5.5682,2.32187 -19.70155,-11.56635 -19.70155,-11.56635c0,0 24.46963,-5.3816 26.3603,-0.84749z" data-paper-data="{&quot;index&quot;:null}" fill="#ffffff" stroke-width="0"/><path d="M298.76208,130.25382c-1.89066,-4.5341 19.15324,-18.13111 19.15324,-18.13111c0,0 -0.07959,19.81485 -5.64778,22.13672c-5.56821,2.32187 -11.61481,0.5285 -13.50548,-4.00561z" data-paper-data="{&quot;index&quot;:null}" fill="#ffffff" stroke-width="0"/></g></g></svg>