<svg version="1.1" xmlns="http://www.w3.org/2000/svg" xmlns:xlink="http://www.w3.org/1999/xlink" width="101.80793" height="99.77692" viewBox="0,0,101.80793,99.77692"><defs><linearGradient x1="254.31872" y1="206.73934" x2="255.75024" y2="225.28416" gradientUnits="userSpaceOnUse" id="color-1"><stop offset="0" stop-color="#ffffff"/><stop offset="1" stop-color="#9f9f9f"/></linearGradient><radialGradient cx="274.40744" cy="168.50783" r="8.13758" gradientUnits="userSpaceOnUse" id="color-2"><stop offset="0" stop-color="#ffffff"/><stop offset="1" stop-color="#1a1a1a"/></radialGradient><radialGradient cx="252.66977" cy="172.54933" r="6.75889" gradientUnits="userSpaceOnUse" id="color-3"><stop offset="0" stop-color="#ffffff"/><stop offset="1" stop-color="#1a1a1a"/></radialGradient></defs><g transform="translate(-201.52463,-140.94795)"><g data-paper-data="{&quot;isPaintingLayer&quot;:true}" stroke-miterlimit="10" stroke-dasharray="" stroke-dashoffset="0" style="mix-blend-mode: normal"><path d="M245.08476,197.88132c-0.17948,2.2131 -1.78816,10.46003 0.27665,12.24514c1.98861,1.66596 9.25481,1.21597 8.59313,6.08754c-0.64019,4.77391 -7.01001,3.4756 -11.96186,0.85088c-6.42861,-3.35901 -7.25597,-14.49658 -1.93187,-20.08352c1.95895,-1.92419 5.2249,-1.41079 5.02395,0.89998z" data-paper-data="{&quot;index&quot;:null}" fill="#717171" fill-rule="evenodd" stroke="#001026" stroke-width="1.2" stroke-linecap="round" stroke-linejoin="round"/><g fill-rule="nonzero" stroke="#001026" stroke-width="1.2" stroke-linejoin="miter"><g><g><path d="M253.25416,212.43818l-0.83121,-10.76797l2.59229,-0.20011l0.83121,10.76797z" fill="#2c2c2c" stroke-linecap="butt"/><path d="M254.31024,223.96611l2.39641,-0.13118l0.20982,14.81067z" fill="#6c6c6c" stroke-linecap="butt"/><path d="M252.06121,225.56894l-1.43153,-18.54483l7.37805,-0.56953l1.43153,18.54484z" fill="url(#color-1)" stroke-linecap="butt"/><path d="M250.82979,209.61639l3.60472,-0.07766" fill="none" stroke-linecap="round"/><path d="M254.69619,212.92865l-3.2059,0.04687" fill="none" stroke-linecap="round"/><path d="M251.47558,215.38379l2.82248,0.18331" fill="none" stroke-linecap="round"/><path d="M252.16687,219.14173l2.19347,-0.16932" fill="none" stroke-linecap="round"/><path d="M251.99894,222.16362l3.03728,0.36732" fill="none" stroke-linecap="round"/></g><path d="M249.90763,202.86734l-0.2155,-2.79169l7.57746,-0.58492l0.2155,2.7917z" fill="#2c2c2c" stroke-linecap="butt"/></g><path d="M253.67677,215.31417c0.22527,2.91844 -0.88661,5.38421 -2.48349,5.50746c-1.59687,0.12327 -3.07403,-2.14266 -3.2993,-5.06108c-0.22527,-2.91844 0.88662,-5.38421 2.4835,-5.50747c1.59687,-0.12327 3.07403,2.14266 3.2993,5.06109z" fill="#717171" stroke-linecap="butt"/><path d="M263.76955,213.53211c0.3443,4.46024 -1.65318,8.25172 -4.46147,8.46849c-2.8083,0.21678 -5.36397,-3.22322 -5.70828,-7.68346c-0.3443,-4.46024 1.65317,-8.25172 4.46146,-8.46849c2.8083,-0.21678 5.36398,3.22322 5.70829,7.68346z" fill="#717171" stroke-linecap="butt"/></g><g fill-rule="evenodd"><path d="M227.60299,205.50477c0.4646,0.88551 2.93844,2.50112 -0.86786,4.11422c-3.88905,1.49843 -13.33529,2.90864 -20.86013,-6.31072c-8.10413,-10.02213 -1.20191,-20.75802 3.20553,-20.45055c4.30872,0.29152 1.51313,6.9304 3.3283,15.12522c2.53981,11.85746 14.72955,6.63629 15.19415,7.52182z" fill="#717171" stroke="#001026" stroke-width="1.2" stroke-linecap="round" stroke-linejoin="round"/><path d="M211.01458,188.43801c-0.20877,4.4234 0.29953,7.54455 0.29953,7.54455c0,0 -1.26023,-2.22975 -3.69331,-2.21798c-2.94263,0.03067 -4.21419,2.25624 -4.42465,2.9313c-0.41966,-1.78994 -0.67675,-3.95879 0.09533,-7.4807c1.05227,-3.37531 3.79871,-6.57797 6.20281,-5.78403c1.9105,0.71412 1.55639,2.27764 1.52027,5.00687z" fill="#ffffff" stroke="none" stroke-width="1" stroke-linecap="butt" stroke-linejoin="miter"/></g><path d="M248.3198,236.3753c0,3.86599 -11.83333,3 -11.83333,3c0,0 -10.5,0.86599 -10.5,-3c0,-3.45051 2.7452,-32.89294 7.69909,-34.5825c3.83539,-1.30808 4.43187,28.24917 5.13424,28.24917c6.53537,0 9.5,2.46734 9.5,6.33333z" fill="#717171" fill-rule="nonzero" stroke="#001026" stroke-width="1.2" stroke-linecap="butt" stroke-linejoin="miter"/><path d="M242.3198,237.04197c0,3.86599 -11.83333,3 -11.83333,3c0,0 -10.5,0.86599 -10.5,-3c0,-3.45051 2.7452,-32.89294 7.69909,-34.58249c3.83539,-1.30808 4.43187,28.24916 5.13424,28.24916c6.53537,0 9.5,2.46734 9.5,6.33333z" fill="#717171" fill-rule="nonzero" stroke="#001026" stroke-width="1.2" stroke-linecap="butt" stroke-linejoin="miter"/><g fill-rule="evenodd"><path d="M227.86869,213.31527c-9.02654,-1.70797 -5.01594,-9.70414 -2.93229,-18.91274c1.09141,-4.98184 4.21675,-10.71725 10.3175,-11.18726c3.40832,-0.43961 3.76967,5.87297 5.86035,5.18081c3.14956,-0.99009 3.87211,3.79299 3.68291,6.44331c0,0 -0.34549,3.94089 -1.08227,6.12198c-0.89013,2.74366 -1.97278,5.54151 -2.88415,6.73289c0,0 -3.23837,7.46087 -12.96204,5.621z" fill="#717171" stroke="#001026" stroke-width="1.2" stroke-linecap="round" stroke-linejoin="round"/><path d="M240.06166,207.80979c0,0 -1.76896,-0.74886 -3.71544,-1.75942c-2.41279,-1.191 -4.74431,-2.0932 -3.65873,-5.61904c1.08264,-2.79783 1.85236,-6.33867 6.96964,-4.76594c4.87058,1.43438 3.71875,4.35555 3.71875,4.35555c-0.8989,4.92767 -3.31422,7.78886 -3.31422,7.78886z" fill="#ffffff" stroke="none" stroke-width="1" stroke-linecap="butt" stroke-linejoin="miter"/></g><path d="M227.1205,195.12706c-2.38885,0.36527 -5.84631,-2.48004 -6.95929,-2.58615c-0.31588,0.01482 -3.45981,4.53098 -5.35998,7.21598c-2.63803,3.82763 -8.82985,0.73065 -7.96619,-3.80523c0.87847,-4.21998 6.88502,-11.14973 8.54338,-12.24054c3.74118,-2.5814 12.4679,2.79767 18.33316,6.26824" fill="#717171" fill-rule="evenodd" stroke="#001026" stroke-width="1.2" stroke-linecap="round" stroke-linejoin="round"/><g><g><path d="M268.40333,141.43425c0.29223,-0.21119 0.79565,-0.13017 0.9107,0.26577l3.00262,10.59407c0,0 6.57309,4.45471 8.59648,7.68053c3.40562,5.37511 3.67566,9.86811 3.67566,9.86811c0,0 7.17431,1.83011 8.58892,7.48067c1.41461,5.65057 -2.57398,16.60918 -21.22068,21.0172c-18.6467,4.40802 -33.92869,-0.11752 -41.45455,-11.24098c-7.52586,-11.12346 3.15203,-25.13711 2.5827,-24.31501l-2.77515,-17.80782c-0.11505,-0.39594 0.37325,-0.71463 0.78053,-0.52988l12.38999,7.43695c0,0 4.43252,-1.86889 9.1216,-2.24642c2.79044,-0.3057 5.19628,-0.19656 7.50976,0.1162z" fill="#717171" fill-rule="evenodd" stroke="#001026" stroke-width="1.2" stroke-linecap="butt" stroke-linejoin="miter"/><path d="M277.63263,169.15001c0.15397,4.07019 -5.81697,7.60032 -13.33647,7.88478c-7.51951,0.28446 -13.74008,-2.7845 -13.89405,-6.85468c-0.15397,-4.07019 5.81697,-7.60032 13.33647,-7.88478c7.51951,-0.28446 13.74008,2.7845 13.89405,6.85468z" fill="#000000" fill-rule="nonzero" stroke="none" stroke-width="NaN" stroke-linecap="butt" stroke-linejoin="miter"/><path d="M284.30413,170.25377c0,0 6.96312,1.53788 8.37773,7.18845c1.41461,5.65057 -2.9926,16.12465 -21.44322,20.42519c-23.99369,5.91123 -36.02982,-8.04376 -29.7353,-18.88946c6.29073,-10.94563 18.12651,-2.28685 26.49782,-3.20395c7.17596,-0.77181 7.73724,-7.09755 16.30298,-5.52022z" fill="#ffffff" fill-rule="evenodd" stroke="none" stroke-width="1" stroke-linecap="butt" stroke-linejoin="miter"/><path d="M302.73256,170.65743c-4.553,3.97495 -11.74407,4.34705 -11.74407,4.34705" fill="none" fill-rule="evenodd" stroke="#001026" stroke-width="1.2" stroke-linecap="round" stroke-linejoin="round"/><path d="M301.85687,181.89857c-6.2766,0.73779 -10.24563,-1.01342 -10.24563,-1.01342" fill="none" fill-rule="evenodd" stroke="#001026" stroke-width="1.2" stroke-linecap="round" stroke-linejoin="round"/><path d="M267.50315,173.19098c2.0985,-0.07938 4.30449,0.03731 4.43087,0.73303c0.15285,1.39522 -1.24023,4.24992 -2.8353,4.41033c-1.79116,0.2679 -6.08265,-2.07155 -6.14313,-3.6704c-0.14529,-1.19536 2.549,-1.39736 4.54757,-1.47296z" fill="#001026" fill-rule="evenodd" stroke="#001026" stroke-width="1.2" stroke-linecap="round" stroke-linejoin="round"/><path d="M222.47862,173.39312c0,0 8.6997,2.47291 12.31439,5.43839" fill="none" fill-rule="evenodd" stroke="#001026" stroke-width="1.2" stroke-linecap="round" stroke-linejoin="round"/><path d="M235.22509,182.31766c-4.23266,1.86133 -11.66896,1.04185 -11.66896,1.04185" fill="none" fill-rule="evenodd" stroke="#001026" stroke-width="1.2" stroke-linecap="round" stroke-linejoin="round"/><path d="M280.4571,165.17754c3.06804,4.38716 1.7561,5.35547 -0.97385,7.26003c-2.72996,1.90456 -7.40605,-0.02005 -10.57402,-4.40343c-1.59361,-2.2649 -4.24501,-6.78272 -2.84084,-6.30204c15.96574,5.46548 13.28206,2.13656 13.91779,2.88942c0.15683,0.18573 0.33088,0.35575 0.47092,0.55601z" fill="url(#color-2)" fill-rule="evenodd" stroke="#001026" stroke-width="1.2" stroke-linecap="round" stroke-linejoin="round"/><path d="M254.17601,164.78875c3.16419,4.28345 3.16845,9.68715 0.5422,11.68785c-3.22582,2.02339 -7.67559,0.79071 -10.83978,-3.49273c8.77583,-0.87209 7.13339,-12.47858 10.29757,-8.19512z" fill="url(#color-3)" fill-rule="evenodd" stroke="#001026" stroke-width="1.2" stroke-linecap="round" stroke-linejoin="round"/><path d="M267.58964,188.04316c0.10178,2.69047 -14.74637,13.19186 -21.50703,13.44761c-6.76066,0.25574 -2.87368,-9.831 -2.97546,-12.52147c-0.10178,-2.69047 2.24709,0.29026 9.00774,0.03452c6.76066,-0.25574 15.37297,-3.65112 15.47474,-0.96065z" fill="#ffffff" fill-rule="nonzero" stroke="#001026" stroke-width="1.2" stroke-linecap="butt" stroke-linejoin="miter"/><path d="M246.35955,188.97135l-0.53622,12.27905" fill="none" fill-rule="nonzero" stroke="#001026" stroke-width="1.2" stroke-linecap="round" stroke-linejoin="miter"/></g><path d="M251.46016,177.05939c0.01861,0.02376 0.03616,0.05129 0.05251,0.0828c0.134,-0.0312 0.27254,-0.07398 0.41629,-0.12987c0.11777,-0.00521 0.23638,-0.00968 0.35542,-0.01429c0.44026,-0.17676 0.85645,-0.36055 1.07234,-0.42282c0.25165,-0.11218 0.52609,-0.14645 0.79281,-0.16161c0.08195,-0.35642 0.25152,-0.66335 0.72234,-0.78929c0.26579,-0.0711 0.50493,-0.07796 0.70589,-0.03533c0.0939,-0.11114 0.18834,-0.21666 0.28164,-0.30802c0.40381,-1.05204 0.61693,-2.58101 0.78076,-3.12804l-0.00994,-0.26277c-0.00522,-0.13797 0.1024,-0.25405 0.24037,-0.25927c0.13797,-0.00522 0.25405,0.1024 0.25927,0.24037l0.0111,0.29341l-0.06314,0.00239c0.00213,0.0071 0.00424,0.01423 0.00633,0.02137l0.0551,0.01638c-0.00831,0.02951 -0.0166,0.06013 -0.02489,0.09181c0.48977,1.84566 -0.03866,4.63982 -0.52481,6.76856c-0.00676,2.0743 -0.20636,4.85598 -1.06462,6.44696l0.05114,0.01542l-0.08528,0.28296c-0.02822,0.10223 -0.11997,0.179 -0.23159,0.18323c-0.13797,0.00522 -0.25405,-0.1024 -0.25927,-0.24037c-0.00003,-0.00082 -0.00007,-0.00164 -0.00008,-0.00245l-0.01467,-0.49944l0.0085,-0.00026l-0.00789,-0.02614c0.28292,-1.56111 0.44496,-3.10762 0.73737,-4.65828c0.16669,-0.71732 0.27394,-1.39741 0.34926,-2.06286c0.00551,-0.2712 0.00389,-0.5425 -0.00637,-0.81374c-0.0111,-0.31013 0.02201,-0.61518 0.05842,-0.92025c-0.09702,0.19988 -0.26143,0.40804 -0.50412,0.61063c-0.98722,1.01783 -2.12325,1.14124 -3.18292,1.368l-0.05274,0.14784c-0.03184,0.09622 -0.12074,0.16725 -0.22797,0.1713c-0.12049,0.00456 -0.2243,-0.07694 -0.25213,-0.18958c-0.64378,0.18224 -1.24253,0.47176 -1.74078,1.11419l-0.23513,0.42036c-0.04059,0.07555 -0.11903,0.12821 -0.21092,0.13169c-0.1284,0.00486 -0.23785,-0.08801 -0.25661,-0.21213l-0.06639,-0.3991l0.07518,-0.01251c-0.13179,-0.60999 -0.03662,-1.0848 0.21186,-1.45511c-0.02003,-0.03159 -0.0409,-0.06376 -0.06252,-0.09637c-0.84244,2.04023 -0.2008,4.38063 -0.694,6.43663c-0.00476,0.07209 -0.0098,0.14446 -0.01496,0.21725l0.01072,0.28328c0.00522,0.13797 -0.1024,0.25405 -0.24037,0.25927c-0.13797,0.00522 -0.25405,-0.1024 -0.25927,-0.24037l-0.0111,-0.29341l0.0064,-0.00024l-0.00655,-0.01323c0.00408,-0.05895 0.00813,-0.11762 0.01206,-0.17607c-0.17294,-0.41873 -0.06977,-1.30512 -0.08221,-1.66875c-0.02253,-0.6589 0.01181,-1.51541 0.12504,-2.38238c0.01401,-0.71461 0.02465,-1.43277 0.00553,-2.13365l-0.04873,0.06515c-0.04359,0.05928 -0.11283,0.09885 -0.19205,0.10185c-0.13797,0.00522 -0.25405,-0.1024 -0.25927,-0.24037c-0.00158,-0.04196 0.00725,-0.08189 0.02422,-0.1173l0.17873,-0.39404l0.01366,0.00619c0.02926,-0.15729 0.06669,-0.31259 0.11757,-0.46389c0.00217,-0.00645 0.00459,-0.01325 0.0072,-0.02037c-0.24796,-0.13733 -0.49678,-0.27011 -0.74597,-0.38841c-0.00353,0.00328 -0.00705,0.00659 -0.01055,0.00996c-0.0334,0.0321 -0.06456,0.0683 -0.09387,0.10789c-0.13023,0.56512 -0.26231,1.11905 -0.47267,1.65182l0.05812,0.01426l-0.11777,0.48025c-0.02397,0.10838 -0.11858,0.19125 -0.23467,0.19564c-0.08078,0.00306 -0.15406,-0.03257 -0.20197,-0.09032c-0.1368,0.00374 -0.25142,-0.10337 -0.25661,-0.24047l-0.0148,-0.39122l0.07773,-0.00294c-0.10705,-0.67258 0.0543,-1.17545 0.36874,-1.50744c0.07162,-0.17239 0.15213,-0.34129 0.23944,-0.4996c-0.05183,-0.01769 -0.10365,-0.03438 -0.15548,-0.04999c-0.20722,-0.19442 -0.35066,-0.46174 -0.43497,-0.73308l0.00013,-0.01022l-0.00233,0.00048l-0.09984,-0.48512c-0.0033,-0.01471 -0.00532,-0.02994 -0.00591,-0.04556c-0.00522,-0.13797 0.1024,-0.25405 0.24037,-0.25927c0.12539,-0.00474 0.2327,0.08371 0.25514,0.20345l0.06747,0.32783c0.05708,0.0523 0.11395,0.10036 0.17062,0.14445c0.04307,-0.06401 0.11508,-0.10726 0.19808,-0.11039l0.39122,-0.0148l0.00055,0.01445l0.0396,-0.01274c0.22692,0.06396 0.44155,0.14733 0.64814,0.24104c0.18086,0.03653 0.34676,0.1091 0.45687,0.22641c0.05392,0.02851 0.10748,0.05729 0.16077,0.08614c0.75997,-0.07499 1.53847,-0.22811 2.3999,0.3312c0.11278,0.07323 0.18351,0.16598 0.22279,0.27098zM253.84818,177.70774c-0.01594,0.00549 -0.03191,0.0109 -0.04789,0.01623c0.02129,0.0033 0.03445,0.00307 0.03798,-0.00192c0.00336,-0.00474 0.00666,-0.00952 0.00991,-0.01432zM256.27511,175.76054c0.00548,-0.09223 0.01111,-0.18479 0.01689,-0.2777c-0.05718,0.14005 -0.11854,0.27423 -0.1846,0.40027c0.03711,0.05432 0.06684,0.10465 0.08985,0.15128c0.00054,-0.01066 0.00104,-0.02134 0.0015,-0.032c0.00276,-0.06415 0.03832,-0.15361 0.07637,-0.24185zM255.6566,176.61876c-0.0421,0.00438 -0.08488,0.00794 -0.12779,0.0109c-0.07674,0.06026 -0.15769,0.11115 -0.24316,0.15136c-0.00226,0.00107 -0.00455,0.00212 -0.00683,0.00316l0.04491,-0.0017c0.05836,-0.00221 0.1128,0.01577 0.15659,0.04769c0.07217,-0.07409 0.13063,-0.14481 0.17629,-0.21142zM254.60603,176.3947c0.00133,-0.00007 0.00266,-0.00014 0.00399,-0.00021c0.13243,-0.04872 0.27313,-0.08892 0.40856,-0.12162c0.0655,-0.07581 0.13342,-0.15888 0.20297,-0.24523c-0.10248,0.01742 -0.2167,0.04911 -0.34073,0.09658c-0.12704,0.04862 -0.21309,0.14472 -0.27479,0.27048zM250.66486,178.20264c-0.02782,0.00209 -0.0556,0.00382 -0.08322,0.00521c-0.00879,0.04085 -0.01681,0.08259 -0.02431,0.12501l0.09583,-0.10336c0.00397,-0.00902 0.00787,-0.01797 0.0117,-0.02684zM254.29227,177.76625c0.19051,-0.09947 0.37896,-0.21886 0.56433,-0.36457c-0.06127,0.0234 -0.12293,0.04274 -0.18369,0.05602c-0.03118,0.07316 -0.09633,0.12882 -0.17635,0.14633l-0.16424,0.03936c-0.01201,0.04215 -0.02526,0.08322 -0.04005,0.12287zM249.10768,178.24365c0.02442,-0.055 0.04949,-0.10879 0.07525,-0.16127c-0.02962,-0.01623 -0.05928,-0.03256 -0.08894,-0.04898c0.00523,0.06916 0.00977,0.13927 0.01369,0.21026zM250.59318,178.93397c0.00192,-0.00121 0.00384,-0.00242 0.00576,-0.00363c-0.00174,0.00017 -0.00349,0.00032 -0.00525,0.00045zM253.51092,178.07613c-0.15193,-0.05438 -0.32011,-0.10819 -0.45563,-0.12753c-0.09568,0.11396 -0.19225,0.21529 -0.28969,0.30486c0.24814,-0.04954 0.49728,-0.10421 0.7453,-0.17732zM249.84528,177.51103c0.01313,0.04504 0.02462,0.09449 0.03434,0.14862c0.07268,-0.01412 0.14729,-0.02687 0.22326,-0.03794c-0.08567,-0.03607 -0.17152,-0.07312 -0.25759,-0.11068zM250.20496,178.31517c0.00419,0.00239 0.0084,0.00476 0.01259,0.00715c0.0024,-0.01383 0.00499,-0.02769 0.00775,-0.04158c-0.00709,0.01034 -0.01385,0.02185 -0.02034,0.03445zM249.99058,179.43113c0.03472,-0.03658 0.06971,-0.07183 0.10495,-0.10578c-0.01312,-0.01864 -0.02378,-0.03919 -0.03146,-0.06116l-0.03205,-0.08529c-0.0126,0.08511 -0.0261,0.17009 -0.04144,0.25225z" fill="#000000" fill-rule="nonzero" stroke="none" stroke-width="0.5" stroke-linecap="butt" stroke-linejoin="miter"/><path d="M279.70775,174.57906c0.08065,-0.08996 0.1606,-0.1884 0.23855,-0.29298c-0.07707,0.07191 -0.14623,0.13909 -0.20412,0.20013c-0.01163,0.03101 -0.0231,0.06196 -0.03442,0.09285zM281.07469,173.24753c-0.35921,0.94025 -1.00792,1.97697 -1.63396,2.18033c-0.01529,0.03896 -0.03047,0.07758 -0.04554,0.1159c-0.47824,1.70116 -0.52818,3.25292 -0.44865,4.92313c0.28086,0.92439 0.63576,1.88103 0.38794,2.76096l0.08388,0.02448l-0.08509,0.29158c-0.02754,0.10327 -0.11977,0.18107 -0.23215,0.18531c-0.09973,0.00378 -0.18802,-0.05141 -0.23128,-0.13439l-0.20781,-0.37906l0.01382,-0.00757l-0.03368,-0.03951c-0.15244,-1.42418 -0.27345,-2.7334 -0.25789,-4.01574c-0.14061,-1.18848 -0.09368,-2.24801 0.48968,-3.6053c0.12076,-0.43474 0.26744,-0.87563 0.44389,-1.32587c0.13453,-0.14789 0.36707,-0.35314 0.62069,-0.5766c-0.42196,0.26729 -1.00404,0.19273 -1.56942,0.05686c-0.3357,0.11764 -0.64679,0.18697 -0.91315,0.19706c-0.29321,0.01109 -0.62171,-0.02002 -0.95684,-0.05293c-0.00096,0.22827 0.0757,0.5581 0.25146,1.02359c0.14427,0.38212 0.18578,0.71362 0.42651,1.05068c0.69714,1.59328 1.00834,6.74201 -0.31054,8.4217l0.08703,0.08069l-0.18821,0.20301v0v0c-0.0435,0.04691 -0.10489,0.07724 -0.17389,0.07985c-0.13797,0.00522 -0.25405,-0.1024 -0.25927,-0.24037l-0.0148,-0.39122c-0.02249,-0.65181 -0.14682,-1.29195 -0.1718,-1.95239c-0.05213,-1.85221 0.57378,-3.87723 0.27547,-5.74908c-0.06821,-0.428 -0.27803,-0.80992 -0.45598,-1.20027c-0.0466,0.10111 -0.09474,0.20116 -0.1435,0.29914c-0.066,0.79473 -0.20505,1.80276 -0.41636,2.74378c0.00456,0.70778 -0.07112,1.35413 -0.34888,1.83366c-0.34354,0.56007 -1.21626,5.00391 -1.8721,4.52311c-0.42652,-0.31268 0.58731,-3.39411 0.59836,-3.89294c0.08199,-0.28513 0.17107,-0.59651 0.26021,-0.92633c-0.13812,-0.92201 -0.38575,-2.27212 -0.18837,-2.5935c0.20826,-0.33908 0.51998,-0.58845 0.81576,-0.88436c0.0342,-0.71755 -0.01695,-1.41025 -0.20555,-2.02016c-0.2307,-0.08257 -0.47452,-0.32445 -0.67704,-0.8115c-0.05502,-0.00332 -0.11059,-0.00526 -0.16677,-0.00581l-0.05558,-0.08078l-0.02752,0.02968l-0.20301,-0.18821c-0.04691,-0.0435 -0.07724,-0.10489 -0.07985,-0.17389c-0.00522,-0.13797 0.1024,-0.25405 0.24037,-0.25927l0.29341,-0.0111l0.00072,0.01901c0.01136,-0.00478 0.0236,-0.00913 0.03677,-0.01294c0.05032,-0.01462 0.09316,-0.01563 0.12946,-0.00809c2.13611,-0.3913 4.0761,0.61909 6.34537,-1.00243c0.08054,-0.03027 0.15595,-0.0613 0.22659,-0.09303c0.09532,-0.47933 0.17766,-1.00962 0.43406,-1.25007c0.33068,-0.31011 0.64858,-0.55076 0.95011,-0.72447c0.02247,-0.05 0.04685,-0.10027 0.07363,-0.15077c-0.11534,-0.23972 -0.09334,-0.45294 0.17316,-0.59681c0.07509,-0.04054 0.14964,-0.05704 0.22337,-0.05268l0.02834,-0.09713c0.02754,-0.10327 0.11977,-0.18107 0.23215,-0.18531c0.13797,-0.00522 0.25405,0.1024 0.25927,0.24037l0.0111,0.29341l-0.08429,0.00319l-0.00313,0.01075c0.05099,0.0566 0.10126,0.12096 0.15069,0.19181c0.98053,-0.02862 1.6492,0.89208 1.79988,2.61707c0.03794,0.85511 0.05551,1.70647 0.06439,2.55673c0.54504,1.9833 0.97792,4.42165 0.19904,5.94166l0.09808,0.05626l-0.24663,0.42996c-0.04096,0.07421 -0.11868,0.12574 -0.20956,0.12919c-0.13797,0.00522 -0.25405,-0.1024 -0.25927,-0.24037l-0.0111,-0.29341c-0.06822,-1.80337 -0.05384,-3.58491 -0.06488,-5.36829c-0.11389,-0.78787 -0.28395,-1.577 -0.55055,-2.36723c-0.11028,-0.26904 -0.71097,-1.51837 -1.09302,-2.4358c-0.06998,-0.01687 -0.14,-0.02919 -0.20959,-0.03589c-0.2332,0.45382 -0.58474,0.90639 -1.00258,1.32936c0.07168,0.35029 0.15956,0.7196 0.06585,0.95218c-0.07495,0.18598 -0.25657,0.40741 -0.48144,0.63745zM276.94334,176.74199c0.13366,1.76853 -0.37785,3.78364 -0.29808,5.36078c0.01314,0.34743 0.05246,0.68765 0.09071,1.02715c0.12026,-0.40474 0.26743,-0.80175 0.29221,-0.9634c0.21177,-1.38144 0.33567,-3.86742 -0.08484,-5.42454zM275.24848,175.39609c0.08058,-0.3848 0.12753,-0.72205 0.11582,-0.98247l-0.00826,-0.21845c-0.08783,0.35214 -0.11322,0.76148 -0.10755,1.20092zM274.44162,178.06408c0.05382,-0.27787 0.10131,-0.55915 0.13945,-0.84048c-0.19591,0.16411 -0.37044,0.3063 -0.36807,0.31031c0.09898,0.16707 0.17307,0.34475 0.22862,0.53017zM275.86775,173.79202c-0.03121,-0.00181 -0.06229,-0.00342 -0.09327,-0.00478c-0.01946,0.00167 -0.03885,0.00325 -0.05817,0.00472c0.02816,0.01493 0.05319,0.03513 0.07372,0.05929l0.05081,0.0588c0.00745,-0.03477 0.01672,-0.07494 0.02692,-0.11804zM280.17738,173.43399c0.17346,-0.15449 0.34571,-0.31172 0.49375,-0.45997c0.08237,-0.21591 0.1419,-0.42305 0.1707,-0.6071c-0.07143,0.25523 -0.18513,0.46427 -0.40524,0.56256c-0.06472,0.21075 -0.1528,0.37627 -0.2592,0.50451zM283.81086,171.20628c0.22365,0.66358 0.38413,1.25311 0.45331,1.41981c0.01364,0.04169 0.02748,0.08414 0.04153,0.12729c-0.00796,-0.25478 -0.01743,-0.50983 -0.0287,-0.76519c-0.01188,-0.14067 -0.02604,-0.2749 -0.04257,-0.40259c-0.00326,0.00025 -0.00655,0.00044 -0.00985,0.00056c-0.08809,0.00333 -0.16725,-0.03934 -0.21434,-0.10653l-0.19394,-0.26833c-0.00173,-0.00163 -0.00355,-0.00332 -0.00545,-0.00505zM279.49404,173.17915c0.15094,-0.04681 0.28136,-0.1207 0.38338,-0.23064c-0.12763,0.08105 -0.25572,0.15808 -0.38338,0.23064zM279.34896,172.80589c-0.30964,0.13194 -0.65596,0.26575 -1.02082,0.3908c0.03797,0.0052 0.07581,0.01012 0.11344,0.01472c0.30844,-0.10084 0.61385,-0.23858 0.90737,-0.40551zM281.03431,171.33004c-0.0016,0.00666 -0.00318,0.01333 -0.00473,0.02002c0.00221,-0.0029 0.00442,-0.00579 0.00662,-0.00869c-0.00065,-0.00377 -0.00127,-0.00756 -0.0019,-0.01134zM283.30522,169.92012c0.13905,0.0228 0.27029,0.06041 0.38974,0.11398c-0.13068,-0.14082 -0.28342,-0.22657 -0.45984,-0.25576c0.02363,0.04621 0.04701,0.09353 0.07011,0.14178z" fill="#000000" fill-rule="nonzero" stroke="none" stroke-width="0.5" stroke-linecap="butt" stroke-linejoin="miter"/></g></g></g></svg>