<svg version="1.1" xmlns="http://www.w3.org/2000/svg" xmlns:xlink="http://www.w3.org/1999/xlink" width="91.88766" height="83.87809" viewBox="0,0,91.88766,83.87809"><g transform="translate(-220.98238,-117.2237)"><g data-paper-data="{&quot;isPaintingLayer&quot;:true}" fill-rule="nonzero" stroke="none" stroke-linecap="butt" stroke-linejoin="miter" stroke-miterlimit="10" stroke-dasharray="" stroke-dashoffset="0" style="mix-blend-mode: normal"><path d="M261.39117,182.56223l-0.12996,0.09104c-2.3865,1.61572 -5.90434,1.9289 -8.02161,4.07415c-1.01505,0.56568 -2.25997,1.62613 -3.34619,1.94556c-2.27523,0.66908 -4.76402,0.42735 -7.10681,1.23891c-2.46621,0.85433 -4.98337,2.52809 -7.2159,3.9551c-3.44243,2.19942 -6.95296,4.02801 -10.57523,5.83984c-0.70563,0.35296 -3.28254,2.17141 -3.96645,1.01482c-0.36432,-0.61611 1.51527,-3.4832 1.8401,-4.0151c4.11041,-5.39873 7.455,-11.102 10.36395,-17.40445c0.96887,-1.69826 2.16693,-3.23231 3.106,-4.93646c2.30964,-4.19135 4.01806,-9.19068 7.57104,-12.33694c0.48951,-1.83281 1.79784,-3.38479 2.09613,-5.2906c0.77823,-4.97212 -1.09146,-10.21601 1.09998,-14.94564c0.94588,-2.02872 2.26916,-3.93791 2.96252,-6.10766c0.5044,-1.57842 0.47827,-3.3802 1.2189,-4.88471c1.13819,-2.31209 4.5929,-4.15742 6.51379,-5.70232c5.14222,-4.13108 12.03546,-5.14881 18.12976,-6.54602c4.01567,-1.08241 7.67231,-1.74184 11.80633,-1.03439c0.73072,0.12505 2.23599,0.10952 2.85721,0.5278c1.06032,0.71395 2.06047,3.06273 2.79601,4.17938c3.73154,5.66501 7.46308,11.33002 11.19462,16.99503c1.95462,2.96739 3.90923,5.93477 5.86385,8.90216c0.63039,0.95702 1.86717,2.25812 2.19666,3.37646c0.49115,1.66697 0.02214,4.38172 0.02193,6.14395c-0.00084,6.77402 -0.04971,15.46169 -5.78554,19.28806c-5.43739,3.59525 -12.84303,2.88407 -18.91039,2.88409c-4.19677,0.00006 -8.48122,-0.2573 -12.6678,0.10203c-2.04241,0.1753 -4.09868,1.08562 -6.15199,1.42082c-2.20347,0.57918 -5.11194,1.23239 -7.76091,1.22509z" fill="#000000" stroke-width="0.5"/><path d="M280.22041,152.50823c1.39934,4.66423 -1.68021,9.98045 -6.87837,11.87411c-5.19815,1.89365 -17.03316,-13.02471 -17.03316,-13.02471c0,0 22.51217,-3.51362 23.91152,1.15061z" data-paper-data="{&quot;index&quot;:null}" fill="#ffffff" stroke-width="0"/><path d="M285.92997,152.41631c-1.39934,-4.66422 18.57735,-16.62903 18.57735,-16.62903c0,0 -1.43339,19.75196 -6.63154,21.64561c-5.19816,1.89365 -10.54649,-0.35234 -11.94583,-5.01658z" data-paper-data="{&quot;index&quot;:null}" fill="#ffffff" stroke-width="0"/></g></g></svg>