<svg version="1.1" xmlns="http://www.w3.org/2000/svg" xmlns:xlink="http://www.w3.org/1999/xlink" width="180.43554" height="114.79942" viewBox="0,0,180.43554,114.79942"><defs><linearGradient x1="234.45583" y1="212.32292" x2="229.79479" y2="230.32944" gradientUnits="userSpaceOnUse" id="color-1"><stop offset="0" stop-color="#ffffff"/><stop offset="1" stop-color="#9f9f9f"/></linearGradient><radialGradient cx="272.40381" cy="173.32866" r="8.13758" gradientUnits="userSpaceOnUse" id="color-2"><stop offset="0" stop-color="#ffffff"/><stop offset="1" stop-color="#1a1a1a"/></radialGradient><radialGradient cx="250.52874" cy="176.54442" r="6.75889" gradientUnits="userSpaceOnUse" id="color-3"><stop offset="0" stop-color="#ffffff"/><stop offset="1" stop-color="#1a1a1a"/></radialGradient><linearGradient x1="356.76593" y1="183.28448" x2="359.982" y2="194.42975" gradientUnits="userSpaceOnUse" id="color-4"><stop offset="0" stop-color="#ffce72"/><stop offset="1" stop-color="#ff4400"/></linearGradient><linearGradient x1="338.3567" y1="168.54505" x2="338.60264" y2="228.87543" gradientUnits="userSpaceOnUse" id="color-5"><stop offset="0" stop-color="#979797"/><stop offset="1" stop-color="#030303"/></linearGradient><linearGradient x1="315.80818" y1="182.6072" x2="308.98036" y2="191.98487" gradientUnits="userSpaceOnUse" id="color-6"><stop offset="0" stop-color="#ffce72"/><stop offset="1" stop-color="#ff4400"/></linearGradient></defs><g transform="translate(-201.61893,-145.54796)"><g data-paper-data="{&quot;isPaintingLayer&quot;:true}" stroke-miterlimit="10" stroke-dasharray="" stroke-dashoffset="0" style="mix-blend-mode: normal"><path d="M238.17582,218.05908c-3.57956,8.3051 -6.11833,14.92194 -10.61386,13.25656c-6.36486,-2.35787 -1.46028,-8.61269 2.11928,-16.91779c3.57956,-8.3051 8.41808,-15.83636 11.20758,-14.63406c2.7895,1.2023 0.86657,9.99019 -2.713,18.29529z" fill="#717171" fill-rule="nonzero" stroke="#001026" stroke-width="1.2" stroke-linecap="butt" stroke-linejoin="miter"/><g fill-rule="nonzero" stroke="#001026" stroke-width="1.2" stroke-linejoin="miter"><g><g><path d="M231.60036,217.36834l2.70643,-10.45539l2.51704,0.65154l-2.70643,10.45541z" fill="#2c2c2c" stroke-linecap="butt"/><path d="M228.86017,228.61556l2.3094,0.65321l-4.60548,14.07798z" fill="#6c6c6c" stroke-linecap="butt"/><path d="M226.21285,229.40224l4.66105,-18.00652l7.16388,1.85439l-4.66103,18.00653z" fill="url(#color-1)" stroke-linecap="butt"/><path d="M230.22235,213.91275l3.43502,1.09576" fill="none" stroke-linecap="round"/><path d="M232.80533,218.30003l-3.04777,-0.99551" fill="none" stroke-linecap="round"/><path d="M231.57294,220.66672l-2.61043,-1.0889" fill="none" stroke-linecap="round"/><path d="M228.3975,223.35681l2.12979,0.55131" fill="none" stroke-linecap="round"/><path d="M230.0124,227.49347l-2.75392,-1.33263" fill="none" stroke-linecap="round"/></g><path d="M231.53913,207.2295l0.70167,-2.71065l7.3575,1.90451l-0.70165,2.71067z" fill="#2c2c2c" stroke-linecap="butt"/></g><path d="M231.06727,220.22592c-0.73352,2.83372 -2.58509,4.80553 -4.13561,4.40416c-1.55052,-0.40136 -2.21283,-3.0239 -1.47931,-5.85761c0.73352,-2.83372 2.5851,-4.80552 4.13561,-4.40416c1.55052,0.40136 2.21284,3.02391 1.47932,5.85762z" fill="#717171" stroke-linecap="butt"/><path d="M241.1924,221.81389c-1.12103,4.33077 -4.24032,7.26935 -6.96709,6.56353c-2.72678,-0.70583 -4.02849,-4.78879 -2.90747,-9.11957c1.12103,-4.33077 4.2403,-7.26936 6.96708,-6.56354c2.72678,0.70583 4.02849,4.78881 2.90748,9.11958z" fill="#717171" stroke-linecap="butt"/></g><g fill-rule="evenodd"><path d="M226.18634,211.32467c0.35662,0.93425 2.62201,2.83109 -1.34838,3.98269c-4.03898,1.02794 -13.58571,1.31104 -19.96734,-8.7336c-6.86191,-10.91028 1.26165,-20.75448 5.60179,-19.92789c4.24398,0.79907 0.68283,7.06072 1.51604,15.4127c1.11957,12.07464 13.84127,8.33182 14.19788,9.26608z" fill="#717171" stroke="#001026" stroke-width="1.2" stroke-linecap="round" stroke-linejoin="round"/><path d="M211.73288,192.41574c-0.73047,4.36766 -0.59489,7.52702 -0.59489,7.52702c0,0 -0.98766,-2.36315 -3.40506,-2.63924c-2.92559,-0.31758 -4.45147,1.74198 -4.74029,2.38741c-0.20502,-1.82702 -0.20379,-4.01106 0.97942,-7.41693c1.4441,-3.22715 4.55005,-6.08251 6.84338,-5.00982c1.81263,0.93507 1.27608,2.44574 0.91743,5.15154z" fill="#ffffff" stroke="none" stroke-width="1" stroke-linecap="butt" stroke-linejoin="miter"/></g><path d="M248.31982,236.37532c0,3.86599 -11.83333,3 -11.83333,3c0,0 -10.5,0.86599 -10.5,-3c0,-3.45051 2.7452,-32.89294 7.69909,-34.5825c3.83539,-1.30808 4.43187,28.24917 5.13424,28.24917c6.53537,0 9.5,2.46734 9.5,6.33333z" fill="#717171" fill-rule="nonzero" stroke="#001026" stroke-width="1.2" stroke-linecap="butt" stroke-linejoin="miter"/><path d="M242.31982,237.04199c0,3.86599 -11.83333,3 -11.83333,3c0,0 -10.5,0.86599 -10.5,-3c0,-3.45051 2.7452,-32.89294 7.69909,-34.58249c3.83539,-1.30808 4.43187,28.24916 5.13424,28.24916c6.53537,0 9.5,2.46734 9.5,6.33333z" fill="#717171" fill-rule="nonzero" stroke="#001026" stroke-width="1.2" stroke-linecap="butt" stroke-linejoin="miter"/><g fill-rule="evenodd"><path d="M229.4845,218.43372c-9.14185,-0.9068 -5.85067,-9.22495 -4.58568,-18.58121c0.64864,-5.05856 3.25701,-11.04683 9.2927,-12.05202c3.35639,-0.73792 4.272,5.51835 6.29363,4.64486c3.05018,-1.26348 4.19096,3.43742 4.23578,6.0941c0,0 0.00274,3.95601 -0.53919,6.19349c-0.64516,2.81136 -1.47734,5.69364 -2.2803,6.96063c0,0 -2.56907,7.71697 -12.41694,6.74016z" fill="#717171" stroke="#001026" stroke-width="1.2" stroke-linecap="round" stroke-linejoin="round"/><path d="M241.14554,211.87635c0,0 -1.82802,-0.59025 -3.85589,-1.42554c-2.50826,-0.97399 -4.91014,-1.66746 -4.13914,-5.27517c0.83216,-2.88227 1.28721,-6.47712 6.52305,-5.36093c4.97793,1.00009 4.08771,4.01131 4.08771,4.01131c-0.46166,4.98767 -2.61574,8.05035 -2.61574,8.05035z" fill="#ffffff" stroke="none" stroke-width="1" stroke-linecap="butt" stroke-linejoin="miter"/></g><g><g><path d="M267.42883,146.0472c0.30001,-0.2 0.80001,-0.09996 0.89999,0.30006l2.59945,10.70014c0,0 6.39976,4.70033 8.29958,8.00043c3.19972,5.50017 3.29949,10.00017 3.29949,10.00017c0,0 7.09988,2.10038 8.2996,7.80044c1.1997,5.70006 -3.20084,16.49982 -22.00104,20.19885c-18.80018,3.69902 -33.89993,-1.40176 -40.99934,-12.80213c-7.09941,-11.40037 4.10129,-24.99979 3.50125,-24.19982l-2.09907,-17.9001c-0.09998,-0.40001 0.40002,-0.69998 0.80002,-0.49995l12.09959,7.90062c0,0 4.5001,-1.69977 9.2001,-1.89952c2.80001,-0.19986 5.2,0.00028 7.49998,0.40039z" fill="#717171" fill-rule="evenodd" stroke="#001026" stroke-width="1.2" stroke-linecap="butt" stroke-linejoin="miter"/><path d="M275.60238,174.09248c-0.00023,4.0731 -6.10051,7.37468 -13.62538,7.37429c-7.52488,-0.00041 -13.62483,-3.30262 -13.62462,-7.37571c0.00023,-4.0731 6.10051,-7.37468 13.62538,-7.37429c7.52488,0.00041 13.62484,3.30261 13.62462,7.37571z" fill="#000000" fill-rule="nonzero" stroke="none" stroke-width="NaN" stroke-linecap="butt" stroke-linejoin="miter"/><path d="M282.22731,175.44798c0,0 6.8999,1.80036 8.0996,7.50044c1.1997,5.70006 -3.60083,15.99981 -22.20102,19.59884c-24.20025,4.99873 -35.6995,-9.40185 -28.99896,-20.00151c6.70056,-10.69966 18.2001,-1.59905 26.60013,-2.19863c7.20003,-0.49963 8.00035,-6.79959 16.50026,-4.89914z" fill="#ffffff" fill-rule="evenodd" stroke="none" stroke-width="1" stroke-linecap="butt" stroke-linejoin="miter"/><path d="M300.62726,176.54894c-4.7002,3.79976 -11.9002,3.89939 -11.9002,3.89939" fill="none" fill-rule="evenodd" stroke="#001026" stroke-width="1.2" stroke-linecap="round" stroke-linejoin="round"/><path d="M299.32667,187.74887c-6.30002,0.49966 -10.19994,-1.40054 -10.19994,-1.40054" fill="none" fill-rule="evenodd" stroke="#001026" stroke-width="1.2" stroke-linecap="round" stroke-linejoin="round"/><path d="M265.32721,177.74711c2.10001,0.00011 4.29998,0.20022 4.39996,0.90022c0.09992,1.39999 -1.40022,4.19992 -3.0002,4.29985c-1.80001,0.19991 -5.99987,-2.30032 -5.9998,-3.90031c-0.09994,-1.20002 2.60006,-1.29987 4.60005,-1.29977z" fill="#001026" fill-rule="evenodd" stroke="#001026" stroke-width="1.2" stroke-linecap="round" stroke-linejoin="round"/><path d="M220.32727,176.24476c0,0 8.59985,2.80045 12.0997,5.90063" fill="none" fill-rule="evenodd" stroke="#001026" stroke-width="1.2" stroke-linecap="round" stroke-linejoin="round"/><path d="M232.72677,185.6454c-4.30009,1.69977 -11.70002,0.59939 -11.70002,0.59939" fill="none" fill-rule="evenodd" stroke="#001026" stroke-width="1.2" stroke-linecap="round" stroke-linejoin="round"/><path d="M278.57518,170.22977c2.89976,4.50015 1.55212,5.41811 -1.24797,7.21797c-2.80009,1.79986 -7.39999,-0.30039 -10.39976,-4.80054c-1.50673,-2.3236 -3.98521,-6.93855 -2.60024,-6.40506c15.74741,6.06592 13.19166,2.6378 13.79845,3.41419c0.14968,0.19153 0.31718,0.36802 0.44953,0.57344z" fill="url(#color-2)" fill-rule="evenodd" stroke="#001026" stroke-width="1.2" stroke-linecap="round" stroke-linejoin="round"/><path d="M252.32765,168.84642c2.99978,4.40016 2.79948,9.80014 0.09939,11.70001c-3.30011,1.89982 -7.70002,0.49959 -10.69979,-3.90055c8.80255,-0.53927 7.60063,-12.1996 10.60039,-7.79945z" fill="url(#color-3)" fill-rule="evenodd" stroke="#001026" stroke-width="1.2" stroke-linecap="round" stroke-linejoin="round"/><path d="M264.85141,192.59193c-0.00015,2.69239 -14.50062,18.95551 -21.2661,18.95516c-6.76549,-0.00035 -3.23403,-16.26406 -3.23389,-18.95645c0.00015,-2.69239 2.2345,0.37512 8.99997,0.37547c6.7655,0.00035 15.50015,-3.06658 15.50001,-0.37419z" fill="#000000" fill-rule="nonzero" stroke="#001026" stroke-width="1.2" stroke-linecap="butt" stroke-linejoin="miter"/></g><path d="M249.14926,181.00546c0.01771,0.02445 0.03419,0.05263 0.04934,0.08474c0.13509,-0.02609 0.27514,-0.06362 0.42092,-0.11402c0.11789,-0.00074 0.23658,-0.00074 0.35571,-0.00081c0.44664,-0.15996 0.86949,-0.32788 1.08758,-0.38194c0.25571,-0.10257 0.53126,-0.12642 0.79837,-0.13148c0.09537,-0.35306 0.27645,-0.65335 0.7517,-0.76139c0.26829,-0.06099 0.50752,-0.0588 0.70673,-0.00858c0.09805,-0.1075 0.1964,-0.20939 0.29312,-0.29713c0.44334,-1.036 0.71419,-2.5558 0.89861,-3.09622l0.00001,-0.26296c0,-0.13806 0.11192,-0.25 0.25,-0.24999c0.13806,0 0.24999,0.11194 0.25,0.25002l-0.00001,0.29361l-0.06319,-0.00001c0.00186,0.00718 0.0037,0.01438 0.00551,0.0216l0.05443,0.01845c-0.00942,0.02917 -0.01888,0.05948 -0.02835,0.09082c0.41956,1.86289 -0.21426,4.63503 -0.78064,6.74384c-0.08526,2.07255 -0.39003,4.84469 -1.3079,6.40204l0.05052,0.01735l-0.09594,0.27954c-0.03207,0.10109 -0.12665,0.17434 -0.23837,0.17433c-0.13806,0 -0.24999,-0.11194 -0.24999,-0.25002c0.00001,-0.00082 0.00001,-0.00162 0.00002,-0.00245l0.00426,-0.49965l0.00849,0.00007l-0.00689,-0.02642c0.34182,-1.54928 0.56228,-3.08856 0.91318,-4.62703c0.19374,-0.71049 0.32663,-1.38603 0.4271,-2.04815c0.01576,-0.27081 0.02443,-0.54196 0.02444,-0.81339c0.00064,-0.31033 0.04529,-0.61391 0.09322,-0.91738c-0.10451,0.19605 -0.2767,0.39784 -0.52687,0.59109c-1.02504,0.97974 -2.16492,1.06005 -3.23242,1.24654l-0.0583,0.14575c-0.03546,0.09495 -0.12698,0.16256 -0.2343,0.16255c-0.12058,0 -0.22123,-0.08537 -0.24478,-0.19898c-0.65022,0.15775 -1.25949,0.42439 -1.78171,1.0475l-0.25088,0.41116c-0.04343,0.07395 -0.12378,0.12362 -0.21574,0.12362c-0.12849,0 -0.23435,-0.09695 -0.2484,-0.22169l-0.05122,-0.40133l0.07559,-0.00965c-0.10861,-0.61454 0.00446,-1.0854 0.26678,-1.44605c-0.01883,-0.03233 -0.03845,-0.06526 -0.05883,-0.09867c-0.91906,2.00689 -0.36649,4.36989 -0.93715,6.40574c-0.00749,0.07186 -0.01525,0.14399 -0.02317,0.21652l0,0.28348c0,0.13806 -0.11194,0.24998 -0.25002,0.24999c-0.13806,0 -0.24998,-0.11194 -0.24999,-0.25002l0.00001,-0.29361l0.00639,-0.00001l-0.00603,-0.01346c0.00632,-0.05876 0.01258,-0.11722 0.01871,-0.17549c-0.15696,-0.42498 -0.02032,-1.30683 -0.01898,-1.67066c0.00243,-0.65928 0.06917,-1.51386 0.21514,-2.37593c0.04106,-0.71357 0.07886,-1.43082 0.08628,-2.13193l-0.05116,0.06326c-0.04581,0.05759 -0.11649,0.0945 -0.19578,0.09449c-0.13806,0 -0.24998,-0.11194 -0.24998,-0.25001c0.00001,-0.04199 0.01035,-0.08156 0.02863,-0.1163l0.19352,-0.38699l0.01341,0.0067c0.03518,-0.15607 0.07847,-0.30984 0.13504,-0.45911c0.00242,-0.00637 0.00508,-0.01308 0.00796,-0.02009c-0.24259,-0.14662 -0.48621,-0.2887 -0.73073,-0.41638c-0.00365,0.00314 -0.00729,0.00631 -0.01093,0.00955c-0.03458,0.03082 -0.06711,0.06581 -0.09788,0.10426c-0.15152,0.5598 -0.30447,1.10831 -0.53486,1.63275l0.05754,0.01644l-0.13586,0.47544c-0.02806,0.10739 -0.12574,0.18662 -0.2419,0.18661c-0.08085,0 -0.15272,-0.03838 -0.19841,-0.0979c-0.13684,-0.00143 -0.24732,-0.1128 -0.24733,-0.24999l0.00003,-0.39151l0.0778,0.00001c-0.08151,-0.67615 0.09875,-1.17256 0.42554,-1.4924c0.07809,-0.16955 0.16494,-0.33527 0.25817,-0.49018c-0.05113,-0.01964 -0.10228,-0.03827 -0.15346,-0.05584c-0.19971,-0.20212 -0.33294,-0.47468 -0.40691,-0.74902l0.00054,-0.01021l-0.00235,0.00038l-0.08139,-0.48855c-0.00274,-0.01482 -0.00419,-0.03011 -0.00419,-0.04575c0,-0.13806 0.11194,-0.24999 0.25002,-0.25c0.12548,0 0.22935,0.09246 0.24725,0.21296l0.05501,0.33016c0.05506,0.05442 0.11007,0.10459 0.16502,0.15079c0.04547,-0.06233 0.11907,-0.10283 0.20211,-0.10281l0.3915,0.00003l0.00001,0.01445l0.04005,-0.01122c0.22434,0.07249 0.43565,0.16394 0.63855,0.26539c0.17934,0.04334 0.34238,0.12215 0.44797,0.24354c0.0528,0.03053 0.10524,0.06131 0.15741,0.09215c0.76228,-0.04617 1.54601,-0.16971 2.38563,0.42182c0.10992,0.07744 0.1771,0.1728 0.21238,0.27921zM251.51104,181.74375c-0.01613,0.00488 -0.0323,0.0097 -0.04847,0.01441c0.02116,0.00411 0.03431,0.00437 0.03804,-0.00047c0.00353,-0.00461 0.007,-0.00927 0.01044,-0.01394zM254.00992,179.8898c0.00897,-0.09196 0.0181,-0.18423 0.02739,-0.27688c-0.06244,0.13779 -0.12884,0.26954 -0.19964,0.393c0.03503,0.05568 0.06284,0.1071 0.08406,0.15457c0.00094,-0.01063 0.00183,-0.02129 0.0027,-0.03192c0.00519,-0.06401 0.04411,-0.15205 0.08546,-0.2388zM253.35938,180.724c-0.04225,0.00279 -0.08511,0.00471 -0.12811,0.00606c-0.07897,0.05731 -0.16178,0.10511 -0.2487,0.14206c-0.00231,0.00098 -0.00463,0.00196 -0.00695,0.00289l0.04494,0c0.0584,0.00001 0.11213,0.02002 0.15467,0.05361c0.07494,-0.0713 0.13602,-0.13976 0.18417,-0.20461zM252.31803,180.46033c0.00134,-0.00002 0.00267,-0.00003 0.004,-0.00007c0.13417,-0.04368 0.27629,-0.07852 0.41287,-0.10606c0.06833,-0.07328 0.13934,-0.15373 0.21209,-0.23737c-0.10307,0.01351 -0.21841,0.04087 -0.34415,0.08362c-0.12878,0.04379 -0.21841,0.13654 -0.28483,0.25988zM248.31126,182.11779c-0.02788,0.00105 -0.05571,0.00172 -0.08335,0.00206c-0.01033,0.04048 -0.01993,0.08187 -0.02903,0.124l0.09967,-0.09967c0.00431,-0.00886 0.00854,-0.01766 0.01271,-0.02639zM251.95258,181.81904c0.19414,-0.09218 0.38697,-0.20436 0.57773,-0.34296c-0.06211,0.02106 -0.12447,0.03806 -0.18568,0.04902c-0.03391,0.07193 -0.10114,0.12508 -0.18176,0.13956l-0.1656,0.03311c-0.0136,0.04166 -0.0284,0.08221 -0.04468,0.12127zM246.75365,182.09982c0.02648,-0.05402 0.05357,-0.10683 0.08129,-0.15829c-0.02898,-0.01734 -0.058,-0.03477 -0.08703,-0.05232c0.00261,0.0693 0.00448,0.13954 0.00573,0.21061zM248.21196,182.84588c0.00197,-0.00114 0.00393,-0.00227 0.00589,-0.00341c-0.00174,0.00009 -0.0035,0.00018 -0.00526,0.00026zM251.16007,182.0991c-0.14978,-0.06008 -0.31579,-0.12022 -0.45046,-0.14469c-0.09993,0.11028 -0.20027,0.20785 -0.30103,0.29367c0.24983,-0.0401 0.50087,-0.08532 0.75148,-0.14898zM247.51844,181.39566c0.0114,0.04549 0.02102,0.09535 0.02869,0.1498c0.07316,-0.01136 0.1482,-0.02128 0.22454,-0.02947c-0.08424,-0.03928 -0.16863,-0.07955 -0.25322,-0.12035zM247.84743,182.21282c0.00411,0.00254 0.00821,0.00508 0.0123,0.00762c0.00291,-0.01372 0.00603,-0.02748 0.00932,-0.04127c-0.00747,0.01008 -0.01468,0.0213 -0.02163,0.03365zM247.59096,183.31987c0.03608,-0.03524 0.07237,-0.06915 0.10889,-0.10174c-0.01241,-0.01914 -0.02228,-0.04006 -0.02912,-0.0623l-0.0288,-0.08644c-0.01581,0.08459 -0.03252,0.16899 -0.05096,0.2505z" fill="#000000" fill-rule="nonzero" stroke="none" stroke-width="0.5" stroke-linecap="butt" stroke-linejoin="miter"/><path d="M277.47049,179.59618c0.084,-0.08684 0.16762,-0.18219 0.24947,-0.28374c-0.07975,0.06894 -0.15139,0.13346 -0.21155,0.19226c-0.01279,0.03054 -0.02544,0.06103 -0.03793,0.09148zM278.88686,178.31735c-0.39454,0.92598 -1.08204,1.9374 -1.71532,2.11692c-0.01675,0.03835 -0.03339,0.07637 -0.0499,0.11408c-0.5423,1.68185 -0.65093,3.23061 -0.63468,4.90261c0.24568,0.93437 0.5641,1.90375 0.28315,2.77365l0.0829,0.02763l-0.09605,0.28814c-0.03143,0.10217 -0.12654,0.17639 -0.23901,0.1764c-0.0998,0 -0.18594,-0.05849 -0.22603,-0.14307l-0.19331,-0.38666l0.01409,-0.00704l-0.03216,-0.04077c-0.09843,-1.42893 -0.16977,-2.74182 -0.10568,-4.02263c-0.09552,-1.19295 -0.00852,-2.24994 0.6258,-3.58418c0.13713,-0.42987 0.3004,-0.86488 0.49376,-1.30811c0.14002,-0.1427 0.38018,-0.33898 0.64208,-0.55268c-0.43178,0.25114 -1.01062,0.15458 -1.57044,-0.00259c-0.33992,0.10484 -0.65339,0.16234 -0.91996,0.16234c-0.29341,-0.00002 -0.62051,-0.04352 -0.95415,-0.0891c-0.0096,0.22806 0.05453,0.56055 0.21254,1.03238c0.12971,0.38731 0.15862,0.72014 0.38642,1.06608c0.63632,1.61853 0.75241,6.77534 -0.62911,8.4039l0.08391,0.08393l-0.19576,0.19574v0v0c-0.04523,0.04523 -0.10775,0.07321 -0.17679,0.07322c-0.13806,0 -0.24998,-0.11194 -0.24999,-0.25002l0.00002,-0.3915c0.0022,-0.6522 -0.0978,-1.29659 -0.09778,-1.95749c0.01802,-1.85285 0.72015,-3.85274 0.49291,-5.73453c-0.05195,-0.43027 -0.24718,-0.81984 -0.41021,-1.21667c-0.05039,0.09927 -0.10227,0.19742 -0.15473,0.29351c-0.09605,0.79166 -0.27313,1.79369 -0.51991,2.72606c-0.02224,0.70745 -0.12233,1.35047 -0.41804,1.81913c-0.36448,0.54668 -1.4048,4.95428 -2.04198,4.449c-0.41438,-0.3286 0.71536,-3.36946 0.74529,-3.86749c0.09272,-0.28182 0.19352,-0.58961 0.29509,-0.91582c-0.10312,-0.92657 -0.29947,-2.2851 -0.09006,-2.59878c0.22093,-0.33097 0.54187,-0.56835 0.84865,-0.85286c0.06133,-0.71576 0.03646,-1.40987 -0.12893,-2.02649c-0.22741,-0.09124 -0.46189,-0.34218 -0.64583,-0.83655c-0.05485,-0.00538 -0.11032,-0.00943 -0.16644,-0.01212l-0.05246,-0.08282l-0.02863,0.02862l-0.19574,-0.19575c-0.04523,-0.04523 -0.0732,-0.10775 -0.07321,-0.17679c0,-0.13806 0.11194,-0.24999 0.25001,-0.24999h0.29361l0,0.01903c0.01155,-0.00436 0.02393,-0.00823 0.03724,-0.01156c0.05084,-0.0127 0.09369,-0.01209 0.12966,-0.00317c2.14939,-0.31014 4.04976,0.77294 6.37876,-0.76153c0.08164,-0.02721 0.15815,-0.05534 0.22994,-0.08439c0.1134,-0.47538 0.21575,-1.00218 0.48107,-1.23274c0.34218,-0.29737 0.66897,-0.52581 0.97685,-0.68798c0.02435,-0.04912 0.05062,-0.09844 0.07927,-0.14789c-0.10618,-0.24392 -0.07613,-0.45614 0.19563,-0.58982c0.07658,-0.03768 0.15171,-0.05134 0.22521,-0.04418l0.03199,-0.09599c0.03143,-0.10217 0.12653,-0.1764 0.23899,-0.1764c0.13806,0 0.24999,0.11194 0.24999,0.25002l-0.00001,0.29361l-0.08434,-0.00001l-0.00355,0.01064c0.0488,0.05848 0.0966,0.1247 0.14334,0.19738c0.98091,0.00851 1.61425,0.95386 1.69953,2.68333c0.00554,0.85593 -0.00913,1.70735 -0.03243,2.55734c0.46957,2.0025 0.80984,4.45549 -0.02602,5.94492l0.09588,0.05994l-0.26274,0.42031c-0.04374,0.07261 -0.12334,0.12117 -0.21429,0.12116c-0.13806,0 -0.24999,-0.11194 -0.25,-0.25003l0,-0.29361c0.00009,-1.80464 0.0819,-3.58438 0.13837,-5.3669c-0.08398,-0.79162 -0.22404,-1.5866 -0.46055,-2.38637c-0.10003,-0.27303 -0.65298,-1.54419 -1.00002,-2.47543c-0.0693,-0.01951 -0.13881,-0.03447 -0.20809,-0.04381c-0.25021,0.44466 -0.61862,0.8836 -1.05218,1.29046c0.05838,0.35276 0.13222,0.72512 0.02975,0.95398c-0.08193,0.183 -0.27182,0.39742 -0.50522,0.61877zM274.62619,181.65292c0.06663,1.77232 -0.5208,3.76663 -0.50079,5.34565c-0.00003,0.34768 0.02639,0.68914 0.05177,1.02984c0.1355,-0.3999 0.29759,-0.79106 0.32848,-0.95164c0.26392,-1.37241 0.48182,-3.85194 0.12055,-5.42386zM272.9835,180.24384c0.09509,-0.38147 0.15476,-0.71671 0.15292,-0.97738l0.00002,-0.21863c-0.10108,0.34857 -0.14197,0.75664 -0.15294,1.19599zM272.07622,182.87935c0.06429,-0.27563 0.1224,-0.5549 0.17115,-0.8346c-0.20197,0.15659 -0.38177,0.29205 -0.37955,0.29615c0.0926,0.17069 0.15992,0.35107 0.20839,0.53844zM273.66305,178.66434c-0.0311,-0.00299 -0.06213,-0.00577 -0.09302,-0.00831c-0.0195,0.00092 -0.03896,0.00177 -0.0583,0.0025c0.02758,0.016 0.05181,0.03712 0.07142,0.06204l0.04854,0.06068c0.00874,-0.03446 0.01954,-0.07425 0.03138,-0.11694zM277.98314,178.46971c0.17917,-0.14781 0.35726,-0.29841 0.51081,-0.44095c0.09049,-0.21264 0.15781,-0.41739 0.19356,-0.6002c-0.08105,0.25233 -0.20257,0.45693 -0.42624,0.54683c-0.07265,0.20814 -0.16694,0.37022 -0.27811,0.49433zM281.69834,176.38114c0.19838,0.67157 0.33642,1.26674 0.39924,1.43595c0.01206,0.04219 0.02429,0.08512 0.03668,0.12877c0.00169,-0.2549 0.00188,-0.51012 0.00029,-0.76573c-0.00655,-0.14103 -0.01562,-0.27568 -0.0273,-0.40392c-0.00326,0.00012 -0.00657,0.00019 -0.00988,0.0002c-0.08814,-0.00001 -0.16565,-0.04564 -0.21014,-0.11456l-0.18364,-0.27549c-0.00166,-0.0017 -0.00341,-0.00344 -0.00527,-0.00525zM277.30994,178.18919c0.15261,-0.04106 0.28573,-0.10996 0.39183,-0.21597c-0.13061,0.07615 -0.26152,0.1483 -0.39183,0.21597zM277.1791,177.81071c-0.31443,0.12013 -0.66555,0.24073 -1.03489,0.35187c0.03774,0.00663 0.07537,0.01298 0.11282,0.01901c0.31205,-0.0891 0.62243,-0.21518 0.92208,-0.37087zM278.91909,176.39971c-0.00185,0.0066 -0.00368,0.01319 -0.00548,0.01982c0.00232,-0.0028 0.00464,-0.00561 0.00696,-0.00843c-0.00051,-0.00379 -0.00099,-0.00759 -0.00148,-0.01139zM281.24174,175.07676c0.1381,0.02805 0.26781,0.0706 0.38515,0.12865c-0.12525,-0.14567 -0.27465,-0.23713 -0.44984,-0.27298c0.02188,0.04707 0.04343,0.09525 0.0647,0.14434z" fill="#000000" fill-rule="nonzero" stroke="none" stroke-width="0.5" stroke-linecap="butt" stroke-linejoin="miter"/></g><path d="M232.67278,210.04669c0.81376,9.00698 1.73736,16.03371 -3.0083,16.71349c-6.71898,0.96245 -5.39042,-6.87417 -6.20418,-15.88115c-0.81376,-9.00698 -0.15192,-17.93409 2.87333,-18.20741c3.02525,-0.27332 5.52539,8.36809 6.33915,17.37507z" fill="#717171" fill-rule="nonzero" stroke="#001026" stroke-width="1.2" stroke-linecap="butt" stroke-linejoin="miter"/><g><path d="M296.3648,175.56364c0,0 -0.21449,0.12843 -0.34292,-0.08604c-0.12844,-0.21448 0.08604,-0.34292 0.08604,-0.34292c0.56796,-0.34013 1.13594,-0.68027 1.7039,-1.0204c0.29494,-0.29207 0.59117,-0.57723 0.8858,-0.85518l0.26104,-0.24598c0,0 0.18194,-0.17146 0.35339,0.0105c0.04863,0.05162 0.06883,0.10239 0.07282,0.14865c1.48146,-0.88717 2.96292,-1.77435 4.44438,-2.66152c3.00275,-1.79819 6.00549,-3.59639 9.00823,-5.39459c1.86834,-1.11886 5.89501,-5.79939 6.3853,-7.94877c0.27225,-1.12816 0.30448,-2.3554 0.45601,-3.32409c0.34972,-2.23558 5.27557,-1.014 6.76237,-0.89724c2.93976,0.23087 7.42385,2.1042 9.8716,3.75152c2.90368,1.95415 5.80734,3.9083 8.711,5.86245c2.90368,1.95415 5.80734,3.90829 8.71102,5.86244c2.90448,1.95469 5.79861,3.92326 8.6861,5.90298c2.88669,1.97916 5.77337,3.95833 8.66003,5.93748c2.37654,1.6294 7.42066,3.78003 7.81708,6.67163c0.48016,3.5024 0.93079,6.85661 2.08401,10.20434c0.36393,1.05643 1.26041,3.42941 0.95231,4.53797c-0.47734,1.71745 -3.26991,3.07365 -4.59125,4.03705c-0.79336,0.57841 -2.19275,1.23272 -2.77542,2.00987c-1.18519,1.58075 -1.66193,4.64428 -2.33794,6.52024c-1.24037,3.44207 -2.49213,6.33465 -4.52522,9.38301c-0.11979,1.90881 -0.20489,4.1201 -0.40121,5.70813c-0.12085,0.97748 -2.35204,2.78309 -3.00877,3.54021c-2.16195,2.49236 -5.71608,4.10985 -8.4059,6.17933c-2.50492,2.32776 -5.38752,4.56443 -7.41657,7.3195c-1.98383,2.69366 -2.71158,6.44935 -4.43977,9.36106c-0.75563,1.27311 -2.65261,4.0289 -4.1484,4.51685c-1.24279,0.40542 -3.42991,-0.58817 -4.57378,-1.00937c-2.55459,-2.42649 -4.93491,-5.02071 -7.35352,-7.5813c-2.42303,-2.56526 -4.48846,-5.35427 -6.82405,-7.95429c-2.4255,-2.60478 -5.42146,-4.28 -8.44166,-6.08733c-0.84376,-0.87081 -1.67924,-1.74953 -2.51172,-2.63109l-0.20856,-0.07865c-2.33704,-0.8815 -4.61991,-1.90119 -6.88511,-2.95071c-3.22015,-0.75016 -6.70877,-2.36162 -9.7273,-3.86958c-2.65711,-1.32809 -6.91294,-2.07463 -9.99733,-1.98434c-1.54594,0.04526 -2.33167,0.92146 -3.65462,1.18525c-1.61667,0.32234 -4.8005,-1.42208 -6.32603,-1.97368c-1.34924,-0.48786 -3.18394,-0.34411 -4.39697,-1.07768c-1.70169,-1.02908 -3.01813,-2.75646 -4.36731,-4.18547c-2.49704,-2.55274 -5.11389,-4.55813 -8.1567,-6.42971c-2.65968,-1.64362 -5.87076,-4.57633 -8.01979,-6.85862c-1.19283,-1.26975 -2.88079,-2.6656 -3.49725,-4.34132c-0.54916,-1.49276 -0.64417,-5.15514 1.52034,-2.8586c2.47512,2.61909 4.85881,4.7504 8.47975,4.0901c1.73462,-0.48187 4.04246,-0.44459 5.9676,0.2274c0.00916,-0.00185 0.01459,-0.00246 0.01459,-0.00246c2.99616,-0.33746 5.75192,-1.25357 8.26576,-2.9359c2.7214,-1.81585 5.03678,-4.62889 7.55008,-6.99697c2.56715,-2.39138 6.24875,-2.72644 8.93521,-5.2144c2.54787,-2.39638 5.16594,-4.62147 7.08544,-7.56362c0.76587,-2.05408 2.16358,-3.96442 3.72754,-5.6802c-0.04122,0.02469 -0.08248,0.04939 -0.12371,0.07408z" fill="#000000" fill-rule="nonzero" stroke="none" stroke-width="0.5" stroke-linecap="butt" stroke-linejoin="miter"/><g><path d="M356.76593,183.28448c8.05435,-2.32415 15.94315,-9.59638 15.94315,-9.59638c0,0 -4.67273,18.41749 -12.72708,20.74165c-8.05435,2.32415 -8.3859,-0.28287 -9.27398,-3.36055c-0.8881,-3.07768 -1.99644,-5.46056 6.05791,-7.78472z" data-paper-data="{&quot;index&quot;:null}" fill="url(#color-4)" fill-rule="nonzero" stroke="#001026" stroke-width="1.2" stroke-linecap="butt" stroke-linejoin="miter"/><g><g><g><path d="M352.50656,172.02563c0.3235,-0.15924 0.8062,0.00497 0.85329,0.4146l1.18525,10.94738c0,0 5.73385,5.493 7.18816,9.01223c2.45694,5.86971 1.97039,10.34444 1.97039,10.34444c0,0 6.76628,3.00624 7.21421,8.81395c0.44792,5.8077 -5.32031,15.94314 -24.44197,17.16478c-19.12164,1.22164 -33.42942,-5.8003 -38.98528,-18.02742c-5.55586,-12.22713 7.31898,-24.25372 6.61996,-23.53862l0.24762,-18.02106c-0.04707,-0.40961 0.4877,-0.64199 0.85827,-0.39162l10.96886,9.40767c0,0 4.68298,-1.09985 9.36904,-0.68642c2.80221,0.16613 5.15576,0.6768 7.38413,1.37275z" fill="url(#color-5)" fill-rule="evenodd" stroke="#001026" stroke-width="1.2" stroke-linecap="butt" stroke-linejoin="miter"/><path d="M363.35414,203.10183c0,0 6.60703,2.68276 7.05494,8.49046c0.44792,5.8077 -5.65182,15.39534 -24.56216,16.54385c-24.64491,1.80774 -34.17289,-13.96654 -26.15025,-23.60434c8.03566,-9.73696 18.25343,0.78241 26.66009,1.2808c7.20384,0.44137 8.817,-5.70093 16.99741,-2.71077z" fill="#ffffff" fill-rule="evenodd" stroke="none" stroke-width="1" stroke-linecap="butt" stroke-linejoin="miter"/><path d="M381.45447,206.58731c-5.1546,3.15596 -12.30638,2.318 -12.30638,2.318" fill="none" fill-rule="evenodd" stroke="#001026" stroke-width="1.2" stroke-linecap="round" stroke-linejoin="round"/><path d="M378.70781,217.52285c-6.31148,-0.32422 -9.93103,-2.71567 -9.93103,-2.71567" fill="none" fill-rule="evenodd" stroke="#001026" stroke-width="1.2" stroke-linecap="round" stroke-linejoin="round"/><path d="M346.29856,203.18269c2.08215,0.27333 4.23739,0.75796 4.24544,1.46501c-0.08307,1.40111 -1.93473,3.98206 -3.53413,3.87297c-1.81072,-0.03598 -5.64959,-3.06137 -5.44136,-4.64774c0.05703,-1.20281 2.74707,-0.95053 4.73007,-0.69024z" fill="#001026" fill-rule="evenodd" stroke="#001026" stroke-width="1.2" stroke-linecap="round" stroke-linejoin="round"/><path d="M301.87656,195.83851c0,0 8.1624,3.89551 11.22916,7.42468" fill="none" fill-rule="evenodd" stroke="#001026" stroke-width="1.2" stroke-linecap="round" stroke-linejoin="round"/><path d="M312.94764,206.77245c-4.48469,1.12587 -11.67857,-0.92791 -11.67857,-0.92791" fill="none" fill-rule="evenodd" stroke="#001026" stroke-width="1.2" stroke-linecap="round" stroke-linejoin="round"/><path d="M344.57334,217.10426c-0.35043,2.66947 11.61178,31.18776 5.40257,26.98499c-16.80256,-11.37298 -17.65583,-2.74943 -24.96226,-1.58903c-8.09199,1.28516 -4.87006,-27.53226 -4.73191,-28.58474c0.35043,-2.66947 4.93873,5.03227 11.64667,5.91281c6.70795,0.88055 12.99534,-5.39352 12.64491,-2.72405z" fill="#000000" fill-rule="nonzero" stroke="#001026" stroke-width="1.2" stroke-linecap="butt" stroke-linejoin="miter"/></g><path d="M334.7987,203.83476c-0.05229,0.08061 -0.10233,0.16286 -0.11581,0.22565c-0.00225,0.01043 -0.00452,0.02088 -0.00684,0.03129c-0.01486,-0.04982 -0.03575,-0.10444 -0.06324,-0.1642c0.08626,-0.11321 0.16922,-0.23519 0.24905,-0.36369c-0.02128,0.09064 -0.04232,0.18095 -0.06319,0.27096zM334.04518,204.57725c-0.05616,0.05802 -0.12565,0.11793 -0.20922,0.1789c-0.03782,-0.03882 -0.08847,-0.06565 -0.14639,-0.07326l-0.04456,-0.00585c0.00243,-0.00064 0.00485,-0.00131 0.00727,-0.00198c0.091,-0.02532 0.17932,-0.06193 0.26508,-0.10848c0.0428,0.00426 0.08555,0.00793 0.1278,0.01066zM333.04693,204.18033c0.0819,-0.11365 0.18284,-0.19396 0.31622,-0.22062c0.13024,-0.02602 0.24815,-0.03815 0.35209,-0.03814c-0.08302,0.07346 -0.16389,0.14398 -0.24117,0.20775c-0.13899,0.00955 -0.28443,0.0256 -0.42316,0.05144c-0.00132,-0.00013 -0.00265,-0.00031 -0.00397,-0.00045zM328.8586,205.30241c-0.00526,0.0081 -0.01061,0.01629 -0.01604,0.02451l-0.11179,0.08586c0.0145,-0.04059 0.0294,-0.08039 0.04492,-0.11918c0.02747,0.00326 0.05513,0.00621 0.08291,0.0088zM332.50787,205.4799c0.02123,-0.03661 0.04118,-0.07487 0.06007,-0.11441l0.16849,-0.01129c0.08182,-0.00385 0.15539,-0.04782 0.19837,-0.11471c0.06212,-0.00291 0.12615,-0.01165 0.19047,-0.02446c-0.20717,0.11259 -0.41295,0.19873 -0.61744,0.26488zM327.31657,205.08195c0.00802,-0.07064 0.01529,-0.14053 0.02172,-0.20958c0.0265,0.02116 0.05299,0.04224 0.07948,0.0632c-0.03419,0.04742 -0.06793,0.09626 -0.1012,0.14638zM328.66645,206.00835c0.00176,0.00016 0.0035,0.0003 0.00525,0.00044c-0.00209,0.00087 -0.0042,0.00174 -0.00628,0.00261zM331.68563,205.65451c-0.25675,0.03052 -0.51153,0.04268 -0.76446,0.04994c0.11106,-0.07198 0.22325,-0.15569 0.33666,-0.25202c0.13036,0.04178 0.28714,0.12302 0.42782,0.20208zM328.16651,204.48326c0.07857,0.05145 0.15698,0.10236 0.2354,0.15227c-0.07675,-0.00181 -0.15247,-0.00175 -0.22648,-0.00001c-0.00053,-0.055 -0.00358,-0.10567 -0.00897,-0.15227zM327.98804,206.40058c0.02888,-0.07843 0.05644,-0.15994 0.08311,-0.24174l0.01731,0.08945c0.0039,0.02294 0.01096,0.04497 0.02077,0.06555c-0.04044,0.02756 -0.08084,0.05645 -0.1212,0.08671z" fill="#000000" fill-rule="nonzero" stroke="none" stroke-width="0.5" stroke-linecap="butt" stroke-linejoin="miter"/><path d="M358.09807,206.59592c0.01634,-0.02856 0.03283,-0.05715 0.04949,-0.08577c0.06732,-0.05048 0.14674,-0.10512 0.23477,-0.1631c-0.09437,0.09004 -0.18967,0.17368 -0.28426,0.24886zM355.01037,208.26511c0.15367,1.60556 -0.38496,4.03566 -0.82519,5.36209c-0.05152,0.1552 -0.26313,0.52194 -0.4495,0.90081c0.01916,-0.34111 0.03739,-0.6831 0.08265,-1.02782c0.1856,-1.56822 1.0275,-3.46913 1.19202,-5.23506zM352.32252,209.14937c-0.0237,-0.1921 -0.06698,-0.37968 -0.13657,-0.56097c-0.00167,-0.00437 0.1942,-0.11529 0.41484,-0.24426c-0.08473,0.27097 -0.17869,0.54033 -0.27829,0.80525zM354.3979,205.28851l-0.04023,-0.06649c-0.01619,-0.02727 -0.03747,-0.05136 -0.06274,-0.07081c0.01927,0.00179 0.03868,0.00349 0.05814,0.0051c0.0303,0.00653 0.0607,0.01331 0.09115,0.02033c-0.01728,0.04078 -0.03317,0.07883 -0.04632,0.11186zM358.75291,205.54571c0.12639,-0.1086 0.24095,-0.25702 0.34007,-0.45396c0.23348,-0.06003 0.38058,-0.24706 0.49377,-0.48672c-0.05923,0.17662 -0.15261,0.37086 -0.27,0.56993c-0.17078,0.12136 -0.36696,0.24753 -0.56383,0.37075zM362.70825,203.95821c0.00159,0.00202 0.00311,0.00399 0.00453,0.00589l0.14624,0.29704c0.03516,0.07413 0.10605,0.12945 0.19345,0.14093c0.00328,0.00043 0.00656,0.00078 0.00982,0.00109c-0.00511,0.12866 -0.01363,0.26334 -0.02549,0.40403c-0.03167,0.25366 -0.06506,0.50667 -0.09991,0.75918c-0.00661,-0.04488 -0.01316,-0.08905 -0.01962,-0.13245c-0.04028,-0.17593 -0.09972,-0.78401 -0.20902,-1.47568zM358.53854,205.01683c-0.11901,0.0913 -0.25996,0.14231 -0.41661,0.16315c0.13802,-0.05014 0.27721,-0.10463 0.41661,-0.16315zM358.04146,204.7877c-0.31734,0.11539 -0.6415,0.20001 -0.96248,0.24775c-0.03635,-0.01084 -0.07283,-0.02203 -0.10939,-0.03352c0.38065,-0.06216 0.74449,-0.13605 1.07186,-0.21425zM359.95023,203.61506c-0.00001,0.00384 -0.00001,0.00766 -0.00003,0.01149c-0.00267,0.00249 -0.00532,0.00498 -0.00798,0.00746c0.00263,-0.00633 0.00531,-0.01265 0.00801,-0.01894zM362.42526,202.60554c-0.01469,-0.05145 -0.02981,-0.10201 -0.04537,-0.15152c0.16903,0.05834 0.30526,0.16846 0.41049,0.32918c-0.1088,-0.07281 -0.23187,-0.13188 -0.36514,-0.17766z" fill="#000000" fill-rule="nonzero" stroke="none" stroke-width="0.5" stroke-linecap="butt" stroke-linejoin="miter"/></g><path d="M342.04109,199.1748c0.01346,3.30204 -4.09385,5.99566 -9.1739,6.01638c-5.08006,0.02071 -9.8023,-12.74586 -9.8023,-12.74586c0,0 18.96275,3.42744 18.97621,6.72949z" fill="#ffffff" fill-rule="nonzero" stroke="#001026" stroke-width="1.2" stroke-linecap="butt" stroke-linejoin="miter"/><path d="M369.30583,193.9711c0,0 -4.61799,12.80464 -9.69806,12.82535c-5.08006,0.02071 -9.20918,-2.63934 -9.22265,-5.94138c-0.01346,-3.30204 18.92071,-6.88398 18.92071,-6.88398z" data-paper-data="{&quot;index&quot;:null}" fill="#ffffff" fill-rule="nonzero" stroke="#001026" stroke-width="1.2" stroke-linecap="butt" stroke-linejoin="miter"/></g><path d="M320.88213,189.66847c0.01396,3.42414 -1.89988,6.2078 -4.27469,6.21748c-2.3748,0.00967 -4.31128,-2.75829 -4.32523,-6.18242c-0.01396,-3.42414 1.89988,-6.20779 4.27469,-6.21748c2.3748,-0.00967 4.31128,2.75829 4.32523,6.18242z" fill="#000000" fill-rule="nonzero" stroke="#001026" stroke-width="1.2" stroke-linecap="butt" stroke-linejoin="miter"/><path d="M319.38741,183.35698c0.20928,-0.05323 0.28377,0.12029 0.30018,0.16856c0.10299,0.03054 0.17832,0.12572 0.17878,0.23869c0.00014,0.0324 -0.0059,0.06339 -0.01701,0.09184c0.24426,0.22459 0.67809,0.07971 0.95246,0.40115c0.70112,0.82145 1.53802,2.42432 1.58118,3.58011c-0.02199,1.94568 -0.14568,3.88806 -1.17615,5.96367c-1.3932,2.0559 -3.10158,4.77803 -5.91924,3.76545c-0.41045,-0.70028 -1.52845,-1.28209 -1.61799,-2.05842c-0.15188,-1.31676 1.05784,-0.59961 1.31557,0.11381l-0.04401,0.10505c1.38696,0.89188 3.2566,-0.41805 4.26267,-1.77093c0.93773,-1.4201 2.14498,-2.41339 2.18576,-4.26343c-0.02626,-0.02434 -0.04058,-0.04563 -0.04058,-0.04563c-0.86589,-1.3427 -1.20625,-3.10593 -2.10841,-4.58482l-0.12955,-0.11799c0,0 -0.1775,-0.17606 -0.00144,-0.35356c0.00902,-0.0091 0.01804,-0.01725 0.02705,-0.02457l-0.18389,-0.04802c0.00245,-0.10941 -0.00032,-0.25721 0.0178,-0.39034c-0.06244,-0.12136 0.02157,-0.2485 0.02157,-0.2485c0.06929,-0.0903 0.13859,-0.1806 0.20788,-0.27091c-0.00314,-0.07488 0.01678,-0.20785 0.18737,-0.25123z" fill="#cf0000" fill-rule="nonzero" stroke="none" stroke-width="0.5" stroke-linecap="butt" stroke-linejoin="miter"/><path d="M318.84443,191.99235c-1.88545,2.58958 -3.08711,4.92679 -9.86408,-0.00748c-6.77697,-4.93426 -4.88125,-23.84047 -4.88125,-23.84047c0,0 4.9321,9.52853 11.70906,14.46279c6.77697,4.93426 4.92171,6.79558 3.03626,9.38516z" fill="url(#color-6)" fill-rule="nonzero" stroke="#001026" stroke-width="1.2" stroke-linecap="butt" stroke-linejoin="miter"/></g></g></g></g></svg>