<svg version="1.1" xmlns="http://www.w3.org/2000/svg" xmlns:xlink="http://www.w3.org/1999/xlink" width="86.69569" height="105.13626" viewBox="0,0,86.69569,105.13626"><defs><linearGradient x1="206.74099" y1="191.87128" x2="201.95722" y2="209.84559" gradientUnits="userSpaceOnUse" id="color-1"><stop offset="0" stop-color="#ffffff"/><stop offset="1" stop-color="#9f9f9f"/></linearGradient></defs><g transform="translate(-194.61158,-135.5886)"><g data-paper-data="{&quot;isPaintingLayer&quot;:true}" stroke-miterlimit="10" stroke-dasharray="" stroke-dashoffset="0" style="mix-blend-mode: normal"><path d="M241.23356,190.29016c6.20187,4.59313 7.29318,15.70793 1.53444,20.11779c-4.42948,3.43362 -10.48303,5.8031 -11.93095,1.20924c-1.48581,-4.68641 5.75017,-5.48684 7.42427,-7.46862c1.72877,-2.1122 -1.26783,-9.96205 -1.8235,-12.11176c-0.59354,-2.24225 2.53633,-3.30711 4.79575,-1.74665z" data-paper-data="{&quot;index&quot;:null}" fill="#878787" fill-rule="evenodd" stroke="#001026" stroke-width="1.2" stroke-linecap="round" stroke-linejoin="round"/><g fill-rule="evenodd"><path d="M224.88857,204.05156c0.81639,0.5775 3.75428,0.89184 1.09741,4.05903c-2.78271,3.10266 -10.55523,8.65315 -21.4488,3.86252c-11.77448,-5.24229 -10.50751,-17.94247 -6.44209,-19.6723c3.97024,-1.69917 4.49841,5.48491 9.84069,11.95872c7.6528,9.40662 16.13639,-0.78547 16.95278,-0.20797z" fill="#878787" stroke="#001026" stroke-width="1.2" stroke-linecap="round" stroke-linejoin="round"/><path d="M202.35463,196.39183c1.82502,4.03476 3.69669,6.58365 3.69669,6.58365c0,0 -2.13616,-1.41308 -4.29791,-0.29648c-2.60701,1.3651 -2.72779,3.92546 -2.60835,4.6224c-1.18753,-1.40349 -2.40251,-3.21837 -3.31595,-6.70629c-0.59723,-3.48472 0.393,-7.58588 2.89523,-7.97168c2.02631,-0.23249 2.42171,1.32111 3.6303,3.76841z" fill="#ffffff" stroke="none" stroke-width="1" stroke-linecap="butt" stroke-linejoin="miter"/></g><path d="M248.3198,236.3753c0,3.86599 -11.83333,3 -11.83333,3c0,0 -10.5,0.86599 -10.5,-3c0,-3.45051 2.7452,-32.89294 7.69909,-34.5825c3.83539,-1.30808 4.43187,28.24917 5.13424,28.24917c6.53537,0 9.5,2.46734 9.5,6.33333z" fill="#878787" fill-rule="nonzero" stroke="#001026" stroke-width="1.2" stroke-linecap="butt" stroke-linejoin="miter"/><path d="M242.3198,237.04197c0,3.86599 -11.83333,3 -11.83333,3c0,0 -10.5,0.86599 -10.5,-3c0,-3.45051 2.7452,-32.89294 7.69909,-34.58249c3.83539,-1.30808 4.43187,28.24916 5.13424,28.24916c6.53537,0 9.5,2.46734 9.5,6.33333z" fill="#878787" fill-rule="nonzero" stroke="#001026" stroke-width="1.2" stroke-linecap="butt" stroke-linejoin="miter"/><g fill-rule="evenodd"><path d="M231.13877,213.72026c-8.92061,2.19508 -8.59311,-6.74452 -10.52204,-15.98678c-1.07616,-4.98516 -0.61505,-11.50053 4.73949,-14.46177c2.91792,-1.8154 5.86828,3.77697 7.48268,2.27905c2.45391,-2.20871 5.09764,1.8423 6.02622,4.33183c0,0 1.3224,3.72844 1.55798,6.01852c0.32972,2.86554 0.50682,5.86031 0.17255,7.32259c0,0 0.15267,8.13194 -9.45689,10.49655z" fill="#878787" stroke="#001026" stroke-width="1.2" stroke-linecap="round" stroke-linejoin="round"/><path d="M239.94403,203.6482c0,0 -1.9202,0.05344 -4.11057,-0.05746c-2.6895,-0.08139 -5.18513,0.06619 -5.6619,-3.59205c-0.1771,-2.99477 -0.94743,-6.53546 4.36083,-7.23002c5.02639,-0.71795 5.19177,2.41774 5.19177,2.41774c1.22878,4.85593 0.21988,8.46178 0.21988,8.46178z" fill="#ffffff" stroke="none" stroke-width="1" stroke-linecap="butt" stroke-linejoin="miter"/></g><path d="M229.24396,194.33604c-3.02919,6.10493 -7.41896,15.36883 -11.9625,15.2412c-1.98491,-0.01174 -10.79648,-2.55265 -13.8314,-5.61358c-3.19453,-3.33392 0.31199,-9.30337 4.609,-7.52975c3.05591,1.21712 8.15217,3.29271 8.42517,3.13312c0.87568,-0.6951 2.22596,-4.96438 4.42841,-5.95895" data-paper-data="{&quot;index&quot;:null}" fill="#878787" fill-rule="evenodd" stroke="#001026" stroke-width="1.2" stroke-linecap="round" stroke-linejoin="round"/><g><g fill-rule="evenodd"><g><path d="M247.97524,136.09284c0.303,-0.19541 0.80143,-0.08781 0.89534,0.31366l2.43687,10.73833c0,0 6.32774,4.79684 8.1773,8.12537c3.11593,5.54806 3.14744,10.04906 3.14744,10.04906c0,0 7.06722,2.2078 8.18034,7.9254c1.11312,5.7176 -3.45071,16.44939 -22.30484,19.86287c-18.85413,3.41348 -33.87478,-1.91571 -40.80047,-13.42243c-6.9257,-11.50673 4.47996,-24.93472 3.86786,-24.14394l-1.82736,-17.92988c-0.0939,-0.40148 0.41061,-0.69383 0.80751,-0.48777l11.97838,8.08322c0,0 4.52535,-1.63132 9.22785,-1.75977c2.80272,-0.15736 5.1994,0.07913 7.49305,0.51408z" fill="#878787" stroke="#001026" stroke-width="1.2" stroke-linecap="butt" stroke-linejoin="miter"/><path d="M262.32614,165.71467c0,0 6.87181,1.9048 7.98493,7.6224c1.11312,5.7176 -3.84307,15.94336 -22.4957,19.2599c-24.27329,4.63115 -35.55282,-9.94218 -28.69229,-20.439c6.86205,-10.5968 18.22224,-1.32286 26.6304,-1.79496c7.20678,-0.39037 8.10255,-6.67747 16.57266,-4.64834z" fill="#ffffff" stroke="none" stroke-width="1" stroke-linecap="butt" stroke-linejoin="miter"/><path d="M280.70727,167.09454c-4.75729,3.72804 -11.95798,3.71846 -11.95798,3.71846" fill="none" stroke="#001026" stroke-width="1.2" stroke-linecap="round" stroke-linejoin="round"/><path d="M279.23699,178.27346c-6.30688,0.40407 -10.17751,-1.55506 -10.17751,-1.55506" fill="none" stroke="#001026" stroke-width="1.2" stroke-linecap="round" stroke-linejoin="round"/><path d="M245.39309,167.75722c2.09975,0.03196 4.29646,0.26541 4.3858,0.96685c0.07868,1.40136 -1.46375,4.17821 -3.06509,4.25385c-1.80283,0.17258 -5.96431,-2.39104 -5.93995,-3.99086c-0.08173,-1.20138 2.61948,-1.26028 4.61925,-1.22985z" fill="#001026" stroke="#001026" stroke-width="1.2" stroke-linecap="round" stroke-linejoin="round"/><path d="M200.42113,165.5726c0,0 8.5564,2.93055 12.00882,6.08345" fill="none" stroke="#001026" stroke-width="1.2" stroke-linecap="round" stroke-linejoin="round"/><path d="M212.67665,175.16022c-4.32537,1.63437 -11.70777,0.42188 -11.70777,0.42188" fill="none" stroke="#001026" stroke-width="1.2" stroke-linecap="round" stroke-linejoin="round"/><g><path d="M257.36977,156.23814c2.83119,4.54361 2.85357,9.64454 0.0265,11.40172c-2.82707,1.75718 -7.39458,-0.41258 -10.32576,-4.95771c-2.83119,-4.54361 -1.54828,-7.79113 1.27879,-9.54831c2.82859,-1.85717 6.18928,-1.43931 9.02047,3.10429z" fill="#ffffff" stroke="#001026" stroke-width="1.2" stroke-linecap="round" stroke-linejoin="round"/><path d="M252.4441,163.36401c-0.01674,1.09987 -0.83034,1.9876 -1.83022,1.97238c-0.99988,-0.01522 -1.78609,-0.92729 -1.76936,-2.02715c0.01674,-1.09987 0.83034,-1.9876 1.83022,-1.97238c0.99988,0.01522 1.78609,0.92729 1.76936,2.02715" fill="#001026" stroke="none" stroke-width="1" stroke-linecap="butt" stroke-linejoin="miter"/></g><g><path d="M232.53004,158.66042c2.93269,4.44514 2.65054,9.84147 -0.07806,11.70016c-3.32853,1.84956 -7.70672,0.38277 -10.63942,-4.06238c-3.03268,-4.44666 -2.06144,-10.21589 1.07168,-12.36846c3.13464,-2.25256 6.7131,0.28552 9.6458,4.73067z" fill="#ffffff" stroke="#001026" stroke-width="1.2" stroke-linecap="round" stroke-linejoin="round"/><path d="M227.05942,166.54475c-0.01674,1.09987 -0.83034,1.9876 -1.83022,1.97238c-0.99988,-0.01522 -1.78609,-0.92729 -1.76936,-2.02715c0.01674,-1.09987 0.83034,-1.9876 1.83022,-1.97238c0.99836,0.1152 1.78609,0.9273 1.76936,2.02716" fill="#001026" stroke="none" stroke-width="1" stroke-linecap="butt" stroke-linejoin="miter"/></g></g></g><path d="M259.17216,177.65724c-0.03221,2.11685 -21.6855,13.6529 -36.94611,12.60589c-15.26062,-1.047 -0.55037,-13.12295 -0.51911,-15.17632c0.03221,-2.11685 10.27458,6.82381 20.81279,6.98419c10.53821,0.16038 16.68465,-6.53061 16.65243,-4.41377z" fill="#000000" fill-rule="nonzero" stroke="#001026" stroke-width="1.2" stroke-linecap="butt" stroke-linejoin="miter"/></g><g data-paper-data="{&quot;index&quot;:null}" fill-rule="nonzero" stroke="#001026" stroke-width="1.2" stroke-linejoin="miter"><g><g><path d="M204.23773,196.99999l2.77766,-10.4367l2.51253,0.6687l-2.77766,10.4367z" fill="#2c2c2c" stroke-linecap="butt"/><path d="M198.37796,222.77142l2.90266,-14.52497l2.33249,0.56526z" fill="#6c6c6c" stroke-linecap="butt"/><path d="M198.38169,208.89398l4.78377,-17.9743l7.15106,1.90322l-4.78376,17.9743z" fill="url(#color-1)" stroke-linecap="butt"/><path d="M206.11749,194.6028l3.53035,0.73262" fill="none" stroke-linecap="round"/><path d="M208.38684,198.51818l-3.14378,-0.62974" fill="none" stroke-linecap="round"/><path d="M205.15416,200.55529l2.80869,0.33359" fill="none" stroke-linecap="round"/><path d="M204.47298,203.89236l2.126,0.56582" fill="none" stroke-linecap="round"/><path d="M203.16054,207.26837l3.0534,0.19175" fill="none" stroke-linecap="round"/></g><path d="M204.43893,186.91242l0.72014,-2.70582l7.34434,1.95465l-0.72014,2.70581z" fill="#2c2c2c" stroke-linecap="butt"/></g><path d="M205.81112,200.41968c0.75283,-2.82864 2.61782,-4.78779 4.16557,-4.37585c1.54775,0.41193 2.19216,3.03893 1.43933,5.86757c-0.75282,2.82864 -2.61781,4.78779 -4.16556,4.37585c-1.54775,-0.41192 -2.19214,-3.03892 -1.43932,-5.86756z" fill="#878787" stroke-linecap="butt"/><path d="M196.21145,196.82998c1.15055,-4.32302 4.28979,-7.24026 7.0117,-6.51583c2.7219,0.72443 3.99573,4.81619 2.84518,9.13921c-1.15054,4.32302 -4.28977,7.24026 -7.01168,6.51584c-2.72191,-0.72442 -3.99574,-4.81619 -2.84519,-9.13921z" fill="#878787" stroke-linecap="butt"/></g></g></g></svg>