<svg version="1.1" xmlns="http://www.w3.org/2000/svg" xmlns:xlink="http://www.w3.org/1999/xlink" width="83.55616" height="105.96614" viewBox="0,0,83.55616,105.96614"><defs><linearGradient x1="256.97811" y1="202.31365" x2="253.01886" y2="220.48738" gradientUnits="userSpaceOnUse" id="color-1"><stop offset="0" stop-color="#ffffff"/><stop offset="1" stop-color="#9f9f9f"/></linearGradient><radialGradient cx="249.7772" cy="157.19785" r="8.13758" gradientUnits="userSpaceOnUse" id="color-2"><stop offset="0" stop-color="#ffffff"/><stop offset="1" stop-color="#1a1a1a"/></radialGradient><radialGradient cx="231.86685" cy="170.16238" r="6.75889" gradientUnits="userSpaceOnUse" id="color-3"><stop offset="0" stop-color="#ffffff"/><stop offset="1" stop-color="#1a1a1a"/></radialGradient></defs><g transform="translate(-197.36065,-134.75873)"><g data-paper-data="{&quot;isPaintingLayer&quot;:true}" stroke-miterlimit="10" stroke-dasharray="" stroke-dashoffset="0" style="mix-blend-mode: normal"><path d="M241.09283,196.62895c0.73845,2.09396 2.63206,10.28018 5.24528,11.06829c2.49506,0.71038 8.94639,-2.66312 10.32847,2.0549c1.36189,4.6201 -4.98377,6.03175 -10.57549,5.65412c-7.23955,-0.44601 -12.5361,-10.27843 -9.95259,-17.55067c1.00418,-2.5557 4.19566,-3.41854 4.95433,-1.22663z" data-paper-data="{&quot;index&quot;:null}" fill="#717171" fill-rule="evenodd" stroke="#001026" stroke-width="1.2" stroke-linecap="round" stroke-linejoin="round"/><g fill-rule="nonzero" stroke="#001026" stroke-width="1.2" stroke-linejoin="miter"><g><g><path d="M254.32045,207.46602l2.29892,-10.55249l2.54041,0.55344l-2.29892,10.55249z" fill="#2c2c2c" stroke-linecap="butt"/><path d="M252.01848,218.81104l2.33299,0.56317l-4.05608,14.24599z" fill="#6c6c6c" stroke-linecap="butt"/><path d="M249.40365,219.69979l3.95925,-18.17372l7.2304,1.57518l-3.95925,18.17373z" fill="url(#color-1)" stroke-linecap="butt"/><path d="M252.80946,204.06647l3.47493,0.96172" fill="none" stroke-linecap="round"/><path d="M252.47656,207.4737l3.08408,0.87658" fill="none" stroke-linecap="round"/><path d="M251.77026,209.77612l2.65068,0.98685" fill="none" stroke-linecap="round"/><path d="M251.35222,213.57417l2.14958,0.4683" fill="none" stroke-linecap="round"/><path d="M250.3228,216.42028l2.80353,1.22483" fill="none" stroke-linecap="round"/></g><path d="M253.86609,197.33717l0.59601,-2.73583l7.42583,1.61776l-0.59602,2.73584z" fill="#2c2c2c" stroke-linecap="butt"/></g><path d="M253.89857,210.34212c-0.62308,2.86003 -2.39679,4.90216 -3.9617,4.56123c-1.56492,-0.34092 -2.32844,-2.93581 -1.70537,-5.79583c0.62308,-2.86003 2.3968,-4.90216 3.96171,-4.56123c1.56492,0.34092 2.32844,2.93581 1.70536,5.79584z" fill="#717171" stroke-linecap="butt"/><path d="M264.07766,211.53625c-0.95225,4.37098 -3.95522,7.42833 -6.70732,6.82877c-2.7521,-0.59956 -4.21117,-4.62898 -3.25893,-8.99996c0.95225,-4.37098 3.95521,-7.42833 6.70731,-6.82877c2.7521,0.59956 4.21117,4.62898 3.25894,8.99996z" fill="#717171" stroke-linecap="butt"/></g><g fill-rule="evenodd"><path d="M228.20225,208.40476c0.88899,0.45791 3.84201,0.35918 1.65314,3.86615c-2.32248,3.46065 -9.24432,10.04155 -20.69985,6.81809c-12.39086,-3.54775 -12.9087,-16.30047 -9.12447,-18.58075c3.69426,-2.23662 5.21985,4.80345 11.41332,10.46834c8.89069,8.24657 15.86886,-3.02975 16.75785,-2.57183z" fill="#717171" stroke="#001026" stroke-width="1.2" stroke-linecap="round" stroke-linejoin="round"/><path d="M204.81985,203.96479c2.37024,3.74059 4.57931,6.00333 4.57931,6.00333c0,0 -2.31246,-1.10113 -4.29723,0.30624c-2.39099,1.71556 -2.15327,4.26772 -1.93773,4.94118c-1.37178,-1.22403 -2.82816,-2.85159 -4.21943,-6.1779c-1.07771,-3.36727 -0.66953,-7.56648 1.75438,-8.29772c1.97404,-0.51301 2.58238,0.9702 4.12069,3.22489z" fill="#ffffff" stroke="none" stroke-width="1" stroke-linecap="butt" stroke-linejoin="miter"/></g><path d="M248.3198,236.3753c0,3.86599 -11.83333,3 -11.83333,3c0,0 -10.5,0.86599 -10.5,-3c0,-3.45051 2.7452,-32.89294 7.69909,-34.5825c3.83539,-1.30808 4.43187,28.24917 5.13424,28.24917c6.53537,0 9.5,2.46734 9.5,6.33333z" fill="#717171" fill-rule="nonzero" stroke="#001026" stroke-width="1.2" stroke-linecap="butt" stroke-linejoin="miter"/><path d="M242.3198,237.04197c0,3.86599 -11.83333,3 -11.83333,3c0,0 -10.5,0.86599 -10.5,-3c0,-3.45051 2.7452,-32.89294 7.69909,-34.58249c3.83539,-1.30808 4.43187,28.24916 5.13424,28.24916c6.53537,0 9.5,2.46734 9.5,6.33333z" fill="#717171" fill-rule="nonzero" stroke="#001026" stroke-width="1.2" stroke-linecap="butt" stroke-linejoin="miter"/><g fill-rule="evenodd"><path d="M230.4734,217.08111c-8.99395,1.87204 -8.34436,-7.04994 -9.93883,-16.35572c-0.89573,-5.02071 -0.20002,-11.51523 5.2578,-14.2815c2.98147,-1.70903 5.7283,3.98607 7.39565,2.54733c2.53194,-2.11879 5.02791,2.02488 5.86613,4.54627c0,0 1.18711,3.77369 1.33998,6.07078c0.2262,2.87556 0.29522,5.87478 -0.09155,7.32405c0,0 -0.14061,8.13215 -9.82917,10.14877z" fill="#717171" stroke="#001026" stroke-width="1.2" stroke-linecap="round" stroke-linejoin="round"/><path d="M239.63606,207.33305c0,0 -1.92087,-0.01583 -4.10582,-0.20562c-2.68482,-0.17829 -5.18415,-0.12078 -5.52872,-3.79383c-0.06902,-2.9992 -0.7112,-6.56538 4.61865,-7.06811c5.049,-0.53628 5.10123,2.60335 5.10123,2.60335c1.05291,4.89707 -0.08533,8.46423 -0.08533,8.46423z" fill="#ffffff" stroke="none" stroke-width="1" stroke-linecap="butt" stroke-linejoin="miter"/></g><g><g><path d="M232.75331,135.30686c0.17357,-0.31603 0.66317,-0.45849 0.93675,-0.15001l7.25175,8.28626c0,0 7.84779,1.2092 11.05807,3.25715c5.38003,3.39784 7.54889,7.34195 7.54889,7.34195c0,0 7.26663,-1.41991 10.96562,3.0798c3.69899,4.49972 4.78978,16.11049 -10.1706,28.082c-14.96038,11.97151 -30.70774,14.42931 -42.27342,7.60251c-11.56568,-6.82679 -7.92095,-24.06384 -8.08319,-23.07709l-10.13668,-14.90194c-0.27358,-0.30847 0.03111,-0.80563 0.47826,-0.81318l14.38147,1.41187c0,0 3.20449,-3.58765 7.27973,-5.93764c2.39043,-1.47169 4.61106,-2.40377 6.83547,-3.11228z" fill="#717171" fill-rule="evenodd" stroke="#001026" stroke-width="1.2" stroke-linecap="butt" stroke-linejoin="miter"/><path d="M252.96655,156.3964c1.88285,3.61179 -2.00004,9.35959 -8.67267,12.83807c-6.67263,3.47848 -13.60821,3.37041 -15.49106,-0.24138c-1.88285,-3.61179 2.00004,-9.35959 8.67267,-12.83807c6.67263,-3.47848 13.60821,-3.37041 15.49106,0.24138z" fill="#000000" fill-rule="nonzero" stroke="none" stroke-width="NaN" stroke-linecap="butt" stroke-linejoin="miter"/><path d="M259.46766,154.53558c0,0 6.9506,-1.59348 10.64959,2.90623c3.69899,4.49972 4.20395,15.85203 -10.62531,27.64241c-19.14785,15.6205 -36.00198,8.16744 -34.96081,-4.3292c0.99495,-12.58531 15.39909,-9.83199 22.57037,-14.24705c6.15341,-3.77167 3.95055,-9.72796 12.36616,-11.97239z" fill="#ffffff" fill-rule="evenodd" stroke="none" stroke-width="1" stroke-linecap="butt" stroke-linejoin="miter"/><path d="M276.29222,147.00534c-2.41109,5.54226 -8.74941,8.95924 -8.74941,8.95924" fill="none" fill-rule="evenodd" stroke="#001026" stroke-width="1.2" stroke-linecap="round" stroke-linejoin="round"/><path d="M280.31681,157.5378c-5.35535,3.35563 -9.69194,3.47365 -9.69194,3.47365" fill="none" fill-rule="evenodd" stroke="#001026" stroke-width="1.2" stroke-linecap="round" stroke-linejoin="round"/><path d="M245.54492,164.38735c1.86216,-0.97075 3.90545,-1.81039 4.3177,-1.23589c0.73584,1.19521 0.70007,4.37149 -0.67249,5.19978c-1.50368,1.00942 -6.38366,0.73408 -7.12328,-0.68471c-0.64339,-1.01786 1.70459,-2.35465 3.47807,-3.27918z" fill="#001026" fill-rule="evenodd" stroke="#001026" stroke-width="1.2" stroke-linecap="round" stroke-linejoin="round"/><path d="M204.94812,183.85911c0,0 8.92032,-1.49259 13.45694,-0.36161" fill="none" fill-rule="evenodd" stroke="#001026" stroke-width="1.2" stroke-linecap="round" stroke-linejoin="round"/><path d="M220.28901,186.46241c-3.02714,3.4952 -10.09753,5.94053 -10.09753,5.94053" fill="none" fill-rule="evenodd" stroke="#001026" stroke-width="1.2" stroke-linecap="round" stroke-linejoin="round"/><path d="M253.81682,151.5969c4.65174,2.64978 3.88114,4.08678 2.23033,6.97725c-1.6508,2.89048 -6.70057,3.15473 -11.44099,0.55118c-2.41028,-1.36381 -6.74153,-4.31013 -5.26681,-4.47736c16.76785,-1.90142 12.91677,-3.75965 13.81375,-3.35173c0.22128,0.10064 0.45139,0.1797 0.66371,0.30065z" fill="url(#color-2)" fill-rule="evenodd" stroke="#001026" stroke-width="1.2" stroke-linecap="round" stroke-linejoin="round"/><path d="M229.90312,162.50477c4.69419,2.51488 7.01306,7.39574 5.49716,10.32866c-2.04795,3.21028 -6.59678,4.0028 -11.29097,1.48793c7.55607,-4.54769 1.09962,-14.33146 5.79381,-11.81659z" fill="url(#color-3)" fill-rule="evenodd" stroke="#001026" stroke-width="1.2" stroke-linecap="round" stroke-linejoin="round"/><path d="M251.98595,177.77047c1.24459,2.38746 -5.31524,19.68249 -11.31449,22.80993c-5.99925,3.12744 -9.16611,-9.09701 -10.4107,-11.48447c-1.24459,-2.38746 2.15478,-0.7004 8.15403,-3.82785c5.99925,-3.12744 12.32656,-9.88507 13.57116,-7.49762z" fill="#000000" fill-rule="nonzero" stroke="#001026" stroke-width="1.2" stroke-linecap="butt" stroke-linejoin="miter"/></g><path d="M232.70603,174.75581c0.027,0.0135 0.05465,0.03085 0.08292,0.05233c0.10772,-0.0856 0.21456,-0.18361 0.32051,-0.29569c0.10418,-0.05516 0.20944,-0.11002 0.31503,-0.16517c0.32209,-0.34833 0.61941,-0.69271 0.78781,-0.84147c0.17933,-0.20917 0.41263,-0.35771 0.64713,-0.48568c-0.07865,-0.35716 -0.05692,-0.70715 0.31455,-1.02265c0.20971,-0.17811 0.42285,-0.28677 0.6227,-0.33434c0.03723,-0.14065 0.07735,-0.27646 0.12253,-0.39898c-0.08583,-1.1236 -0.54829,-2.59645 -0.63461,-3.16093l-0.12156,-0.23318c-0.06382,-0.12243 -0.01631,-0.27343 0.10612,-0.33725c0.12243,-0.06382 0.27343,-0.01631 0.33725,0.10612l0.13573,0.26037l-0.05603,0.02921c0.00497,0.00551 0.00993,0.01104 0.01488,0.01659l0.05681,-0.0088c0.00513,0.03022 0.01075,0.06145 0.01685,0.09363c1.23325,1.45788 1.95284,4.20903 2.42554,6.34078c0.88255,1.87719 1.8939,4.47619 1.8,6.28146l0.05281,-0.00798l0.04416,0.29222c0.0183,0.10446 -0.03171,0.21314 -0.13076,0.26478c-0.12243,0.06382 -0.27343,0.01631 -0.33725,-0.10612c-0.00038,-0.00073 -0.00076,-0.00145 -0.00113,-0.00219l-0.22722,-0.44499l0.00757,-0.00387l-0.01832,-0.02024c-0.41316,-1.5318 -0.92929,-2.99862 -1.3294,-4.52504c-0.15669,-0.71957 -0.35115,-1.38003 -0.56817,-2.01359c-0.11121,-0.24741 -0.2289,-0.49187 -0.35437,-0.73256c-0.1429,-0.27547 -0.24366,-0.5653 -0.34146,-0.85656c-0.00203,0.22216 -0.06141,0.4807 -0.19391,0.76772c-0.45598,1.34264 -1.42961,1.94083 -2.28995,2.59971l0.01568,0.15618c0.01246,0.10058 -0.03744,0.20284 -0.1326,0.25245c-0.10692,0.05574 -0.23564,0.02657 -0.30904,-0.06328c-0.50363,0.44048 -0.92062,0.95859 -1.09561,1.75254l-0.03237,0.48057c-0.00431,0.08565 -0.05262,0.16684 -0.13417,0.20935c-0.11394,0.0594 -0.25262,0.02237 -0.32275,-0.08174l-0.23096,-0.33218l0.06258,-0.0435c-0.38042,-0.49472 -0.49783,-0.96451 -0.43196,-1.40557c-0.03164,-0.01996 -0.06427,-0.04009 -0.09777,-0.06029c0.11285,2.20443 1.69528,4.04429 2.13045,6.11335c0.02659,0.06718 0.05304,0.13473 0.07955,0.2027l0.13104,0.25137c0.06382,0.12243 0.01631,0.27343 -0.10612,0.33725c-0.12243,0.06382 -0.27343,0.01631 -0.33725,-0.10612l-0.13573,-0.26037l0.00568,-0.00296l-0.01158,-0.00915c-0.02156,-0.05501 -0.04304,-0.10975 -0.06454,-0.16426c-0.33566,-0.30427 -0.62218,-1.14939 -0.7892,-1.47263c-0.30264,-0.58572 -0.63856,-1.37435 -0.90766,-2.20625c-0.29348,-0.65171 -0.59155,-1.30519 -0.90909,-1.9303l-0.01612,0.07974c-0.01399,0.07224 -0.0596,0.13765 -0.12991,0.1743c-0.12243,0.06382 -0.27343,0.01631 -0.33725,-0.10612c-0.01941,-0.03723 -0.02852,-0.07711 -0.02836,-0.11637l-0.00731,-0.43262l0.015,-0.00025c-0.04095,-0.15466 -0.07366,-0.31101 -0.09251,-0.46954c-0.00081,-0.00676 -0.00154,-0.01394 -0.00222,-0.02149c-0.28289,-0.01786 -0.5646,-0.03123 -0.84044,-0.03138c-0.00179,0.00447 -0.00354,0.00897 -0.00526,0.01353c-0.01643,0.04332 -0.02908,0.08937 -0.0386,0.1377c0.12443,0.56643 0.2424,1.12353 0.28057,1.69505l0.05862,-0.01202l0.09933,0.4844c0.02477,0.10819 -0.02521,0.22361 -0.12823,0.27731c-0.07168,0.03737 -0.15316,0.03657 -0.22119,0.00491c-0.122,0.06199 -0.27146,0.01431 -0.33488,-0.10735l-0.18098,-0.34716l0.06898,-0.03596c-0.38487,-0.56187 -0.45452,-1.08538 -0.31262,-1.52008c-0.00914,-0.18645 -0.00875,-0.37355 0.00232,-0.55401c-0.05441,0.00622 -0.10839,0.01334 -0.1619,0.02144c-0.27053,-0.0869 -0.51467,-0.26699 -0.7071,-0.47605l-0.00425,-0.00929l-0.0019,0.00143l-0.29805,-0.39558c-0.00929,-0.01188 -0.01763,-0.02478 -0.02486,-0.03864c-0.06382,-0.12243 -0.01631,-0.27343 0.10612,-0.33725c0.11127,-0.058 0.24613,-0.02405 0.3177,0.07453l0.20141,0.26732c0.07398,0.0228 0.14595,0.04186 0.21605,0.05742c0.0115,-0.07629 0.05804,-0.14622 0.13168,-0.18461l0.34716,-0.18098l0.00668,0.01282l0.03032,-0.02847c0.23244,-0.03942 0.46209,-0.05604 0.68891,-0.05988c0.17907,-0.04448 0.36007,-0.04998 0.50981,0.00885c0.06093,0.00266 0.12166,0.00572 0.18217,0.00895c0.65458,-0.39335 1.29242,-0.86522 2.31039,-0.72888c0.13328,0.01785 0.23692,0.07136 0.3174,0.14941zM235.14157,174.31859c-0.01206,0.01179 -0.02416,0.02352 -0.03632,0.03518c0.02065,-0.00613 0.03244,-0.01199 0.0335,-0.01801c0.001,-0.00572 0.00194,-0.01145 0.00281,-0.01719zM236.50029,171.51941c-0.03456,-0.08569 -0.06913,-0.17172 -0.10371,-0.25817c0.00833,0.15105 0.01037,0.29857 0.00468,0.44077c0.0568,0.03318 0.10523,0.06592 0.146,0.0982c-0.00408,-0.00986 -0.00821,-0.01972 -0.01236,-0.02955c-0.02498,-0.05915 -0.03118,-0.15522 -0.03461,-0.25125zM236.30909,172.55986c-0.03617,0.022 -0.0733,0.04353 -0.11079,0.0646c-0.04353,0.08733 -0.09487,0.16799 -0.15486,0.24094c-0.00159,0.00193 -0.0032,0.00386 -0.00482,0.00578l0.03985,-0.02077c0.05179,-0.027 0.10868,-0.03408 0.16192,-0.02399c0.03347,-0.09787 0.056,-0.1868 0.06871,-0.26656zM235.26382,172.80748c0.00117,-0.00063 0.00234,-0.00127 0.00351,-0.0019c0.09879,-0.10076 0.2087,-0.19735 0.31707,-0.28493c0.02671,-0.09656 0.05249,-0.20073 0.07834,-0.30854c-0.08514,0.05964 -0.17477,0.13721 -0.2665,0.23324c-0.09395,0.09836 -0.13054,0.22205 -0.13242,0.36213zM232.47719,176.12955c-0.02424,0.01381 -0.0486,0.02727 -0.07297,0.04036c0.00955,0.04067 0.02019,0.08182 0.03159,0.12337l0.04231,-0.13446c-0.00027,-0.00985 -0.00058,-0.01961 -0.00092,-0.02927zM235.5679,174.18121c0.12953,-0.17149 0.24866,-0.36011 0.35373,-0.57119c-0.04534,0.04739 -0.09277,0.09128 -0.14198,0.12931c0.00317,0.07946 -0.03186,0.15766 -0.09666,0.20777l-0.13154,0.10592c0.00721,0.04322 0.01282,0.08601 0.01645,0.12818zM231.08772,176.83373c-0.0015,-0.06015 -0.00189,-0.1195 -0.0011,-0.17796c-0.03372,-0.00198 -0.06751,-0.00403 -0.10135,-0.00616c0.03435,0.06024 0.06849,0.12166 0.10244,0.18412zM232.72574,176.82108c0.00121,-0.00192 0.00243,-0.00384 0.00365,-0.00575c-0.00151,0.0009 -0.00302,0.00178 -0.00455,0.00265zM234.99465,174.79595c-0.16058,0.01596 -0.33559,0.03938 -0.46634,0.07996c-0.03763,0.14397 -0.08149,0.2769 -0.13115,0.39957c0.203,-0.15107 0.40469,-0.30721 0.59747,-0.47952zM231.44034,175.85575c0.03115,0.03507 0.06273,0.07483 0.0947,0.11958c0.05962,-0.04389 0.12158,-0.08738 0.18548,-0.12992c-0.09286,0.00411 -0.1863,0.00741 -0.28017,0.01034zM232.10985,176.42826c0.00481,0.00036 0.00963,0.00071 0.01444,0.00107c-0.00375,-0.01352 -0.00736,-0.02716 -0.01081,-0.0409c-0.00197,0.01238 -0.00316,0.02568 -0.00363,0.03984zM232.39422,177.52846c0.0157,-0.04793 0.03222,-0.09477 0.04952,-0.14055c-0.01985,-0.01123 -0.03827,-0.02522 -0.05463,-0.04179l-0.06551,-0.06333c0.02508,0.0823 0.04929,0.16488 0.07063,0.24568z" fill="#000000" fill-rule="nonzero" stroke="none" stroke-width="0.5" stroke-linecap="butt" stroke-linejoin="miter"/><path d="M257.16746,160.41299c0.03434,-0.11584 0.06441,-0.23904 0.09003,-0.36692c-0.03883,0.09799 -0.07254,0.18832 -0.0987,0.26828c0.00278,0.033 0.00567,0.06588 0.00867,0.09864zM257.83215,158.62423c0.07824,1.00349 -0.06379,2.21816 -0.54233,2.67012c0.00287,0.04175 0.0057,0.08315 0.0085,0.12423c0.29667,1.74203 0.91634,3.16556 1.70374,4.64066c0.64981,0.71494 1.38032,1.42729 1.53337,2.32855l0.08628,-0.01382l0.04803,0.29992c0.01936,0.10511 -0.03065,0.21492 -0.13037,0.26691c-0.0885,0.04613 -0.19191,0.0341 -0.26655,-0.02235l-0.35017,-0.25349l0.00924,-0.01277l-0.04736,-0.02128c-0.74789,-1.22156 -1.41811,-2.35271 -1.95342,-3.51807c-0.63621,-1.01366 -1.04772,-1.99113 -1.1021,-3.46747c-0.07713,-0.44456 -0.13347,-0.90578 -0.16693,-1.3882c0.0582,-0.19126 0.18039,-0.47635 0.31383,-0.78692c-0.26676,0.42229 -0.82467,0.60429 -1.39374,0.72374c-0.25294,0.25011 -0.50432,0.44604 -0.74069,0.56927c-0.26019,0.13564 -0.57034,0.24827 -0.88726,0.3621c0.09693,0.20667 0.3075,0.47186 0.66574,0.81717c0.29407,0.28347 0.47359,0.56523 0.83551,0.76665c1.3125,1.14099 3.79949,5.65998 3.32737,7.74274l0.11321,0.03562l-0.08309,0.26407v0v0c-0.0192,0.06103 -0.06169,0.11473 -0.12291,0.14665c-0.12243,0.06382 -0.27343,0.01631 -0.33725,-0.10612l-0.18098,-0.34716c-0.29957,-0.57932 -0.68615,-1.10449 -0.99166,-1.69055c-0.84061,-1.6513 -1.14259,-3.74922 -2.21407,-5.31278c-0.245,-0.35752 -0.59821,-0.61271 -0.92623,-0.8892c0.00122,0.11132 0.00058,0.22235 -0.00151,0.33178c0.28083,0.74638 0.58705,1.71679 0.79926,2.65761c0.30734,0.63759 0.51586,1.25404 0.47033,1.80632c-0.07047,0.65325 1.04475,5.04251 0.24617,4.88904c-0.51935,-0.09981 -0.9234,-3.31848 -1.12712,-3.77394c-0.04807,-0.29277 -0.10097,-0.61228 -0.16173,-0.94849c-0.51981,-0.77394 -1.32197,-1.88779 -1.2813,-2.26274c0.04291,-0.39561 0.21774,-0.75448 0.35824,-1.14858c-0.27651,-0.66302 -0.61948,-1.26702 -1.0512,-1.73732c-0.24383,0.02423 -0.56777,-0.08988 -0.95942,-0.44321c-0.05114,0.02058 -0.10218,0.04263 -0.15319,0.0662l-0.08482,-0.04918l-0.01215,0.03861l-0.26407,-0.08309c-0.06103,-0.0192 -0.11473,-0.06169 -0.14665,-0.12291c-0.06382,-0.12243 -0.01631,-0.27343 0.10612,-0.33725l0.26037,-0.13573l0.00879,0.01687c0.00822,-0.00919 0.01742,-0.01836 0.02768,-0.02746c0.03921,-0.03477 0.07749,-0.05404 0.11351,-0.06277c1.76252,-1.26871 3.94832,-1.18685 5.30411,-3.62422c0.05981,-0.06186 0.11465,-0.1222 0.16488,-0.18113c-0.11922,-0.47395 -0.27201,-0.98839 -0.14334,-1.3155c0.16594,-0.42188 0.3501,-0.77552 0.54813,-1.06166c-0.00111,-0.05481 -0.00062,-0.11068 0.00193,-0.16778c-0.20692,-0.16719 -0.27838,-0.36928 -0.09921,-0.61345c0.05048,-0.0688 0.11077,-0.11566 0.17926,-0.1433l-0.016,-0.09991c-0.01936,-0.10511 0.03065,-0.21492 0.13037,-0.26691c0.12243,-0.06382 0.27343,-0.01631 0.33725,0.10612l0.13573,0.26037l-0.0748,0.03899l0.00177,0.01106c0.07032,0.0293 0.14331,0.06592 0.21834,0.10876c0.87373,-0.44594 1.87237,0.09952 2.74753,1.59365c0.40062,0.75641 0.78123,1.51816 1.15352,2.28263c1.34216,1.55857 2.77793,3.57637 2.72533,5.28351l0.11272,0.00882l-0.03865,0.49417c-0.00522,0.08461 -0.05337,0.16447 -0.13401,0.20651c-0.12243,0.06382 -0.27343,0.01631 -0.33725,-0.10612l-0.13573,-0.26037c-0.83423,-1.60027 -1.58446,-3.2162 -2.35848,-4.8229c-0.44045,-0.66312 -0.93217,-1.3033 -1.51162,-1.90313c-0.21492,-0.19585 -1.29291,-1.06739 -2.03116,-1.73268c-0.07046,0.01474 -0.13901,0.03361 -0.20476,0.05736c-0.01629,0.50997 -0.14005,1.06951 -0.3364,1.63071c0.21484,0.28581 0.45247,0.58186 0.46743,0.83216c0.01196,0.20015 -0.05729,0.47805 -0.16192,0.78225zM255.59622,163.55169c0.87844,1.54075 1.27954,3.58072 2.02729,4.97161c0.16072,0.3083 0.342,0.59887 0.52201,0.88925c-0.06473,-0.41723 -0.10183,-0.83902 -0.14869,-0.99569c-0.40047,-1.33896 -1.35355,-3.63834 -2.40061,-4.86517zM253.48818,163.06165c-0.09204,-0.38222 -0.1941,-0.70706 -0.31626,-0.93736l-0.10106,-0.19385c0.07151,0.35581 0.22392,0.73657 0.41731,1.13121zM253.90211,165.81807c-0.07042,-0.27414 -0.14801,-0.54864 -0.23407,-0.81919c-0.10671,0.23222 -0.2035,0.43547 -0.19963,0.43808c0.16102,0.10855 0.30409,0.23737 0.4337,0.38111zM253.36053,161.34694c-0.02897,0.01173 -0.05775,0.0236 -0.08632,0.03564c-0.01687,0.00984 -0.03372,0.01957 -0.05055,0.02918c0.03185,0.00143 0.06311,0.00895 0.09201,0.022l0.0711,0.03136c-0.00817,-0.0346 -0.017,-0.07487 -0.02624,-0.1182zM257.10125,159.17713c0.09055,-0.2139 0.17884,-0.42977 0.24908,-0.62715c-0.01806,-0.23038 -0.05303,-0.44306 -0.10585,-0.6217c0.0448,0.26123 0.03162,0.49882 -0.12516,0.68193c0.03181,0.21815 0.02313,0.40545 -0.01807,0.56691zM259.43003,155.60758c0.48638,0.50378 0.88393,0.96772 1.01786,1.08871c0.03018,0.03183 0.06088,0.06426 0.09206,0.09723c-0.11634,-0.22681 -0.23416,-0.4532 -0.35374,-0.67911c-0.071,-0.12202 -0.1413,-0.23723 -0.21094,-0.34554c-0.00284,0.00163 -0.00573,0.0032 -0.00866,0.00473c-0.07817,0.04075 -0.16798,0.03611 -0.23931,-0.00443l-0.29019,-0.15938c-0.00227,-0.00074 -0.00463,-0.00148 -0.00709,-0.00222zM256.37462,159.23961c0.11634,-0.10696 0.20252,-0.2296 0.24761,-0.37265c-0.08061,0.12792 -0.16334,0.25239 -0.24761,0.37265zM256.08362,158.9645c-0.22326,0.25187 -0.47885,0.52115 -0.75497,0.79045c0.03654,-0.01157 0.07283,-0.02333 0.10881,-0.03531c0.2355,-0.22326 0.45245,-0.47856 0.64616,-0.75514zM256.9742,156.90892c0.00141,0.0067 0.00284,0.01341 0.00431,0.02012c0.00076,-0.00356 0.00152,-0.00713 0.00227,-0.01069c-0.0022,-0.00314 -0.00439,-0.00628 -0.00657,-0.00943zM258.42212,154.66205c0.13541,-0.03897 0.27011,-0.0612 0.40099,-0.06398c-0.17841,-0.07126 -0.35316,-0.0833 -0.52508,-0.0341c0.04115,0.03163 0.08255,0.06437 0.12409,0.09808z" fill="#000000" fill-rule="nonzero" stroke="none" stroke-width="0.5" stroke-linecap="butt" stroke-linejoin="miter"/></g><path d="M227.57632,200.69679c-6.33831,2.50438 -15.80275,6.4432 -19.09112,3.30525c-1.46605,-1.33817 -6.30731,-9.12678 -6.51078,-13.43242c-0.13913,-4.61527 6.46288,-6.69933 8.46574,-2.50426c1.45399,2.95057 3.84808,7.90519 4.1577,7.96953c1.11581,0.07035 4.97794,-2.19545 7.27954,-1.45882" data-paper-data="{&quot;index&quot;:null}" fill="#717171" fill-rule="evenodd" stroke="#001026" stroke-width="1.2" stroke-linecap="round" stroke-linejoin="round"/></g></g></svg>