<svg version="1.1" xmlns="http://www.w3.org/2000/svg" xmlns:xlink="http://www.w3.org/1999/xlink" width="64.43023" height="95.42275" viewBox="0,0,64.43023,95.42275"><g transform="translate(-183.75749,-108.32501)"><g data-paper-data="{&quot;isPaintingLayer&quot;:true}" fill-rule="nonzero" stroke="none" stroke-linecap="butt" stroke-linejoin="miter" stroke-miterlimit="10" stroke-dasharray="" stroke-dashoffset="0" style="mix-blend-mode: normal"><path d="M238.35975,188.29476c2.40737,2.18653 3.31868,5.12134 4.06809,9.00547c0.34622,1.79443 0.97224,3.44702 0.65556,5.07435l0.27234,0.09591l-0.33077,0.93923c-0.00349,0.01016 -0.00733,0.02028 -0.01153,0.03034c-0.10628,0.25487 -0.39905,0.37533 -0.65392,0.26905c-0.1285,-0.05358 -0.22283,-0.15456 -0.27116,-0.2742l-0.37493,-0.92678c-1.80676,-4.46648 -3.17999,-9.3107 -4.35875,-14.11994c-0.93155,-0.56308 -1.98196,-0.97219 -2.91972,-1.38242c-3.24591,-1.53155 -6.97873,-2.79602 -10.00151,-4.72408c-2.93624,-1.87288 -4.94346,-3.97369 -8.20948,-5.40509c-6.40988,-2.80928 -12.86414,-5.50446 -19.32208,-8.20123c-1.09921,-0.45902 -4.14013,-1.14052 -4.8272,-2.09568c-0.82551,-1.14762 -0.42323,-4.71867 -0.67944,-6.17345c-0.61851,-3.51192 -2.92321,-5.61529 -3.80144,-8.98086c-0.50682,-1.94256 -0.50956,-3.98377 -1.01135,-5.90276c-1.34686,-5.15077 -2.76549,-9.27602 -2.82087,-14.71823c-0.05581,-5.65415 0.43961,-10.54909 2.59496,-15.80547c0.66448,-1.62051 1.09509,-3.39593 2.46554,-4.51933c1.59427,-1.23072 3.99202,-1.1691 5.9655,-1.46306c4.92034,-0.73291 10.18176,-1.03671 15.07869,-0.13624c7.13338,1.31171 13.39839,3.69864 19.6835,7.33385c5.60415,3.24134 13.16987,7.05678 17.27486,12.14935c4.11434,5.15195 -2.01983,15.45918 -6.04652,19.27832c-3.05257,3.07436 -5.76341,7.39776 -6.70456,11.73294c-0.11596,0.53412 0.37374,1.02751 0.57895,1.5341c0.65113,1.60744 0.43451,3.73472 -0.19976,5.27092c-0.17767,0.42607 -0.36107,0.83767 -0.54967,1.23971c0.74543,4.92279 1.90578,9.73975 3.00046,14.61969c0.46073,2.05566 0.93939,4.15264 1.45621,6.2556z" data-paper-data="{&quot;index&quot;:null}" fill="#000000" stroke-width="0.5"/><path d="M217.33464,134.30979c1.89067,-4.53411 26.3603,0.84749 26.3603,0.84749c0,0 -14.13335,13.88822 -19.70155,11.56635c-5.56821,-2.32188 -8.54943,-7.87975 -6.65877,-12.41386z" data-paper-data="{&quot;index&quot;:null}" fill="#ffffff" stroke-width="0"/><path d="M210.57658,133.70448c-1.89067,4.53411 -7.93727,6.32748 -13.50548,4.00561c-5.56819,-2.32187 -5.64778,-22.13672 -5.64778,-22.13672c0,0 21.0439,13.59701 19.15324,18.13111z" data-paper-data="{&quot;index&quot;:null}" fill="#ffffff" stroke-width="0"/></g></g></svg>