<svg version="1.1" xmlns="http://www.w3.org/2000/svg" xmlns:xlink="http://www.w3.org/1999/xlink" width="82.1272" height="108.51797" viewBox="0,0,82.1272,108.51797"><defs><linearGradient x1="246.0707" y1="190.26621" x2="249.97047" y2="208.45279" gradientUnits="userSpaceOnUse" id="color-1"><stop offset="0" stop-color="#ffffff"/><stop offset="1" stop-color="#9f9f9f"/></linearGradient><radialGradient cx="233.92599" cy="159.08791" r="9.00472" gradientUnits="userSpaceOnUse" id="color-2"><stop offset="0" stop-color="#1a1a1a"/><stop offset="1" stop-color="#ffffff"/></radialGradient><radialGradient cx="210.98669" cy="164.91353" r="6.89369" gradientUnits="userSpaceOnUse" id="color-3"><stop offset="0" stop-color="#1a1a1a"/><stop offset="1" stop-color="#ffffff"/></radialGradient></defs><g transform="translate(-180.25937,-132.20689)"><g data-paper-data="{&quot;isPaintingLayer&quot;:true}" stroke-miterlimit="10" stroke-dasharray="" stroke-dashoffset="0" style="mix-blend-mode: normal"><path d="M232.46466,187.85678c1.5976,1.45031 6.99373,7.57847 9.59241,7.04702c2.46177,-0.54344 6.42336,-6.40499 9.78201,-3.00721c3.29621,3.32334 -1.48006,7.45815 -6.43692,9.71475c-6.39781,2.95832 -15.46393,-3.008 -16.6091,-10.41985c-0.32013,-2.64918 2.01153,-4.85947 3.67161,-3.33471z" data-paper-data="{&quot;index&quot;:null}" fill="#717171" fill-rule="evenodd" stroke="#001026" stroke-width="1.2" stroke-linecap="round" stroke-linejoin="round"/><g fill-rule="nonzero" stroke="#001026" stroke-width="1.2" stroke-linejoin="miter"><g><g><path d="M245.77816,196.05624l-2.26438,-10.55996l2.5422,-0.54513l2.26438,10.55996z" fill="#2c2c2c" stroke-linecap="butt"/><path d="M248.36707,207.33924l2.35733,-0.45061l2.18945,14.64945z" fill="#6c6c6c" stroke-linecap="butt"/><path d="M246.35271,209.22856l-3.89978,-18.18659l7.23552,-1.55151l3.89977,18.18658z" fill="url(#color-1)" stroke-linecap="butt"/><path d="M242.99806,193.58417l3.56192,-0.55924" fill="none" stroke-linecap="round"/><path d="M247.27284,196.34938l-3.1708,0.47537" fill="none" stroke-linecap="round"/><path d="M247.23131,199.01739l-2.82163,0.19594" fill="none" stroke-linecap="round"/><path d="M247.74862,202.38375l-2.1511,0.46126" fill="none" stroke-linecap="round"/><path d="M245.8354,205.8622l3.05912,-0.04233" fill="none" stroke-linecap="round"/></g><path d="M241.18124,187.01919l-0.58706,-2.73776l7.43108,-1.59346l0.58706,2.73777z" fill="#2c2c2c" stroke-linecap="butt"/></g><path d="M246.58175,198.84985c0.61371,2.86206 -0.15828,5.45442 -1.72431,5.79022c-1.56603,0.3358 -3.33305,-1.71212 -3.94677,-4.57417c-0.61371,-2.86206 0.15829,-5.45443 1.72432,-5.79023c1.56603,-0.3358 3.33306,1.71212 3.94677,4.57418z" fill="#717171" stroke-linecap="butt"/><path d="M256.34536,195.73349c0.93794,4.37407 -0.53432,8.39871 -3.28837,8.98927c-2.75405,0.59056 -5.74698,-2.4766 -6.68493,-6.85067c-0.93794,-4.37407 0.53431,-8.3987 3.28837,-8.98926c2.75405,-0.59056 5.74698,2.47659 6.68493,6.85066z" fill="#717171" stroke-linecap="butt"/></g><g fill-rule="evenodd"><path d="M226.33743,206.82842c0.96112,0.27611 3.83844,-0.39556 2.37408,3.47041c-1.60442,3.84654 -7.11284,11.64892 -18.97672,10.71701c-12.84444,-1.06794 -15.83475,-13.47592 -12.56677,-16.4492c3.18822,-2.91295 6.05503,3.69549 13.23272,8.04643c10.32586,6.3582 14.97556,-6.06076 15.93668,-5.78464z" fill="#717171" stroke="#001026" stroke-width="1.2" stroke-linecap="round" stroke-linejoin="round"/><path d="M202.53804,207.02489c3.05303,3.20766 5.66029,4.9971 5.66029,4.9971c0,0 -2.48256,-0.62994 -4.15542,1.13686c-2.01131,2.14817 -1.28135,4.60523 -0.93884,5.22385c-1.5838,-0.93359 -3.32913,-2.24653 -5.34128,-5.23839c-1.71255,-3.09308 -2.12958,-7.29142 0.10564,-8.4805c1.83642,-0.88745 2.72184,0.44897 4.66961,2.36109z" fill="#ffffff" stroke="none" stroke-width="1" stroke-linecap="butt" stroke-linejoin="miter"/></g><path d="M261.48258,217.68021c2.18009,3.19264 -8.08059,9.15049 -8.08059,9.15049c0,0 -8.1829,6.63629 -10.36299,3.44362c-1.94579,-2.84955 -16.28177,-28.71211 -13.14345,-32.90098c2.42974,-3.24308 19.59013,20.82988 20.17018,20.4338c5.39712,-3.6854 9.23677,-3.31959 11.41686,-0.12693z" fill="#717171" fill-rule="nonzero" stroke="#001026" stroke-width="1.2" stroke-linecap="butt" stroke-linejoin="miter"/><path d="M242.3198,237.04197c0,3.86599 -11.83333,3 -11.83333,3c0,0 -10.5,0.86599 -10.5,-3c0,-3.45051 2.7452,-32.89294 7.69909,-34.58249c3.83539,-1.30808 4.43187,28.24916 5.13424,28.24916c6.53537,0 9.5,2.46734 9.5,6.33333z" fill="#717171" fill-rule="nonzero" stroke="#001026" stroke-width="1.2" stroke-linecap="butt" stroke-linejoin="miter"/><g fill-rule="evenodd"><path d="M232.17922,210.22746c-7.22348,5.676 -10.60886,-2.60427 -16.17491,-10.23046c-3.0348,-4.09877 -5.29948,-10.22526 -1.64096,-15.12987c1.91057,-2.8565 6.90328,1.0232 7.75698,-1.00688c1.32573,-3.02365 5.40388,-0.422 7.27584,1.46369c0,0 2.74129,2.85224 3.89964,4.84177c1.48125,2.47505 2.87668,5.13078 3.17468,6.60087c0,0 3.49007,7.3465 -4.29127,13.46087z" fill="#717171" stroke="#001026" stroke-width="1.2" stroke-linecap="round" stroke-linejoin="round"/><path d="M236.05168,197.42189c0,0 -1.72757,0.83996 -3.76902,1.64151c-2.48407,1.03413 -4.69715,2.19698 -6.63903,-0.93976c-1.39542,-2.6557 -3.55636,-5.56438 0.99405,-8.38463c4.28393,-2.72542 5.72677,0.06353 5.72677,0.06353c3.12061,3.91813 3.68724,7.61936 3.68724,7.61936z" fill="#ffffff" stroke="none" stroke-width="1" stroke-linecap="butt" stroke-linejoin="miter"/></g><g data-paper-data="{&quot;index&quot;:null}"><g><path d="M223.01961,132.65189c0.26741,-0.24185 0.77667,-0.21627 0.93427,0.16473l4.14151,10.20284c0,0 7.02024,3.7103 9.38378,6.69588c3.97221,4.97107 4.73126,9.40772 4.73126,9.40772c0,0 7.33125,1.03574 9.35444,6.49804c2.02319,5.4623 -0.74491,16.79093 -18.79873,23.20878c-18.05384,6.41786 -33.73864,3.58813 -42.43415,-6.64699c-8.69552,-10.23514 0.38826,-25.33099 -0.0879,-24.45164l-4.70314,-17.39829c-0.1576,-0.381 0.29299,-0.7511 0.718,-0.61195l13.12799,6.03952c0,0 4.20193,-2.34173 8.82176,-3.22905c2.74036,-0.6086 5.14375,-0.76282 7.47755,-0.70454z" fill="#717171" fill-rule="evenodd" stroke="#001026" stroke-width="1.2" stroke-linecap="butt" stroke-linejoin="miter"/><path d="M235.22023,159.19409c0.59751,4.02903 -4.95225,8.19009 -12.39571,9.29395c-7.44347,1.10387 -13.96197,-1.26745 -14.55948,-5.29648c-0.59751,-4.02903 4.95226,-8.19009 12.39572,-9.29395c7.44347,-1.10387 13.96197,1.26745 14.55948,5.29648z" fill="#000000" fill-rule="nonzero" stroke="none" stroke-width="NaN" stroke-linecap="butt" stroke-linejoin="miter"/><path d="M241.97236,159.56273c0,0 7.0894,0.76833 9.11259,6.23063c2.02319,5.4623 -1.21392,16.35502 -19.08459,22.64461c-23.20472,8.49596 -36.69272,-4.06126 -31.62019,-15.52945c5.05787,-11.56711 17.76839,-4.25256 25.9895,-6.07831c7.04876,-1.5508 6.91592,-7.9 15.60267,-7.26747z" fill="#ffffff" fill-rule="evenodd" stroke="none" stroke-width="1" stroke-linecap="butt" stroke-linejoin="miter"/><path d="M260.33467,157.95163c-4.09171,4.44835 -11.19914,5.60349 -11.19914,5.60349" fill="none" fill-rule="evenodd" stroke="#001026" stroke-width="1.2" stroke-linecap="round" stroke-linejoin="round"/><path d="M260.69173,169.22116c-6.1585,1.41877 -10.29502,0.11145 -10.29502,0.11145" fill="none" fill-rule="evenodd" stroke="#001026" stroke-width="1.2" stroke-linecap="round" stroke-linejoin="round"/><path d="M225.5926,164.31701c2.07728,-0.30806 4.28282,-0.43296 4.48442,0.2448c0.30429,1.37018 -0.76872,4.35994 -2.33675,4.69357c-1.75119,0.46188 -6.2725,-1.39493 -6.5072,-2.97762c-0.27495,-1.17235 2.38116,-1.66735 4.35953,-1.96074z" fill="#001026" fill-rule="evenodd" stroke="#001026" stroke-width="1.2" stroke-linecap="round" stroke-linejoin="round"/><path d="M180.85938,169.43455c0,0 8.91772,1.50812 12.83461,4.06114" fill="none" fill-rule="evenodd" stroke="#001026" stroke-width="1.2" stroke-linecap="round" stroke-linejoin="round"/><path d="M194.50417,176.91383c-4.00411,2.31241 -11.48542,2.30984 -11.48542,2.30984" fill="none" fill-rule="evenodd" stroke="#001026" stroke-width="1.2" stroke-linecap="round" stroke-linejoin="round"/><path d="M237.59401,154.93695c3.52875,4.0259 2.33041,5.13169 -0.17525,7.32297c-2.50565,2.19127 -7.36396,0.7888 -10.99163,-3.22243c-1.83141,-2.07735 -4.9603,-6.2786 -3.51201,-5.95413c16.46709,3.68936 13.43595,0.6734 14.15008,1.35234c0.17617,0.1675 0.36775,0.3175 0.52881,0.50125z" fill="url(#color-2)" fill-rule="evenodd" stroke="#001026" stroke-width="1.2" stroke-linecap="round" stroke-linejoin="round"/><path d="M211.42764,157.42034c3.613,3.91231 4.20732,9.28323 1.81525,11.55875c-2.98558,2.36354 -7.54335,1.62415 -11.15635,-2.28816c8.62813,-1.82519 5.7281,-13.1829 9.3411,-9.27059z" fill="url(#color-3)" fill-rule="evenodd" stroke="#001026" stroke-width="1.2" stroke-linecap="round" stroke-linejoin="round"/><path d="M227.3004,179.07094c0.39496,2.66326 -12.531,12.19573 -19.2233,13.18819c-6.6923,0.99247 -4.61668,-6.93088 -5.01164,-9.59415c-0.39496,-2.66326 2.26535,0.04314 8.95765,-0.94932c6.6923,-0.99247 14.88234,-5.30799 15.27731,-2.64473z" fill="#000000" fill-rule="nonzero" stroke="#001026" stroke-width="1.2" stroke-linecap="butt" stroke-linejoin="miter"/></g><path d="M210.06796,169.91416c0.0211,0.02158 0.04155,0.04704 0.06123,0.07657c0.1298,-0.04565 0.26283,-0.1033 0.39962,-0.17454c0.11649,-0.01803 0.23391,-0.03544 0.35173,-0.053c0.41833,-0.22377 0.81197,-0.45192 1.01976,-0.5374c0.2379,-0.13898 0.50694,-0.20301 0.77041,-0.24722c0.04254,-0.36325 0.17759,-0.68686 0.63183,-0.86344c0.25644,-0.0997 0.4934,-0.13263 0.69782,-0.1122c0.0812,-0.12073 0.16355,-0.23594 0.24633,-0.33693c0.28652,-1.08985 0.3314,-2.63295 0.43452,-3.19459l-0.03858,-0.26011c-0.02026,-0.13657 0.07404,-0.26372 0.21062,-0.28399c0.13657,-0.02026 0.26372,0.07405 0.28397,0.21063l0.04307,0.29045l-0.06251,0.00926c0.00289,0.00683 0.00577,0.01368 0.00862,0.02054l0.05656,0.01028c-0.00504,0.03024 -0.00994,0.06159 -0.0147,0.09398c0.68838,1.78113 0.46824,4.6163 0.21745,6.78538c0.21979,2.06263 0.32513,4.84947 -0.35425,6.52466l0.05251,0.00975l-0.05389,0.29058c-0.01689,0.1047 -0.09971,0.19105 -0.21019,0.20742c-0.13657,0.02026 -0.26372,-0.07405 -0.28397,-0.21062c-0.00012,-0.00081 -0.00024,-0.00163 -0.00035,-0.00242l-0.06912,-0.49485l0.00841,-0.00117l-0.01069,-0.02513c0.11076,-1.58267 0.10294,-3.13762 0.22427,-4.71094c0.08737,-0.73123 0.11971,-1.41896 0.12192,-2.08866c-0.02415,-0.27019 -0.05537,-0.53968 -0.09518,-0.80817c-0.04491,-0.30706 -0.0453,-0.61391 -0.04241,-0.92112c-0.07461,0.20926 -0.21531,0.43415 -0.43443,0.66201c-0.87016,1.11955 -1.98593,1.36626 -3.01449,1.7074l-0.03628,0.15271c-0.02114,0.09912 -0.10175,0.17942 -0.2079,0.19517c-0.11927,0.0177 -0.23135,-0.05199 -0.27133,-0.1609c-0.62004,0.25146 -1.18357,0.60461 -1.60871,1.29762l-0.18783,0.44353c-0.03211,0.07952 -0.10431,0.14044 -0.19528,0.15394c-0.1271,0.01884 -0.24604,-0.06152 -0.27824,-0.18284l-0.10957,-0.38945l0.07337,-0.02063c-0.19762,-0.59196 -0.15487,-1.0743 0.05168,-1.46954c-0.02337,-0.0292 -0.04762,-0.05892 -0.07266,-0.08897c-0.61461,2.12002 0.27875,4.37638 0.01302,6.47394c0.00314,0.07218 0.00604,0.14466 0.00885,0.21757l0.04159,0.28042c0.02026,0.13657 -0.07404,0.26372 -0.21062,0.28398c-0.13657,0.02026 -0.26372,-0.07404 -0.28397,-0.21063l-0.04307,-0.29045l0.00633,-0.00094l-0.00795,-0.01243c-0.00238,-0.05903 -0.00476,-0.11781 -0.00725,-0.17633c-0.21764,-0.39734 -0.21188,-1.2897 -0.26394,-1.64979c-0.09435,-0.6525 -0.15375,-1.50763 -0.13586,-2.38179c-0.06411,-0.71186 -0.13195,-1.42689 -0.22749,-2.12149l-0.04133,0.07008c-0.03686,0.06368 -0.10136,0.11057 -0.17979,0.12221c-0.13657,0.02026 -0.26372,-0.07405 -0.28396,-0.21062c-0.00616,-0.04154 -0.00172,-0.0822 0.01127,-0.11925l0.13462,-0.41119l0.01426,0.00466c0.01191,-0.15955 0.03215,-0.318 0.06621,-0.47396c0.00144,-0.00666 0.00311,-0.01368 0.00493,-0.02103c-0.26147,-0.10944 -0.5233,-0.21423 -0.78392,-0.30462c-0.00315,0.00365 -0.00628,0.00731 -0.0094,0.01106c-0.02969,0.03556 -0.05672,0.07495 -0.08152,0.1175c-0.06775,0.57597 -0.13854,1.14101 -0.28947,1.69355l0.05934,0.00782l-0.06462,0.49024c-0.01199,0.11034 -0.09698,0.20305 -0.21191,0.22009c-0.07997,0.01187 -0.1567,-0.01555 -0.21063,-0.06773c-0.13557,0.01866 -0.2612,-0.0753 -0.28133,-0.21101l-0.05743,-0.38726l0.07694,-0.01141c-0.17986,-0.65687 -0.07438,-1.17435 0.20192,-1.53869c0.05237,-0.17918 0.11395,-0.35586 0.18346,-0.52277c-0.05345,-0.01192 -0.10679,-0.02286 -0.16,-0.03272c-0.22721,-0.17063 -0.39899,-0.42069 -0.51243,-0.68121l-0.00099,-0.01017l-0.00227,0.00074l-0.15222,-0.47132c-0.00489,-0.01426 -0.00855,-0.02918 -0.01085,-0.04464c-0.02026,-0.13657 0.07405,-0.26372 0.21062,-0.28397c0.12412,-0.01841 0.24045,0.05781 0.27584,0.17437l0.10287,0.31851c0.06244,0.04575 0.12422,0.08731 0.18537,0.12495c0.03583,-0.06832 0.10268,-0.11918 0.18483,-0.13137l0.38726,-0.05743l0.00212,0.01431l0.03796,-0.01698c0.23254,0.03878 0.45499,0.09823 0.67059,0.16881c0.18377,0.01657 0.3566,0.07057 0.47885,0.17517c0.0567,0.02246 0.11311,0.04521 0.16922,0.06806c0.74724,-0.15752 1.50437,-0.39474 2.4217,0.06716c0.1201,0.06048 0.20054,0.14494 0.25105,0.24503zM212.51251,170.29787c-0.01525,0.00719 -0.03053,0.01432 -0.04583,0.02137c0.02152,0.00097 0.03458,-0.00071 0.03754,-0.00606c0.00282,-0.00508 0.00557,-0.01019 0.00828,-0.01532zM214.71228,168.09731c-0.00463,-0.09228 -0.00913,-0.18489 -0.01352,-0.2779c-0.04155,0.14547 -0.08789,0.28554 -0.13979,0.41805c0.04282,0.04994 0.07788,0.09672 0.10584,0.14057c-0.00063,-0.01065 -0.00131,-0.02132 -0.00202,-0.03198c-0.00426,-0.06407 0.02131,-0.15687 0.04949,-0.24874zM214.19118,169.01793c-0.04137,0.00895 -0.0835,0.01716 -0.12583,0.0248c-0.06972,0.06828 -0.1446,0.1277 -0.22517,0.17701c-0.00213,0.00131 -0.00429,0.0026 -0.00645,0.00389l0.04444,-0.00659c0.05777,-0.00857 0.11385,0.00335 0.16086,0.03031c0.06364,-0.08153 0.11404,-0.15821 0.15214,-0.22941zM213.12242,168.90993c0.00132,-0.00022 0.00263,-0.00043 0.00395,-0.00065c0.12633,-0.06288 0.26178,-0.11821 0.39285,-0.1655c0.05683,-0.08252 0.11527,-0.1725 0.17497,-0.26592c-0.09998,0.0285 -0.21003,0.07246 -0.32814,0.13321c-0.12097,0.06221 -0.19601,0.16713 -0.24361,0.29887zM209.40226,171.13742c-0.02743,0.00512 -0.05485,0.00987 -0.08216,0.01426c-0.00428,0.04155 -0.0077,0.08393 -0.01052,0.12692l0.08396,-0.11321c0.00296,-0.0094 0.00586,-0.01873 0.00871,-0.02796zM212.96032,170.30753c0.17851,-0.11966 0.35279,-0.25894 0.52115,-0.42402c-0.05836,0.02995 -0.11753,0.05591 -0.17646,0.07575c-0.023,0.07613 -0.0817,0.13856 -0.15933,0.16472l-0.15895,0.05706c-0.00734,0.04321 -0.01603,0.08547 -0.0264,0.1265zM207.85886,171.34823c0.01827,-0.05733 0.03732,-0.11354 0.05719,-0.16852c-0.03122,-0.0129 -0.06248,-0.0259 -0.09375,-0.03898c0.01275,0.06817 0.02491,0.13736 0.03656,0.20749zM209.41087,171.87221c0.00178,-0.00141 0.00356,-0.00284 0.00532,-0.00424c-0.00171,0.00036 -0.00344,0.00068 -0.00517,0.00102zM212.21749,170.70088c-0.15697,-0.03745 -0.33001,-0.07258 -0.46683,-0.07702c-0.08266,0.12374 -0.16761,0.23499 -0.25466,0.33466c0.24125,-0.07633 0.48293,-0.15788 0.72147,-0.25764zM208.51206,170.53945c0.01796,0.04334 0.0348,0.09123 0.05037,0.14398c0.07071,-0.02196 0.14347,-0.04279 0.21778,-0.06209c-0.08909,-0.02649 -0.17848,-0.05394 -0.26814,-0.08189zM208.95741,171.29951c0.00443,0.00191 0.00886,0.00381 0.01329,0.00572c0.00088,-0.014 0.00194,-0.02806 0.00316,-0.04218c-0.00591,0.01105 -0.01138,0.02323 -0.01646,0.03646zM208.86615,172.43219c0.03053,-0.04015 0.06145,-0.07901 0.09277,-0.11661c-0.01509,-0.0171 -0.02792,-0.03636 -0.03795,-0.05737l-0.04118,-0.08128c-0.00322,0.08596 -0.00737,0.17192 -0.01364,0.25526z" fill="#000000" fill-rule="nonzero" stroke="none" stroke-width="0.5" stroke-linecap="butt" stroke-linejoin="miter"/><path d="M237.87578,164.36408c0.07036,-0.09823 0.13906,-0.20482 0.20513,-0.31729c-0.06875,0.07989 -0.13017,0.15422 -0.18105,0.22122c-0.00816,0.03209 -0.0162,0.06412 -0.02408,0.09607zM239.08914,162.89124c-0.25438,0.97386 -0.78602,2.0752 -1.38609,2.34572c-0.01094,0.04039 -0.02182,0.08045 -0.03261,0.12017c-0.28962,1.74321 -0.16982,3.29114 0.09162,4.94268c0.38013,0.8882 0.83737,1.80035 0.68712,2.70208l0.08606,0.01516l-0.05274,0.29913c-0.01609,0.10566 -0.09928,0.19307 -0.21053,0.20956c-0.09872,0.01464 -0.19251,-0.03057 -0.24457,-0.10833l-0.24796,-0.3541l0.01291,-0.00905l-0.03778,-0.0356c-0.30705,-1.39902 -0.5703,-2.6872 -0.69486,-3.96357c-0.26954,-1.16602 -0.33859,-2.22433 0.09305,-3.63721c0.07256,-0.44533 0.17022,-0.89959 0.29646,-1.3664c0.11757,-0.1617 0.32631,-0.39111 0.55401,-0.64093c-0.39025,0.31177 -0.97699,0.30122 -1.55382,0.22789c-0.32085,0.15358 -0.62249,0.25648 -0.88618,0.2956c-0.29024,0.04304 -0.62018,0.04799 -0.9569,0.05187c0.02399,0.22701 0.13619,0.54649 0.36174,0.99001c0.18515,0.36408 0.26259,0.68906 0.5387,0.99782c0.86695,1.50761 1.73853,6.59159 0.61096,8.40525l0.09531,0.07071l-0.16491,0.22234v0v0c-0.03812,0.05139 -0.09583,0.08824 -0.16413,0.09837c-0.13657,0.02026 -0.26372,-0.07405 -0.28396,-0.21062l-0.05743,-0.38726c-0.09354,-0.64544 -0.28701,-1.2682 -0.38397,-1.92195c-0.25408,-1.83545 0.14697,-3.91671 -0.35396,-5.74478c-0.11454,-0.418 -0.36481,-0.77471 -0.58432,-1.14331c-0.03527,0.1056 -0.07219,0.21029 -0.10997,0.31303c0.02117,0.79719 -0.00697,1.81437 -0.11425,2.77283c0.08182,0.70306 0.07717,1.3538 -0.14656,1.86079c-0.28033,0.59424 -0.66258,5.10681 -1.36699,4.7005c-0.4581,-0.26424 0.21317,-3.43796 0.16967,-3.93501c0.05037,-0.29238 0.10493,-0.61162 0.15751,-0.94921c-0.23798,-0.90141 -0.63156,-2.21641 -0.47045,-2.55742c0.17,-0.3598 0.45261,-0.64171 0.71431,-0.96815c-0.04435,-0.717 -0.17084,-1.39996 -0.42491,-1.98564c-0.23834,-0.05688 -0.50711,-0.2707 -0.76161,-0.73272c-0.05506,0.00271 -0.11051,0.00685 -0.16642,0.01243l-0.06406,-0.07422l-0.02411,0.0325l-0.22234,-0.16492c-0.05139,-0.03812 -0.08824,-0.09583 -0.09837,-0.16413c-0.02026,-0.13657 0.07405,-0.26372 0.21062,-0.28396l0.29045,-0.04307l0.00279,0.01882c0.01077,-0.006 0.02246,-0.01165 0.03514,-0.01688c0.04843,-0.02003 0.0909,-0.02572 0.1278,-0.02218c2.08061,-0.62222 4.11933,0.17029 6.19795,-1.68935c0.07675,-0.03889 0.14831,-0.07796 0.21506,-0.11721c0.04241,-0.48686 0.06635,-1.02299 0.29496,-1.29c0.29484,-0.34438 0.58456,-0.61828 0.86532,-0.82389c0.01688,-0.05217 0.03563,-0.1048 0.05672,-0.15792c-0.14084,-0.2257 -0.14224,-0.44003 0.10695,-0.61215c0.07021,-0.04848 0.14252,-0.07304 0.21628,-0.07675l0.01757,-0.09965c0.01609,-0.10566 0.09929,-0.19307 0.21052,-0.20956c0.13657,-0.02026 0.26372,0.07404 0.28398,0.21062l0.04307,0.29045l-0.08344,0.01237l-0.00194,0.01104c0.05686,0.0507 0.11386,0.10917 0.17075,0.1742c0.97153,-0.13553 1.73674,0.70665 2.0749,2.40488c0.13109,0.84584 0.24151,1.69021 0.34321,2.53441c0.75835,1.91192 1.45491,4.28842 0.84667,5.88439l0.10363,0.04521l-0.19821,0.45432c-0.03261,0.07824 -0.10424,0.13796 -0.1942,0.1513c-0.13657,0.02026 -0.26372,-0.07405 -0.28397,-0.21062l-0.04307,-0.29044c-0.26473,-1.78513 -0.44498,-3.55759 -0.65071,-5.32911c-0.19925,-0.77072 -0.45445,-1.53656 -0.80575,-2.29295c-0.13901,-0.25539 -0.87251,-1.43166 -1.35246,-2.30188c-0.0714,-0.00913 -0.14236,-0.01372 -0.21227,-0.01278c-0.18224,0.47658 -0.48226,0.96483 -0.85142,1.43089c0.10951,0.34037 0.23718,0.69787 0.16943,0.93929c-0.05418,0.19305 -0.21055,0.43299 -0.40894,0.68622zM235.36409,166.81595c0.32599,1.74335 0.03758,3.80228 0.2891,5.36127c0.05101,0.34393 0.12724,0.67782 0.20234,1.01109c0.07533,-0.41546 0.17828,-0.82615 0.18526,-0.98954c0.05966,-1.3963 -0.08867,-3.88094 -0.67669,-5.38283zM233.53241,165.66316c0.03807,-0.3913 0.04791,-0.73165 0.00783,-0.98924l-0.03208,-0.21625c-0.04885,0.35962 -0.02939,0.76929 0.02424,1.20549zM233.02171,168.40331c0.02314,-0.28209 0.03964,-0.56686 0.04683,-0.85067c-0.17682,0.18452 -0.33477,0.34492 -0.33198,0.34864c0.11663,0.15526 0.2097,0.32379 0.28515,0.50203zM233.9728,164.00107c-0.03122,0.00161 -0.06228,0.0034 -0.09323,0.00543c-0.01916,0.00378 -0.03827,0.00747 -0.05732,0.01104c0.02963,0.01177 0.05669,0.02911 0.07975,0.05089l0.05693,0.0529c0.0036,-0.03537 0.00844,-0.07631 0.01387,-0.12027zM238.21756,163.17457c0.15554,-0.17251 0.30962,-0.3476 0.44056,-0.51114c0.05831,-0.22361 0.09485,-0.43602 0.10339,-0.62212c-0.04314,0.2615 -0.13332,0.48171 -0.34139,0.60345c-0.04131,0.21655 -0.11078,0.3907 -0.20255,0.52979zM241.58605,160.56342c0.29478,0.63519 0.51868,1.20366 0.60565,1.36182c0.01811,0.03996 0.0365,0.08064 0.05518,0.12199c-0.03573,-0.2524 -0.07298,-0.50487 -0.11207,-0.75747c-0.02716,-0.13853 -0.05591,-0.2704 -0.08628,-0.39554c-0.00322,0.00062 -0.00647,0.00115 -0.00974,0.00162c-0.08721,0.01293 -0.17055,-0.02084 -0.22469,-0.08247l-0.22208,-0.24555c-0.0019,-0.00144 -0.00389,-0.00291 -0.00598,-0.00442zM237.51047,162.99588c0.14493,-0.06301 0.2665,-0.15071 0.35591,-0.27112c-0.11802,0.09449 -0.23693,0.18507 -0.35591,0.27112zM237.32552,162.64069c-0.29339,0.16496 -0.62301,0.3358 -0.97204,0.49994c0.03831,0.00102 0.07646,0.00177 0.11436,0.00224c0.29558,-0.13392 0.58412,-0.30418 0.85766,-0.50216zM238.83962,160.98962c-0.00086,0.0068 -0.0017,0.0136 -0.00251,0.02042c0.00188,-0.00312 0.00376,-0.00624 0.00564,-0.00937c-0.00105,-0.00368 -0.00211,-0.00738 -0.00313,-0.01106zM240.94299,159.34015c0.14071,0.00747 0.27527,0.03054 0.39986,0.07074c-0.14527,-0.12571 -0.30649,-0.19425 -0.48504,-0.204c0.02854,0.04335 0.05695,0.08783 0.08518,0.13326z" fill="#000000" fill-rule="nonzero" stroke="none" stroke-width="0.5" stroke-linecap="butt" stroke-linejoin="miter"/></g><path d="M220.78891,201.92366c-6.79926,0.46499 -17.01238,1.3492 -19.1947,-2.63798c-0.99139,-1.71965 -3.24359,-10.6094 -2.13218,-14.7741c1.26659,-4.44026 8.18971,-4.42477 8.82653,0.18007c0.49106,3.25251 1.27044,8.69977 1.54598,8.85494c1.04197,0.4053 5.40926,-0.58301 7.37923,0.81673" data-paper-data="{&quot;index&quot;:null}" fill="#717171" fill-rule="evenodd" stroke="#001026" stroke-width="1.2" stroke-linecap="round" stroke-linejoin="round"/></g></g></svg>