<svg version="1.1" xmlns="http://www.w3.org/2000/svg" xmlns:xlink="http://www.w3.org/1999/xlink" width="99.52112" height="100.9241" viewBox="0,0,99.52112,100.9241"><defs><linearGradient x1="254.97548" y1="207.07383" x2="256.92089" y2="225.57182" gradientUnits="userSpaceOnUse" id="color-1"><stop offset="0" stop-color="#ffffff"/><stop offset="1" stop-color="#9f9f9f"/></linearGradient></defs><g transform="translate(-202.42889,-139.80077)"><g data-paper-data="{&quot;isPaintingLayer&quot;:true}" stroke-miterlimit="10" stroke-dasharray="" stroke-dashoffset="0" style="mix-blend-mode: normal"><path d="M245.49935,198.47537c-0.11802,2.21722 -1.49731,10.50561 0.61622,12.23275c2.03406,1.61015 9.28498,0.95878 8.75869,5.84682c-0.50752,4.78983 -6.9109,3.66872 -11.93365,1.18238c-6.51932,-3.17939 -7.65531,-14.28972 -2.48824,-20.0222c1.90482,-1.97779 5.18376,-1.55519 5.04698,0.76026z" data-paper-data="{&quot;index&quot;:null}" fill="#717171" fill-rule="evenodd" stroke="#001026" stroke-width="1.2" stroke-linecap="round" stroke-linejoin="round"/><g fill-rule="nonzero" stroke="#001026" stroke-width="1.2" stroke-linejoin="miter"><g><g><path d="M254.06942,212.80001l-1.12959,-10.74077l2.58574,-0.27194l1.12959,10.74077z" fill="#2c2c2c" stroke-linecap="butt"/><path d="M255.44488,224.29421l2.39185,-0.1976l0.62059,14.79915z" fill="#6c6c6c" stroke-linecap="butt"/><path d="M253.24118,225.95881l-1.94541,-18.49798l7.35941,-0.77398l1.94541,18.49799z" fill="url(#color-1)" stroke-linecap="butt"/><path d="M251.56771,210.04656l3.60118,-0.17763" fill="none" stroke-linecap="round"/><path d="M252.32113,213.38608l3.20336,-0.13579" fill="none" stroke-linecap="round"/><path d="M255.19972,215.89878l-2.82648,-0.10495" fill="none" stroke-linecap="round"/><path d="M253.1685,219.53115l2.18793,-0.2301" fill="none" stroke-linecap="round"/><path d="M253.08447,222.55654l3.0463,0.28293" fill="none" stroke-linecap="round"/></g><path d="M250.45868,203.3257l-0.29286,-2.78464l7.55832,-0.7949l0.29286,2.78465z" fill="#2c2c2c" stroke-linecap="butt"/></g><path d="M254.57164,215.66318c0.30615,2.91106 -0.73691,5.40673 -2.32975,5.57424c-1.59284,0.16752 -3.13228,-2.05656 -3.43843,-4.96761c-0.30615,-2.91106 0.73692,-5.40673 2.32976,-5.57425c1.59284,-0.16752 3.13228,2.05656 3.43843,4.96762z" fill="#717171" stroke-linecap="butt"/><path d="M264.6111,213.60183c0.46789,4.44897 -1.42364,8.2944 -4.22484,8.589c-2.8012,0.2946 -5.45132,-3.07318 -5.91922,-7.52215c-0.46789,-4.44897 1.42363,-8.2944 4.22483,-8.589c2.8012,-0.2946 5.45133,3.07318 5.91923,7.52215z" fill="#717171" stroke-linecap="butt"/></g><g fill-rule="evenodd"><path d="M227.93493,206.31558c0.42309,0.90608 2.81945,2.63453 -1.05748,4.06961c-3.95428,1.3167 -13.45569,2.28791 -20.54547,-7.27007c-7.63127,-10.38671 -0.23923,-20.79141 4.14924,-20.28014c4.29059,0.49076 1.19053,6.99304 2.62422,15.26314c1.98792,11.96237 14.40639,7.31136 14.82948,8.21745z" fill="#717171" stroke="#001026" stroke-width="1.2" stroke-linecap="round" stroke-linejoin="round"/><path d="M212.15475,188.49885c-0.41341,4.40898 -0.05021,7.55033 -0.05021,7.55033c0,0 -1.15561,-2.28572 -3.58662,-2.38665c-2.94089,-0.10565 -4.31416,2.05864 -4.55566,2.72323c-0.33631,-1.80746 -0.49268,-3.98589 0.44169,-7.46826c1.20747,-3.32295 4.09929,-6.39498 6.46404,-5.49055c1.87538,0.80184 1.44923,2.34728 1.28675,5.07191z" fill="#ffffff" stroke="none" stroke-width="1" stroke-linecap="butt" stroke-linejoin="miter"/></g><path d="M248.3198,236.3753c0,3.86599 -11.83333,3 -11.83333,3c0,0 -10.5,0.86599 -10.5,-3c0,-3.45051 2.7452,-32.89294 7.69909,-34.5825c3.83539,-1.30808 4.43187,28.24917 5.13424,28.24917c6.53537,0 9.5,2.46734 9.5,6.33333z" fill="#717171" fill-rule="nonzero" stroke="#001026" stroke-width="1.2" stroke-linecap="butt" stroke-linejoin="miter"/><path d="M242.3198,237.04197c0,3.86599 -11.83333,3 -11.83333,3c0,0 -10.5,0.86599 -10.5,-3c0,-3.45051 2.7452,-32.89294 7.69909,-34.58249c3.83539,-1.30808 4.43187,28.24916 5.13424,28.24916c6.53537,0 9.5,2.46734 9.5,6.33333z" fill="#717171" fill-rule="nonzero" stroke="#001026" stroke-width="1.2" stroke-linecap="butt" stroke-linejoin="miter"/><g fill-rule="evenodd"><path d="M227.86869,213.31527c-9.02654,-1.70797 -5.01594,-9.70414 -2.93229,-18.91274c1.09141,-4.98184 4.21675,-10.71725 10.3175,-11.18726c3.40832,-0.43961 3.76967,5.87297 5.86035,5.18081c3.14956,-0.99009 3.87211,3.79299 3.68291,6.44331c0,0 -0.34549,3.94089 -1.08227,6.12198c-0.89013,2.74366 -1.97278,5.54151 -2.88415,6.73289c0,0 -3.23837,7.46087 -12.96204,5.621z" fill="#717171" stroke="#001026" stroke-width="1.2" stroke-linecap="round" stroke-linejoin="round"/><path d="M240.06166,207.80979c0,0 -1.76896,-0.74886 -3.71544,-1.75942c-2.41279,-1.191 -4.74431,-2.0932 -3.65873,-5.61904c1.08264,-2.79783 1.85236,-6.33867 6.96964,-4.76594c4.87058,1.43438 3.71875,4.35555 3.71875,4.35555c-0.8989,4.92767 -3.31422,7.78886 -3.31422,7.78886z" fill="#ffffff" stroke="none" stroke-width="1" stroke-linecap="butt" stroke-linejoin="miter"/></g><path d="M228.09887,196.03009c-2.3973,0.30488 -5.78187,-2.62677 -6.89182,-2.76093c-0.31616,0.00684 -3.57304,4.44223 -5.54036,7.07844c-2.73378,3.75985 -8.84547,0.50761 -7.86764,-4.00503c0.98467,-4.19647 7.16417,-10.97245 8.84953,-12.02106c3.80513,-2.48618 12.39334,3.11138 18.16915,6.72885" fill="#717171" fill-rule="evenodd" stroke="#001026" stroke-width="1.2" stroke-linecap="round" stroke-linejoin="round"/><g><path d="M268.15,140.3c0.3,-0.2 0.8,-0.1 0.9,0.3l2.6,10.7c0,0 6.4,4.7 8.3,8c3.2,5.5 3.3,10 3.3,10c0,0 7.1,2.1 8.3,7.8c1.2,5.7 -3.2,16.5 -22,20.2c-18.8,3.7 -33.9,-1.4 -41,-12.8c-7.1,-11.4 4.1,-25 3.5,-24.2l-2.1,-17.9c-0.1,-0.4 0.4,-0.7 0.8,-0.5l12.1,7.9c0,0 4.5,-1.7 9.2,-1.9c2.8,-0.2 5.2,0 7.5,0.4z" fill="#717171" fill-rule="evenodd" stroke="#001026" stroke-width="1.2" stroke-linecap="butt" stroke-linejoin="miter"/><path d="M276.325,168.34484c0,4.0731 -6.10012,7.375 -13.625,7.375c-7.52488,0 -13.625,-3.3019 -13.625,-7.375c0,-4.0731 6.10012,-7.375 13.625,-7.375c7.52488,0 13.625,3.3019 13.625,7.375z" fill="#393939" fill-rule="nonzero" stroke="none" stroke-width="NaN" stroke-linecap="butt" stroke-linejoin="miter"/><path d="M282.95001,169.7c0,0 6.9,1.8 8.1,7.5c1.2,5.7 -3.6,16 -22.2,19.6c-24.2,5 -35.7,-9.4 -29,-20c6.7,-10.7 18.2,-1.6 26.6,-2.2c7.2,-0.5 8,-6.8 16.5,-4.9z" fill="#ffffff" fill-rule="evenodd" stroke="none" stroke-width="1" stroke-linecap="butt" stroke-linejoin="miter"/><path d="M301.35001,170.8c-4.7,3.8 -11.9,3.9 -11.9,3.9" fill="none" fill-rule="evenodd" stroke="#001026" stroke-width="1.2" stroke-linecap="round" stroke-linejoin="round"/><path d="M300.05001,182c-6.3,0.5 -10.2,-1.4 -10.2,-1.4" fill="none" fill-rule="evenodd" stroke="#001026" stroke-width="1.2" stroke-linecap="round" stroke-linejoin="round"/><path d="M266.05001,172c2.1,0 4.3,0.2 4.4,0.9c0.1,1.4 -1.4,4.2 -3,4.3c-1.8,0.2 -6,-2.3 -6,-3.9c-0.1,-1.2 2.6,-1.3 4.6,-1.3z" fill="#001026" fill-rule="evenodd" stroke="#001026" stroke-width="1.2" stroke-linecap="round" stroke-linejoin="round"/><path d="M221.05001,170.5c0,0 8.6,2.8 12.1,5.9" fill="none" fill-rule="evenodd" stroke="#001026" stroke-width="1.2" stroke-linecap="round" stroke-linejoin="round"/><path d="M233.45001,179.9c-4.3,1.7 -11.7,0.6 -11.7,0.6" fill="none" fill-rule="evenodd" stroke="#001026" stroke-width="1.2" stroke-linecap="round" stroke-linejoin="round"/><path d="M277.85001,160.3c2.9,4.5 3,9.6 0.2,11.4c-2.8,1.8 -7.4,-0.3 -10.4,-4.8c-2.9,-4.5 -3,-9.6 -0.2,-11.4c2.8,-1.9 7.5,0.3 10.4,4.8z" fill="#ffffff" fill-rule="evenodd" stroke="#001026" stroke-width="1.2" stroke-linecap="round" stroke-linejoin="round"/><path d="M253.05001,163.1c3,4.4 2.8,9.8 0.1,11.7c-3.3,1.9 -7.7,0.5 -10.7,-3.9c-3.1,-4.4 -3.05,-9.6 0.05,-11.8c3.1,-2.3 7.55,-0.4 10.55,4z" fill="#ffffff" fill-rule="evenodd" stroke="#001026" stroke-width="1.2" stroke-linecap="round" stroke-linejoin="round"/><path d="M265.575,186.84484c0,2.69239 -15.23451,12.625 -22,12.625c-6.76549,0 -2.5,-9.93261 -2.5,-12.625c0,-2.69239 2.23451,0.375 9,0.375c6.76549,0 15.5,-3.06739 15.5,-0.375z" fill="#ffffff" fill-rule="nonzero" stroke="#001026" stroke-width="1.2" stroke-linecap="butt" stroke-linejoin="miter"/><path d="M243.325,199.21984l1,-12.25" fill="none" fill-rule="nonzero" stroke="#001026" stroke-width="1.2" stroke-linecap="round" stroke-linejoin="miter"/></g></g></g></svg>