<svg version="1.1" xmlns="http://www.w3.org/2000/svg" xmlns:xlink="http://www.w3.org/1999/xlink" width="88.70825" height="109.34581" viewBox="0,0,88.70825,109.34581"><defs><linearGradient x1="267.26463" y1="185.02638" x2="260.05382" y2="202.17177" gradientUnits="userSpaceOnUse" id="color-1"><stop offset="0" stop-color="#ffffff"/><stop offset="1" stop-color="#9f9f9f"/></linearGradient></defs><g transform="translate(-198.42247,-131.37906)"><g data-paper-data="{&quot;isPaintingLayer&quot;:true}" stroke-miterlimit="10" stroke-dasharray="" stroke-dashoffset="0" style="mix-blend-mode: normal"><g fill-rule="evenodd"><path d="M229.12139,205.77633c0.86745,0.49751 3.82192,0.53196 1.47722,3.93673c-2.47608,3.35247 -9.68747,9.61473 -20.98609,5.87828c-12.21839,-4.10257 -12.16097,-16.86567 -8.27782,-18.97309c3.7913,-2.06786 4.99807,5.03381 10.92994,10.97207c8.51,8.63887 15.98928,-2.31151 16.85673,-1.81399z" fill="#717171" stroke="#001026" stroke-width="1.2" stroke-linecap="round" stroke-linejoin="round"/><path d="M205.96285,200.28709c2.19925,3.84361 4.3041,6.2036 4.3041,6.2036c0,0 -2.26048,-1.20423 -4.30666,0.11226c-2.46588,1.60606 -2.34341,4.16634 -2.15845,4.84883c-1.31522,-1.28461 -2.69677,-2.97615 -3.93672,-6.36178c-0.92486,-3.41242 -0.32785,-7.58897 2.12656,-8.21022c1.99515,-0.42352 2.53603,1.0856 3.97116,3.40732z" fill="#ffffff" stroke="none" stroke-width="1" stroke-linecap="butt" stroke-linejoin="miter"/></g><path d="M242.45109,190.90188c1.89825,1.15179 8.55096,6.28417 11.07187,5.23771c2.38025,-1.0317 5.23274,-7.72972 9.29184,-4.95598c3.98142,2.71079 -0.03263,7.82426 -4.59742,11.07582c-5.88279,4.24297 -16.2111,-0.00625 -18.82133,-7.26894c-0.84286,-2.61335 1.07909,-5.30335 3.05505,-4.08861z" data-paper-data="{&quot;index&quot;:null}" fill="#717171" fill-rule="evenodd" stroke="#001026" stroke-width="1.2" stroke-linecap="round" stroke-linejoin="round"/><path d="M248.3198,236.3753c0,3.86599 -11.83333,3 -11.83333,3c0,0 -10.5,0.86599 -10.5,-3c0,-3.45051 2.7452,-32.89294 7.69909,-34.5825c3.83539,-1.30808 4.43187,28.24917 5.13424,28.24917c6.53537,0 9.5,2.46734 9.5,6.33333z" fill="#717171" fill-rule="nonzero" stroke="#001026" stroke-width="1.2" stroke-linecap="butt" stroke-linejoin="miter"/><path d="M242.3198,237.04197c0,3.86599 -11.83333,3 -11.83333,3c0,0 -10.5,0.86599 -10.5,-3c0,-3.45051 2.7452,-32.89294 7.69909,-34.58249c3.83539,-1.30808 4.43187,28.24916 5.13424,28.24916c6.53537,0 9.5,2.46734 9.5,6.33333z" fill="#717171" fill-rule="nonzero" stroke="#001026" stroke-width="1.2" stroke-linecap="butt" stroke-linejoin="miter"/><g fill-rule="evenodd"><path d="M230.5445,215.94526c-9.18102,0.32314 -7.03108,-8.36026 -7.0279,-17.80165c-0.03324,-5.09988 1.75139,-11.38302 7.5986,-13.18586c3.22766,-1.17988 4.9712,4.8979 6.85795,3.76204c2.85396,-1.6598 4.61276,2.84647 5.01225,5.47334c0,0 0.53143,3.92015 0.2934,6.20998c-0.26364,2.87237 -0.70313,5.84002 -1.32956,7.20294c0,0 -1.51465,7.99109 -11.40474,8.33919z" fill="#717171" stroke="#001026" stroke-width="1.2" stroke-linecap="round" stroke-linejoin="round"/><path d="M241.22453,207.88822c0,0 -1.8905,-0.34064 -4.01182,-0.89742c-2.61593,-0.63003 -5.08895,-0.99627 -4.80703,-4.67466c0.43948,-2.96763 0.41001,-6.59104 5.74807,-6.18464c5.06694,0.32582 4.58714,3.429 4.58714,3.429c0.20908,5.00462 -1.51636,8.32773 -1.51636,8.32773z" fill="#ffffff" stroke="none" stroke-width="1" stroke-linecap="butt" stroke-linejoin="miter"/></g><path d="M226.62875,197.33741c-2.38341,0.39919 -5.88097,-2.39668 -6.99535,-2.48696c-0.31564,0.0193 -3.39505,4.5797 -5.25687,7.29145c-2.58336,3.86475 -8.81857,0.85609 -8.01948,-3.69161c0.81839,-4.23204 6.72583,-11.24647 8.36852,-12.36074c3.70411,-2.63432 12.50641,2.62016 18.4204,6.00701" data-paper-data="{&quot;index&quot;:null}" fill="#717171" fill-rule="evenodd" stroke="#001026" stroke-width="1.2" stroke-linecap="round" stroke-linejoin="round"/><g fill-rule="nonzero" stroke="#001026" stroke-width="1.2" stroke-linejoin="miter"><g><g><path d="M263.71093,189.60692l4.18693,-9.95539l2.39667,1.00796l-4.18693,9.95539z" fill="#2c2c2c" stroke-linecap="butt"/><path d="M259.37631,200.34095l2.19095,0.97965l-6.5889,13.26599z" fill="#6c6c6c" stroke-linecap="butt"/><path d="M256.64317,200.73736l7.21081,-17.14538l6.82128,2.86882l-7.21081,17.14539z" fill="url(#color-1)" stroke-linecap="butt"/><path d="M266.08695,187.56863l-3.24093,-1.58" fill="none" stroke-linecap="round"/><path d="M264.76883,190.70274l-2.8722,-1.42493" fill="none" stroke-linecap="round"/><path d="M260.78184,191.41258l2.42595,1.45422" fill="none" stroke-linecap="round"/><path d="M259.67739,195.07047l2.02794,0.85289" fill="none" stroke-linecap="round"/><path d="M260.67841,199.3969l-2.53278,-1.71611" fill="none" stroke-linecap="round"/></g><path d="M265.11351,179.56536l1.08549,-2.58102l7.00565,2.94635l-1.0855,2.58103z" fill="#2c2c2c" stroke-linecap="butt"/></g><path d="M262.77103,192.35765c-1.13478,2.6982 -3.25152,4.38216 -4.72789,3.76124c-1.47637,-0.62091 -1.75329,-3.31159 -0.61851,-6.00977c1.13478,-2.6982 3.25153,-4.38216 4.7279,-3.76125c1.47637,0.62091 1.75329,3.31159 0.61851,6.00978z" fill="#717171" stroke-linecap="butt"/><path d="M272.56101,195.39017c-1.73428,4.12365 -5.24498,6.58134 -7.84136,5.48938c-2.59637,-1.09195 -3.29524,-5.32003 -1.56096,-9.44369c1.73428,-4.12365 5.24497,-6.58134 7.84135,-5.48939c2.59637,1.09195 3.29524,5.32004 1.56097,9.4437z" fill="#717171" stroke-linecap="butt"/></g><g><path d="M244.82749,131.77376c0.23719,-0.27156 0.74593,-0.30592 0.94715,0.05395l5.3102,9.64633c0,0 7.40713,2.86084 10.1047,5.54843c4.52812,4.47059 5.80256,8.78751 5.80256,8.78751c0,0 7.40214,0.16826 10.05235,5.3554c2.65021,5.18714 1.23066,16.76232 -15.9453,25.25445c-17.17596,8.49213 -33.08445,7.52257 -42.92099,-1.62142c-9.83653,-9.14399 -2.58702,-25.20153 -2.95669,-24.27237l-6.71233,-16.72617c-0.20122,-0.35988 0.20282,-0.7803 0.64122,-0.69198l13.74603,4.45722c0,0 3.8981,-2.81866 8.38187,-4.24197c2.65002,-0.92596 5.01869,-1.36117 7.3432,-1.57717z" fill="#717171" fill-rule="evenodd" stroke="#001026" stroke-width="1.2" stroke-linecap="butt" stroke-linejoin="miter"/><path d="M260.05854,156.70083c1.06619,3.93108 -3.95692,8.71463 -11.21943,10.68437c-7.2625,1.96973 -14.01424,0.37975 -15.08043,-3.55133c-1.06619,-3.93108 3.95692,-8.71463 11.21943,-10.68437c7.2625,-1.96973 14.01424,-0.37975 15.08043,3.55133z" fill="#393939" fill-rule="nonzero" stroke="none" stroke-width="NaN" stroke-linecap="butt" stroke-linejoin="miter"/><path d="M266.80728,156.27456c0,0 7.13059,-0.06892 9.78079,5.11821c2.65021,5.18714 0.71373,16.38446 -16.29539,24.72772c-22.04739,11.16032 -36.91579,0.27268 -33.22409,-11.71153c3.66553,-12.08073 17.14659,-6.30829 25.09664,-9.08618c6.81807,-2.36726 5.94107,-8.657 14.64205,-9.04823z" fill="#ffffff" fill-rule="evenodd" stroke="none" stroke-width="1" stroke-linecap="butt" stroke-linejoin="miter"/><path d="M284.85365,152.51977c-3.54142,4.89779 -10.4642,6.87899 -10.4642,6.87899" fill="none" fill-rule="evenodd" stroke="#001026" stroke-width="1.2" stroke-linecap="round" stroke-linejoin="round"/><path d="M286.53072,163.66954c-5.94945,2.13167 -10.21082,1.31879 -10.21082,1.31879" fill="none" fill-rule="evenodd" stroke="#001026" stroke-width="1.2" stroke-linecap="round" stroke-linejoin="round"/><path d="M251.0986,162.91815c2.02678,-0.5497 4.20242,-0.93255 4.48217,-0.28314c0.46298,1.32501 -0.25178,4.42002 -1.76982,4.93536c-1.68489,0.6642 -6.39285,-0.64923 -6.81167,-2.19344c-0.41063,-1.13198 2.16905,-1.93525 4.09932,-2.45878z" fill="#001026" fill-rule="evenodd" stroke="#001026" stroke-width="1.2" stroke-linecap="round" stroke-linejoin="round"/><path d="M207.275,173.24977c0,0 9.03307,0.45121 13.2225,2.52695" fill="none" fill-rule="evenodd" stroke="#001026" stroke-width="1.2" stroke-linecap="round" stroke-linejoin="round"/><path d="M221.70321,179.07616c-3.70507,2.7663 -11.13499,3.6417 -11.13499,3.6417" fill="none" fill-rule="evenodd" stroke="#001026" stroke-width="1.2" stroke-linecap="round" stroke-linejoin="round"/><path d="M259.42454,148.5373c3.97682,3.58398 5.40832,8.47998 3.17712,10.95016c-2.2312,2.47017 -7.22051,1.6475 -11.29384,-1.9103c-3.97682,-3.58398 -5.40832,-8.47998 -3.17712,-10.95016c2.20502,-2.56669 7.31702,-1.67368 11.29384,1.9103z" fill="#ffffff" fill-rule="evenodd" stroke="#001026" stroke-width="1.2" stroke-linecap="round" stroke-linejoin="round"/><path d="M236.22219,157.73139c4.04715,3.46129 5.26764,8.72536 3.15914,11.26587c-2.68759,2.69757 -7.30064,2.49814 -11.34779,-0.96316c-4.14367,-3.43512 -5.45658,-8.46689 -3.04054,-11.40165c2.38986,-3.03127 7.18204,-2.36236 11.2292,1.09893z" fill="#ffffff" fill-rule="evenodd" stroke="#001026" stroke-width="1.2" stroke-linecap="round" stroke-linejoin="round"/><path d="M254.04741,174.65017c0.70477,2.59851 -9.72283,19.71206 -13.39274,20.33993c-6.21483,1.06327 -9.54823,-11.32823 -10.253,-13.92674c-0.70477,-2.59851 7.86571,1.3636 14.3953,-0.40736c6.52959,-1.77095 8.54567,-8.60434 9.25044,-6.00583z" fill="#000000" fill-rule="nonzero" stroke="#001026" stroke-width="1.2" stroke-linecap="butt" stroke-linejoin="miter"/></g></g></g></svg>