<svg version="1.1" xmlns="http://www.w3.org/2000/svg" xmlns:xlink="http://www.w3.org/1999/xlink" width="156.27929" height="122.21334" viewBox="0,0,156.27929,122.21334"><defs><linearGradient x1="257.79999" y1="201.91366" x2="251.80178" y2="219.51997" gradientUnits="userSpaceOnUse" id="color-1"><stop offset="0" stop-color="#ffffff"/><stop offset="1" stop-color="#9f9f9f"/></linearGradient></defs><g transform="translate(-136.17744,-118.51152)"><g data-paper-data="{&quot;isPaintingLayer&quot;:true}" stroke-miterlimit="10" stroke-dasharray="" stroke-dashoffset="0" style="mix-blend-mode: normal"><g stroke="#001026" stroke-width="1.2"><path d="M241.82968,193.84012c0.72725,2.09788 2.5771,10.2941 5.18607,11.09615c2.49124,0.7237 8.96049,-2.61529 10.31734,2.11007c1.33718,4.62731 -5.01593,6.00504 -10.60555,5.59752c-7.23707,-0.48469 -12.48101,-10.34527 -9.85867,-17.60359c1.01783,-2.5503 4.21387,-3.39608 4.96081,-1.20015z" data-paper-data="{&quot;index&quot;:null}" fill="#878787" fill-rule="evenodd" stroke-linecap="round" stroke-linejoin="round"/><g data-paper-data="{&quot;index&quot;:null}" fill-rule="nonzero" stroke-linejoin="miter"><g><g><path d="M254.57421,206.73076l3.48284,-10.22302l2.46108,0.83845l-3.48284,10.22302z" fill="#2c2c2c" stroke-linecap="butt"/><path d="M250.99832,217.74083l2.25392,0.82456l-5.64821,13.69298z" fill="#6c6c6c" stroke-linecap="butt"/><path d="M248.29946,218.32676l5.99822,-17.6063l7.00464,2.38638l-5.9982,17.60629z" fill="url(#color-1)" stroke-linecap="butt"/><path d="M253.45919,203.18155l3.34319,1.35026" fill="none" stroke-linecap="round"/><path d="M252.74137,206.52891l2.96454,1.22126" fill="none" stroke-linecap="round"/><path d="M254.29952,210.01778l-2.52141,-1.28159" fill="none" stroke-linecap="round"/><path d="M250.9313,212.46218l2.08246,0.70946" fill="none" stroke-linecap="round"/><path d="M249.58521,215.1729l2.64625,1.53541" fill="none" stroke-linecap="round"/></g><path d="M255.27346,196.61587l0.90295,-2.65041l7.19398,2.45088l-0.90295,2.65043z" fill="#2c2c2c" stroke-linecap="butt"/></g><path d="M253.82833,209.54031c-0.94395,2.77072 -2.93816,4.59814 -4.45421,4.08164c-1.51606,-0.5165 -1.97986,-3.18133 -1.03591,-5.95204c0.94395,-2.77072 2.93817,-4.59813 4.45424,-4.08165c1.51606,0.5165 1.97986,3.18131 1.03591,5.95205z" fill="#878787" stroke-linecap="butt"/><path d="M263.80587,211.88307c-1.44264,4.23451 -4.77349,6.93093 -7.43966,6.0226c-2.66617,-0.90833 -3.65806,-5.07742 -2.21541,-9.31192c1.44264,-4.23451 4.77349,-6.93091 7.43966,-6.0226c2.66617,0.90833 3.65806,5.07741 2.21543,9.31193z" fill="#878787" stroke-linecap="butt"/></g></g><path d="M137.07971,149.61464c-0.4383,-0.69331 -0.42947,-1.74527 -0.57758,-2.98104c-0.23761,-1.98256 -0.43949,-4.0938 -0.24934,-6.09262c0.22234,-2.33725 1.37614,-4.34 1.48336,-6.74895c0.02377,-2.2262 -0.54368,-5.22934 0.91162,-7.12356c1.078,-1.40313 3.10901,-1.78423 4.64102,-2.38323c2.94104,-1.14991 5.5396,-1.92815 8.59601,-2.70762c6.99752,-1.21856 13.60024,-3.02344 20.72177,-3.06509c7.17682,-0.04198 13.8162,1.23838 20.86057,2.54044c3.59173,0.66388 7.29616,1.09122 10.85418,1.88216c3.26202,0.72515 6.2728,2.46132 9.36016,3.69782c0.86861,0.34788 2.15194,0.64854 2.88434,1.2414c4.06623,3.29149 -3.17805,9.10489 -5.12285,11.24328c-0.83717,0.9205 -0.96186,3.37364 -1.50905,4.58334c-2.69955,5.50711 -1.13298,14.65381 2.33046,19.4634c2.58815,3.56185 5.52039,6.55954 8.2879,9.93223c0.79559,0.96956 1.45652,2.19968 2.48545,2.96651c1.09113,0.81319 2.38899,1.11961 3.44423,2.03763c5.45921,4.2486 11.52882,7.8769 17.46324,11.43378c0.53029,0.26569 2.6667,1.02662 2.88085,1.54527c0.82339,1.99422 -2.19254,2.28095 -3.4249,2.39944c-4.59129,0.44145 -9.43272,0.02078 -14.04685,0.02078c-6.9733,0.00001 -14.1042,0.43092 -21.03666,-0.33053c-4.06973,-0.44701 -7.97225,-1.00648 -11.78909,-2.58095c-2.74167,-1.13096 -4.79203,-3.6052 -7.76635,-4.27119c-2.88375,-0.66045 -5.8229,-1.57368 -8.72547,-2.08025c-3.80304,-0.66372 -8.00024,0.24554 -11.78782,0.70583c-2.84257,0.45802 -6.38116,1.13865 -9.17356,0.02372c-3.66827,-1.46465 -5.95792,-5.98244 -8.0585,-9.02619c-2.82966,-4.10018 -6.01727,-8.17435 -7.9922,-12.77995c-0.80275,-1.87203 -1.12643,-3.77789 -2.04439,-5.58806c-0.94666,-2.28612 -2.3271,-3.87347 -3.51274,-5.72064c-0.38116,-0.59383 -0.27952,-1.46021 -0.38781,-2.23716z" fill="#000000" fill-rule="nonzero" stroke="none" stroke-width="0.5" stroke-linecap="butt" stroke-linejoin="miter"/><g fill-rule="evenodd"><path d="M224.78334,200.96667c0.6,0.8 3.3,2 -0.2,4.2c-3.6,2.1 -12.7,5 -21.6,-2.9c-9.6,-8.6 -4.5,-20.3 -0.1,-20.7c4.3,-0.4 2.6,6.6 5.7,14.4c4.4,11.3 15.6,4.2 16.2,5z" fill="#878787" stroke="#001026" stroke-width="1.2" stroke-linecap="round" stroke-linejoin="round"/><path d="M205.68334,186.76667c0.5,4.4 1.5,7.4 1.5,7.4c0,0 -1.6,-2 -4,-1.6c-2.9,0.5 -3.8,2.9 -3.9,3.6c-0.7,-1.7 -1.3,-3.8 -1.1,-7.4c0.5,-3.5 2.7,-7.1 5.2,-6.7c2,0.4 1.9,2 2.3,4.7z" fill="#ffffff" stroke="none" stroke-width="1" stroke-linecap="butt" stroke-linejoin="miter"/></g><path d="M226.4449,192.91737c-0.53175,2.35738 -4.44264,4.53794 -4.94762,5.53543c-0.10149,0.2995 2.95576,4.87478 4.76209,7.62381c2.60084,3.853 -2.54229,8.48745 -6.4501,6.02796c-3.6083,-2.35799 -7.86791,-10.47931 -8.27824,-12.42138c-1.03797,-4.42523 7.15496,-10.58688 12.52673,-14.78095" fill="#878787" fill-rule="evenodd" stroke="#001026" stroke-width="1.2" stroke-linecap="round" stroke-linejoin="round"/><path d="M248.3198,236.3753c0,3.86599 -11.83333,3 -11.83333,3c0,0 -10.5,0.86599 -10.5,-3c0,-3.45051 2.7452,-32.89294 7.69909,-34.5825c3.83539,-1.30808 4.43187,28.24917 5.13424,28.24917c6.53537,0 9.5,2.46734 9.5,6.33333z" fill="#878787" fill-rule="nonzero" stroke="#001026" stroke-width="1.2" stroke-linecap="butt" stroke-linejoin="miter"/><path d="M242.3198,237.04197c0,3.86599 -11.83333,3 -11.83333,3c0,0 -10.5,0.86599 -10.5,-3c0,-3.45051 2.7452,-32.89294 7.69909,-34.58249c3.83539,-1.30808 4.43187,28.24916 5.13424,28.24916c6.53537,0 9.5,2.46734 9.5,6.33333z" fill="#878787" fill-rule="nonzero" stroke="#001026" stroke-width="1.2" stroke-linecap="butt" stroke-linejoin="miter"/><g fill-rule="evenodd"><path d="M228.46746,211.92774c-9.18562,-0.14169 -6.59918,-8.70522 -6.1184,-18.13437c0.22478,-5.09504 2.32496,-11.27985 8.25588,-12.7846c3.28322,-1.01509 4.71707,5.1431 6.65887,4.10414c2.93427,-1.51331 4.46287,3.07617 4.72896,5.71988c0,0 0.33245,3.94201 -0.02111,6.21687c-0.40861,2.85536 -0.99765,5.79696 -1.69222,7.12646c0,0 -1.91695,7.90424 -11.81198,7.75161z" fill="#878787" stroke="#001026" stroke-width="1.2" stroke-linecap="round" stroke-linejoin="round"/><path d="M239.54139,204.42127c0,0 -1.87085,-0.43583 -3.96129,-1.09921c-2.58071,-0.76155 -5.03204,-1.25242 -4.5644,-4.91184c0.58904,-2.9416 0.7429,-6.56186 6.05356,-5.88595c5.04397,0.58172 4.40781,3.65665 4.40781,3.65665c-0.04435,5.00879 -1.93568,8.24035 -1.93568,8.24035z" fill="#ffffff" stroke="none" stroke-width="1" stroke-linecap="butt" stroke-linejoin="miter"/></g><path d="M220.06371,195.99621l2.11464,-8.76682l4.89755,0.85834l-2.11464,8.76682z" fill="#878787" fill-rule="nonzero" stroke="#001026" stroke-width="0" stroke-linecap="butt" stroke-linejoin="miter"/><path d="M169.5,147.83333c0,5.24671 -5.22334,9.5 -11.66667,9.5c-6.44332,0 -14.66667,-19.5 -14.66667,-19.5c0,0 26.33333,4.75329 26.33333,10z" fill="#ffffff" fill-rule="nonzero" stroke="none" stroke-width="0" stroke-linecap="butt" stroke-linejoin="miter"/><path d="M203.16667,134.83334c0,0 -8.22335,19.5 -14.66667,19.5c-6.44332,0 -11.66666,-4.2533 -11.66666,-9.5c0,-5.2467 26.33334,-10 26.33334,-10z" data-paper-data="{&quot;index&quot;:null}" fill="#ffffff" fill-rule="nonzero" stroke="none" stroke-width="0" stroke-linecap="butt" stroke-linejoin="miter"/><g><path d="M258.50603,137.26592c0.29901,-0.20148 0.79949,-0.10396 0.90148,0.29554l2.65298,10.68698c0,0 6.42321,4.66824 8.33953,7.95879c3.22721,5.48408 3.3495,9.98353 3.3495,9.98353c0,0 7.11032,2.0648 8.33854,7.75878c1.22823,5.69398 -3.11822,16.51565 -21.89966,20.30874c-18.78144,3.79309 -33.90652,-1.23204 -41.06291,-12.59672c-7.15639,-11.36469 3.9761,-25.02001 3.38007,-24.21705l-2.18865,-17.88937c-0.10198,-0.3995 0.39652,-0.70197 0.79751,-0.50395l12.13899,7.83996c0,0 4.49152,-1.72227 9.19047,-1.94555c2.79898,-0.21387 5.19994,-0.02576 7.50189,0.36284z" fill="#878787" fill-rule="evenodd" stroke="#001026" stroke-width="1.2" stroke-linecap="butt" stroke-linejoin="miter"/><path d="M266.81986,165.26992c0.02018,4.07305 -6.06351,7.40513 -13.5883,7.44241c-7.52479,0.03728 -13.64119,-3.23436 -13.66137,-7.30741c-0.02018,-4.07305 6.06351,-7.40513 13.5883,-7.44241c7.52479,-0.03728 13.64119,3.23436 13.66137,7.30741z" fill="#535353" fill-rule="nonzero" stroke="none" stroke-width="NaN" stroke-linecap="butt" stroke-linejoin="miter"/><path d="M273.45151,166.59224c0,0 6.90883,1.76579 8.13705,7.45978c1.22823,5.69398 -3.52069,16.01764 -22.10263,19.70974c-24.17494,5.11982 -35.74613,-9.22303 -29.09872,-19.85609c6.64691,-10.73306 18.19185,-1.69015 26.58878,-2.33176c7.19743,-0.53566 7.96621,-6.83954 16.47553,-4.98168z" fill="#ffffff" fill-rule="evenodd" stroke="none" stroke-width="1" stroke-linecap="butt" stroke-linejoin="miter"/><path d="M291.85673,167.60107c-4.68111,3.82324 -11.88054,3.95891 -11.88054,3.95891" fill="none" fill-rule="evenodd" stroke="#001026" stroke-width="1.2" stroke-linecap="round" stroke-linejoin="round"/><path d="M290.61223,178.80738c-6.29744,0.5312 -10.20681,-1.34945 -10.20681,-1.34945" fill="none" fill-rule="evenodd" stroke="#001026" stroke-width="1.2" stroke-linecap="round" stroke-linejoin="round"/><path d="M256.56311,168.97594c2.09997,-0.0104 4.30094,0.1787 4.4044,0.87819c0.10694,1.39948 -1.37917,4.20689 -2.97866,4.31481c-1.79899,0.20891 -6.01132,-2.27025 -6.01925,-3.87023c-0.10594,-1.19949 2.59352,-1.31287 4.5935,-1.32278z" fill="#001026" fill-rule="evenodd" stroke="#001026" stroke-width="1.2" stroke-linecap="round" stroke-linejoin="round"/><path d="M211.55623,167.69888c0,0 8.61377,2.75736 12.12908,5.83999" fill="none" fill-rule="evenodd" stroke="#001026" stroke-width="1.2" stroke-linecap="round" stroke-linejoin="round"/><path d="M224.00265,177.03734c-4.29153,1.72128 -11.69689,0.65795 -11.69689,0.65795" fill="none" fill-rule="evenodd" stroke="#001026" stroke-width="1.2" stroke-linecap="round" stroke-linejoin="round"/><path d="M268.305,157.21762c2.92226,4.48558 3.04752,9.58502 0.25647,11.39887c-2.79105,1.81385 -7.4014,-0.26334 -10.42365,-4.74842c-2.92226,-4.48558 -3.04752,-9.58502 -0.25647,-11.39887c2.79055,-1.91385 7.5014,0.26284 10.42365,4.74842z" fill="#ffffff" fill-rule="evenodd" stroke="#001026" stroke-width="1.2" stroke-linecap="round" stroke-linejoin="round"/><path d="M243.51918,160.14045c3.02176,4.38509 2.84851,9.78601 0.15796,11.69937c-3.29055,1.91633 -7.69743,0.53814 -10.71919,-3.84695c-3.12176,-4.38459 -3.09752,-9.58478 -0.00846,-11.80011c3.08857,-2.31533 7.54793,-0.4374 10.56969,3.94769z" fill="#ffffff" fill-rule="evenodd" stroke="#001026" stroke-width="1.2" stroke-linecap="round" stroke-linejoin="round"/><path d="M256.16165,183.82295c0.01334,2.69235 -15.19655,7.70038 -21.96196,7.73389c-6.7654,0.03351 -2.52441,-4.92016 -2.53775,-7.61252c-0.01334,-2.69235 2.23634,0.36392 9.00175,0.33041c6.7654,-0.03351 15.48461,-3.14414 15.49796,-0.45179z" fill="#ffffff" fill-rule="nonzero" stroke="#001026" stroke-width="1.2" stroke-linecap="butt" stroke-linejoin="miter"/><path d="M234.91253,184.05322l-1.21654,6.75611" fill="none" fill-rule="nonzero" stroke="#001026" stroke-width="1.2" stroke-linecap="round" stroke-linejoin="miter"/></g></g></g></svg>