<svg version="1.1" xmlns="http://www.w3.org/2000/svg" xmlns:xlink="http://www.w3.org/1999/xlink" width="159.79167" height="122.26072" viewBox="0,0,159.79167,122.26072"><defs><linearGradient x1="257.88239" y1="201.70039" x2="252.95378" y2="219.63553" gradientUnits="userSpaceOnUse" id="color-1"><stop offset="0" stop-color="#ffffff"/><stop offset="1" stop-color="#9f9f9f"/></linearGradient></defs><g transform="translate(-132.66506,-118.46415)"><g data-paper-data="{&quot;isPaintingLayer&quot;:true}" stroke-miterlimit="10" stroke-dasharray="" stroke-dashoffset="0" style="mix-blend-mode: normal"><path d="M247.81892,204.46442c-5.08375,-0.10287 -11.11387,-0.53876 -15.18802,-3.02932c-1.74202,-1.41445 -3.97396,-2.51901 -5.94012,-3.6964c-2.81476,-1.68555 -4.45407,-4.16054 -7.65438,-5.36195c-2.47443,-0.92891 -5.51233,-1.18295 -8.10249,-1.77057c-8.00704,-2.19232 -16.14024,-5.72065 -22.82381,-10.20689c-2.91304,-1.95911 -4.07109,-4.68525 -6.30663,-7.21c-3.23366,-3.652 -8.854,-5.3952 -13.47281,-6.42346c-1.91189,-0.42563 -4.00587,-0.63698 -5.85681,-1.10384c-6.08748,-1.53544 -10.64101,-7.55691 -16.05021,-10.45436c-7.18739,-3.87926 -13.65794,-12.03716 -13.65643,-20.32932c0.00373,-1.81538 -0.35372,-4.42221 0.24715,-6.15067c0.82669,-2.37804 3.03938,-2.74815 5.01555,-3.36289c4.11013,-1.27856 7.75626,-3.9808 11.66925,-5.76579c2.99575,-1.34858 6.43477,-1.09201 9.65347,-1.09197c5.18533,0.00005 10.43664,-0.24758 15.58315,0.44722c7.74465,1.05261 18.03759,-1.03131 24.71085,3.67213c3.6969,2.6245 5.01798,5.72203 7.55711,9.27328c2.6202,3.66464 5.83512,6.37868 7.32228,10.84008c4.65047,6.89992 4.30538,16.03389 6.31802,24.03676c0.45963,1.87589 1.73199,3.4517 2.63997,5.15118c2.99776,5.61097 6.94099,10.58666 10.70467,15.69539c4.34173,5.89337 10.29194,9.78467 14.88831,15.30032c0,0 0.13601,0.16321 0.14843,0.37606c0.39422,0.00217 0.77873,0.00292 1.15158,0.0032v0l1.19416,0.00295c0.00006,0 0.00013,0 0.00019,0c0.32913,0.0008 0.5957,0.26785 0.5957,0.59717c0,0.3298 -0.26735,0.59716 -0.59715,0.59717l-1.19435,0.00006v-0.00301h-0.0015v-0.0007l-0.0007,0.00069c-0.27558,-0.00231 -0.55623,-0.00473 -0.84134,-0.00763c-0.11681,0.00699 -0.23377,0.01066 -0.35083,0.01066l-1.16012,0.00001c0,0 -0.0911,0 -0.20214,-0.03558z" fill="#000000" fill-rule="nonzero" stroke="none" stroke-width="0.5" stroke-linecap="butt" stroke-linejoin="miter"/><g stroke="#001026" stroke-width="1.2"><path d="M241.4555,194.60181c0.85209,2.05035 3.19145,10.12051 5.84393,10.76422c2.53025,0.57259 8.787,-3.14938 10.42556,1.48583c1.61302,4.53852 -4.64575,6.2958 -10.24976,6.22514c-7.25312,-0.04862 -13.08052,-9.57603 -10.89939,-16.9789c0.86263,-2.60689 4.00202,-3.64332 4.87966,-1.49629z" data-paper-data="{&quot;index&quot;:null}" fill="#878787" fill-rule="evenodd" stroke-linecap="round" stroke-linejoin="round"/><g data-paper-data="{&quot;index&quot;:null}" fill-rule="nonzero" stroke-linejoin="miter"><g><g><path d="M254.95212,206.70276l2.86179,-10.41396l2.50705,0.68894l-2.86179,10.41396z" fill="#2c2c2c" stroke-linecap="butt"/><path d="M252.04479,217.90793l2.29942,0.68753l-4.81457,14.00785z" fill="#6c6c6c" stroke-linecap="butt"/><path d="M249.38604,218.6551l4.92863,-17.93513l7.13546,1.96085l-4.92861,17.93513z" fill="url(#color-1)" stroke-linecap="butt"/><path d="M257.04404,204.37379l-3.41834,-1.14678" fill="none" stroke-linecap="round"/><path d="M253.11047,206.61148l3.03261,1.04078" fill="none" stroke-linecap="round"/><path d="M252.28168,208.87269l2.59392,1.12765" fill="none" stroke-linecap="round"/><path d="M253.78182,213.22581l-2.12135,-0.58295" fill="none" stroke-linecap="round"/><path d="M250.47981,215.42962l2.73379,1.3735" fill="none" stroke-linecap="round"/></g><path d="M255.04186,196.56412l0.74193,-2.69992l7.32835,2.01384l-0.74194,2.69993z" fill="#2c2c2c" stroke-linecap="butt"/></g><path d="M254.37655,209.55207c-0.77562,2.82247 -2.65634,4.7665 -4.20071,4.34211c-1.54438,-0.4244 -2.16759,-3.05651 -1.39195,-5.87898c0.77562,-2.82247 2.65636,-4.76649 4.20074,-4.34211c1.54438,0.4244 2.16758,3.0565 1.39195,5.87899z" fill="#878787" stroke-linecap="butt"/><path d="M264.47691,211.29061c-1.18539,4.31359 -4.34807,7.20543 -7.06404,6.45908c-2.71597,-0.74635 -3.95676,-4.84825 -2.77137,-9.16184c1.18539,-4.31359 4.34807,-7.20542 7.06404,-6.45908c2.71596,0.74635 3.95677,4.84825 2.77139,9.16186z" fill="#878787" stroke-linecap="butt"/></g></g><g fill-rule="evenodd"><path d="M224.78334,200.96667c0.6,0.8 3.3,2 -0.2,4.2c-3.6,2.1 -12.7,5 -21.6,-2.9c-9.6,-8.6 -4.5,-20.3 -0.1,-20.7c4.3,-0.4 2.6,6.6 5.7,14.4c4.4,11.3 15.6,4.2 16.2,5z" fill="#878787" stroke="#001026" stroke-width="1.2" stroke-linecap="round" stroke-linejoin="round"/><path d="M205.68334,186.76667c0.5,4.4 1.5,7.4 1.5,7.4c0,0 -1.6,-2 -4,-1.6c-2.9,0.5 -3.8,2.9 -3.9,3.6c-0.7,-1.7 -1.3,-3.8 -1.1,-7.4c0.5,-3.5 2.7,-7.1 5.2,-6.7c2,0.4 1.9,2 2.3,4.7z" fill="#ffffff" stroke="none" stroke-width="1" stroke-linecap="butt" stroke-linejoin="miter"/></g><path d="M226.4449,192.91737c-0.53175,2.35738 -4.44264,4.53794 -4.94762,5.53543c-0.10149,0.2995 2.95576,4.87478 4.76209,7.62381c2.60084,3.853 -2.54229,8.48745 -6.4501,6.02796c-3.6083,-2.35799 -7.86791,-10.47931 -8.27824,-12.42138c-1.03797,-4.42523 7.15496,-10.58688 12.52673,-14.78095" fill="#878787" fill-rule="evenodd" stroke="#001026" stroke-width="1.2" stroke-linecap="round" stroke-linejoin="round"/><path d="M248.3198,236.3753c0,3.86599 -11.83333,3 -11.83333,3c0,0 -10.5,0.86599 -10.5,-3c0,-3.45051 2.7452,-32.89294 7.69909,-34.5825c3.83539,-1.30808 4.43187,28.24917 5.13424,28.24917c6.53537,0 9.5,2.46734 9.5,6.33333z" fill="#878787" fill-rule="nonzero" stroke="#001026" stroke-width="1.2" stroke-linecap="butt" stroke-linejoin="miter"/><path d="M242.3198,237.04197c0,3.86599 -11.83333,3 -11.83333,3c0,0 -10.5,0.86599 -10.5,-3c0,-3.45051 2.7452,-32.89294 7.69909,-34.58249c3.83539,-1.30808 4.43187,28.24916 5.13424,28.24916c6.53537,0 9.5,2.46734 9.5,6.33333z" fill="#878787" fill-rule="nonzero" stroke="#001026" stroke-width="1.2" stroke-linecap="butt" stroke-linejoin="miter"/><g fill-rule="evenodd"><path d="M228.46746,211.92774c-9.18562,-0.14169 -6.59918,-8.70522 -6.1184,-18.13437c0.22478,-5.09504 2.32496,-11.27985 8.25588,-12.7846c3.28322,-1.01509 4.71707,5.1431 6.65887,4.10414c2.93427,-1.51331 4.46287,3.07617 4.72896,5.71988c0,0 0.33245,3.94201 -0.02111,6.21687c-0.40861,2.85536 -0.99765,5.79696 -1.69222,7.12646c0,0 -1.91695,7.90424 -11.81198,7.75161z" fill="#878787" stroke="#001026" stroke-width="1.2" stroke-linecap="round" stroke-linejoin="round"/><path d="M239.54139,204.42127c0,0 -1.87085,-0.43583 -3.96129,-1.09921c-2.58071,-0.76155 -5.03204,-1.25242 -4.5644,-4.91184c0.58904,-2.9416 0.7429,-6.56186 6.05356,-5.88595c5.04397,0.58172 4.40781,3.65665 4.40781,3.65665c-0.04435,5.00879 -1.93568,8.24035 -1.93568,8.24035z" fill="#ffffff" stroke="none" stroke-width="1" stroke-linecap="butt" stroke-linejoin="miter"/></g><path d="M220.06371,195.99621l2.11464,-8.76682l4.89755,0.85834l-2.11464,8.76682z" fill="#878787" fill-rule="nonzero" stroke="#001026" stroke-width="0" stroke-linecap="butt" stroke-linejoin="miter"/><path d="M169.5,147.83333c0,5.24671 -5.22334,9.5 -11.66667,9.5c-6.44332,0 -14.66667,-19.5 -14.66667,-19.5c0,0 26.33333,4.75329 26.33333,10z" fill="#ffffff" fill-rule="nonzero" stroke="none" stroke-width="0" stroke-linecap="butt" stroke-linejoin="miter"/><path d="M203.16667,134.83334c0,0 -8.22335,19.5 -14.66667,19.5c-6.44332,0 -11.66666,-4.2533 -11.66666,-9.5c0,-5.2467 26.33334,-10 26.33334,-10z" data-paper-data="{&quot;index&quot;:null}" fill="#ffffff" fill-rule="nonzero" stroke="none" stroke-width="0" stroke-linecap="butt" stroke-linejoin="miter"/><g><path d="M258.50603,136.51592c0.29901,-0.20148 0.79949,-0.10396 0.90148,0.29554l2.65298,10.68698c0,0 6.42321,4.66824 8.33953,7.95879c3.22721,5.48408 3.3495,9.98353 3.3495,9.98353c0,0 7.11032,2.0648 8.33854,7.75878c1.22823,5.69398 -3.11822,16.51565 -21.89966,20.30874c-18.78144,3.79309 -33.90652,-1.23204 -41.06291,-12.59672c-7.15639,-11.36469 3.9761,-25.02001 3.38007,-24.21705l-2.18865,-17.88937c-0.10198,-0.3995 0.39652,-0.70197 0.79751,-0.50395l12.13899,7.83996c0,0 4.49152,-1.72227 9.19047,-1.94555c2.79898,-0.21387 5.19994,-0.02576 7.50189,0.36284z" fill="#878787" fill-rule="evenodd" stroke="#001026" stroke-width="1.2" stroke-linecap="butt" stroke-linejoin="miter"/><path d="M266.81986,164.51992c0.02018,4.07305 -6.06351,7.40513 -13.5883,7.44241c-7.52479,0.03728 -13.64119,-3.23436 -13.66137,-7.30741c-0.02018,-4.07305 6.06351,-7.40513 13.5883,-7.44241c7.52479,-0.03728 13.64119,3.23436 13.66137,7.30741z" fill="#535353" fill-rule="nonzero" stroke="none" stroke-width="NaN" stroke-linecap="butt" stroke-linejoin="miter"/><path d="M273.45151,165.84224c0,0 6.90883,1.76579 8.13705,7.45978c1.22823,5.69398 -3.52069,16.01764 -22.10263,19.70974c-24.17494,5.11982 -35.74613,-9.22303 -29.09872,-19.85609c6.64691,-10.73306 18.19185,-1.69015 26.58878,-2.33176c7.19743,-0.53566 7.96621,-6.83954 16.47553,-4.98168z" fill="#ffffff" fill-rule="evenodd" stroke="none" stroke-width="1" stroke-linecap="butt" stroke-linejoin="miter"/><path d="M291.85673,166.85107c-4.68111,3.82324 -11.88054,3.95891 -11.88054,3.95891" fill="none" fill-rule="evenodd" stroke="#001026" stroke-width="1.2" stroke-linecap="round" stroke-linejoin="round"/><path d="M290.61223,178.05738c-6.29744,0.5312 -10.20681,-1.34945 -10.20681,-1.34945" fill="none" fill-rule="evenodd" stroke="#001026" stroke-width="1.2" stroke-linecap="round" stroke-linejoin="round"/><path d="M256.56311,168.22594c2.09997,-0.0104 4.30094,0.1787 4.4044,0.87819c0.10694,1.39948 -1.37917,4.20689 -2.97866,4.31481c-1.79899,0.20891 -6.01132,-2.27025 -6.01925,-3.87023c-0.10594,-1.19949 2.59352,-1.31287 4.5935,-1.32278z" fill="#001026" fill-rule="evenodd" stroke="#001026" stroke-width="1.2" stroke-linecap="round" stroke-linejoin="round"/><path d="M211.55623,166.94888c0,0 8.61377,2.75736 12.12908,5.83999" fill="none" fill-rule="evenodd" stroke="#001026" stroke-width="1.2" stroke-linecap="round" stroke-linejoin="round"/><path d="M224.00265,176.28734c-4.29153,1.72128 -11.69689,0.65795 -11.69689,0.65795" fill="none" fill-rule="evenodd" stroke="#001026" stroke-width="1.2" stroke-linecap="round" stroke-linejoin="round"/><path d="M268.305,156.46762c2.92226,4.48558 3.04752,9.58502 0.25647,11.39887c-2.79105,1.81385 -7.4014,-0.26334 -10.42365,-4.74842c-2.92226,-4.48558 -3.04752,-9.58502 -0.25647,-11.39887c2.79055,-1.91385 7.5014,0.26284 10.42365,4.74842z" fill="#ffffff" fill-rule="evenodd" stroke="#001026" stroke-width="1.2" stroke-linecap="round" stroke-linejoin="round"/><path d="M243.51918,159.39045c3.02176,4.38509 2.84851,9.78601 0.15796,11.69937c-3.29055,1.91633 -7.69743,0.53814 -10.71919,-3.84695c-3.12176,-4.38459 -3.09752,-9.58478 -0.00846,-11.80011c3.08857,-2.31533 7.54793,-0.4374 10.56969,3.94769z" fill="#ffffff" fill-rule="evenodd" stroke="#001026" stroke-width="1.2" stroke-linecap="round" stroke-linejoin="round"/><path d="M256.16165,183.07295c0.01334,2.69235 -15.19655,7.70038 -21.96196,7.73389c-6.7654,0.03351 -2.52441,-4.92016 -2.53775,-7.61252c-0.01334,-2.69235 2.23634,0.36392 9.00175,0.33041c6.7654,-0.03351 15.48461,-3.14414 15.49796,-0.45179z" fill="#ffffff" fill-rule="nonzero" stroke="#001026" stroke-width="1.2" stroke-linecap="butt" stroke-linejoin="miter"/><path d="M234.91253,183.30322l-1.21654,6.75611" fill="none" fill-rule="nonzero" stroke="#001026" stroke-width="1.2" stroke-linecap="round" stroke-linejoin="miter"/></g></g></g></svg>