<svg version="1.1" xmlns="http://www.w3.org/2000/svg" xmlns:xlink="http://www.w3.org/1999/xlink" width="60.44491" height="47.6324" viewBox="0,0,60.44491,47.6324"><g transform="translate(-223.30752,-157.52315)"><g data-paper-data="{&quot;isPaintingLayer&quot;:true}" fill-rule="nonzero" stroke="none" stroke-linecap="butt" stroke-linejoin="miter" stroke-miterlimit="10" stroke-dasharray="" stroke-dashoffset="0" style="mix-blend-mode: normal"><path d="M226.07206,166.98625c0.11676,-0.20411 0.27997,-0.23761 0.40722,-0.22424c0.12925,-3.54005 0.82146,-7.53328 4.51682,-9.03957c0.92477,-0.37695 2.70117,-0.10248 3.70302,-0.10734c6.15595,-0.02973 12.34517,0.42631 18.5432,0.42739c1.95423,0.00004 4.38622,-0.07169 6.26793,0.44833c3.9787,1.09952 7.30789,3.81125 11.27033,4.9152c1.9573,0.55279 5.96481,2.80591 6.60174,4.84323c0.2574,0.82334 -0.00708,1.87297 0.09306,2.72191c0.31047,2.63213 1.28747,5.08988 1.30225,7.7745c1.00301,2.41678 1.88123,4.90106 2.95273,7.28777c0.59883,1.33385 1.6285,2.67675 1.83086,4.14871c0.10383,0.75529 0.42394,4.26069 -0.10438,4.79275c-0.16742,0.16861 -1.76752,0.13906 -2.08211,0.13977c-2.94891,0.00661 -5.89783,0.00481 -8.84673,0.00482c-1.01585,0 -2.26217,-0.18364 -3.10657,0.55549c-1.57921,1.3823 -1.97531,3.40763 -2.82034,5.16182c-0.42974,1.23437 -1.75609,4.82223 -3.5429,4.25929c-0.66583,-0.20977 -2.06783,-2.04539 -2.64454,-2.57158c-1.95135,-1.78038 -5.23191,-4.61367 -7.85136,-5.1375c-6.0184,-0.41334 -12.78258,0.93769 -18.48075,-1.279c-2.96178,-0.87823 -5.72283,-1.02376 -8.36621,-2.7223c-1.47335,-0.94672 -2.81724,-1.64 -2.29152,-3.79814c0.3957,-1.62435 1.63805,-3.15332 2.10379,-4.80954c0.18541,-5.19752 2.82372,-10.23818 1.59994,-15.44221c-0.05964,0.0344 -0.13648,0.05656 -0.23548,0.05656c-0.44229,0 -0.44229,-0.44229 -0.44229,-0.44229c0,-0.41756 0.00066,-0.85348 0.00736,-1.30127l-0.22075,-0.05904c0,0 -0.38391,-0.21962 -0.16428,-0.60353z" fill="#000000" stroke-width="0.5"/><path d="M251.81214,171.43565c0.97426,-3.6451 20.15178,-2.05758 20.15178,-2.05758c0,0 -9.33406,12.02047 -13.81052,10.82402c-4.47645,-1.19647 -7.31553,-5.12134 -6.34128,-8.76645z" data-paper-data="{&quot;index&quot;:null}" fill="#ffffff" stroke-width="0"/><path d="M246.60599,171.66779c-0.97426,3.6451 -5.39294,5.63013 -9.86939,4.43368c-4.47644,-1.19647 -6.56861,-16.27094 -6.56861,-16.27094c0,0 17.41222,8.19216 16.43798,11.83727z" data-paper-data="{&quot;index&quot;:null}" fill="#ffffff" stroke-width="0"/></g></g></svg>