<svg version="1.1" xmlns="http://www.w3.org/2000/svg" xmlns:xlink="http://www.w3.org/1999/xlink" width="153.55173" height="123.94277" viewBox="0,0,153.55173,123.94277"><defs><linearGradient x1="257.14569" y1="201.2541" x2="253.37025" y2="219.46691" gradientUnits="userSpaceOnUse" id="color-1"><stop offset="0" stop-color="#ffffff"/><stop offset="1" stop-color="#9f9f9f"/></linearGradient></defs><g transform="translate(-138.91136,-116.78209)"><g data-paper-data="{&quot;isPaintingLayer&quot;:true}" stroke-miterlimit="10" stroke-dasharray="" stroke-dashoffset="0" style="mix-blend-mode: normal"><g stroke="#001026" stroke-width="1.2"><path d="M240.29976,195.21696c0.98104,1.99187 3.83002,9.89652 6.51813,10.36986c2.5616,0.41015 8.5684,-3.70304 10.49906,0.81831c1.89901,4.42648 -4.23502,6.57911 -9.83214,6.86578c-7.24147,0.41377 -13.66428,-8.72284 -11.95942,-16.24968c0.69472,-2.65657 3.76167,-3.89099 4.77437,-1.80427z" data-paper-data="{&quot;index&quot;:null}" fill="#878787" fill-rule="evenodd" stroke-linecap="round" stroke-linejoin="round"/><g data-paper-data="{&quot;index&quot;:null}" fill-rule="nonzero" stroke-linejoin="miter"><g><g><path d="M254.54022,206.43306l2.19221,-10.57519l2.54586,0.52775l-2.19221,10.57519z" fill="#2c2c2c" stroke-linecap="butt"/><path d="M252.35299,217.80076l2.33857,0.53957l-3.91195,14.28624z" fill="#6c6c6c" stroke-linecap="butt"/><path d="M249.74727,218.71587l3.77547,-18.2128l7.24593,1.50207l-3.77545,18.2128z" fill="url(#color-1)" stroke-linecap="butt"/><path d="M256.47944,203.9755l-3.48448,-0.92657" fill="none" stroke-linecap="round"/><path d="M252.6965,206.45935l3.09278,0.84537" fill="none" stroke-linecap="round"/><path d="M252.01352,208.76879l2.66052,0.96003" fill="none" stroke-linecap="round"/><path d="M253.78806,213.01744l-2.15419,-0.44656" fill="none" stroke-linecap="round"/><path d="M253.449,216.62369l-2.81577,-1.19646" fill="none" stroke-linecap="round"/></g><path d="M253.98357,196.30932l0.56834,-2.74172l7.44181,1.54265l-0.56834,2.74173z" fill="#2c2c2c" stroke-linecap="butt"/></g><path d="M254.14743,209.31327c-0.59415,2.86617 -2.34713,4.92612 -3.91541,4.60102c-1.56829,-0.3251 -2.358,-2.91214 -1.76383,-5.77831c0.59415,-2.86617 2.34715,-4.92611 3.91544,-4.60103c1.56829,0.3251 2.35799,2.91213 1.76383,5.77832z" fill="#878787" stroke-linecap="butt"/><path d="M264.33806,210.4045c-0.90804,4.38037 -3.87997,7.46791 -6.63799,6.89619c-2.75802,-0.57172 -4.25773,-4.5862 -3.34969,-8.96657c0.90804,-4.38037 3.87997,-7.4679 6.63799,-6.89619c2.75801,0.57172 4.25774,4.5862 3.34971,8.96659z" fill="#878787" stroke-linecap="butt"/></g></g><path d="M227.41503,201.28708c0.00896,0.0059 0.01791,0.01181 0.02687,0.01771c0,0 0.41743,0.27523 0.1422,0.69266c-0.27523,0.41743 -0.69266,0.1422 -0.69266,0.1422c-5.00917,-3.30275 -10.01835,-6.6055 -15.02752,-9.90826c-3.61774,-2.38532 -7.23547,-4.77064 -10.85321,-7.15596c-2.43873,-1.60795 -3.7542,-3.17869 -6.65544,-2.2282c-3.94768,0.11424 -7.9061,0.04495 -11.85526,0.04166c-1.4405,-0.0012 -3.88682,-0.07387 -5.01768,-1.14392c-0.66145,-0.62589 -1.13854,-2.21714 -1.54341,-3.0269c-1.74742,-3.53393 -6.55788,0.517 -9.37255,-1.59314c-0.73442,-0.55059 -0.66544,-1.76598 -1.15044,-2.4608c-1.18919,-1.70363 -3.30494,-3.45461 -4.91695,-4.75899c-1.75518,-1.42879 -4.06401,-2.91693 -6.17583,-3.71525c-1.52962,-0.57823 -3.51073,-0.80124 -4.79384,-1.87096c-1.94134,-1.61848 -3.70807,-4.20454 -5.18649,-6.24605c-2.13634,-2.95182 -4.53261,-6.10627 -5.28068,-9.78723c-0.69008,-3.3956 1.14372,-6.8409 2.35801,-9.8767c2.49512,-6.22823 0.10998,-14.87444 6.20958,-19.2507c5.62739,-3.12363 13.98324,-2.26936 20.20361,-2.26936c7.21842,0 13.58811,0.01989 20.57426,1.788c4.16193,1.05334 8.39745,1.80692 12.55167,2.89478c2.51167,0.65773 4.25278,1.98388 6.87407,1.98388c0.72004,0.00668 1.45306,0.1535 2.1161,0.43435c0.6088,0.25787 1.35627,0.2537 1.86455,0.67653c2.12102,1.76448 -0.91856,6.40446 -0.49403,8.60758c0.19054,0.98879 1.25534,1.95788 1.64055,2.92012c0.50617,1.26439 0.37282,2.52424 0.37282,3.86142c0,4.27164 -0.75715,9.3638 0.26833,13.52698c0.50815,2.06295 2.03545,3.94452 3.20239,5.69439c1.53809,2.32368 1.76465,5.02644 2.51034,7.64234c1.19008,4.17484 3.10867,8.12688 4.03054,12.38479c1.40841,6.51768 3.13329,13.99981 7.76608,18.98794c0.62387,1.08184 1.96714,6.91772 -1.20721,5.1889c-0.47557,-0.259 -0.9746,-1.38325 -1.39807,-1.71427c-0.22287,-0.17421 -0.64671,-0.33642 -1.0907,-0.47954z" fill="#000000" fill-rule="nonzero" stroke="none" stroke-width="0.5" stroke-linecap="butt" stroke-linejoin="miter"/><g fill-rule="evenodd"><path d="M224.78334,200.96667c0.6,0.8 3.3,2 -0.2,4.2c-3.6,2.1 -12.7,5 -21.6,-2.9c-9.6,-8.6 -4.5,-20.3 -0.1,-20.7c4.3,-0.4 2.6,6.6 5.7,14.4c4.4,11.3 15.6,4.2 16.2,5z" fill="#878787" stroke="#001026" stroke-width="1.2" stroke-linecap="round" stroke-linejoin="round"/><path d="M205.68334,186.76667c0.5,4.4 1.5,7.4 1.5,7.4c0,0 -1.6,-2 -4,-1.6c-2.9,0.5 -3.8,2.9 -3.9,3.6c-0.7,-1.7 -1.3,-3.8 -1.1,-7.4c0.5,-3.5 2.7,-7.1 5.2,-6.7c2,0.4 1.9,2 2.3,4.7z" fill="#ffffff" stroke="none" stroke-width="1" stroke-linecap="butt" stroke-linejoin="miter"/></g><path d="M226.94734,193.66556c-0.97378,2.21173 -5.23014,3.60217 -5.91697,4.48436c-0.15702,0.27449 1.96649,5.35097 3.21235,8.39528c1.81402,4.28011 -4.12212,7.84271 -7.486,4.67974c-3.08938,-3.00594 -5.7132,-11.79319 -5.74364,-13.7779c-0.17044,-4.54214 9.05169,-9.019 15.12781,-12.10556" fill="#878787" fill-rule="evenodd" stroke="#001026" stroke-width="1.2" stroke-linecap="round" stroke-linejoin="round"/><path d="M248.3198,236.3753c0,3.86599 -11.83333,3 -11.83333,3c0,0 -10.5,0.86599 -10.5,-3c0,-3.45051 2.7452,-32.89294 7.69909,-34.5825c3.83539,-1.30808 4.43187,28.24917 5.13424,28.24917c6.53537,0 9.5,2.46734 9.5,6.33333z" fill="#878787" fill-rule="nonzero" stroke="#001026" stroke-width="1.2" stroke-linecap="butt" stroke-linejoin="miter"/><path d="M242.3198,237.04197c0,3.86599 -11.83333,3 -11.83333,3c0,0 -10.5,0.86599 -10.5,-3c0,-3.45051 2.7452,-32.89294 7.69909,-34.58249c3.83539,-1.30808 4.43187,28.24916 5.13424,28.24916c6.53537,0 9.5,2.46734 9.5,6.33333z" fill="#878787" fill-rule="nonzero" stroke="#001026" stroke-width="1.2" stroke-linecap="butt" stroke-linejoin="miter"/><g fill-rule="evenodd"><path d="M228.46746,211.92774c-9.18562,-0.14169 -6.59918,-8.70522 -6.1184,-18.13437c0.22478,-5.09504 2.32496,-11.27985 8.25588,-12.7846c3.28322,-1.01509 4.71707,5.1431 6.65887,4.10414c2.93427,-1.51331 4.46287,3.07617 4.72896,5.71988c0,0 0.33245,3.94201 -0.02111,6.21687c-0.40861,2.85536 -0.99765,5.79696 -1.69222,7.12646c0,0 -1.91695,7.90424 -11.81198,7.75161z" fill="#878787" stroke="#001026" stroke-width="1.2" stroke-linecap="round" stroke-linejoin="round"/><path d="M239.54139,204.42127c0,0 -1.87085,-0.43583 -3.96129,-1.09921c-2.58071,-0.76155 -5.03204,-1.25242 -4.5644,-4.91184c0.58904,-2.9416 0.7429,-6.56186 6.05356,-5.88595c5.04397,0.58172 4.40781,3.65665 4.40781,3.65665c-0.04435,5.00879 -1.93568,8.24035 -1.93568,8.24035z" fill="#ffffff" stroke="none" stroke-width="1" stroke-linecap="butt" stroke-linejoin="miter"/></g><path d="M220.06371,195.99621l2.11464,-8.76682l4.89755,0.85834l-2.11464,8.76682z" fill="#878787" fill-rule="nonzero" stroke="#001026" stroke-width="0" stroke-linecap="butt" stroke-linejoin="miter"/><path d="M169.5,147.83333c0,5.24671 -5.22334,9.5 -11.66667,9.5c-6.44332,0 -14.66667,-19.5 -14.66667,-19.5c0,0 26.33333,4.75329 26.33333,10z" fill="#ffffff" fill-rule="nonzero" stroke="none" stroke-width="0" stroke-linecap="butt" stroke-linejoin="miter"/><path d="M203.16667,134.83334c0,0 -8.22335,19.5 -14.66667,19.5c-6.44332,0 -11.66666,-4.2533 -11.66666,-9.5c0,-5.2467 26.33334,-10 26.33334,-10z" data-paper-data="{&quot;index&quot;:null}" fill="#ffffff" fill-rule="nonzero" stroke="none" stroke-width="0" stroke-linecap="butt" stroke-linejoin="miter"/><g><path d="M256.82427,137.67322c0.28694,-0.21833 0.79219,-0.14973 0.91697,0.24325l3.26273,10.51687c0,0 6.68086,4.29141 8.7831,7.46641c3.53702,5.28957 3.91767,9.77455 3.91767,9.77455c0,0 7.21722,1.65279 8.77062,7.26678c1.55341,5.61399 -2.16399,16.66755 -20.69643,21.53365c-18.53243,4.8661 -33.92129,0.71844 -41.71893,-10.21622c-7.79764,-10.93467 2.53175,-25.20715 1.98285,-24.37127l-3.21305,-17.73404c-0.12477,-0.39298 0.35553,-0.7236 0.76723,-0.54895l12.56946,7.12944c0,0 4.38513,-1.97753 9.06348,-2.47047c2.78206,-0.37436 5.18987,-0.32453 7.51034,-0.06886z" fill="#878787" fill-rule="evenodd" stroke="#001026" stroke-width="1.2" stroke-linecap="butt" stroke-linejoin="miter"/><path d="M266.73362,165.15319c0.25421,4.06516 -5.62795,7.74133 -13.13817,8.21097c-7.51021,0.46963 -13.80451,-2.44512 -14.05872,-6.51028c-0.25421,-4.06516 5.62795,-7.74133 13.13817,-8.21097c7.51021,-0.46963 13.80451,2.44512 14.05872,6.51028z" fill="#656565" fill-rule="nonzero" stroke="none" stroke-width="NaN" stroke-linecap="butt" stroke-linejoin="miter"/><path d="M273.4303,166.09224c0,0 6.99888,1.36585 8.55228,6.97986c1.55341,5.61399 -2.59442,16.19349 -20.93348,20.9473c-23.84078,6.50058 -36.21706,-7.15363 -30.19167,-18.15111c6.01915,-11.09729 18.06466,-2.73276 26.41085,-3.85584c7.15475,-0.94838 7.56001,-7.28602 16.16203,-5.92022z" fill="#ffffff" fill-rule="evenodd" stroke="none" stroke-width="1" stroke-linecap="butt" stroke-linejoin="miter"/><path d="M291.86308,166.04174c-4.45367,4.08592 -11.63341,4.63509 -11.63341,4.63509" fill="none" fill-rule="evenodd" stroke="#001026" stroke-width="1.2" stroke-linecap="round" stroke-linejoin="round"/><path d="M291.26461,177.30105c-6.25651,0.89221 -10.26749,-0.76068 -10.26749,-0.76068" fill="none" fill-rule="evenodd" stroke="#001026" stroke-width="1.2" stroke-linecap="round" stroke-linejoin="round"/><path d="M256.70679,169.44249c2.0959,-0.13106 4.3041,-0.06875 4.44759,0.62364c0.18718,1.39102 -1.13514,4.27919 -2.72579,4.47885c-1.78401,0.31194 -6.13185,-1.92106 -6.23171,-3.51794c-0.17469,-1.19142 2.51379,-1.45974 4.5099,-1.58456z" fill="#001026" fill-rule="evenodd" stroke="#001026" stroke-width="1.2" stroke-linecap="round" stroke-linejoin="round"/><path d="M211.70089,170.75388c0,0 8.75799,2.25781 12.44463,5.13334" fill="none" fill-rule="evenodd" stroke="#001026" stroke-width="1.2" stroke-linecap="round" stroke-linejoin="round"/><path d="M224.66338,179.36166c-4.18552,1.96505 -11.63975,1.32903 -11.63975,1.32903" fill="none" fill-rule="evenodd" stroke="#001026" stroke-width="1.2" stroke-linecap="round" stroke-linejoin="round"/><path d="M267.75358,157.02885c3.1752,4.31024 3.59329,9.39405 0.91108,11.3653c-2.6822,1.97124 -7.4043,0.16242 -10.67929,-4.14158c-3.1752,-4.31024 -2.84329,-9.39405 -0.16108,-11.3653c2.67596,-2.07105 6.75411,-0.16866 9.92929,4.14158z" fill="#ffffff" fill-rule="evenodd" stroke="#001026" stroke-width="1.2" stroke-linecap="round" stroke-linejoin="round"/><path d="M243.17668,161.37117c3.26876,4.2042 3.40616,9.60615 0.83001,11.67096c-3.17499,2.10226 -7.65379,0.97959 -10.92254,-3.22461c-3.36856,-4.19795 -2.89319,-9.39094 0.06346,-11.78012c2.95042,-2.48899 6.76032,-0.87042 10.02908,3.33378z" fill="#ffffff" fill-rule="evenodd" stroke="#001026" stroke-width="1.2" stroke-linecap="round" stroke-linejoin="round"/><path d="M257.15918,184.28804c0.16803,2.68713 -14.72893,8.56093 -21.48124,8.98316c-6.75229,0.42223 -2.80298,-4.76696 -2.97101,-7.45411c-0.16803,-2.68713 2.25356,0.23481 9.00586,-0.18742c6.75229,-0.42223 15.27834,-4.02877 15.44639,-1.34164z" fill="#ffffff" fill-rule="nonzero" stroke="#001026" stroke-width="1.2" stroke-linecap="butt" stroke-linejoin="miter"/><path d="M235.9584,185.73901l-0.82629,6.81485" fill="none" fill-rule="nonzero" stroke="#001026" stroke-width="1.2" stroke-linecap="round" stroke-linejoin="miter"/></g></g></g></svg>