<svg version="1.1" xmlns="http://www.w3.org/2000/svg" xmlns:xlink="http://www.w3.org/1999/xlink" width="75.53954" height="67.42671" viewBox="0,0,75.53954,67.42671"><g transform="translate(-230.42736,-160.07724)"><g data-paper-data="{&quot;isPaintingLayer&quot;:true}" fill-rule="nonzero" stroke="none" stroke-linecap="butt" stroke-linejoin="miter" stroke-miterlimit="10" stroke-dasharray="" stroke-dashoffset="0" style="mix-blend-mode: normal"><path d="M246.9213,204.71629c-0.12985,-2.50974 -0.58229,-6.90794 1.19765,-8.28856c0.02565,-0.01989 1.54193,-0.01324 1.75461,-0.34868c0.63621,-1.00341 -2.30533,-4.78484 -2.7831,-5.74223c-1.51387,-4.27402 -1.28332,-8.88305 -3.31233,-12.98932l-0.59044,-0.74368c-0.0689,-0.08523 -0.11016,-0.19371 -0.11016,-0.31184c0,-0.27007 0.21568,-0.48976 0.4842,-0.49622l0.99065,-0.02771l0.0039,0.13945c2.59684,-0.10487 5.24304,0.78869 7.84212,0.33117c1.01509,-0.17869 1.65499,-1.01197 2.55036,-1.32845c2.76472,-0.97722 5.04609,1.10068 6.7806,-1.58806c0.84847,-1.31525 1.2352,-3.38269 2.29919,-4.46603c1.03023,-1.04896 2.67608,-0.81532 4.01173,-1.11961c1.00097,-0.22805 1.77979,-0.77182 2.74897,-1.04356c2.87503,-0.8061 5.85293,-0.20503 8.78878,-1.05753c1.7725,-0.58311 4.85687,-1.0108 6.05677,-2.56199c0.91483,-1.18267 0.88217,-2.55918 2.77464,-2.96523c2.5628,-0.54987 4.99688,6.37843 5.02888,8.43359c0.36227,1.09651 1.91829,1.09851 2.89901,1.7443c1.84537,1.21515 3.95053,2.28557 6.07111,3.03147c0.85786,0.30174 2.46317,0.2791 3.05646,1.09981c0.97929,1.35468 0.22397,5.58798 0.22397,7.23002c0,2.01777 0.07475,4.25068 -1.03544,6.05672c-0.86408,1.40567 -2.37421,2.2353 -3.30089,3.65482c-1.90275,2.91473 -3.28826,5.72858 -5.86128,8.02965c-3.30432,2.32357 -6.65615,2.51899 -10.50406,3.2403c-3.23952,0.60727 -6.45481,1.46073 -9.69095,2.11363c-2.90219,0.58487 -6.8648,1.07704 -9.53827,2.28924c-3.20555,1.45347 -6.10538,3.85126 -8.83198,6.08896c-5.36214,4.3898 -12.4624,6.7199 -18.79857,9.26417c-2.56188,0.47452 -4.544,2.25546 -6.15593,4.21919l-0.01258,0.0081l0.00291,0.00269l-0.67227,0.72818c-0.09074,0.09891 -0.22105,0.1609 -0.36586,0.1609c-0.27414,0 -0.49637,-0.22224 -0.49637,-0.49637c0,-0.05476 0.00887,-0.10744 0.02525,-0.1567l0.28792,-0.93799l0.09807,0.0301c1.12983,-6.40397 7.51473,-10.26947 10.32534,-15.69114c2.84858,-1.64946 2.22481,-4.92082 5.7574,-5.53558z" fill="#000000" stroke-width="0.5"/><path d="M275.26244,187.01595c-0.00344,3.82605 -3.52429,7.12835 -7.86399,7.37588c-4.33969,0.24753 -9.86543,-13.65655 -9.86543,-13.65655c0,0 17.73286,2.45462 17.7294,6.28066z" data-paper-data="{&quot;index&quot;:null}" fill="#ffffff" stroke-width="0"/><path d="M279.57888,188.23978c0.00344,-3.82605 17.74259,-8.30394 17.74259,-8.30394c0,0 -5.55144,14.5359 -9.89113,14.78342c-4.33971,0.24753 -7.85492,-2.65344 -7.85145,-6.4795z" data-paper-data="{&quot;index&quot;:null}" fill="#ffffff" stroke-width="0"/></g></g></svg>