<svg version="1.1" xmlns="http://www.w3.org/2000/svg" xmlns:xlink="http://www.w3.org/1999/xlink" width="91.23337" height="108.82414" viewBox="0,0,91.23337,108.82414"><defs><linearGradient x1="260.05028" y1="188.87128" x2="264.83405" y2="206.8456" gradientUnits="userSpaceOnUse" id="color-1"><stop offset="0" stop-color="#ffffff"/><stop offset="1" stop-color="#9f9f9f"/></linearGradient></defs><g transform="translate(-196.92554,-131.90073)"><g data-paper-data="{&quot;isPaintingLayer&quot;:true}" stroke-miterlimit="10" stroke-dasharray="" stroke-dashoffset="0" style="mix-blend-mode: normal"><g stroke="#001026" stroke-width="1.2"><path d="M242.28479,191.02068c1.76943,1.34131 7.85773,7.13205 10.47306,6.35098c2.47391,-0.78088 6.00155,-7.14922 9.75316,-3.97188c3.68081,3.10671 -0.83889,7.77922 -5.7145,10.54298c-6.28878,3.61404 -16.12413,-1.67708 -17.97189,-9.17012c-0.56901,-2.6863 1.61995,-5.16389 3.46018,-3.75196z" data-paper-data="{&quot;index&quot;:null}" fill="#878787" fill-rule="evenodd" stroke-linecap="round" stroke-linejoin="round"/><g data-paper-data="{&quot;index&quot;:null}" fill-rule="nonzero" stroke-linejoin="miter"><g><g><path d="M260.04101,194.6687l-2.77767,-10.43671l2.51253,-0.6687l2.77767,10.43671z" fill="#2c2c2c" stroke-linecap="butt"/><path d="M263.17816,205.81172l2.33249,-0.56526l2.90266,14.52496z" fill="#6c6c6c" stroke-linecap="butt"/><path d="M261.25851,207.7972l-4.78376,-17.97431l7.15106,-1.90321l4.78377,17.9743z" fill="url(#color-1)" stroke-linecap="butt"/><path d="M257.14343,192.33542l3.53035,-0.73262" fill="none" stroke-linecap="round"/><path d="M258.40443,195.51818l3.14378,-0.62974" fill="none" stroke-linecap="round"/><path d="M261.63711,197.55529l-2.80869,0.33359" fill="none" stroke-linecap="round"/><path d="M262.31829,200.89236l-2.12599,0.56582" fill="none" stroke-linecap="round"/><path d="M263.63073,204.26838l-3.05341,0.19175" fill="none" stroke-linecap="round"/></g><path d="M255.008,185.86707l-0.72014,-2.70581l7.34435,-1.95466l0.72014,2.70582z" fill="#2c2c2c" stroke-linecap="butt"/></g><path d="M260.98014,197.41969c0.75282,2.82864 0.10843,5.45564 -1.43932,5.86756c-1.54775,0.41193 -3.41274,-1.54721 -4.16556,-4.37585c-0.75283,-2.82864 -0.10841,-5.45563 1.43933,-5.86757c1.54775,-0.41193 3.41274,1.5472 4.16557,4.37585z" fill="#878787" stroke-linecap="butt"/><path d="M270.57982,193.82998c1.15055,4.32302 -0.12329,8.41479 -2.84519,9.13922c-2.7219,0.72442 -5.86115,-2.19282 -7.01168,-6.51584c-1.15055,-4.32302 0.12329,-8.41478 2.84518,-9.13921c2.7219,-0.72442 5.86115,2.19281 7.01171,6.51583z" fill="#878787" stroke-linecap="butt"/></g></g><g fill-rule="evenodd"><path d="M224.78334,201.21667c0.6,0.8 3.3,2 -0.2,4.2c-3.6,2.1 -12.7,5 -21.6,-2.9c-9.6,-8.6 -4.5,-20.3 -0.1,-20.7c4.3,-0.4 2.6,6.6 5.7,14.4c4.4,11.3 15.6,4.2 16.2,5z" fill="#878787" stroke="#001026" stroke-width="1.2" stroke-linecap="round" stroke-linejoin="round"/><path d="M205.68334,187.01667c0.5,4.4 1.5,7.4 1.5,7.4c0,0 -1.6,-2 -4,-1.6c-2.9,0.5 -3.8,2.9 -3.9,3.6c-0.7,-1.7 -1.3,-3.8 -1.1,-7.4c0.5,-3.5 2.7,-7.1 5.2,-6.7c2,0.4 1.9,2 2.3,4.7z" fill="#ffffff" stroke="none" stroke-width="1" stroke-linecap="butt" stroke-linejoin="miter"/></g><path d="M248.3198,236.3753c0,3.86599 -11.83333,3 -11.83333,3c0,0 -10.5,0.86599 -10.5,-3c0,-3.45051 2.7452,-32.89294 7.69909,-34.5825c3.83539,-1.30808 4.43187,28.24917 5.13424,28.24917c6.53537,0 9.5,2.46734 9.5,6.33333z" fill="#878787" fill-rule="nonzero" stroke="#001026" stroke-width="1.2" stroke-linecap="butt" stroke-linejoin="miter"/><path d="M242.3198,237.04197c0,3.86599 -11.83333,3 -11.83333,3c0,0 -10.5,0.86599 -10.5,-3c0,-3.45051 2.7452,-32.89294 7.69909,-34.58249c3.83539,-1.30808 4.43187,28.24916 5.13424,28.24916c6.53537,0 9.5,2.46734 9.5,6.33333z" fill="#878787" fill-rule="nonzero" stroke="#001026" stroke-width="1.2" stroke-linecap="butt" stroke-linejoin="miter"/><g fill-rule="evenodd"><path d="M228.46746,211.92774c-9.18562,-0.14169 -6.59918,-8.70522 -6.1184,-18.13437c0.22478,-5.09504 2.32496,-11.27985 8.25588,-12.7846c3.28322,-1.01509 4.71707,5.1431 6.65887,4.10414c2.93427,-1.51331 4.46287,3.07617 4.72896,5.71988c0,0 0.33245,3.94201 -0.02111,6.21687c-0.40861,2.85536 -0.99765,5.79696 -1.69222,7.12646c0,0 -1.91695,7.90424 -11.81198,7.75161z" fill="#878787" stroke="#001026" stroke-width="1.2" stroke-linecap="round" stroke-linejoin="round"/><path d="M239.54139,204.42127c0,0 -1.87085,-0.43583 -3.96129,-1.09921c-2.58071,-0.76155 -5.03204,-1.25242 -4.5644,-4.91184c0.58904,-2.9416 0.7429,-6.56186 6.05356,-5.88595c5.04397,0.58172 4.40781,3.65665 4.40781,3.65665c-0.04435,5.00879 -1.93568,8.24035 -1.93568,8.24035z" fill="#ffffff" stroke="none" stroke-width="1" stroke-linecap="butt" stroke-linejoin="miter"/></g><path d="M227.90301,195.58524c-0.14779,2.41209 -3.65948,5.19019 -3.99839,6.25562c-0.05227,0.31188 3.69752,4.33916 5.92035,6.76383c3.18372,3.38732 -1.1518,8.78484 -5.40273,6.98216c-3.93904,-1.7504 -9.44298,-9.08571 -10.1587,-10.93713c-1.73251,-4.20219 5.36922,-11.59513 10.00088,-16.59452" fill="#878787" fill-rule="evenodd" stroke="#001026" stroke-width="1.2" stroke-linecap="round" stroke-linejoin="round"/><g><g fill-rule="evenodd"><g><path d="M250.56548,132.35306c0.27182,-0.23689 0.78052,-0.20196 0.93109,0.18188l3.95324,10.27725c0,0 6.95083,3.83875 9.25908,6.86727c3.88014,5.04327 4.55749,9.49312 4.55749,9.49312c0,0 7.31096,1.17035 9.23338,6.66893c1.92242,5.49857 -1.05347,16.77439 -19.22226,22.85923c-18.16878,6.08484 -33.7989,2.96724 -42.30477,-7.42603c-8.50588,-10.39327 0.8539,-25.31957 0.36166,-24.44911l-4.38247,-17.48181c-0.15056,-0.38383 0.30675,-0.74559 0.72912,-0.59864l13.01473,6.27986c0,0 4.24427,-2.26409 8.87963,-3.06632c2.75109,-0.5581 5.1569,-0.66812 7.48923,-0.56695z" fill="#878787" stroke="#001026" stroke-width="1.2" stroke-linecap="butt" stroke-linejoin="miter"/><path d="M269.02026,159.60782c0,0 7.07408,0.89854 8.9965,6.39711c1.92242,5.49857 -1.5144,16.32993 -19.49769,22.28991c-23.357,8.06789 -36.61185,-4.73518 -31.32932,-16.10818c5.26968,-11.47216 17.84357,-3.92516 26.09686,-5.59945c7.07608,-1.42094 7.06,-7.77152 15.73366,-6.97939z" fill="#ffffff" stroke="none" stroke-width="1" stroke-linecap="butt" stroke-linejoin="miter"/><path d="M287.40909,158.33457c-4.1728,4.37238 -11.30027,5.39665 -11.30027,5.39665" fill="none" stroke="#001026" stroke-width="1.2" stroke-linecap="round" stroke-linejoin="round"/><path d="M287.5589,169.60878c-6.18354,1.30531 -10.29533,-0.07785 -10.29533,-0.07785" fill="none" stroke="#001026" stroke-width="1.2" stroke-linecap="round" stroke-linejoin="round"/><path d="M252.55585,164.06014c2.08259,-0.26982 4.29005,-0.35414 4.47917,0.32721c0.27905,1.37555 -0.84875,4.34506 -2.42264,4.64981c-1.75938,0.42962 -6.24579,-1.51003 -6.45136,-3.09677c-0.25335,-1.1772 2.41142,-1.62329 4.39484,-1.88025z" fill="#001026" stroke="#001026" stroke-width="1.2" stroke-linecap="round" stroke-linejoin="round"/><path d="M207.73611,168.35439c0,0 8.88848,1.67183 12.75777,4.29643" fill="none" stroke="#001026" stroke-width="1.2" stroke-linecap="round" stroke-linejoin="round"/><path d="M221.2411,176.08327c-4.04594,2.23839 -11.52593,2.0983 -11.52593,2.0983" fill="none" stroke="#001026" stroke-width="1.2" stroke-linecap="round" stroke-linejoin="round"/><g><path d="M262.75478,150.941c3.45414,4.0901 4.20859,9.13498 1.66307,11.27982c-2.54552,2.14484 -7.37721,0.65327 -10.93053,-3.42397c-3.45414,-4.0901 -4.20859,-9.13498 -1.66307,-11.27982c2.53267,-2.24401 7.47638,-0.66613 10.93053,3.42397z" fill="#ffffff" stroke="#001026" stroke-width="1.2" stroke-linecap="round" stroke-linejoin="round"/><path d="M264.41099,161.37783c0.14133,1.09088 -0.53639,2.08621 -1.52811,2.2147c-0.99171,0.12848 -1.90072,-0.66126 -2.04205,-1.75215c-0.14133,-1.09088 0.53639,-2.08621 1.52811,-2.2147c0.99171,-0.12848 1.90072,0.66126 2.04205,1.75215" fill="#001026" stroke="none" stroke-width="1" stroke-linecap="butt" stroke-linejoin="miter"/></g><g><path d="M238.52009,156.90421c3.54046,3.97808 4.03594,9.35901 1.60244,11.59018c-3.02852,2.30825 -7.57194,1.48519 -11.1124,-2.49289c-3.63964,-3.96523 -2.7706,-9.32128 0.02103,-11.90135c2.77879,-2.67924 5.94846,-1.17402 9.48893,2.80406z" fill="#ffffff" stroke="#001026" stroke-width="1.2" stroke-linecap="round" stroke-linejoin="round"/><path d="M240.99754,166.64909c0.14133,1.09088 -0.53639,2.08621 -1.52811,2.2147c-0.99171,0.12848 -1.90072,-0.66126 -2.04205,-1.75215c-0.14133,-1.09088 0.53639,-2.08621 1.52811,-2.2147c1.00456,-0.02932 1.90072,0.66126 2.04205,1.75215" fill="#001026" stroke="none" stroke-width="1" stroke-linecap="butt" stroke-linejoin="miter"/></g></g></g><path d="M252.22227,176.17324c0.3548,2.73854 -8.26911,23.75938 -13.47234,24.43351c-5.20322,0.67413 -5.01538,-19.25376 -5.37018,-21.9923c-0.3548,-2.73854 4.75506,1.65274 9.95827,0.97863c5.20322,-0.67413 8.52944,-6.15837 8.88424,-3.41984z" fill="#000000" fill-rule="nonzero" stroke="#001026" stroke-width="1.2" stroke-linecap="butt" stroke-linejoin="miter"/></g></g></g></svg>