<svg version="1.1" xmlns="http://www.w3.org/2000/svg" xmlns:xlink="http://www.w3.org/1999/xlink" width="97.17439" height="102.28378" viewBox="0,0,97.17439,102.28378"><g transform="translate(-196.92554,-138.44108)"><g data-paper-data="{&quot;isPaintingLayer&quot;:true}" stroke-miterlimit="10" stroke-dasharray="" stroke-dashoffset="0" style="mix-blend-mode: normal"><path d="M245.46977,192.7c4,6.6 0.8,17.3 -6.2,19.2c-5.4,1.5 -11.9,1.4 -11.5,-3.4c0.4,-4.9 7.4,-2.9 9.7,-4.1c2.4,-1.3 2.6,-9.7 2.9,-11.9c0.3,-2.3 3.6,-2.1 5.1,0.2z" data-paper-data="{&quot;index&quot;:null}" fill="#878787" fill-rule="evenodd" stroke="#001026" stroke-width="1.2" stroke-linecap="round" stroke-linejoin="round"/><g fill-rule="evenodd"><path d="M224.78334,200.96667c0.6,0.8 3.3,2 -0.2,4.2c-3.6,2.1 -12.7,5 -21.6,-2.9c-9.6,-8.6 -4.5,-20.3 -0.1,-20.7c4.3,-0.4 2.6,6.6 5.7,14.4c4.4,11.3 15.6,4.2 16.2,5z" fill="#878787" stroke="#001026" stroke-width="1.2" stroke-linecap="round" stroke-linejoin="round"/><path d="M205.68334,186.76667c0.5,4.4 1.5,7.4 1.5,7.4c0,0 -1.6,-2 -4,-1.6c-2.9,0.5 -3.8,2.9 -3.9,3.6c-0.7,-1.7 -1.3,-3.8 -1.1,-7.4c0.5,-3.5 2.7,-7.1 5.2,-6.7c2,0.4 1.9,2 2.3,4.7z" fill="#ffffff" stroke="none" stroke-width="1" stroke-linecap="butt" stroke-linejoin="miter"/></g><path d="M226.4449,192.91737c-0.53175,2.35738 -4.44264,4.53794 -4.94762,5.53543c-0.10149,0.2995 2.95576,4.87478 4.76209,7.62381c2.60084,3.853 -2.54229,8.48745 -6.4501,6.02796c-3.6083,-2.35799 -7.86791,-10.47931 -8.27824,-12.42138c-1.03797,-4.42523 7.15496,-10.58688 12.52673,-14.78095" fill="#878787" fill-rule="evenodd" stroke="#001026" stroke-width="1.2" stroke-linecap="round" stroke-linejoin="round"/><path d="M248.3198,236.3753c0,3.86599 -11.83333,3 -11.83333,3c0,0 -10.5,0.86599 -10.5,-3c0,-3.45051 2.7452,-32.89294 7.69909,-34.5825c3.83539,-1.30808 4.43187,28.24917 5.13424,28.24917c6.53537,0 9.5,2.46734 9.5,6.33333z" fill="#878787" fill-rule="nonzero" stroke="#001026" stroke-width="1.2" stroke-linecap="butt" stroke-linejoin="miter"/><path d="M242.3198,237.04197c0,3.86599 -11.83333,3 -11.83333,3c0,0 -10.5,0.86599 -10.5,-3c0,-3.45051 2.7452,-32.89294 7.69909,-34.58249c3.83539,-1.30808 4.43187,28.24916 5.13424,28.24916c6.53537,0 9.5,2.46734 9.5,6.33333z" fill="#878787" fill-rule="nonzero" stroke="#001026" stroke-width="1.2" stroke-linecap="butt" stroke-linejoin="miter"/><g fill-rule="evenodd"><path d="M228.46746,211.92774c-9.18562,-0.14169 -6.59918,-8.70522 -6.1184,-18.13437c0.22478,-5.09504 2.32496,-11.27985 8.25588,-12.7846c3.28322,-1.01509 4.71707,5.1431 6.65887,4.10414c2.93427,-1.51331 4.46287,3.07617 4.72896,5.71988c0,0 0.33245,3.94201 -0.02111,6.21687c-0.40861,2.85536 -0.99765,5.79696 -1.69222,7.12646c0,0 -1.91695,7.90424 -11.81198,7.75161z" fill="#878787" stroke="#001026" stroke-width="1.2" stroke-linecap="round" stroke-linejoin="round"/><path d="M239.54139,204.42127c0,0 -1.87085,-0.43583 -3.96129,-1.09921c-2.58071,-0.76155 -5.03204,-1.25242 -4.5644,-4.91184c0.58904,-2.9416 0.7429,-6.56186 6.05356,-5.88595c5.04397,0.58172 4.40781,3.65665 4.40781,3.65665c-0.04435,5.00879 -1.93568,8.24035 -1.93568,8.24035z" fill="#ffffff" stroke="none" stroke-width="1" stroke-linecap="butt" stroke-linejoin="miter"/></g><path d="M220.06371,195.99621l2.11464,-8.76682l4.89755,0.85834l-2.11464,8.76682z" fill="#878787" fill-rule="nonzero" stroke="#001026" stroke-width="0" stroke-linecap="butt" stroke-linejoin="miter"/><g><g fill-rule="evenodd"><g><path d="M263.53731,141.30602c0.3186,-0.16879 0.806,-0.019 0.86524,0.38904l1.51017,10.9073c0,0 5.89461,5.32012 7.45292,8.79454c2.63035,5.79407 2.27705,10.28129 2.27705,10.28129c0,0 6.85266,2.80374 7.47304,8.59556c0.62038,5.79181 -4.84398,16.09428 -23.92086,17.88385c-19.07688,1.78958 -33.58709,-4.8039 -39.50399,-16.86044c-5.9169,-12.05655 6.59468,-24.46059 5.91724,-23.72502l-0.28825,-18.02045c-0.05925,-0.40804 0.4684,-0.6562 0.84625,-0.41697l11.2437,9.07741c0,0 4.64822,-1.23859 9.34449,-0.96466c2.80591,0.08275 5.17361,0.52322 7.42169,1.15262z" fill="#878787" stroke="#001026" stroke-width="1.2" stroke-linecap="butt" stroke-linejoin="miter"/><path d="M275.304,172.04599c0,0 6.68387,2.48514 7.30425,8.27696c0.62038,5.79181 -5.19164,15.55656 -24.05948,17.26677c-24.58028,2.53963 -34.573,-12.94442 -26.84043,-22.81647c7.74263,-9.97155 18.26863,0.2394 26.68636,0.48765c7.21377,0.227 8.64361,-5.96053 16.9093,-3.21491z" fill="#ffffff" stroke="none" stroke-width="1" stroke-linecap="butt" stroke-linejoin="miter"/><path d="M293.49993,174.9918c-5.0585,3.3078 -12.23203,2.68283 -12.23203,2.68283" fill="none" stroke="#001026" stroke-width="1.2" stroke-linecap="round" stroke-linejoin="round"/><path d="M291.07959,186.00416c-6.31834,-0.13644 -10.00737,-2.41921 -10.00737,-2.41921" fill="none" stroke="#001026" stroke-width="1.2" stroke-linecap="round" stroke-linejoin="round"/><path d="M258.25833,172.63384c2.08934,0.2113 4.25805,0.63165 4.28711,1.33816c-0.04138,1.40295 -1.81549,4.03782 -3.41744,3.97632c-1.81099,0.01787 -5.73813,-2.89205 -5.57714,-4.48392c0.02125,-1.20397 2.71761,-1.03179 4.70746,-0.83055z" fill="#001026" stroke="#001026" stroke-width="1.2" stroke-linecap="round" stroke-linejoin="round"/><path d="M213.63764,166.61357c0,0 8.27462,3.65112 11.44494,7.08755" fill="none" stroke="#001026" stroke-width="1.2" stroke-linecap="round" stroke-linejoin="round"/><path d="M225.02889,177.21355c-4.44923,1.25871 -11.70099,-0.58029 -11.70099,-0.58029" fill="none" stroke="#001026" stroke-width="1.2" stroke-linecap="round" stroke-linejoin="round"/><g><path d="M272.76307,166.36147c2.50769,-0.13561 0.43146,5.6722 -2.53545,7.18133c-2.9669,1.50913 -7.33225,-1.04306 -9.86425,-5.82208c-1.80478,-3.5383 0.84195,-0.72401 5.81227,-0.03831c1.72874,0.2385 4.76791,-1.22255 6.58744,-1.32094z" fill="#ffffff" stroke="#001026" stroke-width="1.2" stroke-linecap="round" stroke-linejoin="round"/><path d="M271.2438,172.43944c-0.11068,1.09441 -0.99717,1.90935 -1.9921,1.80873c-0.99493,-0.10061 -1.70031,-1.07655 -1.58962,-2.17097c0.11068,-1.09441 0.99717,-1.90935 1.9921,-1.80873c0.99493,0.10061 1.70031,1.07655 1.58962,2.17097" fill="#001026" stroke="none" stroke-width="1" stroke-linecap="butt" stroke-linejoin="miter"/></g><g><path d="M246.21982,162.47095c2.54205,4.67953 1.79972,10.032 -1.07775,11.65068c-3.47443,1.55832 -7.71123,-0.27731 -10.25328,-4.95684c-2.64154,-4.68959 -0.46169,-0.90103 2.84395,-2.77795c3.31569,-1.9764 5.94504,-8.59543 8.48709,-3.91591z" fill="#ffffff" stroke="#001026" stroke-width="1.2" stroke-linecap="round" stroke-linejoin="round"/><path d="M247.05146,170.64612c-0.11068,1.09441 -0.99717,1.90935 -1.9921,1.80873c-0.99493,-0.10061 -1.70031,-1.07655 -1.58962,-2.17097c0.11068,-1.09441 0.99717,-1.90935 1.9921,-1.80873c0.98486,0.20011 1.70031,1.07655 1.58962,2.17097" fill="#001026" stroke="none" stroke-width="1" stroke-linecap="butt" stroke-linejoin="miter"/></g></g></g><path d="M257.27788,195.87296c-0.44457,4.39585 -2.75377,7.76231 -5.15775,7.51918c-2.40398,-0.24312 -3.99241,-4.00376 -3.54784,-8.39961c0.44457,-4.39585 2.75377,-7.76231 5.15775,-7.51918c2.40398,0.24312 3.99241,4.00376 3.54784,8.39961z" fill="#000000" fill-rule="nonzero" stroke="#001026" stroke-width="1.2" stroke-linecap="butt" stroke-linejoin="miter"/></g></g></g></svg>