<svg version="1.1" xmlns="http://www.w3.org/2000/svg" xmlns:xlink="http://www.w3.org/1999/xlink" width="77.21686" height="34.87195" viewBox="0,0,77.21686,34.87195"><g transform="translate(-239.89114,-188.0787)"><g data-paper-data="{&quot;isPaintingLayer&quot;:true}" fill-rule="nonzero" stroke="none" stroke-linecap="butt" stroke-linejoin="miter" stroke-miterlimit="10" stroke-dasharray="" stroke-dashoffset="0" style="mix-blend-mode: normal"><path d="M257.41273,197.40005c0.01186,0.03678 0.01996,0.07163 0.02481,0.10464c1.91156,-0.09317 3.91391,-0.37109 5.10123,-1.1771c0.56497,-0.38353 0.78994,-1.18033 1.39154,-1.50338c1.94452,-1.04417 4.47907,-1.38563 6.57877,-2.39831c3.53253,-0.63939 6.59796,-3.01915 10.16323,-3.96735c3.24409,-0.86279 6.93769,-0.08134 10.1344,0.6181c7.09689,1.5528 13.17693,3.95919 19.61481,7.29574c2.81027,2.11482 2.93257,5.62393 4.1591,8.78284c0.58449,1.50536 3.00131,2.43096 2.44479,4.54144c-0.48132,1.82533 -3.53926,3.14046 -5.14529,3.59223c-1.3828,0.54495 -0.36729,1.89634 -0.73228,3.10716c-0.30401,1.00852 -1.80986,3.72393 -2.50473,4.53278c-2.47043,2.87562 -8.66072,1.77181 -12.00477,1.77206c-3.18595,0.00024 -6.96362,0.56715 -10.0905,-0.00805c-3.51186,-0.64601 -7.11058,-1.99509 -10.64434,-2.77846c-3.25392,-0.72133 -6.66874,-0.78002 -9.86219,-1.61014c-0.93071,-0.24193 -1.83262,-0.86474 -2.77698,-1.03072c-2.49564,-0.43863 -5.46466,-0.52693 -7.84962,-1.30212c-1.08504,-0.13143 -1.82539,-0.63685 -2.85086,-0.89019c-3.34077,-0.82535 -6.598,0.02408 -9.83807,-1.1254c-1.0102,-0.35839 -2.67013,-0.14893 -2.82793,-1.77043c-0.15543,-1.59711 2.43029,-3.28486 3.47866,-4.08385c0.36878,-0.27805 4.10877,-1.7675 4.07128,-2.06712c-0.13934,-1.1137 -0.90401,-2.45457 -0.36044,-3.93139c0.21867,-0.59411 0.84249,-1.01693 0.95935,-1.63913c0.08136,-0.43321 -0.12322,-1.98526 0.15261,-2.2523c0.70366,-0.68124 2.51462,0.204 3.32181,0.26117c0.9156,0.06484 1.56929,0.09413 2.16497,-0.01301c-0.10912,-0.06878 -0.20695,-0.19212 -0.20695,-0.41329c0,-0.5 0.5,-0.5 0.5,-0.5c0.47445,0 1.0317,0.00547 1.6349,0.00243c0.0518,-0.0375 0.10446,-0.07633 0.15806,-0.11653l1.01131,-0.35473c0,0 0.47587,-0.15345 0.62932,0.32242z" fill="#000000" stroke-width="0.5"/><path d="M292.23823,203.54771c-2.17422,3.18218 -6.97847,3.9323 -10.73055,1.67544c-3.75208,-2.25685 -0.45993,-16.96413 -0.45993,-16.96413c0,0 13.36469,12.1065 11.19047,15.28868z" data-paper-data="{&quot;index&quot;:null}" fill="#ffffff" stroke-width="0"/><path d="M295.13593,207.01586c2.17422,-3.18218 19.47846,3.15848 19.47846,3.15848c0,0 -12.86943,8.94661 -16.6215,6.68975c-3.75209,-2.25686 -5.03119,-6.66607 -2.85695,-9.84824z" data-paper-data="{&quot;index&quot;:null}" fill="#ffffff" stroke-width="0"/></g></g></svg>