<svg version="1.1" xmlns="http://www.w3.org/2000/svg" xmlns:xlink="http://www.w3.org/1999/xlink" width="157.25222" height="123.27374" viewBox="0,0,157.25222,123.27374"><defs><linearGradient x1="258.08752" y1="199.83584" x2="254.78676" y2="218.14063" gradientUnits="userSpaceOnUse" id="color-1"><stop offset="0" stop-color="#ffffff"/><stop offset="1" stop-color="#9f9f9f"/></linearGradient></defs><g transform="translate(-136.49427,-117.45113)"><g data-paper-data="{&quot;isPaintingLayer&quot;:true}" stroke-miterlimit="10" stroke-dasharray="" stroke-dashoffset="0" style="mix-blend-mode: normal"><g stroke="#001026" stroke-width="1.2"><path d="M241.09035,194.23863c1.03249,1.9657 4.08597,9.79362 6.78548,10.19692c2.5714,0.34343 8.46925,-3.92451 10.51679,0.54512c2.01343,4.37562 -4.06258,6.68697 -9.65036,7.11903c-7.22827,0.60187 -13.8864,-8.36471 -12.37777,-15.93332c0.62543,-2.67373 3.65925,-3.98746 4.72586,-1.92776z" data-paper-data="{&quot;index&quot;:null}" fill="#878787" fill-rule="evenodd" stroke-linecap="round" stroke-linejoin="round"/><g data-paper-data="{&quot;index&quot;:null}" fill-rule="nonzero" stroke-linejoin="miter"><g><g><path d="M255.61755,205.08078l1.91658,-10.6286l2.55872,0.46139l-1.91658,10.6286z" fill="#2c2c2c" stroke-linecap="butt"/><path d="M253.72654,216.50148l2.3518,0.4786l-3.53928,14.3831z" fill="#6c6c6c" stroke-linecap="butt"/><path d="M251.14549,217.48402l3.30078,-18.30479l7.28253,1.31321l-3.30076,18.30478z" fill="url(#color-1)" stroke-linecap="butt"/><path d="M257.49223,202.57363l-3.50739,-0.83568" fill="none" stroke-linecap="round"/><path d="M256.88884,205.91967l-3.11371,-0.76469" fill="none" stroke-linecap="round"/><path d="M255.83699,208.37194l-2.68457,-0.89055" fill="none" stroke-linecap="round"/><path d="M252.87173,211.29207l2.16507,0.39041" fill="none" stroke-linecap="round"/><path d="M254.79159,215.29633l-2.84592,-1.12287" fill="none" stroke-linecap="round"/></g><path d="M254.79793,194.97492l0.49688,-2.75557l7.47939,1.34869l-0.49689,2.75558z" fill="#2c2c2c" stroke-linecap="butt"/></g><path d="M255.29976,207.97022c-0.51944,2.88064 -2.21829,4.98546 -3.79449,4.70125c-1.57621,-0.28423 -2.4329,-2.84986 -1.91343,-5.73051c0.51944,-2.88064 2.21831,-4.98545 3.79452,-4.70125c1.57621,0.28423 2.43289,2.84985 1.91344,5.73052z" fill="#878787" stroke-linecap="butt"/><path d="M265.51531,208.79619c-0.79387,4.4025 -3.68454,7.56625 -6.45649,7.06641c-2.77195,-0.49984 -4.3755,-4.47397 -3.58163,-8.87647c0.79387,-4.4025 3.68454,-7.56624 6.45649,-7.06641c2.77194,0.49984 4.37551,4.47397 3.58165,8.87649z" fill="#878787" stroke-linecap="butt"/></g></g><path d="M217.83298,195.83737c-7.19161,0.0926 -15.4065,1.33512 -20.32352,-4.75013c-4.62848,-2.31696 -8.90203,-5.78201 -12.94891,-8.93179c-1.80698,-1.40642 -3.44834,-2.37149 -4.90938,-4.20536c-1.81934,-2.30555 -4.51279,-4.71408 -6.56052,-6.82299c-1.21781,-1.25419 -3.24652,-1.32811 -4.68536,-2.06939c-2.1352,-1.10005 -4.3414,-2.70587 -6.28912,-4.13489c-2.40878,-1.76752 -5.48857,-3.35154 -8.30736,-4.34773c-1.3906,-0.49145 -2.86197,-0.36912 -4.1783,-1.22712c-2.37423,-1.54756 -4.51559,-3.73383 -6.22165,-5.96997c-2.26182,-2.96458 -5.94233,-7.35557 -6.63353,-11.10634c-0.53171,-2.88532 -0.23031,-6.98444 0.25279,-9.86055c1.67441,-2.68359 3.24686,-5.76574 5.16868,-8.24513c2.33949,-3.01824 8.0138,-4.8332 11.44948,-6.21263c3.52144,-0.7281 7.17731,-0.45034 10.76765,-0.44956c3.93623,0.00086 8.00587,-0.32992 11.81694,0.72365c2.16189,0.90383 5.37827,0.44663 7.35089,1.74176c3.93168,2.58137 8.66825,4.65415 12.19269,7.67507c1.3004,1.13136 2.37913,2.76528 3.41611,4.10825c1.69397,2.19383 4.28631,3.73212 6.11172,5.83941c1.83201,2.1149 3.33165,4.68633 5.00826,6.95988c1.55269,2.62307 3.64773,5.77178 4.24282,8.80539c0.26764,1.36436 -0.08205,2.90601 0.0588,4.29806c0.06193,0.61213 0.71957,1.00668 0.98017,1.56403c0.77401,1.65541 0.51732,4.40348 1.16035,6.27545c2.83929,6.83618 5.35623,13.95783 8.65806,20.44274c1.15828,2.19561 4.21988,5.26923 6.55568,6.26152c2.07357,0.88089 6.50482,2.18359 7.56013,4.42528c1.29799,2.75719 -2.07851,1.80451 -3.48595,1.62513c-6.05504,-0.77362 -12.24464,-2.31197 -18.20762,-2.41204z" fill="#000000" fill-rule="nonzero" stroke="none" stroke-width="0.5" stroke-linecap="butt" stroke-linejoin="miter"/><g fill-rule="evenodd"><path d="M224.78334,200.96667c0.6,0.8 3.3,2 -0.2,4.2c-3.6,2.1 -12.7,5 -21.6,-2.9c-9.6,-8.6 -4.5,-20.3 -0.1,-20.7c4.3,-0.4 2.6,6.6 5.7,14.4c4.4,11.3 15.6,4.2 16.2,5z" fill="#878787" stroke="#001026" stroke-width="1.2" stroke-linecap="round" stroke-linejoin="round"/><path d="M205.68334,186.76667c0.5,4.4 1.5,7.4 1.5,7.4c0,0 -1.6,-2 -4,-1.6c-2.9,0.5 -3.8,2.9 -3.9,3.6c-0.7,-1.7 -1.3,-3.8 -1.1,-7.4c0.5,-3.5 2.7,-7.1 5.2,-6.7c2,0.4 1.9,2 2.3,4.7z" fill="#ffffff" stroke="none" stroke-width="1" stroke-linecap="butt" stroke-linejoin="miter"/></g><path d="M226.4449,192.91737c-0.53175,2.35738 -4.44264,4.53794 -4.94762,5.53543c-0.10149,0.2995 2.95576,4.87478 4.76209,7.62381c2.60084,3.853 -2.54229,8.48745 -6.4501,6.02796c-3.6083,-2.35799 -7.86791,-10.47931 -8.27824,-12.42138c-1.03797,-4.42523 7.15496,-10.58688 12.52673,-14.78095" fill="#878787" fill-rule="evenodd" stroke="#001026" stroke-width="1.2" stroke-linecap="round" stroke-linejoin="round"/><path d="M248.3198,236.3753c0,3.86599 -11.83333,3 -11.83333,3c0,0 -10.5,0.86599 -10.5,-3c0,-3.45051 2.7452,-32.89294 7.69909,-34.5825c3.83539,-1.30808 4.43187,28.24917 5.13424,28.24917c6.53537,0 9.5,2.46734 9.5,6.33333z" fill="#878787" fill-rule="nonzero" stroke="#001026" stroke-width="1.2" stroke-linecap="butt" stroke-linejoin="miter"/><path d="M242.3198,237.04197c0,3.86599 -11.83333,3 -11.83333,3c0,0 -10.5,0.86599 -10.5,-3c0,-3.45051 2.7452,-32.89294 7.69909,-34.58249c3.83539,-1.30808 4.43187,28.24916 5.13424,28.24916c6.53537,0 9.5,2.46734 9.5,6.33333z" fill="#878787" fill-rule="nonzero" stroke="#001026" stroke-width="1.2" stroke-linecap="butt" stroke-linejoin="miter"/><g fill-rule="evenodd"><path d="M228.46746,211.92774c-9.18562,-0.14169 -6.59918,-8.70522 -6.1184,-18.13437c0.22478,-5.09504 2.32496,-11.27985 8.25588,-12.7846c3.28322,-1.01509 4.71707,5.1431 6.65887,4.10414c2.93427,-1.51331 4.46287,3.07617 4.72896,5.71988c0,0 0.33245,3.94201 -0.02111,6.21687c-0.40861,2.85536 -0.99765,5.79696 -1.69222,7.12646c0,0 -1.91695,7.90424 -11.81198,7.75161z" fill="#878787" stroke="#001026" stroke-width="1.2" stroke-linecap="round" stroke-linejoin="round"/><path d="M239.54139,204.42127c0,0 -1.87085,-0.43583 -3.96129,-1.09921c-2.58071,-0.76155 -5.03204,-1.25242 -4.5644,-4.91184c0.58904,-2.9416 0.7429,-6.56186 6.05356,-5.88595c5.04397,0.58172 4.40781,3.65665 4.40781,3.65665c-0.04435,5.00879 -1.93568,8.24035 -1.93568,8.24035z" fill="#ffffff" stroke="none" stroke-width="1" stroke-linecap="butt" stroke-linejoin="miter"/></g><path d="M220.06371,195.99621l2.11464,-8.76682l4.89755,0.85834l-2.11464,8.76682z" fill="#878787" fill-rule="nonzero" stroke="#001026" stroke-width="0" stroke-linecap="butt" stroke-linejoin="miter"/><path d="M169.5,148.83333c0,5.24671 -5.22334,9.5 -11.66667,9.5c-6.44332,0 -14.66667,-19.5 -14.66667,-19.5c0,0 26.33333,4.75329 26.33333,10z" fill="#ffffff" fill-rule="nonzero" stroke="none" stroke-width="0" stroke-linecap="butt" stroke-linejoin="miter"/><path d="M203.16667,135.83334c0,0 -8.22335,19.5 -14.66667,19.5c-6.44332,0 -11.66666,-4.2533 -11.66666,-9.5c0,-5.2467 26.33334,-10 26.33334,-10z" data-paper-data="{&quot;index&quot;:null}" fill="#ffffff" fill-rule="nonzero" stroke="none" stroke-width="0" stroke-linecap="butt" stroke-linejoin="miter"/><g><path d="M262.18227,140.86253c0.31337,-0.17832 0.80506,-0.04328 0.87658,0.36278l1.83822,10.85683c0,0 6.05227,5.14005 7.71458,8.56594c2.80378,5.71217 2.58588,10.208 2.58588,10.208c0,0 6.93406,2.59594 7.7287,8.36643c0.79466,5.77048 -4.35674,16.23296 -23.37102,18.59665c-19.01428,2.3637 -33.71661,-3.78947 -39.99419,-15.66221c-6.27757,-11.87275 5.8545,-24.64823 5.19952,-23.89258l-0.83122,-18.00358c-0.07151,-0.40606 0.44841,-0.67002 0.8333,-0.44227l11.51216,8.73442c0,0 4.60877,-1.37811 9.31116,-1.24584c2.80714,-0.00185 5.18703,0.36706 7.45306,0.92842z" fill="#878787" fill-rule="evenodd" stroke="#001026" stroke-width="1.2" stroke-linecap="butt" stroke-linejoin="miter"/><path d="M268.35721,169.41448c-0.28751,4.06294 -6.6055,6.926 -14.11161,6.39483c-7.50611,-0.53117 -13.35793,-4.25544 -13.07042,-8.31838c0.28751,-4.06294 6.6055,-6.926 14.11161,-6.39483c7.50611,0.53117 13.35793,4.25544 13.07042,8.31838z" fill="#535353" fill-rule="nonzero" stroke="none" stroke-width="NaN" stroke-linecap="butt" stroke-linejoin="miter"/><path d="M274.87004,171.23391c0,0 6.75573,2.28257 7.55037,8.05306c0.79466,5.77048 -4.72044,15.70597 -23.52817,17.98403c-24.49258,3.27927 -34.94741,-11.89658 -27.51587,-21.99719c7.43859,-10.20036 18.26754,-0.31129 26.68895,-0.31685c7.21733,0.00949 8.46004,-6.21832 16.80473,-3.72306z" fill="#ffffff" fill-rule="evenodd" stroke="none" stroke-width="1" stroke-linecap="butt" stroke-linejoin="miter"/><path d="M293.14649,173.63c-4.95651,3.45876 -12.14562,3.05027 -12.14562,3.05027" fill="none" fill-rule="evenodd" stroke="#001026" stroke-width="1.2" stroke-linecap="round" stroke-linejoin="round"/><path d="M291.05914,184.71031c-6.31957,0.05404 -10.07573,-2.11651 -10.07573,-2.11651" fill="none" fill-rule="evenodd" stroke="#001026" stroke-width="1.2" stroke-linecap="round" stroke-linejoin="round"/><path d="M257.84984,172.33522c2.09476,0.14824 4.27516,0.50304 4.32549,1.20835c0.00093,1.40356 -1.69298,4.0907 -3.29605,4.07751c-1.80963,0.07244 -5.82268,-2.7178 -5.70974,-4.31381c-0.01504,-1.20407 2.68527,-1.11323 4.68029,-0.97206z" fill="#001026" fill-rule="evenodd" stroke="#001026" stroke-width="1.2" stroke-linecap="round" stroke-linejoin="round"/><path d="M213.06798,167.66245c0,0 8.3809,3.40008 11.65334,6.73942" fill="none" fill-rule="evenodd" stroke="#001026" stroke-width="1.2" stroke-linecap="round" stroke-linejoin="round"/><path d="M224.77351,177.91431c-4.40928,1.39222 -11.71317,-0.22739 -11.71317,-0.22739" fill="none" fill-rule="evenodd" stroke="#001026" stroke-width="1.2" stroke-linecap="round" stroke-linejoin="round"/><path d="M270.4463,161.49735c2.57512,4.69348 2.31486,9.78782 -0.60522,11.38568c-2.92008,1.59786 -7.36037,-0.82161 -10.03523,-5.52215c-2.57512,-4.69348 -2.31486,-9.78782 0.60522,-11.38568c2.92713,-1.69761 7.46012,0.82867 10.03523,5.52215z" fill="#ffffff" fill-rule="evenodd" stroke="#001026" stroke-width="1.2" stroke-linecap="round" stroke-linejoin="round"/><path d="M245.51052,162.53977c2.68192,4.6008 2.10124,9.9732 -0.72614,11.67788c-3.42589,1.66232 -7.71609,-0.04478 -10.39801,-4.64558c-2.78168,-4.60785 -2.36474,-9.79136 0.88282,-11.76704c3.25462,-2.07544 7.55941,0.13394 10.24133,4.73474z" fill="#ffffff" fill-rule="evenodd" stroke="#001026" stroke-width="1.2" stroke-linecap="round" stroke-linejoin="round"/><path d="M256.32814,187.1095c-0.19005,2.68567 -15.73475,6.53059 -22.48337,6.05302c-6.74861,-0.47758 -2.14558,-5.09677 -1.95553,-7.78245c0.19005,-2.68567 2.20247,0.53179 8.95108,1.00937c6.74861,0.47758 15.67786,-1.96561 15.48781,0.72006z" fill="#ffffff" fill-rule="nonzero" stroke="#001026" stroke-width="1.2" stroke-linecap="butt" stroke-linejoin="miter"/><path d="M235.12232,185.73417l-1.72335,6.64493" fill="none" fill-rule="nonzero" stroke="#001026" stroke-width="1.2" stroke-linecap="round" stroke-linejoin="miter"/></g></g></g></svg>