<svg version="1.1" xmlns="http://www.w3.org/2000/svg" xmlns:xlink="http://www.w3.org/1999/xlink" width="103.03751" height="98.12723" viewBox="0,0,103.03751,98.12723"><g transform="translate(-201.1731,-142.59764)"><g data-paper-data="{&quot;isPaintingLayer&quot;:true}" stroke-miterlimit="10" stroke-dasharray="" stroke-dashoffset="0" style="mix-blend-mode: normal"><path d="M240.80444,192.82788c-0.25784,-2.30511 2.99447,-2.89882 5.00025,-1.0235c5.46017,5.45403 4.90754,16.60861 -1.43634,20.12503c-4.88566,2.74596 -11.22154,4.20084 -11.97919,-0.55584c-0.78153,-4.85379 6.49354,-4.58301 8.44049,-6.29747c2.0202,-1.83544 0.20875,-10.04024 -0.02521,-12.24824z" data-paper-data="{&quot;index&quot;:null}" fill="#878787" fill-rule="evenodd" stroke="#001026" stroke-width="1.2" stroke-linecap="round" stroke-linejoin="round"/><g fill-rule="evenodd"><path d="M227.01937,201.90228c0.44768,0.8942 2.89032,2.55657 -0.94598,4.09697c-3.91686,1.42416 -13.38821,2.65441 -20.73629,-6.70645c-7.91199,-10.1745 -0.80676,-20.77713 3.59402,-20.38585c4.30239,0.37344 1.38101,6.95793 3.03995,15.18581c2.31377,11.90363 14.60062,6.91533 15.0483,7.80953z" fill="#878787" stroke="#001026" stroke-width="1.2" stroke-linecap="round" stroke-linejoin="round"/><path d="M210.75866,184.523c-0.29288,4.41862 0.15595,7.54889 0.15595,7.54889c0,0 -1.21758,-2.25333 -3.65044,-2.28785c-2.94268,-0.02531 -4.25635,2.17566 -4.47961,2.84659c-0.38553,-1.7976 -0.60132,-3.97095 0.23764,-7.47753c1.1163,-3.35468 3.92318,-6.50451 6.31173,-5.66498c1.89657,0.75034 1.51277,2.30684 1.42474,5.03489z" fill="#ffffff" stroke="none" stroke-width="1" stroke-linecap="butt" stroke-linejoin="miter"/></g><path d="M248.3198,236.3753c0,3.86599 -11.83333,3 -11.83333,3c0,0 -10.5,0.86599 -10.5,-3c0,-3.45051 2.7452,-32.89294 7.69909,-34.5825c3.83539,-1.30808 4.43187,28.24917 5.13424,28.24917c6.53537,0 9.5,2.46734 9.5,6.33333z" fill="#878787" fill-rule="nonzero" stroke="#001026" stroke-width="1.2" stroke-linecap="butt" stroke-linejoin="miter"/><path d="M242.3198,237.04197c0,3.86599 -11.83333,3 -11.83333,3c0,0 -10.5,0.86599 -10.5,-3c0,-3.45051 2.7452,-32.89294 7.69909,-34.58249c3.83539,-1.30808 4.43187,28.24916 5.13424,28.24916c6.53537,0 9.5,2.46734 9.5,6.33333z" fill="#878787" fill-rule="nonzero" stroke="#001026" stroke-width="1.2" stroke-linecap="butt" stroke-linejoin="miter"/><g fill-rule="evenodd"><path d="M228.73379,212.84873c-9.01303,-1.77793 -4.94053,-9.74275 -2.78551,-18.93492c1.13002,-4.97323 4.29975,-10.68422 10.40396,-11.1069c3.41163,-0.41316 3.724,5.90204 5.81999,5.22611c3.15715,-0.96563 3.84257,3.82291 3.63282,6.47169c0,0 -0.37605,3.93809 -1.12972,6.1134c-0.91139,2.73668 -2.0157,5.52603 -2.93628,6.71031c0,0 -3.29615,7.43553 -13.00525,5.5203z" fill="#878787" stroke="#001026" stroke-width="1.2" stroke-linecap="round" stroke-linejoin="round"/><path d="M240.9691,207.43799c0,0 -1.7631,-0.76256 -3.70168,-1.78819c-2.40348,-1.20968 -4.72793,-2.12994 -3.61503,-5.64725c1.10431,-2.78935 1.90147,-6.3241 7.0064,-4.71173c4.85931,1.47212 3.68485,4.38426 3.68485,4.38426c-0.93709,4.92055 -3.37453,7.76291 -3.37453,7.76291z" fill="#ffffff" stroke="none" stroke-width="1" stroke-linecap="butt" stroke-linejoin="miter"/></g><path d="M230.7878,195.86135c-1.50169,1.89339 -5.97135,2.16168 -6.85903,2.8414c-0.22136,0.22584 0.54865,5.67441 0.98373,8.93488c0.67209,4.59982 -5.97229,6.54461 -8.42644,2.63344c-2.22832,-3.68979 -2.54352,-12.85498 -2.07082,-14.78282c0.98431,-4.43747 11.03909,-6.43538 17.69845,-7.8842" fill="#878787" fill-rule="evenodd" stroke="#001026" stroke-width="1.2" stroke-linecap="round" stroke-linejoin="round"/><g><g fill-rule="evenodd"><g><path d="M271.60895,143.10931c0.30748,-0.18831 0.80325,-0.06914 0.88779,0.33442l2.1863,10.79213c0,0 6.21438,4.94282 7.98599,8.31349c2.98597,5.61908 2.91272,10.11959 2.91272,10.11959c0,0 7.01392,2.37168 7.99367,8.11364c0.97976,5.74195 -3.8326,16.36464 -22.76107,19.33839c-18.92846,2.97377 -33.82101,-2.70355 -40.47703,-14.36834c-6.65603,-11.66479 5.05905,-24.82369 4.42871,-24.04738l-1.40959,-17.96755c-0.08453,-0.40354 0.42665,-0.68409 0.81864,-0.46884l11.78701,8.3598c0,0 4.56208,-1.52557 9.26631,-1.54455c2.80562,-0.0921 5.19615,0.20012 7.47905,0.68833z" fill="#878787" stroke="#001026" stroke-width="1.2" stroke-linecap="butt" stroke-linejoin="miter"/><path d="M285.26657,173.0571c0,0 6.82561,2.0642 7.80538,7.80616c0.97976,5.74195 -4.21307,15.8496 -22.93783,18.73115c-24.37449,4.065 -35.31181,-10.76689 -28.20884,-21.10121c7.10681,-10.43424 18.24809,-0.89842 26.66496,-1.1747c7.21391,-0.22254 8.25577,-6.4871 16.67635,-4.2614z" fill="#ffffff" stroke="none" stroke-width="1" stroke-linecap="butt" stroke-linejoin="miter"/><path d="M303.61061,174.86437c-4.84276,3.61631 -12.04127,3.43916 -12.04127,3.43916" fill="none" stroke="#001026" stroke-width="1.2" stroke-linecap="round" stroke-linejoin="round"/><path d="M301.88056,186.00605c-6.31457,0.25718 -10.13856,-1.79149 -10.13856,-1.79149" fill="none" stroke="#001026" stroke-width="1.2" stroke-linecap="round" stroke-linejoin="round"/><path d="M268.29057,174.70501c2.09844,0.08081 4.28912,0.36533 4.36211,1.06866c0.04605,1.40281 -1.56059,4.143 -3.16325,4.18137c-1.80636,0.13059 -5.90705,-2.5292 -5.84547,-4.12801c-0.05375,-1.20295 2.6481,-1.19898 4.64662,-1.12201z" fill="#001026" stroke="#001026" stroke-width="1.2" stroke-linecap="round" stroke-linejoin="round"/><path d="M223.38164,171.47438c0,0 8.48588,3.12889 11.86399,6.36128" fill="none" stroke="#001026" stroke-width="1.2" stroke-linecap="round" stroke-linejoin="round"/><path d="M235.41071,181.34461c-4.36224,1.53325 -11.71442,0.14931 -11.71442,0.14931" fill="none" stroke="#001026" stroke-width="1.2" stroke-linecap="round" stroke-linejoin="round"/><g><path d="M280.5321,163.46779c2.72468,4.60827 2.62834,9.70835 -0.23885,11.39926c-2.8672,1.69092 -7.38298,-0.58456 -10.20758,-5.19667c-2.72468,-4.60827 -2.62834,-9.70835 0.23885,-11.39926c2.87105,-1.79084 7.4829,0.58839 10.20758,5.19667z" fill="#ffffff" stroke="#001026" stroke-width="1.2" stroke-linecap="round" stroke-linejoin="round"/><path d="M280.02944,172.44498c-0.04233,1.09918 -0.87637,1.96773 -1.87563,1.92925c-0.99926,-0.03849 -1.76403,-0.9686 -1.7217,-2.06779c0.04233,-1.09918 0.87637,-1.96773 1.87563,-1.92925c0.99926,0.03849 1.76403,0.9686 1.7217,2.06779" fill="#001026" stroke="none" stroke-width="1" stroke-linecap="butt" stroke-linejoin="miter"/></g><g><path d="M255.64271,165.31132c2.82844,4.5122 2.42079,9.90049 -0.35033,11.69519c-3.37067,1.77159 -7.71354,0.20331 -10.54199,-4.30889c-2.92838,-4.51604 -1.17941,-9.65254 2.00296,-11.73162c3.18622,-2.179 6.06091,-0.16688 8.88936,4.34531z" fill="#ffffff" stroke="#001026" stroke-width="1.2" stroke-linecap="round" stroke-linejoin="round"/><path d="M254.8728,173.743c-0.04233,1.09918 -0.87637,1.96773 -1.87563,1.92925c-0.99926,-0.03849 -1.76403,-0.9686 -1.7217,-2.06779c0.04233,-1.09918 0.87637,-1.96773 1.87563,-1.92925c0.99542,0.13841 1.76403,0.9686 1.7217,2.06779" fill="#001026" stroke="none" stroke-width="1" stroke-linecap="butt" stroke-linejoin="miter"/></g></g></g><path d="M243.4493,197.25555c-11.63571,0.47584 -0.1404,-11.41951 -0.03414,-14.17889c0.04267,-1.10781 0.56124,3.97003 4.50114,6.2041c5.87372,3.33061 15.94609,4.67238 15.94609,4.67238c0,0 -17.26033,3.17347 -20.4131,3.3024z" fill="#000000" fill-rule="nonzero" stroke="#001026" stroke-width="1.2" stroke-linecap="butt" stroke-linejoin="miter"/></g></g></g></svg>