<svg version="1.1" xmlns="http://www.w3.org/2000/svg" xmlns:xlink="http://www.w3.org/1999/xlink" width="85.41666" height="108.10129" viewBox="0,0,85.41666,108.10129"><defs><linearGradient x1="246.34431" y1="189.21071" x2="249.46491" y2="207.54706" gradientUnits="userSpaceOnUse" id="color-1"><stop offset="0" stop-color="#ffffff"/><stop offset="1" stop-color="#9f9f9f"/></linearGradient><radialGradient cx="234.09508" cy="160.13262" r="9.00472" gradientUnits="userSpaceOnUse" id="color-2"><stop offset="0" stop-color="#1a1a1a"/><stop offset="1" stop-color="#ffffff"/></radialGradient><radialGradient cx="210.84852" cy="164.57637" r="6.89369" gradientUnits="userSpaceOnUse" id="color-3"><stop offset="0" stop-color="#1a1a1a"/><stop offset="1" stop-color="#ffffff"/></radialGradient></defs><g transform="translate(-179.90481,-132.62357)"><g data-paper-data="{&quot;isPaintingLayer&quot;:true}" stroke-miterlimit="10" stroke-dasharray="" stroke-dashoffset="0" style="mix-blend-mode: normal"><path d="M232.22753,186.90828c1.5976,1.45031 6.99373,7.57847 9.59241,7.04702c2.46177,-0.54344 6.42336,-6.40499 9.78201,-3.00721c3.29621,3.32334 -1.48006,7.45815 -6.43692,9.71475c-6.39781,2.95832 -15.46393,-3.008 -16.6091,-10.41985c-0.32013,-2.64918 2.01153,-4.85947 3.67161,-3.33471z" data-paper-data="{&quot;index&quot;:null}" fill="#717171" fill-rule="evenodd" stroke="#001026" stroke-width="1.2" stroke-linecap="round" stroke-linejoin="round"/><g fill-rule="nonzero" stroke="#001026" stroke-width="1.2" stroke-linejoin="miter"><g><g><path d="M245.8051,194.983l-1.81196,-10.64692l2.56314,-0.43621l1.81196,10.64692z" fill="#2c2c2c" stroke-linecap="butt"/><path d="M247.91046,206.36614l2.3744,-0.34967l1.56269,14.7295z" fill="#6c6c6c" stroke-linecap="butt"/><path d="M245.81736,208.16783l-3.12061,-18.33636l7.29511,-1.24152l3.1206,18.33635z" fill="url(#color-1)" stroke-linecap="butt"/><path d="M246.71549,191.98779l-3.58253,0.40682" fill="none" stroke-linecap="round"/><path d="M247.28592,195.33961l-3.18819,0.33971" fill="none" stroke-linecap="round"/><path d="M244.30322,198.07885l2.82742,-0.07543" fill="none" stroke-linecap="round"/><path d="M247.50391,201.38878l-2.16881,0.3691" fill="none" stroke-linecap="round"/><path d="M245.44409,204.78247l3.05814,0.08817" fill="none" stroke-linecap="round"/></g><path d="M241.59777,185.75812l-0.46977,-2.76031l7.49228,-1.27509l0.46977,2.76032z" fill="#2c2c2c" stroke-linecap="butt"/></g><path d="M246.48882,197.80833c0.49109,2.88563 -0.39076,5.44271 -1.96968,5.71141c-1.57893,0.26871 -3.257,-1.85271 -3.7481,-4.73833c-0.49109,-2.88563 0.39077,-5.44272 1.96969,-5.71142c1.57893,-0.26871 3.25701,1.85271 3.7481,4.73834z" fill="#717171" stroke-linecap="butt"/><path d="M256.37645,195.11121c0.75054,4.41009 -0.89202,8.36828 -3.66875,8.84085c-2.77673,0.47257 -5.63613,-2.71944 -6.38668,-7.12953c-0.75054,-4.41009 0.89201,-8.36827 3.66875,-8.84084c2.77673,-0.47257 5.63613,2.71943 6.38668,7.12952z" fill="#717171" stroke-linecap="butt"/></g><g fill-rule="evenodd"><path d="M226.33743,206.82842c0.96112,0.27611 3.83844,-0.39556 2.37408,3.47041c-1.60442,3.84654 -7.11284,11.64892 -18.97672,10.71701c-12.84444,-1.06794 -15.83475,-13.47592 -12.56677,-16.4492c3.18822,-2.91295 6.05503,3.69549 13.23272,8.04643c10.32586,6.3582 14.97556,-6.06076 15.93668,-5.78464z" fill="#717171" stroke="#001026" stroke-width="1.2" stroke-linecap="round" stroke-linejoin="round"/><path d="M202.53804,207.02489c3.05303,3.20766 5.66029,4.9971 5.66029,4.9971c0,0 -2.48256,-0.62994 -4.15542,1.13686c-2.01131,2.14817 -1.28135,4.60523 -0.93884,5.22385c-1.5838,-0.93359 -3.32913,-2.24653 -5.34128,-5.23839c-1.71255,-3.09308 -2.12958,-7.29142 0.10564,-8.4805c1.83642,-0.88745 2.72184,0.44897 4.66961,2.36109z" fill="#ffffff" stroke="none" stroke-width="1" stroke-linecap="butt" stroke-linejoin="miter"/></g><path d="M264.1807,212.48935c2.78026,2.68625 -6.06484,10.59458 -6.06484,10.59458c0,0 -6.67308,8.15292 -9.45335,5.46665c-2.48146,-2.39757 -21.7478,-24.82971 -19.52068,-29.56633c1.72428,-3.66716 23.39513,16.44156 23.88318,15.93644c4.54107,-4.69998 8.37543,-5.11761 11.15569,-2.43134z" fill="#717171" fill-rule="nonzero" stroke="#001026" stroke-width="1.2" stroke-linecap="butt" stroke-linejoin="miter"/><path d="M242.3198,237.04197c0,3.86599 -11.83333,3 -11.83333,3c0,0 -10.5,0.86599 -10.5,-3c0,-3.45051 2.7452,-32.89294 7.69909,-34.58249c3.83539,-1.30808 4.43187,28.24916 5.13424,28.24916c6.53537,0 9.5,2.46734 9.5,6.33333z" fill="#717171" fill-rule="nonzero" stroke="#001026" stroke-width="1.2" stroke-linecap="butt" stroke-linejoin="miter"/><g fill-rule="evenodd"><path d="M232.17922,210.22746c-7.22348,5.676 -10.60886,-2.60427 -16.17491,-10.23046c-3.0348,-4.09877 -5.29948,-10.22526 -1.64096,-15.12987c1.91057,-2.8565 6.90328,1.0232 7.75698,-1.00688c1.32573,-3.02365 5.40388,-0.422 7.27584,1.46369c0,0 2.74129,2.85224 3.89964,4.84177c1.48125,2.47505 2.87668,5.13078 3.17468,6.60087c0,0 3.49007,7.3465 -4.29127,13.46087z" fill="#717171" stroke="#001026" stroke-width="1.2" stroke-linecap="round" stroke-linejoin="round"/><path d="M236.05168,197.42189c0,0 -1.72757,0.83996 -3.76902,1.64151c-2.48407,1.03413 -4.69715,2.19698 -6.63903,-0.93976c-1.39542,-2.6557 -3.55636,-5.56438 0.99405,-8.38463c4.28393,-2.72542 5.72677,0.06353 5.72677,0.06353c3.12061,3.91813 3.68724,7.61936 3.68724,7.61936z" fill="#ffffff" stroke="none" stroke-width="1" stroke-linecap="butt" stroke-linejoin="miter"/></g><g data-paper-data="{&quot;index&quot;:null}"><g><path d="M224.78871,133.09184c0.28139,-0.22543 0.78822,-0.16945 0.92276,0.22029l3.52412,10.43219c0,0 6.78586,4.12338 8.96667,7.24492c3.6679,5.19966 4.16035,9.67376 4.16035,9.67376c0,0 7.25622,1.4722 8.94922,7.04568c1.693,5.57349 -1.74744,16.71636 -20.15267,22.04336c-18.40525,5.32701 -33.8928,1.56461 -41.96085,-9.17207c-8.06805,-10.7367 1.902,-25.26247 1.37412,-24.41315l-3.65455,-17.64835c-0.13454,-0.38974 0.33737,-0.73224 0.7533,-0.56793l12.74343,6.81358c0,0 4.33442,-2.08633 8.99903,-2.69585c2.77185,-0.44367 5.18015,-0.45393 7.50629,-0.25623z" fill="#717171" fill-rule="evenodd" stroke="#001026" stroke-width="1.2" stroke-linecap="butt" stroke-linejoin="miter"/><path d="M235.38066,160.31599c0.35556,4.05755 -5.43304,7.87936 -12.92919,8.53623c-7.49615,0.65688 -13.86122,-2.09991 -14.21678,-6.15746c-0.35556,-4.05755 5.43305,-7.87936 12.9292,-8.53623c7.49615,-0.65688 13.86122,2.09991 14.21678,6.15746z" fill="#000000" fill-rule="nonzero" stroke="none" stroke-width="NaN" stroke-linecap="butt" stroke-linejoin="miter"/><path d="M242.09867,161.08765c0,0 7.03079,1.1908 8.72379,6.76429c1.693,5.57349 -2.18955,16.25318 -20.40429,21.46311c-23.67115,7.09344 -36.38428,-6.24771 -30.63518,-17.39212c5.74038,-11.24403 17.99085,-3.18265 26.30641,-4.51363c7.12886,-1.12661 7.37586,-7.4724 16.00926,-6.32165z" fill="#ffffff" fill-rule="evenodd" stroke="none" stroke-width="1" stroke-linecap="butt" stroke-linejoin="miter"/><path d="M260.52446,160.57724c-4.35034,4.19577 -11.51412,4.92391 -11.51412,4.92391" fill="none" fill-rule="evenodd" stroke="#001026" stroke-width="1.2" stroke-linecap="round" stroke-linejoin="round"/><path d="M260.20712,171.84796c-6.23231,1.04804 -10.28327,-0.50425 -10.28327,-0.50425" fill="none" fill-rule="evenodd" stroke="#001026" stroke-width="1.2" stroke-linecap="round" stroke-linejoin="round"/><path d="M225.46397,164.85415c2.09198,-0.18332 4.30104,-0.17613 4.46176,0.51247c0.22183,1.38592 -1.02801,4.30618 -2.61318,4.54547c-1.77567,0.35636 -6.17788,-1.76745 -6.31754,-3.36134c-0.20437,-1.18669 2.47659,-1.52201 4.46896,-1.69659z" fill="#001026" fill-rule="evenodd" stroke="#001026" stroke-width="1.2" stroke-linecap="round" stroke-linejoin="round"/><path d="M180.50481,167.28811c0,0 8.8116,2.03858 12.56885,4.82121" fill="none" fill-rule="evenodd" stroke="#001026" stroke-width="1.2" stroke-linecap="round" stroke-linejoin="round"/><path d="M193.67804,175.56978c-4.13519,2.06888 -11.60297,1.61905 -11.60297,1.61905" fill="none" fill-rule="evenodd" stroke="#001026" stroke-width="1.2" stroke-linecap="round" stroke-linejoin="round"/><path d="M238.00471,156.20838c3.28175,4.22967 2.01944,5.26183 -0.61275,7.29939c-2.63218,2.03755 -7.39794,0.34713 -10.77931,-3.87381c-1.70394,-2.18312 -4.57605,-6.56393 -3.14976,-6.15345c16.21706,4.66726 13.37165,1.47548 14.04392,2.1959c0.16584,0.17773 0.34811,0.33892 0.4979,0.53197z" fill="url(#color-2)" fill-rule="evenodd" stroke="#001026" stroke-width="1.2" stroke-linecap="round" stroke-linejoin="round"/><path d="M211.73667,157.12295c3.37264,4.12132 3.64479,9.51816 1.12096,11.6466c-3.12154,2.18082 -7.62696,1.17026 -10.9996,-2.95106c8.72181,-1.30608 6.506,-12.81686 9.87864,-8.69554z" fill="url(#color-3)" fill-rule="evenodd" stroke="#001026" stroke-width="1.2" stroke-linecap="round" stroke-linejoin="round"/><path d="M226.28664,179.68379c0.23503,2.68211 -13.23772,11.42474 -19.97738,12.01532c-6.73966,0.59059 -4.19406,-7.1945 -4.42908,-9.87662c-0.23503,-2.68211 2.25872,0.1785 8.99838,-0.41208c6.73966,-0.59059 15.17306,-4.40874 15.4081,-1.72663z" fill="#000000" fill-rule="nonzero" stroke="#001026" stroke-width="1.2" stroke-linecap="butt" stroke-linejoin="miter"/></g><path d="M209.63247,169.51313c0.01977,0.02281 0.03866,0.04944 0.05654,0.0801c0.13229,-0.03781 0.26854,-0.0874 0.40934,-0.15034c0.11736,-0.01104 0.23561,-0.02139 0.35427,-0.03188c0.43096,-0.19836 0.83753,-0.40256 1.05006,-0.47547c0.24578,-0.12451 0.51818,-0.17234 0.78382,-0.20072c0.06418,-0.36005 0.21833,-0.67501 0.68232,-0.82412c0.26194,-0.08419 0.50044,-0.1029 0.70328,-0.07028c0.08827,-0.11566 0.17736,-0.22574 0.26603,-0.3216c0.35116,-1.07077 0.48822,-2.60842 0.62474,-3.1629l-0.02296,-0.26195c-0.01206,-0.13754 0.08968,-0.25882 0.22723,-0.27088c0.13754,-0.01206 0.25882,0.08968 0.27087,0.22723l0.02563,0.2925l-0.06295,0.00551c0.00248,0.00699 0.00494,0.014 0.00738,0.02102l0.05585,0.01364c-0.00684,0.02988 -0.01361,0.06088 -0.0203,0.09293c0.58066,1.8191 0.19141,4.63604 -0.18861,6.78625c0.09608,2.07208 0.03462,4.86024 -0.7437,6.49181l0.05184,0.01287l-0.07116,0.28684c-0.02312,0.10351 -0.11095,0.18474 -0.22222,0.19448c-0.13754,0.01206 -0.25882,-0.08968 -0.27087,-0.22722c-0.00007,-0.00082 -0.00014,-0.00164 -0.0002,-0.00244l-0.03941,-0.4981l0.00847,-0.00067l-0.00917,-0.02572c0.20518,-1.57322 0.29035,-3.12586 0.50552,-4.68911c0.13093,-0.7247 0.20432,-1.40926 0.24657,-2.07763c-0.00795,-0.27115 -0.02301,-0.54203 -0.04669,-0.81242c-0.02647,-0.3092 -0.00851,-0.61552 0.01274,-0.92201c-0.08699,0.20443 -0.24088,0.4205 -0.47323,0.63486c-0.93554,1.06553 -2.06406,1.24509 -3.11118,1.52412l-0.04535,0.15027c-0.02703,0.09768 -0.1123,0.17302 -0.21919,0.18239c-0.12012,0.01053 -0.22783,-0.06573 -0.26123,-0.17684c-0.63396,0.21394 -1.2176,0.53277 -1.68341,1.19912l-0.21401,0.43151c-0.0368,0.07746 -0.11252,0.13396 -0.20413,0.14199c-0.128,0.01121 -0.24192,-0.07612 -0.26681,-0.19915l-0.08609,-0.39531l0.07447,-0.01621c-0.16187,-0.60271 -0.09036,-1.08164 0.13945,-1.46382c-0.02158,-0.03055 -0.04401,-0.06166 -0.06721,-0.09315c-0.74026,2.07949 0.01661,4.38521 -0.37405,6.46313c-0.00118,0.07224 -0.00262,0.14476 -0.00417,0.21771l0.02475,0.2824c0.01206,0.13754 -0.08968,0.25882 -0.22723,0.27088c-0.13754,0.01206 -0.25882,-0.08968 -0.27087,-0.22723l-0.02563,-0.2925l0.00637,-0.00056l-0.00719,-0.01289c0.00116,-0.05907 0.00229,-0.11788 0.00331,-0.17645c-0.19349,-0.40964 -0.13439,-1.30006 -0.16483,-1.66262c-0.05517,-0.65698 -0.06334,-1.51413 0.00678,-2.38565c-0.02143,-0.71442 -0.04641,-1.43223 -0.10025,-2.1313l-0.04544,0.06748c-0.0406,0.06136 -0.10779,0.10431 -0.18677,0.11124c-0.13754,0.01206 -0.25882,-0.08968 -0.27086,-0.22722c-0.00366,-0.04183 0.0032,-0.08216 0.01838,-0.11836l0.15897,-0.40241l0.01396,0.00551c0.02142,-0.15855 0.0511,-0.31551 0.09443,-0.46916c0.00184,-0.00656 0.00392,-0.01346 0.00618,-0.02069c-0.25446,-0.12488 -0.50956,-0.24514 -0.7643,-0.35095c-0.00336,0.00345 -0.00671,0.00693 -0.01005,0.01048c-0.03176,0.03372 -0.0611,0.07142 -0.0884,0.11241c-0.10206,0.57089 -0.20651,1.13069 -0.3902,1.67322l0.05876,0.01135l-0.09381,0.4855c-0.01856,0.10943 -0.10894,0.19689 -0.22469,0.20703c-0.08054,0.00706 -0.15549,-0.02489 -0.2062,-0.0802c-0.13644,0.01052 -0.25623,-0.09078 -0.26821,-0.22745l-0.03418,-0.39l0.07749,-0.00679c-0.14026,-0.66645 -0.00404,-1.1767 0.29355,-1.52387c0.06299,-0.17573 0.13502,-0.34841 0.21439,-0.51086c-0.05264,-0.0151 -0.10523,-0.02921 -0.15776,-0.04223c-0.2166,-0.18391 -0.37312,-0.44379 -0.47078,-0.71062l-0.00038,-0.01021l-0.00231,0.0006l-0.12377,-0.47958c-0.00403,-0.01453 -0.00679,-0.02964 -0.00816,-0.04521c-0.01206,-0.13754 0.08968,-0.25882 0.22722,-0.27087c0.125,-0.01095 0.23656,0.07208 0.26492,0.19055l0.08364,0.32409c0.0596,0.0494 0.11878,0.09458 0.17757,0.13581c0.03985,-0.06606 0.10963,-0.11283 0.19236,-0.12008l0.39,-0.03418l0.00126,0.01441l0.03891,-0.01468c0.22981,0.05262 0.4483,0.12525 0.6593,0.2086c0.18245,0.02752 0.35174,0.09177 0.46752,0.20349c0.05526,0.02581 0.1102,0.05189 0.16485,0.07806c0.75532,-0.11257 1.52528,-0.3041 2.41336,0.21182c0.11627,0.06755 0.19151,0.15667 0.23595,0.2596zM212.04971,170.0423c-0.01566,0.00627 -0.03133,0.01247 -0.04703,0.01859c0.02143,0.00225 0.03456,0.00136 0.03784,-0.0038c0.00312,-0.0049 0.00617,-0.00984 0.00918,-0.0148zM214.37711,167.97719c0.0009,-0.09239 0.00193,-0.1851 0.00311,-0.27821c-0.05017,0.14272 -0.1048,0.27977 -0.16453,0.40894c0.03976,0.05241 0.07195,0.1012 0.09724,0.14664c0.00001,-0.01067 -0.00003,-0.02136 -0.0001,-0.03204c-0.00042,-0.06421 0.03066,-0.15532 0.06428,-0.24534zM213.8019,168.86501c-0.04183,0.00646 -0.08438,0.01213 -0.12709,0.01723c-0.07367,0.06399 -0.15198,0.11883 -0.23535,0.16323c-0.0022,0.00118 -0.00443,0.00234 -0.00667,0.0035l0.04476,-0.00392c0.05818,-0.0051 0.11344,0.01015 0.15876,0.03987c0.0684,-0.07758 0.12329,-0.1511 0.16559,-0.2199zM212.74151,168.69331c0.00133,-0.00014 0.00265,-0.00027 0.00398,-0.00041c0.12986,-0.05522 0.26838,-0.10235 0.40204,-0.14172c0.06166,-0.07897 0.12538,-0.1653 0.19056,-0.25499c-0.1015,0.02247 -0.21399,0.05978 -0.33552,0.11335c-0.12447,0.05486 -0.20565,0.15511 -0.26104,0.28377zM208.89483,170.6944c-0.02769,0.00347 -0.05534,0.00658 -0.08286,0.00933c-0.00675,0.04122 -0.0127,0.08332 -0.01809,0.12606l0.09058,-0.10799c0.00352,-0.0092 0.00697,-0.01834 0.01036,-0.02739zM212.49614,170.07872c0.18534,-0.10878 0.36764,-0.23738 0.54557,-0.3921c-0.06004,0.02641 -0.12066,0.04878 -0.18067,0.06506c-0.02751,0.07462 -0.08983,0.13343 -0.16889,0.1549l-0.16208,0.04745c-0.00991,0.04269 -0.02111,0.08436 -0.03391,0.1247zM207.34158,170.81256c0.02167,-0.05614 0.04404,-0.11111 0.06716,-0.1648c-0.03039,-0.01475 -0.06082,-0.02959 -0.09125,-0.04452c0.00865,0.06881 0.01666,0.13861 0.02409,0.20931zM208.85949,171.42839c0.00186,-0.0013 0.00372,-0.00262 0.00557,-0.00391c-0.00173,0.00025 -0.00348,0.00048 -0.00522,0.00071zM211.73112,170.42695c-0.15445,-0.04677 -0.32508,-0.09218 -0.46139,-0.1048c-0.08991,0.11857 -0.18136,0.22456 -0.27422,0.31884c0.24538,-0.06177 0.49151,-0.12873 0.73559,-0.21405zM208.04197,170.04428c0.01533,0.04433 0.02928,0.09315 0.04167,0.14673c0.07189,-0.0177 0.14577,-0.03413 0.2211,-0.04896c-0.08735,-0.03177 -0.17493,-0.06452 -0.26276,-0.09778zM208.44108,170.8296c0.00431,0.00217 0.00862,0.00434 0.01293,0.00651c0.00171,-0.01393 0.00361,-0.0279 0.00568,-0.04192c-0.00656,0.01068 -0.01275,0.02251 -0.01861,0.03541zM208.28227,171.9548c0.03287,-0.03826 0.06607,-0.0752 0.09958,-0.11086c-0.01404,-0.01797 -0.02569,-0.03796 -0.03445,-0.05953l-0.03625,-0.0836c-0.00836,0.08562 -0.01764,0.17118 -0.02888,0.25399z" fill="#000000" fill-rule="nonzero" stroke="none" stroke-width="0.5" stroke-linecap="butt" stroke-linejoin="miter"/><path d="M237.72237,165.63549c0.0761,-0.09385 0.15106,-0.19613 0.22373,-0.30445c-0.0734,0.07564 -0.13915,0.14616 -0.19395,0.21c-0.01007,0.03155 -0.02,0.06303 -0.02978,0.09445zM239.02161,164.23783c-0.31215,0.95691 -0.90868,2.0245 -1.52385,2.25866c-0.01334,0.03967 -0.02659,0.079 -0.03974,0.11801c-0.39332,1.72278 -0.36628,3.2751 -0.20404,4.93931c0.32635,0.90934 0.72823,1.84719 0.52434,2.73833l0.085,0.02028l-0.07053,0.29544c-0.02238,0.10451 -0.11065,0.18679 -0.22268,0.1966c-0.09942,0.00871 -0.19034,-0.04203 -0.23766,-0.12276l-0.22634,-0.36829l0.01343,-0.00826l-0.03559,-0.03779c-0.22286,-1.41488 -0.40862,-2.71649 -0.45665,-3.99803c-0.19935,-1.18005 -0.205,-2.2406 0.31034,-3.62514c0.09906,-0.4402 0.2237,-0.8878 0.37762,-1.34623c0.12703,-0.15438 0.34911,-0.3709 0.59134,-0.60666c-0.40819,0.28788 -0.99325,0.24227 -1.56467,0.13459c-0.32946,0.13413 -0.63671,0.21881 -0.90226,0.24209c-0.2923,0.02561 -0.62194,0.01083 -0.95829,-0.00543c0.01037,0.22804 0.10327,0.55366 0.3019,1.00987c0.16305,0.3745 0.22093,0.70353 0.47808,1.02824c0.77527,1.55675 1.34133,6.68373 0.10735,8.42674l0.09092,0.07628l-0.17791,0.21209v0v0c-0.04112,0.04902 -0.10094,0.08235 -0.16972,0.08838c-0.13754,0.01206 -0.25882,-0.08968 -0.27086,-0.22722l-0.03418,-0.39c-0.05478,-0.64988 -0.21068,-1.28309 -0.26838,-1.94147c-0.14389,-1.84736 0.38087,-3.90091 -0.00987,-5.75566c-0.08935,-0.4241 -0.31784,-0.79514 -0.51492,-1.1762c-0.04152,0.1033 -0.08464,0.2056 -0.12849,0.3059c-0.02653,0.79703 -0.11543,1.81071 -0.27982,2.76104c0.03964,0.70669 -0.00391,1.35599 -0.25755,1.8487c-0.31535,0.57642 -0.96671,5.05806 -1.64557,4.61036c-0.44149,-0.29115 0.41833,-3.41906 0.40463,-3.91782c0.06776,-0.28885 0.1413,-0.60425 0.21397,-0.93809c-0.18366,-0.91403 -0.49792,-2.2502 -0.31671,-2.58098c0.1912,-0.349 0.49016,-0.6135 0.77092,-0.92371c-0.00141,-0.71837 -0.08683,-1.40767 -0.30544,-2.00749c-0.23451,-0.07103 -0.49003,-0.30053 -0.71644,-0.77694c-0.05512,-0.00058 -0.11072,0.00023 -0.16686,0.00246l-0.05951,-0.07792l-0.02601,0.031l-0.21209,-0.17791c-0.04902,-0.04112 -0.08235,-0.10094 -0.08838,-0.16972c-0.01206,-0.13754 0.08968,-0.25882 0.22722,-0.27086l0.2925,-0.02563l0.00166,0.01895c0.01111,-0.00534 0.02311,-0.01029 0.03609,-0.01475c0.04954,-0.0171 0.09228,-0.02024 0.1289,-0.0145c2.11409,-0.49671 4.10178,0.41626 6.28786,-1.31577c0.07894,-0.03423 0.15271,-0.06896 0.22169,-0.10415c0.07144,-0.48346 0.12739,-1.01719 0.37155,-1.27005c0.3149,-0.32613 0.62048,-0.58223 0.91303,-0.77068c0.01997,-0.05106 0.04183,-0.10248 0.06606,-0.15424c-0.12709,-0.23371 -0.11568,-0.44775 0.14336,-0.60466c0.07299,-0.0442 0.14663,-0.06439 0.22048,-0.06369l0.0235,-0.09842c0.02238,-0.10451 0.11065,-0.18679 0.22267,-0.1966c0.13754,-0.01206 0.25882,0.08968 0.27088,0.22723l0.02563,0.2925l-0.08403,0.00736l-0.0026,0.0109c0.05373,0.05401 0.10713,0.11579 0.16003,0.1841c0.9779,-0.0772 1.69139,0.80921 1.92741,2.52462c0.08028,0.85217 0.14003,1.70163 0.19107,2.5504c0.64269,1.95384 1.19592,4.36773 0.49335,5.92448l0.10075,0.05133l-0.22502,0.44166c-0.03723,0.07615 -0.1123,0.13147 -0.20289,0.13941c-0.13754,0.01206 -0.25882,-0.08968 -0.27087,-0.22722l-0.02563,-0.2925c-0.15753,-1.79777 -0.23149,-3.57783 -0.33094,-5.35848c-0.15282,-0.78126 -0.36177,-1.56098 -0.66722,-2.33702c-0.12349,-0.26325 -0.78536,-1.48126 -1.21243,-2.37862c-0.07073,-0.01338 -0.14128,-0.02221 -0.21112,-0.02545c-0.21041,0.46483 -0.53908,0.93427 -0.93545,1.37743c0.08896,0.34631 0.19504,0.7108 0.11297,0.94774c-0.06563,0.18946 -0.23606,0.41963 -0.44924,0.66054zM235.06858,167.93281c0.22118,1.75972 -0.18981,3.79772 -0.03195,5.36896c0.03035,0.34636 0.08648,0.68421 0.14152,1.02138c0.10004,-0.41021 0.22736,-0.81402 0.24409,-0.9767c0.14303,-1.39023 0.14352,-3.8793 -0.35366,-5.41366zM233.3091,166.67258c0.0614,-0.38832 0.09157,-0.72748 0.06696,-0.987l-0.01909,-0.21778c-0.07026,0.35606 -0.07533,0.76616 -0.04788,1.20478zM232.63549,169.37729c0.03997,-0.2802 0.07346,-0.56348 0.09761,-0.84635c-0.18753,0.17362 -0.3548,0.32429 -0.35223,0.32817c0.10714,0.16195 0.18996,0.33575 0.25462,0.51818zM233.84807,165.03979c-0.03126,-0.00026 -0.06238,-0.00032 -0.09339,-0.00015c-0.01935,0.00263 -0.03865,0.00517 -0.05788,0.00759c0.02887,0.01352 0.05485,0.03245 0.07656,0.05557l0.05367,0.05621c0.00571,-0.03509 0.01299,-0.07567 0.02104,-0.11923zM238.13465,164.46854c0.16558,-0.1629 0.32984,-0.32847 0.47033,-0.48389c0.07158,-0.21973 0.12075,-0.42957 0.1404,-0.61482c-0.05869,0.25846 -0.16189,0.47287 -0.37686,0.58196c-0.05419,0.21369 -0.13394,0.38338 -0.23386,0.51673zM241.65323,162.06345c0.25628,0.65168 0.44578,1.23252 0.52314,1.39559c0.01569,0.04097 0.03162,0.08267 0.04779,0.12507c-0.02058,-0.25408 -0.04267,-0.50833 -0.06659,-0.76282c-0.01883,-0.13991 -0.03964,-0.27326 -0.06247,-0.39999c-0.00325,0.00042 -0.00652,0.00076 -0.00982,0.00104c-0.08782,0.0077 -0.169,-0.031 -0.21936,-0.09576l-0.207,-0.25839c-0.00181,-0.00155 -0.00371,-0.00314 -0.0057,-0.00477zM237.43951,164.2479c0.14844,-0.05423 0.27503,-0.13451 0.37148,-0.24936c-0.12346,0.08727 -0.24757,0.17057 -0.37148,0.24936zM237.27612,163.88229c-0.30273,0.14713 -0.64197,0.29795 -1.00019,0.44093c0.03818,0.00331 0.07622,0.00634 0.11403,0.00907c0.30306,-0.11601 0.60126,-0.26872 0.88615,-0.44999zM238.88623,162.3247c-0.00126,0.00673 -0.00251,0.01347 -0.00373,0.02023c0.00206,-0.003 0.00413,-0.006 0.00619,-0.00901c-0.00083,-0.00374 -0.00166,-0.00749 -0.00246,-0.01123zM241.08445,160.80393c0.14001,0.01587 0.27295,0.04694 0.39491,0.09452c-0.1375,-0.13417 -0.29432,-0.21223 -0.47197,-0.23264c0.02589,0.04498 0.05159,0.09108 0.07706,0.13812z" fill="#000000" fill-rule="nonzero" stroke="none" stroke-width="0.5" stroke-linecap="butt" stroke-linejoin="miter"/></g><path d="M219.39313,200.45828c-6.802,-0.42299 -17.0434,-0.87421 -18.68878,-5.11129c-0.75938,-1.83395 -1.83662,-10.94107 -0.19315,-14.92591c1.83316,-4.23788 8.6955,-3.32238 8.72819,1.32617c0.064,3.28875 0.12851,8.7911 0.38154,8.98078c0.98043,0.53734 5.43914,0.12525 7.2104,1.76924" data-paper-data="{&quot;index&quot;:null}" fill="#717171" fill-rule="evenodd" stroke="#001026" stroke-width="1.2" stroke-linecap="round" stroke-linejoin="round"/></g></g></svg>