<svg version="1.1" xmlns="http://www.w3.org/2000/svg" xmlns:xlink="http://www.w3.org/1999/xlink" width="97.263" height="101.95188" viewBox="0,0,97.263,101.95188"><g transform="translate(-196.92553,-138.77299)"><g data-paper-data="{&quot;isPaintingLayer&quot;:true}" stroke-miterlimit="10" stroke-dasharray="" stroke-dashoffset="0" style="mix-blend-mode: normal"><path d="M245.46977,192.7c4,6.6 0.8,17.3 -6.2,19.2c-5.4,1.5 -11.9,1.4 -11.5,-3.4c0.4,-4.9 7.4,-2.9 9.7,-4.1c2.4,-1.3 2.6,-9.7 2.9,-11.9c0.3,-2.3 3.6,-2.1 5.1,0.2z" data-paper-data="{&quot;index&quot;:null}" fill="#878787" fill-rule="evenodd" stroke="#001026" stroke-width="1.2" stroke-linecap="round" stroke-linejoin="round"/><g fill-rule="evenodd"><path d="M224.78334,200.96667c0.6,0.8 3.3,2 -0.2,4.2c-3.6,2.1 -12.7,5 -21.6,-2.9c-9.6,-8.6 -4.5,-20.3 -0.1,-20.7c4.3,-0.4 2.6,6.6 5.7,14.4c4.4,11.3 15.6,4.2 16.2,5z" fill="#878787" stroke="#001026" stroke-width="1.2" stroke-linecap="round" stroke-linejoin="round"/><path d="M205.68334,186.76667c0.5,4.4 1.5,7.4 1.5,7.4c0,0 -1.6,-2 -4,-1.6c-2.9,0.5 -3.8,2.9 -3.9,3.6c-0.7,-1.7 -1.3,-3.8 -1.1,-7.4c0.5,-3.5 2.7,-7.1 5.2,-6.7c2,0.4 1.9,2 2.3,4.7z" fill="#ffffff" stroke="none" stroke-width="1" stroke-linecap="butt" stroke-linejoin="miter"/></g><path d="M226.4449,192.91737c-0.53175,2.35738 -4.44264,4.53794 -4.94762,5.53543c-0.10149,0.2995 2.95576,4.87478 4.76209,7.62381c2.60084,3.853 -2.54229,8.48745 -6.4501,6.02796c-3.6083,-2.35799 -7.86791,-10.47931 -8.27824,-12.42138c-1.03797,-4.42523 7.15496,-10.58688 12.52673,-14.78095" fill="#878787" fill-rule="evenodd" stroke="#001026" stroke-width="1.2" stroke-linecap="round" stroke-linejoin="round"/><path d="M248.3198,236.3753c0,3.86599 -11.83333,3 -11.83333,3c0,0 -10.5,0.86599 -10.5,-3c0,-3.45051 2.7452,-32.89294 7.69909,-34.5825c3.83539,-1.30808 4.43187,28.24917 5.13424,28.24917c6.53537,0 9.5,2.46734 9.5,6.33333z" fill="#878787" fill-rule="nonzero" stroke="#001026" stroke-width="1.2" stroke-linecap="butt" stroke-linejoin="miter"/><path d="M242.3198,237.04197c0,3.86599 -11.83333,3 -11.83333,3c0,0 -10.5,0.86599 -10.5,-3c0,-3.45051 2.7452,-32.89294 7.69909,-34.58249c3.83539,-1.30808 4.43187,28.24916 5.13424,28.24916c6.53537,0 9.5,2.46734 9.5,6.33333z" fill="#878787" fill-rule="nonzero" stroke="#001026" stroke-width="1.2" stroke-linecap="butt" stroke-linejoin="miter"/><g fill-rule="evenodd"><path d="M228.46746,211.92774c-9.18562,-0.14169 -6.59918,-8.70522 -6.1184,-18.13437c0.22478,-5.09504 2.32496,-11.27985 8.25588,-12.7846c3.28322,-1.01509 4.71707,5.1431 6.65887,4.10414c2.93427,-1.51331 4.46287,3.07617 4.72896,5.71988c0,0 0.33245,3.94201 -0.02111,6.21687c-0.40861,2.85536 -0.99765,5.79696 -1.69222,7.12646c0,0 -1.91695,7.90424 -11.81198,7.75161z" fill="#878787" stroke="#001026" stroke-width="1.2" stroke-linecap="round" stroke-linejoin="round"/><path d="M239.54139,204.42127c0,0 -1.87085,-0.43583 -3.96129,-1.09921c-2.58071,-0.76155 -5.03204,-1.25242 -4.5644,-4.91184c0.58904,-2.9416 0.7429,-6.56186 6.05356,-5.88595c5.04397,0.58172 4.40781,3.65665 4.40781,3.65665c-0.04435,5.00879 -1.93568,8.24035 -1.93568,8.24035z" fill="#ffffff" stroke="none" stroke-width="1" stroke-linecap="butt" stroke-linejoin="miter"/></g><path d="M220.06371,195.99621l2.11464,-8.76682l4.89755,0.85834l-2.11464,8.76682z" fill="#878787" fill-rule="nonzero" stroke="#001026" stroke-width="0" stroke-linecap="butt" stroke-linejoin="miter"/><g><g fill-rule="evenodd"><g><path d="M266.94461,145.19408c0.33313,-0.13792 0.80419,0.05728 0.82459,0.46909l0.47228,11.00122c0,0 5.36527,5.85354 6.58815,9.45972c2.07083,6.01678 1.29491,10.45051 1.29491,10.45051c0,0 6.55692,3.439 6.62699,9.26353c0.07007,5.82452 -6.34377,15.56427 -25.50439,15.54239c-19.16062,-0.02188 -32.98253,-7.95756 -37.73316,-20.51946c-4.75063,-12.56191 8.87754,-23.72761 8.13359,-23.05938l1.41661,-17.967c-0.02041,-0.41181 0.52834,-0.60898 0.88188,-0.3351l10.33521,10.09968c0,0 4.74449,-0.79362 9.39383,-0.07695c2.78552,0.34764 5.10098,1.00997 7.27949,1.84907z" fill="#878787" stroke="#001026" stroke-width="1.2" stroke-linecap="butt" stroke-linejoin="miter"/><path d="M275.75258,176.90875c0,0 6.419,3.10587 6.48907,8.9304c0.07007,5.82452 -6.63904,14.9961 -25.58405,14.91497c-24.71028,0.20455 -33.19446,-16.15482 -24.56326,-25.25166c8.65062,-9.19494 18.16418,1.96536 26.52075,3.00827c7.16,0.90794 9.16838,-5.11671 17.13749,-1.60198z" fill="#ffffff" stroke="none" stroke-width="1" stroke-linecap="butt" stroke-linejoin="miter"/><path d="M293.58854,181.56153c-5.34855,2.81478 -12.43087,1.51446 -12.43087,1.51446" fill="none" stroke="#001026" stroke-width="1.2" stroke-linecap="round" stroke-linejoin="round"/><path d="M290.13798,192.29576c-6.27714,-0.73314 -9.73385,-3.35443 -9.73385,-3.35443" fill="none" stroke="#001026" stroke-width="1.2" stroke-linecap="round" stroke-linejoin="round"/><path d="M258.72768,175.88255c2.06001,0.40787 4.17927,1.03136 4.14141,1.73745c-0.17382,1.39276 -2.18908,3.84811 -3.77804,3.63544c-1.80457,-0.15341 -5.43903,-3.42155 -5.12827,-4.99108c0.13497,-1.19657 2.80298,-0.77026 4.76489,-0.38181z" fill="#001026" stroke="#001026" stroke-width="1.2" stroke-linecap="round" stroke-linejoin="round"/><path d="M214.87595,165.67101c0,0 7.8924,4.41701 10.72366,8.13776" fill="none" stroke="#001026" stroke-width="1.2" stroke-linecap="round" stroke-linejoin="round"/><path d="M225.21411,177.30039c-4.5483,0.83246 -11.59373,-1.68385 -11.59373,-1.68385" fill="none" stroke="#001026" stroke-width="1.2" stroke-linecap="round" stroke-linejoin="round"/><g><path d="M273.76042,171.00948c2.50928,0.10206 -0.1067,5.68758 -3.20299,6.90948c-3.09628,1.22189 -7.20081,-1.73155 -9.26968,-6.72853c-1.4622,-3.69307 0.90662,-0.64117 5.78986,0.51133c1.69845,0.40086 4.86213,-0.76634 6.68281,-0.69228z" fill="#ffffff" stroke="#001026" stroke-width="1.2" stroke-linecap="round" stroke-linejoin="round"/><path d="M271.67337,176.91661c-0.21365,1.07905 -1.17321,1.80653 -2.15417,1.61231c-0.98096,-0.19422 -1.59092,-1.23247 -1.37727,-2.31152c0.21365,-1.07905 1.17321,-1.80653 2.15417,-1.61231c0.98096,0.19422 1.59092,1.23247 1.37727,2.31152" fill="#001026" stroke="none" stroke-width="1" stroke-linecap="butt" stroke-linejoin="miter"/></g><g><path d="M247.70384,164.62711c2.08828,4.89889 0.84328,10.15721 -2.17433,11.49662c-3.60619,1.22288 -7.65048,-1.00505 -9.73876,-5.90394c-2.18638,-4.91831 -0.37444,-0.94064 3.09383,-2.49665c3.48768,-1.6541 6.73099,-7.99492 8.81927,-3.09604z" fill="#ffffff" stroke="#001026" stroke-width="1.2" stroke-linecap="round" stroke-linejoin="round"/><path d="M247.75891,172.84429c-0.21365,1.07905 -1.17321,1.80653 -2.15417,1.61231c-0.98096,-0.19422 -1.59092,-1.23247 -1.37727,-2.31152c0.21365,-1.07905 1.17321,-1.80653 2.15417,-1.61231c0.96153,0.29232 1.59092,1.23247 1.37727,2.31152" fill="#001026" stroke="none" stroke-width="1" stroke-linecap="butt" stroke-linejoin="miter"/></g></g></g><path d="M255.5547,198.92491c-0.85814,4.33414 -3.47525,7.46722 -5.84548,6.99792c-2.37023,-0.46929 -3.59603,-4.36325 -2.73789,-8.69739c0.85814,-4.33414 3.47525,-7.46722 5.84548,-6.99792c2.37023,0.46929 3.59603,4.36325 2.73789,8.69739z" fill="#000000" fill-rule="nonzero" stroke="#001026" stroke-width="1.2" stroke-linecap="butt" stroke-linejoin="miter"/></g></g></g></svg>