<svg version="1.1" xmlns="http://www.w3.org/2000/svg" xmlns:xlink="http://www.w3.org/1999/xlink" width="154.55407" height="155.85715" viewBox="0,0,154.55407,155.85715"><defs><linearGradient x1="245.44926" y1="217.27916" x2="230.88971" y2="228.85411" gradientUnits="userSpaceOnUse" id="color-1"><stop offset="0" stop-color="#ffffff"/><stop offset="1" stop-color="#9f9f9f"/></linearGradient><radialGradient cx="239.3961" cy="155.9775" r="8.13758" gradientUnits="userSpaceOnUse" id="color-2"><stop offset="0" stop-color="#ffffff"/><stop offset="1" stop-color="#1a1a1a"/></radialGradient><radialGradient cx="223.37531" cy="171.21542" r="6.75889" gradientUnits="userSpaceOnUse" id="color-3"><stop offset="0" stop-color="#ffffff"/><stop offset="1" stop-color="#1a1a1a"/></radialGradient><linearGradient x1="318.96018" y1="113.15767" x2="322.13078" y2="124.31595" gradientUnits="userSpaceOnUse" id="color-4"><stop offset="0" stop-color="#ffce72"/><stop offset="1" stop-color="#ff4400"/></linearGradient><linearGradient x1="300.61118" y1="98.34331" x2="300.61118" y2="158.67419" gradientUnits="userSpaceOnUse" id="color-5"><stop offset="0" stop-color="#979797"/><stop offset="1" stop-color="#030303"/></linearGradient><linearGradient x1="278.00552" y1="112.31342" x2="271.13953" y2="121.66319" gradientUnits="userSpaceOnUse" id="color-6"><stop offset="0" stop-color="#ffce72"/><stop offset="1" stop-color="#ff4400"/></linearGradient></defs><g transform="translate(-189.59943,-84.86773)"><g data-paper-data="{&quot;isPaintingLayer&quot;:true}" stroke-miterlimit="10" stroke-dasharray="" stroke-dashoffset="0" style="mix-blend-mode: normal"><path d="M237.36846,214.46497c0,9.04367 0.28757,16.125 -4.5,16.375c-6.77833,0.35396 -4.75,-7.33133 -4.75,-16.375c0,-9.04367 1.46243,-17.875 4.5,-17.875c3.03757,0 4.75,8.83133 4.75,17.875z" fill="#717171" fill-rule="nonzero" stroke="#001026" stroke-width="1.2" stroke-linecap="butt" stroke-linejoin="miter"/><g fill-rule="nonzero" stroke="#001026" stroke-width="1.2" stroke-linejoin="miter"><g><g><path d="M240.13227,219.58992l8.45394,-6.72093l1.61801,2.0352l-8.45395,6.72094z" fill="#2c2c2c" stroke-linecap="butt"/><path d="M231.17481,226.92289l1.45118,1.91157l-12.15079,8.47102z" fill="#6c6c6c" stroke-linecap="butt"/><path d="M228.58717,225.95786l14.55955,-11.57495l4.60509,5.7925l-14.55955,11.57497z" fill="url(#color-1)" stroke-linecap="butt"/><path d="M243.19528,218.94335l-2.08376,-2.94245" fill="none" stroke-linecap="round"/><path d="M238.69901,218.42987l1.83483,2.62932" fill="none" stroke-linecap="round"/><path d="M236.69589,219.76685l1.42936,2.44069" fill="none" stroke-linecap="round"/><path d="M233.97029,222.44474l1.36907,1.72209" fill="none" stroke-linecap="round"/><path d="M232.77032,226.72025l-1.39727,-2.72169" fill="none" stroke-linecap="round"/></g><path d="M246.18542,211.45609l2.19176,-1.74246l4.72955,5.94906l-2.19176,1.74248z" fill="#2c2c2c" stroke-linecap="butt"/></g><path d="M237.98671,221.55118c-2.29127,1.82157 -4.95668,2.28191 -5.95338,1.0282c-0.9967,-1.25371 0.05274,-3.74671 2.344,-5.56827c2.29127,-1.82157 4.95668,-2.2819 5.95338,-1.0282c0.9967,1.25371 -0.05274,3.74672 -2.344,5.56828z" fill="#717171" stroke-linecap="butt"/><path d="M245.11703,228.91314c-3.50173,2.78391 -7.76141,3.25335 -9.51424,1.04857c-1.75283,-2.20479 -0.33507,-6.24892 3.16666,-9.03284c3.50173,-2.78391 7.7614,-3.25337 9.51424,-1.04859c1.75283,2.20479 0.33506,6.24893 -3.16666,9.03285z" fill="#717171" stroke-linecap="butt"/></g><g fill-rule="evenodd"><path d="M225.12117,212.48415c0.90838,0.41814 3.85413,0.18888 1.82252,3.78924c-2.16713,3.55999 -8.79111,10.44062 -20.37801,7.72702c-12.53566,-2.99621 -13.61706,-15.71355 -9.9374,-18.15898c3.5917,-2.39783 5.42721,4.56786 11.86518,9.95326c9.24675,7.84524 15.71931,-3.7287 16.62769,-3.31055z" fill="#717171" stroke="#001026" stroke-width="1.2" stroke-linecap="round" stroke-linejoin="round"/><path d="M201.56527,209.08277c2.53337,3.63209 4.84036,5.7949 4.84036,5.7949c0,0 -2.35889,-0.99777 -4.27948,0.49601c-2.31277,1.81964 -1.9624,4.35879 -1.71728,5.02205c-1.42458,-1.16216 -2.95153,-2.72371 -4.48856,-5.98522c-1.22559,-3.3163 -1.00355,-7.52946 1.38565,-8.3672c1.94941,-0.59982 2.62277,0.85503 4.25931,3.03947z" fill="#ffffff" stroke="none" stroke-width="1" stroke-linecap="butt" stroke-linejoin="miter"/></g><path d="M248.3198,236.37531c0,3.86599 -11.83333,3 -11.83333,3c0,0 -10.5,0.86599 -10.5,-3c0,-3.45051 2.7452,-32.89294 7.69909,-34.5825c3.83539,-1.30808 4.43187,28.24917 5.13424,28.24917c6.53537,0 9.5,2.46734 9.5,6.33333z" fill="#717171" fill-rule="nonzero" stroke="#001026" stroke-width="1.2" stroke-linecap="butt" stroke-linejoin="miter"/><path d="M242.3198,237.04198c0,3.86599 -11.83333,3 -11.83333,3c0,0 -10.5,0.86599 -10.5,-3c0,-3.45051 2.7452,-32.89294 7.69909,-34.58249c3.83539,-1.30808 4.43187,28.24916 5.13424,28.24916c6.53537,0 9.5,2.46734 9.5,6.33333z" fill="#717171" fill-rule="nonzero" stroke="#001026" stroke-width="1.2" stroke-linecap="butt" stroke-linejoin="miter"/><g fill-rule="evenodd"><path d="M230.32745,217.57533c-7.99273,4.52901 -10.09858,-4.16518 -14.45851,-12.5396c-2.38607,-4.50738 -3.70677,-10.90415 0.64566,-15.20488c2.31719,-2.53782 6.67189,2.04649 7.82027,0.16733c1.76401,-2.79074 5.40608,0.39284 6.9742,2.53783c0,0 2.28274,3.23095 3.12976,5.37165c1.09348,2.66914 2.07503,5.50403 2.14929,7.00219c0,0 2.34934,7.78668 -6.26066,12.66547z" fill="#717171" stroke="#001026" stroke-width="1.2" stroke-linecap="round" stroke-linejoin="round"/><path d="M236.0758,205.49496c0,0 -1.83397,0.57149 -3.97251,1.05795c-2.61102,0.65006 -4.97342,1.46802 -6.42314,-1.92437c-0.98156,-2.83488 -2.68204,-6.03462 2.23972,-8.14086c4.64408,-2.05242 5.65254,0.92129 5.65254,0.92129c2.498,4.34166 2.50339,8.086 2.50339,8.086z" fill="#ffffff" stroke="none" stroke-width="1" stroke-linecap="butt" stroke-linejoin="miter"/></g><g><g><path d="M219.60408,136.55317c0.12986,-0.33637 0.59608,-0.54286 0.90837,-0.27363l8.29234,7.2448c0,0 7.93896,0.15149 11.39374,1.75288c5.78522,2.64977 8.46084,6.2693 8.46084,6.2693c0,0 7.01226,-2.37659 11.27847,1.58945c4.2662,3.96605 6.89613,15.32753 -6.33353,29.18777c-13.22965,13.86023 -28.50839,18.39679 -40.8814,13.17389c-12.37302,-5.2229 -11.0603,-22.7921 -11.08945,-21.79253l-12.03402,-13.4165c-0.31228,-0.26922 -0.07664,-0.80257 0.36551,-0.86971l14.44127,-0.51925c0,0 2.69726,-3.98307 6.42258,-6.85569c2.17273,-1.77742 4.24918,-2.9974 6.3592,-3.99632z" fill="#717171" fill-rule="evenodd" stroke="#001026" stroke-width="1.2" stroke-linecap="butt" stroke-linejoin="miter"/><path d="M242.45003,154.75775c2.34783,3.32834 -0.73359,9.54275 -6.88254,13.88027c-6.14896,4.33751 -13.03698,5.15563 -15.38481,1.8273c-2.34783,-3.32834 0.73359,-9.54274 6.88254,-13.88026c6.14896,-4.33751 13.03698,-5.15564 15.38481,-1.82731z" fill="#000000" fill-rule="nonzero" stroke="none" stroke-width="NaN" stroke-linecap="butt" stroke-linejoin="miter"/><path d="M248.6448,152.04631c0,0 6.6759,-2.50645 10.9421,1.4596c4.2662,3.96605 6.28106,15.14953 -6.84282,28.81277c-16.89292,18.03522 -34.59066,12.89714 -35.22585,0.3733c-0.69284,-12.60556 13.94987,-11.79837 20.46807,-17.13064c5.59527,-4.55883 2.61751,-10.16802 10.65851,-13.51504z" fill="#ffffff" fill-rule="evenodd" stroke="none" stroke-width="1" stroke-linecap="butt" stroke-linejoin="miter"/><path d="M264.31444,142.33896c-1.65019,5.81437 -7.47603,10.04634 -7.47603,10.04634" fill="none" fill-rule="evenodd" stroke="#001026" stroke-width="1.2" stroke-linecap="round" stroke-linejoin="round"/><path d="M269.7081,152.2404c-4.85984,4.04004 -9.14194,4.73552 -9.14194,4.73552" fill="none" fill-rule="evenodd" stroke="#001026" stroke-width="1.2" stroke-linecap="round" stroke-linejoin="round"/><path d="M236.16075,163.66733c1.71602,-1.21049 3.62903,-2.3152 4.11425,-1.80084c0.8887,1.08637 1.27697,4.23902 0.02719,5.24302c-1.35559,1.201 -6.22868,1.5791 -7.15096,0.27167c-0.77343,-0.92294 1.37524,-2.561 3.00953,-3.71385z" fill="#001026" fill-rule="evenodd" stroke="#001026" stroke-width="1.2" stroke-linecap="round" stroke-linejoin="round"/><path d="M198.52433,188.38071c0,0 8.64148,-2.66922 13.28843,-2.15355" fill="none" fill-rule="evenodd" stroke="#001026" stroke-width="1.2" stroke-linecap="round" stroke-linejoin="round"/><path d="M214.07538,188.91426c-2.53383,3.86777 -9.2148,7.23445 -9.2148,7.23445" fill="none" fill-rule="evenodd" stroke="#001026" stroke-width="1.2" stroke-linecap="round" stroke-linejoin="round"/><path d="M242.65245,149.88773c4.96364,2.00555 4.39163,3.5325 3.14118,6.61736c-1.25046,3.08486 -6.21984,4.0204 -11.2652,2.0725c-2.57066,-1.03008 -7.25625,-3.37229 -5.81701,-3.73475c16.36433,-4.12128 12.29978,-5.44915 13.24316,-5.16455c0.23272,0.07021 0.47133,0.11787 0.69789,0.20943z" fill="url(#color-2)" fill-rule="evenodd" stroke="#001026" stroke-width="1.2" stroke-linecap="round" stroke-linejoin="round"/><path d="M220.4076,163.88821c4.98772,1.86618 7.93697,6.39408 6.82589,9.50302c-1.60139,3.45479 -6.00385,4.84704 -10.99156,2.98086c6.88187,-5.51503 -0.82203,-14.35006 4.16567,-12.48387z" fill="url(#color-3)" fill-rule="evenodd" stroke="#001026" stroke-width="1.2" stroke-linecap="round" stroke-linejoin="round"/><path d="M244.32952,176.07161c1.55195,2.20009 -0.92153,23.84806 -6.44995,27.74786c-5.52842,3.8998 -12.01828,-11.42538 -13.57024,-13.62547c-1.55195,-2.20009 2.0421,-0.98159 7.57051,-4.88138c5.52842,-3.8998 10.89771,-11.4411 12.44966,-9.24101z" fill="#000000" fill-rule="nonzero" stroke="#001026" stroke-width="1.2" stroke-linecap="butt" stroke-linejoin="miter"/></g><path d="M224.81976,175.65585c0.02856,0.00977 0.05828,0.02329 0.08917,0.0408c0.09534,-0.0992 0.18815,-0.2106 0.27821,-0.33581c0.0959,-0.06857 0.19289,-0.13699 0.29018,-0.20572c0.27274,-0.38819 0.52146,-0.76914 0.6685,-0.93904c0.14982,-0.23122 0.36123,-0.40955 0.57657,-0.56767c-0.1256,-0.34348 -0.15075,-0.69323 0.17531,-1.05548c0.18407,-0.2045 0.38081,-0.34062 0.57254,-0.41442c0.01814,-0.14436 0.03978,-0.28431 0.06822,-0.41176c-0.23495,-1.10211 -0.88976,-2.5001 -1.0506,-3.04801l-0.15158,-0.21488c-0.07958,-0.11282 -0.05265,-0.2688 0.06018,-0.34839c0.11282,-0.07958 0.2688,-0.05264 0.3484,0.06018l0.16925,0.23992l-0.05164,0.03642c0.00566,0.0048 0.01131,0.00962 0.01695,0.01447l0.05512,-0.01631c0.00912,0.02926 0.01886,0.05948 0.02919,0.09055c1.41672,1.28034 2.49687,3.91089 3.24972,5.96054c1.12509,1.74268 2.4741,4.18354 2.62185,5.9852l0.05128,-0.01495l0.08275,0.28372c0.03207,0.10109 -0.00299,0.21547 -0.09428,0.27986c-0.11282,0.07958 -0.2688,0.05264 -0.3484,-0.06019c-0.00047,-0.00068 -0.00093,-0.00133 -0.0014,-0.00201l-0.28456,-0.41072l0.00698,-0.00484l-0.02086,-0.01761c-0.61381,-1.463 -1.321,-2.84786 -1.92115,-4.30726c-0.25127,-0.69224 -0.53211,-1.32085 -0.8317,-1.91979c-0.14323,-0.23037 -0.29246,-0.45693 -0.44892,-0.67873c-0.17837,-0.25395 -0.31689,-0.52774 -0.45267,-0.80335c0.02762,0.22044 0.00325,0.4846 -0.08976,0.78672c-0.2728,1.39146 -1.15792,2.1142 -1.92269,2.88196l0.03637,0.1527c0.02577,0.09803 -0.01005,0.20603 -0.09774,0.26788c-0.09853,0.0695 -0.22999,0.05777 -0.31472,-0.02149c-0.44037,0.50373 -0.7845,1.07283 -0.85202,1.88303l0.03202,0.4806c0.00715,0.08546 -0.02989,0.17237 -0.10503,0.22538c-0.105,0.07407 -0.24738,0.05587 -0.33077,-0.03796l-0.27321,-0.2984l0.05621,-0.05146c-0.44301,-0.43955 -0.62205,-0.88947 -0.6156,-1.33539c-0.03403,-0.01556 -0.06904,-0.03116 -0.10495,-0.04671c0.40592,2.16968 2.21964,3.78199 2.92694,5.7745c0.0353,0.06304 0.07054,0.12645 0.10588,0.19028l0.16341,0.23164c0.07958,0.11282 0.05264,0.2688 -0.06018,0.3484c-0.11282,0.07958 -0.2688,0.05264 -0.3484,-0.06018l-0.16925,-0.23992l0.00523,-0.00369l-0.01269,-0.00752c-0.02871,-0.05166 -0.05729,-0.10304 -0.08588,-0.15418c-0.37324,-0.25678 -0.76994,-1.05612 -0.97859,-1.35419c-0.37807,-0.54011 -0.81618,-1.27688 -1.19386,-2.06544c-0.3778,-0.60674 -0.76038,-1.21461 -1.15848,-1.79178l-0.00534,0.08118c-0.00423,0.07346 -0.04071,0.14437 -0.1055,0.19007c-0.11282,0.07958 -0.2688,0.05264 -0.34839,-0.06018c-0.0242,-0.03431 -0.03856,-0.07261 -0.04364,-0.11154l-0.06496,-0.42777l0.01482,-0.00226c-0.06122,-0.14781 -0.11449,-0.29841 -0.15431,-0.453c-0.0017,-0.0066 -0.00339,-0.01361 -0.00508,-0.021c-0.28275,0.02004 -0.56372,0.04438 -0.83712,0.08101c-0.00117,0.00467 -0.00231,0.00936 -0.00342,0.01411c-0.01049,0.04512 -0.0169,0.09246 -0.01988,0.14162c0.19889,0.54477 0.39011,1.08114 0.50418,1.64248l0.05649,-0.01973l0.16306,0.46681c0.03898,0.10393 0.00483,0.22498 -0.09009,0.29193c-0.06606,0.0466 -0.14691,0.05668 -0.21856,0.03438c-0.11264,0.07771 -0.26712,0.0504 -0.34621,-0.0617l-0.22567,-0.31992l0.06357,-0.04484c-0.45639,-0.50551 -0.59525,-1.01505 -0.51261,-1.46478c-0.03393,-0.18356 -0.0585,-0.36904 -0.07161,-0.54937c-0.0531,0.01342 -0.10564,0.02768 -0.15758,0.04284c-0.27971,-0.05003 -0.54569,-0.19594 -0.76428,-0.37747l-0.00545,-0.00865l-0.0017,0.00167l-0.34814,-0.35228c-0.01078,-0.01053 -0.02078,-0.0222 -0.02979,-0.03497c-0.07958,-0.11282 -0.05264,-0.2688 0.06018,-0.3484c0.10253,-0.07233 0.24071,-0.05666 0.3248,0.03148l0.23528,0.23807c0.07636,0.01273 0.15023,0.02202 0.22177,0.02809c0.00122,-0.07714 0.03801,-0.15266 0.10588,-0.20052l0.31992,-0.22567l0.00833,0.01181l0.02626,-0.03226c0.2251,-0.07009 0.45049,-0.11719 0.67476,-0.15125c0.17153,-0.06796 0.35018,-0.09756 0.50644,-0.05924c0.06074,-0.00549 0.12133,-0.01057 0.18174,-0.01543c0.59626,-0.47715 1.16545,-1.0299 2.19251,-1.03057c0.13446,-0.00009 0.24433,0.03912 0.3345,0.10573zM227.17521,174.89763c-0.01037,0.01329 -0.0208,0.02654 -0.03131,0.03972c0.01966,-0.00884 0.03055,-0.01621 0.0308,-0.02231c0.00023,-0.0058 0.00039,-0.01161 0.0005,-0.01741zM228.14836,171.94221c-0.04568,-0.08032 -0.09142,-0.16097 -0.13723,-0.24203c0.02841,0.14858 0.05011,0.29452 0.06343,0.43621c0.06072,0.0253 0.11309,0.05129 0.15779,0.07784c-0.00536,-0.00922 -0.01077,-0.01845 -0.01619,-0.02764c-0.03265,-0.0553 -0.05161,-0.14967 -0.06782,-0.24439zM228.09768,172.99886c-0.03292,0.02663 -0.06684,0.05291 -0.10119,0.0788c-0.03149,0.09235 -0.0716,0.17915 -0.12133,0.25945c-0.00132,0.00213 -0.00265,0.00427 -0.00401,0.00637l0.03672,-0.02591c0.04773,-0.03366 0.10316,-0.04827 0.15728,-0.04536c0.02012,-0.10146 0.03058,-0.19261 0.03254,-0.27335zM227.09477,173.38372c0.00107,-0.00079 0.00216,-0.00157 0.00323,-0.00236c0.08446,-0.11304 0.1805,-0.22343 0.27622,-0.32467c0.01359,-0.09927 0.02524,-0.20594 0.03647,-0.31622c-0.07643,0.07046 -0.15491,0.1593 -0.23301,0.26672c-0.07999,0.11002 -0.09975,0.23748 -0.08292,0.37655zM224.77623,177.04783c-0.02218,0.01693 -0.04453,0.03352 -0.06692,0.04973c0.01489,0.03903 0.03091,0.07839 0.04776,0.11806l0.02399,-0.1389c-0.00159,-0.00973 -0.0032,-0.01936 -0.00483,-0.02889zM227.5794,174.70461c0.10549,-0.18724 0.19839,-0.39006 0.27437,-0.61327c-0.03861,0.05301 -0.07977,0.10285 -0.12346,0.14709c0.01375,0.07832 -0.01054,0.16051 -0.06807,0.21881l-0.11623,0.12252c0.01291,0.04188 0.02418,0.08354 0.0334,0.12485zM223.49311,177.93106c-0.00951,-0.05941 -0.01781,-0.11818 -0.02482,-0.17621c-0.03368,0.00254 -0.06744,0.00502 -0.10127,0.00742c0.04208,0.05512 0.0841,0.11144 0.12609,0.1688zM225.11481,177.70002c0.00095,-0.00206 0.0019,-0.00412 0.00285,-0.00618c-0.00137,0.00108 -0.00276,0.00216 -0.00415,0.00324zM227.09328,175.39031c-0.15702,0.03724 -0.32734,0.08381 -0.4515,0.14145c-0.01808,0.14771 -0.04382,0.28529 -0.07667,0.4135c0.18103,-0.17679 0.36009,-0.35846 0.52816,-0.55494zM223.71211,176.9148c0.03555,0.0306 0.07214,0.06579 0.1098,0.10587c0.05323,-0.05145 0.10883,-0.10282 0.16649,-0.15351c-0.09148,0.01646 -0.18365,0.0322 -0.27629,0.04763zM224.45201,177.39287c0.00482,-0.00029 0.00964,-0.00058 0.01445,-0.00087c-0.00553,-0.01289 -0.01091,-0.02593 -0.01617,-0.03909c-0.0003,0.01254 0.00029,0.02587 0.00173,0.03996zM224.88062,178.44531c0.00917,-0.04959 0.01928,-0.09822 0.03033,-0.1459c-0.02117,-0.00848 -0.0413,-0.01989 -0.05971,-0.03412l-0.07336,-0.05403c0.03584,0.07823 0.07084,0.15683 0.10277,0.23406z" fill="#000000" fill-rule="nonzero" stroke="none" stroke-width="0.5" stroke-linecap="butt" stroke-linejoin="miter"/><path d="M247.14921,158.17804c0.01858,-0.11938 0.03194,-0.2455 0.04028,-0.37566c-0.02542,0.1023 -0.04676,0.19632 -0.06203,0.27905c0.00716,0.03233 0.0144,0.06453 0.02175,0.09661zM247.56934,156.31659c0.21141,0.98408 0.23269,2.20685 -0.18129,2.71861c0.00842,0.04099 0.01674,0.08165 0.02499,0.12198c0.52641,1.68689 1.33045,3.01504 2.30759,4.3719c0.73938,0.62187 1.55838,1.2304 1.83029,2.10318l0.08366,-0.02521l0.08761,0.29082c0.03322,0.1016 -0.00171,0.21708 -0.09361,0.28191c-0.08155,0.05753 -0.18565,0.0594 -0.26716,0.0134l-0.38085,-0.20452l0.00746,-0.01388l-0.04978,-0.01477c-0.90416,-1.11087 -1.71929,-2.14252 -2.40527,-3.22604c-0.76575,-0.91972 -1.30398,-1.83357 -1.55481,-3.28946c-0.13575,-0.4303 -0.25311,-0.87987 -0.35062,-1.35352c0.03216,-0.19732 0.11524,-0.49615 0.20605,-0.82175c-0.20804,0.45411 -0.73668,0.7089 -1.28473,0.9032c-0.21732,0.28162 -0.44032,0.50932 -0.65813,0.66298c-0.23977,0.16913 -0.53212,0.32214 -0.83102,0.47723c0.12363,0.19189 0.36769,0.42661 0.7688,0.72106c0.32926,0.2417 0.54476,0.497 0.93031,0.64835c1.45298,0.95571 4.52057,5.10253 4.33051,7.22966l0.11695,0.02021l-0.04712,0.2728v0v0c-0.01089,0.06304 -0.04584,0.12193 -0.10225,0.16174c-0.11282,0.07958 -0.2688,0.05264 -0.3484,-0.06018l-0.22567,-0.31992c-0.37418,-0.53419 -0.82736,-1.00309 -1.20833,-1.54314c-1.05338,-1.52439 -1.63254,-3.56329 -2.90301,-4.96994c-0.29049,-0.32164 -0.67459,-0.52743 -1.03656,-0.7577c0.01605,0.11016 0.03024,0.22027 0.04277,0.32903c0.37789,0.70225 0.81082,1.62312 1.14665,2.52723c0.38965,0.59089 0.67854,1.17402 0.70708,1.72744c0.01732,0.65681 1.70809,4.85807 0.89616,4.8125c-0.52802,-0.02963 -1.35784,-3.16563 -1.62049,-3.58984c-0.0867,-0.28374 -0.18176,-0.59334 -0.28682,-0.91845c-0.6184,-0.69767 -1.56198,-1.69456 -1.5717,-2.0716c-0.01026,-0.39781 0.11514,-0.77678 0.20181,-1.1861c-0.36249,-0.62021 -0.78296,-1.17306 -1.27356,-1.58157c-0.23842,0.05654 -0.57468,-0.01333 -1.00997,-0.31125c-0.04793,0.02722 -0.09558,0.05588 -0.14298,0.08604l-0.09062,-0.03743l-0.00689,0.0399l-0.27279,-0.04712c-0.06304,-0.01089 -0.12193,-0.04584 -0.16174,-0.10225c-0.07958,-0.11282 -0.05264,-0.2688 0.06018,-0.34839l0.23992,-0.16925l0.01096,0.01555c0.00692,-0.01021 0.01481,-0.02052 0.02377,-0.03091c0.03422,-0.03969 0.06958,-0.06389 0.10412,-0.07734c1.57753,-1.49248 3.75471,-1.70296 4.77322,-4.2994c0.05102,-0.06929 0.09732,-0.13639 0.13924,-0.20151c-0.18138,-0.45381 -0.40143,-0.94327 -0.31755,-1.28462c0.10818,-0.44025 0.24352,-0.81529 0.4016,-1.12529c-0.00842,-0.05417 -0.01539,-0.10962 -0.02047,-0.16654c-0.22738,-0.1381 -0.32516,-0.32884 -0.18016,-0.59473c0.04086,-0.07493 0.09436,-0.12941 0.15855,-0.16593l-0.02919,-0.09688c-0.03322,-0.1016 0.0017,-0.21708 0.0936,-0.28191c0.11282,-0.07958 0.2688,-0.05264 0.3484,0.06019l0.16925,0.23992l-0.06893,0.04861l0.00323,0.01074c0.07359,0.01966 0.15082,0.04621 0.23091,0.07866c0.80642,-0.55851 1.86891,-0.15114 2.93557,1.21288c0.49795,0.6962 0.97677,1.40037 1.44772,2.10835c1.53807,1.36559 3.23018,3.17382 3.4058,4.87272l0.1129,-0.00629l0.0276,0.49491c0.00611,0.08455 -0.03094,0.17011 -0.10526,0.22253c-0.11282,0.07958 -0.2688,0.05264 -0.3484,-0.06018l-0.16925,-0.23992c-1.04024,-1.47467 -1.99935,-2.97609 -2.98077,-4.46517c-0.52497,-0.59843 -1.0977,-1.16729 -1.75199,-1.68446c-0.23913,-0.16544 -1.42374,-0.88537 -2.24414,-1.44624c-0.06787,0.024 -0.13329,0.05185 -0.19529,0.08416c0.05188,0.50758 0.00388,1.07862 -0.11585,1.661c0.25105,0.25459 0.52604,0.51629 0.57425,0.76237c0.03855,0.19676 0.00699,0.48143 -0.05612,0.79685zM246.01071,161.49829c1.07613,1.40979 1.74578,3.37802 2.67239,4.65673c0.2004,0.28411 0.41883,0.5479 0.63597,0.81166c-0.11981,-0.40488 -0.21285,-0.81794 -0.28018,-0.96696c-0.5755,-1.27357 -1.82681,-3.42525 -3.02817,-4.50144zM243.85615,161.29385c-0.14221,-0.36652 -0.2867,-0.67485 -0.43848,-0.88679l-0.12601,-0.17865c0.11834,0.34309 0.32018,0.70011 0.56448,1.06543zM244.63408,163.97041c-0.10636,-0.26228 -0.21987,-0.52399 -0.34126,-0.78064c-0.07477,0.24438 -0.14359,0.45872 -0.13941,0.46079c0.17406,0.0861 0.33304,0.19468 0.48067,0.31984zM243.5009,159.61148c-0.02714,0.01549 -0.0541,0.0311 -0.0808,0.04684c-0.0154,0.012 -0.03081,0.02391 -0.0462,0.03566c0.03176,-0.00283 0.06373,0.00046 0.09412,0.00952l0.07465,0.0216c-0.01272,-0.0332 -0.02683,-0.07193 -0.04177,-0.11364zM246.91873,156.96205c0.0612,-0.22406 0.1199,-0.44979 0.1632,-0.65478c-0.04864,-0.22592 -0.11166,-0.43203 -0.18784,-0.60202c0.07924,0.25291 0.09788,0.49014 -0.03307,0.69254c0.06062,0.21196 0.07701,0.39875 0.05772,0.56426zM248.7505,153.11375c0.54924,0.43439 1.00513,0.84115 1.154,0.9432c0.03417,0.02752 0.06891,0.05555 0.1042,0.08407c-0.14556,-0.20926 -0.29253,-0.41791 -0.44118,-0.62586c-0.08665,-0.11146 -0.17168,-0.21626 -0.25514,-0.31431c-0.0026,0.00198 -0.00526,0.00394 -0.00796,0.00586c-0.07203,0.0508 -0.16167,0.0582 -0.23775,0.02753l-0.30886,-0.11925c-0.00234,-0.00044 -0.00478,-0.00085 -0.00733,-0.00125zM246.20693,157.12091c0.10103,-0.12152 0.17009,-0.25456 0.19568,-0.40235c-0.06282,0.13752 -0.12821,0.27193 -0.19568,0.40235zM245.88184,156.88707c-0.18767,0.27941 -0.40505,0.58037 -0.64278,0.8841c0.03466,-0.01634 0.06906,-0.03284 0.10314,-0.0495c0.20362,-0.25269 0.38456,-0.53465 0.53965,-0.83459zM246.49023,154.73107c0.00229,0.00646 0.00459,0.01291 0.00695,0.01936c0.00028,-0.00363 0.00055,-0.00726 0.00082,-0.0109c-0.0026,-0.00281 -0.00518,-0.00563 -0.00777,-0.00846zM247.62547,152.31113c0.12901,-0.05668 0.25953,-0.09669 0.38887,-0.11691c-0.18632,-0.04683 -0.36112,-0.03544 -0.52493,0.03626c0.04501,0.02585 0.0904,0.05279 0.13607,0.08065z" fill="#000000" fill-rule="nonzero" stroke="none" stroke-width="0.5" stroke-linecap="butt" stroke-linejoin="miter"/></g><path d="M221.36846,215.46497c0,9.04367 0.28757,16.125 -4.5,16.375c-6.77833,0.35396 -4.75,-7.33133 -4.75,-16.375c0,-9.04367 1.46243,-17.875 4.5,-17.875c3.03757,0 4.75,8.83133 4.75,17.875z" fill="#717171" fill-rule="nonzero" stroke="#001026" stroke-width="1.2" stroke-linecap="butt" stroke-linejoin="miter"/><g><path d="M249.23765,137.76857c0,0 -0.05361,0.24418 -0.29779,0.19058c-0.24418,-0.0536 -0.19058,-0.29779 -0.19058,-0.29779c0.14194,-0.64663 0.28388,-1.29326 0.42582,-1.93989c-0.01031,-0.41496 -0.01472,-0.82611 -0.01496,-1.23116l-0.00002,-0.35868c0,0 -0.00001,-0.25 0.24999,-0.25001c0.07092,0 0.12172,0.02012 0.15812,0.04894c0.37024,-1.68663 0.74048,-3.37327 1.11071,-5.0599c0.75043,-3.4186 1.50085,-6.83721 2.25127,-10.25581c0.46692,-2.12709 -0.17829,-8.26755 -1.40643,-10.09837c-0.6344,-0.9718 -1.5055,-1.83687 -2.10661,-2.61145c-1.38727,-1.78762 2.87981,-4.53503 3.9844,-5.53708c2.18403,-1.98129 6.62252,-3.96023 9.50006,-4.61207c3.41352,-0.77326 6.82703,-1.54651 10.24054,-2.31976c3.41352,-0.77326 6.82702,-1.54651 10.24054,-2.31977c3.41447,-0.77347 6.83193,-1.5299 10.25295,-2.27384c3.42007,-0.74374 6.84014,-1.48747 10.2602,-2.2312c2.81567,-0.6123 7.84004,-2.80868 10.21646,-1.11423c2.87839,2.05237 5.62867,4.0246 8.85607,5.48103c1.01846,0.45959 3.36034,1.43443 3.95588,2.41889c0.92265,1.52519 -0.00534,4.48772 -0.21029,6.11008c-0.12309,0.97408 -0.60652,2.44128 -0.44047,3.39831c0.33773,1.94663 2.2405,4.39449 3.14227,6.17298c1.65459,3.26323 2.90147,6.15792 3.72588,9.72811c1.30712,1.39619 2.85818,2.97456 3.87935,4.20647c0.62856,0.75828 0.41264,3.62042 0.51331,4.6176c0.33139,3.28269 -0.92868,6.97869 -1.26707,10.35557c-0.02361,3.41943 -0.37251,7.05128 0.24123,10.41741c0.60005,3.2911 2.83444,6.39631 3.7685,9.65087c0.40841,1.42302 1.11324,4.69351 0.44261,6.1168c-0.55719,1.18255 -2.78021,2.093 -3.87119,2.63669c-3.5179,0.19527 -7.03837,0.14868 -10.56063,0.15302c-3.52868,0.00435 -6.97499,-0.40499 -10.46901,-0.48812c-3.55915,-0.02095 -6.83293,1.01075 -10.2195,1.96951c-1.21242,0.01693 -2.42491,0.02241 -3.63742,0.02376l-0.20027,0.09786c-2.24424,1.09644 -4.55192,2.05868 -6.86918,2.98761c-2.75427,1.82925 -6.3195,3.26325 -9.48703,4.42608c-2.78878,1.02313 -6.25064,3.60865 -8.30009,5.91545c-1.02722,1.1562 -0.92832,2.32895 -1.64358,3.47271c-0.87406,1.39769 -4.32705,2.51868 -5.77468,3.25072c-1.28034,0.64745 -2.43389,2.08135 -3.79965,2.46116c-1.91595,0.53281 -4.07595,0.30636 -6.04123,0.30835c-3.57033,0.0668 -6.82443,0.59616 -10.27327,1.52731c-3.02019,0.80863 -7.35672,1.13456 -10.49156,1.13354c-1.74216,-0.00259 -3.91562,0.26871 -5.558,-0.43177c-1.46305,-0.624 -4.19377,-3.06639 -1.03794,-3.06687c3.60358,-0.00535 6.78945,-0.27866 8.792,-3.36687c0.83883,-1.59294 2.44861,-3.24707 4.2579,-4.18739c0.00494,-0.00793 0.00822,-0.0123 0.00822,-0.0123c1.80907,-2.41209 3.03211,-5.04602 3.53159,-8.02933c0.54464,-3.22594 0.08507,-6.84022 0.08507,-10.2934c0.01998,-3.50836 2.30083,-6.41767 2.33234,-10.07909c0.00312,-3.49776 0.17904,-6.92913 -0.64598,-10.34381c-0.96978,-1.96604 -1.40167,-4.29337 -1.57793,-6.60828c-0.0103,0.04694 -0.02061,0.0939 -0.03092,0.14084z" fill="#000000" fill-rule="nonzero" stroke="none" stroke-width="0.5" stroke-linecap="butt" stroke-linejoin="miter"/><g><path d="M318.96018,113.15767c8.06376,-2.2913 15.98214,-9.53131 15.98214,-9.53131c0,0 -4.74777,18.39829 -12.81153,20.68959c-8.06376,2.2913 -8.38467,-0.31705 -9.26021,-3.39833c-0.87554,-3.08128 -1.97416,-5.46865 6.0896,-7.75995z" data-paper-data="{&quot;index&quot;:null}" fill="url(#color-4)" fill-rule="nonzero" stroke="#001026" stroke-width="1.2" stroke-linecap="butt" stroke-linejoin="miter"/><g><g><g><path d="M314.74673,101.88155c0.32414,-0.15793 0.80618,0.00826 0.8516,0.41807l1.14061,10.95212c0,0 5.71141,5.51633 7.15137,9.04145c2.43299,5.87968 1.9282,10.35239 1.9282,10.35239c0,0 6.75397,3.03379 7.17822,8.84328c0.42424,5.80948 -5.38526,15.92132 -24.51174,17.065c-19.12646,1.14368 -33.4055,-5.93653 -38.91147,-18.1862c-5.50597,-12.24968 7.41778,-24.22368 6.71586,-23.51143l0.32108,-18.0199c-0.04541,-0.4098 0.49031,-0.63999 0.85986,-0.38812l10.93042,9.4523c0,0 4.68743,-1.08075 9.37176,-0.64822c2.80151,0.17755 5.15296,0.69781 7.37848,1.40284z" fill="url(#color-5)" fill-rule="evenodd" stroke="#001026" stroke-width="1.2" stroke-linecap="butt" stroke-linejoin="miter"/><path d="M325.46754,133.00171c0,0 6.59604,2.70967 7.02027,8.51915c0.42424,5.80948 -5.71454,15.37218 -24.62941,16.44359c-24.65208,1.70726 -34.11567,-14.10573 -26.05381,-23.71075c8.07528,-9.70412 18.25009,0.85682 26.65464,1.38947c7.20198,0.47073 8.84017,-5.66494 17.00832,-2.64146z" fill="#ffffff" fill-rule="evenodd" stroke="none" stroke-width="1" stroke-linecap="butt" stroke-linejoin="miter"/><path d="M343.55351,136.56095c-5.16742,3.13492 -12.31572,2.26781 -12.31572,2.26781" fill="none" fill-rule="evenodd" stroke="#001026" stroke-width="1.2" stroke-linecap="round" stroke-linejoin="round"/><path d="M340.76229,147.48519c-6.31011,-0.34995 -9.91988,-2.75613 -9.91988,-2.75613" fill="none" fill-rule="evenodd" stroke="#001026" stroke-width="1.2" stroke-linecap="round" stroke-linejoin="round"/><path d="M308.41177,133.01303c2.08101,0.28181 4.23426,0.77523 4.23943,1.48231c-0.08878,1.40076 -1.95095,3.97414 -3.54989,3.85853c-1.81056,-0.04336 -5.63707,-3.08437 -5.42237,-4.66988c0.06194,-1.20257 2.75093,-0.93933 4.73284,-0.67095z" fill="#001026" fill-rule="evenodd" stroke="#001026" stroke-width="1.2" stroke-linecap="round" stroke-linejoin="round"/><path d="M264.02008,125.48783c0,0 8.14646,3.92875 11.19881,7.47039" fill="none" fill-rule="evenodd" stroke="#001026" stroke-width="1.2" stroke-linecap="round" stroke-linejoin="round"/><path d="M275.04649,136.46682c-4.48924,1.10758 -11.67469,-0.97551 -11.67469,-0.97551" fill="none" fill-rule="evenodd" stroke="#001026" stroke-width="1.2" stroke-linecap="round" stroke-linejoin="round"/><path d="M306.62982,146.92745c-0.36131,2.66803 11.48454,31.23483 5.29252,27.00679c-16.75606,-11.44138 -17.64447,-2.82138 -24.95558,-1.69077c-8.09716,1.25216 -4.75779,-27.55188 -4.61534,-28.60379c0.36131,-2.66803 4.91818,5.05236 11.62247,5.96024c6.7043,0.90789 13.01722,-5.34051 12.65591,-2.67248z" fill="#000000" fill-rule="nonzero" stroke="#001026" stroke-width="1.2" stroke-linecap="butt" stroke-linejoin="miter"/></g><path d="M296.90934,133.61823c0.02123,-0.08992 0.04264,-0.18014 0.06429,-0.27069c-0.08036,0.12817 -0.16382,0.24982 -0.25054,0.36267c0.02724,0.05987 0.04791,0.11457 0.06257,0.16445c0.00236,-0.0104 0.00467,-0.02084 0.00696,-0.03126c0.01373,-0.06273 0.06411,-0.14477 0.11673,-0.22517zM296.15279,134.35761c-0.04224,-0.0029 -0.08498,-0.00675 -0.12776,-0.01118c-0.08594,0.0462 -0.17442,0.08245 -0.26552,0.1074c-0.00241,0.00066 -0.00484,0.00132 -0.00727,0.00195l0.04454,0.00603c0.05788,0.00785 0.10842,0.03489 0.14608,0.07386c0.08382,-0.06062 0.15355,-0.12025 0.20995,-0.17804zM295.15621,133.95664c0.00132,0.00015 0.00265,0.00033 0.00397,0.00047c0.13883,-0.02528 0.28433,-0.04074 0.42336,-0.04972c0.07754,-0.06346 0.1587,-0.13365 0.24202,-0.20677c-0.10395,-0.00043 -0.22191,0.01121 -0.35225,0.0367c-0.13349,0.02612 -0.23476,0.10602 -0.31712,0.21933zM290.96332,135.06164c-0.02777,-0.0027 -0.05543,-0.00577 -0.08288,-0.00914c-0.01567,0.03872 -0.03074,0.07846 -0.0454,0.11899l0.11214,-0.0854c0.00546,-0.0082 0.01084,-0.01636 0.01613,-0.02444zM294.61181,135.25403c0.20475,-0.06531 0.41088,-0.15061 0.61851,-0.26236c-0.06437,0.01254 -0.12844,0.02102 -0.19057,0.02368c-0.04326,0.06672 -0.117,0.11038 -0.19884,0.1139l-0.16854,0.0106c-0.01906,0.03947 -0.03917,0.07764 -0.06054,0.11417zM289.4222,134.83489c0.03348,-0.04998 0.06742,-0.09868 0.1018,-0.14596c-0.02641,-0.02107 -0.05281,-0.04225 -0.07922,-0.06352c-0.00671,0.06902 -0.01427,0.13888 -0.02258,0.20949zM290.76725,135.76983c0.00209,-0.00087 0.00419,-0.00173 0.00629,-0.00259c-0.00175,-0.00014 -0.00349,-0.00029 -0.00525,-0.00045zM293.7889,135.42527c-0.14036,-0.07963 -0.29681,-0.16151 -0.42699,-0.20382c-0.11381,0.09587 -0.22634,0.17912 -0.33769,0.25065c0.25296,-0.00623 0.50779,-0.01736 0.76466,-0.04683zM290.27454,134.23968c0.0052,0.04662 0.00804,0.0973 0.00834,0.1523c0.07401,-0.00144 0.14972,-0.0012 0.22647,0.00093c-0.07821,-0.05023 -0.15643,-0.10146 -0.23478,-0.15323zM290.08828,136.15623c0.04048,-0.03008 0.081,-0.05881 0.12155,-0.08621c-0.00973,-0.02062 -0.0167,-0.04268 -0.0205,-0.06564l-0.01694,-0.08952c-0.02701,0.08169 -0.0549,0.16309 -0.0841,0.2414z" fill="#000000" fill-rule="nonzero" stroke="none" stroke-width="0.5" stroke-linecap="butt" stroke-linejoin="miter"/><path d="M320.19727,136.47433c0.0949,-0.07479 0.19053,-0.15805 0.28527,-0.2477c-0.08826,0.05762 -0.16791,0.11194 -0.23543,0.16214c-0.01677,0.02856 -0.03339,0.05708 -0.04984,0.08557zM317.10277,138.13094c-0.17172,1.76524 -1.02136,3.66272 -1.21335,5.23016c-0.04667,0.34454 -0.06629,0.68645 -0.08684,1.02748c0.18791,-0.37811 0.40102,-0.74399 0.45317,-0.89898c0.44563,-1.32461 0.99417,-3.7525 0.84704,-5.35867zM314.41134,139.00423c0.10068,-0.26451 0.19573,-0.53348 0.28157,-0.8041c-0.22116,0.12807 -0.41748,0.2382 -0.41583,0.24257c0.06885,0.18157 0.11136,0.36934 0.13428,0.56153zM316.54924,135.04018c-0.03043,-0.00714 -0.0608,-0.01405 -0.09107,-0.0207c-0.01945,-0.00169 -0.03885,-0.00347 -0.05812,-0.00534c0.02519,0.01955 0.04637,0.04372 0.06245,0.07106l0.03996,0.06665c0.01329,-0.03297 0.02933,-0.07096 0.04678,-0.11167zM320.85639,135.42681c0.19738,-0.12243 0.39407,-0.24779 0.56534,-0.36845c0.1182,-0.19859 0.21237,-0.39244 0.27232,-0.56882c-0.11416,0.23919 -0.26203,0.42562 -0.49575,0.4847c-0.09992,0.19652 -0.21509,0.34448 -0.34192,0.45256zM324.81818,133.85548c0.10649,0.69211 0.16345,1.30042 0.20301,1.47652c0.00628,0.04342 0.01265,0.08762 0.01908,0.13253c0.03587,-0.25237 0.07029,-0.50525 0.103,-0.75877c0.01243,-0.14063 0.0215,-0.27528 0.02713,-0.40392c-0.00326,-0.00032 -0.00653,-0.00069 -0.00981,-0.00113c-0.08735,-0.01183 -0.15803,-0.06745 -0.19288,-0.14172l-0.14503,-0.29763c-0.00142,-0.00191 -0.00293,-0.00388 -0.00451,-0.00591zM320.2269,135.05851c0.15674,-0.02021 0.29789,-0.07064 0.41727,-0.16145c-0.13964,0.05795 -0.27905,0.11187 -0.41727,0.16145zM320.14802,134.6659c-0.32769,0.07686 -0.69182,0.14928 -1.07272,0.20988c0.03651,0.01163 0.07295,0.02297 0.10925,0.03396c0.32117,-0.04644 0.64567,-0.12974 0.96348,-0.24383zM322.06156,133.50107c-0.00272,0.00628 -0.00543,0.01259 -0.00809,0.01891c0.00268,-0.00247 0.00534,-0.00495 0.00802,-0.00743c0.00002,-0.00383 0.00004,-0.00765 0.00007,-0.01149zM324.54068,132.50164c0.13308,0.04632 0.25591,0.10589 0.36441,0.17915c-0.10458,-0.16115 -0.24036,-0.27183 -0.40915,-0.33086c0.01536,0.04958 0.03027,0.10021 0.04475,0.15171z" fill="#000000" fill-rule="nonzero" stroke="none" stroke-width="0.5" stroke-linecap="butt" stroke-linejoin="miter"/></g><path d="M304.17068,128.98782c0,3.30207 -4.11825,5.97893 -9.19835,5.97893c-5.08011,0 -9.75026,-12.78571 -9.75026,-12.78571c0,0 18.94862,3.50471 18.94862,6.80679z" fill="#ffffff" fill-rule="nonzero" stroke="#001026" stroke-width="1.2" stroke-linecap="butt" stroke-linejoin="miter"/><path d="M331.4564,123.89532c0,0 -4.67015,12.78571 -9.75026,12.78571c-5.08011,0 -9.19835,-2.67686 -9.19835,-5.97893c0,-3.30207 18.94861,-6.80679 18.94861,-6.80679z" data-paper-data="{&quot;index&quot;:null}" fill="#ffffff" fill-rule="nonzero" stroke="#001026" stroke-width="1.2" stroke-linecap="butt" stroke-linejoin="miter"/></g><path d="M283.05064,119.39532c0,3.42417 -1.92518,6.2 -4.3,6.2c-2.37482,0 -4.3,-2.77584 -4.3,-6.2c0,-3.42417 1.92518,-6.2 4.3,-6.2c2.37482,0 4.3,2.77584 4.3,6.2z" fill="#000000" fill-rule="nonzero" stroke="#001026" stroke-width="1.2" stroke-linecap="butt" stroke-linejoin="miter"/><path d="M281.58167,113.07778c0.2095,-0.05237 0.28328,0.12145 0.29949,0.16978c0.10287,0.03097 0.17781,0.12645 0.17781,0.23942c0,0.0324 -0.00616,0.06336 -0.01738,0.09177c0.24334,0.22558 0.67776,0.08247 0.95081,0.40503c0.69777,0.8243 1.52812,2.43057 1.56657,3.58653c-0.02992,1.94557 -0.16153,3.88744 -1.20044,5.95882c-1.40157,2.0502 -3.12104,4.76535 -5.93455,3.74129c-0.40759,-0.70195 -1.52321,-1.28831 -1.60958,-2.065c-0.14651,-1.31736 1.06027,-0.59529 1.31509,0.11917l-0.04444,0.10487c1.38331,0.89753 3.25828,-0.40478 4.26985,-1.75354c0.94351,-1.41627 2.1548,-2.40462 2.20313,-4.25448c-0.02616,-0.02445 -0.04039,-0.04579 -0.04039,-0.04579c-0.86041,-1.34622 -1.19358,-3.11082 -2.0897,-4.59338l-0.12907,-0.11852c0,0 -0.17678,-0.17678 0,-0.35356c0.00906,-0.00906 0.01812,-0.01718 0.02715,-0.02446l-0.1837,-0.04877c0.00289,-0.1094 0.00073,-0.25721 0.01939,-0.39026c-0.06194,-0.12161 0.02259,-0.24841 0.02259,-0.24841c0.06966,-0.09002 0.13932,-0.18003 0.20898,-0.27005c-0.00284,-0.07489 0.01762,-0.20778 0.1884,-0.25047z" fill="#cf0000" fill-rule="nonzero" stroke="none" stroke-width="0.5" stroke-linecap="butt" stroke-linejoin="miter"/><path d="M281.00349,121.71088c-1.89599,2.58187 -3.10717,4.91416 -9.86397,-0.04769c-6.7568,-4.96185 -4.78402,-23.86017 -4.78402,-23.86017c0,0 4.89321,9.54855 11.65001,14.5104c6.7568,4.96185 4.89396,6.81559 2.99797,9.39746z" fill="url(#color-6)" fill-rule="nonzero" stroke="#001026" stroke-width="1.2" stroke-linecap="butt" stroke-linejoin="miter"/></g></g></g></g></svg>