<svg version="1.1" xmlns="http://www.w3.org/2000/svg" xmlns:xlink="http://www.w3.org/1999/xlink" width="114.90163" height="91.49465" viewBox="0,0,114.90163,91.49465"><defs><linearGradient x1="258.45264" y1="204.98815" x2="266.12642" y2="221.9314" gradientUnits="userSpaceOnUse" id="color-1"><stop offset="0" stop-color="#ffffff"/><stop offset="1" stop-color="#9f9f9f"/></linearGradient><radialGradient cx="282.84971" cy="178.12939" r="8.13758" gradientUnits="userSpaceOnUse" id="color-2"><stop offset="0" stop-color="#ffffff"/><stop offset="1" stop-color="#1a1a1a"/></radialGradient><radialGradient cx="260.79161" cy="179.64595" r="6.75889" gradientUnits="userSpaceOnUse" id="color-3"><stop offset="0" stop-color="#ffffff"/><stop offset="1" stop-color="#1a1a1a"/></radialGradient></defs><g transform="translate(-196.43848,-148.56355)"><g data-paper-data="{&quot;isPaintingLayer&quot;:true}" stroke-miterlimit="10" stroke-dasharray="" stroke-dashoffset="0" style="mix-blend-mode: normal"><path d="M246.75025,199.81276c0.58648,2.1415 1.88851,10.44239 4.43852,11.41576c2.43774,0.88737 9.11425,-2.01507 10.15463,2.78987c1.02726,4.70582 -5.40325,5.65905 -10.95353,4.88162c-7.18897,-0.96373 -11.76721,-11.15047 -8.66912,-18.21884c1.18476,-2.47716 4.42987,-3.10904 5.0295,-0.8684z" data-paper-data="{&quot;index&quot;:null}" fill="#717171" fill-rule="evenodd" stroke="#001026" stroke-width="1.2" stroke-linecap="round" stroke-linejoin="round"/><g fill-rule="nonzero" stroke="#001026" stroke-width="1.2" stroke-linejoin="miter"><g><g><path d="M259.39664,210.7082l-4.45573,-9.83802l2.3684,-1.07267l4.45574,9.83802z" fill="#2c2c2c" stroke-linecap="butt"/><path d="M264.32307,221.18382l2.20781,-0.94104l5.25116,13.8501z" fill="#6c6c6c" stroke-linecap="butt"/><path d="M262.75598,223.4579l-7.67376,-16.94324l6.74085,-3.053l7.67376,16.94325z" fill="url(#color-1)" stroke-linecap="butt"/><path d="M256.15489,208.88306l3.36185,-1.30306" fill="none" stroke-linecap="round"/><path d="M260.91947,210.67716l-2.99748,1.13803" fill="none" stroke-linecap="round"/><path d="M258.72996,214.08392l2.71562,-0.79082" fill="none" stroke-linecap="round"/><path d="M260.66209,217.38042l2.00404,-0.90765" fill="none" stroke-linecap="round"/><path d="M261.53542,220.27824l2.98032,-0.69115" fill="none" stroke-linecap="round"/></g><path d="M252.98507,202.8538l-1.1552,-2.5506l6.92305,-3.13551l1.1552,2.5506z" fill="#2c2c2c" stroke-linecap="butt"/></g><path d="M260.77527,213.26737c1.20763,2.66639 1.00389,5.36357 -0.45507,6.02435c-1.45896,0.66078 -3.62067,-0.96508 -4.82829,-3.63146c-1.20763,-2.66639 -1.00388,-5.36358 0.45508,-6.02437c1.45896,-0.66078 3.62066,0.96508 4.82829,3.63147z" fill="#717171" stroke-linecap="butt"/><path d="M269.65415,208.14825c1.84563,4.07504 1.26183,8.32056 -1.30393,9.48262c-2.56576,1.16206 -6.14189,-1.19937 -7.98753,-5.27441c-1.84563,-4.07504 -1.26184,-8.32055 1.30392,-9.48261c2.56576,-1.16206 6.1419,1.19937 7.98753,5.2744z" fill="#717171" stroke-linecap="butt"/></g><g fill-rule="evenodd"><path d="M228.23137,208.39114c-0.35719,0.93402 0.06625,3.8582 -3.66052,2.06898c-3.69544,-1.92712 -10.9988,-8.08187 -9.05692,-19.82277c2.16117,-12.70627 14.77923,-14.62582 17.4625,-11.11581c2.62997,3.42538 -4.19919,5.71724 -9.14731,12.49706c-7.21697,9.74503 4.75945,15.43851 4.40224,16.37255z" fill="#717171" stroke="#001026" stroke-width="1.2" stroke-linecap="round" stroke-linejoin="round"/><path d="M230.06848,184.66193c-3.45672,2.76788 -5.46232,5.21277 -5.46232,5.21277c0,0 0.83969,-2.41968 -0.77775,-4.23733c-1.96851,-2.18745 -4.47895,-1.67003 -5.12457,-1.38161c1.06547,-1.49827 2.52267,-3.12508 5.67548,-4.87432c3.22806,-1.44209 7.44667,-1.49899 8.44048,0.82962c0.72734,1.90551 -0.67983,2.67354 -2.75132,4.45086z" fill="#ffffff" stroke="none" stroke-width="1" stroke-linecap="butt" stroke-linejoin="miter"/></g><path d="M248.3198,236.3753c0,3.86599 -11.83333,3 -11.83333,3c0,0 -10.5,0.86599 -10.5,-3c0,-3.45051 2.7452,-32.89294 7.69909,-34.5825c3.83539,-1.30808 4.43187,28.24917 5.13424,28.24917c6.53537,0 9.5,2.46734 9.5,6.33333z" fill="#717171" fill-rule="nonzero" stroke="#001026" stroke-width="1.2" stroke-linecap="butt" stroke-linejoin="miter"/><path d="M208.90947,235.59926c-3.38222,1.87255 -8.35625,-8.89949 -8.35625,-8.89949c0,0 -5.84345,-8.76664 -2.46123,-10.63918c3.01873,-1.6713 30.1066,-13.53049 33.98422,-10.01486c3.00212,2.72187 -22.5676,17.56018 -22.22739,18.17466c3.1655,5.71757 2.44287,9.50632 -0.93936,11.37887z" fill="#717171" fill-rule="nonzero" stroke="#001026" stroke-width="1.2" stroke-linecap="butt" stroke-linejoin="miter"/><g fill-rule="evenodd"><path d="M227.81308,213.23771c-8.26469,-4.01131 -2.30076,-10.67878 2.12079,-19.02084c2.35747,-4.52242 6.87518,-9.23971 12.88623,-8.09632c3.40455,0.46791 2.10084,6.65496 4.29981,6.53422c3.29892,-0.1311 2.74419,4.67433 1.86781,7.18271c0,0 -1.36506,3.71303 -2.6471,5.6252c-1.57731,2.41497 -3.3546,4.83186 -4.54606,5.74312c0,0 -5.07849,6.35299 -13.98148,2.0319z" fill="#717171" stroke="#001026" stroke-width="1.2" stroke-linecap="round" stroke-linejoin="round"/><path d="M241.02206,211.11599c0,0 -1.51124,-1.18582 -3.12531,-2.67067c-2.01689,-1.78108 -4.03094,-3.26214 -2.06025,-6.38086c1.77728,-2.41687 3.44706,-5.63274 7.9742,-2.77529c4.32526,2.65934 2.44892,5.17713 2.44892,5.17713c-2.15748,4.52053 -5.23756,6.64969 -5.23756,6.64969z" fill="#ffffff" stroke="none" stroke-width="1" stroke-linecap="butt" stroke-linejoin="miter"/></g><path d="M238.03706,197.48724c-0.89832,2.24344 -5.10515,3.77722 -5.76171,4.68216c-0.14764,0.27966 2.14658,5.2813 3.49482,8.28167c1.95793,4.21622 -3.85415,7.97781 -7.32321,4.93057c-3.1894,-2.8996 -6.10931,-11.59294 -6.20695,-13.57549c-0.32416,-4.53376 8.74108,-9.32036 14.70917,-12.61093" fill="#717171" fill-rule="evenodd" stroke="#001026" stroke-width="1.2" stroke-linecap="round" stroke-linejoin="round"/><g><g><path d="M279.99676,150.54518c0.31456,-0.17621 0.80534,-0.03787 0.87413,0.36866l1.76522,10.86895c0,0 6.01759,5.1806 7.65686,8.61757c2.76533,5.73087 2.51723,10.22514 2.51723,10.22514c0,0 6.91645,2.64248 7.67232,8.41817c0.75586,5.7757 -4.46572,16.20331 -23.49545,18.43919c-19.02973,2.23588 -33.69039,-4.01594 -39.88804,-15.93059c-6.19765,-11.91466 6.01998,-24.60833 5.35994,-23.8571l-0.71023,-18.00877c-0.06879,-0.40653 0.45291,-0.66699 0.83626,-0.43667l11.45321,8.81158c0,0 4.61793,-1.34711 9.31932,-1.18325c2.80708,0.01701 5.18444,0.40191 7.44664,0.97848z" fill="#717171" fill-rule="evenodd" stroke="#001026" stroke-width="1.2" stroke-linecap="butt" stroke-linejoin="miter"/><path d="M285.97973,179.13797c-0.31482,4.06092 -6.65189,6.88146 -14.15426,6.29987c-7.50237,-0.58159 -13.32903,-4.34511 -13.01423,-8.40602c0.31482,-4.06092 6.65189,-6.88146 14.15426,-6.29987c7.50237,0.58159 13.32903,4.34511 13.01423,8.40602z" fill="#000000" fill-rule="nonzero" stroke="none" stroke-width="NaN" stroke-linecap="butt" stroke-linejoin="miter"/><path d="M292.48018,181.00111c0,0 6.74024,2.32792 7.49609,8.10361c0.75586,5.7757 -4.82587,15.67389 -23.64847,17.82553c-24.51406,3.11462 -34.86669,-12.13113 -27.36745,-22.18158c7.50696,-10.15015 18.26923,-0.18853 26.69047,-0.13751c7.21711,0.05799 8.50164,-6.16134 16.82937,-3.61006z" fill="#ffffff" fill-rule="evenodd" stroke="none" stroke-width="1" stroke-linecap="butt" stroke-linejoin="miter"/><path d="M310.74012,183.51996c-4.97964,3.42537 -12.16583,2.96858 -12.16583,2.96858" fill="none" fill-rule="evenodd" stroke="#001026" stroke-width="1.2" stroke-linecap="round" stroke-linejoin="round"/><path d="M308.57836,194.58599c-6.3198,0.01158 -10.06128,-2.18418 -10.06128,-2.18418" fill="none" fill-rule="evenodd" stroke="#001026" stroke-width="1.2" stroke-linecap="round" stroke-linejoin="round"/><path d="M275.45296,181.98803c2.09372,0.16231 4.27168,0.53175 4.31728,1.23738c-0.00851,1.40354 -1.72043,4.07923 -3.32338,4.05528c-1.81008,0.06028 -5.80428,-2.75686 -5.68062,-4.35207c-0.00695,-1.20414 2.6927,-1.09516 4.68672,-0.94058z" fill="#001026" fill-rule="evenodd" stroke="#001026" stroke-width="1.2" stroke-linecap="round" stroke-linejoin="round"/><path d="M230.7035,177.01448c0,0 8.35787,3.45631 11.60779,6.81756" fill="none" fill-rule="evenodd" stroke="#001026" stroke-width="1.2" stroke-linecap="round" stroke-linejoin="round"/><path d="M242.33989,187.34476c-4.41853,1.36257 -11.71137,-0.30609 -11.71137,-0.30609" fill="none" fill-rule="evenodd" stroke="#001026" stroke-width="1.2" stroke-linecap="round" stroke-linejoin="round"/><path d="M289.242,175.51641c2.54352,4.71068 1.129,5.52181 -1.80175,7.1c-2.93075,1.5782 -7.35468,-0.87105 -9.99789,-5.58946c-1.32276,-2.43304 -3.4374,-7.22563 -2.09776,-6.58675c15.23184,7.2641 12.94852,3.64883 13.49352,4.46975c0.13445,0.20253 0.28781,0.39143 0.4039,0.60644z" fill="url(#color-2)" fill-rule="evenodd" stroke="#001026" stroke-width="1.2" stroke-linecap="round" stroke-linejoin="round"/><path d="M263.17973,172.10989c2.65095,4.61871 2.03419,9.98709 -0.80459,11.67274c-3.43698,1.63926 -7.71561,-0.09663 -10.36656,-4.71533c8.8179,0.14223 8.5202,-11.5761 11.17115,-6.95739z" fill="url(#color-3)" fill-rule="evenodd" stroke="#001026" stroke-width="1.2" stroke-linecap="round" stroke-linejoin="round"/><path d="M273.83201,196.75176c-0.20809,2.68434 -18.30167,8.32907 -22.44049,5.66965c-4.59759,-2.9542 -2.02623,-7.04723 -1.98623,-7.56326c0.05548,-0.71569 0.23833,-0.29951 0.60357,-0.33767c1.00467,-0.10496 3.39366,1.02367 8.34052,1.40716c6.74525,0.5229 15.69071,-1.86023 15.48261,0.82411z" fill="#000000" fill-rule="nonzero" stroke="#001026" stroke-width="1.2" stroke-linecap="butt" stroke-linejoin="miter"/></g><path d="M259.07169,183.98711c0.01576,0.02574 0.03003,0.05511 0.04265,0.08829c0.1367,-0.01559 0.27923,-0.04218 0.42845,-0.08117c0.11759,0.00836 0.23592,0.01755 0.3547,0.02666c0.45766,-0.12499 0.89221,-0.25974 1.11382,-0.29679c0.26287,-0.08252 0.53944,-0.08502 0.80613,-0.06943c0.12237,-0.34465 0.32609,-0.63005 0.80826,-0.70105c0.2722,-0.04009 0.51055,-0.01942 0.70529,0.04603c0.10604,-0.09961 0.21198,-0.19358 0.31518,-0.27361c0.52203,-0.99866 0.90946,-2.49301 1.13508,-3.01759l0.02033,-0.26217c0.01067,-0.13765 0.13092,-0.2406 0.26857,-0.22993c0.13765,0.01067 0.2406,0.13092 0.22993,0.26857l-0.02269,0.29274l-0.063,-0.00488c0.0013,0.0073 0.00257,0.01462 0.00384,0.02196l0.05285,0.02261c-0.01164,0.02835 -0.02341,0.05783 -0.03528,0.08835c0.27441,1.88971 -0.57163,4.60464 -1.29919,6.66339c-0.24509,2.05978 -0.76307,4.80009 -1.79847,6.2819l0.04903,0.02119l-0.11724,0.27129c-0.03978,0.09832 -0.13974,0.16402 -0.25111,0.15539c-0.13765,-0.01067 -0.2406,-0.13092 -0.22993,-0.26857c0.00006,-0.00081 0.00012,-0.00163 0.0002,-0.00245l0.04283,-0.49781l0.00847,0.00072l-0.00483,-0.02688c0.46046,-1.51825 0.79915,-3.03589 1.26783,-4.54267c0.24803,-0.69341 0.43271,-1.35667 0.58402,-2.00906c0.03664,-0.26877 0.06622,-0.53846 0.0872,-0.80908c0.02461,-0.30935 0.09257,-0.60857 0.1638,-0.90745c-0.11934,0.1874 -0.3066,0.3753 -0.57096,0.54865c-1.09765,0.89763 -2.24033,0.88966 -3.31904,0.99315l-0.06938,0.1408c-0.04268,0.09192 -0.13916,0.15226 -0.24615,0.14397c-0.12022,-0.00932 -0.21398,-0.10222 -0.22868,-0.2173c-0.66046,0.10705 -1.28851,0.32584 -1.8573,0.90676l-0.28189,0.39056c-0.049,0.07039 -0.13297,0.11368 -0.22466,0.10658c-0.12811,-0.00993 -0.22616,-0.11476 -0.23053,-0.24022l-0.02008,-0.40408l0.07612,-0.00378c-0.06082,-0.6211 0.08828,-1.08181 0.37768,-1.42112c-0.01628,-0.03368 -0.0333,-0.06804 -0.05102,-0.10291c-1.07133,1.9299 -0.70291,4.32854 -1.42912,6.31423c-0.01301,0.07107 -0.02633,0.14238 -0.03983,0.21408l-0.02191,0.28263c-0.01067,0.13765 -0.13092,0.24059 -0.26857,0.22993c-0.13765,-0.01067 -0.2406,-0.13091 -0.22993,-0.26857l0.02269,-0.29275l0.00638,0.0005l-0.00498,-0.0139c0.01083,-0.05809 0.02159,-0.1159 0.03222,-0.17352c-0.12368,-0.43583 0.08067,-1.30449 0.11012,-1.66714c0.05334,-0.65713 0.18588,-1.50401 0.398,-2.35223c0.09605,-0.70826 0.18914,-1.42045 0.2507,-2.11888l-0.05589,0.05911c-0.05012,0.05387 -0.12344,0.08522 -0.2025,0.0791c-0.13765,-0.01067 -0.24059,-0.13092 -0.22993,-0.26857c0.00325,-0.04186 0.01662,-0.08051 0.03754,-0.11374l0.22283,-0.37089l0.01286,0.00773c0.04713,-0.15288 0.10216,-0.30285 0.1701,-0.44731c0.00289,-0.00616 0.00607,-0.01264 0.00949,-0.0194c-0.23053,-0.16492 -0.46246,-0.32541 -0.69639,-0.47157c-0.00388,0.00285 -0.00776,0.00574 -0.01162,0.00869c-0.03687,0.02806 -0.07198,0.06043 -0.10564,0.09639c-0.19432,0.54642 -0.38918,1.0815 -0.65937,1.58655l0.05609,0.02084l-0.17218,0.46353c-0.03627,0.10491 -0.13977,0.17636 -0.2556,0.16737c-0.0806,-0.00625 -0.1493,-0.05006 -0.19025,-0.11293c-0.13632,-0.012 -0.23787,-0.13158 -0.22727,-0.26836l0.03026,-0.39033l0.07756,0.00602c-0.02905,-0.68043 0.18902,-1.16143 0.53954,-1.45508c0.09096,-0.16302 0.19033,-0.32154 0.29527,-0.46877c-0.04945,-0.02353 -0.09902,-0.04607 -0.14869,-0.06753c-0.18351,-0.21695 -0.29528,-0.49898 -0.34784,-0.77821l0.00131,-0.01013l-0.00237,0.00021l-0.04342,-0.49338c-0.00158,-0.015 -0.00184,-0.03036 -0.00063,-0.04594c0.01067,-0.13765 0.13092,-0.2406 0.26857,-0.22993c0.1251,0.0097 0.22154,0.10991 0.23007,0.23143l0.02935,0.33341c0.05069,0.05851 0.10166,0.11279 0.15289,0.16309c0.05014,-0.05863 0.12665,-0.09333 0.20945,-0.0869l0.39033,0.03026l-0.00112,0.01441l0.0408,-0.0081c0.21807,0.08961 0.42169,0.1971 0.61614,0.31392c0.17546,0.05708 0.33192,0.14823 0.42782,0.27742c0.05028,0.03452 0.10018,0.06926 0.14981,0.10404c0.76357,0.01285 1.5545,-0.04979 2.34593,0.60481c0.10362,0.08571 0.16321,0.18597 0.19018,0.29479zM261.36939,184.9056c-0.01646,0.00362 -0.03295,0.00716 -0.04944,0.01062c0.02077,0.00573 0.03387,0.00701 0.03795,0.00246c0.00387,-0.00432 0.00771,-0.00869 0.01149,-0.01309zM264.004,183.25022c0.01605,-0.09099 0.03227,-0.18228 0.0487,-0.27392c-0.0729,0.13256 -0.14927,0.25878 -0.22938,0.37641c0.03062,0.05822 0.05437,0.11164 0.07187,0.16061c0.00176,-0.01052 0.00348,-0.02108 0.00516,-0.03162c0.01012,-0.06341 0.05572,-0.14819 0.10365,-0.23147zM263.29096,184.03167c-0.04233,-0.00048 -0.08523,-0.00187 -0.12819,-0.00385c-0.08317,0.05105 -0.16942,0.09229 -0.25894,0.12241c-0.00237,0.00079 -0.00476,0.00158 -0.00715,0.00236l0.04481,0.00347c0.05822,0.00451 0.11024,0.02862 0.15006,0.06538c0.0802,-0.06531 0.1464,-0.12883 0.19941,-0.18977zM262.2731,183.68836c0.00132,0.00008 0.00266,0.00016 0.00398,0.00024c0.13716,-0.03318 0.28153,-0.05694 0.41984,-0.07386c0.07377,-0.06779 0.1508,-0.1425 0.2298,-0.22028c-0.10381,0.00553 -0.22091,0.02388 -0.34958,0.05678c-0.13178,0.03371 -0.2283,0.11927 -0.30405,0.23711zM258.15027,185.03138c-0.02788,-0.00111 -0.05566,-0.00259 -0.08327,-0.00439c-0.01342,0.03956 -0.0262,0.08011 -0.03852,0.12139l0.10707,-0.09167c0.00498,-0.0085 0.00989,-0.01695 0.01471,-0.02532zM261.80379,185.01477c0.20068,-0.07691 0.40161,-0.17386 0.60249,-0.2973c-0.06355,0.01621 -0.12703,0.02832 -0.18891,0.03453c-0.03938,0.06909 -0.1105,0.11689 -0.19201,0.12509l-0.16767,0.02023c-0.01677,0.04048 -0.03466,0.07976 -0.05391,0.11746zM256.59869,184.89317c0.03058,-0.05183 0.06167,-0.10239 0.09329,-0.15155c-0.02756,-0.01953 -0.05514,-0.03915 -0.08272,-0.05887c-0.00275,0.06929 -0.0063,0.13947 -0.01057,0.21043zM257.99503,185.74963c0.00204,-0.00099 0.00409,-0.00197 0.00613,-0.00294c-0.00175,-0.00004 -0.0035,-0.00009 -0.00526,-0.00016zM260.99202,185.2328c-0.14468,-0.07148 -0.30556,-0.14425 -0.43796,-0.17905c-0.10814,0.10222 -0.21572,0.19177 -0.3228,0.26955c0.25219,-0.02069 0.50598,-0.04636 0.76074,-0.09049zM257.4156,184.25018c0.00785,0.04625 0.0136,0.09669 0.01704,0.15158c0.07382,-0.00567 0.1494,-0.00977 0.22613,-0.01203c-0.08095,-0.04567 -0.16197,-0.09235 -0.24317,-0.13955zM257.6805,185.09033c0.0039,0.00285 0.00779,0.0057 0.01168,0.00855c0.00397,-0.01345 0.00813,-0.02693 0.01249,-0.04041c-0.00823,0.00947 -0.01628,0.02011 -0.02416,0.03188zM257.33928,186.17424c0.0387,-0.03234 0.07751,-0.06334 0.11642,-0.09302c-0.01089,-0.02003 -0.01912,-0.04166 -0.02422,-0.06438l-0.02205,-0.08841c-0.02229,0.0831 -0.04547,0.16597 -0.07014,0.24582z" fill="#000000" fill-rule="nonzero" stroke="none" stroke-width="0.5" stroke-linecap="butt" stroke-linejoin="miter"/><path d="M287.41717,184.76952c0.09046,-0.0801 0.1812,-0.16869 0.27063,-0.26363c-0.08482,0.06257 -0.16125,0.12136 -0.22577,0.17534c-0.01511,0.02947 -0.03007,0.0589 -0.04487,0.08827zM288.92807,183.6039c-0.46489,0.89274 -1.22846,1.84804 -1.8737,1.97811c-0.01967,0.03694 -0.03918,0.07356 -0.05856,0.10988c-0.67058,1.63493 -0.89852,3.17067 -1.01145,4.83895c0.17277,0.95055 0.41537,1.94162 0.06808,2.78725l0.08051,0.03396l-0.11804,0.27986c-0.03922,0.09943 -0.13978,0.1661 -0.2519,0.15741c-0.09951,-0.00772 -0.18086,-0.07267 -0.2143,-0.16008l-0.16287,-0.40044l0.01461,-0.00594l-0.02892,-0.04312c0.01224,-1.43227 0.04249,-2.74672 0.20533,-4.01878c-0.00309,-1.19677 0.16529,-2.24387 0.90076,-3.52513c0.16992,-0.41798 0.3663,-0.83909 0.59332,-1.26607c0.15063,-0.13145 0.40522,-0.30861 0.68285,-0.50144c-0.44988,0.21703 -1.01954,0.07606 -1.56556,-0.12388c-0.347,0.07828 -0.66398,0.11141 -0.92975,0.09081c-0.29255,-0.02268 -0.61529,-0.09134 -0.94442,-0.16254c-0.02718,0.22665 0.01107,0.5631 0.13216,1.04571c0.09941,0.39617 0.10254,0.73025 0.30294,1.09273c0.50942,1.66283 0.22684,6.81322 -1.27633,8.33021l0.07719,0.09015l-0.21029,0.18004v0v0c-0.0486,0.04161 -0.11308,0.06468 -0.18191,0.05933c-0.13765,-0.01067 -0.2406,-0.13092 -0.22993,-0.26857l0.03026,-0.39033c0.05256,-0.65007 0.00263,-1.30027 0.05372,-1.9592c0.16109,-1.84593 1.01557,-3.7856 0.93435,-5.67932c-0.01857,-0.43301 -0.18312,-0.83651 -0.31502,-1.24472c-0.0579,0.09509 -0.11723,0.18893 -0.17693,0.28067c-0.1569,0.78188 -0.41087,1.76726 -0.72892,2.67775c-0.07681,0.70361 -0.22628,1.33698 -0.55729,1.78142c-0.40563,0.51688 -1.78327,4.83098 -2.3795,4.27799c-0.38775,-0.35963 0.97347,-3.30413 1.04178,-3.79838c0.11421,-0.27382 0.23849,-0.5729 0.36494,-0.89029c-0.03125,-0.93177 -0.12208,-2.3014 0.11094,-2.59797c0.24584,-0.3129 0.58416,-0.5248 0.91199,-0.78475c0.11643,-0.70888 0.14525,-1.40285 0.02798,-2.0304c-0.21968,-0.10853 -0.43409,-0.37684 -0.5793,-0.88394c-0.05428,-0.00962 -0.10925,-0.01792 -0.165,-0.02493l-0.04592,-0.08663l-0.03074,0.02632l-0.18003,-0.21029c-0.04161,-0.0486 -0.06468,-0.11308 -0.05934,-0.18191c0.01067,-0.13765 0.13092,-0.2406 0.26857,-0.22993l0.29274,0.02269l-0.00147,0.01897c0.01185,-0.00344 0.0245,-0.00636 0.03802,-0.00864c0.05167,-0.00875 0.09434,-0.00482 0.12952,0.00684c2.16693,-0.14322 3.97794,1.08343 6.41852,-0.26656c0.08349,-0.02082 0.16195,-0.04297 0.23577,-0.06638c0.14977,-0.4652 0.29251,-0.98252 0.57484,-1.19191c0.36414,-0.27005 0.70758,-0.47258 1.02707,-0.61048c0.02807,-0.04709 0.05807,-0.09422 0.09047,-0.14131c-0.08703,-0.25139 -0.04067,-0.46066 0.24061,-0.57296c0.07925,-0.03164 0.1552,-0.03948 0.22794,-0.02666l0.03932,-0.09322c0.03922,-0.09943 0.13978,-0.1661 0.2519,-0.15741c0.13765,0.01067 0.2406,0.13092 0.22993,0.26857l-0.02269,0.29274l-0.0841,-0.00652l-0.00435,0.01033c0.04414,0.06209 0.08668,0.13179 0.12765,0.20785c0.97732,0.08425 1.53575,1.07569 1.4872,2.80657c-0.06058,0.8538 -0.14097,1.70155 -0.22986,2.54719c0.31351,2.0328 0.4633,4.50472 -0.48511,5.92515l0.09096,0.06717l-0.29441,0.39877c-0.04922,0.06901 -0.13235,0.11127 -0.22301,0.10424c-0.13765,-0.01067 -0.2406,-0.13092 -0.22993,-0.26857l0.02269,-0.29274c0.13948,-1.79926 0.35851,-3.56734 0.55248,-5.34018c-0.0226,-0.79574 -0.10083,-1.59917 -0.27485,-2.41482c-0.07864,-0.27993 -0.53176,-1.59002 -0.80585,-2.54527c-0.06758,-0.0248 -0.13572,-0.04508 -0.20408,-0.05974c-0.28382,0.42402 -0.68503,0.8332 -1.14872,1.20534c0.03095,0.35621 0.07581,0.73317 -0.04401,0.95344c-0.09582,0.17613 -0.30169,0.37522 -0.5515,0.5779zM284.4225,186.60043c-0.07046,1.77217 -0.81018,3.71516 -0.91219,5.29101c-0.02687,0.34664 -0.02691,0.68912 -0.02793,1.03076c0.16598,-0.38823 0.3578,-0.76571 0.40099,-0.92342c0.36912,-1.34794 0.7779,-3.80322 0.53912,-5.39835zM282.89356,185.06866c0.12427,-0.37299 0.20966,-0.70261 0.22795,-0.96265l0.0169,-0.21796c-0.12771,0.33972 -0.19998,0.74343 -0.24485,1.18061zM281.78542,187.62625c0.0854,-0.26985 0.16489,-0.5438 0.23511,-0.81889c-0.21347,0.14051 -0.40319,0.2617 -0.40128,0.26597c0.07913,0.17733 0.13231,0.36236 0.16617,0.55293zM283.69307,183.5464c-0.03078,-0.00539 -0.06149,-0.01056 -0.0921,-0.01546c-0.01952,-0.00058 -0.03897,-0.00125 -0.05833,-0.00201c0.02627,0.01807 0.04879,0.04101 0.06642,0.06738l0.04371,0.06425c0.01139,-0.03368 0.02522,-0.07252 0.04032,-0.11417zM288.01528,183.686c0.19006,-0.13353 0.37926,-0.26993 0.54334,-0.40019c0.10664,-0.20501 0.18957,-0.40395 0.23934,-0.58347c-0.10029,0.24533 -0.23726,0.43992 -0.46721,0.51226c-0.08851,0.20191 -0.19502,0.35621 -0.31546,0.47138zM291.88071,181.89064c0.14591,0.68489 0.23757,1.28894 0.28714,1.4625c0.00875,0.04298 0.01763,0.08674 0.02663,0.13122c0.02137,-0.25401 0.04128,-0.50845 0.05943,-0.76341c0.00437,-0.1411 0.00572,-0.27607 0.00398,-0.40481c-0.00327,-0.00012 -0.00655,-0.00031 -0.00985,-0.00057c-0.08788,-0.00681 -0.16163,-0.0583 -0.20068,-0.13046l-0.16181,-0.28884c-0.00153,-0.00183 -0.00314,-0.00371 -0.00484,-0.00565zM287.36576,183.35432c0.15533,-0.02916 0.29337,-0.08756 0.40735,-0.18505c-0.13611,0.06585 -0.27219,0.12764 -0.40735,0.18505zM287.26454,182.96687c-0.32276,0.09548 -0.68214,0.18861 -1.05896,0.2709c0.03712,0.00953 0.07414,0.01877 0.11101,0.02765c0.31799,-0.06473 0.6372,-0.16645 0.94796,-0.29854zM289.10833,181.69448c-0.00236,0.00643 -0.00469,0.01288 -0.007,0.01936c0.00253,-0.00262 0.00506,-0.00525 0.00758,-0.00787c-0.00021,-0.00382 -0.0004,-0.00765 -0.00059,-0.01148zM291.52622,180.55488c0.13551,0.03863 0.26156,0.09107 0.37405,0.15801c-0.11363,-0.15491 -0.25552,-0.25763 -0.42741,-0.30691c0.01816,0.04862 0.03595,0.09832 0.05335,0.1489z" fill="#000000" fill-rule="nonzero" stroke="none" stroke-width="0.5" stroke-linecap="butt" stroke-linejoin="miter"/></g></g></g></svg>