<svg version="1.1" xmlns="http://www.w3.org/2000/svg" xmlns:xlink="http://www.w3.org/1999/xlink" width="101.25374" height="83.87809" viewBox="0,0,101.25374,83.87809"><g transform="translate(-223.94009,-107.85762)"><g data-paper-data="{&quot;isPaintingLayer&quot;:true}" fill-rule="nonzero" stroke="none" stroke-linecap="butt" stroke-linejoin="miter" stroke-miterlimit="10" stroke-dasharray="" stroke-dashoffset="0" style="mix-blend-mode: normal"><path d="M268.46774,173.19615l-0.14321,0.09104c-2.62975,1.61572 -6.50617,1.9289 -8.83925,4.07415c-1.11851,0.56568 -2.49033,1.62613 -3.68727,1.94556c-2.50714,0.66908 -5.24962,0.42735 -7.8312,1.23891c-2.71759,0.85433 -5.49132,2.52809 -7.95142,3.9551c-3.79332,2.19942 -7.66167,4.02801 -11.65316,5.83984c-0.77756,0.35296 -3.61713,2.17141 -4.37075,1.01482c-0.40145,-0.61611 1.66972,-3.4832 2.02766,-4.0151c4.52938,-5.39873 8.21489,-11.102 11.42035,-17.40445c1.06763,-1.69826 2.3878,-3.23231 3.42259,-4.93646c2.54506,-4.19135 4.42762,-9.19068 8.34275,-12.33694c0.53941,-1.83281 1.98109,-3.38479 2.30979,-5.2906c0.85756,-4.97212 -1.20271,-10.21601 1.2121,-14.94564c1.04229,-2.02872 2.50046,-3.93791 3.26449,-6.10766c0.55581,-1.57842 0.52702,-3.3802 1.34314,-4.88471c1.2542,-2.31209 5.06105,-4.15742 7.17774,-5.70232c5.66636,-4.13108 13.26223,-5.14881 19.97772,-6.54602c4.42499,-1.08241 8.45435,-1.74184 13.00975,-1.03439c0.8052,0.12505 2.4639,0.10952 3.14844,0.5278c1.1684,0.71395 2.27049,3.06273 3.08101,4.17938c4.11189,5.66501 8.22379,11.33002 12.33568,16.99503c2.15385,2.96739 4.3077,5.93477 6.46155,8.90216c0.69464,0.95702 2.05749,2.25812 2.42057,3.37646c0.54121,1.66697 0.0244,4.38172 0.02416,6.14395c-0.00093,6.77402 -0.05478,15.46169 -6.37526,19.28806c-5.99162,3.59525 -14.15212,2.88407 -20.83792,2.88409c-4.62455,0.00006 -9.34571,-0.2573 -13.95902,0.10203c-2.25059,0.1753 -4.51646,1.08562 -6.77906,1.42082c-2.42807,0.57918 -5.633,1.23239 -8.55198,1.22509z" fill="#000000" stroke-width="0.5"/><path d="M289.21624,143.14215c1.54197,4.66423 -1.85147,9.98045 -7.57948,11.87411c-5.728,1.89365 -18.76935,-13.02471 -18.76935,-13.02471c0,0 24.80683,-3.51362 26.34881,1.15061z" data-paper-data="{&quot;index&quot;:null}" fill="#ffffff" stroke-width="0"/><path d="M295.50777,143.05023c-1.54197,-4.66422 20.47093,-16.62903 20.47093,-16.62903c0,0 -1.57949,19.75196 -7.30749,21.64561c-5.72801,1.89365 -11.62149,-0.35234 -13.16347,-5.01658z" data-paper-data="{&quot;index&quot;:null}" fill="#ffffff" stroke-width="0"/></g></g></svg>