<svg version="1.1" xmlns="http://www.w3.org/2000/svg" xmlns:xlink="http://www.w3.org/1999/xlink" width="103.96231" height="101.14546" viewBox="0,0,103.96231,101.14546"><defs><linearGradient x1="250.22535" y1="206.57517" x2="263.12771" y2="219.97253" gradientUnits="userSpaceOnUse" id="color-1"><stop offset="0" stop-color="#ffffff"/><stop offset="1" stop-color="#9f9f9f"/></linearGradient></defs><g transform="translate(-201.17097,-139.69698)"><g data-paper-data="{&quot;isPaintingLayer&quot;:true}" stroke-miterlimit="10" stroke-dasharray="" stroke-dashoffset="0" style="mix-blend-mode: normal"><path d="M246.02354,197.02452c0.14707,2.21548 -0.23459,10.60918 2.06972,12.07212c2.21146,1.35626 9.33307,-0.15463 9.39308,4.76129c0.06695,4.81618 -6.42441,4.46621 -11.70768,2.5962c-6.85177,-2.37976 -9.30379,-13.27552 -4.85674,-19.58295c1.65553,-2.19071 4.96147,-2.1619 5.10162,0.15335z" data-paper-data="{&quot;index&quot;:null}" fill="#717171" fill-rule="evenodd" stroke="#001026" stroke-width="1.2" stroke-linecap="round" stroke-linejoin="round"/><g data-paper-data="{&quot;index&quot;:null}" fill-rule="nonzero" stroke="#001026" stroke-width="1.2" stroke-linejoin="miter"><g><g><path d="M253.0295,211.6493l-7.49169,-7.77912l1.87275,-1.80356l7.49169,7.77912z" fill="#2c2c2c" stroke-linecap="butt"/><path d="M261.17817,219.8717l1.76548,-1.62576l9.58416,11.29353z" fill="#6c6c6c" stroke-linecap="butt"/><path d="M260.46264,222.53913l-12.90235,-13.39736l5.33013,-5.13319l12.90236,13.39736z" fill="url(#color-1)" stroke-linecap="butt"/><path d="M252.09561,208.66134l-2.73178,2.35318" fill="none" stroke-linecap="round"/><path d="M254.4541,211.11033l-2.44365,2.0757" fill="none" stroke-linecap="round"/><path d="M255.82548,213.39928l-2.29428,1.65417" fill="none" stroke-linecap="round"/><path d="M256.45529,217.51308l1.58463,-1.52608" fill="none" stroke-linecap="round"/><path d="M260.82527,218.30256l-2.57707,1.64885" fill="none" stroke-linecap="round"/></g><path d="M244.35874,206.39403l-1.94229,-2.0168l5.47419,-5.27193l1.9423,2.01681z" fill="#2c2c2c" stroke-linecap="butt"/></g><path d="M255.18521,213.5994c2.03046,2.10837 2.74128,4.71817 1.58764,5.82917c-1.15363,1.11101 -3.73485,0.30249 -5.76531,-1.80587c-2.03046,-2.10837 -2.74127,-4.71818 -1.58764,-5.82919c1.15363,-1.11101 3.73485,-0.30249 5.76532,1.80587z" fill="#717171" stroke-linecap="butt"/><path d="M261.83847,205.80363c3.10316,3.22221 3.9741,7.41825 1.9453,9.37209c-2.0288,1.95384 -6.18907,0.92562 -9.29223,-2.29659c-3.10316,-3.22221 -3.9741,-7.41824 -1.94531,-9.37208c2.0288,-1.95384 6.18908,-0.92563 9.29224,2.29658z" fill="#717171" stroke-linecap="butt"/></g><g fill-rule="evenodd"><path d="M229.22863,205.8729c0.26236,0.96496 2.32881,3.0768 -1.73608,3.82963c-4.12091,0.62299 -13.64875,-0.04054 -19.0045,-10.66767c-5.74796,-11.53607 3.31034,-20.52758 7.54731,-19.27533c4.14402,1.21535 -0.01961,7.09363 -0.01742,15.48708c-0.08144,12.12615 12.94833,9.66131 13.21068,10.62628z" fill="#717171" stroke="#001026" stroke-width="1.2" stroke-linecap="round" stroke-linejoin="round"/><path d="M216.71838,185.62584c-1.15932,4.27387 -1.33721,7.43114 -1.33721,7.43114c0,0 -0.74884,-2.44932 -3.12702,-2.96339c-2.87978,-0.60568 -4.60206,1.29268 -4.95337,1.90634c-0.02311,-1.83834 0.19435,-4.01152 1.70896,-7.28351c1.75652,-3.06832 5.12992,-5.60213 7.30577,-4.30764c1.71115,1.10995 1.02766,2.56006 0.40286,5.21706z" fill="#ffffff" stroke="none" stroke-width="1" stroke-linecap="butt" stroke-linejoin="miter"/></g><path d="M248.3198,236.3753c0,3.86599 -11.83333,3 -11.83333,3c0,0 -10.5,0.86599 -10.5,-3c0,-3.45051 2.7452,-32.89294 7.69909,-34.5825c3.83539,-1.30808 4.43187,28.24917 5.13424,28.24917c6.53537,0 9.5,2.46734 9.5,6.33333z" fill="#717171" fill-rule="nonzero" stroke="#001026" stroke-width="1.2" stroke-linecap="butt" stroke-linejoin="miter"/><path d="M218.75542,239.66408c-2.60945,2.85248 -10.75603,-5.7737 -10.75603,-5.7737c0,0 -8.33184,-6.44829 -5.72238,-9.30077c2.32901,-2.54592 24.22747,-22.41676 29.02306,-20.31962c3.71282,1.62364 -15.79751,23.83475 -15.27927,24.30883c4.82205,4.41122 5.34408,8.23278 2.73463,11.08526z" fill="#717171" fill-rule="nonzero" stroke="#001026" stroke-width="1.2" stroke-linecap="butt" stroke-linejoin="miter"/><g fill-rule="evenodd"><path d="M228.66591,213.13299c-8.60298,-3.22246 -3.28737,-10.41745 0.33632,-19.13575c1.92509,-4.7227 5.98284,-9.84104 12.07437,-9.26365c3.43336,0.14813 2.71278,6.42985 4.89088,6.10441c3.27228,-0.43841 3.16847,4.39782 2.53002,6.97704c0,0 -1.01256,3.82422 -2.11054,5.8477c-1.34503,2.55165 -2.889,5.12385 -3.99021,6.14234c0,0 -4.4634,6.79924 -13.73081,3.32791z" fill="#717171" stroke="#001026" stroke-width="1.2" stroke-linecap="round" stroke-linejoin="round"/><path d="M241.61921,209.78773c0,0 -1.61532,-1.03959 -3.36093,-2.36733c-2.17431,-1.58506 -4.31779,-2.87169 -2.64677,-6.16072c1.54396,-2.57219 2.90631,-5.92987 7.68037,-3.50741c4.55458,2.24406 2.92141,4.92598 2.92141,4.92598c-1.72616,4.70216 -4.59408,7.10949 -4.59408,7.10949z" fill="#ffffff" stroke="none" stroke-width="1" stroke-linecap="butt" stroke-linejoin="miter"/></g><path d="M238.59541,197.35868c0.65366,2.32653 -1.74912,6.10496 -1.71881,7.22258c0.0532,0.31173 4.91882,2.88188 7.81538,4.44069c4.12058,2.15194 1.80121,8.675 -2.8061,8.37053c-4.29558,-0.35767 -11.90565,-5.47499 -13.19041,-6.98807c-3.01807,-3.39873 1.25747,-12.71591 3.98744,-18.96037" fill="#717171" fill-rule="evenodd" stroke="#001026" stroke-width="1.2" stroke-linecap="round" stroke-linejoin="round"/><g><g><path d="M269.82599,140.17865c0.28945,-0.21499 0.79388,-0.14053 0.91408,0.25387l3.14048,10.55402c0,0 6.63061,4.36864 8.69588,7.5678c3.47541,5.33025 3.804,9.81935 3.804,9.81935c0,0 7.19756,1.73642 8.68572,7.36806c1.48816,5.63164 -2.35723,16.64132 -20.94488,21.29207c-18.58764,4.65075 -33.92734,0.32482 -41.59758,-10.69958c-7.67024,-11.0244 2.82405,-25.17608 2.26548,-24.34661l-3.00708,-17.77013c-0.1202,-0.3944 0.3639,-0.71943 0.77355,-0.54001l12.48589,7.27479c0,0 4.40778,-1.92652 9.09154,-2.36515c2.78622,-0.34205 5.19328,-0.2643 7.51064,0.01829z" fill="#717171" fill-rule="evenodd" stroke="#001026" stroke-width="1.2" stroke-linecap="butt" stroke-linejoin="miter"/><path d="M279.41583,167.77174c0.20702,4.06784 -5.71739,7.67551 -13.23255,8.05798c-7.51515,0.38246 -13.77521,-2.60513 -13.98223,-6.67296c-0.20702,-4.06784 5.71739,-7.67551 13.23255,-8.05798c7.51515,-0.38246 13.77521,2.60513 13.98223,6.67296z" fill="#393939" fill-rule="nonzero" stroke="none" stroke-width="NaN" stroke-linecap="butt" stroke-linejoin="miter"/><path d="M286.10116,168.78842c0,0 6.98257,1.44697 8.47073,7.07861c1.48816,5.63164 -2.78213,16.16229 -21.17511,20.70301c-23.91459,6.22353 -36.13162,-7.57335 -29.97904,-18.50019c6.1475,-11.02671 18.09515,-2.52297 26.4538,-3.54913c7.16528,-0.8653 7.64404,-7.19782 16.22963,-5.7323z" fill="#ffffff" fill-rule="evenodd" stroke="none" stroke-width="1" stroke-linecap="butt" stroke-linejoin="miter"/><path d="M304.53328,168.9518c-4.50079,4.03397 -11.6864,4.49979 -11.6864,4.49979" fill="none" fill-rule="evenodd" stroke="#001026" stroke-width="1.2" stroke-linecap="round" stroke-linejoin="round"/><path d="M269.3399,171.94441c2.09729,-0.10674 4.30461,-0.01881 4.44006,0.6752c0.17103,1.39311 -1.18472,4.26573 -2.77757,4.44692c-1.78751,0.29123 -6.10915,-1.99207 -6.19047,-3.59c-0.16086,-1.19337 2.53057,-1.43047 4.52798,-1.53212z" fill="#001026" fill-rule="evenodd" stroke="#001026" stroke-width="1.2" stroke-linecap="round" stroke-linejoin="round"/><path d="M224.32182,172.73353c0,0 8.7312,2.35928 12.38424,5.27738" fill="none" fill-rule="evenodd" stroke="#001026" stroke-width="1.2" stroke-linecap="round" stroke-linejoin="round"/><path d="M237.18356,181.49113c-4.20804,1.91636 -11.65438,1.19389 -11.65438,1.19389" fill="none" fill-rule="evenodd" stroke="#001026" stroke-width="1.2" stroke-linecap="round" stroke-linejoin="round"/><path d="M280.52998,159.65978c3.12497,4.34679 3.48405,9.43511 0.77916,11.3751c-2.70489,1.93999 -7.40568,0.0765 -10.63052,-4.2652c-3.12497,-4.34679 -3.48405,-9.43511 -0.77916,-11.3751c2.69981,-2.03986 7.50555,-0.08158 10.63052,4.2652z" fill="#ffffff" fill-rule="evenodd" stroke="#001026" stroke-width="1.2" stroke-linecap="round" stroke-linejoin="round"/><path d="M255.90435,163.71665c3.21976,4.24183 3.29448,9.64502 0.69454,11.6798c-3.19916,2.06527 -7.66463,0.89072 -10.88439,-3.35112c-3.31963,-4.23675 -3.53399,-9.43257 -0.54981,-11.78729c2.97909,-2.45459 7.51991,-0.78322 10.73967,3.45861z" fill="#ffffff" fill-rule="evenodd" stroke="#001026" stroke-width="1.2" stroke-linecap="round" stroke-linejoin="round"/><path d="M263.92911,189.73264c-0.38392,3.22988 -16.77059,12.74895 -23.78405,11.91531c-7.01345,-0.83365 -1.99783,-11.70433 -1.61391,-14.93421c0.38392,-3.22988 3.63724,3.65194 10.6507,4.48559c7.01345,0.83365 15.13118,-4.69656 14.74726,-1.46668z" fill="#000000" fill-rule="nonzero" stroke="#001026" stroke-width="1.2" stroke-linecap="butt" stroke-linejoin="miter"/></g><path d="M303.80422,180.20339c-6.26644,0.81956 -10.25797,-0.87976 -10.25797,-0.87976" fill="none" fill-rule="evenodd" stroke="#001026" stroke-width="1.2" stroke-linecap="round" stroke-linejoin="round"/></g></g></g></svg>