<svg version="1.1" xmlns="http://www.w3.org/2000/svg" xmlns:xlink="http://www.w3.org/1999/xlink" width="161.97744" height="122.70697" viewBox="0,0,161.97744,122.70697"><defs><linearGradient x1="257.88239" y1="201.70039" x2="252.95378" y2="219.63553" gradientUnits="userSpaceOnUse" id="color-1"><stop offset="0" stop-color="#ffffff"/><stop offset="1" stop-color="#9f9f9f"/></linearGradient></defs><g transform="translate(-131.1393,-118.01789)"><g data-paper-data="{&quot;isPaintingLayer&quot;:true}" stroke-miterlimit="10" stroke-dasharray="" stroke-dashoffset="0" style="mix-blend-mode: normal"><g stroke="#001026" stroke-width="1.2"><path d="M241.4555,194.60181c0.85209,2.05035 3.19145,10.12051 5.84393,10.76422c2.53025,0.57259 8.787,-3.14938 10.42556,1.48583c1.61302,4.53852 -4.64575,6.2958 -10.24976,6.22514c-7.25312,-0.04862 -13.08052,-9.57603 -10.89939,-16.9789c0.86263,-2.60689 4.00202,-3.64332 4.87966,-1.49629z" data-paper-data="{&quot;index&quot;:null}" fill="#878787" fill-rule="evenodd" stroke-linecap="round" stroke-linejoin="round"/><g data-paper-data="{&quot;index&quot;:null}" fill-rule="nonzero" stroke-linejoin="miter"><g><g><path d="M254.95212,206.70276l2.86179,-10.41396l2.50705,0.68894l-2.86179,10.41396z" fill="#2c2c2c" stroke-linecap="butt"/><path d="M252.04479,217.90793l2.29942,0.68753l-4.81457,14.00785z" fill="#6c6c6c" stroke-linecap="butt"/><path d="M249.38604,218.6551l4.92863,-17.93513l7.13546,1.96085l-4.92861,17.93513z" fill="url(#color-1)" stroke-linecap="butt"/><path d="M257.04404,204.37379l-3.41834,-1.14678" fill="none" stroke-linecap="round"/><path d="M253.11047,206.61148l3.03261,1.04078" fill="none" stroke-linecap="round"/><path d="M254.8756,210.00034l-2.59392,-1.12765" fill="none" stroke-linecap="round"/><path d="M253.78182,213.22581l-2.12135,-0.58295" fill="none" stroke-linecap="round"/><path d="M250.47981,215.42962l2.73379,1.3735" fill="none" stroke-linecap="round"/></g><path d="M255.04186,196.56412l0.74193,-2.69992l7.32835,2.01384l-0.74194,2.69993z" fill="#2c2c2c" stroke-linecap="butt"/></g><path d="M254.37655,209.55207c-0.77562,2.82247 -2.65634,4.7665 -4.20071,4.34211c-1.54438,-0.4244 -2.16759,-3.05651 -1.39195,-5.87898c0.77562,-2.82247 2.65636,-4.76649 4.20074,-4.34211c1.54438,0.4244 2.16758,3.0565 1.39195,5.87899z" fill="#878787" stroke-linecap="butt"/><path d="M264.47691,211.29061c-1.18539,4.31359 -4.34807,7.20543 -7.06404,6.45908c-2.71597,-0.74635 -3.95676,-4.84825 -2.77137,-9.16184c1.18539,-4.31359 4.34807,-7.20542 7.06404,-6.45908c2.71596,0.74635 3.95677,4.84825 2.77139,9.16186z" fill="#878787" stroke-linecap="butt"/></g></g><path d="M131.72214,145.45702c-0.83241,-4.46554 1.04458,-10.84097 4.014,-13.53173c1.07316,-0.97245 3.17136,-1.57815 4.48902,-2.20138c1.68061,-2.7999 2.70955,-7.74613 5.86193,-9.28416c2.54968,-1.24398 7.40323,-0.43431 10.19878,-0.43586c5.35782,-0.00299 11.60453,0.341 16.83931,-0.94532c1.42462,-0.35006 2.39194,-1.00121 3.93011,-1.03077c5.25999,-0.08643 10.96815,0.3737 15.96264,2.12912c1.63168,0.57349 3.49755,0.857 4.55808,2.26247c1.44847,1.15469 4.46406,3.00736 5.3558,4.59373c2.46521,4.38553 1.85695,8.67008 6.84187,11.49011c1.68695,6.49535 0.47633,14.57892 0.47633,21.27651c0,7.49495 2.86029,12.87502 7.45455,18.61418c2.87961,3.59726 6.2366,5.4598 9.80465,8.18328c1.81418,1.38476 3.35219,3.23653 5.13706,4.69551l0.82957,0.48672c0.15226,0.0857 0.2551,0.24885 0.2551,0.43602c0,0.2609 -0.19983,0.47513 -0.45478,0.49798l-0.98922,0.10107l-0.01143,-0.1119c-1.64594,0.31375 -3.29179,0.25787 -5.02431,0.28981c-4.50549,0.08306 -9.86932,0.60169 -13.95044,-1.39157c-1.81306,-0.73941 -3.96868,-1.07338 -5.69448,-1.95409c-4.57845,-2.33649 -7.46208,-6.20858 -13.02857,-5.26159c-7.09222,1.99643 -13.77507,3.16518 -20.7094,0.3359c-3.05323,-1.25627 -6.40446,-1.67316 -9.58511,-2.55419c-3.40065,-0.94197 -6.9931,-2.52632 -10.28467,-3.88171c-1.5275,-0.63248 -2.90386,-1.70942 -4.41612,-2.29141c-2.39311,-0.92099 -4.26031,-1.17119 -6.26742,-2.88952c-2.25634,-1.93171 -2.89462,-5.13239 -6.25725,-5.54089c-1.75057,-0.05744 -4.601,-0.9231 -5.59456,-2.67847c-0.57143,-1.00958 -0.21267,-3.1087 -0.21308,-4.2366c-0.00135,-3.66673 -0.00008,-7.33346 -0.00008,-11.00018c0,-1.47012 -0.14113,-2.75138 0.4481,-4.11683zM132.2336,148.7957c0.00595,-0.49977 0.01315,-0.99853 0.02178,-1.49611c-0.04867,0.48981 -0.03637,0.98755 -0.02178,1.49611zM132.24942,164.18323c-0.00149,-1.07131 -0.0057,-2.14546 -0.01086,-3.2209c-0.05433,0.92391 -0.27061,2.42409 0.01086,3.2209z" fill="#000000" fill-rule="nonzero" stroke="none" stroke-width="0.5" stroke-linecap="butt" stroke-linejoin="miter"/><g fill-rule="evenodd"><path d="M224.78334,200.96667c0.6,0.8 3.3,2 -0.2,4.2c-3.6,2.1 -12.7,5 -21.6,-2.9c-9.6,-8.6 -4.5,-20.3 -0.1,-20.7c4.3,-0.4 2.6,6.6 5.7,14.4c4.4,11.3 15.6,4.2 16.2,5z" fill="#878787" stroke="#001026" stroke-width="1.2" stroke-linecap="round" stroke-linejoin="round"/><path d="M205.68334,186.76667c0.5,4.4 1.5,7.4 1.5,7.4c0,0 -1.6,-2 -4,-1.6c-2.9,0.5 -3.8,2.9 -3.9,3.6c-0.7,-1.7 -1.3,-3.8 -1.1,-7.4c0.5,-3.5 2.7,-7.1 5.2,-6.7c2,0.4 1.9,2 2.3,4.7z" fill="#ffffff" stroke="none" stroke-width="1" stroke-linecap="butt" stroke-linejoin="miter"/></g><path d="M226.4449,192.91737c-0.53175,2.35738 -4.44264,4.53794 -4.94762,5.53543c-0.10149,0.2995 2.95576,4.87478 4.76209,7.62381c2.60084,3.853 -2.54229,8.48745 -6.4501,6.02796c-3.6083,-2.35799 -7.86791,-10.47931 -8.27824,-12.42138c-1.03797,-4.42523 7.15496,-10.58688 12.52673,-14.78095" fill="#878787" fill-rule="evenodd" stroke="#001026" stroke-width="1.2" stroke-linecap="round" stroke-linejoin="round"/><path d="M248.3198,236.3753c0,3.86599 -11.83333,3 -11.83333,3c0,0 -10.5,0.86599 -10.5,-3c0,-3.45051 2.7452,-32.89294 7.69909,-34.5825c3.83539,-1.30808 4.43187,28.24917 5.13424,28.24917c6.53537,0 9.5,2.46734 9.5,6.33333z" fill="#878787" fill-rule="nonzero" stroke="#001026" stroke-width="1.2" stroke-linecap="butt" stroke-linejoin="miter"/><path d="M242.3198,237.04197c0,3.86599 -11.83333,3 -11.83333,3c0,0 -10.5,0.86599 -10.5,-3c0,-3.45051 2.7452,-32.89294 7.69909,-34.58249c3.83539,-1.30808 4.43187,28.24916 5.13424,28.24916c6.53537,0 9.5,2.46734 9.5,6.33333z" fill="#878787" fill-rule="nonzero" stroke="#001026" stroke-width="1.2" stroke-linecap="butt" stroke-linejoin="miter"/><g fill-rule="evenodd"><path d="M228.46746,211.92774c-9.18562,-0.14169 -6.59918,-8.70522 -6.1184,-18.13437c0.22478,-5.09504 2.32496,-11.27985 8.25588,-12.7846c3.28322,-1.01509 4.71707,5.1431 6.65887,4.10414c2.93427,-1.51331 4.46287,3.07617 4.72896,5.71988c0,0 0.33245,3.94201 -0.02111,6.21687c-0.40861,2.85536 -0.99765,5.79696 -1.69222,7.12646c0,0 -1.91695,7.90424 -11.81198,7.75161z" fill="#878787" stroke="#001026" stroke-width="1.2" stroke-linecap="round" stroke-linejoin="round"/><path d="M239.54139,204.42127c0,0 -1.87085,-0.43583 -3.96129,-1.09921c-2.58071,-0.76155 -5.03204,-1.25242 -4.5644,-4.91184c0.58904,-2.9416 0.7429,-6.56186 6.05356,-5.88595c5.04397,0.58172 4.40781,3.65665 4.40781,3.65665c-0.04435,5.00879 -1.93568,8.24035 -1.93568,8.24035z" fill="#ffffff" stroke="none" stroke-width="1" stroke-linecap="butt" stroke-linejoin="miter"/></g><path d="M220.06371,195.99621l2.11464,-8.76682l4.89755,0.85834l-2.11464,8.76682z" fill="#878787" fill-rule="nonzero" stroke="#001026" stroke-width="0" stroke-linecap="butt" stroke-linejoin="miter"/><path d="M169.5,147.83333c0,5.24671 -5.22334,9.5 -11.66667,9.5c-6.44332,0 -14.66667,-19.5 -14.66667,-19.5c0,0 26.33333,4.75329 26.33333,10z" fill="#ffffff" fill-rule="nonzero" stroke="none" stroke-width="0" stroke-linecap="butt" stroke-linejoin="miter"/><path d="M203.16667,134.83334c0,0 -8.22335,19.5 -14.66667,19.5c-6.44332,0 -11.66666,-4.2533 -11.66666,-9.5c0,-5.2467 26.33334,-10 26.33334,-10z" data-paper-data="{&quot;index&quot;:null}" fill="#ffffff" fill-rule="nonzero" stroke="none" stroke-width="0" stroke-linecap="butt" stroke-linejoin="miter"/><g><path d="M262.44384,139.8639c0.31805,-0.16984 0.80593,-0.02164 0.86652,0.3862l1.54593,10.90229c0,0 5.91202,5.30076 7.48171,8.77007c2.64934,5.78542 2.31075,10.27377 2.31075,10.27377c0,0 6.86183,2.78126 7.50119,8.571c0.63937,5.78975 -4.79119,16.11007 -23.8621,17.96219c-19.07091,1.85211 -33.60266,-4.69375 -39.55906,-16.73082c-5.9564,-12.03708 6.51445,-24.48208 5.83941,-23.7443l-0.34733,-18.01941c-0.06058,-0.40784 0.46624,-0.65773 0.84487,-0.41973l11.2734,9.04049c0,0 4.64413,-1.25382 9.34127,-0.99529c2.80618,0.07355 5.1753,0.50626 7.42543,1.12828z" fill="#878787" fill-rule="evenodd" stroke="#001026" stroke-width="1.2" stroke-linecap="butt" stroke-linejoin="miter"/><path d="M267.84964,168.57141c-0.39654,4.05375 -6.78915,6.74608 -14.27829,6.01348c-7.48914,-0.7326 -13.23881,-4.6127 -12.84227,-8.66645c0.39654,-4.05375 6.78915,-6.74608 14.27829,-6.01348c7.48914,0.7326 13.23881,4.6127 12.84227,8.66645z" fill="#535353" fill-rule="nonzero" stroke="none" stroke-width="NaN" stroke-linecap="butt" stroke-linejoin="miter"/><path d="M274.31125,170.56512c0,0 6.69198,2.46321 7.33134,8.25296c0.63937,5.78975 -5.14061,15.57351 -24.00274,17.34557c-24.57183,2.6202 -34.61525,-12.83099 -26.91509,-22.72834c7.70989,-9.99688 18.26931,0.17949 26.68783,0.40014c7.21447,0.20335 8.62402,-5.98883 16.89867,-3.27033z" fill="#ffffff" fill-rule="evenodd" stroke="none" stroke-width="1" stroke-linecap="butt" stroke-linejoin="miter"/><path d="M292.51674,173.45126c-5.04762,3.32437 -12.22317,2.72293 -12.22317,2.72293" fill="none" fill-rule="evenodd" stroke="#001026" stroke-width="1.2" stroke-linecap="round" stroke-linejoin="round"/><path d="M290.13252,184.47149c-6.31874,-0.11573 -10.01525,-2.38639 -10.01525,-2.38639" fill="none" fill-rule="evenodd" stroke="#001026" stroke-width="1.2" stroke-linecap="round" stroke-linejoin="round"/><path d="M257.26761,171.20886c2.09002,0.20445 4.2601,0.61769 4.29147,1.32409c-0.03677,1.40308 -1.80224,4.04375 -3.40438,3.9875c-1.81092,0.0238 -5.74758,-2.87322 -5.59181,-4.46562c0.01731,-1.20403 2.71421,-1.0407 4.70471,-0.84599z" fill="#001026" fill-rule="evenodd" stroke="#001026" stroke-width="1.2" stroke-linecap="round" stroke-linejoin="round"/><path d="M212.62741,165.33492c0,0 8.28655,3.62397 11.46811,7.05" fill="none" fill-rule="evenodd" stroke="#001026" stroke-width="1.2" stroke-linecap="round" stroke-linejoin="round"/><path d="M224.05336,175.8975c-4.44508,1.27329 -11.70284,-0.54193 -11.70284,-0.54193" fill="none" fill-rule="evenodd" stroke="#001026" stroke-width="1.2" stroke-linecap="round" stroke-linejoin="round"/><path d="M270.15063,160.71325c2.44812,4.76096 2.05112,9.84647 -0.91082,11.36532c-2.96194,1.51885 -7.33564,-1.01902 -9.88328,-5.78971c-2.44812,-4.76096 -2.05112,-9.84647 0.91082,-11.36532c2.97167,-1.61838 7.43517,1.02875 9.88328,5.78971z" fill="#ffffff" fill-rule="evenodd" stroke="#001026" stroke-width="1.2" stroke-linecap="round" stroke-linejoin="round"/><path d="M245.19584,161.0855c2.55738,4.67117 1.8326,10.02605 -1.03955,11.65416c-3.46931,1.5697 -7.7121,-0.25202 -10.26948,-4.9232c-2.6569,-4.68091 -2.10088,-9.85134 1.19857,-11.73908c3.3092,-1.98727 7.55308,0.33694 10.11046,5.00812z" fill="#ffffff" fill-rule="evenodd" stroke="#001026" stroke-width="1.2" stroke-linecap="round" stroke-linejoin="round"/><path d="M255.34961,185.93694c-0.26212,2.67959 -15.90449,6.10559 -22.63784,5.44692c-6.73334,-0.65867 -2.00791,-5.15257 -1.74578,-7.83217c0.26212,-2.67959 2.18739,0.59076 8.92074,1.24943c6.73334,0.65867 15.725,-1.54379 15.46289,1.13581z" fill="#ffffff" fill-rule="nonzero" stroke="#001026" stroke-width="1.2" stroke-linecap="butt" stroke-linejoin="miter"/><path d="M232.28717,190.58875l1.90122,-6.59624" fill="none" fill-rule="nonzero" stroke="#001026" stroke-width="1.2" stroke-linecap="round" stroke-linejoin="miter"/></g></g></g></svg>