<svg version="1.1" xmlns="http://www.w3.org/2000/svg" xmlns:xlink="http://www.w3.org/1999/xlink" width="112.26621" height="76.03915" viewBox="0,0,112.26621,76.03915"><g transform="translate(-173.06199,-111.6728)"><g data-paper-data="{&quot;isPaintingLayer&quot;:true}" fill-rule="nonzero" stroke="none" stroke-linecap="butt" stroke-linejoin="miter" stroke-miterlimit="10" stroke-dasharray="" stroke-dashoffset="0" style="mix-blend-mode: normal"><path d="M175.7387,148.26148c0.63534,-2.16665 0.68954,-4.31958 1.09752,-6.5978c0.25023,-1.3973 1.15509,-2.55205 1.28858,-4.00907c0.20436,-2.23038 0.14557,-4.30301 1.12281,-6.3937c0.77388,-1.68788 0.33644,-3.38744 0.87679,-5.12856c2.0104,-6.47787 6.13339,-9.03139 12.23098,-11.30182c2.1396,-0.3751 5.56992,-1.23494 7.70809,-0.67222c4.4995,1.18415 9.48345,2.6998 14.03333,0.60711c2.17771,-1.00097 3.98749,-1.01429 6.22132,-1.56628c2.40388,-0.59401 4.56767,-1.9243 7.35571,-1.41087c2.68598,0.49464 5.59958,1.83694 8.13931,2.85678c1.41479,0.58627 2.57919,0.07866 4.04927,0.24499c3.57719,0.40474 8.22252,0.79047 11.61496,1.94293c1.52697,0.51873 7.36813,0.69226 4.08633,2.94585c-2.98125,1.3609 -5.71328,2.5192 -8.57507,4.07539c-3.59962,1.95742 -7.59711,3.54479 -5.51257,8.66817c2.36534,3.16708 5.30426,6.1689 7.83556,9.61998c0.90852,1.23864 0.33491,2.84757 1.27296,3.89369c1.07759,1.20173 2.88514,2.09855 4.24917,2.9322c1.363,0.84441 4.42574,0.68921 4.91944,2.50264c0.59376,2.18095 -2.687,4.9655 -3.14548,6.97464c-0.69148,3.03015 0.65846,6.17315 2.35252,8.54448c0.98697,1.40392 2.60024,2.24946 3.93317,3.32259c4.42637,3.5636 9.45154,5.97209 14.45054,8.73304c2.46009,1.35871 7.06783,2.98781 7.68472,5.93156c0.10049,0.4795 0.50788,2.19938 0.16423,2.57631c-0.17958,0.19697 -2.18906,0.16233 -2.55204,0.14331c-2.88424,-0.15119 -5.67158,-0.79555 -8.49232,-1.36985c-7.27387,-1.48331 -14.62124,-3.4826 -21.52212,-6.34568c-6.73804,-2.79693 -14.66798,-2.93532 -21.79132,-4.23333c-7.22114,-1.31892 -14.85855,-3.36596 -21.53027,-6.36876c-3.30304,-1.48663 -7.39685,-3.00445 -11.02442,-3.36511c-2.4604,-0.24462 -5.2366,0.39264 -7.57074,-0.71462c-0.96984,-0.46008 -1.64784,-1.17876 -2.70205,-1.58135c-2.6083,-1.01556 -3.81552,-3.18509 -5.29219,-5.12438c-0.60047,-0.78859 -1.16203,-2.71011 -2.15194,-3.2912c-0.57098,-0.33517 -1.0474,-0.83123 -1.45206,-1.35527c-0.76681,-0.99304 -2.83118,-0.62458 -3.84182,-1.19813c-1.83086,-1.03903 -2.17683,-2.20771 -2.20763,-4.20379c1.02905,-0.3986 1.82375,-0.36268 2.67666,-0.28387z" fill="#000000" stroke-width="0.5"/><path d="M214.67584,134.90316c1.26849,-4.74591 26.23751,-2.67896 26.23751,-2.67896c0,0 -12.1529,15.65059 -17.98122,14.09281c-5.82832,-1.5578 -9.52479,-6.66796 -8.25631,-11.41387z" data-paper-data="{&quot;index&quot;:null}" fill="#ffffff" stroke-width="0"/><path d="M207.89746,135.20541c-1.26849,4.74591 -7.02157,7.3304 -12.84989,5.77262c-5.8283,-1.55779 -8.55229,-21.18467 -8.55229,-21.18467c0,0 22.67063,10.66615 21.40216,15.41206z" data-paper-data="{&quot;index&quot;:null}" fill="#ffffff" stroke-width="0"/></g></g></svg>