<svg version="1.1" xmlns="http://www.w3.org/2000/svg" xmlns:xlink="http://www.w3.org/1999/xlink" width="101.57445" height="101.91055" viewBox="0,0,101.57445,101.91055"><defs><linearGradient x1="254.97548" y1="207.07383" x2="256.92089" y2="225.57182" gradientUnits="userSpaceOnUse" id="color-1"><stop offset="0" stop-color="#ffffff"/><stop offset="1" stop-color="#9f9f9f"/></linearGradient><radialGradient cx="274.42972" cy="166.59475" r="8.13758" gradientUnits="userSpaceOnUse" id="color-2"><stop offset="0" stop-color="#ffffff"/><stop offset="1" stop-color="#1a1a1a"/></radialGradient><radialGradient cx="252.55482" cy="169.81164" r="6.75889" gradientUnits="userSpaceOnUse" id="color-3"><stop offset="0" stop-color="#ffffff"/><stop offset="1" stop-color="#1a1a1a"/></radialGradient></defs><g transform="translate(-201.67889,-138.81432)"><g data-paper-data="{&quot;isPaintingLayer&quot;:true}" stroke-miterlimit="10" stroke-dasharray="" stroke-dashoffset="0" style="mix-blend-mode: normal"><path d="M245.49935,198.47537c-0.11802,2.21722 -1.49731,10.50561 0.61622,12.23275c2.03406,1.61015 9.28498,0.95878 8.75869,5.84682c-0.50752,4.78983 -6.9109,3.66872 -11.93365,1.18238c-6.51932,-3.17939 -7.65531,-14.28972 -2.48824,-20.0222c1.90482,-1.97779 5.18376,-1.55519 5.04698,0.76026z" data-paper-data="{&quot;index&quot;:null}" fill="#717171" fill-rule="evenodd" stroke="#001026" stroke-width="1.2" stroke-linecap="round" stroke-linejoin="round"/><g fill-rule="nonzero" stroke="#001026" stroke-width="1.2" stroke-linejoin="miter"><g><g><path d="M254.06942,212.80001l-1.12959,-10.74077l2.58574,-0.27194l1.12959,10.74077z" fill="#2c2c2c" stroke-linecap="butt"/><path d="M255.44488,224.29421l2.39185,-0.1976l0.62059,14.79915z" fill="#6c6c6c" stroke-linecap="butt"/><path d="M253.24118,225.95881l-1.94541,-18.49798l7.35941,-0.77398l1.94541,18.49799z" fill="url(#color-1)" stroke-linecap="butt"/><path d="M251.56771,210.04656l3.60118,-0.17763" fill="none" stroke-linecap="round"/><path d="M252.32113,213.38608l3.20336,-0.13579" fill="none" stroke-linecap="round"/><path d="M252.37324,215.79383l2.82648,0.10495" fill="none" stroke-linecap="round"/><path d="M253.1685,219.53115l2.18793,-0.2301" fill="none" stroke-linecap="round"/><path d="M253.08447,222.55654l3.0463,0.28293" fill="none" stroke-linecap="round"/></g><path d="M250.45868,203.3257l-0.29286,-2.78464l7.55832,-0.7949l0.29286,2.78465z" fill="#2c2c2c" stroke-linecap="butt"/></g><path d="M254.57164,215.66318c0.30615,2.91106 -0.73691,5.40673 -2.32975,5.57424c-1.59284,0.16752 -3.13228,-2.05656 -3.43843,-4.96761c-0.30615,-2.91106 0.73692,-5.40673 2.32976,-5.57425c1.59284,-0.16752 3.13228,2.05656 3.43843,4.96762z" fill="#717171" stroke-linecap="butt"/><path d="M264.6111,213.60183c0.46789,4.44897 -1.42364,8.2944 -4.22484,8.589c-2.8012,0.2946 -5.45132,-3.07318 -5.91922,-7.52215c-0.46789,-4.44897 1.42363,-8.2944 4.22483,-8.589c2.8012,-0.2946 5.45133,3.07318 5.91923,7.52215z" fill="#717171" stroke-linecap="butt"/></g><g fill-rule="evenodd"><path d="M227.18493,206.06558c0.42309,0.90608 2.81945,2.63453 -1.05748,4.06961c-3.95428,1.3167 -13.45569,2.28791 -20.54547,-7.27007c-7.63127,-10.38671 -0.23923,-20.79141 4.14924,-20.28014c4.29059,0.49076 1.19053,6.99304 2.62422,15.26314c1.98792,11.96237 14.40639,7.31136 14.82948,8.21745z" fill="#717171" stroke="#001026" stroke-width="1.2" stroke-linecap="round" stroke-linejoin="round"/><path d="M211.40475,188.24885c-0.41341,4.40898 -0.05021,7.55033 -0.05021,7.55033c0,0 -1.15561,-2.28572 -3.58662,-2.38665c-2.94089,-0.10565 -4.31416,2.05864 -4.55566,2.72323c-0.33631,-1.80746 -0.49268,-3.98589 0.44169,-7.46826c1.20747,-3.32295 4.09929,-6.39498 6.46404,-5.49055c1.87538,0.80184 1.44923,2.34728 1.28675,5.07191z" fill="#ffffff" stroke="none" stroke-width="1" stroke-linecap="butt" stroke-linejoin="miter"/></g><path d="M248.3198,236.3753c0,3.86599 -11.83333,3 -11.83333,3c0,0 -10.5,0.86599 -10.5,-3c0,-3.45051 2.7452,-32.89294 7.69909,-34.5825c3.83539,-1.30808 4.43187,28.24917 5.13424,28.24917c6.53537,0 9.5,2.46734 9.5,6.33333z" fill="#717171" fill-rule="nonzero" stroke="#001026" stroke-width="1.2" stroke-linecap="butt" stroke-linejoin="miter"/><path d="M242.3198,237.04197c0,3.86599 -11.83333,3 -11.83333,3c0,0 -10.5,0.86599 -10.5,-3c0,-3.45051 2.7452,-32.89294 7.69909,-34.58249c3.83539,-1.30808 4.43187,28.24916 5.13424,28.24916c6.53537,0 9.5,2.46734 9.5,6.33333z" fill="#717171" fill-rule="nonzero" stroke="#001026" stroke-width="1.2" stroke-linecap="butt" stroke-linejoin="miter"/><g fill-rule="evenodd"><path d="M227.86869,213.31527c-9.02654,-1.70797 -5.01594,-9.70414 -2.93229,-18.91274c1.09141,-4.98184 4.21675,-10.71725 10.3175,-11.18726c3.40832,-0.43961 3.76967,5.87297 5.86035,5.18081c3.14956,-0.99009 3.87211,3.79299 3.68291,6.44331c0,0 -0.34549,3.94089 -1.08227,6.12198c-0.89013,2.74366 -1.97278,5.54151 -2.88415,6.73289c0,0 -3.23837,7.46087 -12.96204,5.621z" fill="#717171" stroke="#001026" stroke-width="1.2" stroke-linecap="round" stroke-linejoin="round"/><path d="M240.06166,207.80979c0,0 -1.76896,-0.74886 -3.71544,-1.75942c-2.41279,-1.191 -4.74431,-2.0932 -3.65873,-5.61904c1.08264,-2.79783 1.85236,-6.33867 6.96964,-4.76594c4.87058,1.43438 3.71875,4.35555 3.71875,4.35555c-0.8989,4.92767 -3.31422,7.78886 -3.31422,7.78886z" fill="#ffffff" stroke="none" stroke-width="1" stroke-linecap="butt" stroke-linejoin="miter"/></g><path d="M228.09887,196.03009c-2.3973,0.30488 -5.78187,-2.62677 -6.89182,-2.76093c-0.31616,0.00684 -3.57304,4.44223 -5.54036,7.07844c-2.73378,3.75985 -8.84547,0.50761 -7.86764,-4.00503c0.98467,-4.19647 7.16417,-10.97245 8.84953,-12.02106c3.80513,-2.48618 12.39334,3.11138 18.16915,6.72885" fill="#717171" fill-rule="evenodd" stroke="#001026" stroke-width="1.2" stroke-linecap="round" stroke-linejoin="round"/><g><g><path d="M269.45333,139.31355c0.3,-0.2 0.8,-0.1 0.9,0.3l2.6,10.7c0,0 6.4,4.7 8.3,8c3.2,5.5 3.3,10 3.3,10c0,0 7.1,2.1 8.3,7.8c1.2,5.7 -3.2,16.5 -22,20.2c-18.8,3.7 -33.9,-1.4 -41,-12.8c-7.1,-11.4 4.1,-25 3.5,-24.2l-2.1,-17.9c-0.1,-0.4 0.4,-0.7 0.8,-0.5l12.1,7.9c0,0 4.5,-1.7 9.2,-1.9c2.8,-0.2 5.2,0 7.5,0.4z" fill="#717171" fill-rule="evenodd" stroke="#001026" stroke-width="1.2" stroke-linecap="butt" stroke-linejoin="miter"/><path d="M277.62833,167.35839c0,4.0731 -6.10012,7.375 -13.625,7.375c-7.52488,0 -13.625,-3.3019 -13.625,-7.375c0,-4.0731 6.10012,-7.375 13.625,-7.375c7.52488,0 13.625,3.3019 13.625,7.375z" fill="#000000" fill-rule="nonzero" stroke="none" stroke-width="NaN" stroke-linecap="butt" stroke-linejoin="miter"/><path d="M284.25334,168.71355c0,0 6.9,1.8 8.1,7.5c1.2,5.7 -3.6,16 -22.2,19.6c-24.2,5 -35.7,-9.4 -29,-20c6.7,-10.7 18.2,-1.6 26.6,-2.2c7.2,-0.5 8,-6.8 16.5,-4.9z" fill="#ffffff" fill-rule="evenodd" stroke="none" stroke-width="1" stroke-linecap="butt" stroke-linejoin="miter"/><path d="M302.65334,169.81355c-4.7,3.8 -11.9,3.9 -11.9,3.9" fill="none" fill-rule="evenodd" stroke="#001026" stroke-width="1.2" stroke-linecap="round" stroke-linejoin="round"/><path d="M301.35334,181.01355c-6.3,0.5 -10.2,-1.4 -10.2,-1.4" fill="none" fill-rule="evenodd" stroke="#001026" stroke-width="1.2" stroke-linecap="round" stroke-linejoin="round"/><path d="M267.35334,171.01355c2.1,0 4.3,0.2 4.4,0.9c0.1,1.4 -1.4,4.2 -3,4.3c-1.8,0.2 -6,-2.3 -6,-3.9c-0.1,-1.2 2.6,-1.3 4.6,-1.3z" fill="#001026" fill-rule="evenodd" stroke="#001026" stroke-width="1.2" stroke-linecap="round" stroke-linejoin="round"/><path d="M222.35334,169.51355c0,0 8.6,2.8 12.1,5.9" fill="none" fill-rule="evenodd" stroke="#001026" stroke-width="1.2" stroke-linecap="round" stroke-linejoin="round"/><path d="M234.75334,178.91355c-4.3,1.7 -11.7,0.6 -11.7,0.6" fill="none" fill-rule="evenodd" stroke="#001026" stroke-width="1.2" stroke-linecap="round" stroke-linejoin="round"/><path d="M280.60094,163.49552c2.9,4.5 1.5524,5.41803 -1.2476,7.21803c-2.8,1.8 -7.4,-0.3 -10.4,-4.8c-1.50686,-2.32353 -3.98558,-6.93834 -2.60058,-6.40492c15.74772,6.0651 13.1918,2.63712 13.79862,3.41347c0.1497,0.19153 0.3172,0.36801 0.44956,0.57341z" fill="url(#color-2)" fill-rule="evenodd" stroke="#001026" stroke-width="1.2" stroke-linecap="round" stroke-linejoin="round"/><path d="M254.35334,162.11355c3,4.4 2.8,9.8 0.1,11.7c-3.3,1.9 -7.7,0.5 -10.7,-3.9c8.80252,-0.53973 7.6,-12.2 10.6,-7.8z" fill="url(#color-3)" fill-rule="evenodd" stroke="#001026" stroke-width="1.2" stroke-linecap="round" stroke-linejoin="round"/><path d="M266.87833,185.85839c0,2.69239 -15.23451,12.625 -22,12.625c-6.76549,0 -2.5,-9.93261 -2.5,-12.625c0,-2.69239 2.23451,0.375 9,0.375c6.76549,0 15.5,-3.06739 15.5,-0.375z" fill="#ffffff" fill-rule="nonzero" stroke="#001026" stroke-width="1.2" stroke-linecap="butt" stroke-linejoin="miter"/><path d="M245.62833,185.98339l-1,12.25" fill="none" fill-rule="nonzero" stroke="#001026" stroke-width="1.2" stroke-linecap="round" stroke-linejoin="miter"/></g><path d="M251.17558,174.27275c0.0177,0.02445 0.0342,0.05262 0.04934,0.08473c0.13509,-0.02611 0.27514,-0.06363 0.4209,-0.11404c0.11788,-0.00075 0.23658,-0.00074 0.3557,-0.00084c0.44663,-0.15999 0.86947,-0.32792 1.08756,-0.38199c0.25571,-0.10258 0.53125,-0.12645 0.79835,-0.13153c0.09536,-0.35307 0.27642,-0.65337 0.75166,-0.76142c0.26829,-0.061 0.50752,-0.05882 0.70673,-0.00862c0.09803,-0.10751 0.19639,-0.20939 0.29309,-0.29715c0.44329,-1.03602 0.71405,-2.55584 0.89845,-3.09629v-0.26296c0,-0.13807 0.11193,-0.25 0.25,-0.25c0.13807,0 0.25,0.11193 0.25,0.25v0.29362l-0.06319,0c0.00186,0.00718 0.0037,0.01438 0.00552,0.02159l0.05444,0.01846c-0.00942,0.02917 -0.01887,0.05946 -0.02834,0.09081c0.41965,1.86285 -0.21402,4.63505 -0.78029,6.74388c-0.08516,2.07256 -0.38978,4.84471 -1.30756,6.40211l0.05052,0.01734l-0.09592,0.27954c-0.03206,0.10109 -0.12665,0.17434 -0.23835,0.17434c-0.13807,0 -0.25,-0.11193 -0.25,-0.25c0,-0.00082 0,-0.00164 0.00001,-0.00246l0.00422,-0.49963l0.0085,0.00007l-0.00689,-0.02642c0.34173,-1.5493 0.56211,-3.08858 0.91293,-4.62708c0.19369,-0.7105 0.32656,-1.38605 0.42699,-2.04818c0.01575,-0.2708 0.0244,-0.54197 0.0244,-0.8134c0.00063,-0.31033 0.04525,-0.61391 0.09317,-0.91739c-0.1045,0.19606 -0.27667,0.39787 -0.52684,0.59113c-1.02499,0.97979 -2.16487,1.06016 -3.23235,1.24671l-0.05829,0.14574c-0.03545,0.09495 -0.12697,0.16256 -0.23428,0.16256c-0.12058,0 -0.22123,-0.08537 -0.24479,-0.19897c-0.65021,0.15778 -1.25947,0.42445 -1.78166,1.04759l-0.25086,0.41118c-0.04342,0.07396 -0.12379,0.12362 -0.21575,0.12362c-0.12849,0 -0.23435,-0.09694 -0.24841,-0.22168l-0.05125,-0.40132l0.0756,-0.00965c-0.10864,-0.61454 0.00441,-1.0854 0.26671,-1.44606c-0.01883,-0.03232 -0.03846,-0.06526 -0.05883,-0.09866c-0.91896,2.00693 -0.36625,4.36991 -0.93682,6.4058c-0.00748,0.07186 -0.01525,0.14399 -0.02316,0.21652l0,0.28348c0,0.13807 -0.11193,0.25 -0.25,0.25c-0.13807,0 -0.25,-0.11193 -0.25,-0.25v-0.29362l0.0064,0l-0.00604,-0.01347c0.00631,-0.05875 0.01257,-0.11722 0.0187,-0.17549c-0.15699,-0.42497 -0.02039,-1.30682 -0.01907,-1.67066c0.00239,-0.65928 0.06908,-1.51388 0.21501,-2.37595c0.04102,-0.71357 0.07879,-1.43082 0.08618,-2.13192l-0.05116,0.06326c-0.0458,0.05759 -0.11648,0.09451 -0.19577,0.09451c-0.13807,0 -0.25,-0.11193 -0.25,-0.25c0,-0.04199 0.01035,-0.08156 0.02864,-0.1163l0.1935,-0.387l0.01342,0.00671c0.03518,-0.15607 0.07845,-0.30984 0.13502,-0.45912c0.00241,-0.00637 0.00508,-0.01307 0.00796,-0.02008c-0.24259,-0.14661 -0.48622,-0.28869 -0.73075,-0.41633c-0.00365,0.00314 -0.00729,0.00632 -0.01092,0.00956c-0.03459,0.03082 -0.0671,0.06581 -0.09788,0.10426c-0.1515,0.5598 -0.30442,1.10834 -0.53477,1.63277l0.05754,0.01644l-0.13584,0.47545c-0.02805,0.10739 -0.12572,0.18663 -0.2419,0.18663c-0.08084,0 -0.15272,-0.03837 -0.19841,-0.09789c-0.13684,-0.00143 -0.24733,-0.1128 -0.24733,-0.24999v-0.3915l0.07779,0c-0.08155,-0.67615 0.09869,-1.17256 0.42546,-1.49243c0.07809,-0.16956 0.16492,-0.33529 0.25816,-0.49019c-0.05112,-0.01964 -0.10228,-0.03828 -0.15347,-0.05583c-0.19972,-0.20211 -0.33296,-0.47467 -0.40695,-0.749l0.00052,-0.0102l-0.00235,0.00039l-0.08143,-0.48855c-0.00274,-0.01483 -0.00418,-0.03012 -0.00418,-0.04575c0,-0.13807 0.11193,-0.25 0.25,-0.25c0.12548,0 0.22937,0.09245 0.24727,0.21295l0.05503,0.33015c0.05506,0.05442 0.11007,0.10459 0.16504,0.15079c0.04546,-0.06233 0.11906,-0.10283 0.20211,-0.10283h0.3915v0.01446l0.04005,-0.01123c0.22434,0.07249 0.43566,0.16391 0.63857,0.26536c0.17935,0.04334 0.34239,0.12213 0.44798,0.24352c0.0528,0.03053 0.10524,0.06131 0.1574,0.09215c0.76227,-0.04621 1.546,-0.16979 2.38566,0.42168c0.10993,0.07744 0.1771,0.1728 0.21239,0.27921zM253.53739,175.01091c-0.01614,0.00488 -0.0323,0.00969 -0.04847,0.01441c0.02115,0.00411 0.03431,0.00437 0.03803,-0.00048c0.00353,-0.00461 0.00701,-0.00926 0.01044,-0.01394zM256.03618,173.15685c0.00897,-0.09196 0.01808,-0.18423 0.02738,-0.27687c-0.06244,0.13779 -0.12882,0.26955 -0.1996,0.39301c0.03503,0.05568 0.06284,0.1071 0.08407,0.15457c0.00094,-0.01063 0.00184,-0.02128 0.0027,-0.03192c0.00519,-0.064 0.0441,-0.15205 0.08545,-0.23879zM255.38568,173.99107c-0.04224,0.00279 -0.08512,0.00472 -0.12811,0.00607c-0.07897,0.05732 -0.16178,0.10511 -0.2487,0.14206c-0.0023,0.00098 -0.00462,0.00195 -0.00695,0.0029h0.04494c0.0584,0 0.11212,0.02002 0.15467,0.05358c0.07492,-0.07131 0.13601,-0.13976 0.18415,-0.20461zM254.34432,173.72746c0.00133,-0.00002 0.00266,-0.00004 0.00399,-0.00006c0.13418,-0.04368 0.27629,-0.07853 0.41287,-0.10609c0.06832,-0.07328 0.13933,-0.15373 0.21209,-0.23738c-0.10307,0.01353 -0.2184,0.04088 -0.34414,0.08363c-0.12878,0.04379 -0.2184,0.13656 -0.28482,0.2599zM250.33763,175.38512c-0.02788,0.00104 -0.0557,0.00172 -0.08336,0.00206c-0.01033,0.04048 -0.01992,0.08189 -0.02902,0.124l0.09967,-0.09967c0.00431,-0.00886 0.00855,-0.01766 0.01271,-0.02638zM253.97894,175.08617c0.19413,-0.09219 0.38696,-0.20438 0.57771,-0.34298c-0.06211,0.02107 -0.12446,0.03806 -0.18567,0.04903c-0.03392,0.07193 -0.10113,0.12508 -0.18176,0.13956l-0.16561,0.03312c-0.01359,0.04166 -0.02839,0.0822 -0.04467,0.12127zM248.78001,175.36724c0.02648,-0.05403 0.05357,-0.10684 0.08129,-0.15831c-0.02899,-0.01734 -0.058,-0.03478 -0.08702,-0.05231c0.00261,0.0693 0.0045,0.13954 0.00573,0.21062zM250.23836,176.11322c0.00196,-0.00114 0.00393,-0.00228 0.00589,-0.00341c-0.00175,0.0001 -0.0035,0.00018 -0.00526,0.00025zM253.18644,175.36629c-0.14977,-0.06008 -0.31579,-0.12021 -0.45048,-0.14467c-0.09992,0.11027 -0.20026,0.20787 -0.301,0.29369c0.24984,-0.04012 0.50087,-0.08534 0.75147,-0.14902zM249.54478,174.66303c0.01141,0.0455 0.02103,0.09535 0.0287,0.14981c0.07316,-0.01136 0.1482,-0.02128 0.22453,-0.02947c-0.08424,-0.03928 -0.16863,-0.07955 -0.25322,-0.12034zM249.87381,175.48019c0.0041,0.00254 0.00821,0.00508 0.01231,0.00762c0.00292,-0.01372 0.00603,-0.02748 0.00932,-0.04126c-0.00747,0.01007 -0.01467,0.02131 -0.02163,0.03365zM249.61739,176.58724c0.03608,-0.03524 0.07238,-0.06914 0.10888,-0.10174c-0.01241,-0.01913 -0.02228,-0.04006 -0.02912,-0.06231l-0.02881,-0.08644c-0.0158,0.08457 -0.03251,0.16899 -0.05094,0.2505z" fill="#000000" fill-rule="nonzero" stroke="none" stroke-width="0.5" stroke-linecap="butt" stroke-linejoin="miter"/><path d="M279.49674,172.862c0.084,-0.08685 0.16761,-0.18219 0.24945,-0.28375c-0.07973,0.06894 -0.15138,0.13346 -0.21154,0.19227c-0.01279,0.03055 -0.02543,0.06104 -0.03791,0.09148zM280.91303,171.58309c-0.3945,0.926 -1.08194,1.93745 -1.71521,2.11701c-0.01675,0.03835 -0.03338,0.07637 -0.04989,0.11409c-0.54221,1.68187 -0.65077,3.23063 -0.63443,4.90265c0.24572,0.93435 0.5642,1.90371 0.2833,2.77365l0.0829,0.02763l-0.09605,0.28815c-0.03142,0.10216 -0.12653,0.17641 -0.23899,0.17641c-0.0998,0 -0.18594,-0.05848 -0.22603,-0.14304l-0.19333,-0.38665l0.0141,-0.00705l-0.03216,-0.04076c-0.0985,-1.42893 -0.16993,-2.74179 -0.1059,-4.02262c-0.09558,-1.19295 -0.00863,-2.24994 0.62561,-3.58421c0.13711,-0.42987 0.30035,-0.86489 0.49369,-1.30814c0.14002,-0.1427 0.38016,-0.33901 0.64205,-0.55272c-0.43176,0.25115 -1.01061,0.15464 -1.57045,-0.00251c-0.33991,0.10486 -0.65339,0.16239 -0.91995,0.1624c-0.29342,0 -0.62051,-0.0435 -0.95416,-0.08906c-0.00958,0.22807 0.05455,0.56056 0.21259,1.03237c0.12973,0.3873 0.15867,0.72014 0.38649,1.06605c0.63641,1.61849 0.75276,6.77531 -0.62867,8.40394l0.08392,0.08392l-0.19575,0.19575c0,0 0,0 0,0c0,0 0,0 0,0c-0.04524,0.04524 -0.10774,0.07322 -0.17678,0.07322c-0.13807,0 -0.25,-0.11193 -0.25,-0.25v-0.3915c0.00216,-0.65219 -0.09787,-1.29658 -0.09787,-1.95749c0.01793,-1.85286 0.71994,-3.85277 0.4926,-5.73455c-0.05198,-0.43028 -0.24722,-0.81985 -0.41028,-1.21665c-0.05038,0.09928 -0.10227,0.19743 -0.15471,0.29351c-0.096,0.79167 -0.27305,1.79372 -0.51978,2.72608c-0.0222,0.70745 -0.12226,1.35047 -0.41794,1.81916c-0.36446,0.54669 -1.40455,4.95436 -2.04174,4.44911c-0.41439,-0.32858 0.71519,-3.36949 0.74509,-3.86754c0.09271,-0.28183 0.1935,-0.58961 0.29504,-0.91583c-0.10317,-0.92657 -0.29959,-2.28508 -0.0902,-2.59877c0.22093,-0.33097 0.54185,-0.56838 0.84861,-0.85289c0.0613,-0.71575 0.03638,-1.40988 -0.12904,-2.02649c-0.22741,-0.09123 -0.46192,-0.34216 -0.64588,-0.83652c-0.05486,-0.00539 -0.11031,-0.00943 -0.16644,-0.01211l-0.05248,-0.08282l-0.02862,0.02862l-0.19575,-0.19575c-0.04524,-0.04524 -0.07322,-0.10774 -0.07322,-0.17678c0,-0.13807 0.11193,-0.25 0.25,-0.25h0.29362l0,0.01902c0.01154,-0.00435 0.02393,-0.00823 0.03724,-0.01155c0.05084,-0.01271 0.09369,-0.0121 0.12967,-0.00319c2.14938,-0.31027 4.04978,0.77273 6.37872,-0.76185c0.08163,-0.02721 0.15815,-0.05536 0.22994,-0.0844c0.11337,-0.47538 0.2157,-1.00219 0.481,-1.23277c0.34217,-0.29739 0.66894,-0.52585 0.97682,-0.68804c0.02435,-0.04912 0.05061,-0.09843 0.07927,-0.14788c-0.1062,-0.24391 -0.07615,-0.45614 0.1956,-0.58984c0.07657,-0.03767 0.15169,-0.05135 0.2252,-0.0442l0.032,-0.09599c0.03142,-0.10216 0.12653,-0.17641 0.23899,-0.17641c0.13807,0 0.25,0.11193 0.25,0.25v0.29362h-0.08435l-0.00354,0.01063c0.04881,0.05849 0.09661,0.1247 0.14334,0.19737c0.98091,0.00846 1.6143,0.95378 1.69967,2.68324c0.00559,0.85593 -0.00904,1.70735 -0.0323,2.55734c0.46968,2.00248 0.81008,4.45545 -0.02571,5.94493l0.09588,0.05993l-0.26271,0.42033c-0.04374,0.07261 -0.12335,0.12117 -0.21429,0.12117c-0.13807,0 -0.25,-0.11193 -0.25,-0.25v-0.29362c0,-1.80466 0.08172,-3.58438 0.13809,-5.36691c-0.08403,-0.79162 -0.22413,-1.5866 -0.46067,-2.38635c-0.10004,-0.27302 -0.65306,-1.54416 -1.00016,-2.47537c-0.06929,-0.0195 -0.1388,-0.03446 -0.20809,-0.04379c-0.25019,0.44468 -0.61858,0.88364 -1.05212,1.29051c0.05839,0.35275 0.13225,0.72512 0.02981,0.95399c-0.08192,0.18301 -0.27179,0.39742 -0.50519,0.6188zM276.65254,174.91889c0.06672,1.77232 -0.52061,3.76666 -0.50051,5.34568c0,0.34768 0.02643,0.68914 0.05182,1.02984c0.13547,-0.3999 0.29755,-0.79107 0.32842,-0.95166c0.26384,-1.37244 0.48162,-3.85197 0.12027,-5.42387zM275.00978,173.50988c0.09507,-0.38148 0.15473,-0.71671 0.15287,-0.97739l0,-0.21861c-0.10107,0.34857 -0.14193,0.75666 -0.15287,1.196zM274.10264,176.14546c0.06428,-0.27564 0.12237,-0.55492 0.17112,-0.83461c-0.20197,0.15659 -0.38175,0.29208 -0.37953,0.29618c0.0926,0.17069 0.15992,0.35105 0.20841,0.53843zM275.68924,171.93037c-0.03111,-0.00299 -0.06212,-0.00577 -0.09302,-0.0083c-0.01951,0.00093 -0.03895,0.00177 -0.05831,0.00251c0.02758,0.01599 0.05182,0.03711 0.07142,0.06204l0.04855,0.06068c0.00875,-0.03446 0.01954,-0.07425 0.03137,-0.11694zM280.00932,171.7355c0.17917,-0.14782 0.35725,-0.29843 0.51078,-0.44098c0.09048,-0.21264 0.15779,-0.41739 0.19353,-0.60022c-0.08103,0.25235 -0.20255,0.45694 -0.42622,0.54684c-0.07264,0.20815 -0.16691,0.37022 -0.27808,0.49435zM283.72442,169.64674c0.19841,0.67156 0.33648,1.26673 0.39931,1.43593c0.01205,0.04218 0.02428,0.08512 0.03669,0.12877c0.00168,-0.2549 0.00186,-0.51012 0.00025,-0.76572c-0.00655,-0.14102 -0.01563,-0.27568 -0.02732,-0.40391c-0.00327,0.00013 -0.00656,0.00019 -0.00987,0.00019c-0.08815,0 -0.16565,-0.04563 -0.21016,-0.11455l-0.18365,-0.27547c-0.00167,-0.0017 -0.00342,-0.00345 -0.00526,-0.00525zM279.3361,171.45501c0.15261,-0.04107 0.28572,-0.10998 0.39183,-0.21598c-0.13061,0.07617 -0.26151,0.1483 -0.39183,0.21598zM279.20524,171.07654c-0.31441,0.12014 -0.66553,0.24077 -1.03486,0.35193c0.03775,0.00663 0.07537,0.01298 0.11281,0.01899c0.31203,-0.08911 0.62243,-0.21521 0.92205,-0.37092zM280.94517,169.66545c-0.00185,0.00659 -0.00368,0.0132 -0.00548,0.01983c0.00232,-0.00281 0.00464,-0.00562 0.00695,-0.00843c-0.0005,-0.0038 -0.00099,-0.0076 -0.00147,-0.0114zM283.26775,168.34238c0.13809,0.02804 0.26781,0.07059 0.38515,0.12863c-0.12526,-0.14566 -0.27466,-0.23712 -0.44985,-0.27296c0.02187,0.04707 0.04344,0.09524 0.0647,0.14433z" fill="#000000" fill-rule="nonzero" stroke="none" stroke-width="0.5" stroke-linecap="butt" stroke-linejoin="miter"/></g></g></g></svg>