<svg version="1.1" xmlns="http://www.w3.org/2000/svg" xmlns:xlink="http://www.w3.org/1999/xlink" width="165.0478" height="120.59115" viewBox="0,0,165.0478,120.59115"><defs><linearGradient x1="257.88239" y1="201.70039" x2="252.95378" y2="219.63553" gradientUnits="userSpaceOnUse" id="color-1"><stop offset="0" stop-color="#ffffff"/><stop offset="1" stop-color="#9f9f9f"/></linearGradient></defs><g transform="translate(-128.6987,-120.13372)"><g data-paper-data="{&quot;isPaintingLayer&quot;:true}" stroke-miterlimit="10" stroke-dasharray="" stroke-dashoffset="0" style="mix-blend-mode: normal"><g stroke="#001026" stroke-width="1.2"><path d="M241.4555,194.60181c0.85209,2.05035 3.19145,10.12051 5.84393,10.76422c2.53025,0.57259 8.787,-3.14938 10.42556,1.48583c1.61302,4.53852 -4.64575,6.2958 -10.24976,6.22514c-7.25312,-0.04862 -13.08052,-9.57603 -10.89939,-16.9789c0.86263,-2.60689 4.00202,-3.64332 4.87966,-1.49629z" data-paper-data="{&quot;index&quot;:null}" fill="#878787" fill-rule="evenodd" stroke-linecap="round" stroke-linejoin="round"/><g data-paper-data="{&quot;index&quot;:null}" fill-rule="nonzero" stroke-linejoin="miter"><g><g><path d="M254.95212,206.70276l2.86179,-10.41396l2.50705,0.68894l-2.86179,10.41396z" fill="#2c2c2c" stroke-linecap="butt"/><path d="M252.04479,217.90793l2.29942,0.68753l-4.81457,14.00785z" fill="#6c6c6c" stroke-linecap="butt"/><path d="M249.38604,218.6551l4.92863,-17.93513l7.13546,1.96085l-4.92861,17.93513z" fill="url(#color-1)" stroke-linecap="butt"/><path d="M257.04404,204.37379l-3.41834,-1.14678" fill="none" stroke-linecap="round"/><path d="M256.14308,207.65226l-3.03261,-1.04078" fill="none" stroke-linecap="round"/><path d="M252.28168,208.87269l2.59392,1.12765" fill="none" stroke-linecap="round"/><path d="M253.78182,213.22581l-2.12135,-0.58295" fill="none" stroke-linecap="round"/><path d="M250.47981,215.42962l2.73379,1.3735" fill="none" stroke-linecap="round"/></g><path d="M255.04186,196.56412l0.74193,-2.69992l7.32835,2.01384l-0.74194,2.69993z" fill="#2c2c2c" stroke-linecap="butt"/></g><path d="M254.37655,209.55207c-0.77562,2.82247 -2.65634,4.7665 -4.20071,4.34211c-1.54438,-0.4244 -2.16759,-3.05651 -1.39195,-5.87898c0.77562,-2.82247 2.65636,-4.76649 4.20074,-4.34211c1.54438,0.4244 2.16758,3.0565 1.39195,5.87899z" fill="#878787" stroke-linecap="butt"/><path d="M264.47691,211.29061c-1.18539,4.31359 -4.34807,7.20543 -7.06404,6.45908c-2.71597,-0.74635 -3.95676,-4.84825 -2.77137,-9.16184c1.18539,-4.31359 4.34807,-7.20542 7.06404,-6.45908c2.71596,0.74635 3.95677,4.84825 2.77139,9.16186z" fill="#878787" stroke-linecap="butt"/></g></g><path d="M138.31201,157.70185c-0.84138,-2.50869 -0.63636,-5.14546 -1.52385,-7.54716c-1.09498,-2.96319 -1.03804,-5.67735 -1.03813,-8.92339c-0.00011,-3.96652 2.24322,-4.96352 5.29006,-6.94597c3.57372,-2.32527 6.75325,-3.99934 10.88468,-5.15237c6.56756,-1.83192 13.90756,-2.95025 19.87579,-6.28562c6.21367,-2.2725 14.57298,-3.8218 20.9064,-1.72136c6.26966,1.60836 15.12471,5.43827 15.02902,12.8978c1.14197,2.21615 2.8334,4.80906 3.38002,7.25424c0.89479,4.00269 0.13399,9.01077 0.134,13.10745c0.00002,6.64056 1.48047,14.07386 4.0949,20.20869c2.70721,6.35256 6.58793,12.32346 10.63964,17.90877c0.67135,0.92545 1.34286,1.85078 2.01403,2.77637c0.24969,0.25075 0.45948,0.52645 0.60688,0.83717c0.09869,0.13618 0.19737,0.27237 0.29604,0.40857l0.65175,0.73045c0.07976,0.08859 0.1283,0.20584 0.1283,0.33443c0,0.27614 -0.22386,0.5 -0.5,0.5c-0.13727,0 -0.26162,-0.05532 -0.35197,-0.14487c-0.00004,-0.00004 -0.00008,-0.00008 -0.00012,-0.00011l-0.71013,-0.70383l0.04256,-0.04295l-0.01919,-0.0215l0.01781,-0.01589l-0.03413,-0.00335c-0.03592,-0.04945 -0.07184,-0.0989 -0.10775,-0.14835c-1.984,-1.43971 -3.79652,-3.45263 -5.84174,-4.83965c-2.96896,-2.01349 -6.46911,-3.51186 -9.62369,-5.22571c-5.64502,-3.08398 -13.61738,-4.83303 -19.94018,-5.85382c-7.0342,-1.13653 -13.70596,-2.45512 -20.53421,-4.50307c-3.76247,-1.12845 -7.97416,-2.10771 -11.36286,-4.17626c-2.70801,-1.65305 -4.18922,-3.8086 -7.393,-4.70595c-6.45573,-2.87615 -12.82376,-5.80054 -18.67274,-9.77977c-1.64083,-1.1163 -3.43443,-2.14473 -4.95296,-3.42474c-0.34417,-0.29011 -0.96638,-0.46506 -0.99374,-0.91436c-0.14748,-2.42217 3.1453,-1.03974 4.13373,-0.61934c2.34979,0.99941 3.03811,2.11077 4.56548,3.94114c0.29935,0.35874 0.60847,0.59732 0.90929,0.79432z" fill="#000000" fill-rule="nonzero" stroke="none" stroke-width="0.5" stroke-linecap="butt" stroke-linejoin="miter"/><g fill-rule="evenodd"><path d="M224.78335,200.96667c0.6,0.8 3.3,2 -0.2,4.2c-3.6,2.1 -12.7,5 -21.6,-2.9c-9.6,-8.6 -4.5,-20.3 -0.1,-20.7c4.3,-0.4 2.6,6.6 5.7,14.4c4.4,11.3 15.6,4.2 16.2,5z" fill="#878787" stroke="#001026" stroke-width="1.2" stroke-linecap="round" stroke-linejoin="round"/><path d="M205.68335,186.76667c0.5,4.4 1.5,7.4 1.5,7.4c0,0 -1.6,-2 -4,-1.6c-2.9,0.5 -3.8,2.9 -3.9,3.6c-0.7,-1.7 -1.3,-3.8 -1.1,-7.4c0.5,-3.5 2.7,-7.1 5.2,-6.7c2,0.4 1.9,2 2.3,4.7z" fill="#ffffff" stroke="none" stroke-width="1" stroke-linecap="butt" stroke-linejoin="miter"/></g><path d="M226.44491,192.91737c-0.53175,2.35738 -4.44264,4.53794 -4.94762,5.53543c-0.10149,0.2995 2.95576,4.87478 4.76209,7.62381c2.60084,3.853 -2.54229,8.48745 -6.4501,6.02796c-3.6083,-2.35799 -7.86791,-10.47931 -8.27824,-12.42138c-1.03797,-4.42523 7.15496,-10.58688 12.52673,-14.78095" fill="#878787" fill-rule="evenodd" stroke="#001026" stroke-width="1.2" stroke-linecap="round" stroke-linejoin="round"/><path d="M248.31981,236.3753c0,3.86599 -11.83333,3 -11.83333,3c0,0 -10.5,0.86599 -10.5,-3c0,-3.45051 2.7452,-32.89294 7.69909,-34.5825c3.83539,-1.30808 4.43187,28.24917 5.13424,28.24917c6.53537,0 9.5,2.46734 9.5,6.33333z" fill="#878787" fill-rule="nonzero" stroke="#001026" stroke-width="1.2" stroke-linecap="butt" stroke-linejoin="miter"/><path d="M242.31981,237.04197c0,3.86599 -11.83333,3 -11.83333,3c0,0 -10.5,0.86599 -10.5,-3c0,-3.45051 2.7452,-32.89294 7.69909,-34.58249c3.83539,-1.30808 4.43187,28.24916 5.13424,28.24916c6.53537,0 9.5,2.46734 9.5,6.33333z" fill="#878787" fill-rule="nonzero" stroke="#001026" stroke-width="1.2" stroke-linecap="butt" stroke-linejoin="miter"/><g fill-rule="evenodd"><path d="M228.46747,211.92774c-9.18562,-0.14169 -6.59918,-8.70522 -6.1184,-18.13437c0.22478,-5.09504 2.32496,-11.27985 8.25588,-12.7846c3.28322,-1.01509 4.71707,5.1431 6.65887,4.10414c2.93427,-1.51331 4.46287,3.07617 4.72896,5.71988c0,0 0.33245,3.94201 -0.02111,6.21687c-0.40861,2.85536 -0.99765,5.79696 -1.69222,7.12646c0,0 -1.91695,7.90424 -11.81198,7.75161z" fill="#878787" stroke="#001026" stroke-width="1.2" stroke-linecap="round" stroke-linejoin="round"/><path d="M239.5414,204.42127c0,0 -1.87085,-0.43583 -3.96129,-1.09921c-2.58071,-0.76155 -5.03204,-1.25242 -4.5644,-4.91184c0.58904,-2.9416 0.7429,-6.56186 6.05356,-5.88595c5.04397,0.58172 4.40781,3.65665 4.40781,3.65665c-0.04435,5.00879 -1.93568,8.24035 -1.93568,8.24035z" fill="#ffffff" stroke="none" stroke-width="1" stroke-linecap="butt" stroke-linejoin="miter"/></g><path d="M220.06372,195.99621l2.11464,-8.76682l4.89755,0.85834l-2.11464,8.76682z" fill="#878787" fill-rule="nonzero" stroke="#001026" stroke-width="0" stroke-linecap="butt" stroke-linejoin="miter"/><path d="M169.50001,147.83333c0,5.24671 -5.22334,9.5 -11.66667,9.5c-6.44332,0 -14.66667,-19.5 -14.66667,-19.5c0,0 26.33333,4.75329 26.33333,10z" fill="#ffffff" fill-rule="nonzero" stroke="none" stroke-width="0" stroke-linecap="butt" stroke-linejoin="miter"/><path d="M203.16668,134.83334c0,0 -8.22335,19.5 -14.66667,19.5c-6.44332,0 -11.66666,-4.2533 -11.66666,-9.5c0,-5.2467 26.33334,-10 26.33334,-10z" data-paper-data="{&quot;index&quot;:null}" fill="#ffffff" fill-rule="nonzero" stroke="none" stroke-width="0" stroke-linecap="butt" stroke-linejoin="miter"/><g><path d="M262.18226,139.61253c0.31338,-0.17832 0.80506,-0.04327 0.87659,0.36279l1.83821,10.85684c0,0 6.05228,5.14004 7.71459,8.56593c2.80378,5.71216 2.58587,10.208 2.58587,10.208c0,0 6.93406,2.59594 7.7287,8.36643c0.79465,5.77049 -4.35674,16.23296 -23.37102,18.59665c-19.01428,2.3637 -33.71661,-3.78948 -39.99418,-15.66222c-6.27758,-11.87275 5.8545,-24.64822 5.19952,-23.89257l-0.83122,-18.00358c-0.07152,-0.40606 0.44841,-0.67002 0.8333,-0.44227l11.51216,8.73442c0,0 4.60877,-1.37811 9.31116,-1.24583c2.80714,-0.00186 5.18703,0.36706 7.45306,0.92842z" fill="#878787" fill-rule="evenodd" stroke="#001026" stroke-width="1.2" stroke-linecap="butt" stroke-linejoin="miter"/><path d="M268.35721,168.16448c-0.28751,4.06294 -6.6055,6.92601 -14.11161,6.39483c-7.50611,-0.53117 -13.35793,-4.25544 -13.07042,-8.31838c0.28752,-4.06294 6.6055,-6.92601 14.11161,-6.39483c7.50611,0.53117 13.35793,4.25544 13.07042,8.31838z" fill="#535353" fill-rule="nonzero" stroke="none" stroke-width="NaN" stroke-linecap="butt" stroke-linejoin="miter"/><path d="M274.87005,169.98391c0,0 6.75572,2.28257 7.55037,8.05307c0.79465,5.77049 -4.72044,15.70596 -23.52817,17.98403c-24.49258,3.27927 -34.94741,-11.89659 -27.51587,-21.9972c7.43859,-10.20036 18.26754,-0.31129 26.68895,-0.31685c7.21733,0.00949 8.46004,-6.21832 16.80473,-3.72306z" fill="#ffffff" fill-rule="evenodd" stroke="none" stroke-width="1" stroke-linecap="butt" stroke-linejoin="miter"/><path d="M293.1465,172.38001c-4.9565,3.45875 -12.14562,3.05026 -12.14562,3.05026" fill="none" fill-rule="evenodd" stroke="#001026" stroke-width="1.2" stroke-linecap="round" stroke-linejoin="round"/><path d="M291.05914,183.46031c-6.31957,0.05404 -10.07573,-2.11651 -10.07573,-2.11651" fill="none" fill-rule="evenodd" stroke="#001026" stroke-width="1.2" stroke-linecap="round" stroke-linejoin="round"/><path d="M257.84985,171.08523c2.09476,0.14824 4.27516,0.50304 4.32549,1.20834c0.00093,1.40356 -1.69298,4.0907 -3.29605,4.07751c-1.80963,0.07244 -5.82268,-2.71779 -5.70974,-4.31381c-0.01504,-1.20406 2.68527,-1.11323 4.68029,-0.97205z" fill="#001026" fill-rule="evenodd" stroke="#001026" stroke-width="1.2" stroke-linecap="round" stroke-linejoin="round"/><path d="M213.06798,166.41245c0,0 8.3809,3.40008 11.65334,6.73941" fill="none" fill-rule="evenodd" stroke="#001026" stroke-width="1.2" stroke-linecap="round" stroke-linejoin="round"/><path d="M224.77352,176.66431c-4.40928,1.39222 -11.71318,-0.22739 -11.71318,-0.22739" fill="none" fill-rule="evenodd" stroke="#001026" stroke-width="1.2" stroke-linecap="round" stroke-linejoin="round"/><path d="M270.4463,160.24736c2.57512,4.69349 2.31486,9.78782 -0.60522,11.38568c-2.92007,1.59786 -7.36037,-0.82161 -10.03523,-5.52215c-2.57512,-4.69349 -2.31486,-9.78782 0.60522,-11.38568c2.92713,-1.69762 7.46012,0.82867 10.03523,5.52215z" fill="#ffffff" fill-rule="evenodd" stroke="#001026" stroke-width="1.2" stroke-linecap="round" stroke-linejoin="round"/><path d="M245.51052,161.28976c2.68193,4.6008 2.10124,9.97321 -0.72614,11.67789c-3.42589,1.66232 -7.71609,-0.04478 -10.39802,-4.64558c-2.78168,-4.60785 -2.36473,-9.79136 0.88282,-11.76704c3.25463,-2.07543 7.5594,0.13394 10.24133,4.73474z" fill="#ffffff" fill-rule="evenodd" stroke="#001026" stroke-width="1.2" stroke-linecap="round" stroke-linejoin="round"/><path d="M256.32814,185.85951c-0.19005,2.68567 -15.73476,6.53059 -22.48337,6.05301c-6.7486,-0.47758 -2.14558,-5.09678 -1.95553,-7.78245c0.19005,-2.68566 2.20247,0.53179 8.95108,1.00937c6.7486,0.47758 15.67786,-1.96561 15.48782,0.72006z" fill="#ffffff" fill-rule="nonzero" stroke="#001026" stroke-width="1.2" stroke-linecap="butt" stroke-linejoin="miter"/><path d="M233.39897,191.1291l1.72335,-6.64493" fill="none" fill-rule="nonzero" stroke="#001026" stroke-width="1.2" stroke-linecap="round" stroke-linejoin="miter"/></g></g></g></svg>