<svg version="1.1" xmlns="http://www.w3.org/2000/svg" xmlns:xlink="http://www.w3.org/1999/xlink" width="155.05591" height="130.55077" viewBox="0,0,155.05591,130.55077"><defs><linearGradient x1="257.24262" y1="201.05921" x2="253.31695" y2="219.24023" gradientUnits="userSpaceOnUse" id="color-1"><stop offset="0" stop-color="#ffffff"/><stop offset="1" stop-color="#9f9f9f"/></linearGradient></defs><g transform="translate(-137.40082,-110.17409)"><g data-paper-data="{&quot;isPaintingLayer&quot;:true}" stroke-miterlimit="10" stroke-dasharray="" stroke-dashoffset="0" style="mix-blend-mode: normal"><g stroke="#001026" stroke-width="1.2"><path d="M240.4471,194.88321c0.96456,1.9999 3.74819,9.9278 6.4323,10.42331c2.55813,0.43129 8.59868,-3.63218 10.49195,0.90495c1.86241,4.44201 -4.28919,6.54392 -9.88849,6.78438c-7.24464,0.35398 -13.5918,-8.83534 -11.82487,-16.34785c0.71663,-2.65075 3.79366,-3.8598 4.7891,-1.76479z" data-paper-data="{&quot;index&quot;:null}" fill="#878787" fill-rule="evenodd" stroke-linecap="round" stroke-linejoin="round"/><g data-paper-data="{&quot;index&quot;:null}" fill-rule="nonzero" stroke-linejoin="miter"><g><g><path d="M254.59449,206.21649l2.27944,-10.55673l2.54142,0.54874l-2.27944,10.55673z" fill="#2c2c2c" stroke-linecap="butt"/><path d="M252.31349,217.56574l2.33403,0.55886l-4.02976,14.25346z" fill="#6c6c6c" stroke-linecap="butt"/><path d="M249.7003,218.45931l3.92569,-18.18101l7.23328,1.56183l-3.92567,18.18101z" fill="url(#color-1)" stroke-linecap="butt"/><path d="M253.07722,202.81971l3.47671,0.95531" fill="none" stroke-linecap="round"/><path d="M252.75061,206.22756l3.0857,0.87088" fill="none" stroke-linecap="round"/><path d="M254.70109,209.51324l-2.6525,-0.98196" fill="none" stroke-linecap="round"/><path d="M251.63757,212.33012l2.15043,0.46432" fill="none" stroke-linecap="round"/><path d="M250.61338,215.1781l2.8058,1.21967" fill="none" stroke-linecap="round"/></g><path d="M254.12143,196.0885l0.59095,-2.73693l7.42882,1.60404l-0.59096,2.73694z" fill="#2c2c2c" stroke-linecap="butt"/></g><path d="M254.17793,209.09335c-0.61779,2.86116 -2.38772,4.90657 -3.95326,4.56854c-1.56555,-0.33804 -2.33388,-2.93151 -1.71607,-5.79267c0.61779,-2.86116 2.38774,-4.90656 3.95329,-4.56855c1.56555,0.33804 2.33387,2.9315 1.71607,5.79268z" fill="#878787" stroke-linecap="butt"/><path d="M264.35921,210.26868c-0.94417,4.37273 -3.94149,7.43563 -6.69469,6.84116c-2.7532,-0.59447 -4.21972,-4.62119 -3.27555,-8.99392c0.94417,-4.37273 3.94149,-7.43562 6.69469,-6.84116c2.75319,0.59447 4.21973,4.62119 3.27557,8.99394z" fill="#878787" stroke-linecap="butt"/></g></g><path d="M226.86705,174.01389c0.48611,0.11705 0.36905,0.60316 0.36905,0.60316l-0.00175,0.00728c-0.10112,0.41994 -0.23803,0.90241 -0.33528,1.39937c0.14735,0.04179 0.35093,0.15726 0.35093,0.4763c0,0.42496 -0.36118,0.48874 -0.46959,0.49831c-0.01963,0.70586 0.14077,1.37773 0.69932,1.8767c0.77501,0.69234 1.82433,1.17284 2.26163,2.23362c1.08407,2.62972 0.50141,6.26768 0.53458,9.09451c0.05391,1.6634 0.81324,3.18439 0.97177,4.84807c0.25029,2.62675 0.01071,5.4166 -0.02943,8.05475c-0.01851,1.21662 0.1569,4.49304 -1.03668,5.29166c-0.66044,0.4419 -2.60544,-0.17656 -3.33636,-0.30154c-6.96882,-1.1923 -13.31026,-4.03204 -20.23695,-5.41051c-6.80759,-1.37271 -14.08094,0.63908 -20.94691,-1.06725c-2.54251,-0.63548 -6.74,-1.04805 -8.73877,-2.7883c-2.01542,-1.75475 -2.59595,-4.84234 -3.95802,-7.06751c-0.66445,-1.0855 -1.90876,-1.67826 -2.88775,-2.46194c-5.20955,-4.24517 -14.33142,-3.18418 -18.34643,-9.47384c-2.35156,-0.69015 -5.51143,-1.50132 -7.31206,-3.29163c-2.66712,-2.65183 -2.03923,-9.38817 -2.3189,-12.91085c-0.36249,-2.44551 -3.11528,-4.35855 -3.92882,-6.76213c-1.18993,-3.5156 -0.85914,-9.67343 0.03661,-13.22119c0.56606,-2.22395 1.29347,-5.71367 2.43554,-7.7112c2.16092,-3.77955 6.83507,-5.32206 8.69774,-9.47258c1.28837,-1.96065 2.24721,-4.3511 4.1184,-5.86112c3.52235,-2.84247 8.65301,-4.21942 12.79418,-5.91314c2.50681,-1.27904 5.31345,-3.61473 8.0733,-4.17281c3.69049,-0.74626 8.32784,-0.0187 12.10186,-0.00315c2.31141,0.00954 4.98455,0.23178 7.01379,1.51825c1.5637,0.99134 1.78503,3.06739 2.42936,4.6215c1.14678,2.76602 2.22649,5.56303 3.40751,8.3206c1.54109,3.65048 2.78722,7.47578 4.86035,10.85907c1.56529,2.55452 3.49905,4.83016 5.16727,7.37674c1.72811,6.87068 2.97011,13.45615 6.33029,19.782c2.31917,3.75396 4.95231,6.8842 7.87535,10.156c0.76277,0.85378 1.4134,2.23071 2.42777,2.69901c0.08809,-0.4922 0.2093,-0.981 0.3222,-1.44986l0.00175,-0.00728c0,0 0.11705,-0.48611 0.60316,-0.36905z" fill="#000000" fill-rule="nonzero" stroke="none" stroke-width="0.5" stroke-linecap="butt" stroke-linejoin="miter"/><g fill-rule="evenodd"><path d="M224.78334,200.96667c0.6,0.8 3.3,2 -0.2,4.2c-3.6,2.1 -12.7,5 -21.6,-2.9c-9.6,-8.6 -4.5,-20.3 -0.1,-20.7c4.3,-0.4 2.6,6.6 5.7,14.4c4.4,11.3 15.6,4.2 16.2,5z" fill="#878787" stroke="#001026" stroke-width="1.2" stroke-linecap="round" stroke-linejoin="round"/><path d="M205.68334,186.76667c0.5,4.4 1.5,7.4 1.5,7.4c0,0 -1.6,-2 -4,-1.6c-2.9,0.5 -3.8,2.9 -3.9,3.6c-0.7,-1.7 -1.3,-3.8 -1.1,-7.4c0.5,-3.5 2.7,-7.1 5.2,-6.7c2,0.4 1.9,2 2.3,4.7z" fill="#ffffff" stroke="none" stroke-width="1" stroke-linecap="butt" stroke-linejoin="miter"/></g><path d="M227.58032,192.67237c-1.04164,2.18059 -5.33893,3.43887 -6.05268,4.29942c-0.16542,0.26951 1.80024,5.40917 2.95146,8.49052c1.68092,4.33411 -4.36244,7.71162 -7.627,4.44623c-2.99504,-3.09995 -5.34614,-11.96406 -5.31525,-13.94877c-0.03003,-4.54523 9.326,-8.73505 15.49458,-11.63243" fill="#878787" fill-rule="evenodd" stroke="#001026" stroke-width="1.2" stroke-linecap="round" stroke-linejoin="round"/><path d="M248.3198,236.3753c0,3.86599 -11.83333,3 -11.83333,3c0,0 -10.5,0.86599 -10.5,-3c0,-3.45051 2.7452,-32.89294 7.69909,-34.5825c3.83539,-1.30808 4.43187,28.24917 5.13424,28.24917c6.53537,0 9.5,2.46734 9.5,6.33333z" fill="#878787" fill-rule="nonzero" stroke="#001026" stroke-width="1.2" stroke-linecap="butt" stroke-linejoin="miter"/><path d="M242.3198,237.04197c0,3.86599 -11.83333,3 -11.83333,3c0,0 -10.5,0.86599 -10.5,-3c0,-3.45051 2.7452,-32.89294 7.69909,-34.58249c3.83539,-1.30808 4.43187,28.24916 5.13424,28.24916c6.53537,0 9.5,2.46734 9.5,6.33333z" fill="#878787" fill-rule="nonzero" stroke="#001026" stroke-width="1.2" stroke-linecap="butt" stroke-linejoin="miter"/><g fill-rule="evenodd"><path d="M228.46746,211.92774c-9.18562,-0.14169 -6.59918,-8.70522 -6.1184,-18.13437c0.22478,-5.09504 2.32496,-11.27985 8.25588,-12.7846c3.28322,-1.01509 4.71707,5.1431 6.65887,4.10414c2.93427,-1.51331 4.46287,3.07617 4.72896,5.71988c0,0 0.33245,3.94201 -0.02111,6.21687c-0.40861,2.85536 -0.99765,5.79696 -1.69222,7.12646c0,0 -1.91695,7.90424 -11.81198,7.75161z" fill="#878787" stroke="#001026" stroke-width="1.2" stroke-linecap="round" stroke-linejoin="round"/><path d="M239.54139,204.42127c0,0 -1.87085,-0.43583 -3.96129,-1.09921c-2.58071,-0.76155 -5.03204,-1.25242 -4.5644,-4.91184c0.58904,-2.9416 0.7429,-6.56186 6.05356,-5.88595c5.04397,0.58172 4.40781,3.65665 4.40781,3.65665c-0.04435,5.00879 -1.93568,8.24035 -1.93568,8.24035z" fill="#ffffff" stroke="none" stroke-width="1" stroke-linecap="butt" stroke-linejoin="miter"/></g><path d="M220.06371,195.99621l2.11464,-8.76682l4.89755,0.85834l-2.11464,8.76682z" fill="#878787" fill-rule="nonzero" stroke="#001026" stroke-width="0" stroke-linecap="butt" stroke-linejoin="miter"/><path d="M169.5,147.83333c0,5.24671 -5.22334,9.5 -11.66667,9.5c-6.44332,0 -14.66667,-19.5 -14.66667,-19.5c0,0 26.33333,4.75329 26.33333,10z" fill="#ffffff" fill-rule="nonzero" stroke="none" stroke-width="0" stroke-linecap="butt" stroke-linejoin="miter"/><path d="M203.16667,134.83334c0,0 -8.22335,19.5 -14.66667,19.5c-6.44332,0 -11.66666,-4.2533 -11.66666,-9.5c0,-5.2467 26.33334,-10 26.33334,-10z" data-paper-data="{&quot;index&quot;:null}" fill="#ffffff" fill-rule="nonzero" stroke="none" stroke-width="0" stroke-linecap="butt" stroke-linejoin="miter"/><g><path d="M258.50603,136.51592c0.29901,-0.20148 0.79949,-0.10396 0.90148,0.29554l2.65298,10.68699c0,0 6.42321,4.66824 8.33953,7.95878c3.22721,5.48408 3.3495,9.98353 3.3495,9.98353c0,0 7.11032,2.0648 8.33854,7.75879c1.22822,5.69399 -3.11822,16.51565 -21.89966,20.30874c-18.78144,3.79309 -33.90652,-1.23204 -41.06291,-12.59673c-7.15639,-11.36469 3.9761,-25.02 3.38007,-24.21704l-2.18865,-17.88938c-0.10198,-0.3995 0.39653,-0.70197 0.79751,-0.50396l12.13899,7.83996c0,0 4.49152,-1.72227 9.19047,-1.94555c2.79897,-0.21387 5.19994,-0.02576 7.50189,0.36284z" fill="#878787" fill-rule="evenodd" stroke="#001026" stroke-width="1.2" stroke-linecap="butt" stroke-linejoin="miter"/><path d="M266.81986,164.51992c0.02018,4.07305 -6.06351,7.40513 -13.5883,7.44241c-7.52479,0.03728 -13.64119,-3.23436 -13.66137,-7.30741c-0.02018,-4.07305 6.06351,-7.40513 13.5883,-7.44241c7.52479,-0.03728 13.64119,3.23436 13.66137,7.30741z" fill="#939393" fill-rule="nonzero" stroke="none" stroke-width="NaN" stroke-linecap="butt" stroke-linejoin="miter"/><path d="M273.4515,165.84224c0,0 6.90883,1.76579 8.13706,7.45978c1.22822,5.69399 -3.52069,16.01764 -22.10263,19.70974c-24.17493,5.11983 -35.74613,-9.22302 -29.09873,-19.85609c6.64691,-10.73306 18.19185,-1.69014 26.58877,-2.33175c7.19743,-0.53566 7.96621,-6.83955 16.47552,-4.98168z" fill="#ffffff" fill-rule="evenodd" stroke="none" stroke-width="1" stroke-linecap="butt" stroke-linejoin="miter"/><path d="M291.85673,166.85107c-4.68112,3.82324 -11.88053,3.95891 -11.88053,3.95891" fill="none" fill-rule="evenodd" stroke="#001026" stroke-width="1.2" stroke-linecap="round" stroke-linejoin="round"/><path d="M290.61223,178.05737c-6.29745,0.5312 -10.20681,-1.34945 -10.20681,-1.34945" fill="none" fill-rule="evenodd" stroke="#001026" stroke-width="1.2" stroke-linecap="round" stroke-linejoin="round"/><path d="M256.56311,168.22594c2.09997,-0.0104 4.30094,0.1787 4.4044,0.87819c0.10693,1.39949 -1.37918,4.20688 -2.97866,4.31481c-1.79899,0.20891 -6.01132,-2.27025 -6.01925,-3.87023c-0.10594,-1.19949 2.59353,-1.31286 4.5935,-1.32277z" fill="#001026" fill-rule="evenodd" stroke="#001026" stroke-width="1.2" stroke-linecap="round" stroke-linejoin="round"/><path d="M211.55623,166.94889c0,0 8.61377,2.75736 12.12908,5.83998" fill="none" fill-rule="evenodd" stroke="#001026" stroke-width="1.2" stroke-linecap="round" stroke-linejoin="round"/><path d="M224.00264,176.28734c-4.29153,1.72128 -11.69688,0.65796 -11.69688,0.65796" fill="none" fill-rule="evenodd" stroke="#001026" stroke-width="1.2" stroke-linecap="round" stroke-linejoin="round"/><path d="M268.305,156.46762c2.92226,4.48558 3.04752,9.58502 0.25647,11.39887c-2.79105,1.81385 -7.4014,-0.26334 -10.42365,-4.74842c-2.92226,-4.48558 -1.29752,-7.83502 1.49353,-9.64887c2.79055,-1.91385 5.75139,-1.48716 8.67365,2.99842z" fill="#ffffff" fill-rule="evenodd" stroke="#001026" stroke-width="1.2" stroke-linecap="round" stroke-linejoin="round"/><path d="M243.51917,159.39045c3.02176,4.38508 2.84852,9.78601 0.15796,11.69936c-3.29055,1.91633 -7.69743,0.53814 -10.71919,-3.84694c-3.12176,-4.38459 -2.09752,-8.83477 0.99154,-11.0501c3.08857,-2.31533 6.54793,-1.1874 9.56969,3.19769z" fill="#ffffff" fill-rule="evenodd" stroke="#001026" stroke-width="1.2" stroke-linecap="round" stroke-linejoin="round"/><path d="M256.16164,183.07295c0.01334,2.69236 -15.19655,7.70038 -21.96196,7.7339c-6.76541,0.03352 -2.52441,-4.92016 -2.53774,-7.61252c-0.01334,-2.69236 2.23634,0.36393 9.00175,0.33041c6.76541,-0.03352 15.48461,-3.14414 15.49795,-0.45178z" fill="#ffffff" fill-rule="nonzero" stroke="#001026" stroke-width="1.2" stroke-linecap="butt" stroke-linejoin="miter"/><path d="M234.91252,183.30322l-1.21654,6.75611" fill="none" fill-rule="nonzero" stroke="#001026" stroke-width="1.2" stroke-linecap="round" stroke-linejoin="miter"/></g></g></g></svg>