<svg version="1.1" xmlns="http://www.w3.org/2000/svg" xmlns:xlink="http://www.w3.org/1999/xlink" width="70.0169" height="62.49719" viewBox="0,0,70.0169,62.49719"><g transform="translate(-226.48374,-161.06315)"><g data-paper-data="{&quot;isPaintingLayer&quot;:true}" fill-rule="nonzero" stroke="none" stroke-linecap="butt" stroke-linejoin="miter" stroke-miterlimit="10" stroke-dasharray="" stroke-dashoffset="0" style="mix-blend-mode: normal"><path d="M241.77183,202.43866c-0.12036,-2.32625 -0.53972,-6.40291 1.11009,-7.68259c0.02377,-0.01844 1.4292,-0.01227 1.62633,-0.32319c0.5897,-0.93005 -2.13679,-4.43502 -2.57963,-5.32242c-1.40319,-3.96155 -1.1895,-8.23362 -3.07017,-12.03968l-0.54727,-0.68931c-0.06386,-0.079 -0.10211,-0.17955 -0.10211,-0.28904c0,-0.25033 0.19991,-0.45395 0.4488,-0.45994l0.91822,-0.02568l0.00361,0.12925c2.40699,-0.0972 4.85973,0.73103 7.26879,0.30696c0.94088,-0.16563 1.53399,-0.93799 2.36391,-1.23133c2.56259,-0.90578 4.67717,1.02021 6.28488,-1.47196c0.78644,-1.21909 1.1449,-3.13538 2.1311,-4.13952c0.95491,-0.97227 2.48043,-0.75571 3.71844,-1.03776c0.92779,-0.21138 1.64967,-0.71539 2.54799,-0.96727c2.66484,-0.74717 5.42503,-0.19004 8.14624,-0.98021c1.64291,-0.54048 4.50179,-0.9369 5.61396,-2.37468c0.84795,-1.09621 0.81768,-2.37208 2.57179,-2.74844c2.37544,-0.50967 4.63156,5.91211 4.66122,7.81702c0.33578,1.01634 1.77805,1.0182 2.68707,1.61678c1.71046,1.12631 3.66171,2.11847 5.62726,2.80984c0.79514,0.27968 2.28309,0.2587 2.833,1.0194c0.90769,1.25564 0.2076,5.17945 0.2076,6.70144c0,1.87025 0.06929,3.93992 -0.95974,5.61392c-0.80091,1.3029 -2.20063,2.07188 -3.05956,3.38762c-1.76364,2.70164 -3.04786,5.30977 -5.43277,7.44261c-3.06274,2.1537 -6.16952,2.33483 -9.73612,3.0034c-3.00268,0.56287 -5.9829,1.35394 -8.98245,1.9591c-2.69001,0.54211 -6.36292,0.9983 -8.84093,2.12188c-2.97119,1.34721 -5.65902,3.5697 -8.18628,5.6438c-4.97012,4.06886 -11.55128,6.22861 -17.42422,8.58687c-2.37458,0.43983 -4.21179,2.09056 -5.70587,3.91073l-0.01166,0.00751l0.0027,0.00249l-0.62312,0.67494c-0.08411,0.09168 -0.20489,0.14914 -0.33911,0.14914c-0.2541,0 -0.46008,-0.20599 -0.46008,-0.46008c0,-0.05076 0.00822,-0.09959 0.0234,-0.14524l0.26687,-0.86941l0.0909,0.0279c1.04723,-5.93578 6.96533,-9.51868 9.57046,-14.54397c2.64032,-1.52887 2.06216,-4.56106 5.33648,-5.13088z" fill="#000000" stroke-width="0.5"/><path d="M268.04097,186.03238c-0.00319,3.54633 -3.26663,6.6072 -7.28906,6.83663c-4.02242,0.22943 -9.14418,-12.65813 -9.14418,-12.65813c0,0 16.43642,2.27516 16.43322,5.82149z" data-paper-data="{&quot;index&quot;:null}" fill="#ffffff" stroke-width="0"/><path d="M272.04184,187.16673c0.00319,-3.54633 16.44544,-7.69684 16.44544,-7.69684c0,0 -5.14558,13.47319 -9.168,13.70261c-4.02244,0.22943 -7.28065,-2.45945 -7.27744,-6.00579z" data-paper-data="{&quot;index&quot;:null}" fill="#ffffff" stroke-width="0"/></g></g></svg>