<svg version="1.1" xmlns="http://www.w3.org/2000/svg" xmlns:xlink="http://www.w3.org/1999/xlink" width="88.13879" height="68.35755" viewBox="0,0,88.13879,68.35755"><g transform="translate(-246.19037,-113.62884)"><g data-paper-data="{&quot;isPaintingLayer&quot;:true}" fill-rule="nonzero" stroke="none" stroke-linecap="butt" stroke-linejoin="miter" stroke-miterlimit="10" stroke-dasharray="" stroke-dashoffset="0" style="mix-blend-mode: normal"><path d="M259.91203,158.84704l-0.50175,-0.4813c-1.31215,-1.08687 -2.76091,-1.55914 -4.26737,-2.31168c-2.47326,-1.25355 -6.24387,-4.12801 -7.9219,-6.37458c-0.63222,-0.84642 -1.47053,-2.29443 -0.75818,-3.34838c1.00076,-1.48067 6.48578,-2.01861 8.13239,-2.02479c1.52198,-0.00124 3.31665,0.17671 4.76827,-0.39155c1.04546,-0.40927 1.57568,-2.05336 2.17184,-2.92944c2.07235,-3.04536 3.33195,-7.35065 3.97293,-10.97507c0.65804,-3.66623 2.06585,-9.7329 5.16804,-12.11018c2.0162,-1.54506 4.97418,-2.69762 7.35759,-3.49504c2.91873,-0.97652 5.99182,-0.66158 9.05551,-0.66033c3.8807,0.00158 8.28882,-0.43866 12.08232,0.38685c3.8729,0.85215 7.82502,1.84146 11.66377,2.5805c3.26622,0.62882 5.60006,0.53055 8.65585,2.27742c6.60313,2.43496 13.21791,6.89305 14.83782,14.09924c-0.03421,7.13208 -1.22265,14.26507 -4.34067,20.70077c-1.62049,1.63983 -3.2728,3.65858 -5.18667,4.95978c-3.70991,2.5223 -8.89193,3.64138 -13.02767,5.36497c-3.68241,1.53413 -7.33362,3.41613 -11.22557,4.40327c-2.92524,0.74195 -6.10329,0.45184 -9.091,0.45184c-6.87192,-0.00116 -13.63776,2.55351 -20.30403,4.22628c-4.45663,1.11818 -8.68929,3.10903 -12.62814,5.51154c-1.5327,0.93487 -2.72944,1.96447 -4.26812,2.63168l0.06535,0.12413l-0.87636,0.46137c-0.07157,0.03954 -0.15387,0.06204 -0.24143,0.06204c-0.27614,0 -0.5,-0.22386 -0.5,-0.5c0,-0.11145 0.03646,-0.21438 0.09811,-0.29752l0.58262,-0.80581c1.37574,-1.90276 2.43926,-3.79037 3.25417,-6.00203c1.29685,-3.5155 2.22968,-6.79776 2.86821,-10.47918c0.26606,-1.53394 0.65537,-3.41019 0.40408,-5.0548z" fill="#000000" stroke-width="0.5"/><path d="M291.68099,140.18444c1.54197,4.66423 -1.85147,9.98045 -7.57948,11.87411c-5.728,1.89365 -18.76935,-13.02471 -18.76935,-13.02471c0,0 24.80683,-3.51362 26.34881,1.15061z" data-paper-data="{&quot;index&quot;:null}" fill="#ffffff" stroke-width="0"/><path d="M298.46548,140.09252c-1.54197,-4.66422 20.47093,-16.62903 20.47093,-16.62903c0,0 -1.57949,19.75196 -7.30749,21.64561c-5.72801,1.89365 -11.62149,-0.35234 -13.16347,-5.01658z" data-paper-data="{&quot;index&quot;:null}" fill="#ffffff" stroke-width="0"/></g></g></svg>