<svg version="1.1" xmlns="http://www.w3.org/2000/svg" xmlns:xlink="http://www.w3.org/1999/xlink" width="126.14527" height="103.37849" viewBox="0,0,126.14527,103.37849"><defs><linearGradient x1="255.66677" y1="204.36164" x2="248.23952" y2="221.4144" gradientUnits="userSpaceOnUse" id="color-1"><stop offset="0" stop-color="#ffffff"/><stop offset="1" stop-color="#9f9f9f"/></linearGradient></defs><g transform="translate(-165.48265,-137.34638)"><g data-paper-data="{&quot;isPaintingLayer&quot;:true}" stroke-miterlimit="10" stroke-dasharray="" stroke-dashoffset="0" style="mix-blend-mode: normal"><g stroke="#001026" stroke-width="1.2"><path d="M240.41532,195.00077c0.55208,2.15063 1.7209,10.47132 4.25499,11.48543c2.42321,0.92634 9.14537,-1.86875 10.10862,2.95226c0.9517,4.72168 -5.49326,5.57173 -11.03036,4.70544c-7.17259,-1.07882 -11.58699,-11.33763 -8.37602,-18.35544c1.22433,-2.45785 4.47915,-3.03765 5.04278,-0.78769z" data-paper-data="{&quot;index&quot;:null}" fill="#878787" fill-rule="evenodd" stroke-linecap="round" stroke-linejoin="round"/><g data-paper-data="{&quot;index&quot;:null}" fill-rule="nonzero" stroke-linejoin="miter"><g><g><path d="M252.05538,208.89684l4.31261,-9.90161l2.38371,1.03821l-4.31261,9.90161z" fill="#2c2c2c" stroke-linecap="butt"/><path d="M247.58525,219.57516l2.17838,1.00731l-6.75628,13.18153z" fill="#6c6c6c" stroke-linecap="butt"/><path d="M244.84731,219.93692l7.42726,-17.05274l6.7844,2.95493l-7.42724,17.05274z" fill="url(#color-1)" stroke-linecap="butt"/><path d="M251.23634,205.26788l3.22068,1.6209" fill="none" stroke-linecap="round"/><path d="M253.09933,210.00594l-2.85394,-1.46116" fill="none" stroke-linecap="round"/><path d="M249.10369,210.66527l2.40734,1.48481" fill="none" stroke-linecap="round"/><path d="M249.97,215.1874l-2.01698,-0.87849" fill="none" stroke-linecap="round"/><path d="M246.38833,216.89961l2.51087,1.74804" fill="none" stroke-linecap="round"/></g><path d="M253.58495,198.87385l1.11808,-2.56708l6.9678,3.03479l-1.11808,2.5671z" fill="#2c2c2c" stroke-linecap="butt"/></g><path d="M251.08074,211.63545c-1.16884,2.68361 -3.30672,4.34066 -4.77511,3.70111c-1.4684,-0.63956 -1.71125,-3.33352 -0.5424,-6.01712c1.16884,-2.68361 3.30673,-4.34064 4.77513,-3.70111c1.4684,0.63956 1.71124,3.3335 0.5424,6.01713z" fill="#878787" stroke-linecap="butt"/><path d="M260.83156,214.79163c-1.78634,4.10138 -5.32786,6.51443 -7.91021,5.3897c-2.58234,-1.12473 -3.22765,-5.36133 -1.4413,-9.46268c1.78634,-4.10138 5.32786,-6.51441 7.91021,-5.38969c2.58234,1.12473 3.22765,5.36132 1.44133,9.4627z" fill="#878787" stroke-linecap="butt"/></g></g><path d="M229.05603,186.40838c-0.12232,1.6548 -0.75779,1.60257 -1.55957,3.03076c-2.74357,4.88705 -4.24138,10.02554 -8.54081,13.90437c-0.62293,0.4837 -1.67233,1.65289 -2.37644,1.92586c-2.18318,0.84635 -4.7876,-0.67381 -6.8947,-0.93907c-3.36577,-0.42371 -7.147,-0.00834 -10.42675,0.70607c-1.91396,0.4169 -3.61988,1.48561 -5.56845,1.71642c-4.97487,0.58927 -10.12087,0.21566 -14.07316,-2.8587c-1.71254,-0.86584 -2.52035,-3.1374 -3.47512,-4.77562c-2.52662,-4.33523 -3.91952,-8.68966 -5.76945,-13.33297c-1.6252,-4.34177 -4.01096,-9.25711 -4.75358,-13.83868c-0.3002,-1.85209 -0.0092,-4.016 0.0037,-5.89438c0.01834,-2.65001 0.44641,-5.15313 0.88728,-7.75989c0.21054,-1.24488 0.20383,-2.90646 0.9885,-3.95503c1.6307,-2.17915 4.83371,-4.02818 7.22676,-5.15332c3.77585,-1.77528 7.68047,-3.97072 11.89186,-4.43644c2.53168,-0.27996 5.256,-0.00308 7.80504,-0.00212c7.36558,0.00849 14.3481,1.16604 16.78194,9.04354c2.01634,6.52619 4.70748,12.54075 7.58435,18.73986c1.76051,3.79354 5.48505,5.90483 8.17994,9.1387c1.11564,1.33878 2.54785,2.46942 2.59346,4.25648c0,0 0,0.48446 -0.48446,0.48446c-0.00688,0 -0.01365,-0.0001 -0.02034,-0.00029z" fill="#000000" fill-rule="nonzero" stroke="none" stroke-width="0.5" stroke-linecap="butt" stroke-linejoin="miter"/><g fill-rule="evenodd"><path d="M224.78334,200.96667c0.6,0.8 3.3,2 -0.2,4.2c-3.6,2.1 -12.7,5 -21.6,-2.9c-9.6,-8.6 -4.5,-20.3 -0.1,-20.7c4.3,-0.4 2.6,6.6 5.7,14.4c4.4,11.3 15.6,4.2 16.2,5z" fill="#878787" stroke="#001026" stroke-width="1.2" stroke-linecap="round" stroke-linejoin="round"/><path d="M205.68334,186.76667c0.5,4.4 1.5,7.4 1.5,7.4c0,0 -1.6,-2 -4,-1.6c-2.9,0.5 -3.8,2.9 -3.9,3.6c-0.7,-1.7 -1.3,-3.8 -1.1,-7.4c0.5,-3.5 2.7,-7.1 5.2,-6.7c2,0.4 1.9,2 2.3,4.7z" fill="#ffffff" stroke="none" stroke-width="1" stroke-linecap="butt" stroke-linejoin="miter"/></g><path d="M226.4449,192.91737c-0.53175,2.35738 -4.44264,4.53794 -4.94762,5.53543c-0.10149,0.2995 2.95576,4.87478 4.76209,7.62381c2.60084,3.853 -2.54229,8.48745 -6.4501,6.02796c-3.6083,-2.35799 -7.86791,-10.47931 -8.27824,-12.42138c-1.03797,-4.42523 7.15496,-10.58688 12.52673,-14.78095" fill="#878787" fill-rule="evenodd" stroke="#001026" stroke-width="1.2" stroke-linecap="round" stroke-linejoin="round"/><path d="M248.3198,236.3753c0,3.86599 -11.83333,3 -11.83333,3c0,0 -10.5,0.86599 -10.5,-3c0,-3.45051 2.7452,-32.89294 7.69909,-34.5825c3.83539,-1.30808 4.43187,28.24917 5.13424,28.24917c6.53537,0 9.5,2.46734 9.5,6.33333z" fill="#878787" fill-rule="nonzero" stroke="#001026" stroke-width="1.2" stroke-linecap="butt" stroke-linejoin="miter"/><path d="M242.3198,237.04197c0,3.86599 -11.83333,3 -11.83333,3c0,0 -10.5,0.86599 -10.5,-3c0,-3.45051 2.7452,-32.89294 7.69909,-34.58249c3.83539,-1.30808 4.43187,28.24916 5.13424,28.24916c6.53537,0 9.5,2.46734 9.5,6.33333z" fill="#878787" fill-rule="nonzero" stroke="#001026" stroke-width="1.2" stroke-linecap="butt" stroke-linejoin="miter"/><g fill-rule="evenodd"><path d="M228.46746,211.92774c-9.18562,-0.14169 -6.59918,-8.70522 -6.1184,-18.13437c0.22478,-5.09504 2.32496,-11.27985 8.25588,-12.7846c3.28322,-1.01509 4.71707,5.1431 6.65887,4.10414c2.93427,-1.51331 4.46287,3.07617 4.72896,5.71988c0,0 0.33245,3.94201 -0.02111,6.21687c-0.40861,2.85536 -0.99765,5.79696 -1.69222,7.12646c0,0 -1.91695,7.90424 -11.81198,7.75161z" fill="#878787" stroke="#001026" stroke-width="1.2" stroke-linecap="round" stroke-linejoin="round"/><path d="M239.54139,204.42127c0,0 -1.87085,-0.43583 -3.96129,-1.09921c-2.58071,-0.76155 -5.03204,-1.25242 -4.5644,-4.91184c0.58904,-2.9416 0.7429,-6.56186 6.05356,-5.88595c5.04397,0.58172 4.40781,3.65665 4.40781,3.65665c-0.04435,5.00879 -1.93568,8.24035 -1.93568,8.24035z" fill="#ffffff" stroke="none" stroke-width="1" stroke-linecap="butt" stroke-linejoin="miter"/></g><path d="M220.06371,195.99621l2.11464,-8.76682l4.89755,0.85834l-2.11464,8.76682z" fill="#878787" fill-rule="nonzero" stroke="#001026" stroke-width="0" stroke-linecap="butt" stroke-linejoin="miter"/><g><g fill-rule="evenodd"><g><path d="M259.3865,138.13175c0.30958,-0.18483 0.80398,-0.06007 0.88396,0.34441l2.06442,10.81611c0,0 6.15823,5.0126 7.8917,8.40304c2.9224,5.6524 2.79838,10.1518 2.79838,10.1518c0,0 6.98673,2.45065 7.90165,8.20329c0.91492,5.75264 -4.01696,16.32036 -22.97776,19.08042c-18.9608,2.76006 -33.78836,-3.08489 -40.31239,-14.82402c-6.52402,-11.73913 5.33875,-24.76505 4.69969,-23.99589l-1.20682,-17.98231c-0.07997,-0.40448 0.43433,-0.67923 0.82389,-0.45958l11.69197,8.49223c0,0 4.57901,-1.47401 9.28314,-1.43992c2.80648,-0.06044 5.19356,0.25872 7.47081,0.77265z" fill="#878787" stroke="#001026" stroke-width="1.2" stroke-linecap="butt" stroke-linejoin="miter"/><path d="M272.70544,168.23169c0,0 6.8019,2.14107 7.71682,7.89371c0.91492,5.75264 -4.39159,15.80107 -23.14767,18.47121c-24.41879,3.78979 -35.18811,-11.16454 -27.96903,-21.41807c7.22406,-10.3534 18.25707,-0.69251 26.67651,-0.87385c7.21596,-0.14116 8.32841,-6.39355 16.72336,-4.07301z" fill="#ffffff" stroke="none" stroke-width="1" stroke-linecap="butt" stroke-linejoin="miter"/><path d="M291.02792,170.24578c-4.88324,3.56145 -12.0793,3.30311 -12.0793,3.30311" fill="none" stroke="#001026" stroke-width="1.2" stroke-linecap="round" stroke-linejoin="round"/><path d="M289.1723,181.36723c-6.31707,0.18594 -10.11771,-1.90575 -10.11771,-1.90575" fill="none" stroke="#001026" stroke-width="1.2" stroke-linecap="round" stroke-linejoin="round"/><path d="M255.71194,169.68801c2.0974,0.10448 4.28472,0.41369 4.34977,1.1178c0.03022,1.40324 -1.60723,4.12514 -3.21022,4.14542c-1.80772,0.1102 -5.87814,-2.59567 -5.79853,-4.19369c-0.04017,-1.20349 2.66146,-1.16903 4.65898,-1.06953z" fill="#001026" stroke="#001026" stroke-width="1.2" stroke-linecap="round" stroke-linejoin="round"/><path d="M210.8423,165.95099c0,0 8.45004,3.22441 11.79147,6.4947" fill="none" stroke="#001026" stroke-width="1.2" stroke-linecap="round" stroke-linejoin="round"/><path d="M222.75926,175.95628c-4.37925,1.48396 -11.71536,0.01715 -11.71536,0.01715" fill="none" stroke="#001026" stroke-width="1.2" stroke-linecap="round" stroke-linejoin="round"/><g><path d="M268.07943,158.58959c2.67252,4.63871 2.51866,9.73737 -0.36743,11.39583c-2.88609,1.65846 -7.37591,-0.6678 -10.14831,-5.31149c-2.67252,-4.63871 -2.51866,-9.73737 0.36743,-11.39583c2.89106,-1.75834 7.47579,0.67278 10.14831,5.31149z" fill="#ffffff" stroke="#001026" stroke-width="1.2" stroke-linecap="round" stroke-linejoin="round"/><path d="M264.10061,165.09969c-0.05473,1.09864 -0.89852,1.95772 -1.89728,1.90797c-0.99876,-0.04975 -1.75299,-0.98844 -1.69826,-2.08708c0.05473,-1.09864 0.89852,-1.95772 1.89728,-1.90797c0.99876,0.04975 1.75299,0.98844 1.69826,2.08708" fill="#f4f4f4" stroke="none" stroke-width="1" stroke-linecap="butt" stroke-linejoin="miter"/></g><g><path d="M243.17084,160.15225c2.77737,4.54381 2.30895,9.92717 -0.48223,11.69049c-3.39044,1.73346 -7.71534,0.11628 -10.49271,-4.42753c-2.87725,-4.54879 -0.109,-8.8664 3.09661,-10.90945c3.21059,-2.14292 5.10096,-0.89732 7.87833,3.64649z" fill="#ffffff" stroke="#001026" stroke-width="1.2" stroke-linecap="round" stroke-linejoin="round"/><path d="M239.7488,166.5399c-0.05473,1.09864 -0.89852,1.95772 -1.89728,1.90797c-0.99876,-0.04975 -1.75299,-0.98844 -1.69826,-2.08708c0.05473,-1.09864 0.89852,-1.95772 1.89728,-1.90797c0.99379,0.14963 1.75299,0.98844 1.69826,2.08708" fill="#f4f4f4" stroke="none" stroke-width="1" stroke-linecap="butt" stroke-linejoin="miter"/></g></g></g><path d="M251.92693,184.22572c-0.10035,2.01442 -6.26288,5.13542 -10.88253,4.9053c-4.61965,-0.23013 -8.63434,-5.05206 -8.53399,-7.06648c0.10035,-2.01442 6.4582,0.9933 11.07785,1.22343c4.61965,0.23013 8.43902,-1.07668 8.33867,0.93775z" fill="none" fill-rule="nonzero" stroke="#001026" stroke-width="1.2" stroke-linecap="butt" stroke-linejoin="miter"/></g><path d="M185.16666,166.1962c0,2.98863 -2.97532,5.41139 -6.64557,5.41139c-3.67025,0 -8.35444,-11.1076 -8.35444,-11.1076c0,0 15,2.70757 15,5.6962z" fill="#ffffff" fill-rule="nonzero" stroke="none" stroke-width="0" stroke-linecap="butt" stroke-linejoin="miter"/><path d="M191.83333,164.19621c0,-2.98863 15,-5.6962 15,-5.6962c0,0 -4.68418,11.1076 -8.35443,11.1076c-3.67025,0 -6.64557,-2.42276 -6.64557,-5.41139z" data-paper-data="{&quot;index&quot;:null}" fill="#ffffff" fill-rule="nonzero" stroke="none" stroke-width="0" stroke-linecap="butt" stroke-linejoin="miter"/><path d="M235.01017,185.65226l0.1245,-4.10838" fill="none" fill-rule="nonzero" stroke="#001026" stroke-width="1.2" stroke-linecap="round" stroke-linejoin="miter"/></g></g></svg>