<svg version="1.1" xmlns="http://www.w3.org/2000/svg" xmlns:xlink="http://www.w3.org/1999/xlink" width="108.95067" height="104.7241" viewBox="0,0,108.95067,104.7241"><defs><linearGradient x1="253.57248" y1="207.78749" x2="241.1425" y2="221.62426" gradientUnits="userSpaceOnUse" id="color-1"><stop offset="0" stop-color="#ffffff"/><stop offset="1" stop-color="#9f9f9f"/></linearGradient></defs><g transform="translate(-182.04934,-136.00077)"><g data-paper-data="{&quot;isPaintingLayer&quot;:true}" stroke-miterlimit="10" stroke-dasharray="" stroke-dashoffset="0" style="mix-blend-mode: normal"><g stroke="#001026" stroke-width="1.2"><path d="M242.05524,194.09129c-0.15495,2.21494 -1.67214,10.47922 0.41232,12.24132c2.00695,1.64383 9.26771,1.11335 8.66005,5.99195c-0.58725,4.78071 -6.97107,3.55306 -11.95169,0.98337c-6.46544,-3.28757 -7.41616,-14.4153 -2.15429,-20.06088c1.93752,-1.94577 5.20895,-1.46861 5.03361,0.84424z" data-paper-data="{&quot;index&quot;:null}" fill="#878787" fill-rule="evenodd" stroke-linecap="round" stroke-linejoin="round"/><g data-paper-data="{&quot;index&quot;:null}" fill-rule="nonzero" stroke-linejoin="miter"><g><g><path d="M248.71424,210.95099l7.21741,-8.03425l1.93416,1.73751l-7.21741,8.03425z" fill="#2c2c2c" stroke-linecap="butt"/><path d="M241.1022,219.67253l1.74909,1.64339l-10.57143,10.37521z" fill="#6c6c6c" stroke-linecap="butt"/><path d="M238.39004,219.15163l12.42997,-13.83676l5.50493,4.94525l-12.42995,13.83676z" fill="url(#color-1)" stroke-linecap="butt"/><path d="M249.08248,207.24901l2.54444,2.5546" fill="none" stroke-linecap="round"/><path d="M247.1079,210.04563l2.24686,2.28726" fill="none" stroke-linecap="round"/><path d="M247.17089,213.86612l-1.81564,-2.16874" fill="none" stroke-linecap="round"/><path d="M244.74996,216.26176l-1.6366,-1.4702" fill="none" stroke-linecap="round"/><path d="M242.64173,219.20716l-1.83077,-2.45119" fill="none" stroke-linecap="round"/></g><path d="M253.3292,201.92314l1.87118,-2.08296l5.65374,5.07892l-1.87119,2.08297z" fill="#2c2c2c" stroke-linecap="butt"/></g><path d="M246.92504,213.24197c-1.95612,2.17751 -4.50775,3.07507 -5.6992,2.00474c-1.19147,-1.07033 -0.5716,-3.70324 1.38452,-5.88074c1.95612,-2.17751 4.50774,-3.07505 5.69923,-2.00472c1.19147,1.07033 0.57161,3.70323 -1.38452,5.88075z" fill="#878787" stroke-linecap="butt"/><path d="M255.18121,219.3145c-2.98955,3.32789 -7.11168,4.49978 -9.20702,2.61748c-2.09534,-1.8823 -1.37045,-6.10601 1.6191,-9.43389c2.98955,-3.32789 7.11167,-4.49977 9.20701,-2.61748c2.09534,1.8823 1.37046,6.10601 -1.61908,9.43391z" fill="#878787" stroke-linecap="butt"/></g></g><path d="M224.47246,182.15165c-0.03138,0.5819 -0.02402,1.16831 0.14576,1.40501c0.19981,0.27857 0.71692,0.23403 0.87704,0.53716c0.92488,1.75096 -0.09815,5.0673 0.55939,7.11099c0.00618,1.43509 0.27218,2.23419 -1.05071,3.12385c-2.3725,1.59554 -5.91889,2.09117 -8.59348,2.67489c-3.17791,0.69357 -4.99966,2.76919 -8.4982,2.73056c-2.24855,-0.05866 -3.61648,-1.53993 -5.68353,-1.99651c-2.85324,-0.63023 -5.94367,0.69134 -8.73203,1.03797c-1.97736,0.24581 -4.03913,0.1992 -6.03004,0.29669c-0.76834,0.03476 -2.75163,0.10134 -3.34618,-0.51045c-0.59427,-0.61151 -0.9274,-3.20776 -1.13098,-4.08315c-1.0878,-4.67742 -0.94207,-9.21679 -0.92377,-14.0111c0.04974,-2.78912 -0.30937,-8.9777 1.6679,-11.08327c1.95766,-2.0847 6.45585,-3.65938 9.09901,-4.63933c1.06534,-0.39424 2.80208,-1.42959 3.92947,-1.4193c1.64566,0.01503 4.28023,1.59558 5.76978,2.28967c3.50659,1.63399 6.56076,2.54226 9.74818,4.8116c3.06119,2.17946 4.77921,5.35551 7.66074,7.74022c1.07192,0.8871 2.38669,1.61495 3.67783,2.34098c0.06069,-0.12773 0.18512,-0.25837 0.4402,-0.25939c0.5,-0.002 0.502,0.498 0.502,0.498l0.00036,0.09107c0.00022,0.05544 -0.00252,0.12396 -0.00724,0.20275c0.44276,0.25731 0.87466,0.51911 1.28423,0.79215c0,0 0.41603,0.27735 0.13868,0.69338c-0.27735,0.41603 -0.69338,0.13868 -0.69338,0.13868c-0.26252,-0.17502 -0.53381,-0.34547 -0.81102,-0.51311z" fill="#000000" fill-rule="nonzero" stroke="none" stroke-width="0.5" stroke-linecap="butt" stroke-linejoin="miter"/><g fill-rule="evenodd"><path d="M224.78334,200.96667c0.6,0.8 3.3,2 -0.2,4.2c-3.6,2.1 -12.7,5 -21.6,-2.9c-9.6,-8.6 -4.5,-20.3 -0.1,-20.7c4.3,-0.4 2.6,6.6 5.7,14.4c4.4,11.3 15.6,4.2 16.2,5z" fill="#878787" stroke="#001026" stroke-width="1.2" stroke-linecap="round" stroke-linejoin="round"/><path d="M205.68334,186.76667c0.5,4.4 1.5,7.4 1.5,7.4c0,0 -1.6,-2 -4,-1.6c-2.9,0.5 -3.8,2.9 -3.9,3.6c-0.7,-1.7 -1.3,-3.8 -1.1,-7.4c0.5,-3.5 2.7,-7.1 5.2,-6.7c2,0.4 1.9,2 2.3,4.7z" fill="#ffffff" stroke="none" stroke-width="1" stroke-linecap="butt" stroke-linejoin="miter"/></g><path d="M226.4449,192.91737c-0.53175,2.35738 -4.44264,4.53794 -4.94762,5.53543c-0.10149,0.2995 2.95576,4.87478 4.76209,7.62381c2.60084,3.853 -2.54229,8.48745 -6.4501,6.02796c-3.6083,-2.35799 -7.86791,-10.47931 -8.27824,-12.42138c-1.03797,-4.42523 7.15496,-10.58688 12.52673,-14.78095" fill="#878787" fill-rule="evenodd" stroke="#001026" stroke-width="1.2" stroke-linecap="round" stroke-linejoin="round"/><path d="M248.3198,236.3753c0,3.86599 -11.83333,3 -11.83333,3c0,0 -10.5,0.86599 -10.5,-3c0,-3.45051 2.7452,-32.89294 7.69909,-34.5825c3.83539,-1.30808 4.43187,28.24917 5.13424,28.24917c6.53537,0 9.5,2.46734 9.5,6.33333z" fill="#878787" fill-rule="nonzero" stroke="#001026" stroke-width="1.2" stroke-linecap="butt" stroke-linejoin="miter"/><path d="M242.3198,237.04197c0,3.86599 -11.83333,3 -11.83333,3c0,0 -10.5,0.86599 -10.5,-3c0,-3.45051 2.7452,-32.89294 7.69909,-34.58249c3.83539,-1.30808 4.43187,28.24916 5.13424,28.24916c6.53537,0 9.5,2.46734 9.5,6.33333z" fill="#878787" fill-rule="nonzero" stroke="#001026" stroke-width="1.2" stroke-linecap="butt" stroke-linejoin="miter"/><g fill-rule="evenodd"><path d="M228.46746,211.92774c-9.18562,-0.14169 -6.59918,-8.70522 -6.1184,-18.13437c0.22478,-5.09504 2.32496,-11.27985 8.25588,-12.7846c3.28322,-1.01509 4.71707,5.1431 6.65887,4.10414c2.93427,-1.51331 4.46287,3.07617 4.72896,5.71988c0,0 0.33245,3.94201 -0.02111,6.21687c-0.40861,2.85536 -0.99765,5.79696 -1.69222,7.12646c0,0 -1.91695,7.90424 -11.81198,7.75161z" fill="#878787" stroke="#001026" stroke-width="1.2" stroke-linecap="round" stroke-linejoin="round"/><path d="M239.54139,204.42127c0,0 -1.87085,-0.43583 -3.96129,-1.09921c-2.58071,-0.76155 -5.03204,-1.25242 -4.5644,-4.91184c0.58904,-2.9416 0.7429,-6.56186 6.05356,-5.88595c5.04397,0.58172 4.40781,3.65665 4.40781,3.65665c-0.04435,5.00879 -1.93568,8.24035 -1.93568,8.24035z" fill="#ffffff" stroke="none" stroke-width="1" stroke-linecap="butt" stroke-linejoin="miter"/></g><path d="M220.06371,195.99621l2.11464,-8.76682l4.89755,0.85834l-2.11464,8.76682z" fill="#878787" fill-rule="nonzero" stroke="#001026" stroke-width="0" stroke-linecap="butt" stroke-linejoin="miter"/><g><g fill-rule="evenodd"><g><path d="M257.2,136.5c0.3,-0.2 0.8,-0.1 0.9,0.3l2.6,10.7c0,0 6.4,4.7 8.3,8c3.2,5.5 3.3,10 3.3,10c0,0 7.1,2.1 8.3,7.8c1.2,5.7 -3.2,16.5 -22,20.2c-18.8,3.7 -33.9,-1.4 -41,-12.8c-7.1,-11.4 4.1,-25 3.5,-24.2l-2.1,-17.9c-0.1,-0.4 0.4,-0.7 0.8,-0.5l12.1,7.9c0,0 4.5,-1.7 9.2,-1.9c2.8,-0.2 5.2,0 7.5,0.4z" fill="#878787" stroke="#001026" stroke-width="1.2" stroke-linecap="butt" stroke-linejoin="miter"/><path d="M272.00001,165.9c0,0 6.9,1.8 8.1,7.5c1.2,5.7 -3.6,16 -22.2,19.6c-24.2,5 -35.7,-9.4 -29,-20c6.7,-10.7 18.2,-1.6 26.6,-2.2c7.2,-0.5 8,-6.8 16.5,-4.9z" fill="#ffffff" stroke="none" stroke-width="1" stroke-linecap="butt" stroke-linejoin="miter"/><path d="M290.40001,167c-4.7,3.8 -11.9,3.9 -11.9,3.9" fill="none" stroke="#001026" stroke-width="1.2" stroke-linecap="round" stroke-linejoin="round"/><path d="M289.10001,178.2c-6.3,0.5 -10.2,-1.4 -10.2,-1.4" fill="none" stroke="#001026" stroke-width="1.2" stroke-linecap="round" stroke-linejoin="round"/><path d="M255.10001,168.2c2.1,0 4.3,0.2 4.4,0.9c0.1,1.4 -1.4,4.2 -3,4.3c-1.8,0.2 -6,-2.3 -6,-3.9c-0.1,-1.2 2.6,-1.3 4.6,-1.3z" fill="#001026" stroke="#001026" stroke-width="1.2" stroke-linecap="round" stroke-linejoin="round"/><path d="M210.10001,166.7c0,0 8.6,2.8 12.1,5.9" fill="none" stroke="#001026" stroke-width="1.2" stroke-linecap="round" stroke-linejoin="round"/><path d="M222.50001,176.1c-4.3,1.7 -11.7,0.6 -11.7,0.6" fill="none" stroke="#001026" stroke-width="1.2" stroke-linecap="round" stroke-linejoin="round"/><g><path d="M266.90001,156.5c2.9,4.5 3,9.6 0.2,11.4c-2.8,1.8 -7.4,-0.3 -10.4,-4.8c-2.9,-4.5 -3,-9.6 -0.2,-11.4c2.8,-1.9 7.5,0.3 10.4,4.8z" fill="#ffffff" stroke="#001026" stroke-width="1.2" stroke-linecap="round" stroke-linejoin="round"/><path d="M263.25001,163.2c0,1.1 -0.8,2 -1.8,2c-1,0 -1.8,-0.9 -1.8,-2c0,-1.1 0.8,-2 1.8,-2c1,0 1.8,0.9 1.8,2" fill="#c2c2c2" stroke="none" stroke-width="1" stroke-linecap="butt" stroke-linejoin="miter"/></g><g><path d="M242.10001,159.3c3,4.4 2.8,9.8 0.1,11.7c-3.3,1.9 -7.7,0.5 -10.7,-3.9c-3.1,-4.4 -0.55,-8.85 2.55,-11.05c3.1,-2.3 5.05,-1.15 8.05,3.25z" fill="#ffffff" stroke="#001026" stroke-width="1.2" stroke-linecap="round" stroke-linejoin="round"/><path d="M239.00001,165.85c0,1.1 -0.8,2 -1.8,2c-1,0 -1.8,-0.9 -1.8,-2c0,-1.1 0.8,-2 1.8,-2c1,0.1 1.8,0.9 1.8,2" fill="#c2c2c2" stroke="none" stroke-width="1" stroke-linecap="butt" stroke-linejoin="miter"/></g></g></g><path d="M250.71285,181.22917c0,2.01692 -5.99962,5.44066 -10.625,5.44066c-4.62538,0 -8.875,-4.61622 -8.875,-6.63314c0,-2.01692 6.49962,0.67076 11.125,0.67076c4.62538,0 8.375,-1.49521 8.375,0.52171z" fill="none" fill-rule="nonzero" stroke="#001026" stroke-width="1.2" stroke-linecap="butt" stroke-linejoin="miter"/></g><path d="M234.76119,179.92543l-0.1245,4.10838" fill="none" fill-rule="nonzero" stroke="#001026" stroke-width="1.2" stroke-linecap="round" stroke-linejoin="miter"/></g></g></svg>