<svg version="1.1" xmlns="http://www.w3.org/2000/svg" xmlns:xlink="http://www.w3.org/1999/xlink" width="146.56764" height="174.06095" viewBox="0,0,146.56764,174.06095"><defs><linearGradient x1="244.31242" y1="212.42931" x2="234.41034" y2="228.17443" gradientUnits="userSpaceOnUse" id="color-1"><stop offset="0" stop-color="#ffffff"/><stop offset="1" stop-color="#9f9f9f"/></linearGradient><radialGradient cx="218.3128" cy="159.8628" r="8.13758" gradientUnits="userSpaceOnUse" id="color-2"><stop offset="0" stop-color="#ffffff"/><stop offset="1" stop-color="#1a1a1a"/></radialGradient><radialGradient cx="234.90393" cy="174.47766" r="6.75889" gradientUnits="userSpaceOnUse" id="color-3"><stop offset="0" stop-color="#ffffff"/><stop offset="1" stop-color="#1a1a1a"/></radialGradient><linearGradient x1="199.72846" y1="100.51128" x2="199.41022" y2="112.10691" gradientUnits="userSpaceOnUse" id="color-4"><stop offset="0" stop-color="#ffce72"/><stop offset="1" stop-color="#ff4400"/></linearGradient><linearGradient x1="186.66103" y1="80.87984" x2="168.58495" y2="138.43912" gradientUnits="userSpaceOnUse" id="color-5"><stop offset="0" stop-color="#979797"/><stop offset="1" stop-color="#030303"/></linearGradient><linearGradient x1="160.90821" y1="87.43516" x2="151.5563" y2="94.29824" gradientUnits="userSpaceOnUse" id="color-6"><stop offset="0" stop-color="#ffce72"/><stop offset="1" stop-color="#ff4400"/></linearGradient></defs><g transform="translate(-122.40114,-66.66392)"><g data-paper-data="{&quot;isPaintingLayer&quot;:true}" stroke-miterlimit="10" stroke-dasharray="" stroke-dashoffset="0" style="mix-blend-mode: normal"><path d="M237.36847,214.46497c0,9.04367 0.28757,16.125 -4.5,16.375c-6.77833,0.35396 -4.75,-7.33133 -4.75,-16.375c0,-9.04367 1.46243,-17.875 4.5,-17.875c3.03757,0 4.75,8.83133 4.75,17.875z" fill="#717171" fill-rule="nonzero" stroke="#001026" stroke-width="1.2" stroke-linecap="butt" stroke-linejoin="miter"/><g fill-rule="nonzero" stroke="#001026" stroke-width="1.2" stroke-linejoin="miter"><g><g><path d="M240.06137,216.37122l5.74961,-9.14232l2.20094,1.38415l-5.74961,9.14234z" fill="#2c2c2c" stroke-linecap="butt"/><path d="M234.03947,226.25783l2.00257,1.32278l-8.65779,12.01842z" fill="#6c6c6c" stroke-linecap="butt"/><path d="M231.27825,226.20467l9.90208,-15.74512l6.26419,3.93953l-9.90207,15.74514z" fill="url(#color-1)" stroke-linecap="butt"/><path d="M239.79617,212.66046l2.94097,2.08584" fill="none" stroke-linecap="round"/><path d="M238.32471,215.75156l2.60236,1.87288" fill="none" stroke-linecap="round"/><path d="M239.03501,219.50596l-2.1573,-1.82924" fill="none" stroke-linecap="round"/><path d="M235.19332,221.10641l1.86231,1.17121" fill="none" stroke-linecap="round"/><path d="M235.47773,225.53801l-2.22011,-2.105" fill="none" stroke-linecap="round"/></g><path d="M243.07766,206.69124l1.49063,-2.37023l6.43349,4.04601l-1.49063,2.37025z" fill="#2c2c2c" stroke-linecap="butt"/></g><path d="M238.68682,218.93257c-1.55831,2.47785 -3.92065,3.7953 -5.27643,2.94264c-1.35579,-0.85266 -1.19162,-3.55255 0.36668,-6.03038c1.55831,-2.47785 3.92065,-3.79529 5.27643,-2.94264c1.35579,0.85266 1.19163,3.55256 -0.36667,6.03039z" fill="#717171" stroke-linecap="butt"/><path d="M247.85361,223.51624c-2.38155,3.78688 -6.24509,5.64115 -8.62942,4.14167c-2.38432,-1.49949 -2.38658,-5.78494 -0.00503,-9.57183c2.38155,-3.78688 6.24508,-5.64117 8.62941,-4.14169c2.38432,1.49949 2.38657,5.78495 0.00503,9.57184z" fill="#717171" stroke-linecap="butt"/></g><g fill-rule="evenodd"><path d="M225.12118,212.48415c0.90838,0.41814 3.85413,0.18888 1.82252,3.78924c-2.16713,3.55999 -8.79111,10.44062 -20.37801,7.72702c-12.53566,-2.99621 -13.61706,-15.71355 -9.9374,-18.15898c3.5917,-2.39783 5.42721,4.56786 11.86518,9.95326c9.24675,7.84524 15.71931,-3.7287 16.62769,-3.31055z" fill="#717171" stroke="#001026" stroke-width="1.2" stroke-linecap="round" stroke-linejoin="round"/><path d="M201.56528,209.08277c2.53337,3.63209 4.84036,5.7949 4.84036,5.7949c0,0 -2.35889,-0.99777 -4.27948,0.49601c-2.31277,1.81964 -1.9624,4.35879 -1.71728,5.02205c-1.42458,-1.16216 -2.95153,-2.72371 -4.48856,-5.98522c-1.22559,-3.3163 -1.00355,-7.52946 1.38565,-8.3672c1.94941,-0.59982 2.62277,0.85503 4.25931,3.03947z" fill="#ffffff" stroke="none" stroke-width="1" stroke-linecap="butt" stroke-linejoin="miter"/></g><path d="M248.3198,236.37531c0,3.86599 -11.83333,3 -11.83333,3c0,0 -10.5,0.86599 -10.5,-3c0,-3.45051 2.7452,-32.89294 7.69909,-34.5825c3.83539,-1.30808 4.43187,28.24917 5.13424,28.24917c6.53537,0 9.5,2.46734 9.5,6.33333z" fill="#717171" fill-rule="nonzero" stroke="#001026" stroke-width="1.2" stroke-linecap="butt" stroke-linejoin="miter"/><path d="M242.3198,237.04198c0,3.86599 -11.83333,3 -11.83333,3c0,0 -10.5,0.86599 -10.5,-3c0,-3.45051 2.7452,-32.89294 7.69909,-34.58249c3.83539,-1.30808 4.43187,28.24916 5.13424,28.24916c6.53537,0 9.5,2.46734 9.5,6.33333z" fill="#717171" fill-rule="nonzero" stroke="#001026" stroke-width="1.2" stroke-linecap="butt" stroke-linejoin="miter"/><g fill-rule="evenodd"><path d="M230.32746,217.57533c-7.99273,4.52901 -10.09858,-4.16518 -14.45851,-12.5396c-2.38607,-4.50738 -3.70677,-10.90415 0.64566,-15.20488c2.31719,-2.53782 6.67189,2.04649 7.82027,0.16733c1.76401,-2.79074 5.40608,0.39284 6.9742,2.53783c0,0 2.28274,3.23095 3.12976,5.37165c1.09348,2.66914 2.07503,5.50403 2.14929,7.00219c0,0 2.34934,7.78668 -6.26066,12.66547z" fill="#717171" stroke="#001026" stroke-width="1.2" stroke-linecap="round" stroke-linejoin="round"/><path d="M236.0758,205.49496c0,0 -1.83397,0.57149 -3.97251,1.05795c-2.61102,0.65006 -4.97342,1.46802 -6.42314,-1.92437c-0.98156,-2.83488 -2.68204,-6.03462 2.23972,-8.14086c4.64408,-2.05242 5.65254,0.92129 5.65254,0.92129c2.498,4.34166 2.50339,8.086 2.50339,8.086z" fill="#ffffff" stroke="none" stroke-width="1" stroke-linecap="butt" stroke-linejoin="miter"/></g><path d="M202.27085,208.04938c-8.61372,2.75534 -15.27078,5.1867 -16.96752,0.70291c-2.40229,-6.34823 5.53561,-6.75781 14.14932,-9.51315c8.61371,-2.75534 17.47075,-4.05307 18.39621,-1.15992c0.92546,2.89316 -6.96429,7.21482 -15.578,9.97016z" fill="#717171" fill-rule="nonzero" stroke="#001026" stroke-width="1.2" stroke-linecap="butt" stroke-linejoin="miter"/><g data-paper-data="{&quot;index&quot;:null}"><g><path d="M240.2018,151.09044c2.14663,0.91759 4.26816,2.05737 6.5072,3.7505c3.83233,2.72823 6.67976,6.60537 6.67976,6.60537l14.45056,-0.03274c0.44439,0.0502 0.70023,0.57416 0.39846,0.85511l-11.51277,13.86637c-0.06731,-0.99772 1.91553,16.50851 -10.24896,22.20021c-12.16448,5.69169 -27.60535,1.74204 -41.35476,-11.60275c-13.74942,-13.3448 -11.55538,-24.79844 -7.44378,-28.92455c4.11161,-4.1261 11.20953,-2.01909 11.20953,-2.01909c0,0 2.53541,-3.71909 8.2152,-6.5879c3.39109,-1.73218 11.31847,-2.1868 11.31847,-2.1868l8.00956,-7.55625c0.30178,-0.28097 0.77555,-0.09243 0.91816,0.23873z" fill="#717171" fill-rule="evenodd" stroke="#001026" stroke-width="1.2" stroke-linecap="butt" stroke-linejoin="miter"/><path d="M230.65789,159.99892c6.31015,4.09948 9.62669,10.19165 7.4077,13.60724c-2.21899,3.41558 -9.13323,2.86116 -15.44338,-1.23832c-6.31015,-4.09948 -9.62669,-10.19166 -7.4077,-13.60725c2.21899,-3.41558 9.13323,-2.86115 15.44338,1.23833z" fill="#000000" fill-rule="nonzero" stroke="none" stroke-width="NaN" stroke-linecap="butt" stroke-linejoin="miter"/><path d="M208.92068,156.28774c8.16298,3.03744 5.40164,8.75628 11.16696,13.09806c6.71711,5.07941 21.31831,3.7135 21.10746,16.33633c-0.15636,12.53896 -17.64492,18.34929 -35.2144,0.97248c-13.63619,-13.15198 -12.04997,-24.40426 -7.93837,-28.53037c4.11159,-4.12611 10.87836,-1.87649 10.87836,-1.87649z" fill="#ffffff" fill-rule="evenodd" stroke="none" stroke-width="1" stroke-linecap="butt" stroke-linejoin="miter"/><path d="M200.74601,156.93946c0,0 -5.98324,-4.00635 -7.85431,-9.75345" fill="none" fill-rule="evenodd" stroke="#001026" stroke-width="1.2" stroke-linecap="round" stroke-linejoin="round"/><path d="M197.19633,161.66911c0,0 -4.30554,-0.53141 -9.31615,-4.38287" fill="none" fill-rule="evenodd" stroke="#001026" stroke-width="1.2" stroke-linecap="round" stroke-linejoin="round"/><path d="M221.83951,167.42343c1.67713,1.08959 3.8868,2.64438 3.14919,3.59619c-0.87167,1.3417 -5.75565,1.15001 -7.15612,0.00167c-1.28722,-0.95553 -1.01966,-4.12071 -0.1731,-5.24023c0.46522,-0.53251 2.41903,0.49832 4.18003,1.64238z" fill="#001026" fill-rule="evenodd" stroke="#001026" stroke-width="1.2" stroke-linecap="round" stroke-linejoin="round"/><path d="M247.03144,189.03679c4.62386,-0.69279 13.36099,1.64441 13.36099,1.64441" fill="none" fill-rule="evenodd" stroke="#001026" stroke-width="1.2" stroke-linecap="round" stroke-linejoin="round"/><path d="M254.35752,198.68556c0,0 -6.80469,-3.10904 -9.48441,-6.8772" fill="none" fill-rule="evenodd" stroke="#001026" stroke-width="1.2" stroke-linecap="round" stroke-linejoin="round"/><path d="M214.8262,153.90184c0.2229,-0.10014 0.45951,-0.15688 0.68938,-0.23593c0.93182,-0.32042 -3.07905,1.16173 13.43076,4.65494c1.45203,0.30722 -3.14067,2.82669 -5.67011,3.95421c-4.96727,2.13919 -9.96876,1.39415 -11.33614,-1.6407c-1.36737,-3.03484 -1.99728,-4.53883 2.88613,-6.73251z" fill="url(#color-2)" fill-rule="evenodd" stroke="#001026" stroke-width="1.2" stroke-linecap="round" stroke-linejoin="round"/><path d="M237.5896,167.04244c4.91278,-2.05534 -2.44803,7.06751 4.63947,12.31565c-4.91279,2.05533 -9.36522,0.83225 -11.0974,-2.55885c-1.22902,-3.06423 1.54513,-7.70148 6.45793,-9.75681z" fill="url(#color-3)" fill-rule="evenodd" stroke="#001026" stroke-width="1.2" stroke-linecap="round" stroke-linejoin="round"/><path d="M214.15053,180.13069c1.46678,-2.25777 7.12021,5.07294 12.79355,8.75873c5.67334,3.68578 9.21822,2.33089 7.75144,4.58865c-1.46679,2.25776 -7.36655,17.81965 -13.03989,14.13386c-5.67335,-3.68579 -8.9719,-25.22349 -7.50512,-27.48125z" fill="#000000" fill-rule="nonzero" stroke="#001026" stroke-width="1.2" stroke-linecap="butt" stroke-linejoin="miter"/></g><path d="M233.63011,178.97003c0.08756,-0.07001 0.19585,-0.11338 0.33022,-0.11843c1.02633,-0.03856 1.61622,0.49204 2.23027,0.94607c0.06055,0.00255 0.12129,0.00531 0.1822,0.00848c0.15468,-0.04426 0.33433,-0.02151 0.50833,0.03985c0.2254,0.02547 0.45243,0.06393 0.68004,0.12537l0.02747,0.03123l0.00787,-0.01212l0.32831,0.21329c0.06965,0.04523 0.10929,0.11929 0.11346,0.19633c0.07126,-0.0088 0.14472,-0.0209 0.22054,-0.03654l0.22601,-0.24688c0.08066,-0.09128 0.21814,-0.11222 0.32336,-0.04386c0.11577,0.07524 0.14865,0.23007 0.07344,0.34585c-0.00851,0.0131 -0.01806,0.02515 -0.02843,0.03608l-0.33443,0.36532l-0.00176,-0.0016l-0.00512,0.00885c-0.21149,0.18975 -0.47171,0.34571 -0.7493,0.40639c-0.05248,-0.01317 -0.10553,-0.02541 -0.1591,-0.03679c-0.00621,0.18069 -0.02368,0.36698 -0.05057,0.5517c0.09975,0.44624 -0.01954,0.96072 -0.45629,1.48329l0.06524,0.04238l-0.21329,0.32831c-0.07475,0.11504 -0.22807,0.14823 -0.3436,0.07488c-0.07074,0.02502 -0.15192,0.01803 -0.21971,-0.02601c-0.0974,-0.06328 -0.13615,-0.18294 -0.10117,-0.28828l0.14511,-0.4727l0.0572,0.01756c0.09255,-0.56529 0.26314,-1.10857 0.44108,-1.66054c-0.00485,-0.04901 -0.01306,-0.09607 -0.02527,-0.14076c-0.00129,-0.00471 -0.00261,-0.00935 -0.00396,-0.01397c-0.2746,-0.02616 -0.55629,-0.03975 -0.8396,-0.04898c-0.0014,0.00745 -0.00282,0.01452 -0.00427,0.02118c-0.03388,0.15599 -0.08136,0.30852 -0.13689,0.45856l0.0149,0.00169l-0.04857,0.42994c-0.00359,0.0391 -0.01648,0.07792 -0.03935,0.11313c-0.07523,0.11577 -0.23006,0.14865 -0.34584,0.07344c-0.06649,-0.04319 -0.10565,-0.11266 -0.11268,-0.1859l-0.00844,-0.08092c-0.37576,0.59195 -0.73484,1.21399 -1.08919,1.83472c-0.34729,0.80241 -0.75694,1.55537 -1.1141,2.10953c-0.19711,0.30582 -0.56299,1.11973 -0.92615,1.39058c-0.02662,0.0522 -0.05321,0.10463 -0.07993,0.15735l-0.01239,0.008l0.00537,0.00349l-0.15996,0.24621c-0.07524,0.11577 -0.23007,0.14865 -0.34585,0.07344c-0.11577,-0.07524 -0.14865,-0.23007 -0.07344,-0.34585l0.15444,-0.23771c0.03287,-0.06514 0.06566,-0.12985 0.09853,-0.19419c0.63068,-2.01808 2.38149,-3.69849 2.70424,-5.88209c-0.03529,0.01691 -0.06968,0.03383 -0.10309,0.05068c0.02348,0.44535 -0.13824,0.90178 -0.56414,1.35793l0.05813,0.04928l-0.26161,0.30862c-0.07975,0.09695 -0.22133,0.12058 -0.32908,0.05057c-0.07711,-0.0501 -0.11744,-0.13553 -0.11356,-0.2212l0.01364,-0.48147c-0.09841,-0.80703 -0.46403,-1.36257 -0.92332,-1.84911c-0.08164,0.08244 -0.21256,0.09919 -0.31367,0.0335c-0.08999,-0.05845 -0.12991,-0.16501 -0.1079,-0.26395l0.03051,-0.15398c-0.79354,-0.73799 -1.70562,-1.4264 -2.03137,-2.80642c-0.10448,-0.29835 -0.13892,-0.56139 -0.11974,-0.78272c-0.12515,0.28059 -0.25311,0.55947 -0.42165,0.82005c-0.14788,0.22761 -0.28834,0.45971 -0.42267,0.69538c-0.27649,0.60995 -0.53311,1.24883 -0.75776,1.95016c-0.54397,1.48126 -1.19775,2.89212 -1.75523,4.3775l-0.02017,0.01839l0.00716,0.00457l-0.26866,0.42129c-0.00044,0.0007 -0.00088,0.00136 -0.00132,0.00206c-0.07524,0.11578 -0.23007,0.14866 -0.34585,0.07345c-0.09368,-0.06085 -0.13309,-0.17381 -0.1049,-0.27605l0.07185,-0.28667l0.05181,0.01298c0.07882,-1.80599 1.33362,-4.2966 2.39132,-6.08098c0.67401,-2.07691 1.6529,-4.7468 3.01968,-6.08032c0.00914,-0.03144 0.01771,-0.06201 0.02571,-0.0916l0.0557,0.01419c0.00545,-0.00507 0.01091,-0.0101 0.01638,-0.01511l-0.05299,-0.03442l0.15996,-0.24621c0.07524,-0.11577 0.23007,-0.14865 0.34585,-0.07344c0.11578,0.07523 0.14865,0.23006 0.07344,0.34584l-0.14326,0.22051c-0.13979,0.55365 -0.74073,1.97563 -0.93341,3.08591c0.03329,0.12627 0.06026,0.26529 0.0839,0.40885c0.19441,0.06642 0.3962,0.19493 0.58795,0.39225c0.33966,0.34953 0.32789,0.69998 0.2155,1.04801c0.22122,0.14978 0.43929,0.3199 0.59783,0.54523c0.15342,0.16416 0.41651,0.53533 0.70388,0.91282c0.09985,0.06497 0.19938,0.12963 0.29783,0.19449c0.09477,0.12168 0.19177,0.22945 0.29083,0.32494c0.0302,-0.01868 0.05938,-0.03333 0.08755,-0.04418zM231.24747,178.30233c0.00033,0.00579 0.00071,0.01159 0.00116,0.01738c0.00048,0.00609 0.01165,0.01304 0.03163,0.02112c-0.011,-0.01277 -0.02193,-0.02562 -0.0328,-0.0385zM230.16216,175.38621c-0.01258,0.09527 -0.02793,0.19029 -0.05844,0.2468c-0.00506,0.00939 -0.01012,0.01882 -0.01512,0.02824c0.04365,-0.02824 0.09499,-0.05621 0.1547,-0.08381c0.0079,-0.14209 0.02401,-0.28875 0.04672,-0.43831c-0.04269,0.08276 -0.08531,0.16509 -0.12789,0.2471zM230.25312,176.44018c0.00505,0.08061 0.01898,0.17129 0.04296,0.27191c0.05397,-0.00497 0.10992,0.00751 0.1589,0.03932l0.03768,0.02449c-0.00144,-0.00204 -0.00285,-0.00413 -0.00425,-0.00621c-0.05276,-0.07835 -0.09616,-0.16355 -0.13115,-0.25463c-0.03532,-0.02456 -0.07022,-0.04953 -0.10413,-0.07488zM231.27002,176.78648c0.01151,-0.13961 -0.01311,-0.26623 -0.09724,-0.37311c-0.08215,-0.10436 -0.16396,-0.19014 -0.24303,-0.25763c0.01543,0.10977 0.03115,0.21592 0.04852,0.3146c0.09952,0.09751 0.1997,0.20415 0.28842,0.31388c0.0011,0.00074 0.00222,0.00148 0.00332,0.00223zM233.72681,180.35933c-0.00126,0.00958 -0.0025,0.01927 -0.00372,0.02905l0.02928,0.13788c0.01533,-0.04029 0.02983,-0.08023 0.04322,-0.1198c-0.02299,-0.01535 -0.04596,-0.03107 -0.06877,-0.04714zM230.8648,177.99885l-0.12083,-0.11799c-0.05972,-0.05606 -0.08713,-0.13726 -0.07638,-0.21605c-0.04535,-0.04254 -0.08838,-0.09077 -0.12899,-0.14227c0.08445,0.22014 0.18503,0.41927 0.29759,0.60234c0.00764,-0.04163 0.01731,-0.08369 0.02861,-0.12603zM235.04274,181.19291c0.03977,-0.05892 0.07961,-0.1168 0.11955,-0.17349c-0.0339,-0.00111 -0.06773,-0.0023 -0.10148,-0.00355c-0.00479,0.05826 -0.01084,0.1173 -0.01807,0.17703zM233.41458,181.02098c-0.00143,-0.00103 -0.00286,-0.00205 -0.00427,-0.00308c0.00102,0.00203 0.00205,0.00405 0.00308,0.00607zM231.34815,178.79153c0.17545,0.18992 0.36132,0.36461 0.54897,0.53436c-0.03772,-0.12686 -0.0687,-0.26336 -0.09241,-0.41027c-0.12627,-0.05285 -0.29824,-0.09288 -0.45657,-0.1241zM234.78508,180.18573c-0.09316,-0.01188 -0.18587,-0.02409 -0.27791,-0.03704c0.05955,0.04845 0.11707,0.09766 0.17223,0.14704c0.03611,-0.04149 0.07132,-0.07805 0.10568,-0.10999zM234.06418,180.65173c-0.00476,0.01335 -0.00964,0.02659 -0.01467,0.03968c0.00481,0.00011 0.00964,0.00021 0.01447,0.00032c0.0009,-0.01414 0.00098,-0.02748 0.0002,-0.04zM233.67585,181.75977c0.02895,-0.07839 0.06092,-0.15827 0.09375,-0.23781l-0.07124,0.05679c-0.01785,0.01493 -0.03753,0.0271 -0.05836,0.03638c0.01286,0.04723 0.02482,0.09544 0.03588,0.14464z" fill="#000000" fill-rule="nonzero" stroke="none" stroke-width="0.5" stroke-linecap="butt" stroke-linejoin="miter"/><path d="M210.66744,162.2605c-0.01842,-0.08209 -0.04333,-0.17523 -0.07264,-0.27648c0.01331,0.12975 0.03147,0.25527 0.0546,0.37385c0.00612,-0.03234 0.01212,-0.06479 0.01804,-0.09737zM210.15854,160.51384c-0.07512,-0.31277 -0.11753,-0.59603 -0.08652,-0.79412c0.03877,-0.24774 0.30357,-0.51976 0.54471,-0.78375c-0.14189,-0.57738 -0.21166,-1.14617 -0.17921,-1.65536c-0.06319,-0.02992 -0.12962,-0.05525 -0.19836,-0.07664c-0.79838,0.59179 -1.95462,1.35645 -2.18726,1.5309c-0.63406,0.54178 -1.18464,1.1321 -1.68637,1.75015c-0.92383,1.52548 -1.82489,3.06244 -2.80804,4.57577l-0.15996,0.24621c-0.07524,0.11577 -0.23007,0.14865 -0.34585,0.07344c-0.07626,-0.04955 -0.11656,-0.13363 -0.11368,-0.21835l0.00868,-0.4956l0.11306,0.00197c0.1106,-1.70436 1.7324,-3.57591 3.21719,-4.99925c0.44356,-0.72545 0.89514,-1.4474 1.36613,-2.16211c1.01378,-1.40376 2.05994,-1.85142 2.8871,-1.32412c0.0788,-0.03548 0.15495,-0.06496 0.22774,-0.08742l0.00282,-0.01086l-0.07074,-0.04594l0.15996,-0.24621c0.07524,-0.11578 0.23007,-0.14866 0.34585,-0.07345c0.09431,0.06127 0.13361,0.17534 0.1043,0.27813l-0.02547,0.09792c0.06554,0.03404 0.12108,0.08644 0.16477,0.15975c0.15505,0.26016 0.06463,0.4545 -0.15731,0.60118c-0.0029,0.05707 -0.00775,0.11275 -0.01409,0.1672c0.16981,0.30374 0.31937,0.67333 0.44429,1.10913c0.09686,0.3379 -0.10434,0.8354 -0.26825,1.29581c0.04438,0.06347 0.09321,0.12875 0.14684,0.19604c1.11694,2.55564 3.30057,2.68281 4.93396,4.11394c0.03503,0.01212 0.07129,0.03496 0.107,0.07331c0.00935,0.01004 0.01763,0.02004 0.02493,0.02998l0.01036,-0.01596l0.24621,0.15996c0.11577,0.07523 0.14865,0.23006 0.07344,0.34584c-0.03763,0.05789 -0.09514,0.09506 -0.15772,0.10835l-0.27079,0.05751l-0.00841,-0.03961l-0.08912,0.04086c-0.04852,-0.02833 -0.09723,-0.05515 -0.14616,-0.08052c-0.42359,0.31433 -0.75693,0.39699 -0.99734,0.3496c-0.47464,0.42695 -0.87368,0.99546 -1.21222,1.62906c0.10224,0.40571 0.24203,0.77962 0.24697,1.17753c0.00468,0.37713 -0.90013,1.40934 -1.49143,2.13012c-0.09257,0.32889 -0.17573,0.6419 -0.25153,0.92874c-0.24626,0.43394 -0.95569,3.59934 -1.48219,3.64912c-0.80959,0.07655 0.71947,-4.18623 0.71169,-4.84322c0.00738,-0.55411 0.27378,-1.14785 0.64058,-1.75319c0.30105,-0.91627 0.69849,-1.85301 1.04928,-2.56918c0.00837,-0.10916 0.01834,-0.21973 0.03017,-0.33042c-0.35291,0.24393 -0.72887,0.46424 -1.00686,0.79674c-1.21582,1.45415 -1.71668,3.51369 -2.71106,5.0772c-0.36007,0.55421 -0.79501,1.04008 -1.14851,1.58817l-0.21329,0.32831c-0.07524,0.11577 -0.23007,0.14865 -0.34585,0.07344c-0.05789,-0.03763 -0.09506,-0.09514 -0.10835,-0.15772v0v0l-0.05751,-0.2708l0.11609,-0.02466c-0.27117,-2.11831 2.63579,-6.37928 4.0512,-7.38979c0.37949,-0.16596 0.58508,-0.42931 0.90487,-0.68341c0.38957,-0.30956 0.62449,-0.55343 0.7407,-0.7499c-0.3046,-0.14356 -0.60258,-0.28529 -0.84864,-0.44514c-0.22352,-0.14523 -0.45505,-0.36425 -0.68297,-0.63736c-0.55507,-0.17323 -1.09306,-0.40764 -1.31829,-0.85347c0.10318,0.32189 0.19762,0.61733 0.23729,0.81328c-0.07934,0.47702 -0.17945,0.93075 -0.29866,1.36592c-0.19504,1.46441 -0.69797,2.39815 -1.42803,3.34645c-0.64409,1.10893 -1.41922,2.17096 -2.28029,3.31556l-0.04918,0.01666l0.00798,0.01358l-0.37276,0.21892c-0.0797,0.04908 -0.18379,0.05118 -0.26748,-0.00319c-0.09431,-0.06127 -0.13362,-0.17534 -0.10431,-0.27813l0.07644,-0.29395l0.08456,0.022c0.23837,-0.88253 1.03353,-1.5219 1.74862,-2.17156c0.9246,-1.39319 1.67732,-2.75108 2.13891,-4.45685c0.0067,-0.04062 0.01346,-0.08157 0.02031,-0.12285c-0.43323,-0.49557 -0.45867,-1.71826 -0.285,-2.7097zM211.91388,165.6322c-1.15938,1.12129 -2.32759,3.3192 -2.85402,4.61382c-0.06159,0.15149 -0.13878,0.5678 -0.24304,0.97696c0.2069,-0.27186 0.4151,-0.5438 0.6045,-0.83536c0.87709,-1.31317 1.47107,-3.30554 2.49257,-4.75541zM214.05908,165.34562c0.23017,-0.37438 0.41822,-0.73885 0.52337,-1.08621l-0.11909,0.18333c-0.14358,0.21758 -0.27618,0.53121 -0.40429,0.90289zM213.38394,168.04994c0.14274,-0.13071 0.29746,-0.24528 0.4681,-0.33797c0.0041,-0.00223 -0.07286,-0.21378 -0.15691,-0.45513c-0.1115,0.2611 -0.21493,0.52696 -0.31119,0.79311zM214.3498,163.65091c-0.01334,0.04225 -0.02596,0.08149 -0.0374,0.11515l0.07377,-0.02444c0.03002,-0.01022 0.06185,-0.01472 0.09369,-0.01311c-0.01583,-0.01115 -0.03168,-0.02247 -0.04753,-0.03387c-0.02728,-0.01471 -0.05482,-0.02928 -0.08253,-0.04372zM210.83326,161.13395c-0.02559,-0.16465 -0.01635,-0.35193 0.03613,-0.56605c-0.13859,-0.19725 -0.12902,-0.43502 -0.0595,-0.69077c-0.06963,0.17278 -0.12473,0.38115 -0.16471,0.60876c0.0511,0.20319 0.11838,0.42651 0.18809,0.64807zM208.85587,157.35843c-0.00254,0.0005 -0.00496,0.001 -0.00728,0.00153l-0.30408,0.13096c-0.07485,0.03355 -0.16471,0.02958 -0.23863,-0.01843c-0.00277,-0.00181 -0.00551,-0.00367 -0.00818,-0.00555c-0.07966,0.10117 -0.16062,0.20914 -0.24295,0.32383c-0.1406,0.21347 -0.27949,0.42758 -0.41695,0.64225c0.03417,-0.02985 0.06782,-0.05918 0.10091,-0.08799c0.14486,-0.10766 0.58488,-0.53154 1.11713,-0.98659zM211.3397,160.87094c0.03122,0.1467 0.10531,0.27701 0.21091,0.39458c-0.07241,-0.12775 -0.14288,-0.25956 -0.21091,-0.39458zM211.86653,161.01944c0.16643,0.2938 0.35801,0.56864 0.57113,0.81337c0.0347,0.01534 0.0697,0.03052 0.10496,0.04552c-0.24916,-0.29443 -0.47787,-0.58686 -0.67608,-0.8589zM211.17623,158.88825c-0.00248,0.00293 -0.00495,0.00584 -0.00744,0.00875c0.00041,0.00363 0.00082,0.00724 0.00124,0.01086c0.00212,-0.00653 0.00417,-0.01307 0.00621,-0.01961zM209.94938,156.51343c0.04457,-0.02959 0.0889,-0.05824 0.13289,-0.08579c-0.16643,-0.06539 -0.34153,-0.07009 -0.52593,-0.01618c0.13002,0.01526 0.26197,0.05026 0.39305,0.10197z" fill="#000000" fill-rule="nonzero" stroke="none" stroke-width="0.5" stroke-linecap="butt" stroke-linejoin="miter"/></g><g data-paper-data="{&quot;index&quot;:null}"><path d="M217.60988,136.11539c0.00423,-0.04787 0.00846,-0.09576 0.0127,-0.14363c-0.86175,2.15575 -1.9711,4.24676 -3.48538,5.83192c-1.81021,3.01062 -2.67046,6.33706 -3.71547,9.67507c-1.06696,3.50266 0.23744,6.96169 -0.79466,10.31486c-1.03463,3.29454 -2.55598,6.60509 -3.0029,9.84601c-0.41731,2.99591 -0.03963,5.87528 0.96364,8.71858c0,0 0.00182,0.00515 0.00416,0.0142c1.44444,1.43921 2.48466,3.49967 2.80768,5.27075c0.98528,3.54633 3.9429,4.76162 7.37933,5.84642c3.01071,0.94599 -0.32634,2.45801 -1.90914,2.615c-1.7768,0.17622 -3.76913,-0.73382 -5.43203,-1.25333c-2.99113,-0.93827 -7.03079,-2.54852 -9.66995,-4.2249c-3.01141,-1.9217 -5.95742,-3.40172 -9.34371,-4.53518c-1.8744,-0.59073 -4.00302,-1.02185 -5.67131,-2.10423c-1.18922,-0.77156 -1.86016,-2.48521 -2.88769,-3.48653c-1.1618,-1.13214 -4.12029,-3.2362 -4.53542,-4.83157c-0.33971,-1.30552 0.10602,-2.39476 -0.5276,-3.80562c-1.26415,-2.81487 -3.79231,-6.31884 -6.14642,-8.13053c-2.67361,-2.05845 -5.64541,-4.49477 -7.72507,-7.06521c-1.93248,-1.58054 -3.84585,-3.18999 -5.65848,-4.90847l-0.16175,-0.15337c-1.1564,-0.36457 -2.31155,-0.73308 -3.4632,-1.1125c-2.94373,-1.92938 -5.758,-3.89456 -9.15992,-4.94095c-3.35841,-0.96755 -6.76904,-1.60959 -10.13431,-2.67098c-3.35915,-1.05946 -6.73185,-2.0698 -10.02963,-3.31012c-0.87796,-0.84559 -2.72607,-2.38026 -2.90335,-3.67543c-0.21338,-1.55884 1.43896,-4.4679 2.25497,-5.70318c1.86627,-2.82519 4.92838,-5.11829 6.48693,-8.07841c1.59409,-3.0276 2.34938,-6.59714 3.35137,-9.86656c0.68892,-3.32313 0.59412,-7.22688 1.89383,-10.25947c0.39482,-0.92121 1.04636,-3.71655 1.87323,-4.25167c1.34336,-0.86936 3.29607,-1.9105 4.96146,-2.85091c1.85622,-3.15917 3.91311,-5.54729 6.46941,-8.16487c1.39321,-1.4266 3.94198,-3.19191 4.84744,-4.94792c0.44516,-0.86331 0.42354,-2.40795 0.59795,-3.37416c0.29055,-1.60924 0.29281,-4.71371 1.63005,-5.89239c0.86314,-0.7608 3.38951,-0.98919 4.49888,-1.12252c3.5155,-0.42254 6.73035,-1.48014 10.09142,-2.57581c2.77493,-0.90459 6.91041,2.69626 9.41328,4.12405c3.04011,1.73427 6.08023,3.46854 9.12034,5.20281c3.04096,1.73475 6.07479,3.48036 9.10065,5.24132c3.02502,1.76048 6.05003,3.52094 9.07505,5.28143c3.02502,1.76047 6.05003,3.52094 9.07505,5.28142c2.55004,1.48405 6.19171,4.70192 7.68178,7.24656c0.75362,1.28697 4.0015,5.18665 2.14236,6.47649c-0.80557,0.55889 -1.89584,1.12323 -2.79226,1.86031c-1.72026,1.37874 -4.17561,7.04379 -4.36745,9.21306c-0.30832,3.48639 -0.61664,6.97278 -0.92495,10.45917c-0.15212,1.72007 -0.30423,3.44016 -0.45634,5.16023c0.04336,-0.01659 0.09786,-0.02057 0.16552,0.00068c0.23851,0.07491 0.1636,0.31343 0.1636,0.31343l-0.10749,0.3422c-0.12159,0.38637 -0.24898,0.77731 -0.38315,1.17012c-0.05832,0.65945 -0.11664,1.3189 -0.17496,1.97835c0,0 -0.02203,0.24903 -0.27105,0.22701c-0.24902,-0.02202 -0.22701,-0.27105 -0.22701,-0.27105z" fill="#000000" fill-rule="nonzero" stroke="none" stroke-width="0.5" stroke-linecap="butt" stroke-linejoin="miter"/><g data-paper-data="{&quot;index&quot;:null}"><path d="M199.72846,100.51128c8.37982,0.22999 18.10365,-4.30494 18.10365,-4.30494c0,0 -10.04207,16.13057 -18.42189,15.90058c-8.37982,-0.22999 -7.90449,-2.81466 -7.8166,-6.01671c0.08788,-3.20205 -0.24497,-5.80891 8.13485,-5.57892z" data-paper-data="{&quot;index&quot;:null}" fill="url(#color-4)" fill-rule="nonzero" stroke="#001026" stroke-width="1.2" stroke-linecap="butt" stroke-linejoin="miter"/><g><g><g><path d="M199.08709,88.49077c0.35657,-0.05356 0.76667,0.24942 0.68722,0.65402l-2.19322,10.79072c0,0 3.79625,6.97414 4.11388,10.76875c0.55957,6.33853 -1.26212,10.45452 -1.26212,10.45452c0,0 5.53472,4.91801 4.19887,10.58773c-1.33586,5.6697 -9.90814,13.57639 -28.49861,8.93693c-18.59045,-4.63945 -30.09217,-15.67261 -31.67501,-29.00921c-1.58283,-13.3366 14.3348,-20.88836 13.45172,-20.41914l5.70537,-17.09587c0.07946,-0.40458 0.65954,-0.46368 0.93664,-0.11266l7.59622,12.29299c0,0 4.7959,0.37333 9.13544,2.18948c2.61961,1.00877 4.70716,2.20966 6.6192,3.5491z" fill="url(#color-5)" fill-rule="evenodd" stroke="#001026" stroke-width="1.2" stroke-linecap="butt" stroke-linejoin="miter"/><path d="M199.99129,121.39339c0,0 5.48116,4.56146 4.14529,10.23116c-1.33586,5.6697 -10.05776,12.95382 -28.42469,8.30882c-24.03109,-5.75732 -28.3221,-23.6793 -17.75279,-30.42761c10.61181,-6.83883 17.15496,6.28547 25.01382,9.31178c6.73008,2.60693 10.13136,-2.75604 17.01838,2.57585z" fill="#ffffff" fill-rule="evenodd" stroke="none" stroke-width="1" stroke-linecap="butt" stroke-linejoin="miter"/><path d="M216.18,130.20796c-5.8693,1.44266 -12.42941,-1.52635 -12.42941,-1.52635" fill="none" fill-rule="evenodd" stroke="#001026" stroke-width="1.2" stroke-linecap="round" stroke-linejoin="round"/><path d="M210.24393,139.79405c-5.91537,-2.22448 -8.63838,-5.60166 -8.63838,-5.60166" fill="none" fill-rule="evenodd" stroke="#001026" stroke-width="1.2" stroke-linecap="round" stroke-linejoin="round"/><path d="M183.71567,116.29401c1.90097,0.89237 3.80747,2.00827 3.60055,2.68441c-0.50439,1.30981 -3.05204,3.20703 -4.54288,2.61767c-1.71439,-0.58384 -4.45398,-4.63163 -3.7741,-6.07997c0.4194,-1.12877 2.90599,-0.07196 4.71644,0.77791z" fill="#001026" fill-rule="evenodd" stroke="#001026" stroke-width="1.2" stroke-linecap="round" stroke-linejoin="round"/><path d="M143.61801,95.81408c0,0 6.5951,6.18907 8.44609,10.48254" fill="none" fill-rule="evenodd" stroke="#001026" stroke-width="1.2" stroke-linecap="round" stroke-linejoin="round"/><path d="M150.84839,109.59238c-4.61485,-0.28835 -10.84608,-4.42861 -10.84608,-4.42861" fill="none" fill-rule="evenodd" stroke="#001026" stroke-width="1.2" stroke-linecap="round" stroke-linejoin="round"/><path d="M177.84661,129.03531c-1.14409,2.43721 1.5985,33.24085 -3.04227,27.35182c-12.55827,-15.93614 -15.98855,-7.97832 -23.30254,-9.09018c-8.10034,-1.2314 3.71576,-27.71165 4.16683,-28.67256c1.14409,-2.43721 3.17847,6.29382 9.30275,9.1687c6.12429,2.87489 14.01931,-1.19501 12.87521,1.2422z" fill="#000000" fill-rule="nonzero" stroke="#001026" stroke-width="1.2" stroke-linecap="butt" stroke-linejoin="miter"/></g><path d="M172.56035,113.42511c-0.07429,0.06094 -0.14694,0.12412 -0.17883,0.17985c-0.00531,0.00926 -0.01064,0.01852 -0.01601,0.02774c0.00096,-0.05198 -0.00237,-0.11036 -0.01042,-0.17564c0.11655,-0.08168 0.23262,-0.17274 0.34769,-0.27094c-0.04779,0.0799 -0.09524,0.15956 -0.14244,0.23899zM171.61702,113.90387c-0.07112,0.03824 -0.15552,0.07424 -0.25365,0.10696c-0.02425,-0.04846 -0.06437,-0.0894 -0.11724,-0.11423l-0.04069,-0.0191c0.00251,0.00013 0.00502,0.00023 0.00752,0.00032c0.09439,0.00349 0.18967,-0.00458 0.2855,-0.02291c0.03949,0.01704 0.07911,0.03352 0.11854,0.04895zM170.78633,113.22271c0.11253,-0.08343 0.23308,-0.12932 0.36827,-0.11424c0.13199,0.01473 0.24802,0.03897 0.34706,0.07053c-0.1014,0.0448 -0.19986,0.08745 -0.29285,0.12476c-0.13533,-0.03309 -0.27878,-0.06193 -0.41881,-0.07941c-0.00122,-0.00053 -0.00243,-0.0011 -0.00365,-0.00164zM166.455,113.02069c-0.00747,0.00612 -0.01505,0.0123 -0.02271,0.01848l-0.13258,0.04788c0.02613,-0.03428 0.05241,-0.06767 0.07897,-0.09992c0.02518,0.01144 0.05065,0.02266 0.07633,0.03355zM169.87827,114.29738c0.03133,-0.02845 0.06196,-0.05884 0.09197,-0.09079l0.16397,0.04038c0.07913,0.02116 0.16257,0.0016 0.22383,-0.04909c0.06007,0.01608 0.12374,0.02718 0.18891,0.03451c-0.23157,0.04441 -0.45379,0.06403 -0.6687,0.06499zM165.05262,112.34262c0.02908,-0.06488 0.05723,-0.12926 0.08431,-0.1931c0.01882,0.02821 0.03767,0.05632 0.05655,0.08434c-0.04697,0.03481 -0.09394,0.0711 -0.14086,0.10875zM166.05766,113.63501c0.00163,0.00068 0.00325,0.00134 0.00487,0.002c-0.00226,0.00019 -0.00452,0.00038 -0.00678,0.00059zM169.04182,114.21419c-0.2539,-0.04885 -0.50036,-0.11458 -0.74356,-0.18443c0.12767,-0.03488 0.25997,-0.08059 0.39728,-0.13796c0.11152,0.07937 0.23625,0.20436 0.34631,0.32239zM166.04417,112.03012c0.05924,0.07287 0.11852,0.14518 0.17808,0.21653c-0.07259,-0.02503 -0.14475,-0.04794 -0.21579,-0.06874c0.01619,-0.05256 0.02867,-0.10177 0.03767,-0.1478zM165.29222,113.80285c0.05132,-0.06596 0.10232,-0.13527 0.15256,-0.20511l-0.01066,0.09048c-0.00325,0.02304 -0.00321,0.04618 -0.00011,0.06877c-0.0469,0.01399 -0.09416,0.02926 -0.1418,0.04583z" fill="#000000" fill-rule="nonzero" stroke="none" stroke-width="0.5" stroke-linecap="butt" stroke-linejoin="miter"/><path d="M193.92269,123.12743c0.02423,-0.02225 0.04863,-0.04448 0.07319,-0.06671c0.07946,-0.02766 0.17172,-0.05562 0.27319,-0.08415c-0.11725,0.05715 -0.23343,0.10793 -0.34638,0.15085zM190.47403,123.78077c-0.34086,1.57647 -1.59164,3.72847 -2.41367,4.85871c-0.09619,0.13224 -0.40913,0.41747 -0.7017,0.7219c0.12178,-0.31921 0.24294,-0.63953 0.3907,-0.95426c0.6528,-1.43791 2.03192,-2.99365 2.72465,-4.62635zM187.64458,123.80755c0.03572,-0.19023 0.05142,-0.38211 0.04013,-0.57597c-0.00026,-0.00466 0.22003,-0.05091 0.4694,-0.10684c-0.16298,0.23247 -0.33425,0.4606 -0.50956,0.6828zM190.79386,120.75868l-0.01815,-0.07556c-0.00715,-0.0309 -0.02012,-0.06031 -0.03829,-0.08651c0.01782,0.00756 0.0358,0.01507 0.05385,0.02251c0.02689,0.01541 0.05379,0.03111 0.08068,0.04704c-0.02885,0.03361 -0.05553,0.06505 -0.07809,0.09252zM194.86537,122.3255c0.15339,-0.06511 0.3076,-0.17177 0.46181,-0.32932c0.24068,0.01366 0.43762,-0.1199 0.6182,-0.3139c-0.11004,0.15032 -0.25797,0.30704 -0.43024,0.4611c-0.19955,0.0638 -0.42477,0.12447 -0.64976,0.18214zM199.11596,122.01335c0.0009,0.00241 0.00175,0.00474 0.00253,0.00699l0.04919,0.32741c0.011,0.0813 0.06176,0.15554 0.14156,0.193c0.003,0.0014 0.00601,0.00274 0.00902,0.00402c-0.04391,0.12104 -0.09291,0.24679 -0.1469,0.37724c-0.10717,0.23207 -0.21577,0.46302 -0.32561,0.69305c0.00732,-0.04477 0.01449,-0.08885 0.0215,-0.13216c0.01502,-0.17986 0.14294,-0.77729 0.2487,-1.46951zM194.82163,121.75651c-0.1411,0.05087 -0.29088,0.05669 -0.44647,0.02901c0.14673,-0.00589 0.29589,-0.01556 0.44647,-0.02901zM194.41754,121.38733c-0.33739,0.01363 -0.67194,-0.00412 -0.99227,-0.05605c-0.03134,-0.02136 -0.06271,-0.0431 -0.09406,-0.06513c0.38156,0.05631 0.75066,0.09631 1.08632,0.12117zM196.59217,120.84931c-0.00118,0.00365 -0.00234,0.00729 -0.00351,0.01094c-0.0033,0.00156 -0.00658,0.00313 -0.00988,0.00469c0.00443,-0.00523 0.00891,-0.01044 0.01338,-0.01562zM199.25686,120.6386c0.00162,-0.05347 0.00256,-0.10624 0.00276,-0.15815c0.14335,0.10689 0.23973,0.25317 0.29122,0.43825c-0.08157,-0.1024 -0.1809,-0.19604 -0.29399,-0.2801z" fill="#000000" fill-rule="nonzero" stroke="none" stroke-width="0.5" stroke-linecap="butt" stroke-linejoin="miter"/></g><path d="M180.87544,111.18303c-0.98935,3.15037 -5.72044,4.47037 -10.56716,2.94829c-4.84673,-1.52208 -5.47154,-15.11966 -5.47154,-15.11966c0,0 17.02805,9.02101 16.0387,12.17139z" fill="#ffffff" fill-rule="nonzero" stroke="#001026" stroke-width="1.2" stroke-linecap="butt" stroke-linejoin="miter"/><path d="M208.43344,114.4997c0,0 -8.2864,10.79908 -13.13313,9.277c-4.84673,-1.52208 -7.97375,-5.30985 -6.9844,-8.46023c0.98935,-3.15037 20.11753,-0.81679 20.11753,-0.81679z" data-paper-data="{&quot;index&quot;:null}" fill="#ffffff" fill-rule="nonzero" stroke="#001026" stroke-width="1.2" stroke-linecap="butt" stroke-linejoin="miter"/></g><path d="M163.59971,95.70331c-1.02593,3.26686 -3.69435,5.33836 -5.96007,4.62683c-2.26572,-0.71153 -3.27077,-3.93666 -2.24484,-7.20352c1.02593,-3.26686 3.69435,-5.33836 5.96007,-4.62683c2.26572,0.71153 3.27077,3.93666 2.24484,7.20352z" fill="#000000" fill-rule="nonzero" stroke="#001026" stroke-width="1.2" stroke-linecap="butt" stroke-linejoin="miter"/><path d="M164.09106,89.23587c0.21557,0.01281 0.23388,0.20075 0.23486,0.25171c0.08887,0.06037 0.13176,0.17392 0.09791,0.2817c-0.00971,0.03091 -0.02486,0.0586 -0.04408,0.08235c0.16457,0.28813 0.62191,0.28175 0.78578,0.6713c0.41874,0.99549 0.72968,2.77676 0.42002,3.89113c-0.61147,1.84723 -1.31885,3.66045 -2.93065,5.3254c-1.95145,1.53608 -4.40543,3.61132 -6.78287,1.79133c-0.17855,-0.79182 -1.06724,-1.6855 -0.91693,-2.45239c0.25492,-1.30074 1.18992,-0.25027 1.21897,0.50772l-0.07382,0.08674c1.05085,1.27076 3.22987,0.59005 4.59908,-0.39367c1.3245,-1.06852 2.77627,-1.64854 3.37663,-3.39894c-0.01763,-0.03116 -0.02482,-0.05579 -0.02482,-0.05579c-0.41753,-1.54217 -0.2067,-3.32552 -0.61745,-5.00847l-0.08763,-0.15175c0,0 -0.11569,-0.22162 0.10593,-0.33732c0.01136,-0.00593 0.02243,-0.01096 0.03323,-0.0152l-0.16065,-0.10157c0.03554,-0.10351 0.07776,-0.24518 0.13543,-0.36652c-0.02266,-0.13458 0.09598,-0.23023 0.09598,-0.23023c0.09343,-0.06501 0.18686,-0.13002 0.28029,-0.19503c0.01973,-0.0723 0.07906,-0.19296 0.25479,-0.18252z" fill="#cf0000" fill-rule="nonzero" stroke="none" stroke-width="0.5" stroke-linecap="butt" stroke-linejoin="miter"/><path d="M160.95283,97.29914c-2.58246,1.89519 -4.43679,3.75745 -9.39653,-3.0009c-4.95975,-6.75835 2.58464,-24.1974 2.58464,-24.1974c0,0 1.80752,10.57597 6.76727,17.33432c4.95975,6.75835 2.62707,7.96879 0.04462,9.86398z" fill="url(#color-6)" fill-rule="nonzero" stroke="#001026" stroke-width="1.2" stroke-linecap="butt" stroke-linejoin="miter"/></g></g></g></g></svg>