<svg version="1.1" xmlns="http://www.w3.org/2000/svg" xmlns:xlink="http://www.w3.org/1999/xlink" width="103.15375" height="98.63925" viewBox="0,0,103.15375,98.63925"><g transform="translate(-201.1731,-142.08562)"><g data-paper-data="{&quot;isPaintingLayer&quot;:true}" stroke-miterlimit="10" stroke-dasharray="" stroke-dashoffset="0" style="mix-blend-mode: normal"><path d="M241.39644,192.85065c-0.11663,-2.31655 3.16586,-2.7106 5.05341,-0.71633c5.11702,5.7772 3.88443,16.87723 -2.66229,19.9998c-5.04419,2.44257 -11.45707,3.50793 -11.92291,-1.28613c-0.48375,-4.89245 6.76122,-4.17803 8.80921,-5.77043c2.12848,-1.70868 0.82132,-10.00877 0.72259,-12.22693z" data-paper-data="{&quot;index&quot;:null}" fill="#878787" fill-rule="evenodd" stroke="#001026" stroke-width="1.2" stroke-linecap="round" stroke-linejoin="round"/><g fill-rule="evenodd"><path d="M227.01937,201.65228c0.44768,0.8942 2.89032,2.55657 -0.94598,4.09697c-3.91686,1.42416 -13.38821,2.65441 -20.73629,-6.70645c-7.91199,-10.1745 -0.80676,-20.77713 3.59402,-20.38585c4.30239,0.37344 1.38101,6.95793 3.03995,15.18581c2.31377,11.90363 14.60062,6.91533 15.0483,7.80953z" fill="#878787" stroke="#001026" stroke-width="1.2" stroke-linecap="round" stroke-linejoin="round"/><path d="M210.75866,184.273c-0.29288,4.41862 0.15595,7.54889 0.15595,7.54889c0,0 -1.21758,-2.25333 -3.65044,-2.28785c-2.94268,-0.02531 -4.25635,2.17566 -4.47961,2.84659c-0.38553,-1.7976 -0.60132,-3.97095 0.23764,-7.47753c1.1163,-3.35468 3.92318,-6.50451 6.31173,-5.66498c1.89657,0.75034 1.51277,2.30684 1.42474,5.03489z" fill="#ffffff" stroke="none" stroke-width="1" stroke-linecap="butt" stroke-linejoin="miter"/></g><path d="M248.3198,236.3753c0,3.86599 -11.83333,3 -11.83333,3c0,0 -10.5,0.86599 -10.5,-3c0,-3.45051 2.7452,-32.89294 7.69909,-34.5825c3.83539,-1.30808 4.43187,28.24917 5.13424,28.24917c6.53537,0 9.5,2.46734 9.5,6.33333z" fill="#878787" fill-rule="nonzero" stroke="#001026" stroke-width="1.2" stroke-linecap="butt" stroke-linejoin="miter"/><path d="M242.3198,237.04197c0,3.86599 -11.83333,3 -11.83333,3c0,0 -10.5,0.86599 -10.5,-3c0,-3.45051 2.7452,-32.89294 7.69909,-34.58249c3.83539,-1.30808 4.43187,28.24916 5.13424,28.24916c6.53537,0 9.5,2.46734 9.5,6.33333z" fill="#878787" fill-rule="nonzero" stroke="#001026" stroke-width="1.2" stroke-linecap="butt" stroke-linejoin="miter"/><g fill-rule="evenodd"><path d="M228.73379,212.84873c-9.01303,-1.77793 -4.94053,-9.74275 -2.78551,-18.93492c1.13002,-4.97323 4.29975,-10.68422 10.40396,-11.1069c3.41163,-0.41316 3.724,5.90204 5.81999,5.22611c3.15715,-0.96563 3.84257,3.82291 3.63282,6.47169c0,0 -0.37605,3.93809 -1.12972,6.1134c-0.91139,2.73668 -2.0157,5.52603 -2.93628,6.71031c0,0 -3.29615,7.43553 -13.00525,5.5203z" fill="#878787" stroke="#001026" stroke-width="1.2" stroke-linecap="round" stroke-linejoin="round"/><path d="M240.9691,207.43799c0,0 -1.7631,-0.76256 -3.70168,-1.78819c-2.40348,-1.20968 -4.72793,-2.12994 -3.61503,-5.64725c1.10431,-2.78935 1.90147,-6.3241 7.0064,-4.71173c4.85931,1.47212 3.68485,4.38426 3.68485,4.38426c-0.93709,4.92055 -3.37453,7.76291 -3.37453,7.76291z" fill="#ffffff" stroke="none" stroke-width="1" stroke-linecap="butt" stroke-linejoin="miter"/></g><path d="M230.57968,196.07334c-1.74471,1.67212 -6.20944,1.33145 -7.18114,1.88443c-0.24996,0.19371 -0.22637,5.69638 -0.23772,8.98573c0.04173,4.64847 -6.80508,5.67371 -8.70584,1.46572c-1.70705,-3.95802 -0.77573,-13.08122 -0.04582,-14.92709c1.57732,-4.26287 11.8102,-4.87799 18.60456,-5.40982" fill="#878787" fill-rule="evenodd" stroke="#001026" stroke-width="1.2" stroke-linecap="round" stroke-linejoin="round"/><g><g fill-rule="evenodd"><g><path d="M269.34053,142.57122c0.29182,-0.21177 0.79539,-0.13173 0.91122,0.26399l3.02334,10.58817c0,0 6.58179,4.44185 8.61149,7.6637c3.41613,5.36844 3.69495,9.8609 3.69495,9.8609c0,0 7.17787,1.81607 8.60353,7.46386c1.42567,5.64778 -2.54148,16.61418 -21.17953,21.05866c-18.63804,4.44449 -33.92886,-0.05115 -41.47646,-11.15987c-7.54761,-11.10872 3.10285,-25.14323 2.53513,-24.32001l-2.80998,-17.80235c-0.11582,-0.3957 0.37186,-0.71535 0.77948,-0.53141l12.4045,7.41271c0,0 4.42885,-1.87756 9.1172,-2.26426c2.78983,-0.31116 5.19589,-0.20673 7.50997,0.10151z" fill="#878787" stroke="#001026" stroke-width="1.2" stroke-linecap="butt" stroke-linejoin="miter"/><path d="M285.29766,171.3596c0,0 6.9661,1.52426 8.39177,7.17204c1.42567,5.64778 -2.96105,16.13047 -21.40322,20.4671c-23.98209,5.95815 -36.04548,-7.97326 -29.77219,-18.83126c6.26931,-10.95791 18.122,-2.3223 26.49151,-3.25577c7.17443,-0.78584 7.72334,-7.11268 16.29215,-5.55211z" fill="#ffffff" stroke="none" stroke-width="1" stroke-linecap="butt" stroke-linejoin="miter"/><path d="M303.72685,171.7272c-4.54521,3.98385 -11.73554,4.37002 -11.73554,4.37002" fill="none" stroke="#001026" stroke-width="1.2" stroke-linecap="round" stroke-linejoin="round"/><path d="M302.87315,182.97004c-6.27514,0.75007 -10.24759,-0.99338 -10.24759,-0.99338" fill="none" stroke="#001026" stroke-width="1.2" stroke-linecap="round" stroke-linejoin="round"/><path d="M268.50246,174.32965c2.09834,-0.08349 4.30455,0.02889 4.43231,0.72436c0.15558,1.39492 -1.23191,4.25233 -2.82667,4.41587c-1.79062,0.27141 -6.0867,-2.05965 -6.15031,-3.65838c-0.14763,-1.19507 2.54626,-1.40234 4.54468,-1.48185z" fill="#001026" stroke="#001026" stroke-width="1.2" stroke-linecap="round" stroke-linejoin="round"/><path d="M223.47841,174.61988c0,0 8.70452,2.45589 12.325,5.41428" fill="none" stroke="#001026" stroke-width="1.2" stroke-linecap="round" stroke-linejoin="round"/><path d="M236.24232,183.51947c-4.22902,1.8696 -11.66689,1.06468 -11.66689,1.06468" fill="none" stroke="#001026" stroke-width="1.2" stroke-linecap="round" stroke-linejoin="round"/><g><path d="M279.82799,162.16978c3.07661,4.38115 3.37929,9.47315 0.65307,11.38304c-2.72623,1.9099 -7.40608,-0.00557 -10.58261,-4.38274c-3.07661,-4.38115 -3.37929,-9.47315 -0.65307,-11.38304c2.72225,-2.00982 7.506,0.00158 10.58261,4.38274z" fill="#ffffff" stroke="#001026" stroke-width="1.2" stroke-linecap="round" stroke-linejoin="round"/><path d="M280.94664,171.52029c0.04373,1.09913 -0.71985,2.03022 -1.71906,2.06998c-0.99921,0.03975 -1.83436,-0.82772 -1.87809,-1.92686c-0.04373,-1.09913 0.71985,-2.03022 1.71906,-2.06998c0.99921,-0.03975 1.83436,0.82772 1.87809,1.92686" fill="#001026" stroke="none" stroke-width="1" stroke-linecap="butt" stroke-linejoin="miter"/></g><g><path d="M255.15891,165.95352c3.17255,4.27726 3.1874,9.68093 0.56507,11.68678c-3.22185,2.02969 -7.67404,0.80573 -10.84659,-3.47153c-3.27248,-4.27328 -1.93043,-9.53079 1.07965,-11.8523c3.00611,-2.42143 6.02931,-0.64021 9.20187,3.63704z" fill="#ffffff" stroke="#001026" stroke-width="1.2" stroke-linecap="round" stroke-linejoin="round"/><path d="M255.56739,173.29687c0.04373,1.09913 -0.71985,2.03022 -1.71906,2.06998c-0.99921,0.03975 -1.83436,-0.82772 -1.87809,-1.92686c-0.04373,-1.09913 0.71985,-2.03022 1.71906,-2.06998c1.00319,0.06016 1.83436,0.82772 1.87809,1.92686" fill="#001026" stroke="none" stroke-width="1" stroke-linecap="butt" stroke-linejoin="miter"/></g></g></g><path d="M245.50022,198.75325c-11.5629,1.38406 -1.03275,-11.37358 -1.14254,-14.13282c-0.04407,-1.10776 0.8699,3.914 4.9724,5.83321c6.11613,2.86121 16.26257,3.41142 16.26257,3.41142c0,0 -16.9594,4.51317 -20.09244,4.88819z" fill="#000000" fill-rule="nonzero" stroke="#001026" stroke-width="1.2" stroke-linecap="butt" stroke-linejoin="miter"/></g></g></g></svg>