<svg version="1.1" xmlns="http://www.w3.org/2000/svg" xmlns:xlink="http://www.w3.org/1999/xlink" width="76.09181" height="67.91969" viewBox="0,0,76.09181,67.91969"><g transform="translate(-249.65245,-160.07723)"><g data-paper-data="{&quot;isPaintingLayer&quot;:true}" fill-rule="nonzero" stroke="none" stroke-linecap="butt" stroke-linejoin="miter" stroke-miterlimit="10" stroke-dasharray="" stroke-dashoffset="0" style="mix-blend-mode: normal"><path d="M266.26701,205.04264c-0.1308,-2.52809 -0.58655,-6.95844 1.20641,-8.34916c0.02584,-0.02004 1.5532,-0.01334 1.76744,-0.35123c0.64086,-1.01075 -2.32218,-4.81982 -2.80345,-5.78421c-1.52494,-4.30527 -1.2927,-8.94799 -3.33655,-13.08428l-0.59476,-0.74912c-0.0694,-0.08585 -0.11097,-0.19513 -0.11097,-0.31412c0,-0.27204 0.21726,-0.49334 0.48774,-0.49985l0.99789,-0.02791l0.00393,0.14047c2.61583,-0.10564 5.28137,0.79446 7.89945,0.33359c1.02251,-0.18 1.66709,-1.01937 2.56901,-1.33816c2.78493,-0.98436 5.08298,1.10873 6.83017,-1.59967c0.85467,-1.32487 1.24423,-3.40742 2.316,-4.49868c1.03776,-1.05663 2.69564,-0.82128 4.04106,-1.1278c1.00829,-0.22972 1.7928,-0.77746 2.76907,-1.05119c2.89605,-0.81199 5.89572,-0.20653 8.85303,-1.06526c1.78546,-0.58737 4.89238,-1.01819 6.10105,-2.58072c0.92152,-1.19132 0.88862,-2.57789 2.79493,-2.98691c2.58154,-0.55389 5.03341,6.42506 5.06565,8.49525c0.36492,1.10453 1.93231,1.10654 2.9202,1.75705c1.85886,1.22403 3.97941,2.30228 6.1155,3.05363c0.86413,0.30395 2.48118,0.28114 3.07881,1.10785c0.98645,1.36458 0.22561,5.62883 0.22561,7.28288c0,2.03252 0.0753,4.28176 -1.04301,6.101c-0.8704,1.41595 -2.39157,2.25164 -3.32502,3.68154c-1.91666,2.93604 -3.3123,5.77046 -5.90413,8.08835c-3.32848,2.34056 -6.70481,2.53741 -10.58085,3.26399c-3.2632,0.61171 -6.502,1.47141 -9.7618,2.12908c-2.92341,0.58915 -6.91499,1.08491 -9.608,2.30598c-3.22899,1.4641 -6.15002,3.87942 -8.89655,6.13348c-5.40134,4.42189 -12.55351,6.76903 -18.936,9.3319c-2.58061,0.47799 -4.57722,2.27195 -6.20094,4.25004l-0.01267,0.00816l0.00293,0.00271l-0.67718,0.7335c-0.0914,0.09963 -0.22267,0.16208 -0.36853,0.16208c-0.27614,0 -0.5,-0.22386 -0.5,-0.5c0,-0.05516 0.00893,-0.10823 0.02543,-0.15785l0.29002,-0.94485l0.09879,0.03032c1.13809,-6.45079 7.56967,-10.34455 10.40083,-15.80586c2.86941,-1.66152 2.24108,-4.9568 5.79949,-5.57605z" fill="#000000" stroke-width="0.5"/><path d="M294.81535,187.21289c-0.00347,3.85402 -3.55006,7.18046 -7.92148,7.4298c-4.37142,0.24934 -9.93756,-13.75639 -9.93756,-13.75639c0,0 17.8625,2.47257 17.85902,6.32658z" data-paper-data="{&quot;index&quot;:null}" fill="#ffffff" stroke-width="0"/><path d="M299.16334,188.44567c0.00347,-3.85402 17.8723,-8.36465 17.8723,-8.36465c0,0 -5.59203,14.64217 -9.96344,14.8915c-4.37144,0.24934 -7.91235,-2.67284 -7.90885,-6.52687z" data-paper-data="{&quot;index&quot;:null}" fill="#ffffff" stroke-width="0"/></g></g></svg>