<svg version="1.1" xmlns="http://www.w3.org/2000/svg" xmlns:xlink="http://www.w3.org/1999/xlink" width="99.34324" height="103.73397" viewBox="0,0,99.34324,103.73397"><defs><linearGradient x1="254.1051" y1="206.18655" x2="261.00556" y2="223.45919" gradientUnits="userSpaceOnUse" id="color-1"><stop offset="0" stop-color="#ffffff"/><stop offset="1" stop-color="#9f9f9f"/></linearGradient></defs><g transform="translate(-206.03286,-138.78518)"><g data-paper-data="{&quot;isPaintingLayer&quot;:true}" stroke-miterlimit="10" stroke-dasharray="" stroke-dashoffset="0" style="mix-blend-mode: normal"><path d="M246.02354,197.02452c0.14707,2.21548 -0.23459,10.60918 2.06972,12.07212c2.21146,1.35626 9.33307,-0.15463 9.39308,4.76129c0.06695,4.81618 -6.42441,4.46621 -11.70768,2.5962c-6.85177,-2.37976 -9.30379,-13.27552 -4.85674,-19.58295c1.65553,-2.19071 4.96147,-2.1619 5.10162,0.15335z" data-paper-data="{&quot;index&quot;:null}" fill="#717171" fill-rule="evenodd" stroke="#001026" stroke-width="1.2" stroke-linecap="round" stroke-linejoin="round"/><g data-paper-data="{&quot;index&quot;:null}" fill-rule="nonzero" stroke="#001026" stroke-width="1.2" stroke-linejoin="miter"><g><g><path d="M254.7897,211.94341l-4.00671,-10.02928l2.41445,-0.96458l4.00671,10.02928z" fill="#2c2c2c" stroke-linecap="butt"/><path d="M259.23784,222.63091l2.24808,-0.84034l4.62007,14.0732z" fill="#6c6c6c" stroke-linecap="butt"/><path d="M257.5696,224.83186l-6.90045,-17.27263l6.8719,-2.74534l6.90046,17.27263z" fill="url(#color-1)" stroke-linecap="butt"/><path d="M251.63371,209.97367l3.4173,-1.14985" fill="none" stroke-linecap="round"/><path d="M253.26655,212.98265l3.04582,-1.00145" fill="none" stroke-linecap="round"/><path d="M256.71978,214.61825l-2.74858,0.66732" fill="none" stroke-linecap="round"/><path d="M255.75243,218.66599l2.043,-0.81618" fill="none" stroke-linecap="round"/><path d="M256.49395,221.60029l3.00851,-0.55579" fill="none" stroke-linecap="round"/></g><path d="M248.73953,203.80736l-1.03878,-2.60018l7.05764,-2.81954l1.03878,2.60019z" fill="#2c2c2c" stroke-linecap="butt"/></g><path d="M256.0513,214.56225c1.08593,2.71822 0.76055,5.40345 -0.72678,5.99764c-1.48733,0.5942 -3.57337,-1.12767 -4.6593,-3.84589c-1.08593,-2.71822 -0.76054,-5.40346 0.72679,-5.99766c1.48733,-0.5942 3.57337,1.12767 4.65931,3.84589z" fill="#717171" stroke-linecap="butt"/><path d="M265.15239,209.84949c1.65964,4.15426 0.88464,8.36907 -1.73101,9.41403c-2.61565,1.04496 -6.08144,-1.47563 -7.74107,-5.62989c-1.65964,-4.15426 -0.88464,-8.36906 1.731,-9.41402c2.61565,-1.04496 6.08145,1.47562 7.74109,5.62988z" fill="#717171" stroke-linecap="butt"/></g><g fill-rule="evenodd"><path d="M229.22863,205.8729c0.26236,0.96496 2.32881,3.0768 -1.73608,3.82963c-4.12091,0.62299 -13.64875,-0.04054 -19.0045,-10.66767c-5.74796,-11.53607 3.31034,-20.52758 7.54731,-19.27533c4.14402,1.21535 -0.01961,7.09363 -0.01742,15.48708c-0.08144,12.12615 12.94833,9.66131 13.21068,10.62628z" fill="#717171" stroke="#001026" stroke-width="1.2" stroke-linecap="round" stroke-linejoin="round"/><path d="M216.71838,185.62584c-1.15932,4.27387 -1.33721,7.43114 -1.33721,7.43114c0,0 -0.74884,-2.44932 -3.12702,-2.96339c-2.87978,-0.60568 -4.60206,1.29268 -4.95337,1.90634c-0.02311,-1.83834 0.19435,-4.01152 1.70896,-7.28351c1.75652,-3.06832 5.12992,-5.60213 7.30577,-4.30764c1.71115,1.10995 1.02766,2.56006 0.40286,5.21706z" fill="#ffffff" stroke="none" stroke-width="1" stroke-linecap="butt" stroke-linejoin="miter"/></g><path d="M248.3198,236.3753c0,3.86599 -11.83333,3 -11.83333,3c0,0 -10.5,0.86599 -10.5,-3c0,-3.45051 2.7452,-32.89294 7.69909,-34.5825c3.83539,-1.30808 4.43187,28.24917 5.13424,28.24917c6.53537,0 9.5,2.46734 9.5,6.33333z" fill="#717171" fill-rule="nonzero" stroke="#001026" stroke-width="1.2" stroke-linecap="butt" stroke-linejoin="miter"/><path d="M229.21532,240.88712c-1.78184,3.43088 -11.88421,-2.79164 -11.88421,-2.79164c0,0 -9.71738,-4.07094 -7.93553,-7.50182c1.59034,-3.06216 17.59662,-27.92562 22.77168,-27.14177c4.00661,0.60687 -9.087,27.11241 -8.46368,27.43613c5.79982,3.01216 7.29359,6.56821 5.51176,9.99909z" fill="#717171" fill-rule="nonzero" stroke="#001026" stroke-width="1.2" stroke-linecap="butt" stroke-linejoin="miter"/><g fill-rule="evenodd"><path d="M228.66591,213.13299c-8.60298,-3.22246 -3.28737,-10.41745 0.33632,-19.13575c1.92509,-4.7227 5.98284,-9.84104 12.07437,-9.26365c3.43336,0.14813 2.71278,6.42985 4.89088,6.10441c3.27228,-0.43841 3.16847,4.39782 2.53002,6.97704c0,0 -1.01256,3.82422 -2.11054,5.8477c-1.34503,2.55165 -2.889,5.12385 -3.99021,6.14234c0,0 -4.4634,6.79924 -13.73081,3.32791z" fill="#717171" stroke="#001026" stroke-width="1.2" stroke-linecap="round" stroke-linejoin="round"/><path d="M241.61921,209.78773c0,0 -1.61532,-1.03959 -3.36093,-2.36733c-2.17431,-1.58506 -4.31779,-2.87169 -2.64677,-6.16072c1.54396,-2.57219 2.90631,-5.92987 7.68037,-3.50741c4.55458,2.24406 2.92141,4.92598 2.92141,4.92598c-1.72616,4.70216 -4.59408,7.10949 -4.59408,7.10949z" fill="#ffffff" stroke="none" stroke-width="1" stroke-linecap="butt" stroke-linejoin="miter"/></g><path d="M237.2837,197.28309c0.52739,2.35836 -2.07546,6.00187 -2.10539,7.1195c0.03633,0.31414 4.75643,3.14267 7.56482,4.85525c3.99868,2.37079 1.33127,8.75943 -3.25294,8.20721c-4.27007,-0.58855 -11.59343,-6.1084 -12.79482,-7.68849c-2.8306,-3.55637 1.94065,-12.62971 5.00304,-18.71804" fill="#717171" fill-rule="evenodd" stroke="#001026" stroke-width="1.2" stroke-linecap="round" stroke-linejoin="round"/><g><g><path d="M277.46561,144.51577c0.33054,-0.14405 0.80511,0.04243 0.83311,0.45379l0.67521,10.99063c0,0 5.47237,5.75353 6.76159,9.33654c2.18151,5.97755 1.48754,10.42484 1.48754,10.42484c0,0 6.61927,3.31742 6.79681,9.13966c0.17754,5.82224 -6.05547,15.67869 -25.21324,16.01039c-19.15776,0.3317 -33.12376,-7.34756 -38.10539,-19.81966c-4.98164,-12.4721 8.43818,-23.88739 7.70667,-23.20554l1.08481,-17.99008c-0.028,-0.41136 0.51701,-0.61863 0.87554,-0.35132l10.51982,9.90723c0,0 4.72904,-0.88103 9.39081,-0.25029c2.79147,0.29618 5.11875,0.91566 7.31237,1.71442z" fill="#717171" fill-rule="evenodd" stroke="#001026" stroke-width="1.2" stroke-linecap="butt" stroke-linejoin="miter"/><path d="M280.57446,173.56192c-0.71723,4.00946 -7.30346,6.18559 -14.71076,4.86054c-7.40729,-1.32505 -12.83067,-5.64953 -12.11344,-9.65898c0.71723,-4.00946 7.30346,-6.18559 14.71076,-4.86054c7.40729,1.32505 12.83067,5.64953 12.11344,9.65898z" fill="#393939" fill-rule="nonzero" stroke="none" stroke-width="NaN" stroke-linecap="butt" stroke-linejoin="miter"/><path d="M286.85733,176.06249c0,0 6.47523,2.98689 6.65276,8.80913c0.17754,5.82224 -6.36118,15.11606 -25.30446,15.38455c-24.7023,0.6605 -33.48692,-15.5395 -25.02506,-24.79408c8.47947,-9.35301 18.19735,1.62983 26.57174,2.51836c7.17554,0.77566 9.0724,-5.28503 17.10502,-1.91796z" fill="#ffffff" fill-rule="evenodd" stroke="none" stroke-width="1" stroke-linecap="butt" stroke-linejoin="miter"/><path d="M304.7761,180.38535c-5.29571,2.91299 -12.40081,1.7436 -12.40081,1.7436" fill="none" fill-rule="evenodd" stroke="#001026" stroke-width="1.2" stroke-linecap="round" stroke-linejoin="round"/><path d="M269.8164,175.35064c2.06719,0.36979 4.19759,0.95406 4.17277,1.66073c-0.14808,1.39574 -2.1177,3.88785 -3.71031,3.70454c-1.8071,-0.12008 -5.50125,-3.3206 -5.2195,-4.89559c0.11288,-1.19886 2.7883,-0.82185 4.75704,-0.46967z" fill="#001026" fill-rule="evenodd" stroke="#001026" stroke-width="1.2" stroke-linecap="round" stroke-linejoin="round"/><path d="M225.78369,165.95006c0,0 7.97257,4.27062 10.872,7.93849" fill="none" fill-rule="evenodd" stroke="#001026" stroke-width="1.2" stroke-linecap="round" stroke-linejoin="round"/><path d="M236.33469,177.38668c-4.53217,0.91626 -11.62283,-1.46963 -11.62283,-1.46963" fill="none" fill-rule="evenodd" stroke="#001026" stroke-width="1.2" stroke-linecap="round" stroke-linejoin="round"/><path d="M283.49226,165.91132c2.06228,4.94034 1.26266,9.97825 -1.81054,11.25708c-3.07321,1.27883 -7.23154,-1.59837 -9.39226,-6.55632c-2.06228,-4.94034 -1.26266,-9.97825 1.81054,-11.25708c3.09081,-1.37727 7.32998,1.61599 9.39226,6.55632z" fill="#ffffff" fill-rule="evenodd" stroke="#001026" stroke-width="1.2" stroke-linecap="round" stroke-linejoin="round"/><path d="M258.58673,164.30054c2.17833,4.85951 1.03058,10.13992 -1.96181,11.53479c-3.583,1.28922 -7.66772,-0.8637 -9.84605,-5.72322c-2.27677,-4.87712 -1.31188,-9.98707 2.12708,-11.60681c3.45657,-1.71818 7.50246,0.93572 9.68079,5.79524z" fill="#ffffff" fill-rule="evenodd" stroke="#001026" stroke-width="1.2" stroke-linecap="round" stroke-linejoin="round"/><path d="M260.52721,191.45681c-1.1036,3.05967 -19.21701,8.63104 -25.86087,6.23465c-6.64385,-2.39639 0.69775,-11.85309 1.80135,-14.91276c1.1036,-3.05967 2.71827,4.37918 9.36213,6.77557c6.64385,2.39639 15.80099,-1.15713 14.69739,1.90255z" fill="#000000" fill-rule="nonzero" stroke="#001026" stroke-width="1.2" stroke-linecap="butt" stroke-linejoin="miter"/></g><path d="M301.52423,191.18142c-6.2896,-0.61717 -9.79409,-3.17423 -9.79409,-3.17423" fill="none" fill-rule="evenodd" stroke="#001026" stroke-width="1.2" stroke-linecap="round" stroke-linejoin="round"/></g></g></g></svg>