<svg version="1.1" xmlns="http://www.w3.org/2000/svg" xmlns:xlink="http://www.w3.org/1999/xlink" width="52.06363" height="64.9353" viewBox="0,0,52.06363,64.9353"><g transform="translate(-220.33263,-143.79852)"><g data-paper-data="{&quot;isPaintingLayer&quot;:true}" fill-rule="nonzero" stroke="none" stroke-linecap="butt" stroke-linejoin="miter" stroke-miterlimit="10" stroke-dasharray="" stroke-dashoffset="0" style="mix-blend-mode: normal"><path d="M222.91614,182.27026c0.00036,-0.10441 0.02245,-0.18694 0.05718,-0.25218c-0.05718,-0.12124 -0.05718,-0.23904 -0.05718,-0.23904c0,-6.01889 0.44512,-11.98419 0.48748,-17.9691c0.02402,-7.67459 7.72091,-11.16532 13.02623,-15.62271c5.86949,-4.89704 13.02427,-4.37229 20.27287,-4.37244c3.76636,-0.00008 7.01769,0.9744 10.81602,0.98459c1.13562,0.00305 3.47226,-0.44225 4.31355,0.56493c0.9716,1.16318 0.39297,4.85757 0.39301,6.29613c0.00008,3.33798 0.2703,6.7907 -0.44162,10.0749c-0.77133,3.55827 -2.49993,6.77788 -2.81038,10.45061c-0.33551,3.75341 0.34892,8.73759 -2.05918,11.92625c-1.76086,2.33162 -4.99756,3.82573 -7.41253,5.36404c-3.06439,1.95198 -4.46877,4.32294 -6.80696,6.95364c-2.40832,2.7096 -5.60783,4.71778 -7.80482,7.6642c-0.79278,1.05292 -1.22966,2.25441 -1.76287,3.45637l-0.00717,0.00845l0.0025,0.00124l-0.43953,0.8861c-0.07987,0.16992 -0.25257,0.28757 -0.45276,0.28757c-0.26696,0 -0.48505,-0.20921 -0.49926,-0.47263l-0.06179,-0.99444l0.06028,-0.00375c-1.14739,-4.73449 -1.76345,-11.49442 -8.2123,-9.97693c-0.96922,0.22807 -1.73157,0.60752 -2.6273,1.03665c-2.27115,1.74606 -4.98406,3.74576 -7.63372,4.58207c-0.45912,0.14491 -1.9667,0.74267 -2.38865,0.42259c-0.22226,-0.1686 -0.28574,-2.00154 -0.30636,-2.36304c-0.14617,-2.56254 -0.50578,-5.60515 0.16333,-8.08845c0.35547,-2.82331 1.63636,-6.13784 3.12404,-8.56665c0.30656,-0.50049 1.12806,-0.66134 1.25578,-1.23418c0.08878,-0.39819 -0.77812,-0.30033 -1.18609,-0.3019l-0.50351,-0.00115c0,0 -0.5,-0.00173 -0.49827,-0.50173z" fill="#000000" stroke-width="0.5"/><path d="M247.71379,161.9965c1.19077,3.66546 -1.15067,7.92704 -5.22974,9.51849c-4.07907,1.59145 -13.71064,-10.00057 -13.71064,-10.00057c0,0 17.74961,-3.18337 18.94038,0.48209z" data-paper-data="{&quot;index&quot;:null}" fill="#ffffff" stroke-width="0"/><path d="M252.22977,161.8215c-1.19077,-3.66545 14.40128,-13.49034 14.40128,-13.49034c0,0 -0.78034,15.65423 -4.85941,17.24568c-4.07908,1.59145 -8.35112,-0.08987 -9.54188,-3.75534z" data-paper-data="{&quot;index&quot;:null}" fill="#ffffff" stroke-width="0"/></g></g></svg>