<svg version="1.1" xmlns="http://www.w3.org/2000/svg" xmlns:xlink="http://www.w3.org/1999/xlink" width="186.77006" height="115.94453" viewBox="0,0,186.77006,115.94453"><defs><linearGradient x1="233.44927" y1="217.27916" x2="218.88972" y2="228.85411" gradientUnits="userSpaceOnUse" id="color-1"><stop offset="0" stop-color="#ffffff"/><stop offset="1" stop-color="#9f9f9f"/></linearGradient><radialGradient cx="263.18771" cy="165.15065" r="8.13758" gradientUnits="userSpaceOnUse" id="color-2"><stop offset="0" stop-color="#ffffff"/><stop offset="1" stop-color="#1a1a1a"/></radialGradient><radialGradient cx="242.44399" cy="172.80297" r="6.75889" gradientUnits="userSpaceOnUse" id="color-3"><stop offset="0" stop-color="#ffffff"/><stop offset="1" stop-color="#1a1a1a"/></radialGradient><linearGradient x1="360.3324" y1="178.06946" x2="363.46772" y2="189.23771" gradientUnits="userSpaceOnUse" id="color-4"><stop offset="0" stop-color="#ffce72"/><stop offset="1" stop-color="#ff4400"/></linearGradient><linearGradient x1="342.03031" y1="163.19719" x2="341.83965" y2="223.52777" gradientUnits="userSpaceOnUse" id="color-5"><stop offset="0" stop-color="#979797"/><stop offset="1" stop-color="#030303"/></linearGradient><linearGradient x1="319.38062" y1="177.09579" x2="312.48511" y2="186.42381" gradientUnits="userSpaceOnUse" id="color-6"><stop offset="0" stop-color="#ffce72"/><stop offset="1" stop-color="#ff4400"/></linearGradient></defs><g transform="translate(-198.68159,-139.0588)"><g data-paper-data="{&quot;isPaintingLayer&quot;:true}" stroke-miterlimit="10" stroke-dasharray="" stroke-dashoffset="0" style="mix-blend-mode: normal"><path d="M238.17581,218.05907c-3.57956,8.3051 -6.11833,14.92194 -10.61386,13.25656c-6.36486,-2.35787 -1.46028,-8.61269 2.11928,-16.91779c3.57956,-8.3051 8.41808,-15.83636 11.20758,-14.63406c2.7895,1.2023 0.86657,9.99019 -2.713,18.29529z" fill="#717171" fill-rule="nonzero" stroke="#001026" stroke-width="1.2" stroke-linecap="butt" stroke-linejoin="miter"/><g fill-rule="nonzero" stroke="#001026" stroke-width="1.2" stroke-linejoin="miter"><g><g><path d="M228.13228,219.58992l8.45394,-6.72093l1.61801,2.0352l-8.45395,6.72094z" fill="#2c2c2c" stroke-linecap="butt"/><path d="M219.17482,226.92289l1.45118,1.91157l-12.15079,8.47102z" fill="#6c6c6c" stroke-linecap="butt"/><path d="M216.58718,225.95786l14.55955,-11.57495l4.60509,5.7925l-14.55955,11.57497z" fill="url(#color-1)" stroke-linecap="butt"/><path d="M229.11153,216.0009l2.08376,2.94245" fill="none" stroke-linecap="round"/><path d="M226.69902,218.42987l1.83483,2.62932" fill="none" stroke-linecap="round"/><path d="M224.6959,219.76685l1.42936,2.44069" fill="none" stroke-linecap="round"/><path d="M221.9703,222.44474l1.36907,1.72209" fill="none" stroke-linecap="round"/><path d="M220.77033,226.72025l-1.39727,-2.72169" fill="none" stroke-linecap="round"/></g><path d="M234.18543,211.45609l2.19176,-1.74246l4.72955,5.94906l-2.19176,1.74248z" fill="#2c2c2c" stroke-linecap="butt"/></g><path d="M225.98672,221.55118c-2.29127,1.82157 -4.95668,2.28191 -5.95338,1.0282c-0.9967,-1.25371 0.05274,-3.74671 2.344,-5.56827c2.29127,-1.82157 4.95668,-2.2819 5.95338,-1.0282c0.9967,1.25371 -0.05274,3.74672 -2.344,5.56828z" fill="#717171" stroke-linecap="butt"/><path d="M233.11704,228.91314c-3.50173,2.78391 -7.76141,3.25335 -9.51424,1.04857c-1.75283,-2.20479 -0.33507,-6.24892 3.16666,-9.03284c3.50173,-2.78391 7.7614,-3.25337 9.51424,-1.04859c1.75283,2.20479 0.33506,6.24893 -3.16666,9.03285z" fill="#717171" stroke-linecap="butt"/></g><g fill-rule="evenodd"><path d="M225.78704,211.8512c0.54139,0.84077 3.14889,2.23035 -0.49917,4.17502c-3.74066,1.83779 -13.02439,4.08111 -21.33804,-4.43377c-8.96192,-9.26304 -3.04011,-20.56934 1.37722,-20.65439c4.31757,-0.09217 2.12245,6.76869 4.65802,14.76999c3.58253,11.58515 15.26057,5.30235 15.80196,6.14313z" fill="#717171" stroke="#001026" stroke-width="1.2" stroke-linecap="round" stroke-linejoin="round"/><path d="M207.74889,196.3246c0.18478,4.42447 0.96817,7.48816 0.96817,7.48816c0,0 -1.45321,-2.10905 -3.87564,-1.88132c-2.92828,0.2918 -3.99724,2.62148 -4.14693,3.31255c-0.57692,-1.74562 -1.02556,-3.88309 -0.56921,-7.45963c0.74845,-3.45539 3.1997,-6.88925 5.6648,-6.3119c1.96636,0.54168 1.75246,2.13047 1.9588,4.85213z" fill="#ffffff" stroke="none" stroke-width="1" stroke-linecap="butt" stroke-linejoin="miter"/></g><path d="M248.31981,236.37531c0,3.86599 -11.83333,3 -11.83333,3c0,0 -10.5,0.86599 -10.5,-3c0,-3.45051 2.7452,-32.89294 7.69909,-34.5825c3.83539,-1.30808 4.43187,28.24917 5.13424,28.24917c6.53537,0 9.5,2.46734 9.5,6.33333z" fill="#717171" fill-rule="nonzero" stroke="#001026" stroke-width="1.2" stroke-linecap="butt" stroke-linejoin="miter"/><path d="M242.31981,237.04198c0,3.86599 -11.83333,3 -11.83333,3c0,0 -10.5,0.86599 -10.5,-3c0,-3.45051 2.7452,-32.89294 7.69909,-34.58249c3.83539,-1.30808 4.43187,28.24916 5.13424,28.24916c6.53537,0 9.5,2.46734 9.5,6.33333z" fill="#717171" fill-rule="nonzero" stroke="#001026" stroke-width="1.2" stroke-linecap="butt" stroke-linejoin="miter"/><g fill-rule="evenodd"><path d="M230.47871,218.12852c-9.13261,0.99555 -7.62525,-7.82213 -8.31445,-17.23833c-0.40715,-5.0837 0.91191,-11.48081 6.61115,-13.70759c3.13244,-1.4134 5.317,4.52015 7.11538,3.249c2.72455,-1.86462 4.80909,2.50053 5.40014,5.09102c0,0 0.81748,3.87062 0.74802,6.17175c-0.05229,2.88397 -0.27297,5.87585 -0.79776,7.28105c0,0 -0.92456,8.08065 -10.76247,9.1531z" fill="#717171" stroke="#001026" stroke-width="1.2" stroke-linecap="round" stroke-linejoin="round"/><path d="M240.53913,209.30997c0,0 -1.9104,-0.20108 -4.06683,-0.6008c-2.65509,-0.43649 -5.14831,-0.62039 -5.1369,-4.30955c0.22067,-2.99187 -0.07445,-6.60337 5.27903,-6.58952c5.07718,-0.04664 4.82626,3.08338 4.82626,3.08338c0.57553,4.97582 -0.90156,8.4165 -0.90156,8.4165z" fill="#ffffff" stroke="none" stroke-width="1" stroke-linecap="butt" stroke-linejoin="miter"/></g><g><g><path d="M252.70036,139.4788c0.25239,-0.2575 0.76227,-0.26259 0.94249,0.10826l4.74758,9.93532c0,0 7.23065,3.28143 9.76944,6.11947c4.26396,4.72321 5.28843,9.10618 5.28843,9.10618c0,0 7.38026,0.59301 9.72827,5.92376c2.348,5.33075 0.26618,16.80532 -17.36906,24.29723c-17.63522,7.4919 -33.4618,5.61051 -42.75708,-4.08319c-9.29528,-9.69371 -1.13573,-25.3085 -1.55814,-24.4021l-5.74087,-17.08398c-0.18022,-0.37084 0.24728,-0.76736 0.6799,-0.65401l13.46742,5.23913c0,0 4.05352,-2.59019 8.61161,-3.75369c2.69881,-0.77228 5.08856,-1.07075 7.42164,-1.15293z" fill="#717171" fill-rule="evenodd" stroke="#001026" stroke-width="1.2" stroke-linecap="butt" stroke-linejoin="miter"/><path d="M266.47502,165.23929c0.8387,3.98582 -4.45078,8.47306 -11.81439,10.02254c-7.36362,1.54947 -14.01293,-0.42556 -14.85164,-4.41137c-0.8387,-3.98582 4.45078,-8.47305 11.81439,-10.02253c7.36362,-1.54947 14.01294,0.42555 14.85164,4.41136z" fill="#000000" fill-rule="nonzero" stroke="none" stroke-width="NaN" stroke-linecap="butt" stroke-linejoin="miter"/><path d="M273.23709,165.20123c0,0 7.12277,0.34062 9.47077,5.67138c2.348,5.33075 -0.22821,16.39841 -17.68833,23.75127c-22.65182,9.87597 -36.87054,-1.84741 -32.49682,-13.59988c4.35313,-11.85033 17.48052,-5.31335 25.57696,-7.63019c6.94275,-1.97187 6.42834,-8.3016 15.13743,-8.19258z" fill="#ffffff" fill-rule="evenodd" stroke="none" stroke-width="1" stroke-linecap="butt" stroke-linejoin="miter"/><path d="M291.46929,162.48883c-3.8168,4.68637 -10.84191,6.26681 -10.84191,6.26681" fill="none" fill-rule="evenodd" stroke="#001026" stroke-width="1.2" stroke-linecap="round" stroke-linejoin="round"/><path d="M292.50339,173.7165c-6.06203,1.78654 -10.26971,0.73033 -10.26971,0.73033" fill="none" fill-rule="evenodd" stroke="#001026" stroke-width="1.2" stroke-linecap="round" stroke-linejoin="round"/><path d="M257.17288,170.9319c2.055,-0.43242 4.24903,-0.68972 4.49104,-0.02532c0.38613,1.3494 -0.50516,4.39827 -2.05026,4.8256c-1.72025,0.56636 -6.34502,-1.01523 -6.67449,-2.58093c-0.34496,-1.1537 2.27659,-1.80752 4.23372,-2.21935z" fill="#001026" fill-rule="evenodd" stroke="#001026" stroke-width="1.2" stroke-linecap="round" stroke-linejoin="round"/><path d="M212.82834,178.73019c0,0 8.99226,0.96914 13.0556,3.282" fill="none" fill-rule="evenodd" stroke="#001026" stroke-width="1.2" stroke-linecap="round" stroke-linejoin="round"/><path d="M226.8982,185.37541c-3.8578,2.54899 -11.32571,2.99634 -11.32571,2.99634" fill="none" fill-rule="evenodd" stroke="#001026" stroke-width="1.2" stroke-linecap="round" stroke-linejoin="round"/><path d="M268.5885,160.84711c3.76446,3.80641 2.63478,4.98226 0.26544,7.32025c-2.36935,2.33799 -7.30319,1.2302 -11.16552,-2.55562c-1.95301,-1.96345 -5.32887,-5.96897 -3.86371,-5.73217c16.65914,2.69244 13.45211,-0.13578 14.2058,0.49898c0.18592,0.15659 0.38618,0.2948 0.558,0.46856z" fill="url(#color-2)" fill-rule="evenodd" stroke="#001026" stroke-width="1.2" stroke-linecap="round" stroke-linejoin="round"/><path d="M242.61881,164.89951c3.84174,3.68796 4.75795,9.01342 2.50706,11.42868c-2.83805,2.5388 -7.43203,2.07482 -11.27376,-1.61313c8.50274,-2.34073 4.92498,-13.5035 8.7667,-9.81554z" fill="url(#color-3)" fill-rule="evenodd" stroke="#001026" stroke-width="1.2" stroke-linecap="round" stroke-linejoin="round"/><path d="M259.76481,185.55643c0.55439,2.63469 -10.28554,21.53571 -16.90604,22.92883c-6.62051,1.39312 -6.51452,-15.24924 -7.06892,-17.88394c-0.55439,-2.63469 2.26385,-0.09315 8.88434,-1.48626c6.62051,-1.39312 14.53621,-6.19333 15.09061,-3.55864z" fill="#000000" fill-rule="nonzero" stroke="#001026" stroke-width="1.2" stroke-linecap="butt" stroke-linejoin="miter"/></g><path d="M242.01291,177.45249c0.02236,0.02028 0.0443,0.04446 0.06574,0.07276c0.12682,-0.05336 0.25614,-0.11893 0.38841,-0.19827c0.11521,-0.02501 0.23136,-0.04945 0.34791,-0.07406c0.40412,-0.24853 0.78331,-0.49993 0.98559,-0.59775c0.2291,-0.15304 0.49383,-0.23313 0.75417,-0.2931c0.02061,-0.36514 0.13595,-0.69628 0.57876,-0.89989c0.24998,-0.11494 0.48453,-0.16207 0.68981,-0.15396c0.0738,-0.12539 0.14906,-0.24535 0.22563,-0.35113c0.22046,-1.1051 0.17247,-2.6481 0.24163,-3.21492l-0.05415,-0.25733c-0.02843,-0.1351 0.05804,-0.26769 0.19316,-0.29612c0.1351,-0.02843 0.26768,0.05805 0.29613,0.19317l0.06047,0.28732l-0.06184,0.01301c0.0033,0.00665 0.00658,0.01331 0.00984,0.02l0.05707,0.00684c-0.00321,0.03048 -0.00622,0.06209 -0.00903,0.09471c0.79425,1.73653 0.74499,4.57978 0.62509,6.76003c0.34344,2.04568 0.61617,4.82115 0.03874,6.53416l0.05301,0.00657l-0.03631,0.2933c-0.01056,0.10553 -0.08803,0.19669 -0.19735,0.21969c-0.1351,0.02843 -0.26768,-0.05805 -0.29612,-0.19317c-0.00016,-0.00081 -0.00033,-0.00159 -0.00049,-0.0024l-0.09875,-0.48981l0.00833,-0.00168l-0.01219,-0.02443c0.01539,-1.58647 -0.08591,-3.13815 -0.0594,-4.71591c0.04325,-0.73516 0.03415,-1.42359 -0.00391,-2.0922c-0.04035,-0.26825 -0.08772,-0.53537 -0.14361,-0.80099c-0.06329,-0.30381 -0.08213,-0.61007 -0.09773,-0.91691c-0.06189,0.21337 -0.18882,0.44631 -0.39382,0.68694c-0.80127,1.16985 -1.90017,1.48322 -2.90637,1.88558l-0.02704,0.15463c-0.01514,0.10022 -0.09078,0.18523 -0.19579,0.20732c-0.11799,0.02483 -0.23407,-0.03798 -0.28051,-0.1443c-0.60379,0.28829 -1.14507,0.6747 -1.52776,1.39201l-0.16082,0.45402c-0.02726,0.08131 -0.09567,0.14646 -0.18566,0.1654c-0.12574,0.02646 -0.24929,-0.04661 -0.28873,-0.16578l-0.13279,-0.38217l0.07199,-0.02501c-0.23285,-0.579 -0.21919,-1.06304 -0.03677,-1.46999c-0.02509,-0.02776 -0.05107,-0.05594 -0.07789,-0.08444c-0.48601,2.15316 0.54142,4.35168 0.40231,6.46142c0.00747,0.07186 0.01473,0.14404 0.02192,0.21665l0.05838,0.2774c0.02843,0.1351 -0.05805,0.26768 -0.19317,0.29613c-0.1351,0.02843 -0.26768,-0.05805 -0.29613,-0.19317l-0.06047,-0.28732l0.00626,-0.00132l-0.00868,-0.01193c-0.00592,-0.0588 -0.01183,-0.1173 -0.01784,-0.17558c-0.24112,-0.38354 -0.28904,-1.27462 -0.36267,-1.63093c-0.13341,-0.64564 -0.24412,-1.49565 -0.27884,-2.3693c-0.10679,-0.70673 -0.21753,-1.41638 -0.35467,-2.10399l-0.03704,0.07244c-0.03296,0.06579 -0.09453,0.11647 -0.17212,0.13279c-0.1351,0.02843 -0.26768,-0.05805 -0.29612,-0.19316c-0.00864,-0.04109 -0.00667,-0.08194 0.00407,-0.1197l0.10966,-0.41855l0.0145,0.00379c0.00228,-0.15997 0.01297,-0.31936 0.03759,-0.47708c0.00105,-0.00673 0.00227,-0.01384 0.00365,-0.0213c-0.26759,-0.09351 -0.53525,-0.18237 -0.80082,-0.25695c-0.00292,0.00383 -0.00583,0.00768 -0.00873,0.0116c-0.02749,0.03728 -0.05212,0.07822 -0.07431,0.12219c-0.03298,0.579 -0.06967,1.14726 -0.1871,1.7079l0.05969,0.00424l-0.03502,0.49323c-0.00534,0.11087 -0.08461,0.20852 -0.19828,0.23243c-0.07911,0.01665 -0.15735,-0.0061 -0.21432,-0.05494c-0.1342,0.02678 -0.26525,-0.05944 -0.29351,-0.19369l-0.08061,-0.38312l0.07613,-0.01602c-0.21903,-0.64487 -0.14487,-1.16776 0.10903,-1.54805c0.0415,-0.182 0.09235,-0.36206 0.15168,-0.53285c-0.05408,-0.00869 -0.10797,-0.01639 -0.16167,-0.02303c-0.23706,-0.15666 -0.42357,-0.39593 -0.55246,-0.64915l-0.00158,-0.0101l-0.00222,0.00086l-0.18027,-0.46131c-0.00573,-0.01394 -0.0103,-0.02861 -0.01352,-0.04391c-0.02843,-0.1351 0.05805,-0.26768 0.19317,-0.29613c0.12279,-0.02584 0.24348,0.04324 0.28581,0.15747l0.12184,0.31175c0.06509,0.04191 0.12925,0.07968 0.19254,0.11357c0.03165,-0.07036 0.09533,-0.12515 0.1766,-0.14224l0.38312,-0.08061l0.00298,0.01414l0.03688,-0.01923c0.23446,0.02473 0.46008,0.07069 0.67952,0.12818c0.18442,0.00548 0.3602,0.04901 0.48853,0.14605c0.05795,0.019 0.11561,0.03832 0.17301,0.05776c0.73643,-0.20218 1.47791,-0.4845 2.42136,-0.07859c0.12351,0.05314 0.20889,0.13263 0.26533,0.22949zM244.47611,177.6885c-0.01478,0.0081 -0.02961,0.01614 -0.04447,0.02408c0.02155,-0.00034 0.03447,-0.00279 0.03712,-0.0083c0.00251,-0.00524 0.00495,-0.01051 0.00735,-0.01579zM246.53957,175.35962c-0.01016,-0.09184 -0.02024,-0.18401 -0.03023,-0.27658c-0.03272,0.14769 -0.07056,0.2903 -0.11441,0.42569c0.04575,0.04727 0.08355,0.09186 0.11409,0.13394c-0.00127,-0.01059 -0.00259,-0.02121 -0.00393,-0.03179c-0.0081,-0.06371 0.01185,-0.15787 0.03445,-0.25128zM246.07479,176.30992c-0.04077,0.01143 -0.08232,0.02213 -0.12412,0.03231c-0.06547,0.07234 -0.13666,0.13618 -0.21411,0.19024c-0.00206,0.00143 -0.00412,0.00287 -0.0062,0.00426l0.04398,-0.00926c0.05715,-0.01202 0.11384,-0.0035 0.16239,0.0206c0.05864,-0.08521 0.10432,-0.16478 0.13808,-0.23815zM245.00146,176.26639c0.0013,-0.0003 0.00261,-0.00059 0.0039,-0.00089c0.1223,-0.07038 0.25419,-0.13374 0.38217,-0.18882c0.05177,-0.08578 0.10469,-0.17913 0.15865,-0.27596c-0.09808,0.03445 -0.20531,0.08498 -0.31955,0.15271c-0.117,0.06937 -0.1856,0.1786 -0.22519,0.31298zM241.42198,178.71356c-0.02707,0.00677 -0.05416,0.01316 -0.08114,0.01918c-0.00177,0.04174 -0.00264,0.08422 -0.00287,0.12732l0.07701,-0.11806c0.00239,-0.00956 0.00472,-0.01905 0.007,-0.02844zM244.92369,177.67123c0.17099,-0.13019 0.33658,-0.27968 0.4947,-0.45459c-0.05644,0.0334 -0.11396,0.06288 -0.1716,0.08621c-0.01837,0.07737 -0.07321,0.14323 -0.14912,0.174l-0.15523,0.06651c-0.00472,0.04357 -0.01086,0.08629 -0.01874,0.12787zM239.89406,179.01679c0.01478,-0.05832 0.03042,-0.11558 0.04695,-0.17164c-0.03193,-0.011 -0.06392,-0.02208 -0.09594,-0.03327c0.01683,0.06727 0.03312,0.13563 0.04898,0.20492zM241.47477,179.4465c0.00169,-0.00152 0.00338,-0.00303 0.00506,-0.00455c-0.00169,0.00045 -0.00339,0.00089 -0.00509,0.00133zM244.20586,178.10852c-0.15894,-0.02795 -0.33378,-0.0526 -0.47061,-0.04881c-0.07507,0.12849 -0.15316,0.24465 -0.23408,0.34938c0.23622,-0.0907 0.47256,-0.18666 0.70468,-0.30057zM240.49742,178.17021c0.02053,0.04217 0.04021,0.08897 0.05893,0.14068c0.06925,-0.02618 0.14064,-0.05135 0.21365,-0.07508c-0.09052,-0.02109 -0.1814,-0.04312 -0.27258,-0.06562zM240.98767,178.90209c0.00454,0.00164 0.00908,0.00328 0.01361,0.00492c0.00002,-0.01403 0.00024,-0.02813 0.00062,-0.0423c-0.00524,0.0114 -0.00997,0.02387 -0.01423,0.03738zM240.96471,180.03823c0.02805,-0.04191 0.05658,-0.08257 0.0856,-0.12198c-0.01608,-0.01617 -0.03005,-0.03461 -0.04133,-0.05497l-0.04598,-0.07865c0.00195,0.08603 0.00298,0.17206 0.00173,0.25562z" fill="#000000" fill-rule="nonzero" stroke="none" stroke-width="0.5" stroke-linecap="butt" stroke-linejoin="miter"/><path d="M269.43665,170.24023c0.06431,-0.10228 0.1265,-0.21281 0.18568,-0.32904c-0.06384,0.08388 -0.12065,0.16178 -0.16741,0.23171c-0.00622,0.03252 -0.01232,0.06496 -0.01827,0.09733zM270.55925,168.69709c-0.19536,0.98739 -0.6598,2.11872 -1.24253,2.42483c-0.00849,0.04098 -0.01694,0.08161 -0.02533,0.12191c-0.18427,1.75748 0.02842,3.29541 0.3887,4.92822c0.43286,0.86374 0.94411,1.74674 0.84836,2.65586l0.08681,0.00996l-0.03465,0.30175c-0.00971,0.10645 -0.08749,0.19867 -0.19755,0.22184c-0.09766,0.02055 -0.194,-0.01893 -0.25065,-0.09344l-0.2688,-0.33856l0.01234,-0.00979l-0.03987,-0.03327c-0.39063,-1.37802 -0.73085,-2.64806 -0.93194,-3.91461c-0.33918,-1.1477 -0.47175,-2.19995 -0.12584,-3.63623c0.04565,-0.44889 0.11582,-0.9082 0.21375,-1.38176c0.10763,-0.16848 0.30221,-0.41002 0.51448,-0.67308c-0.37079,0.33468 -0.95711,0.35942 -1.5373,0.32093c-0.31104,0.1726 -0.60595,0.29344 -0.8668,0.34834c-0.28713,0.06041 -0.61617,0.08521 -0.95204,0.10933c0.03758,0.22515 0.16881,0.5373 0.42061,0.96647c0.2067,0.35229 0.30355,0.67203 0.59771,0.96363c0.95604,1.45276 2.13176,6.4751 1.11529,8.35329l0.0994,0.06485l-0.15125,0.23187v0v0c-0.03495,0.05358 -0.09036,0.09383 -0.15792,0.10806c-0.1351,0.02843 -0.26768,-0.05805 -0.29613,-0.19317l-0.08061,-0.38312c-0.13218,-0.63867 -0.36276,-1.24865 -0.49886,-1.89538c-0.36399,-1.81683 -0.08883,-3.91846 -0.69878,-5.7131c-0.13946,-0.41035 -0.41074,-0.75136 -0.652,-1.1061c-0.02886,0.10752 -0.05941,0.21425 -0.09096,0.31909c0.06907,0.79447 0.10216,1.81149 0.05271,2.77469c0.12395,0.69686 0.15844,1.34671 -0.0344,1.86623c-0.24407,0.61003 -0.35427,5.1374 -1.08186,4.77419c-0.47317,-0.23621 0.00603,-3.44455 -0.06726,-3.93807c0.03269,-0.29488 0.06793,-0.61683 0.10013,-0.95697c-0.29175,-0.88546 -0.7637,-2.17442 -0.62339,-2.52451c0.14803,-0.36938 0.41319,-0.66777 0.6548,-1.00936c-0.0874,-0.71304 -0.25471,-1.38716 -0.54355,-1.95649c-0.24133,-0.04245 -0.52247,-0.2397 -0.80429,-0.68559c-0.05479,0.00603 -0.10989,0.01349 -0.16536,0.02242l-0.0684,-0.07024l-0.02212,0.03391l-0.23186,-0.15124c-0.05358,-0.03495 -0.09383,-0.09036 -0.10806,-0.15792c-0.02843,-0.1351 0.05805,-0.26768 0.19316,-0.29612l0.28732,-0.06047l0.00391,0.01862c0.0104,-0.00664 0.02172,-0.01298 0.03406,-0.01898c0.04714,-0.0229 0.08919,-0.03113 0.12623,-0.02981c2.03943,-0.74619 4.12212,-0.07774 6.08515,-2.059c0.07428,-0.04344 0.14336,-0.08673 0.20763,-0.12994c0.01305,-0.48854 0.00471,-1.02513 0.21685,-1.3054c0.2736,-0.36148 0.54633,-0.65232 0.8142,-0.87443c0.01371,-0.05308 0.02926,-0.10676 0.04712,-0.16104c-0.15415,-0.21682 -0.16845,-0.43069 0.06995,-0.61747c0.06718,-0.05264 0.13788,-0.08149 0.21128,-0.08962l0.01154,-0.10052c0.00971,-0.10645 0.08748,-0.19868 0.19754,-0.22184c0.1351,-0.02843 0.26768,0.05805 0.29612,0.19317l0.06047,0.28732l-0.08254,0.01736l-0.00128,0.01114c0.0598,0.04718 0.12021,0.10213 0.18092,0.16363c0.96163,-0.19371 1.7761,0.60093 2.21576,2.27575c0.18172,0.83644 0.34272,1.67262 0.49499,2.50919c0.87195,1.86285 1.71016,4.19316 1.19899,5.82282l0.10617,0.03891l-0.17054,0.46542c-0.02785,0.08006 -0.09574,0.14397 -0.18474,0.16269c-0.1351,0.02843 -0.26768,-0.05805 -0.29613,-0.19317l-0.06047,-0.28732c-0.3716,-1.76597 -0.65811,-3.5244 -0.96999,-5.28033c-0.24523,-0.75735 -0.54603,-1.50644 -0.94219,-2.24035c-0.15412,-0.24658 -0.95703,-1.37659 -1.48843,-2.21638c-0.07183,-0.00482 -0.14293,-0.00514 -0.21265,-0.00001c-0.15326,0.48666 -0.42336,0.99207 -0.76383,1.4795c0.12978,0.33317 0.27873,0.68234 0.2256,0.9274c-0.04248,0.19595 -0.18414,0.44488 -0.36694,0.70956zM267.07695,172.8387c0.43024,1.7206 0.26616,3.79314 0.61097,5.33418c0.07158,0.34023 0.16776,0.66893 0.26277,0.9971c0.05023,-0.41924 0.12828,-0.83539 0.12543,-0.99889c-0.02441,-1.39735 -0.32188,-3.86859 -0.99916,-5.3324zM265.17926,171.79816c0.01448,-0.39288 0.00383,-0.73322 -0.05167,-0.98792l-0.04501,-0.21394c-0.02712,0.36191 0.01692,0.76966 0.09667,1.20185zM264.83425,174.56404c0.00614,-0.28296 0.00549,-0.56822 -0.00441,-0.85196c-0.16539,0.19483 -0.31343,0.36442 -0.31041,0.36798c0.12577,0.14796 0.22879,0.3106 0.31482,0.48397zM265.51892,170.11257c-0.03105,0.00348 -0.06199,0.00715 -0.09274,0.01103c-0.01889,0.00492 -0.03776,0.00976 -0.05654,0.01446c0.03029,0.00997 0.05834,0.02565 0.08267,0.046l0.06,0.04938c0.00146,-0.03552 0.00383,-0.07668 0.00662,-0.12089zM269.70629,169.03232c0.14489,-0.18154 0.28814,-0.3656 0.40904,-0.53671c0.04475,-0.22672 0.06846,-0.44094 0.06579,-0.6272c-0.02734,0.26362 -0.10412,0.48885 -0.30448,0.62289c-0.02823,0.21864 -0.08711,0.39667 -0.17033,0.54102zM272.91166,166.22333c0.33245,0.61631 0.59011,1.17029 0.68643,1.32293c0.02049,0.0388 0.0413,0.07829 0.06241,0.11845c-0.05085,-0.24978 -0.10323,-0.49957 -0.15743,-0.74937c-0.03546,-0.13665 -0.07206,-0.26655 -0.1099,-0.38963c-0.00317,0.00079 -0.00639,0.00154 -0.00963,0.00223c-0.08625,0.01814 -0.1715,-0.01054 -0.22923,-0.06882l-0.23644,-0.23176c-0.00197,-0.00133 -0.00405,-0.00267 -0.00624,-0.00405zM268.98975,168.89647c0.14088,-0.07161 0.25696,-0.16645 0.33895,-0.29204c-0.11212,0.10142 -0.22537,0.19898 -0.33895,0.29204zM268.78376,168.55305c-0.28294,0.18231 -0.60169,0.37265 -0.94022,0.55748c0.0383,-0.00129 0.07642,-0.00282 0.11431,-0.00463c0.28701,-0.15146 0.56477,-0.33877 0.82592,-0.55283zM270.19583,166.81393c-0.00045,0.00684 -0.00089,0.01367 -0.00128,0.02053c0.00169,-0.00322 0.00338,-0.00645 0.00507,-0.00969c-0.00128,-0.00361 -0.00253,-0.00722 -0.00379,-0.01084zM272.19619,165.04096c0.14091,-0.00099 0.27661,0.01393 0.40339,0.04656c-0.15257,-0.11675 -0.3176,-0.17548 -0.49641,-0.17447c0.0311,0.04155 0.06212,0.08426 0.09304,0.12792z" fill="#000000" fill-rule="nonzero" stroke="none" stroke-width="0.5" stroke-linecap="butt" stroke-linejoin="miter"/></g><path d="M223.08668,212.64447c-3.57956,8.3051 -6.11833,14.92194 -10.61386,13.25656c-6.36486,-2.35787 -1.46028,-8.61269 2.11928,-16.91779c3.57956,-8.3051 8.41808,-15.83636 11.20758,-14.63406c2.7895,1.2023 0.86657,9.99019 -2.713,18.29529z" fill="#717171" fill-rule="nonzero" stroke="#001026" stroke-width="1.2" stroke-linecap="butt" stroke-linejoin="miter"/><g><path d="M299.98872,169.91171c0,0 -0.21541,0.12688 -0.34229,-0.08852c-0.12688,-0.2154 0.08852,-0.34229 0.08852,-0.34229c0.57041,-0.33601 1.14083,-0.67203 1.71124,-1.00804c0.29705,-0.28993 0.59533,-0.57294 0.89197,-0.84875l0.26281,-0.24409c0,0 0.18318,-0.17013 0.35331,0.01306c0.04826,0.05197 0.06809,0.10288 0.07174,0.14917c1.48784,-0.87643 2.97569,-1.75286 4.46353,-2.62929c3.01568,-1.77641 6.03136,-3.55284 9.04703,-5.32926c1.87639,-1.10531 5.93683,-5.75658 6.44266,-7.90235c0.2804,-1.12616 0.32152,-2.35314 0.48006,-3.3207c0.36589,-2.23299 5.28277,-0.97579 6.76869,-0.84827c2.93801,0.25214 7.40843,2.15787 9.84419,3.82286c2.88946,1.97511 5.77891,3.95022 8.66835,5.92533c2.88946,1.97511 5.7789,3.95022 8.66836,5.92533c2.89026,1.97566 5.77007,3.96512 8.64315,5.96568c2.87229,2 5.74457,4.00001 8.61684,6c2.36469,1.64656 7.39312,3.83363 7.7686,6.72803c0.4548,3.50578 0.88114,6.86316 2.01011,10.21915c0.35627,1.05903 1.23556,3.43844 0.91944,4.54474c-0.48976,1.71395 -3.29207,3.04991 -4.62034,4.00372c-0.79753,0.57265 -2.20161,1.21682 -2.78989,1.98973c-1.1966,1.57213 -1.6955,4.63213 -2.38507,6.50315c-1.26525,3.433 -2.5379,6.31645 -4.593,9.35001c-0.1336,1.90789 -0.2347,4.11851 -0.44251,5.70508c-0.12792,0.97658 -2.37212,2.766 -3.03431,3.51834c-2.17993,2.47665 -5.74568,4.06838 -8.4504,6.11833c-2.5217,2.30957 -5.42041,4.52532 -7.46934,7.26564c-2.00327,2.67923 -2.75819,6.42956 -4.5074,9.32868c-0.76482,1.26761 -2.68169,4.0096 -4.18098,4.48671c-1.24569,0.39642 -3.42556,-0.61298 -4.56635,-1.04244c-2.53696,-2.44491 -4.89844,-5.05629 -7.29846,-7.63432c-2.4044,-2.58273 -4.4496,-5.38661 -6.76631,-8.00346c-2.40659,-2.62227 -5.39034,-4.31912 -8.39739,-6.14826c-0.83744,-0.8769 -1.66653,-1.76164 -2.49261,-2.6492l-0.20799,-0.08016c-2.3306,-0.89839 -4.60603,-1.93458 -6.86358,-3.00046c-3.21464,-0.77345 -6.69151,-2.41011 -9.69904,-3.93987c-2.64743,-1.34729 -6.89774,-2.12461 -9.9827,-2.05664c-1.54623,0.03407 -2.33828,0.90457 -3.6631,1.15877c-1.61896,0.31063 -4.79008,-1.45678 -6.31158,-2.01941c-1.34568,-0.49761 -3.18136,-0.36714 -4.38905,-1.10947c-1.6942,-1.04137 -2.99811,-2.77823 -4.33691,-4.21697c-2.4785,-2.57075 -5.08076,-4.59502 -8.10995,-6.48857c-2.64772,-1.66283 -5.83749,-4.61869 -7.96995,-6.91648c-1.18361,-1.27835 -2.86142,-2.68637 -3.46574,-4.36651c-0.53834,-1.49669 -0.60685,-5.15967 1.54099,-2.84752c2.4561,2.63693 4.8243,4.78544 8.44993,4.15136c1.73806,-0.46931 4.04557,-0.41533 5.9658,0.27058c0.00917,-0.00178 0.01461,-0.00235 0.01461,-0.00235c2.99853,-0.31577 5.76084,-1.21191 8.28679,-2.87601c2.73447,-1.79611 5.07015,-4.59232 7.60052,-6.94215c2.58439,-2.37274 6.26831,-2.68115 8.97271,-5.1496c2.56515,-2.37788 5.19925,-4.58396 7.13999,-7.51214c0.78072,-2.04848 2.19221,-3.94866 3.76855,-5.65308c-0.0414,0.02439 -0.08283,0.0488 -0.12424,0.07318z" fill="#000000" fill-rule="nonzero" stroke="none" stroke-width="0.5" stroke-linecap="butt" stroke-linejoin="miter"/><g><path d="M360.3324,178.06946c8.07096,-2.2658 16.01218,-9.48075 16.01218,-9.48075c0,0 -4.80589,18.38319 -12.87685,20.649c-8.07096,2.2658 -8.38363,-0.34355 -9.24942,-3.42758c-0.8658,-3.08403 -1.95687,-5.47486 6.11409,-7.74067z" data-paper-data="{&quot;index&quot;:null}" fill="url(#color-4)" fill-rule="nonzero" stroke="#001026" stroke-width="1.2" stroke-linecap="butt" stroke-linejoin="miter"/><g><g><g><path d="M356.15461,166.78008c0.32464,-0.1569 0.80615,0.01081 0.85027,0.42076l1.10599,10.95567c0,0 5.69395,5.53435 7.12276,9.06401c2.4144,5.88734 1.89547,10.35843 1.89547,10.35843c0,0 6.74435,3.05512 7.15024,8.86592c0.40588,5.81079 -5.43555,15.90422 -24.56555,16.98745c-19.12998,1.08323 -33.38657,-6.04207 -38.8538,-18.30908c-5.46723,-12.26702 7.4943,-24.20012 6.79013,-23.49009l0.37803,-18.0188c-0.04411,-0.40994 0.49233,-0.63844 0.86108,-0.3854l10.90049,9.4868c0,0 4.69082,-1.06593 9.37376,-0.6186c2.80093,0.1864 5.15073,0.71409 7.37401,1.42615z" fill="url(#color-5)" fill-rule="evenodd" stroke="#001026" stroke-width="1.2" stroke-linecap="butt" stroke-linejoin="miter"/><path d="M366.77702,197.93397c0,0 6.58744,2.7305 6.99331,8.54129c0.40588,5.81079 -5.76309,15.35404 -24.68125,16.36567c-24.65735,1.62934 -34.07092,-14.21348 -25.97875,-23.79297c8.10591,-9.67855 18.24729,0.91449 26.65012,1.4737c7.20046,0.49349 8.85803,-5.63697 17.01658,-2.58769z" fill="#ffffff" fill-rule="evenodd" stroke="none" stroke-width="1" stroke-linecap="butt" stroke-linejoin="miter"/><path d="M384.85165,201.55035c-5.1773,3.11857 -12.32283,2.22888 -12.32283,2.22888" fill="none" fill-rule="evenodd" stroke="#001026" stroke-width="1.2" stroke-linecap="round" stroke-linejoin="round"/><path d="M382.02592,212.46572c-6.30897,-0.36989 -9.91112,-2.78747 -9.91112,-2.78747" fill="none" fill-rule="evenodd" stroke="#001026" stroke-width="1.2" stroke-linecap="round" stroke-linejoin="round"/><path d="M349.7213,197.89139c2.08011,0.28839 4.23179,0.78861 4.23472,1.4957c-0.09321,1.40047 -1.9635,3.96795 -3.56207,3.84729c-1.81041,-0.04908 -5.62729,-3.10217 -5.40758,-4.68699c0.06574,-1.20237 2.75388,-0.93063 4.73494,-0.65599z" fill="#001026" fill-rule="evenodd" stroke="#001026" stroke-width="1.2" stroke-linecap="round" stroke-linejoin="round"/><path d="M305.35361,190.22593c0,0 8.134,3.95448 11.17514,7.50575" fill="none" fill-rule="evenodd" stroke="#001026" stroke-width="1.2" stroke-linecap="round" stroke-linejoin="round"/><path d="M316.34527,201.23971c-4.49272,1.09339 -11.67155,-1.0124 -11.67155,-1.0124" fill="none" fill-rule="evenodd" stroke="#001026" stroke-width="1.2" stroke-linecap="round" stroke-linejoin="round"/><path d="M347.89538,211.80011c-0.36974,2.66687 11.38577,31.27097 5.20714,27.02338c-16.71982,-11.49428 -17.63547,-2.87713 -24.95011,-1.76963c-8.10108,1.22656 -4.67069,-27.56678 -4.52492,-28.61823c0.36974,-2.66687 4.90219,5.06788 11.60358,5.99694c6.7014,0.92907 13.03403,-5.29934 12.66429,-2.63247z" fill="#000000" fill-rule="nonzero" stroke="#001026" stroke-width="1.2" stroke-linecap="butt" stroke-linejoin="miter"/></g><path d="M338.21702,198.46023c-0.05287,0.08023 -0.10351,0.16211 -0.11744,0.2248c-0.00232,0.01041 -0.00467,0.02085 -0.00706,0.03124c-0.0145,-0.04993 -0.035,-0.10469 -0.06205,-0.16465c0.08708,-0.11258 0.17092,-0.23396 0.25168,-0.36188c-0.02194,0.09048 -0.04363,0.18063 -0.06515,0.27049zM337.45815,199.19724c-0.05658,0.05761 -0.1265,0.11702 -0.21051,0.17738c-0.03754,-0.03909 -0.08799,-0.06629 -0.14585,-0.07432l-0.04452,-0.00617c0.00243,-0.00062 0.00486,-0.00127 0.00728,-0.00193c0.09118,-0.02466 0.17977,-0.06063 0.26586,-0.10656c0.04277,0.00457 0.08549,0.00855 0.12772,0.01158zM336.4628,198.79311c0.08272,-0.11305 0.18424,-0.19263 0.31781,-0.21833c0.13042,-0.02508 0.24842,-0.03635 0.35236,-0.03559c-0.08355,0.07286 -0.16493,0.14279 -0.24267,0.206c-0.13906,0.00854 -0.28461,0.02354 -0.42352,0.04838c-0.00132,-0.00014 -0.00265,-0.00033 -0.00397,-0.00048zM332.26645,199.88485c-0.00532,0.00806 -0.01072,0.01621 -0.01621,0.02439l-0.11241,0.08505c0.01479,-0.04048 0.02998,-0.08018 0.04578,-0.11885c0.02744,0.00346 0.05509,0.00661 0.08285,0.0094zM335.91434,200.08875c0.02149,-0.03646 0.04172,-0.07457 0.0609,-0.11398l0.16857,-0.01007c0.08185,-0.00326 0.15573,-0.04669 0.1992,-0.11327c0.06214,-0.00246 0.12623,-0.01074 0.19064,-0.02308c-0.20798,0.11109 -0.41438,0.19574 -0.61934,0.2604zM330.72606,199.65324c0.00853,-0.07058 0.01631,-0.14042 0.02324,-0.20942c0.02634,0.02135 0.05268,0.04262 0.07902,0.06377c-0.03453,0.04717 -0.06862,0.09576 -0.10226,0.14564zM332.0692,200.58938c0.00176,0.00017 0.0035,0.00032 0.00525,0.00047c-0.0021,0.00085 -0.00421,0.00171 -0.0063,0.00257zM335.09086,200.2574c-0.25696,0.02866 -0.51183,0.03898 -0.7648,0.04441c0.11158,-0.07118 0.22437,-0.15407 0.33848,-0.24958c0.13005,0.04272 0.28624,0.1251 0.42634,0.20517zM331.58031,199.06071c0.07819,0.05202 0.15624,0.10349 0.23429,0.15397c-0.07674,-0.00237 -0.15245,-0.00285 -0.22647,-0.00165c-0.00013,-0.055 -0.00281,-0.10569 -0.00786,-0.15233zM331.38797,200.97669c0.02945,-0.07822 0.05759,-0.15953 0.08486,-0.24113l0.01666,0.08957c0.00373,0.02297 0.01063,0.04505 0.02029,0.0657c-0.04064,0.02727 -0.08125,0.05587 -0.12182,0.08583z" fill="#000000" fill-rule="nonzero" stroke="none" stroke-width="0.5" stroke-linecap="butt" stroke-linejoin="miter"/><path d="M361.4958,201.38993c0.01654,-0.02844 0.03325,-0.05691 0.05011,-0.08541c0.06768,-0.04999 0.1475,-0.10405 0.23594,-0.1614c-0.09502,0.08935 -0.19092,0.17231 -0.28605,0.2468zM358.3961,203.03673c0.14205,1.60663 -0.41416,4.03277 -0.86397,5.35597c-0.05264,0.15482 -0.2669,0.52003 -0.45601,0.89754c0.02163,-0.34096 0.04233,-0.68281 0.09009,-1.0272c0.19694,-1.56683 1.05258,-3.46161 1.22987,-5.2263zM355.70192,203.90152c-0.02231,-0.19226 -0.06423,-0.38016 -0.1325,-0.56195c-0.00164,-0.00438 0.19503,-0.11388 0.41659,-0.24125c-0.08669,0.27035 -0.18259,0.53902 -0.28411,0.80321zM357.80519,200.05577l-0.03975,-0.06678c-0.01599,-0.02739 -0.0371,-0.05163 -0.06223,-0.07126c0.01926,0.00193 0.03866,0.00377 0.0581,0.00552c0.03025,0.00675 0.0606,0.01375 0.091,0.02099c-0.01758,0.04065 -0.03374,0.07859 -0.04713,0.11152zM362.15822,200.34448c0.12717,-0.10768 0.24281,-0.25527 0.34335,-0.45148c0.23391,-0.05834 0.38236,-0.2443 0.49728,-0.48313c-0.06051,0.17619 -0.15529,0.36974 -0.27412,0.56796c-0.17165,0.12012 -0.36874,0.24486 -0.5665,0.36666zM366.12495,198.78565c0.00157,0.00203 0.00308,0.00401 0.00449,0.00592l0.14409,0.29809c0.03462,0.07438 0.10512,0.13022 0.19243,0.14233c0.00328,0.00045 0.00655,0.00083 0.00981,0.00116c-0.00604,0.12862 -0.01553,0.26324 -0.02841,0.40383c-0.03351,0.25342 -0.06873,0.50619 -0.1054,0.75844c-0.00629,-0.04493 -0.01252,-0.08915 -0.01866,-0.13259c-0.039,-0.17622 -0.09404,-0.78471 -0.19834,-1.47715zM361.94768,199.81407c-0.11967,0.09043 -0.26098,0.14042 -0.41778,0.16013c0.13838,-0.04914 0.27796,-0.10262 0.41778,-0.16013zM361.45227,199.58135c-0.31817,0.11309 -0.64293,0.19536 -0.96425,0.24078c-0.03627,-0.0111 -0.07267,-0.02256 -0.10914,-0.03431c0.38109,-0.0594 0.74545,-0.13066 1.07338,-0.20649zM363.36948,198.42255c-0.00004,0.00384 -0.00007,0.00766 -0.00011,0.01149c-0.00269,0.00247 -0.00536,0.00494 -0.00804,0.0074c0.00268,-0.00631 0.00541,-0.01261 0.00815,-0.01888zM365.85175,197.43097c-0.01432,-0.05155 -0.02907,-0.10222 -0.04427,-0.15185c0.1686,0.05956 0.30403,0.17067 0.4081,0.33215c-0.10827,-0.0736 -0.23091,-0.13356 -0.36384,-0.1803z" fill="#000000" fill-rule="nonzero" stroke="none" stroke-width="0.5" stroke-linecap="butt" stroke-linejoin="miter"/></g><path d="M345.49295,193.8528c-0.01044,3.30205 -4.13713,5.96588 -9.2172,5.94983c-5.08008,-0.01606 -9.7098,-12.81646 -9.7098,-12.81646c0,0 18.93745,3.56458 18.92701,6.86664z" fill="#ffffff" fill-rule="nonzero" stroke="#001026" stroke-width="1.2" stroke-linecap="butt" stroke-linejoin="miter"/><path d="M372.79463,188.84655c0,0 -4.71053,12.77089 -9.79062,12.75483c-5.08008,-0.01606 -9.18984,-2.70592 -9.17941,-6.00797c0.01044,-3.30205 18.97003,-6.74687 18.97003,-6.74687z" data-paper-data="{&quot;index&quot;:null}" fill="#ffffff" fill-rule="nonzero" stroke="#001026" stroke-width="1.2" stroke-linecap="butt" stroke-linejoin="miter"/></g><path d="M324.40333,184.1936c-0.01082,3.42415 -1.94476,6.19388 -4.31957,6.18638c-2.37481,-0.00751 -4.29121,-2.78942 -4.28038,-6.21356c0.01082,-3.42415 1.94476,-6.19388 4.31957,-6.18638c2.37481,0.00751 4.29121,2.78942 4.28038,6.21356z" fill="#000000" fill-rule="nonzero" stroke="#001026" stroke-width="1.2" stroke-linecap="butt" stroke-linejoin="miter"/><path d="M322.95433,177.87145c0.20966,-0.05171 0.28289,0.12234 0.29895,0.17073c0.10277,0.03129 0.17741,0.12701 0.17705,0.23998c-0.0001,0.0324 -0.00636,0.06334 -0.01767,0.09171c0.24263,0.22635 0.6775,0.08461 0.94953,0.40803c0.69516,0.8265 1.52043,2.43539 1.55523,3.59146c-0.03607,1.94547 -0.17381,3.88691 -1.21927,5.955c-1.40804,2.04576 -3.13608,4.75546 -5.94634,3.72252c-0.40537,-0.70323 -1.51913,-1.29312 -1.60305,-2.07008c-0.14235,-1.31782 1.06215,-0.59194 1.31471,0.12333l-0.04477,0.10473c1.38047,0.9019 3.25954,-0.39448 4.27537,-1.74004c0.94798,-1.41328 2.16239,-2.3978 2.21656,-4.2475c-0.02608,-0.02453 -0.04025,-0.04592 -0.04025,-0.04592c-0.85615,-1.34893 -1.18374,-3.11458 -2.07517,-4.59996l-0.12869,-0.11893c0,0 -0.17622,-0.17734 0.00112,-0.35356c0.00909,-0.00903 0.01817,-0.01712 0.02723,-0.02437l-0.18354,-0.04935c0.00324,-0.10939 0.00154,-0.25721 0.02062,-0.3902c-0.06156,-0.12181 0.02337,-0.24834 0.02337,-0.24834c0.06994,-0.0898 0.13989,-0.17959 0.20983,-0.26939c-0.0026,-0.0749 0.01828,-0.20772 0.18919,-0.24987z" fill="#cf0000" fill-rule="nonzero" stroke="none" stroke-width="0.5" stroke-linecap="butt" stroke-linejoin="miter"/><path d="M322.34887,186.50267c-1.90414,2.57587 -3.12269,4.90432 -9.86377,-0.07886c-6.74108,-4.98318 -4.70859,-23.87517 -4.70859,-23.87517c0,0 4.86301,9.56397 11.60409,14.54715c6.74108,4.98318 4.8724,6.83102 2.96826,9.40689z" fill="url(#color-6)" fill-rule="nonzero" stroke="#001026" stroke-width="1.2" stroke-linecap="butt" stroke-linejoin="miter"/></g></g></g></g></svg>