<svg version="1.1" xmlns="http://www.w3.org/2000/svg" xmlns:xlink="http://www.w3.org/1999/xlink" width="87.53065" height="107.90051" viewBox="0,0,87.53065,107.90051"><defs><linearGradient x1="268.43643" y1="188.19105" x2="258.85601" y2="204.13394" gradientUnits="userSpaceOnUse" id="color-1"><stop offset="0" stop-color="#ffffff"/><stop offset="1" stop-color="#9f9f9f"/></linearGradient></defs><g transform="translate(-199.20741,-132.82435)"><g data-paper-data="{&quot;isPaintingLayer&quot;:true}" stroke-miterlimit="10" stroke-dasharray="" stroke-dashoffset="0" style="mix-blend-mode: normal"><g fill-rule="evenodd"><path d="M227.98062,205.82734c0.6751,0.73773 3.47918,1.66892 0.21021,4.1995c-3.37824,2.44081 -12.15235,6.21374 -21.7798,-0.78142c-10.39233,-7.62361 -6.45669,-19.76489 -2.1166,-20.59175c4.24056,-0.8171 3.23075,6.31524 7.07606,13.77605c5.48017,10.81748 15.93503,2.65989 16.61012,3.39762z" fill="#717171" stroke="#001026" stroke-width="1.2" stroke-linecap="round" stroke-linejoin="round"/><path d="M207.58782,193.5561c0.92637,4.33034 2.21394,7.21863 2.21394,7.21863c0,0 -1.78727,-1.83456 -4.13687,-1.2026c-2.83747,0.7802 -3.49933,3.25648 -3.53064,3.96289c-0.86232,-1.6237 -1.6641,-3.65525 -1.81585,-7.25759c0.15656,-3.53206 1.99529,-7.32931 4.52238,-7.17482c2.02946,0.20321 2.08585,1.80534 2.74704,4.45351z" fill="#ffffff" stroke="none" stroke-width="1" stroke-linecap="butt" stroke-linejoin="miter"/></g><path d="M243.03886,190.47069c1.71475,1.41053 7.56821,7.43854 10.21251,6.76199c2.50298,-0.68199 6.28082,-6.90518 9.90324,-3.58133c3.55451,3.25047 -1.14724,7.73976 -6.12879,10.30766c-6.42737,3.36138 -16.04477,-2.31625 -17.59344,-9.87678c-0.46186,-2.70679 1.8238,-5.09546 3.6065,-3.61154z" data-paper-data="{&quot;index&quot;:null}" fill="#717171" fill-rule="evenodd" stroke="#001026" stroke-width="1.2" stroke-linecap="round" stroke-linejoin="round"/><path d="M248.3198,236.3753c0,3.86599 -11.83333,3 -11.83333,3c0,0 -10.5,0.86599 -10.5,-3c0,-3.45051 2.7452,-32.89294 7.69909,-34.5825c3.83539,-1.30808 4.43187,28.24917 5.13424,28.24917c6.53537,0 9.5,2.46734 9.5,6.33333z" fill="#717171" fill-rule="nonzero" stroke="#001026" stroke-width="1.2" stroke-linecap="butt" stroke-linejoin="miter"/><path d="M242.3198,237.04197c0,3.86599 -11.83333,3 -11.83333,3c0,0 -10.5,0.86599 -10.5,-3c0,-3.45051 2.7452,-32.89294 7.69909,-34.58249c3.83539,-1.30808 4.43187,28.24916 5.13424,28.24916c6.53537,0 9.5,2.46734 9.5,6.33333z" fill="#717171" fill-rule="nonzero" stroke="#001026" stroke-width="1.2" stroke-linecap="butt" stroke-linejoin="miter"/><g fill-rule="evenodd"><path d="M230.5445,215.94526c-9.18102,0.32314 -7.03108,-8.36026 -7.0279,-17.80165c-0.03324,-5.09988 1.75139,-11.38302 7.5986,-13.18586c3.22766,-1.17988 4.9712,4.8979 6.85795,3.76204c2.85396,-1.6598 4.61276,2.84647 5.01225,5.47334c0,0 0.53143,3.92015 0.2934,6.20998c-0.26364,2.87237 -0.70313,5.84002 -1.32956,7.20294c0,0 -1.51465,7.99109 -11.40474,8.33919z" fill="#717171" stroke="#001026" stroke-width="1.2" stroke-linecap="round" stroke-linejoin="round"/><path d="M241.22453,207.88822c0,0 -1.8905,-0.34064 -4.01182,-0.89742c-2.61593,-0.63003 -5.08895,-0.99627 -4.80703,-4.67466c0.43948,-2.96763 0.41001,-6.59104 5.74807,-6.18464c5.06694,0.32582 4.58714,3.429 4.58714,3.429c0.20908,5.00462 -1.51636,8.32773 -1.51636,8.32773z" fill="#ffffff" stroke="none" stroke-width="1" stroke-linecap="butt" stroke-linejoin="miter"/></g><path d="M227.61372,197.1996c-2.16267,1.07836 -6.32466,-0.5732 -7.41677,-0.33384c-0.29622,0.11071 -1.9083,5.372 -2.89626,8.5095c-1.34101,4.45104 -8.1833,3.39612 -8.74826,-1.18656c-0.45424,-4.28644 3.14514,-12.72116 4.39044,-14.26689c2.77244,-3.6019 12.72612,-1.1495 19.37176,0.36098" data-paper-data="{&quot;index&quot;:null}" fill="#717171" fill-rule="evenodd" stroke="#001026" stroke-width="1.2" stroke-linecap="round" stroke-linejoin="round"/><g fill-rule="nonzero" stroke="#001026" stroke-width="1.2" stroke-linejoin="miter"><g><g><path d="M264.26628,192.21845l5.56283,-9.25716l2.22858,1.3392l-5.56283,9.25716z" fill="#2c2c2c" stroke-linecap="butt"/><path d="M258.4463,202.22526l2.02899,1.28186l-8.41205,12.1917z" fill="#6c6c6c" stroke-linecap="butt"/><path d="M255.68457,202.22815l9.58042,-15.94288l6.34287,3.81157l-9.58042,15.94289z" fill="url(#color-1)" stroke-linecap="butt"/><path d="M266.9085,190.53954l-2.98271,-2.0257" fill="none" stroke-linecap="round"/><path d="M262.51739,191.63416l2.63984,1.81967" fill="none" stroke-linecap="round"/><path d="M263.30374,195.37336l-2.19397,-1.78507" fill="none" stroke-linecap="round"/><path d="M261.38106,198.18464l-1.88571,-1.13317" fill="none" stroke-linecap="round"/><path d="M259.86964,201.47639l-2.26239,-2.05952" fill="none" stroke-linecap="round"/></g><path d="M267.08545,182.47923l1.4422,-2.4l6.51431,3.91458l-1.44222,2.40001z" fill="#2c2c2c" stroke-linecap="butt"/></g><path d="M262.94399,194.80717c-1.50769,2.50896 -3.84279,3.8741 -5.21561,3.04914c-1.37282,-0.82495 -1.2635,-3.52764 0.24419,-6.03658c1.50769,-2.50896 3.8428,-3.8741 5.21563,-3.04915c1.37282,0.82495 1.2635,3.52764 -0.24419,6.03659z" fill="#717171" stroke-linecap="butt"/><path d="M272.20193,199.2038c-2.3042,3.83444 -6.12929,5.76677 -8.54357,4.31598c-2.41427,-1.45079 -2.50351,-5.73531 -0.19932,-9.56975c2.3042,-3.83444 6.12928,-5.76678 8.54356,-4.31599c2.41427,1.45079 2.50351,5.73532 0.19932,9.56976z" fill="#717171" stroke-linecap="butt"/></g><g><path d="M248.99906,133.27514c0.27089,-0.23795 0.77972,-0.20501 0.93179,0.17823l3.99344,10.26169c0,0 6.96581,3.8115 9.2859,6.83097c3.89986,5.02804 4.59462,9.4752 4.59462,9.4752c0,0 7.31549,1.14172 9.25943,6.63273c1.94393,5.49101 -0.9878,16.77838 -19.13262,22.93431c-18.14482,6.15593 -33.78702,3.09953 -42.33353,-7.26036c-8.5465,-10.35989 0.75477,-25.32272 0.26595,-24.45034l-4.45088,-17.46453c-0.15207,-0.38325 0.30383,-0.74679 0.72677,-0.6015l13.03923,6.22886c0,0 4.23538,-2.28069 8.86755,-3.10105c2.74889,-0.56886 5.15425,-0.68831 7.48696,-0.59627z" fill="#717171" fill-rule="evenodd" stroke="#001026" stroke-width="1.2" stroke-linecap="butt" stroke-linejoin="miter"/><path d="M260.81432,159.99112c0.53915,4.03726 -5.07024,8.11755 -12.52891,9.1136c-7.45866,0.99604 -13.94217,-1.46935 -14.48132,-5.50661c-0.53915,-4.03726 5.07024,-8.11755 12.52891,-9.1136c7.45866,-0.99604 13.94217,1.46935 14.48132,5.50661z" fill="#393939" fill-rule="nonzero" stroke="none" stroke-width="NaN" stroke-linecap="butt" stroke-linejoin="miter"/><path d="M267.56041,160.45743c0,0 7.07755,0.87084 9.02147,6.36184c1.94393,5.49101 -1.45046,16.33573 -19.41028,22.36606c-23.32523,8.15927 -36.63011,-4.59182 -31.39215,-15.9854c5.22473,-11.49271 17.82807,-3.99498 26.07474,-5.70158c7.07046,-1.44864 7.02952,-7.79909 15.70622,-7.04092z" fill="#ffffff" fill-rule="evenodd" stroke="none" stroke-width="1" stroke-linecap="butt" stroke-linejoin="miter"/><path d="M285.94411,159.11221c-4.15565,4.38869 -11.27906,5.44084 -11.27906,5.44084" fill="none" fill-rule="evenodd" stroke="#001026" stroke-width="1.2" stroke-linecap="round" stroke-linejoin="round"/><path d="M286.13805,170.38573c-6.17838,1.32951 -10.29556,-0.03755 -10.29556,-0.03755" fill="none" fill-rule="evenodd" stroke="#001026" stroke-width="1.2" stroke-linecap="round" stroke-linejoin="round"/><path d="M251.11356,164.97418c2.08152,-0.27797 4.28864,-0.37093 4.48042,0.30967c0.28443,1.37445 -0.83174,4.34835 -2.40443,4.65927c-1.75769,0.4365 -6.25165,-1.48557 -6.46344,-3.07149c-0.25796,-1.1762 2.40504,-1.63271 4.38745,-1.89744z" fill="#001026" fill-rule="evenodd" stroke="#001026" stroke-width="1.2" stroke-linecap="round" stroke-linejoin="round"/><path d="M206.31096,169.44385c0,0 8.89495,1.63701 12.77449,4.24645" fill="none" fill-rule="evenodd" stroke="#001026" stroke-width="1.2" stroke-linecap="round" stroke-linejoin="round"/><path d="M219.8461,177.1198c-4.03714,2.25421 -11.51763,2.1434 -11.51763,2.1434" fill="none" fill-rule="evenodd" stroke="#001026" stroke-width="1.2" stroke-linecap="round" stroke-linejoin="round"/><path d="M261.26105,151.8152c3.47014,4.07654 4.24432,9.11843 1.70721,11.27322c-2.53711,2.15478 -7.3746,0.68214 -10.94385,-3.38115c-3.47014,-4.07654 -4.24432,-9.11843 -1.70721,-11.27322c2.52387,-2.25391 7.47372,-0.69539 10.94385,3.38115z" fill="#ffffff" fill-rule="evenodd" stroke="#001026" stroke-width="1.2" stroke-linecap="round" stroke-linejoin="round"/><path d="M237.04988,157.87325c3.55601,3.96418 4.07255,9.34314 1.64781,11.58381c-3.01947,2.32009 -7.56607,1.51482 -11.12208,-2.44937c-3.65514,-3.95095 -4.29388,-9.11181 -1.51236,-11.70279c2.76828,-2.6901 7.43062,-1.39584 10.98664,2.56834z" fill="#ffffff" fill-rule="evenodd" stroke="#001026" stroke-width="1.2" stroke-linecap="round" stroke-linejoin="round"/><path d="M252.49147,176.99238c0.35638,2.6687 -12.23438,18.25976 -15.95501,18.3988c-6.30073,0.23546 -7.97303,-12.48713 -8.32941,-15.15582c-0.35638,-2.6687 7.61759,2.3877 14.32355,1.49217c6.70596,-0.89552 9.60449,-7.40385 9.96087,-4.73515z" fill="#000000" fill-rule="nonzero" stroke="#001026" stroke-width="1.2" stroke-linecap="butt" stroke-linejoin="miter"/></g></g></g></svg>