<svg version="1.1" xmlns="http://www.w3.org/2000/svg" xmlns:xlink="http://www.w3.org/1999/xlink" width="75.12417" height="66.48691" viewBox="0,0,75.12417,66.48691"><g transform="translate(-202.22438,-146.75654)"><g data-paper-data="{&quot;isPaintingLayer&quot;:true}" fill-rule="nonzero" stroke-linejoin="miter" stroke-miterlimit="10" stroke-dasharray="" stroke-dashoffset="0" style="mix-blend-mode: normal"><path d="M275.20028,184.59087l-12.8712,14.70994l8.64209,7.35497l-28.86826,5.33235c0,0 -17.51446,-0.81242 -23.23338,-2.33694c-5.71892,-1.52452 -9.616,-3.82612 -12.35081,-7.1489c-2.73481,-3.32278 -3.68253,-6.96886 -2.61726,-10.69732c1.06527,-3.72846 6.20732,-5.927 6.20732,-5.927l2.57424,-11.58408l2.39037,-25.0069l17.88743,15.47986l8.77434,0.33333l17.65193,-12.1357l1.47099,26.4779z" fill="#7aa2c4" stroke="#001026" stroke-width="2.5" stroke-linecap="round"/><path d="M225.10034,195.31363l-2.16142,-3.94141l8.00996,0.76285z" fill="#001026" stroke="none" stroke-width="0" stroke-linecap="butt"/><path d="M239.84627,184.71088l3.02394,3.07308c0,0 -1.26649,6.59321 -3.65929,6.67344c-2.47643,0.08304 -4.48649,-4.36366 -4.48649,-9.74652c0,-5.38285 2.00982,-9.67121 4.48649,-9.74652c2.63873,-0.08023 3.69246,6.98998 3.69246,6.98998z" fill="#001026" stroke="none" stroke-width="0" stroke-linecap="butt"/><path d="M220.52898,182.1873l3.02394,3.07308c0,0 -1.26649,6.59321 -3.65929,6.67344c-2.47643,0.08304 -4.48649,-4.36366 -4.48649,-9.74652c0,-5.38285 2.00982,-9.67121 4.48649,-9.74652c2.63873,-0.08023 3.69246,6.98998 3.69246,6.98998z" fill="#001026" stroke="none" stroke-width="0" stroke-linecap="butt"/></g></g></svg>