<svg version="1.1" xmlns="http://www.w3.org/2000/svg" xmlns:xlink="http://www.w3.org/1999/xlink" width="88.2114" height="65.13548" viewBox="0,0,88.2114,65.13548"><g transform="translate(-193.62473,-145.28593)"><g data-paper-data="{&quot;isPaintingLayer&quot;:true}" fill-rule="evenodd" stroke="#001026" stroke-miterlimit="10" stroke-dasharray="" stroke-dashoffset="0" style="mix-blend-mode: normal"><path d="M253.49315,153.3564c0.33819,-0.12502 0.80139,0.08815 0.80595,0.50044l0.04906,11.01125c0,0 5.1363,6.05545 6.21965,9.70597c1.83802,6.09194 0.89224,10.49256 0.89224,10.49256c0,0 6.41988,3.68851 6.26601,9.51142c-0.15387,5.82291 -6.93736,15.30892 -26.08298,14.55053c-19.14562,-0.75839 -32.65227,-9.2195 -36.91652,-21.95473c-4.26425,-12.73523 9.78305,-23.36882 9.01396,-22.72968l2.1062,-17.89927c-0.00456,-0.41229 0.55136,-0.58822 0.89411,-0.30095l9.93934,10.48949c0,0 4.77149,-0.61065 9.38985,0.2842c2.7701,0.45445 5.05838,1.2053 7.20303,2.12752z" fill="#7a5c5c" stroke-width="2.5" stroke-linecap="butt" stroke-linejoin="miter"/><path d="M227.95324,188.49346c0.09272,-0.38911 0.55136,-0.58822 0.91729,-0.39823c1.686,1.12133 6.56808,3.92942 12.31196,5.70925c5.1834,1.54349 8.36579,1.99338 9.89448,2.04923c0.50956,0.01862 0.78277,0.59772 0.47233,1.03774c-1.50132,2.41786 -6.93624,8.83281 -17.01122,5.81537c-8.62038,-3.08204 -8.01243,-9.51635 -6.58484,-14.21337z" fill="#001026" stroke-width="1.2" stroke-linecap="round" stroke-linejoin="round"/><path d="M280.58613,191.00833c-5.4528,2.60711 -12.47989,1.03551 -12.47989,1.03551" fill="none" stroke-width="2.5" stroke-linecap="round" stroke-linejoin="round"/><path d="M276.72551,201.60199c-6.24432,-0.97388 -9.59771,-3.72611 -9.59771,-3.72611" fill="none" stroke-width="2.5" stroke-linecap="round" stroke-linejoin="round"/><path d="M244.10265,183.70633c2.04281,0.48676 4.13654,1.19124 4.07156,1.89536c-0.22723,1.38505 -2.33538,3.76111 -3.91499,3.48753c-1.79734,-0.22267 -5.30348,-3.62809 -4.93262,-5.18452c0.18087,-1.1905 2.83052,-0.66195 4.77605,-0.19837z" fill="#001026" stroke-width="1.2" stroke-linecap="round" stroke-linejoin="round"/><path d="M196.65528,168.51409c0,0 7.71678,4.71713 10.40292,8.54396" fill="none" stroke-width="2.5" stroke-linecap="round" stroke-linejoin="round"/><path d="M206.39517,180.53227c-4.57694,0.65701 -11.52044,-2.12826 -11.52044,-2.12826" fill="none" stroke-width="2.5" stroke-linecap="round" stroke-linejoin="round"/><path d="M258.29321,175.06007c1.77797,5.04963 0.69313,10.03392 -2.44783,11.13589c-3.14096,1.10197 -7.12893,-2.00706 -9.00418,-7.07988c-1.77797,-5.04963 -0.69313,-10.03392 2.44783,-11.13589c3.16414,-1.19925 7.22621,2.03024 9.00418,7.07988z" fill="#001026" stroke-width="1.2" stroke-linecap="round" stroke-linejoin="round"/><path d="M233.5196,172.03547c1.89843,4.97554 0.45222,10.18212 -2.61465,11.40454c-3.65053,1.08335 -7.60619,-1.29839 -9.50462,-6.27392c-1.99571,-4.99872 -0.86907,-10.58984 2.65644,-12.01138c3.54869,-1.51882 7.5644,1.90523 9.46283,6.88076z" fill="#001026" stroke-width="1.2" stroke-linecap="round" stroke-linejoin="round"/></g></g></svg>