<svg version="1.1" xmlns="http://www.w3.org/2000/svg" xmlns:xlink="http://www.w3.org/1999/xlink" width="94.00011" height="104.81079" viewBox="0,0,94.00011,104.81079"><g transform="translate(-196.92554,-135.91408)"><g data-paper-data="{&quot;isPaintingLayer&quot;:true}" stroke-miterlimit="10" stroke-dasharray="" stroke-dashoffset="0" style="mix-blend-mode: normal"><path d="M245.46977,192.7c4,6.6 0.8,17.3 -6.2,19.2c-5.4,1.5 -11.9,1.4 -11.5,-3.4c0.4,-4.9 7.4,-2.9 9.7,-4.1c2.4,-1.3 2.6,-9.7 2.9,-11.9c0.3,-2.3 3.6,-2.1 5.1,0.2z" data-paper-data="{&quot;index&quot;:null}" fill="#878787" fill-rule="evenodd" stroke="#001026" stroke-width="1.2" stroke-linecap="round" stroke-linejoin="round"/><g fill-rule="evenodd"><path d="M224.78334,201.3c0.6,0.8 3.3,2 -0.2,4.2c-3.6,2.1 -12.7,5 -21.6,-2.9c-9.6,-8.6 -4.5,-20.3 -0.1,-20.7c4.3,-0.4 2.6,6.6 5.7,14.4c4.4,11.3 15.6,4.2 16.2,5z" fill="#878787" stroke="#001026" stroke-width="1.2" stroke-linecap="round" stroke-linejoin="round"/><path d="M205.68334,187.1c0.5,4.4 1.5,7.4 1.5,7.4c0,0 -1.6,-2 -4,-1.6c-2.9,0.5 -3.8,2.9 -3.9,3.6c-0.7,-1.7 -1.3,-3.8 -1.1,-7.4c0.5,-3.5 2.7,-7.1 5.2,-6.7c2,0.4 1.9,2 2.3,4.7z" fill="#ffffff" stroke="none" stroke-width="1" stroke-linecap="butt" stroke-linejoin="miter"/></g><path d="M226.4449,192.91737c-0.53175,2.35738 -4.44264,4.53794 -4.94762,5.53543c-0.10149,0.2995 2.95576,4.87478 4.76209,7.62381c2.60084,3.853 -2.54229,8.48745 -6.4501,6.02796c-3.6083,-2.35799 -7.86791,-10.47931 -8.27824,-12.42138c-1.03797,-4.42523 7.15496,-10.58688 12.52673,-14.78095" fill="#878787" fill-rule="evenodd" stroke="#001026" stroke-width="1.2" stroke-linecap="round" stroke-linejoin="round"/><path d="M248.3198,236.3753c0,3.86599 -11.83333,3 -11.83333,3c0,0 -10.5,0.86599 -10.5,-3c0,-3.45051 2.7452,-32.89294 7.69909,-34.5825c3.83539,-1.30808 4.43187,28.24917 5.13424,28.24917c6.53537,0 9.5,2.46734 9.5,6.33333z" fill="#878787" fill-rule="nonzero" stroke="#001026" stroke-width="1.2" stroke-linecap="butt" stroke-linejoin="miter"/><path d="M242.3198,237.04197c0,3.86599 -11.83333,3 -11.83333,3c0,0 -10.5,0.86599 -10.5,-3c0,-3.45051 2.7452,-32.89294 7.69909,-34.58249c3.83539,-1.30808 4.43187,28.24916 5.13424,28.24916c6.53537,0 9.5,2.46734 9.5,6.33333z" fill="#878787" fill-rule="nonzero" stroke="#001026" stroke-width="1.2" stroke-linecap="butt" stroke-linejoin="miter"/><g fill-rule="evenodd"><path d="M228.46746,211.92774c-9.18562,-0.14169 -6.59918,-8.70522 -6.1184,-18.13437c0.22478,-5.09504 2.32496,-11.27985 8.25588,-12.7846c3.28322,-1.01509 4.71707,5.1431 6.65887,4.10414c2.93427,-1.51331 4.46287,3.07617 4.72896,5.71988c0,0 0.33245,3.94201 -0.02111,6.21687c-0.40861,2.85536 -0.99765,5.79696 -1.69222,7.12646c0,0 -1.91695,7.90424 -11.81198,7.75161z" fill="#878787" stroke="#001026" stroke-width="1.2" stroke-linecap="round" stroke-linejoin="round"/><path d="M239.54139,204.42127c0,0 -1.87085,-0.43583 -3.96129,-1.09921c-2.58071,-0.76155 -5.03204,-1.25242 -4.5644,-4.91184c0.58904,-2.9416 0.7429,-6.56186 6.05356,-5.88595c5.04397,0.58172 4.40781,3.65665 4.40781,3.65665c-0.04435,5.00879 -1.93568,8.24035 -1.93568,8.24035z" fill="#ffffff" stroke="none" stroke-width="1" stroke-linecap="butt" stroke-linejoin="miter"/></g><path d="M220.06371,195.99621l2.11464,-8.76682l4.89755,0.85834l-2.11464,8.76682z" fill="#878787" fill-rule="nonzero" stroke="#001026" stroke-width="0" stroke-linecap="butt" stroke-linejoin="miter"/><g><g fill-rule="evenodd"><path d="M258.20082,136.42453c0.30674,-0.1895 0.80298,-0.07226 0.88908,0.33096l2.22822,10.78355c0,0 6.23355,4.91863 8.01823,8.28239c3.00778,5.60743 2.95202,10.10819 2.95202,10.10819c0,0 7.02309,2.3444 8.02515,8.08251c1.00206,5.73811 -3.76899,16.3794 -22.68575,19.4267c-18.91676,3.0473 -33.83126,-2.57211 -40.53257,-14.21095c-6.70131,-11.63884 4.96255,-24.84317 4.33523,-24.06441l-1.4794,-17.96194c-0.0861,-0.40322 0.42398,-0.68574 0.81682,-0.47202l11.81941,8.31393c0,0 4.55613,-1.54328 9.26023,-1.58054c2.80524,-0.103 5.19689,0.17992 7.48167,0.65926z" fill="#878787" stroke="#001026" stroke-width="1.2" stroke-linecap="butt" stroke-linejoin="miter"/><path d="M271.97472,166.31901c0,0 6.83359,2.03766 7.83565,7.77577c1.00206,5.73811 -4.15145,15.86586 -22.86487,18.82014c-24.35851,4.15968 -35.35338,-10.6296 -28.29063,-20.99143c7.06621,-10.46177 18.24446,-0.96932 26.66019,-1.27832c7.21299,-0.25058 8.23049,-6.51913 16.65966,-4.32616z" fill="#ffffff" stroke="none" stroke-width="1" stroke-linecap="butt" stroke-linejoin="miter"/><path d="M290.32564,168.055c-4.82867,3.6351 -12.02782,3.48592 -12.02782,3.48592" fill="none" stroke="#001026" stroke-width="1.2" stroke-linecap="round" stroke-linejoin="round"/><path d="M288.6389,179.20331c-6.31353,0.28172 -10.14545,-1.75208 -10.14545,-1.75208" fill="none" stroke="#001026" stroke-width="1.2" stroke-linecap="round" stroke-linejoin="round"/><path d="M255.00526,168.03289c2.09874,0.07266 4.29051,0.34866 4.36623,1.0517c0.0515,1.40262 -1.54448,4.14904 -3.14698,4.19362c-1.80584,0.1376 -5.91683,-2.50622 -5.86147,-4.10527c-0.05842,-1.20274 2.64342,-1.20926 4.64223,-1.14006z" fill="#001026" stroke="#001026" stroke-width="1.2" stroke-linecap="round" stroke-linejoin="round"/><path d="M210.08411,164.97678c0,0 8.49797,3.09589 11.88861,6.31513" fill="none" stroke="#001026" stroke-width="1.2" stroke-linecap="round" stroke-linejoin="round"/><path d="M222.15144,174.80019c-4.35625,1.5502 -11.71375,0.19482 -11.71375,0.19482" fill="none" stroke="#001026" stroke-width="1.2" stroke-linecap="round" stroke-linejoin="round"/><g><path d="M267.20302,156.74818c2.74256,4.59765 2.66604,9.69805 -0.19456,11.40009c-2.8606,1.70204 -7.38519,-0.55586 -10.22769,-5.15697c-2.74256,-4.59765 -2.66604,-9.69805 0.19456,-11.40009c2.86406,-1.80198 7.48513,0.55932 10.22769,5.15697z" fill="#ffffff" stroke="#001026" stroke-width="1.2" stroke-linecap="round" stroke-linejoin="round"/><path d="M268.80279,164.00788c-0.03806,1.09934 -0.86872,1.97112 -1.86812,1.93652c-0.9994,-0.0346 -1.76778,-0.96174 -1.72972,-2.06108c0.03806,-1.09934 0.86872,-1.97112 1.86812,-1.93652c0.9994,0.0346 1.76778,0.96174 1.72972,2.06108" fill="#001026" stroke="none" stroke-width="1" stroke-linecap="butt" stroke-linejoin="miter"/></g><g><path d="M242.32099,158.68842c2.84596,4.50117 2.45924,9.89101 -0.30488,11.69645c-3.36376,1.78468 -7.71269,0.23328 -10.55865,-4.26789c-2.9459,-4.50463 -0.52026,-0.86852 2.654,-2.95994c3.17772,-2.19136 5.36357,-8.96979 8.20953,-4.46862z" fill="#ffffff" stroke="#001026" stroke-width="1.2" stroke-linecap="round" stroke-linejoin="round"/><path d="M243.73472,165.54144c-0.03806,1.09934 -0.86872,1.97112 -1.86812,1.93652c-0.9994,-0.0346 -1.76778,-0.96174 -1.72972,-2.06108c0.03806,-1.09934 0.86872,-1.97112 1.86812,-1.93652c0.99594,0.13454 1.76778,0.96174 1.72972,2.06108" fill="#001026" stroke="none" stroke-width="1" stroke-linecap="butt" stroke-linejoin="miter"/></g></g><path d="M259.72553,183.75593c0,0 -22.96165,0.82484 -25.51833,-7.13721" fill="none" fill-rule="nonzero" stroke="#001026" stroke-width="1.2" stroke-linecap="round" stroke-linejoin="miter"/></g></g></g></svg>