<svg version="1.1" xmlns="http://www.w3.org/2000/svg" xmlns:xlink="http://www.w3.org/1999/xlink" width="87.11598" height="102.26045" viewBox="0,0,87.11598,102.26045"><defs><linearGradient x1="254.98332" y1="203.61519" x2="252.63883" y2="222.06684" gradientUnits="userSpaceOnUse" id="color-1"><stop offset="0" stop-color="#ffffff"/><stop offset="1" stop-color="#9f9f9f"/></linearGradient><radialGradient cx="255.49167" cy="164.0388" r="8.13758" gradientUnits="userSpaceOnUse" id="color-2"><stop offset="0" stop-color="#ffffff"/><stop offset="1" stop-color="#1a1a1a"/></radialGradient><radialGradient cx="235.11318" cy="172.61651" r="6.75889" gradientUnits="userSpaceOnUse" id="color-3"><stop offset="0" stop-color="#ffffff"/><stop offset="1" stop-color="#1a1a1a"/></radialGradient></defs><g transform="translate(-198.64703,-138.46441)"><g data-paper-data="{&quot;isPaintingLayer&quot;:true}" stroke-miterlimit="10" stroke-dasharray="" stroke-dashoffset="0" style="mix-blend-mode: normal"><path d="M239.8848,198.18521c0.76957,2.08272 2.78496,10.23982 5.40963,10.9889c2.50537,0.67312 8.90571,-2.79614 10.35794,1.90076c1.43059,4.59929 -4.89333,6.10535 -10.49006,5.81108c-7.24539,-0.33808 -12.68787,-10.09048 -10.21302,-17.40041c0.96598,-2.57038 4.14425,-3.48068 4.9355,-1.30032z" data-paper-data="{&quot;index&quot;:null}" fill="#717171" fill-rule="evenodd" stroke="#001026" stroke-width="1.2" stroke-linecap="round" stroke-linejoin="round"/><g fill-rule="nonzero" stroke="#001026" stroke-width="1.2" stroke-linejoin="miter"><g><g><path d="M252.78941,208.98145l1.36132,-10.71387l2.57926,0.32772l-1.36132,10.71387z" fill="#2c2c2c" stroke-linecap="butt"/><path d="M251.4948,220.48505l2.3735,0.35567l-2.78661,14.54767z" fill="#6c6c6c" stroke-linecap="butt"/><path d="M248.96834,221.60046l2.34449,-18.45164l7.34097,0.93275l-2.34449,18.45165z" fill="url(#color-1)" stroke-linecap="butt"/><path d="M254.53119,206.38025l-3.54609,-0.65217" fill="none" stroke-linecap="round"/><path d="M254.10261,209.75314l-3.14926,-0.60176" fill="none" stroke-linecap="round"/><path d="M253.17966,212.25677l-2.72724,-0.74974" fill="none" stroke-linecap="round"/><path d="M250.37025,215.32713l2.18245,0.27731" fill="none" stroke-linecap="round"/><path d="M252.49575,219.22614l-2.90044,-0.97335" fill="none" stroke-linecap="round"/></g><path d="M251.44541,198.9319l0.35293,-2.77767l7.53939,0.95796l-0.35294,2.77768z" fill="#2c2c2c" stroke-linecap="butt"/></g><path d="M252.62229,211.88352c-0.36896,2.90377 -1.95607,5.09407 -3.54491,4.89219c-1.58885,-0.20187 -2.57778,-2.71951 -2.20882,-5.62325c0.36896,-2.90377 1.95608,-5.09407 3.54492,-4.89219c1.58885,0.20187 2.57778,2.71951 2.20881,5.62327z" fill="#717171" stroke-linecap="butt"/><path d="M262.86697,212.1772c-0.56388,4.43782 -3.28614,7.74759 -6.08033,7.39256c-2.79419,-0.35503 -4.60221,-4.24041 -4.03834,-8.67824c0.56388,-4.43782 3.28613,-7.74759 6.08032,-7.39256c2.79419,0.35503 4.60221,4.24041 4.03835,8.67824z" fill="#717171" stroke-linecap="butt"/></g><g fill-rule="evenodd"><path d="M228.45892,209.55612c0.76872,0.63957 3.67304,1.18273 0.7766,4.13242c-3.01684,2.87553 -11.19965,7.80115 -21.68518,2.17323c-11.32843,-6.14708 -9.07208,-18.70928 -4.88382,-20.11588c4.09097,-1.38346 4.05566,5.81993 8.87528,12.69171c6.89369,9.97634 16.1484,0.47893 16.91711,1.11851z" fill="#717171" stroke="#001026" stroke-width="1.2" stroke-linecap="round" stroke-linejoin="round"/><path d="M206.59305,200.15752c1.50387,4.16514 3.17046,6.85261 3.17046,6.85261c0,0 -2.0191,-1.57581 -4.26156,-0.63169c-2.70579,1.15702 -3.02644,3.70009 -2.96187,4.40425c-1.07413,-1.49207 -2.14346,-3.39642 -2.78132,-6.94509c-0.32287,-3.52076 0.98506,-7.5319 3.50981,-7.72083c2.03829,-0.07331 2.31097,1.50645 3.32447,4.04078z" fill="#ffffff" stroke="none" stroke-width="1" stroke-linecap="butt" stroke-linejoin="miter"/></g><path d="M248.3198,236.3753c0,3.86599 -11.83333,3 -11.83333,3c0,0 -10.5,0.86599 -10.5,-3c0,-3.45051 2.7452,-32.89294 7.69909,-34.5825c3.83539,-1.30808 4.43187,28.24917 5.13424,28.24917c6.53537,0 9.5,2.46734 9.5,6.33333z" fill="#717171" fill-rule="nonzero" stroke="#001026" stroke-width="1.2" stroke-linecap="butt" stroke-linejoin="miter"/><path d="M242.3198,237.04197c0,3.86599 -11.83333,3 -11.83333,3c0,0 -10.5,0.86599 -10.5,-3c0,-3.45051 2.7452,-32.89294 7.69909,-34.58249c3.83539,-1.30808 4.43187,28.24916 5.13424,28.24916c6.53537,0 9.5,2.46734 9.5,6.33333z" fill="#717171" fill-rule="nonzero" stroke="#001026" stroke-width="1.2" stroke-linecap="butt" stroke-linejoin="miter"/><g fill-rule="evenodd"><path d="M230.4734,217.08111c-8.99395,1.87204 -8.34436,-7.04994 -9.93883,-16.35572c-0.89573,-5.02071 -0.20002,-11.51523 5.2578,-14.2815c2.98147,-1.70903 5.7283,3.98607 7.39565,2.54733c2.53194,-2.11879 5.02791,2.02488 5.86613,4.54627c0,0 1.18711,3.77369 1.33998,6.07078c0.2262,2.87556 0.29522,5.87478 -0.09155,7.32405c0,0 -0.14061,8.13215 -9.82917,10.14877z" fill="#717171" stroke="#001026" stroke-width="1.2" stroke-linecap="round" stroke-linejoin="round"/><path d="M239.63606,207.33305c0,0 -1.92087,-0.01583 -4.10582,-0.20562c-2.68482,-0.17829 -5.18415,-0.12078 -5.52872,-3.79383c-0.06902,-2.9992 -0.7112,-6.56538 4.61865,-7.06811c5.049,-0.53628 5.10123,2.60335 5.10123,2.60335c1.05291,4.89707 -0.08533,8.46423 -0.08533,8.46423z" fill="#ffffff" stroke="none" stroke-width="1" stroke-linecap="butt" stroke-linejoin="miter"/></g><g><g><path d="M243.86011,138.86471c0.24055,-0.26859 0.74968,-0.29662 0.9464,0.06574l5.18969,9.7117c0,0 7.37094,2.95284 10.03484,5.67381c4.47211,4.52661 5.69271,8.85906 5.69271,8.85906c0,0 7.39948,0.26041 9.98489,5.48014c2.58541,5.21974 1.02188,16.77634 -16.25848,25.05397c-17.28036,8.27763 -33.17554,7.11008 -42.89748,-2.15567c-9.72193,-9.26575 -2.27306,-25.23179 -2.65428,-24.30731l-6.50357,-16.80844c-0.19672,-0.36235 0.21252,-0.77772 0.64979,-0.68394l13.68947,4.62801c0,0 3.93288,-2.7699 8.43403,-4.13728c2.66134,-0.8929 5.03525,-1.29858 7.36226,-1.48562z" fill="#717171" fill-rule="evenodd" stroke="#001026" stroke-width="1.2" stroke-linecap="butt" stroke-linejoin="miter"/><path d="M258.77964,163.97947c1.01717,3.94405 -4.06512,8.66469 -11.35158,10.54385c-7.28646,1.87916 -14.01788,0.20524 -15.03504,-3.73881c-1.01717,-3.94405 4.06512,-8.66469 11.35158,-10.54385c7.28646,-1.87916 14.01788,-0.20524 15.03504,3.73881z" fill="#000000" fill-rule="nonzero" stroke="none" stroke-width="NaN" stroke-linecap="butt" stroke-linejoin="miter"/><path d="M265.53316,163.63725c0,0 7.13089,0.01986 9.7163,5.23959c2.58541,5.21974 0.50968,16.39208 -16.60199,24.52293c-22.18462,10.88496 -36.91632,-0.18694 -33.0757,-12.12427c3.81565,-12.03415 17.2238,-6.09432 25.20782,-8.77302c6.84702,-2.28219 6.0484,-8.58236 14.75356,-8.86524z" fill="#ffffff" fill-rule="evenodd" stroke="none" stroke-width="1" stroke-linecap="butt" stroke-linejoin="miter"/><path d="M283.62488,160.10744c-3.60213,4.85331 -10.54904,6.74818 -10.54904,6.74818" fill="none" fill-rule="evenodd" stroke="#001026" stroke-width="1.2" stroke-linecap="round" stroke-linejoin="round"/><path d="M285.16301,171.27722c-5.97553,2.05743 -10.22644,1.19156 -10.22644,1.19156" fill="none" fill-rule="evenodd" stroke="#001026" stroke-width="1.2" stroke-linecap="round" stroke-linejoin="round"/><path d="M249.74297,170.08476c2.03346,-0.52442 4.21371,-0.88016 4.48534,-0.22731c0.44645,1.33066 -0.30679,4.41654 -1.83112,4.91294c-1.69302,0.64317 -6.38427,-0.72876 -6.78383,-2.27808c-0.3965,-1.13701 2.19298,-1.9081 4.1296,-2.40756z" fill="#001026" fill-rule="evenodd" stroke="#001026" stroke-width="1.2" stroke-linecap="round" stroke-linejoin="round"/><path d="M205.79415,179.86998c0,0 9.02675,0.56364 13.19002,2.69138" fill="none" fill-rule="evenodd" stroke="#001026" stroke-width="1.2" stroke-linecap="round" stroke-linejoin="round"/><path d="M220.14871,185.87554c-3.73923,2.71997 -11.17946,3.50279 -11.17946,3.50279" fill="none" fill-rule="evenodd" stroke="#001026" stroke-width="1.2" stroke-linecap="round" stroke-linejoin="round"/><path d="M260.6934,159.49665c3.93188,3.63322 2.85624,4.8587 0.59446,7.30089c-2.26178,2.4422 -7.24046,1.55748 -11.26918,-2.05076c-2.03937,-1.87362 -5.592,-5.7232 -4.11766,-5.55255c16.76339,1.94031 13.43239,-0.74078 14.21387,-0.14056c0.19279,0.14808 0.39905,0.27714 0.57851,0.44297z" fill="url(#color-2)" fill-rule="evenodd" stroke="#001026" stroke-width="1.2" stroke-linecap="round" stroke-linejoin="round"/><path d="M234.9323,164.71318c4.00375,3.51142 5.1586,8.79027 3.01863,11.30433c-2.72097,2.6639 -7.33117,2.40705 -11.33492,-1.10436c8.38884,-2.72086 4.31254,-13.71138 8.31629,-10.19998z" fill="url(#color-3)" fill-rule="evenodd" stroke="#001026" stroke-width="1.2" stroke-linecap="round" stroke-linejoin="round"/><path d="M252.99018,184.57788c0.67236,2.60709 -9.62918,17.97028 -16.18032,19.6598c-6.55114,1.68952 -6.87107,-10.93442 -7.54343,-13.5415c-0.67236,-2.60709 2.25735,-0.1949 8.80849,-1.88442c6.55114,-1.68952 14.24289,-6.84096 14.91526,-4.23388z" fill="#000000" fill-rule="nonzero" stroke="#001026" stroke-width="1.2" stroke-linecap="butt" stroke-linejoin="miter"/></g><path d="M234.8917,177.28071c0.02325,0.01926 0.04626,0.04241 0.06893,0.06973c0.12429,-0.05902 0.25053,-0.13032 0.37908,-0.21554c0.11395,-0.03017 0.2289,-0.0598 0.34423,-0.08964c0.39253,-0.26646 0.76003,-0.53466 0.95771,-0.64148c0.22199,-0.16318 0.48285,-0.25511 0.74021,-0.32673c0.00417,-0.36569 0.10449,-0.7017 0.5377,-0.92501c0.24456,-0.12606 0.47676,-0.1837 0.68218,-0.18484c0.06808,-0.12858 0.13787,-0.2518 0.20959,-0.36093c0.17053,-1.11389 0.05317,-2.65318 0.09675,-3.22255l-0.06567,-0.25464c-0.03448,-0.13369 0.04595,-0.27003 0.17965,-0.3045c0.13369,-0.03448 0.27003,0.04595 0.3045,0.17965l0.07332,0.28432l-0.06119,0.01578c0.0036,0.00649 0.00718,0.013 0.01075,0.01953l0.05733,0.00428c-0.00183,0.0306 -0.00342,0.06229 -0.00476,0.09501c0.87156,1.69904 0.95026,4.54165 0.92856,6.72506c0.43511,2.02815 0.83242,4.78855 0.33265,6.5258l0.05325,0.00418l-0.02308,0.29463c-0.0058,0.10589 -0.0791,0.20045 -0.18726,0.22834c-0.13369,0.03448 -0.27003,-0.04595 -0.3045,-0.17965c-0.0002,-0.0008 -0.00041,-0.00158 -0.0006,-0.00239l-0.12069,-0.48485l0.00824,-0.00206l-0.01327,-0.02386c-0.056,-1.58556 -0.22699,-3.1311 -0.27151,-4.70846c0.01012,-0.73636 -0.02993,-1.42369 -0.09803,-2.08992c-0.05237,-0.26616 -0.11172,-0.53089 -0.1795,-0.79373c-0.07689,-0.30065 -0.10949,-0.60576 -0.13888,-0.9116c-0.05222,0.21595 -0.16854,0.45435 -0.36252,0.70396c-0.74783,1.20472 -1.83153,1.5672 -2.8186,2.01442l-0.02005,0.15568c-0.01062,0.1008 -0.08235,0.18912 -0.18626,0.21592c-0.11676,0.03011 -0.23554,-0.02741 -0.28672,-0.13153c-0.59021,0.31515 -1.11358,0.72553 -1.4636,1.45933l-0.14023,0.46079c-0.02357,0.08246 -0.08899,0.15062 -0.17804,0.17358c-0.12443,0.03209 -0.25114,-0.03535 -0.2959,-0.15262l-0.14985,-0.37581l0.07079,-0.02822c-0.25867,-0.56794 -0.26678,-1.05211 -0.10287,-1.46685c-0.02631,-0.0266 -0.05354,-0.05359 -0.0816,-0.08084c-0.38866,2.17283 0.73664,4.32292 0.69256,6.43679c0.0107,0.07146 0.02119,0.14324 0.03164,0.21544l0.07079,0.2745c0.03448,0.13369 -0.04595,0.27003 -0.17965,0.3045c-0.13369,0.03448 -0.27003,-0.04595 -0.3045,-0.17965l-0.07332,-0.28432l0.00621,-0.0016l-0.00921,-0.01153c-0.00856,-0.05846 -0.0171,-0.11664 -0.02572,-0.1746c-0.25814,-0.3723 -0.34609,-1.26033 -0.43568,-1.61297c-0.16232,-0.63899 -0.31117,-1.48316 -0.38514,-2.35437c-0.13847,-0.7012 -0.28102,-1.40516 -0.44895,-2.08589l-0.03374,0.07403c-0.02996,0.0672 -0.08919,0.1206 -0.16597,0.1404c-0.13369,0.03448 -0.27003,-0.04595 -0.3045,-0.17965c-0.01049,-0.04066 -0.01034,-0.08156 -0.0013,-0.11976l0.09072,-0.42306l0.01467,0.00315c-0.00491,-0.15991 -0.00141,-0.31961 0.01609,-0.47829c0.00074,-0.00677 0.00165,-0.01393 0.0027,-0.02144c-0.27152,-0.08138 -0.5429,-0.15812 -0.81156,-0.22066c-0.00275,0.00395 -0.00547,0.00794 -0.00818,0.01199c-0.0258,0.03848 -0.04854,0.08047 -0.06874,0.1254c-0.00691,0.57989 -0.018,1.14924 -0.11008,1.71458l0.05982,0.00155l-0.0128,0.49432c-0.00034,0.11099 -0.07514,0.21212 -0.18763,0.24112c-0.07827,0.02019 -0.15746,0.00098 -0.21657,-0.04524c-0.13286,0.03279 -0.26766,-0.04746 -0.30193,-0.18031l-0.09777,-0.37909l0.07532,-0.01942c-0.24781,-0.63435 -0.19726,-1.16005 0.03928,-1.5514c0.03327,-0.18369 0.07597,-0.36584 0.12756,-0.53913c-0.05441,-0.00625 -0.1086,-0.01152 -0.16256,-0.01573c-0.24387,-0.14583 -0.44095,-0.37648 -0.58111,-0.62364l-0.00204,-0.01001l-0.00217,0.00096l-0.20085,-0.45274c-0.00637,-0.01368 -0.01157,-0.02812 -0.01547,-0.04326c-0.03448,-0.13369 0.04595,-0.27003 0.17965,-0.3045c0.12151,-0.03133 0.24519,0.03224 0.29261,0.14446l0.13573,0.30594c0.06691,0.03894 0.1327,0.07379 0.19747,0.1048c0.02845,-0.07171 0.08961,-0.1293 0.17002,-0.15004l0.37909,-0.09777l0.00361,0.01399l0.03598,-0.02087c0.23533,0.01417 0.46279,0.04993 0.6846,0.09748c0.18449,-0.00282 0.36204,0.03275 0.4946,0.12393c0.05875,0.01637 0.11721,0.03309 0.17542,0.04992c0.72658,-0.23511 1.45462,-0.55049 2.41537,-0.18744c0.12579,0.04753 0.21464,0.1231 0.27538,0.21733zM237.36301,177.40568c-0.01441,0.00876 -0.02886,0.01745 -0.04333,0.02605c0.0215,-0.0013 0.03431,-0.00434 0.03671,-0.00996c0.00227,-0.00535 0.00448,-0.01072 0.00662,-0.01611zM239.31963,174.98634c-0.01428,-0.09128 -0.0285,-0.18291 -0.04263,-0.27494c-0.02605,0.14902 -0.05743,0.29318 -0.09513,0.4304c0.04782,0.04517 0.08759,0.08801 0.12001,0.12868c-0.00175,-0.01053 -0.00354,-0.02107 -0.00536,-0.03158c-0.01096,-0.06327 0.00474,-0.15825 0.02311,-0.25257zM238.89806,175.95659c-0.04021,0.01325 -0.08124,0.02583 -0.12253,0.03787c-0.06216,0.07522 -0.13041,0.14218 -0.20534,0.19967c-0.00198,0.00152 -0.00399,0.00304 -0.006,0.00454l0.04351,-0.01122c0.05655,-0.01459 0.11357,-0.00862 0.16315,0.01325c0.05474,-0.08776 0.0968,-0.16929 0.12722,-0.24411zM237.82387,175.96138c0.00129,-0.00035 0.00256,-0.00071 0.00385,-0.00105c0.11902,-0.0758 0.24793,-0.14503 0.3733,-0.20583c0.04785,-0.08801 0.09653,-0.18365 0.1461,-0.28283c-0.09642,0.03883 -0.20127,0.09413 -0.31235,0.16692c-0.11376,0.07456 -0.17737,0.18677 -0.2109,0.32279zM234.35808,178.56709c-0.02674,0.00797 -0.05351,0.01557 -0.08021,0.0228c0.00011,0.04177 0.00116,0.08426 0.00287,0.12732l0.07163,-0.12141c0.00196,-0.00965 0.00387,-0.01923 0.00572,-0.02872zM237.80937,177.36828c0.16496,-0.13775 0.32366,-0.29454 0.47375,-0.47639c-0.05488,0.03591 -0.11101,0.06793 -0.16755,0.09385c-0.01489,0.07812 -0.0667,0.14636 -0.14115,0.18052l-0.15209,0.07343c-0.00275,0.04373 -0.00696,0.08668 -0.01296,0.12858zM232.84535,178.93876c0.01214,-0.05893 0.02518,-0.11683 0.03918,-0.1736c-0.0324,-0.00955 -0.06485,-0.01919 -0.09733,-0.02892c0.01983,0.06644 0.0392,0.134 0.05815,0.20252zM234.44379,179.29692c0.00162,-0.00159 0.00323,-0.00319 0.00485,-0.00478c-0.00167,0.00053 -0.00335,0.00105 -0.00503,0.00155zM237.11193,177.83744c-0.16003,-0.02078 -0.33581,-0.03754 -0.47234,-0.02759c-0.06922,0.13172 -0.142,0.2513 -0.21813,0.35956c0.2319,-0.10125 0.46369,-0.20772 0.69045,-0.33196zM233.41003,178.06588c0.02241,0.0412 0.04418,0.08708 0.0652,0.1379c0.06801,-0.02927 0.13819,-0.05761 0.21006,-0.0846c-0.09138,-0.017 -0.18315,-0.03492 -0.27525,-0.05329zM233.9327,178.77498c0.0046,0.00144 0.00922,0.00287 0.01382,0.00431c-0.00059,-0.01402 -0.00103,-0.02812 -0.00127,-0.04229c-0.00472,0.01162 -0.00888,0.0243 -0.01255,0.03799zM233.96086,179.91098c0.02614,-0.04314 0.05282,-0.08503 0.08002,-0.1257c-0.01679,-0.01543 -0.03158,-0.03322 -0.04376,-0.05306l-0.04949,-0.07651c0.00582,0.08584 0.01072,0.17175 0.01323,0.25529z" fill="#000000" fill-rule="nonzero" stroke="none" stroke-width="0.5" stroke-linecap="butt" stroke-linejoin="miter"/><path d="M261.96323,168.84211c0.05965,-0.10508 0.1168,-0.21827 0.17069,-0.33705c-0.05999,0.08666 -0.11326,0.16704 -0.15682,0.23901c-0.00476,0.03278 -0.00938,0.06546 -0.01387,0.09805zM263.01527,167.25004c-0.15075,0.99519 -0.56383,2.14625 -1.13219,2.47826c-0.00665,0.04131 -0.01325,0.08228 -0.01982,0.12293c-0.10502,1.76398 0.17662,3.29078 0.60999,4.90575c0.47127,0.84339 1.02173,1.7025 0.96698,2.61501l0.08717,0.00605l-0.02105,0.30302c-0.00491,0.10676 -0.07846,0.20242 -0.18736,0.23051c-0.09664,0.02492 -0.19465,-0.01019 -0.25459,-0.08206l-0.28377,-0.32612l0.01189,-0.01035l-0.04132,-0.03144c-0.45223,-1.35906 -0.84924,-2.61248 -1.1071,-3.86872c-0.39046,-1.13129 -0.57023,-2.1765 -0.28929,-3.62688c0.02541,-0.45049 0.07485,-0.9125 0.15137,-1.38998c0.09995,-0.17314 0.28345,-0.42321 0.48367,-0.69555c-0.35536,0.35102 -0.93998,0.40211 -1.52131,0.38975c-0.30296,0.18642 -0.59213,0.32041 -0.85025,0.38699c-0.28412,0.07328 -0.61172,0.11284 -0.94617,0.15204c0.04767,0.22324 0.19281,0.52918 0.46367,0.94657c0.22234,0.34264 0.33348,0.65769 0.64047,0.93575c1.02042,1.40827 2.42089,6.37265 1.48993,8.29467l0.10222,0.0603l-0.14066,0.23843v0v0c-0.0325,0.05511 -0.08604,0.0978 -0.15289,0.11505c-0.13369,0.03448 -0.27003,-0.04595 -0.3045,-0.17965l-0.09777,-0.37909c-0.16078,-0.63207 -0.41856,-1.23105 -0.5836,-1.87103c-0.44534,-1.79864 -0.26501,-3.91049 -0.95508,-5.67588c-0.15779,-0.40367 -0.44413,-0.73213 -0.70111,-1.07565c-0.02399,0.10871 -0.04972,0.21672 -0.07651,0.32284c0.10474,0.79055 0.18355,1.80508 0.17746,2.76951c0.15517,0.69058 0.21886,1.33822 0.0496,1.86589c-0.21639,0.62038 -0.12281,5.14813 -0.86598,4.81803c-0.48332,-0.21469 -0.14892,-3.44134 -0.24435,-3.93107c0.01939,-0.29606 0.04013,-0.61925 0.05699,-0.96049c-0.33129,-0.87146 -0.86075,-2.13787 -0.73632,-2.4939c0.13128,-0.37565 0.38275,-0.68568 0.60874,-1.0378c-0.11938,-0.70838 -0.31686,-1.3743 -0.63103,-1.93006c-0.24299,-0.03155 -0.53273,-0.21596 -0.83431,-0.64872c-0.05447,0.00848 -0.10918,0.01842 -0.16419,0.02983l-0.0715,-0.06709l-0.02056,0.03486l-0.23843,-0.14066c-0.05511,-0.0325 -0.0978,-0.08604 -0.11505,-0.15289c-0.03448,-0.13369 0.04595,-0.27003 0.17965,-0.3045l0.28432,-0.07332l0.00475,0.01842c0.01009,-0.0071 0.02113,-0.01395 0.03317,-0.02049c0.04606,-0.025 0.08771,-0.03511 0.12477,-0.03547c2.0038,-0.83719 4.11444,-0.26308 5.98637,-2.33065c0.07226,-0.04673 0.13932,-0.0931 0.20158,-0.13915c-0.00894,-0.48864 -0.04142,-1.0243 0.1579,-1.31383c0.25706,-0.37342 0.51644,-0.67624 0.77405,-0.91018c0.01132,-0.05364 0.02443,-0.10795 0.03983,-0.163c-0.16375,-0.20965 -0.18764,-0.42267 0.04211,-0.62c0.06473,-0.0556 0.13405,-0.08761 0.20702,-0.09905l0.00701,-0.10094c0.00491,-0.10676 0.07846,-0.20242 0.18736,-0.23051c0.13369,-0.03448 0.27003,0.04595 0.3045,0.17965l0.07332,0.28432l-0.08168,0.02106l-0.00078,0.01117c0.06187,0.04445 0.12468,0.09663 0.18808,0.15532c0.95195,-0.23677 1.80134,0.52042 2.31589,2.17377c0.21916,0.82742 0.41761,1.65551 0.60736,2.48438c0.95487,1.82175 1.89706,4.11199 1.45971,5.763l0.10781,0.03409l-0.14942,0.47263c-0.02422,0.08124 -0.08918,0.14813 -0.17725,0.17085c-0.13369,0.03448 -0.27003,-0.04595 -0.3045,-0.17965l-0.07332,-0.28432c-0.45067,-1.74748 -0.81598,-3.49122 -1.20654,-5.23135c-0.27905,-0.74555 -0.61324,-1.48036 -1.04201,-2.19571c-0.16505,-0.23939 -1.01799,-1.33216 -1.58664,-2.14718c-0.07197,-0.00158 -0.14301,0.0013 -0.21243,0.00956c-0.13121,0.49307 -0.37831,1.01012 -0.6965,1.51236c0.14463,0.32699 0.30914,0.66911 0.2671,0.91632c-0.03362,0.19767 -0.16393,0.4527 -0.33465,0.72535zM259.72282,171.54411c0.5072,1.6995 0.43652,3.77733 0.8503,5.3013c0.08682,0.33666 0.19769,0.6607 0.30736,0.98427c0.03131,-0.42106 0.09058,-0.84031 0.08036,-1.00352c-0.08725,-1.39484 -0.49557,-3.8502 -1.23802,-5.28205zM257.78024,170.58998c-0.00321,-0.39313 -0.02915,-0.73264 -0.09606,-0.98461l-0.0546,-0.21169c-0.01082,0.36276 0.05152,0.76813 0.15064,1.19628zM257.56001,173.36859c-0.00659,-0.28296 -0.02009,-0.5679 -0.04273,-0.8509c-0.15647,0.20206 -0.29672,0.37816 -0.29354,0.38157c0.1323,0.14216 0.24253,0.3 0.33627,0.46933zM258.04372,168.89083c-0.03087,0.00488 -0.06159,0.00993 -0.09214,0.01519c-0.01865,0.00577 -0.03727,0.01144 -0.05584,0.01699c0.0307,0.0086 0.05945,0.02299 0.08465,0.04224l0.06217,0.04663c-0.00014,-0.03555 0.00037,-0.07678 0.00117,-0.12107zM262.17827,167.62331c0.13658,-0.18788 0.27141,-0.37819 0.38447,-0.55456c0.03451,-0.22849 0.04855,-0.44357 0.03751,-0.62953c-0.01544,0.26459 -0.08202,0.49305 -0.27615,0.63595c-0.01835,0.21969 -0.06917,0.40017 -0.14582,0.54813zM265.25404,164.67297c0.35984,0.60073 0.64215,1.14256 0.74524,1.29071c0.0222,0.03783 0.04477,0.07637 0.06769,0.11553c-0.06203,-0.24724 -0.12559,-0.49442 -0.19097,-0.74152c-0.04156,-0.13491 -0.08398,-0.26304 -0.12732,-0.3843c-0.00314,0.00095 -0.00631,0.00182 -0.0095,0.00265c-0.08536,0.02202 -0.17179,-0.00282 -0.23211,-0.05844l-0.24662,-0.22088c-0.00204,-0.00124 -0.00418,-0.00249 -0.0064,-0.00376zM261.45633,167.51982c0.13752,-0.07787 0.24921,-0.17785 0.32548,-0.30699c-0.10745,0.10637 -0.21619,0.20891 -0.32548,0.30699zM261.2351,167.18602c-0.27444,0.19485 -0.58431,0.39934 -0.91418,0.59921c0.03821,-0.003 0.07622,-0.00625 0.11397,-0.00979c0.27989,-0.16421 0.54896,-0.36382 0.80021,-0.58942zM262.56752,165.38513c-0.00015,0.00684 -0.00026,0.0137 -0.00035,0.02057c0.00155,-0.0033 0.0031,-0.0066 0.00463,-0.0099c-0.00143,-0.00356 -0.00285,-0.00711 -0.00426,-0.01067zM264.4861,163.52397c0.14071,-0.00733 0.27695,0.00148 0.40507,0.02837c-0.15767,-0.10977 -0.32517,-0.16102 -0.50376,-0.15197c0.03293,0.04012 0.06585,0.08137 0.09869,0.1236z" fill="#000000" fill-rule="nonzero" stroke="none" stroke-width="0.5" stroke-linecap="butt" stroke-linejoin="miter"/></g><path d="M229.19446,200.73477c-4.50725,5.11183 -11.14695,12.92235 -15.50234,11.62208c-1.91412,-0.52552 -9.76669,-5.26232 -11.90509,-9.00494c-2.22184,-4.04765 2.71135,-8.90497 6.40224,-6.07877c2.6363,1.9672 7.02093,5.2921 7.32596,5.20867c1.02585,-0.44454 3.43597,-4.21829 5.82089,-4.60837" data-paper-data="{&quot;index&quot;:null}" fill="#717171" fill-rule="evenodd" stroke="#001026" stroke-width="1.2" stroke-linecap="round" stroke-linejoin="round"/></g></g></svg>