<svg version="1.1" xmlns="http://www.w3.org/2000/svg" xmlns:xlink="http://www.w3.org/1999/xlink" width="100.79333" height="104.7241" viewBox="0,0,100.79333,104.7241"><defs><linearGradient x1="251.25087" y1="210.88685" x2="236.96039" y2="222.79242" gradientUnits="userSpaceOnUse" id="color-1"><stop offset="0" stop-color="#ffffff"/><stop offset="1" stop-color="#9f9f9f"/></linearGradient></defs><g transform="translate(-190.20669,-136.00077)"><g data-paper-data="{&quot;isPaintingLayer&quot;:true}" stroke-miterlimit="10" stroke-dasharray="" stroke-dashoffset="0" style="mix-blend-mode: normal"><g stroke="#001026" stroke-width="1.2"><path d="M241.8228,195.67684c-0.47184,2.16964 -3.16165,10.12986 -1.35223,12.17339c1.74972,1.91533 9.0113,2.43445 7.70842,7.17497c-1.26861,4.64658 -7.40954,2.51372 -11.96889,-0.74547c-5.9255,-4.18312 -5.26621,-15.3319 0.7528,-20.16217c2.19718,-1.64694 5.366,-0.70431 4.8599,1.55928z" data-paper-data="{&quot;index&quot;:null}" fill="#878787" fill-rule="evenodd" stroke-linecap="round" stroke-linejoin="round"/><g data-paper-data="{&quot;index&quot;:null}" fill-rule="nonzero" stroke-linejoin="miter"><g><g><path d="M245.98822,213.31886l8.29771,-6.91291l1.66422,1.99758l-8.29771,6.91291z" fill="#2c2c2c" stroke-linecap="butt"/><path d="M237.20116,220.85518l1.4946,1.87782l-11.95348,8.74724z" fill="#6c6c6c" stroke-linecap="butt"/><path d="M234.59209,219.94968l14.29048,-11.90556l4.73661,5.68545l-14.29046,11.90556z" fill="url(#color-1)" stroke-linecap="butt"/><path d="M246.88497,209.70831l2.15065,2.89393" fill="none" stroke-linecap="round"/><path d="M244.52875,212.19193l1.89461,2.58659" fill="none" stroke-linecap="round"/><path d="M244.04173,215.98177l-1.48491,-2.40729" fill="none" stroke-linecap="round"/><path d="M239.89329,216.31413l1.40818,1.69026" fill="none" stroke-linecap="round"/><path d="M237.33233,217.92704l1.45927,2.68898" fill="none" stroke-linecap="round"/></g><path d="M251.85339,205.04845l2.15125,-1.79224l4.86465,5.83912l-2.15126,1.79225z" fill="#2c2c2c" stroke-linecap="butt"/></g><path d="M243.88818,215.32876c-2.24891,1.87359 -4.90308,2.39491 -5.92825,1.16437c-1.02518,-1.23054 -0.03315,-3.74694 2.21577,-5.62052c2.24891,-1.87359 4.90308,-2.39489 5.92827,-1.16436c1.02518,1.23054 0.03316,3.74693 -2.21577,5.62053z" fill="#878787" stroke-linecap="butt"/><path d="M251.18533,222.52538c-3.43702,2.86342 -7.68482,3.43038 -9.48772,1.26633c-1.80289,-2.16404 -0.47818,-6.23962 2.95884,-9.10303c3.43702,-2.86342 7.68481,-3.43037 9.48771,-1.26633c1.80289,2.16404 0.47819,6.23962 -2.95882,9.10305z" fill="#878787" stroke-linecap="butt"/></g></g><path d="M223.4577,172.92744c0.02725,0.56467 -0.06495,0.96835 -0.58924,1.53475c-1.38107,2.63568 1.31973,3.80757 2.2481,5.43257c1.1182,1.95728 0.06023,5.06431 0.42508,7.20649c0.20945,1.26832 0.76077,2.48285 0.91746,3.7575c0.51928,4.22448 -2.12429,14.66 -7.94155,10.78182c-5.30597,-3.54084 -12.75673,-1.54223 -17.70671,2.13831c-0.4194,0.53228 -1.29417,3.04662 -1.79035,3.13763c-0.26986,0.0495 -1.58937,-1.49067 -1.74444,-1.75334c-0.98687,-1.67166 -1.73523,-4.50534 -1.37554,-6.35289c0.07944,-0.40807 -0.68705,0.51136 -1.09311,0.60054c-0.33303,0.07315 -2.56345,0.19858 -2.64425,0.15925c-0.36006,-0.17523 -0.61707,-2.4775 -0.6965,-2.83861c-0.0353,-1.12347 0.17747,-2.56871 -0.09432,-3.65098c-0.17611,-0.70125 -1.26355,-1.69386 -1.15852,-2.44171c0.19896,-1.41667 1.08227,-2.97711 1.25202,-4.52349c0.28722,-2.61652 -0.06082,-5.34454 0.11508,-7.98313c0.2431,-3.64642 2.0003,-7.53639 1.3716,-11.20432c-0.45649,-2.66324 -2.15159,-4.93452 -1.78203,-7.66361c1.66221,0.25733 2.48349,0.8411 3.80903,1.73268c1.40208,0.94306 3.67187,1.43676 5.27461,2.01956c3.29201,1.19708 6.26804,2.37157 9.82681,2.77829c2.19373,0.99281 4.75461,1.30645 7.04545,2.25757c2.66335,1.10578 5.44958,3.09561 7.86381,4.70149c0,0 0.41603,0.27735 0.13868,0.69338c-0.27735,0.41602 -0.69338,0.13868 -0.69338,0.13868c-0.31928,-0.21337 -0.64565,-0.4339 -0.9778,-0.65842z" fill="#000000" fill-rule="nonzero" stroke="none" stroke-width="0.5" stroke-linecap="butt" stroke-linejoin="miter"/><g fill-rule="evenodd"><path d="M224.78334,200.96667c0.6,0.8 3.3,2 -0.2,4.2c-3.6,2.1 -12.7,5 -21.6,-2.9c-9.6,-8.6 -4.5,-20.3 -0.1,-20.7c4.3,-0.4 2.6,6.6 5.7,14.4c4.4,11.3 15.6,4.2 16.2,5z" fill="#878787" stroke="#001026" stroke-width="1.2" stroke-linecap="round" stroke-linejoin="round"/><path d="M205.68334,186.76667c0.5,4.4 1.5,7.4 1.5,7.4c0,0 -1.6,-2 -4,-1.6c-2.9,0.5 -3.8,2.9 -3.9,3.6c-0.7,-1.7 -1.3,-3.8 -1.1,-7.4c0.5,-3.5 2.7,-7.1 5.2,-6.7c2,0.4 1.9,2 2.3,4.7z" fill="#ffffff" stroke="none" stroke-width="1" stroke-linecap="butt" stroke-linejoin="miter"/></g><path d="M226.4449,192.91737c-0.53175,2.35738 -4.44264,4.53794 -4.94762,5.53543c-0.10149,0.2995 2.95576,4.87478 4.76209,7.62381c2.60084,3.853 -2.54229,8.48745 -6.4501,6.02796c-3.6083,-2.35799 -7.86791,-10.47931 -8.27824,-12.42138c-1.03797,-4.42523 7.15496,-10.58688 12.52673,-14.78095" fill="#878787" fill-rule="evenodd" stroke="#001026" stroke-width="1.2" stroke-linecap="round" stroke-linejoin="round"/><path d="M248.3198,236.3753c0,3.86599 -11.83333,3 -11.83333,3c0,0 -10.5,0.86599 -10.5,-3c0,-3.45051 2.7452,-32.89294 7.69909,-34.5825c3.83539,-1.30808 4.43187,28.24917 5.13424,28.24917c6.53537,0 9.5,2.46734 9.5,6.33333z" fill="#878787" fill-rule="nonzero" stroke="#001026" stroke-width="1.2" stroke-linecap="butt" stroke-linejoin="miter"/><path d="M242.3198,237.04197c0,3.86599 -11.83333,3 -11.83333,3c0,0 -10.5,0.86599 -10.5,-3c0,-3.45051 2.7452,-32.89294 7.69909,-34.58249c3.83539,-1.30808 4.43187,28.24916 5.13424,28.24916c6.53537,0 9.5,2.46734 9.5,6.33333z" fill="#878787" fill-rule="nonzero" stroke="#001026" stroke-width="1.2" stroke-linecap="butt" stroke-linejoin="miter"/><g fill-rule="evenodd"><path d="M228.46746,211.92774c-9.18562,-0.14169 -6.59918,-8.70522 -6.1184,-18.13437c0.22478,-5.09504 2.32496,-11.27985 8.25588,-12.7846c3.28322,-1.01509 4.71707,5.1431 6.65887,4.10414c2.93427,-1.51331 4.46287,3.07617 4.72896,5.71988c0,0 0.33245,3.94201 -0.02111,6.21687c-0.40861,2.85536 -0.99765,5.79696 -1.69222,7.12646c0,0 -1.91695,7.90424 -11.81198,7.75161z" fill="#878787" stroke="#001026" stroke-width="1.2" stroke-linecap="round" stroke-linejoin="round"/><path d="M239.54139,204.42127c0,0 -1.87085,-0.43583 -3.96129,-1.09921c-2.58071,-0.76155 -5.03204,-1.25242 -4.5644,-4.91184c0.58904,-2.9416 0.7429,-6.56186 6.05356,-5.88595c5.04397,0.58172 4.40781,3.65665 4.40781,3.65665c-0.04435,5.00879 -1.93568,8.24035 -1.93568,8.24035z" fill="#ffffff" stroke="none" stroke-width="1" stroke-linecap="butt" stroke-linejoin="miter"/></g><path d="M220.06371,195.99621l2.11464,-8.76682l4.89755,0.85834l-2.11464,8.76682z" fill="#878787" fill-rule="nonzero" stroke="#001026" stroke-width="0" stroke-linecap="butt" stroke-linejoin="miter"/><g><g fill-rule="evenodd"><g><path d="M257.2,136.5c0.3,-0.2 0.8,-0.1 0.9,0.3l2.6,10.7c0,0 6.4,4.7 8.3,8c3.2,5.5 3.3,10 3.3,10c0,0 7.1,2.1 8.3,7.8c1.2,5.7 -3.2,16.5 -22,20.2c-18.8,3.7 -33.9,-1.4 -41,-12.8c-7.1,-11.4 4.1,-25 3.5,-24.2l-2.1,-17.9c-0.1,-0.4 0.4,-0.7 0.8,-0.5l12.1,7.9c0,0 4.5,-1.7 9.2,-1.9c2.8,-0.2 5.2,0 7.5,0.4z" fill="#878787" stroke="#001026" stroke-width="1.2" stroke-linecap="butt" stroke-linejoin="miter"/><path d="M272.00001,165.9c0,0 6.9,1.8 8.1,7.5c1.2,5.7 -3.6,16 -22.2,19.6c-24.2,5 -35.7,-9.4 -29,-20c6.7,-10.7 18.2,-1.6 26.6,-2.2c7.2,-0.5 8,-6.8 16.5,-4.9z" fill="#ffffff" stroke="none" stroke-width="1" stroke-linecap="butt" stroke-linejoin="miter"/><path d="M290.40001,167c-4.7,3.8 -11.9,3.9 -11.9,3.9" fill="none" stroke="#001026" stroke-width="1.2" stroke-linecap="round" stroke-linejoin="round"/><path d="M289.10001,178.2c-6.3,0.5 -10.2,-1.4 -10.2,-1.4" fill="none" stroke="#001026" stroke-width="1.2" stroke-linecap="round" stroke-linejoin="round"/><path d="M255.10001,168.2c2.1,0 4.3,0.2 4.4,0.9c0.1,1.4 -1.4,4.2 -3,4.3c-1.8,0.2 -6,-2.3 -6,-3.9c-0.1,-1.2 2.6,-1.3 4.6,-1.3z" fill="#001026" stroke="#001026" stroke-width="1.2" stroke-linecap="round" stroke-linejoin="round"/><path d="M210.10001,166.7c0,0 8.6,2.8 12.1,5.9" fill="none" stroke="#001026" stroke-width="1.2" stroke-linecap="round" stroke-linejoin="round"/><path d="M222.50001,176.1c-4.3,1.7 -11.7,0.6 -11.7,0.6" fill="none" stroke="#001026" stroke-width="1.2" stroke-linecap="round" stroke-linejoin="round"/><g><path d="M266.90001,156.5c2.9,4.5 3,9.6 0.2,11.4c-2.8,1.8 -7.4,-0.3 -10.4,-4.8c-2.9,-4.5 -3,-9.6 -0.2,-11.4c2.8,-1.9 7.5,0.3 10.4,4.8z" fill="#ffffff" stroke="#001026" stroke-width="1.2" stroke-linecap="round" stroke-linejoin="round"/><path d="M263.25001,163.2c0,1.1 -0.8,2 -1.8,2c-1,0 -1.8,-0.9 -1.8,-2c0,-1.1 0.8,-2 1.8,-2c1,0 1.8,0.9 1.8,2" fill="#858585" stroke="none" stroke-width="1" stroke-linecap="butt" stroke-linejoin="miter"/></g><g><path d="M242.10001,159.3c3,4.4 2.8,9.8 0.1,11.7c-3.3,1.9 -7.7,0.5 -10.7,-3.9c-3.1,-4.4 -0.55,-8.85 2.55,-11.05c3.1,-2.3 5.05,-1.15 8.05,3.25z" fill="#ffffff" stroke="#001026" stroke-width="1.2" stroke-linecap="round" stroke-linejoin="round"/><path d="M239.00001,165.85c0,1.1 -0.8,2 -1.8,2c-1,0 -1.8,-0.9 -1.8,-2c0,-1.1 0.8,-2 1.8,-2c1,0.1 1.8,0.9 1.8,2" fill="#858585" stroke="none" stroke-width="1" stroke-linecap="butt" stroke-linejoin="miter"/></g></g></g><path d="M250.71285,181.22917c0,2.01692 -5.99962,5.44066 -10.625,5.44066c-4.62538,0 -8.875,-4.61622 -8.875,-6.63314c0,-2.01692 6.49962,0.67076 11.125,0.67076c4.62538,0 8.375,-1.49521 8.375,0.52171z" fill="none" fill-rule="nonzero" stroke="#001026" stroke-width="1.2" stroke-linecap="butt" stroke-linejoin="miter"/></g><path d="M234.76119,179.92543l-0.1245,4.10838" fill="none" fill-rule="nonzero" stroke="#001026" stroke-width="1.2" stroke-linecap="round" stroke-linejoin="miter"/></g></g></svg>