<svg version="1.1" xmlns="http://www.w3.org/2000/svg" xmlns:xlink="http://www.w3.org/1999/xlink" width="73.96814" height="49.11636" viewBox="0,0,73.96814,49.11636"><g transform="translate(-244.82653,-186.81862)"><g data-paper-data="{&quot;isPaintingLayer&quot;:true}" fill-rule="nonzero" stroke="none" stroke-linecap="butt" stroke-linejoin="miter" stroke-miterlimit="10" stroke-dasharray="" stroke-dashoffset="0" style="mix-blend-mode: normal"><path d="M264.8627,194.91984c0.09526,-0.04273 0.17957,-0.05665 0.25332,-0.05192c0.08686,-0.10209 0.19418,-0.15068 0.19418,-0.15068c5.48316,-2.48233 11.10109,-4.53705 16.57076,-6.96677c7.0014,-3.14329 13.3558,2.42886 19.60449,5.42364c6.88188,3.32741 9.35463,10.06178 12.34426,16.66514c1.5534,3.43109 2.00658,6.79493 3.56381,10.25939c0.46558,1.0358 1.83492,2.98081 1.26436,4.1626c-0.65894,1.36484 -4.26314,2.36136 -5.57364,2.95469c-3.04084,1.37673 -6.0748,3.04688 -9.3603,3.7528c-3.55967,0.76484 -7.20563,0.51794 -10.67949,1.74984c-3.5577,1.24235 -7.81597,3.92144 -11.71398,3.04276c-2.8503,-0.64252 -5.54633,-2.97492 -7.9437,-4.54051c-3.04206,-1.98659 -5.78119,-2.28814 -9.14206,-3.33325c-3.46167,-1.07646 -6.61066,-3.16297 -10.20091,-3.94924c-1.28616,-0.28797 -2.56089,-0.19044 -3.87577,-0.18048l-0.01066,-0.00305l-0.0001,0.00279l-0.98851,-0.03496c-0.18773,-0.00268 -0.36613,-0.11149 -0.4487,-0.29386c-0.1101,-0.2432 -0.00946,-0.52816 0.22466,-0.64974l0.88044,-0.46642l0.02828,0.05337c3.83988,-2.99787 9.74405,-6.34705 5.70197,-11.59606c-0.6075,-0.78889 -1.26758,-1.3269 -2.02794,-1.96591c-2.52732,-1.34888 -5.46791,-2.99561 -7.32256,-5.06451c-0.32136,-0.35849 -1.48767,-1.48536 -1.3701,-2.00176c0.06193,-0.27201 1.70554,-1.08578 2.02636,-1.25366c2.27417,-1.19001 4.89765,-2.77246 7.43588,-3.18707c2.71862,-0.84056 6.2664,-1.04067 9.09258,-0.6871c0.58238,0.07286 1.06771,0.7549 1.64224,0.635c0.39936,-0.08335 -0.04731,-0.83273 -0.21414,-1.20503l-0.20661,-0.45916c0,0 -0.20463,-0.45621 0.25158,-0.66084z" fill="#000000" stroke-width="0.5"/><path d="M293.55906,209.14896c-2.8481,2.5965 -7.69604,2.22104 -10.82814,-0.83862c-3.1321,-3.05965 3.45587,-16.61476 3.45587,-16.61476c0,0 10.22036,14.85687 7.37226,17.45337z" data-paper-data="{&quot;index&quot;:null}" fill="#ffffff" stroke-width="0"/><path d="M295.58098,213.19081c2.8481,-2.5965 18.22902,7.55573 18.22902,7.55573c0,0 -14.58272,5.74528 -17.71481,2.68563c-3.13211,-3.05966 -3.36232,-7.64488 -0.5142,-10.24137z" data-paper-data="{&quot;index&quot;:null}" fill="#ffffff" stroke-width="0"/></g></g></svg>