<svg version="1.1" xmlns="http://www.w3.org/2000/svg" xmlns:xlink="http://www.w3.org/1999/xlink" width="154.14234" height="155.60716" viewBox="0,0,154.14234,155.60716"><defs><linearGradient x1="245.19759" y1="217.27683" x2="230.64115" y2="228.85569" gradientUnits="userSpaceOnUse" id="color-1"><stop offset="0" stop-color="#ffffff"/><stop offset="1" stop-color="#9f9f9f"/></linearGradient><radialGradient cx="239.93616" cy="156.3628" r="8.13758" gradientUnits="userSpaceOnUse" id="color-2"><stop offset="0" stop-color="#ffffff"/><stop offset="1" stop-color="#1a1a1a"/></radialGradient><radialGradient cx="223.34503" cy="170.97766" r="6.75889" gradientUnits="userSpaceOnUse" id="color-3"><stop offset="0" stop-color="#ffffff"/><stop offset="1" stop-color="#1a1a1a"/></radialGradient><linearGradient x1="318.96018" y1="113.40767" x2="322.13079" y2="124.56595" gradientUnits="userSpaceOnUse" id="color-4"><stop offset="0" stop-color="#ffce72"/><stop offset="1" stop-color="#ff4400"/></linearGradient><linearGradient x1="300.61118" y1="98.59331" x2="300.61118" y2="158.92419" gradientUnits="userSpaceOnUse" id="color-5"><stop offset="0" stop-color="#979797"/><stop offset="1" stop-color="#030303"/></linearGradient><linearGradient x1="278.00552" y1="112.56342" x2="271.13953" y2="121.91319" gradientUnits="userSpaceOnUse" id="color-6"><stop offset="0" stop-color="#ffce72"/><stop offset="1" stop-color="#ff4400"/></linearGradient></defs><g transform="translate(-190.01117,-85.11772)"><g data-paper-data="{&quot;isPaintingLayer&quot;:true}" stroke-miterlimit="10" stroke-dasharray="" stroke-dashoffset="0" style="mix-blend-mode: normal"><path d="M237.36847,214.46497c0,9.04367 0.28757,16.125 -4.5,16.375c-6.77833,0.35396 -4.75,-7.33133 -4.75,-16.375c0,-9.04367 1.46243,-17.875 4.5,-17.875c3.03757,0 4.75,8.83133 4.75,17.875z" fill="#717171" fill-rule="nonzero" stroke="#001026" stroke-width="1.2" stroke-linecap="butt" stroke-linejoin="miter"/><g fill-rule="nonzero" stroke="#001026" stroke-width="1.2" stroke-linejoin="miter"><g><g><path d="M239.88122,219.58902l8.45213,-6.7232l1.61856,2.03477l-8.45214,6.72321z" fill="#2c2c2c" stroke-linecap="butt"/><path d="M230.92573,226.92439l1.45169,1.91118l-12.14851,8.47428z" fill="#6c6c6c" stroke-linecap="butt"/><path d="M228.33783,225.96006l14.55644,-11.57886l4.60665,5.79126l-14.55644,11.57888z" fill="url(#color-1)" stroke-linecap="butt"/><path d="M240.85951,215.99973l2.08455,2.94189" fill="none" stroke-linecap="round"/><path d="M238.44765,218.42935l1.83554,2.62883" fill="none" stroke-linecap="round"/><path d="M236.44489,219.76687l1.43002,2.44031" fill="none" stroke-linecap="round"/><path d="M233.72001,222.44549l1.36953,1.72172" fill="none" stroke-linecap="round"/><path d="M232.52119,226.72133l-1.398,-2.72131" fill="none" stroke-linecap="round"/></g><path d="M245.93219,211.45356l2.19129,-1.74305l4.73115,5.94779l-2.19129,1.74307z" fill="#2c2c2c" stroke-linecap="butt"/></g><path d="M237.73619,221.55085c-2.29078,1.82219 -4.95607,2.28324 -5.9531,1.0298c-0.99704,-1.25344 0.05173,-3.74672 2.3425,-5.5689c2.29078,-1.82219 4.95607,-2.28323 5.9531,-1.0298c0.99704,1.25344 -0.05173,3.74673 -2.3425,5.56891z" fill="#717171" stroke-linecap="butt"/><path d="M244.86849,228.9109c-3.50098,2.78485 -7.76054,3.25544 -9.51396,1.05113c-1.75342,-2.20432 -0.33675,-6.24883 3.16423,-9.03369c3.50098,-2.78485 7.76053,-3.25546 9.51396,-1.05115c1.75342,2.20432 0.33674,6.24884 -3.16423,9.0337z" fill="#717171" stroke-linecap="butt"/></g><g fill-rule="evenodd"><path d="M225.12118,212.48415c0.90838,0.41814 3.85413,0.18888 1.82252,3.78924c-2.16713,3.55999 -8.79111,10.44062 -20.37801,7.72702c-12.53566,-2.99621 -13.61706,-15.71355 -9.9374,-18.15898c3.5917,-2.39783 5.42721,4.56786 11.86518,9.95326c9.24675,7.84524 15.71931,-3.7287 16.62769,-3.31055z" fill="#717171" stroke="#001026" stroke-width="1.2" stroke-linecap="round" stroke-linejoin="round"/><path d="M201.56528,209.08277c2.53337,3.63209 4.84036,5.7949 4.84036,5.7949c0,0 -2.35889,-0.99777 -4.27948,0.49601c-2.31277,1.81964 -1.9624,4.35879 -1.71728,5.02205c-1.42458,-1.16216 -2.95153,-2.72371 -4.48856,-5.98522c-1.22559,-3.3163 -1.00355,-7.52946 1.38565,-8.3672c1.94941,-0.59982 2.62277,0.85503 4.25931,3.03947z" fill="#ffffff" stroke="none" stroke-width="1" stroke-linecap="butt" stroke-linejoin="miter"/></g><path d="M248.3198,236.37531c0,3.86599 -11.83333,3 -11.83333,3c0,0 -10.5,0.86599 -10.5,-3c0,-3.45051 2.7452,-32.89294 7.69909,-34.5825c3.83539,-1.30808 4.43187,28.24917 5.13424,28.24917c6.53537,0 9.5,2.46734 9.5,6.33333z" fill="#717171" fill-rule="nonzero" stroke="#001026" stroke-width="1.2" stroke-linecap="butt" stroke-linejoin="miter"/><path d="M242.3198,237.04198c0,3.86599 -11.83333,3 -11.83333,3c0,0 -10.5,0.86599 -10.5,-3c0,-3.45051 2.7452,-32.89294 7.69909,-34.58249c3.83539,-1.30808 4.43187,28.24916 5.13424,28.24916c6.53537,0 9.5,2.46734 9.5,6.33333z" fill="#717171" fill-rule="nonzero" stroke="#001026" stroke-width="1.2" stroke-linecap="butt" stroke-linejoin="miter"/><g fill-rule="evenodd"><path d="M230.32746,217.57533c-7.99273,4.52901 -10.09858,-4.16518 -14.45851,-12.5396c-2.38607,-4.50738 -3.70677,-10.90415 0.64566,-15.20488c2.31719,-2.53782 6.67189,2.04649 7.82027,0.16733c1.76401,-2.79074 5.40608,0.39284 6.9742,2.53783c0,0 2.28274,3.23095 3.12976,5.37165c1.09348,2.66914 2.07503,5.50403 2.14929,7.00219c0,0 2.34934,7.78668 -6.26066,12.66547z" fill="#717171" stroke="#001026" stroke-width="1.2" stroke-linecap="round" stroke-linejoin="round"/><path d="M236.0758,205.49496c0,0 -1.83397,0.57149 -3.97251,1.05795c-2.61102,0.65006 -4.97342,1.46802 -6.42314,-1.92437c-0.98156,-2.83488 -2.68204,-6.03462 2.23972,-8.14086c4.64408,-2.05242 5.65254,0.92129 5.65254,0.92129c2.498,4.34166 2.50339,8.086 2.50339,8.086z" fill="#ffffff" stroke="none" stroke-width="1" stroke-linecap="butt" stroke-linejoin="miter"/></g><g><g><path d="M220.90053,136.19666c0.14261,-0.33116 0.61638,-0.5197 0.91816,-0.23873l8.00956,7.55625c0,0 7.92738,0.45462 11.31847,2.1868c5.67979,2.86881 8.2152,6.5879 8.2152,6.5879c0,0 7.09792,-2.10701 11.20953,2.01909c4.1116,4.12611 6.30564,15.57975 -7.44378,28.92455c-13.74941,13.34479 -29.19028,17.29444 -41.35476,11.60275c-12.16449,-5.6917 -10.18165,-23.19793 -10.24896,-22.20021l-11.51277,-13.86637c-0.30177,-0.28095 -0.04593,-0.80491 0.39846,-0.85511l14.45056,0.03274c0,0 2.84743,-3.87714 6.67976,-6.60537c2.23904,-1.69313 4.36057,-2.83291 6.5072,-3.7505z" fill="#717171" fill-rule="evenodd" stroke="#001026" stroke-width="1.2" stroke-linecap="butt" stroke-linejoin="miter"/><path d="M243.03445,155.26059c2.21899,3.41559 -1.09755,9.50777 -7.4077,13.60725c-6.31015,4.09948 -13.22439,4.6539 -15.44338,1.23832c-2.21899,-3.41559 1.09755,-9.50776 7.4077,-13.60724c6.31015,-4.09948 13.22439,-4.65391 15.44338,-1.23833z" fill="#000000" fill-rule="nonzero" stroke="none" stroke-width="NaN" stroke-linecap="butt" stroke-linejoin="miter"/><path d="M249.32827,152.78775c0,0 6.76677,-2.24962 10.87836,1.87649c4.1116,4.12611 5.69782,15.37839 -7.93837,28.53037c-17.56948,17.37681 -35.05804,11.56648 -35.2144,-0.97248c-0.21085,-12.62283 14.39035,-11.25692 21.10746,-16.33633c5.76532,-4.34178 3.00398,-10.06062 11.16696,-13.09806z" fill="#ffffff" fill-rule="evenodd" stroke="none" stroke-width="1" stroke-linecap="butt" stroke-linejoin="miter"/><path d="M265.35726,143.68601c-1.87107,5.7471 -7.85431,9.75345 -7.85431,9.75345" fill="none" fill-rule="evenodd" stroke="#001026" stroke-width="1.2" stroke-linecap="round" stroke-linejoin="round"/><path d="M270.36878,153.78624c-5.01061,3.85146 -9.31615,4.38287 -9.31615,4.38287" fill="none" fill-rule="evenodd" stroke="#001026" stroke-width="1.2" stroke-linecap="round" stroke-linejoin="round"/><path d="M236.40945,163.92344c1.761,-1.14406 3.71481,-2.17489 4.18003,-1.64238c0.84656,1.11952 1.11412,4.2847 -0.1731,5.24023c-1.40047,1.14834 -6.28445,1.34003 -7.15612,-0.00167c-0.73761,-0.95181 1.47206,-2.5066 3.14919,-3.59619z" fill="#001026" fill-rule="evenodd" stroke="#001026" stroke-width="1.2" stroke-linecap="round" stroke-linejoin="round"/><path d="M197.85653,187.1812c0,0 8.73713,-2.3372 13.36099,-1.64441" fill="none" fill-rule="evenodd" stroke="#001026" stroke-width="1.2" stroke-linecap="round" stroke-linejoin="round"/><path d="M213.37585,188.30836c-2.67972,3.76816 -9.48441,6.8772 -9.48441,6.8772" fill="none" fill-rule="evenodd" stroke="#001026" stroke-width="1.2" stroke-linecap="round" stroke-linejoin="round"/><path d="M243.42274,150.40185c4.88341,2.19368 4.2535,3.69767 2.88613,6.73251c-1.36738,3.03485 -6.36887,3.77989 -11.33614,1.6407c-2.52944,-1.12752 -7.12214,-3.64699 -5.67011,-3.95421c16.50981,-3.49321 12.49894,-4.97536 13.43076,-4.65494c0.22987,0.07905 0.46648,0.13579 0.68938,0.23593z" fill="url(#color-2)" fill-rule="evenodd" stroke="#001026" stroke-width="1.2" stroke-linecap="round" stroke-linejoin="round"/><path d="M220.65936,163.54244c4.9128,2.05533 7.68695,6.69258 6.45793,9.75681c-1.73218,3.3911 -6.18461,4.61418 -11.0974,2.55885c7.0875,-5.24814 -0.27331,-14.37099 4.63947,-12.31565z" fill="url(#color-3)" fill-rule="evenodd" stroke="#001026" stroke-width="1.2" stroke-linecap="round" stroke-linejoin="round"/><path d="M244.09845,176.63068c1.46678,2.25776 -1.83177,23.79546 -7.50512,27.48125c-5.67334,3.68579 -11.5731,-11.8761 -13.03989,-14.13386c-1.46678,-2.25776 2.0781,-0.90287 7.75144,-4.58865c5.67334,-3.68579 11.32677,-11.0165 12.79355,-8.75873z" fill="#000000" fill-rule="nonzero" stroke="#001026" stroke-width="1.2" stroke-linecap="butt" stroke-linejoin="miter"/></g><path d="M224.61881,175.47002c0.02817,0.01085 0.05735,0.0255 0.08755,0.04418c0.09906,-0.09549 0.19606,-0.20326 0.29083,-0.32494c0.09845,-0.06486 0.19798,-0.12952 0.29783,-0.19449c0.28737,-0.37749 0.55046,-0.74866 0.70388,-0.91282c0.15854,-0.22533 0.37661,-0.39545 0.59783,-0.54523c-0.11239,-0.34803 -0.12416,-0.69848 0.2155,-1.04801c0.19175,-0.19732 0.39354,-0.32583 0.58795,-0.39225c0.02364,-0.14356 0.05061,-0.28258 0.0839,-0.40885c-0.19268,-1.11028 -0.79362,-2.53226 -0.93341,-3.08591l-0.14326,-0.22051c-0.07521,-0.11578 -0.04234,-0.27061 0.07344,-0.34584c0.11578,-0.07521 0.27061,-0.04233 0.34585,0.07344l0.15996,0.24621l-0.05299,0.03442c0.00547,0.00501 0.01093,0.01004 0.01638,0.01511l0.0557,-0.01419c0.008,0.02959 0.01657,0.06016 0.02571,0.0916c1.36678,1.33352 2.34567,4.00341 3.01968,6.08032c1.0577,1.78438 2.3125,4.27499 2.39132,6.08098l0.05181,-0.01298l0.07185,0.28667c0.02819,0.10224 -0.01122,0.2152 -0.1049,0.27605c-0.11578,0.07521 -0.27061,0.04233 -0.34585,-0.07345c-0.00044,-0.0007 -0.00088,-0.00136 -0.00132,-0.00206l-0.26866,-0.42129l0.00716,-0.00457l-0.02017,-0.01839c-0.55748,-1.48538 -1.21126,-2.89624 -1.75523,-4.3775c-0.22465,-0.70133 -0.48127,-1.34021 -0.75776,-1.95016c-0.13433,-0.23567 -0.27479,-0.46777 -0.42267,-0.69538c-0.16854,-0.26058 -0.2965,-0.53946 -0.42165,-0.82005c0.01918,0.22133 -0.01526,0.48437 -0.11974,0.78272c-0.32575,1.38002 -1.23783,2.06843 -2.03137,2.80642l0.03051,0.15398c0.02201,0.09894 -0.01791,0.2055 -0.1079,0.26395c-0.10111,0.06569 -0.23203,0.04894 -0.31367,-0.0335c-0.45929,0.48654 -0.82491,1.04208 -0.92332,1.84911l0.01364,0.48147c0.00388,0.08567 -0.03645,0.1711 -0.11356,0.2212c-0.10775,0.07001 -0.24933,0.04638 -0.32908,-0.05057l-0.26161,-0.30862l0.05813,-0.04928c-0.4259,-0.45615 -0.58762,-0.91258 -0.56414,-1.35793c-0.03341,-0.01685 -0.0678,-0.03377 -0.10309,-0.05068c0.32275,2.1836 2.07356,3.86401 2.70424,5.88209c0.03287,0.06434 0.06566,0.12905 0.09853,0.19419l0.15444,0.23771c0.07521,0.11578 0.04233,0.27061 -0.07344,0.34585c-0.11578,0.07521 -0.27061,0.04233 -0.34585,-0.07344l-0.15996,-0.24621l0.00537,-0.00349l-0.01239,-0.008c-0.02672,-0.05272 -0.05331,-0.10515 -0.07993,-0.15735c-0.36316,-0.27085 -0.72904,-1.08476 -0.92615,-1.39058c-0.35716,-0.55416 -0.76681,-1.30712 -1.1141,-2.10953c-0.35435,-0.62073 -0.71343,-1.24277 -1.08919,-1.83472l-0.00844,0.08092c-0.00703,0.07324 -0.04619,0.14271 -0.11268,0.1859c-0.11578,0.07521 -0.27061,0.04233 -0.34584,-0.07344c-0.02287,-0.03521 -0.03576,-0.07403 -0.03935,-0.11313l-0.04857,-0.42994l0.0149,-0.00169c-0.05553,-0.15004 -0.10301,-0.30257 -0.13689,-0.45856c-0.00145,-0.00666 -0.00287,-0.01373 -0.00427,-0.02118c-0.28331,0.00923 -0.565,0.02282 -0.8396,0.04898c-0.00135,0.00462 -0.00267,0.00926 -0.00396,0.01397c-0.01221,0.04469 -0.02042,0.09175 -0.02527,0.14076c0.17794,0.55197 0.34853,1.09525 0.44108,1.66054l0.0572,-0.01756l0.14511,0.4727c0.03498,0.10534 -0.00377,0.225 -0.10117,0.28828c-0.06779,0.04404 -0.14897,0.05103 -0.21971,0.02601c-0.11553,0.07335 -0.26885,0.04016 -0.3436,-0.07488l-0.21329,-0.32831l0.06524,-0.04238c-0.43675,-0.52257 -0.55604,-1.03705 -0.45629,-1.48329c-0.02689,-0.18472 -0.04436,-0.37101 -0.05057,-0.5517c-0.05357,0.01138 -0.10662,0.02362 -0.1591,0.03679c-0.27759,-0.06068 -0.53781,-0.21664 -0.7493,-0.40639l-0.00512,-0.00885l-0.00176,0.0016l-0.33443,-0.36532c-0.01037,-0.01093 -0.01992,-0.02298 -0.02843,-0.03608c-0.07521,-0.11578 -0.04233,-0.27061 0.07344,-0.34585c0.10522,-0.06836 0.2427,-0.04742 0.32336,0.04386l0.22601,0.24688c0.07582,0.01564 0.14928,0.02774 0.22054,0.03654c0.00417,-0.07704 0.04381,-0.1511 0.11346,-0.19633l0.32831,-0.21329l0.00787,0.01212l0.02747,-0.03123c0.22761,-0.06144 0.45464,-0.0999 0.68004,-0.12537c0.174,-0.06136 0.35365,-0.08411 0.50833,-0.03985c0.06091,-0.00317 0.12165,-0.00593 0.1822,-0.00848c0.61405,-0.45403 1.20394,-0.98463 2.23027,-0.94607c0.13437,0.00505 0.24266,0.04842 0.33022,0.11843zM227.0015,174.80233c-0.01087,0.01288 -0.0218,0.02573 -0.0328,0.0385c0.01998,-0.00808 0.03115,-0.01503 0.03163,-0.02112c0.00045,-0.00579 0.00083,-0.01159 0.00116,-0.01738zM228.08683,171.88623c-0.04258,-0.08201 -0.0852,-0.16434 -0.12789,-0.2471c0.02271,0.14956 0.03882,0.29622 0.04672,0.43831c0.05971,0.0276 0.11105,0.05557 0.1547,0.08381c-0.005,-0.00942 -0.01006,-0.01885 -0.01512,-0.02824c-0.03051,-0.05651 -0.04586,-0.15153 -0.05844,-0.2468zM227.99583,172.94018c-0.03391,0.02535 -0.06881,0.05032 -0.10413,0.07488c-0.03499,0.09108 -0.07839,0.17628 -0.13115,0.25463c-0.0014,0.00208 -0.00281,0.00417 -0.00425,0.00621l0.03768,-0.02449c0.04898,-0.03181 0.10493,-0.04429 0.1589,-0.03932c0.02398,-0.10062 0.03791,-0.1913 0.04296,-0.27191zM226.97895,173.28645c0.0011,-0.00075 0.00222,-0.00149 0.00332,-0.00223c0.08872,-0.10973 0.1889,-0.21637 0.28842,-0.31388c0.01737,-0.09868 0.03309,-0.20483 0.04852,-0.3146c-0.07907,0.06749 -0.16088,0.15327 -0.24303,0.25763c-0.08413,0.10688 -0.10875,0.2335 -0.09724,0.37311zM224.52214,176.85932c-0.02281,0.01607 -0.04578,0.03179 -0.06877,0.04714c0.01339,0.03957 0.02789,0.07951 0.04322,0.1198l0.02928,-0.13788c-0.00122,-0.00978 -0.00246,-0.01947 -0.00372,-0.02905zM227.41277,174.62488c0.11256,-0.18307 0.21314,-0.3822 0.29759,-0.60234c-0.04061,0.0515 -0.08364,0.09973 -0.12899,0.14227c0.01075,0.07879 -0.01666,0.15999 -0.07638,0.21605l-0.12083,0.11799c0.0113,0.04234 0.02097,0.0844 0.02861,0.12603zM223.20622,177.6929c-0.00723,-0.05973 -0.01328,-0.11877 -0.01807,-0.17703c-0.03375,0.00125 -0.06758,0.00244 -0.10148,0.00355c0.03994,0.05669 0.07978,0.11457 0.11955,0.17349zM224.83557,177.52397c0.00103,-0.00202 0.00206,-0.00404 0.00308,-0.00607c-0.00141,0.00103 -0.00284,0.00205 -0.00427,0.00308zM226.90082,175.29152c-0.15833,0.03122 -0.3303,0.07125 -0.45657,0.1241c-0.02371,0.14691 -0.05469,0.28341 -0.09241,0.41027c0.18765,-0.16975 0.37352,-0.34444 0.54897,-0.53436zM223.46388,176.68574c0.03436,0.03194 0.06957,0.0685 0.10568,0.10999c0.05516,-0.04938 0.11268,-0.09859 0.17223,-0.14704c-0.09204,0.01295 -0.18475,0.02516 -0.27791,0.03704zM224.18498,177.19173c0.00483,-0.00011 0.00966,-0.00021 0.01447,-0.00032c-0.00503,-0.01309 -0.00991,-0.02633 -0.01467,-0.03968c-0.00078,0.01252 -0.0007,0.02586 0.0002,0.04zM224.57308,178.25977c0.01106,-0.0492 0.02302,-0.09741 0.03588,-0.14464c-0.02083,-0.00928 -0.04051,-0.02145 -0.05836,-0.03638l-0.07124,-0.05679c0.03283,0.07954 0.0648,0.15942 0.09375,0.23781z" fill="#000000" fill-rule="nonzero" stroke="none" stroke-width="0.5" stroke-linecap="butt" stroke-linejoin="miter"/><path d="M247.59956,158.85787c0.02313,-0.11858 0.04129,-0.2441 0.0546,-0.37385c-0.02931,0.10125 -0.05422,0.19439 -0.07264,0.27648c0.00592,0.03258 0.01192,0.06503 0.01804,0.09737zM248.09048,157.01383c0.17367,0.99144 0.14823,2.21413 -0.285,2.7097c0.00685,0.04128 0.01361,0.08223 0.02031,0.12285c0.46159,1.70577 1.21431,3.06366 2.13891,4.45685c0.71509,0.64966 1.51025,1.28903 1.74862,2.17156l0.08456,-0.022l0.07644,0.29395c0.02931,0.10279 -0.01,0.21686 -0.10431,0.27813c-0.08369,0.05437 -0.18778,0.05227 -0.26748,0.00319l-0.37276,-0.21892l0.00798,-0.01358l-0.04918,-0.01666c-0.86107,-1.1446 -1.6362,-2.20663 -2.28029,-3.31556c-0.73006,-0.9483 -1.23299,-1.88204 -1.42803,-3.34645c-0.11921,-0.43517 -0.21932,-0.8889 -0.29866,-1.36592c0.03967,-0.19595 0.13411,-0.49139 0.23729,-0.81328c-0.22523,0.44583 -0.76322,0.68024 -1.31829,0.85347c-0.22792,0.27311 -0.45945,0.49213 -0.68297,0.63736c-0.24606,0.15985 -0.54404,0.30158 -0.84864,0.44514c0.11621,0.19647 0.35113,0.44034 0.7407,0.7499c0.31979,0.2541 0.52538,0.51745 0.90487,0.68341c1.41541,1.01051 4.32237,5.27148 4.0512,7.38979l0.11609,0.02466l-0.05751,0.2708v0v0c-0.01329,0.06258 -0.05046,0.12009 -0.10835,0.15772c-0.11578,0.07521 -0.27061,0.04233 -0.34585,-0.07344l-0.21329,-0.32831c-0.3535,-0.54809 -0.78844,-1.03396 -1.14851,-1.58817c-0.99438,-1.56351 -1.49524,-3.62305 -2.71106,-5.0772c-0.27799,-0.3325 -0.65395,-0.55281 -1.00686,-0.79674c0.01183,0.11069 0.0218,0.22126 0.03017,0.33042c0.35079,0.71617 0.74823,1.65291 1.04928,2.56918c0.3668,0.60534 0.6332,1.19908 0.64058,1.75319c-0.00778,0.65699 1.52128,4.91977 0.71169,4.84322c-0.5265,-0.04978 -1.23593,-3.21518 -1.48219,-3.64912c-0.0758,-0.28684 -0.15896,-0.59985 -0.25153,-0.92874c-0.5913,-0.72078 -1.49611,-1.75299 -1.49143,-2.13012c0.00494,-0.39791 0.14473,-0.77182 0.24697,-1.17753c-0.33854,-0.6336 -0.73758,-1.20211 -1.21222,-1.62906c-0.24041,0.04739 -0.57375,-0.03527 -0.99734,-0.3496c-0.04893,0.02537 -0.09764,0.05219 -0.14616,0.08052l-0.08912,-0.04086l-0.00841,0.03961l-0.27079,-0.05751c-0.06258,-0.01329 -0.12009,-0.05046 -0.15772,-0.10835c-0.07521,-0.11578 -0.04233,-0.27061 0.07344,-0.34584l0.24621,-0.15996l0.01036,0.01596c0.0073,-0.00994 0.01558,-0.01994 0.02493,-0.02998c0.03571,-0.03835 0.07197,-0.06119 0.107,-0.07331c1.63339,-1.43113 3.81702,-1.5583 4.93396,-4.11394c0.05363,-0.06729 0.10246,-0.13257 0.14684,-0.19604c-0.16391,-0.46041 -0.36511,-0.95791 -0.26825,-1.29581c0.12492,-0.4358 0.27448,-0.80539 0.44429,-1.10913c-0.00634,-0.05445 -0.01119,-0.11013 -0.01409,-0.1672c-0.22194,-0.14668 -0.31236,-0.34102 -0.15731,-0.60118c0.04369,-0.07331 0.09923,-0.12571 0.16477,-0.15975l-0.02547,-0.09792c-0.02931,-0.10279 0.00999,-0.21686 0.1043,-0.27813c0.11578,-0.07521 0.27061,-0.04233 0.34585,0.07345l0.15996,0.24621l-0.07074,0.04594l0.00282,0.01086c0.07279,0.02246 0.14894,0.05194 0.22774,0.08742c0.82716,-0.5273 1.87332,-0.07964 2.8871,1.32412c0.47099,0.71471 0.92257,1.43666 1.36613,2.16211c1.48479,1.42334 3.10659,3.29489 3.21719,4.99925l0.11306,-0.00197l0.00868,0.4956c0.00288,0.08472 -0.03742,0.1688 -0.11368,0.21835c-0.11578,0.07521 -0.27061,0.04233 -0.34585,-0.07344l-0.15996,-0.24621c-0.98315,-1.51333 -1.88421,-3.05029 -2.80804,-4.57577c-0.50173,-0.61805 -1.05231,-1.20837 -1.68637,-1.75015c-0.23264,-0.17445 -1.38888,-0.93911 -2.18726,-1.5309c-0.06874,0.02139 -0.13517,0.04672 -0.19836,0.07664c0.03245,0.50919 -0.03732,1.07798 -0.17921,1.65536c0.24114,0.26399 0.50594,0.53601 0.54471,0.78375c0.03101,0.19809 -0.0114,0.48135 -0.08652,0.79412zM246.33507,162.13221c1.0215,1.44987 1.61548,3.44224 2.49257,4.75541c0.1894,0.29156 0.3976,0.5635 0.6045,0.83536c-0.10426,-0.40916 -0.18145,-0.82547 -0.24304,-0.97696c-0.52643,-1.29462 -1.69464,-3.49253 -2.85402,-4.61382zM244.18989,161.84563c-0.12811,-0.37168 -0.26071,-0.68531 -0.40429,-0.90289l-0.11909,-0.18333c0.10515,0.34736 0.2932,0.71183 0.52337,1.08621zM244.86502,164.54995c-0.09626,-0.26615 -0.19969,-0.53201 -0.31119,-0.79311c-0.08405,0.24135 -0.16101,0.4529 -0.15691,0.45513c0.17064,0.09269 0.32536,0.20726 0.4681,0.33797zM243.89916,160.15092c-0.02771,0.01444 -0.05525,0.02901 -0.08253,0.04372c-0.01585,0.0114 -0.0317,0.02272 -0.04753,0.03387c0.03184,-0.00161 0.06367,0.00289 0.09369,0.01311l0.07377,0.02444c-0.01144,-0.03366 -0.02406,-0.0729 -0.0374,-0.11515zM247.41569,157.63397c0.06971,-0.22156 0.13699,-0.44488 0.18809,-0.64807c-0.03998,-0.22761 -0.09508,-0.43598 -0.16471,-0.60876c0.06952,0.25575 0.07909,0.49352 -0.0595,0.69077c0.05248,0.21412 0.06172,0.4014 0.03613,0.56605zM249.39312,153.85844c0.53225,0.45505 0.97227,0.87893 1.11713,0.98659c0.03309,0.02881 0.06674,0.05814 0.10091,0.08799c-0.13746,-0.21467 -0.27635,-0.42878 -0.41695,-0.64225c-0.08233,-0.11469 -0.16329,-0.22266 -0.24295,-0.32383c-0.00267,0.00188 -0.00541,0.00374 -0.00818,0.00555c-0.07392,0.04801 -0.16378,0.05198 -0.23863,0.01843l-0.30408,-0.13096c-0.00232,-0.00053 -0.00474,-0.00103 -0.00728,-0.00153zM246.69835,157.76552c0.1056,-0.11757 0.17969,-0.24788 0.21091,-0.39458c-0.06803,0.13502 -0.1385,0.26683 -0.21091,0.39458zM246.38242,157.51944c-0.19821,0.27204 -0.42692,0.56447 -0.67608,0.8589c0.03526,-0.015 0.07026,-0.03018 0.10496,-0.04552c0.21312,-0.24473 0.4047,-0.51957 0.57113,-0.81337zM247.07272,155.38825c0.00204,0.00654 0.00409,0.01308 0.00621,0.01961c0.00042,-0.00362 0.00083,-0.00723 0.00124,-0.01086c-0.00249,-0.00291 -0.00496,-0.00582 -0.00744,-0.00875zM248.29957,153.01344c0.13108,-0.05171 0.26303,-0.08671 0.39305,-0.10197c-0.1844,-0.05391 -0.3595,-0.04921 -0.52593,0.01618c0.04399,0.02755 0.08832,0.0562 0.13289,0.08579z" fill="#000000" fill-rule="nonzero" stroke="none" stroke-width="0.5" stroke-linecap="butt" stroke-linejoin="miter"/></g><path d="M221.07511,215.70323c-0.45395,9.03227 -0.5222,16.11911 -5.31628,16.12848c-6.78755,0.01327 -4.37601,-7.56052 -3.92206,-16.59279c0.45395,-9.03227 2.35783,-17.77906 5.39157,-17.62659c3.03374,0.15247 4.30072,9.05863 3.84677,18.0909z" fill="#717171" fill-rule="nonzero" stroke="#001026" stroke-width="1.2" stroke-linecap="butt" stroke-linejoin="miter"/><g><path d="M249.23766,138.01857c0,0 -0.05361,0.24418 -0.29779,0.19058c-0.24418,-0.0536 -0.19058,-0.29779 -0.19058,-0.29779c0.14194,-0.64663 0.28388,-1.29326 0.42582,-1.93989c-0.01031,-0.41496 -0.01472,-0.82611 -0.01496,-1.23116l-0.00002,-0.35868c0,0 -0.00001,-0.25 0.24999,-0.25001c0.07092,0 0.12172,0.02012 0.15812,0.04894c0.37024,-1.68663 0.74048,-3.37327 1.11071,-5.0599c0.75043,-3.4186 1.50085,-6.83721 2.25127,-10.25581c0.46692,-2.12709 -0.17829,-8.26755 -1.40643,-10.09837c-0.6344,-0.9718 -1.5055,-1.83687 -2.10661,-2.61145c-1.38727,-1.78762 2.87981,-4.53503 3.9844,-5.53708c2.18403,-1.98129 6.62252,-3.96023 9.50006,-4.61207c3.41352,-0.77326 6.82703,-1.54651 10.24054,-2.31976c3.41352,-0.77326 6.82702,-1.54651 10.24054,-2.31977c3.41447,-0.77347 6.83193,-1.5299 10.25295,-2.27384c3.42007,-0.74374 6.84014,-1.48747 10.2602,-2.2312c2.81567,-0.6123 7.84004,-2.80868 10.21646,-1.11423c2.87839,2.05237 5.62867,4.0246 8.85607,5.48103c1.01846,0.45959 3.36034,1.43443 3.95588,2.41889c0.92265,1.52519 -0.00534,4.48772 -0.21029,6.11008c-0.12309,0.97408 -0.60652,2.44128 -0.44047,3.39831c0.33773,1.94663 2.2405,4.39449 3.14227,6.17298c1.65459,3.26323 2.90147,6.15792 3.72588,9.72811c1.30712,1.39619 2.85818,2.97456 3.87935,4.20647c0.62856,0.75828 0.41264,3.62042 0.51331,4.6176c0.33139,3.28269 -0.92868,6.97869 -1.26707,10.35557c-0.02361,3.41943 -0.37251,7.05128 0.24123,10.41741c0.60005,3.2911 2.83444,6.39631 3.7685,9.65087c0.40841,1.42302 1.11324,4.69351 0.44261,6.1168c-0.55719,1.18255 -2.78021,2.093 -3.87119,2.63669c-3.5179,0.19527 -7.03837,0.14868 -10.56063,0.15302c-3.52868,0.00435 -6.97499,-0.40499 -10.46901,-0.48812c-3.55915,-0.02095 -6.83293,1.01075 -10.2195,1.96951c-1.21242,0.01693 -2.42491,0.02241 -3.63742,0.02376l-0.20027,0.09786c-2.24424,1.09644 -4.55192,2.05868 -6.86918,2.98761c-2.75427,1.82925 -6.3195,3.26325 -9.48703,4.42608c-2.78878,1.02313 -6.25064,3.60865 -8.30009,5.91545c-1.02722,1.1562 -0.92832,2.32895 -1.64358,3.47271c-0.87406,1.39769 -4.32705,2.51868 -5.77468,3.25072c-1.28034,0.64745 -2.43389,2.08135 -3.79965,2.46116c-1.91595,0.53281 -4.07595,0.30636 -6.04123,0.30835c-3.57033,0.0668 -6.82443,0.59616 -10.27327,1.52731c-3.02019,0.80863 -7.35672,1.13456 -10.49156,1.13354c-1.74216,-0.00259 -3.91562,0.26871 -5.558,-0.43177c-1.46305,-0.624 -4.19377,-3.06639 -1.03794,-3.06687c3.60358,-0.00535 6.78945,-0.27866 8.792,-3.36687c0.83883,-1.59294 2.44861,-3.24707 4.2579,-4.18739c0.00494,-0.00793 0.00822,-0.0123 0.00822,-0.0123c1.80907,-2.41209 3.03211,-5.04602 3.53159,-8.02933c0.54464,-3.22594 0.08507,-6.84022 0.08507,-10.2934c0.01998,-3.50836 2.30083,-6.41767 2.33234,-10.07909c0.00312,-3.49776 0.17904,-6.92913 -0.64598,-10.34381c-0.96978,-1.96604 -1.40167,-4.29337 -1.57793,-6.60828c-0.0103,0.04694 -0.02061,0.0939 -0.03092,0.14084z" fill="#000000" fill-rule="nonzero" stroke="none" stroke-width="0.5" stroke-linecap="butt" stroke-linejoin="miter"/><g><path d="M318.96018,113.40767c8.06376,-2.2913 15.98214,-9.53131 15.98214,-9.53131c0,0 -4.74777,18.39829 -12.81153,20.68959c-8.06376,2.2913 -8.38467,-0.31705 -9.26021,-3.39833c-0.87554,-3.08128 -1.97416,-5.46865 6.0896,-7.75995z" data-paper-data="{&quot;index&quot;:null}" fill="url(#color-4)" fill-rule="nonzero" stroke="#001026" stroke-width="1.2" stroke-linecap="butt" stroke-linejoin="miter"/><g><g><g><path d="M314.74674,102.13155c0.32414,-0.15793 0.80618,0.00826 0.8516,0.41807l1.14061,10.95212c0,0 5.71141,5.51633 7.15137,9.04145c2.43299,5.87968 1.9282,10.35239 1.9282,10.35239c0,0 6.75397,3.03379 7.17822,8.84328c0.42424,5.80948 -5.38526,15.92132 -24.51174,17.065c-19.12646,1.14368 -33.4055,-5.93653 -38.91147,-18.1862c-5.50597,-12.24968 7.41778,-24.22368 6.71586,-23.51143l0.32108,-18.0199c-0.04541,-0.4098 0.49031,-0.63999 0.85986,-0.38812l10.93042,9.4523c0,0 4.68743,-1.08075 9.37176,-0.64822c2.80151,0.17755 5.15296,0.69781 7.37848,1.40284z" fill="url(#color-5)" fill-rule="evenodd" stroke="#001026" stroke-width="1.2" stroke-linecap="butt" stroke-linejoin="miter"/><path d="M325.46754,133.25171c0,0 6.59604,2.70967 7.02027,8.51915c0.42424,5.80948 -5.71454,15.37218 -24.62941,16.44359c-24.65208,1.70726 -34.11567,-14.10573 -26.05381,-23.71075c8.07528,-9.70412 18.25009,0.85682 26.65464,1.38947c7.20198,0.47073 8.84017,-5.66494 17.00832,-2.64146z" fill="#ffffff" fill-rule="evenodd" stroke="none" stroke-width="1" stroke-linecap="butt" stroke-linejoin="miter"/><path d="M343.55352,136.81095c-5.16742,3.13492 -12.31572,2.26781 -12.31572,2.26781" fill="none" fill-rule="evenodd" stroke="#001026" stroke-width="1.2" stroke-linecap="round" stroke-linejoin="round"/><path d="M340.7623,147.73519c-6.31011,-0.34995 -9.91988,-2.75613 -9.91988,-2.75613" fill="none" fill-rule="evenodd" stroke="#001026" stroke-width="1.2" stroke-linecap="round" stroke-linejoin="round"/><path d="M308.41177,133.26303c2.08101,0.28181 4.23426,0.77523 4.23943,1.48231c-0.08878,1.40076 -1.95095,3.97414 -3.54989,3.85853c-1.81056,-0.04336 -5.63707,-3.08437 -5.42237,-4.66988c0.06194,-1.20257 2.75093,-0.93933 4.73284,-0.67095z" fill="#001026" fill-rule="evenodd" stroke="#001026" stroke-width="1.2" stroke-linecap="round" stroke-linejoin="round"/><path d="M264.02009,125.73783c0,0 8.14646,3.92875 11.19881,7.47039" fill="none" fill-rule="evenodd" stroke="#001026" stroke-width="1.2" stroke-linecap="round" stroke-linejoin="round"/><path d="M275.0465,136.71682c-4.48924,1.10758 -11.67469,-0.97551 -11.67469,-0.97551" fill="none" fill-rule="evenodd" stroke="#001026" stroke-width="1.2" stroke-linecap="round" stroke-linejoin="round"/><path d="M306.62983,147.17745c-0.36131,2.66803 11.48454,31.23483 5.29252,27.00679c-16.75606,-11.44138 -17.64447,-2.82138 -24.95558,-1.69077c-8.09716,1.25216 -4.75779,-27.55188 -4.61534,-28.60379c0.36131,-2.66803 4.91818,5.05236 11.62247,5.96024c6.7043,0.90789 13.01722,-5.34051 12.65591,-2.67248z" fill="#000000" fill-rule="nonzero" stroke="#001026" stroke-width="1.2" stroke-linecap="butt" stroke-linejoin="miter"/></g><path d="M296.90936,133.86823c-0.05262,0.0804 -0.103,0.16244 -0.11673,0.22517c-0.00229,0.01042 -0.0046,0.02086 -0.00696,0.03126c-0.01466,-0.04988 -0.03533,-0.10458 -0.06257,-0.16445c0.08672,-0.11285 0.17018,-0.2345 0.25054,-0.36267c-0.02165,0.09055 -0.04306,0.18077 -0.06429,0.27069zM296.15281,134.60763c-0.0564,0.05779 -0.12613,0.11742 -0.20995,0.17804c-0.03766,-0.03897 -0.0882,-0.06601 -0.14608,-0.07386l-0.04454,-0.00603c0.00243,-0.00063 0.00486,-0.00129 0.00727,-0.00195c0.0911,-0.02495 0.17958,-0.0612 0.26552,-0.1074c0.04278,0.00443 0.08552,0.00828 0.12776,0.01118zM295.15619,134.20665c0.08236,-0.11331 0.18363,-0.19321 0.31712,-0.21933c0.13034,-0.02549 0.2483,-0.03713 0.35225,-0.0367c-0.08332,0.07312 -0.16448,0.14331 -0.24202,0.20677c-0.13903,0.00898 -0.28453,0.02444 -0.42336,0.04972c-0.00132,-0.00014 -0.00265,-0.00032 -0.00397,-0.00047zM290.96332,135.31165c-0.00529,0.00808 -0.01067,0.01624 -0.01613,0.02444l-0.11214,0.0854c0.01466,-0.04053 0.02973,-0.08027 0.0454,-0.11899c0.02745,0.00337 0.05511,0.00644 0.08288,0.00914zM294.61184,135.50402c0.02137,-0.03653 0.04148,-0.0747 0.06054,-0.11417l0.16854,-0.0106c0.08184,-0.00352 0.15558,-0.04718 0.19884,-0.1139c0.06213,-0.00266 0.1262,-0.01114 0.19057,-0.02368c-0.20763,0.11175 -0.41376,0.19705 -0.61851,0.26236zM289.4222,135.0849c0.00831,-0.07061 0.01587,-0.14047 0.02258,-0.20949c0.02641,0.02127 0.05281,0.04245 0.07922,0.06352c-0.03438,0.04728 -0.06832,0.09598 -0.1018,0.14596zM290.76829,136.01679c0.00176,0.00016 0.0035,0.00031 0.00525,0.00045c-0.0021,0.00086 -0.0042,0.00172 -0.00629,0.00259zM293.78889,135.67527c-0.25687,0.02947 -0.5117,0.0406 -0.76466,0.04683c0.11135,-0.07153 0.22388,-0.15478 0.33769,-0.25065c0.13018,0.04231 0.28663,0.12419 0.42699,0.20382zM290.27457,134.48968c0.07835,0.05177 0.15657,0.103 0.23478,0.15323c-0.07675,-0.00213 -0.15246,-0.00237 -0.22647,-0.00093c-0.0003,-0.055 -0.00314,-0.10568 -0.00834,-0.1523zM290.0883,136.40626c0.0292,-0.07831 0.05709,-0.15971 0.0841,-0.2414l0.01694,0.08952c0.0038,0.02296 0.01077,0.04502 0.0205,0.06564c-0.04055,0.0274 -0.08107,0.05613 -0.12155,0.08621z" fill="#000000" fill-rule="nonzero" stroke="none" stroke-width="0.5" stroke-linecap="butt" stroke-linejoin="miter"/><path d="M320.19728,136.72434c0.01645,-0.02849 0.03307,-0.05701 0.04984,-0.08557c0.06752,-0.0502 0.14717,-0.10452 0.23543,-0.16214c-0.09474,0.08965 -0.19037,0.17291 -0.28527,0.2477zM317.1028,138.38093c0.14713,1.60617 -0.40141,4.03406 -0.84704,5.35867c-0.05215,0.15499 -0.26526,0.52087 -0.45317,0.89898c0.02055,-0.34103 0.04017,-0.68294 0.08684,-1.02748c0.19199,-1.56744 1.04163,-3.46492 1.21335,-5.23016zM314.41136,139.25423c-0.02292,-0.19219 -0.06543,-0.37996 -0.13428,-0.56153c-0.00165,-0.00437 0.19467,-0.1145 0.41583,-0.24257c-0.08584,0.27062 -0.18089,0.53959 -0.28157,0.8041zM316.50247,135.40185l-0.03996,-0.06665c-0.01608,-0.02734 -0.03726,-0.05151 -0.06245,-0.07106c0.01927,0.00187 0.03867,0.00365 0.05812,0.00534c0.03027,0.00665 0.06064,0.01356 0.09107,0.0207c-0.01745,0.04071 -0.03349,0.0787 -0.04678,0.11167zM320.85638,135.6768c0.12683,-0.10808 0.242,-0.25604 0.34192,-0.45256c0.23372,-0.05908 0.38159,-0.24551 0.49575,-0.4847c-0.05995,0.17638 -0.15412,0.37023 -0.27232,0.56882c-0.17127,0.12066 -0.36796,0.24602 -0.56534,0.36845zM324.81817,134.10545c0.00158,0.00203 0.00309,0.004 0.00451,0.00591l0.14503,0.29763c0.03485,0.07427 0.10553,0.12989 0.19288,0.14172c0.00328,0.00044 0.00655,0.00081 0.00981,0.00113c-0.00563,0.12864 -0.0147,0.26329 -0.02713,0.40392c-0.03271,0.25352 -0.06713,0.5064 -0.103,0.75877c-0.00643,-0.04491 -0.0128,-0.08911 -0.01908,-0.13253c-0.03956,-0.1761 -0.09652,-0.78441 -0.20301,-1.47652zM320.64417,135.14706c-0.11938,0.09081 -0.26053,0.14124 -0.41727,0.16145c0.13822,-0.04958 0.27763,-0.1035 0.41727,-0.16145zM320.14803,134.91591c-0.31781,0.11409 -0.64231,0.19739 -0.96348,0.24383c-0.0363,-0.01099 -0.07274,-0.02233 -0.10925,-0.03396c0.3809,-0.0606 0.74503,-0.13302 1.07272,-0.20988zM322.06156,133.75106c-0.00003,0.00384 -0.00005,0.00766 -0.00007,0.01149c-0.00268,0.00248 -0.00534,0.00496 -0.00802,0.00743c0.00266,-0.00632 0.00537,-0.01263 0.00809,-0.01891zM324.5407,132.75164c-0.01448,-0.0515 -0.02939,-0.10213 -0.04475,-0.15171c0.16879,0.05903 0.30457,0.16971 0.40915,0.33086c-0.1085,-0.07326 -0.23133,-0.13283 -0.36441,-0.17915z" fill="#000000" fill-rule="nonzero" stroke="none" stroke-width="0.5" stroke-linecap="butt" stroke-linejoin="miter"/></g><path d="M304.17069,129.23782c0,3.30207 -4.11825,5.97893 -9.19835,5.97893c-5.08011,0 -9.75026,-12.78571 -9.75026,-12.78571c0,0 18.94862,3.50471 18.94862,6.80679z" fill="#ffffff" fill-rule="nonzero" stroke="#001026" stroke-width="1.2" stroke-linecap="butt" stroke-linejoin="miter"/><path d="M331.4564,124.14532c0,0 -4.67015,12.78571 -9.75026,12.78571c-5.08011,0 -9.19835,-2.67686 -9.19835,-5.97893c0,-3.30207 18.94861,-6.80679 18.94861,-6.80679z" data-paper-data="{&quot;index&quot;:null}" fill="#ffffff" fill-rule="nonzero" stroke="#001026" stroke-width="1.2" stroke-linecap="butt" stroke-linejoin="miter"/></g><path d="M283.05064,119.64532c0,3.42417 -1.92518,6.2 -4.3,6.2c-2.37482,0 -4.3,-2.77584 -4.3,-6.2c0,-3.42417 1.92518,-6.2 4.3,-6.2c2.37482,0 4.3,2.77584 4.3,6.2z" fill="#000000" fill-rule="nonzero" stroke="#001026" stroke-width="1.2" stroke-linecap="butt" stroke-linejoin="miter"/><path d="M281.58167,113.32778c0.2095,-0.05237 0.28328,0.12145 0.29949,0.16978c0.10287,0.03097 0.17781,0.12645 0.17781,0.23942c0,0.0324 -0.00616,0.06336 -0.01738,0.09177c0.24334,0.22558 0.67776,0.08247 0.95081,0.40503c0.69777,0.8243 1.52812,2.43057 1.56657,3.58653c-0.02992,1.94557 -0.16153,3.88744 -1.20044,5.95882c-1.40157,2.0502 -3.12104,4.76535 -5.93455,3.74129c-0.40759,-0.70195 -1.52321,-1.28831 -1.60958,-2.065c-0.14651,-1.31736 1.06027,-0.59529 1.31509,0.11917l-0.04444,0.10487c1.38331,0.89753 3.25828,-0.40478 4.26985,-1.75354c0.94351,-1.41627 2.1548,-2.40462 2.20313,-4.25448c-0.02616,-0.02445 -0.04039,-0.04579 -0.04039,-0.04579c-0.86041,-1.34622 -1.19358,-3.11082 -2.0897,-4.59338l-0.12907,-0.11852c0,0 -0.17678,-0.17678 0,-0.35356c0.00906,-0.00906 0.01812,-0.01718 0.02715,-0.02446l-0.1837,-0.04877c0.00289,-0.1094 0.00073,-0.25721 0.01939,-0.39026c-0.06194,-0.12161 0.02259,-0.24841 0.02259,-0.24841c0.06966,-0.09002 0.13932,-0.18003 0.20898,-0.27005c-0.00284,-0.07489 0.01762,-0.20778 0.1884,-0.25047z" fill="#cf0000" fill-rule="nonzero" stroke="none" stroke-width="0.5" stroke-linecap="butt" stroke-linejoin="miter"/><path d="M281.0035,121.96088c-1.89599,2.58187 -3.10717,4.91416 -9.86397,-0.04769c-6.7568,-4.96185 -4.78402,-23.86017 -4.78402,-23.86017c0,0 4.89321,9.54855 11.65001,14.5104c6.7568,4.96185 4.89396,6.81559 2.99797,9.39746z" fill="url(#color-6)" fill-rule="nonzero" stroke="#001026" stroke-width="1.2" stroke-linecap="butt" stroke-linejoin="miter"/></g></g></g></g></svg>