<svg version="1.1" xmlns="http://www.w3.org/2000/svg" xmlns:xlink="http://www.w3.org/1999/xlink" width="66.76122" height="56.29436" viewBox="0,0,66.76122,56.29436"><g transform="translate(-219.8846,-152.19953)"><g data-paper-data="{&quot;isPaintingLayer&quot;:true}" fill-rule="nonzero" stroke="none" stroke-linecap="butt" stroke-linejoin="miter" stroke-miterlimit="10" stroke-dasharray="" stroke-dashoffset="0" style="mix-blend-mode: normal"><path d="M220.36824,188.95533c-0.02239,-0.20085 0.13385,-0.35708 0.13385,-0.35708c1.68744,-1.68744 1.8391,-2.97392 2.90472,-4.99997c0.40676,-0.77336 1.17887,-1.32836 1.62307,-2.05785c1.15491,-1.89663 1.76168,-4.28527 2.87889,-6.25252c1.34901,-2.34996 4.13148,-6.97356 6.54566,-8.29707c1.94952,-1.06878 5.32064,-1.82582 7.50385,-2.38448c3.30569,-0.82733 6.753,-2.04415 10.12022,-2.5281c2.78534,-0.40033 4.81812,0.57568 7.03918,-1.44651c1.01813,-0.95673 1.34054,-2.47712 2.30521,-3.55643c3.38322,-3.78522 7.97792,-4.88463 12.82725,-4.87573c4.64194,1.16875 5.33467,7.63173 6.52097,11.63511c0.38806,1.30955 0.5209,2.78166 1.44702,3.81416c1.26989,1.46776 2.02117,3.78485 2.51327,5.60945c0.24776,0.91862 0.17854,2.37632 0.78771,3.18961c0.90678,1.21062 1.35964,2.59493 1.00692,4.29195c-0.27809,1.33798 -1.22034,2.79409 -1.77258,4.04784c-0.88017,1.99789 -2.30187,5.03114 -2.29358,7.24276c0.01261,3.36185 3.495,7.03557 1.80772,10.35326c-2.30154,0.30755 -4.8784,0.34616 -7.19998,0.18152c-3.5741,-0.25347 -7.44301,-1.71389 -10.82872,-0.14845c-3.13946,1.45158 -6.29893,2.86629 -9.40243,4.39331c-1.16294,0.5722 -2.88568,1.88836 -4.23519,1.65674c-1.17095,-0.20098 -2.39672,-1.23024 -3.03722,-2.1478c-0.79513,-1.16307 -2.09118,-2.96921 -3.40085,-3.56791c-1.03348,-0.47244 -2.35638,-0.50516 -3.33571,-1.08294c-0.43023,-0.25382 -0.80529,-0.68496 -1.30143,-0.74295c-2.81146,-0.32861 -5.08487,0.12455 -7.71567,-1.1943c-2.64972,-1.32769 -6.02512,-2.86804 -8.37204,-4.46264c-1.1215,-0.762 -0.22138,-1.46996 -1.28909,-2.05293c-1.75213,-0.95667 -5.04035,-1.9772 -4.09823,-4.12567c0.10793,-0.04499 0.2136,-0.08966 0.31723,-0.13433z" fill="#000000" stroke-width="0.5"/><path d="M257.90271,171.1835c1.1075,3.69147 -1.32979,7.89896 -5.44384,9.39769c-4.11404,1.49872 -13.48078,-10.30832 -13.48078,-10.30832c0,0 17.81711,-2.78083 18.92461,0.91065z" data-paper-data="{&quot;index&quot;:null}" fill="#ffffff" stroke-width="0"/><path d="M262.4215,171.11075c-1.1075,-3.69146 14.70292,-13.16094 14.70292,-13.16094c0,0 -1.13444,15.63256 -5.24849,17.13128c-4.11405,1.49872 -8.34695,-0.27886 -9.45444,-3.97034z" data-paper-data="{&quot;index&quot;:null}" fill="#ffffff" stroke-width="0"/></g></g></svg>