<svg version="1.1" xmlns="http://www.w3.org/2000/svg" xmlns:xlink="http://www.w3.org/1999/xlink" width="103.8053" height="101.25415" viewBox="0,0,103.8053,101.25415"><defs><linearGradient x1="254.97548" y1="207.07383" x2="256.92089" y2="225.57182" gradientUnits="userSpaceOnUse" id="color-1"><stop offset="0" stop-color="#ffffff"/><stop offset="1" stop-color="#9f9f9f"/></linearGradient></defs><g transform="translate(-198.97785,-139.47071)"><g data-paper-data="{&quot;isPaintingLayer&quot;:true}" stroke-miterlimit="10" stroke-dasharray="" stroke-dashoffset="0" style="mix-blend-mode: normal"><path d="M245.49935,198.47537c-0.11802,2.21722 -1.49731,10.50561 0.61622,12.23275c2.03406,1.61015 9.28498,0.95878 8.75869,5.84682c-0.50752,4.78983 -6.9109,3.66872 -11.93365,1.18238c-6.51932,-3.17939 -7.65531,-14.28972 -2.48824,-20.0222c1.90482,-1.97779 5.18376,-1.55519 5.04698,0.76026z" data-paper-data="{&quot;index&quot;:null}" fill="#717171" fill-rule="evenodd" stroke="#001026" stroke-width="1.2" stroke-linecap="round" stroke-linejoin="round"/><g fill-rule="nonzero" stroke="#001026" stroke-width="1.2" stroke-linejoin="miter"><g><g><path d="M254.06942,212.80001l-1.12959,-10.74077l2.58574,-0.27194l1.12959,10.74077z" fill="#2c2c2c" stroke-linecap="butt"/><path d="M255.44488,224.29421l2.39185,-0.1976l0.62059,14.79915z" fill="#6c6c6c" stroke-linecap="butt"/><path d="M253.24118,225.95881l-1.94541,-18.49798l7.35941,-0.77398l1.94541,18.49799z" fill="url(#color-1)" stroke-linecap="butt"/><path d="M251.56771,210.04656l3.60118,-0.17763" fill="none" stroke-linecap="round"/><path d="M252.32113,213.38608l3.20336,-0.13579" fill="none" stroke-linecap="round"/><path d="M252.37324,215.79383l2.82648,0.10495" fill="none" stroke-linecap="round"/><path d="M255.35643,219.30105l-2.18793,0.2301" fill="none" stroke-linecap="round"/><path d="M253.08447,222.55654l3.0463,0.28293" fill="none" stroke-linecap="round"/></g><path d="M250.45868,203.3257l-0.29286,-2.78464l7.55832,-0.7949l0.29286,2.78465z" fill="#2c2c2c" stroke-linecap="butt"/></g><path d="M254.57164,215.66318c0.30615,2.91106 -0.73691,5.40673 -2.32975,5.57424c-1.59284,0.16752 -3.13228,-2.05656 -3.43843,-4.96761c-0.30615,-2.91106 0.73692,-5.40673 2.32976,-5.57425c1.59284,-0.16752 3.13228,2.05656 3.43843,4.96762z" fill="#717171" stroke-linecap="butt"/><path d="M264.6111,213.60183c0.46789,4.44897 -1.42364,8.2944 -4.22484,8.589c-2.8012,0.2946 -5.45132,-3.07318 -5.91922,-7.52215c-0.46789,-4.44897 1.42363,-8.2944 4.22483,-8.589c2.8012,-0.2946 5.45133,3.07318 5.91923,7.52215z" fill="#717171" stroke-linecap="butt"/></g><g fill-rule="evenodd"><path d="M227.55264,206.39127c0.65837,0.75268 3.44087,1.74655 0.11595,4.20316c-3.43214,2.36441 -12.28869,5.93956 -21.75679,-1.26981c-10.2187,-7.85483 -6.01168,-19.90477 -1.65413,-20.63405c4.25782,-0.72177 3.08826,6.38612 6.76524,13.93132c5.23612,10.93769 15.87135,3.01669 16.52972,3.76938z" fill="#717171" stroke="#001026" stroke-width="1.2" stroke-linecap="round" stroke-linejoin="round"/><path d="M207.44025,193.66563c0.82899,4.35003 2.05144,7.26647 2.05144,7.26647c0,0 -1.74566,-1.8742 -4.10885,-1.29511c-2.85427,0.71635 -3.5715,3.17716 -3.61866,3.8827c-0.82568,-1.64264 -1.58168,-3.69166 -1.65258,-7.2965c0.23576,-3.52766 2.15921,-7.2827 4.6822,-7.07156c2.02439,0.24869 2.04482,1.85168 2.64644,4.51402z" fill="#ffffff" stroke="none" stroke-width="1" stroke-linecap="butt" stroke-linejoin="miter"/></g><path d="M248.3198,236.3753c0,3.86599 -11.83333,3 -11.83333,3c0,0 -10.5,0.86599 -10.5,-3c0,-3.45051 2.7452,-32.89294 7.69909,-34.5825c3.83539,-1.30808 4.43187,28.24917 5.13424,28.24917c6.53537,0 9.5,2.46734 9.5,6.33333z" fill="#717171" fill-rule="nonzero" stroke="#001026" stroke-width="1.2" stroke-linecap="butt" stroke-linejoin="miter"/><path d="M242.3198,237.04197c0,3.86599 -11.83333,3 -11.83333,3c0,0 -10.5,0.86599 -10.5,-3c0,-3.45051 2.7452,-32.89294 7.69909,-34.58249c3.83539,-1.30808 4.43187,28.24916 5.13424,28.24916c6.53537,0 9.5,2.46734 9.5,6.33333z" fill="#717171" fill-rule="nonzero" stroke="#001026" stroke-width="1.2" stroke-linecap="butt" stroke-linejoin="miter"/><g fill-rule="evenodd"><path d="M227.86869,213.31527c-9.02654,-1.70797 -5.01594,-9.70414 -2.93229,-18.91274c1.09141,-4.98184 4.21675,-10.71725 10.3175,-11.18726c3.40832,-0.43961 3.76967,5.87297 5.86035,5.18081c3.14956,-0.99009 3.87211,3.79299 3.68291,6.44331c0,0 -0.34549,3.94089 -1.08227,6.12198c-0.89013,2.74366 -1.97278,5.54151 -2.88415,6.73289c0,0 -3.23837,7.46087 -12.96204,5.621z" fill="#717171" stroke="#001026" stroke-width="1.2" stroke-linecap="round" stroke-linejoin="round"/><path d="M240.06166,207.80979c0,0 -1.76896,-0.74886 -3.71544,-1.75942c-2.41279,-1.191 -4.74431,-2.0932 -3.65873,-5.61904c1.08264,-2.79783 1.85236,-6.33867 6.96964,-4.76594c4.87058,1.43438 3.71875,4.35555 3.71875,4.35555c-0.8989,4.92767 -3.31422,7.78886 -3.31422,7.78886z" fill="#ffffff" stroke="none" stroke-width="1" stroke-linecap="butt" stroke-linejoin="miter"/></g><path d="M234.53076,192.65552c0,0 -2.42407,20.79016 -2.25,25c0.3042,7.35711 -7.22771,13.27571 -8.5,-0.75c-1.31493,-14.49575 2.5,-25.25 2.5,-25.25" fill="#717171" fill-rule="nonzero" stroke="#001026" stroke-width="1.2" stroke-linecap="round" stroke-linejoin="miter"/><g><path d="M280.63973,150.48078c0.34858,-0.09216 0.78931,0.16427 0.75449,0.57511l-1.00253,10.96562c0,0 4.53465,6.5182 5.2645,10.25549c1.24795,6.2396 -0.11367,10.52982 -0.11367,10.52982c0,0 6.03837,4.28463 5.32922,10.06625c-0.70915,5.78162 -8.36737,14.57659 -27.35311,11.99363c-18.98574,-2.58296 -31.62281,-12.29505 -34.65161,-25.37925c-3.0288,-13.0842 11.96963,-22.32796 11.14303,-21.76518l3.80562,-17.61639c0.03482,-0.41084 0.605,-0.53289 0.91876,-0.21421l8.89239,11.39059c0,0 4.80799,-0.15228 9.31981,1.17945c2.71406,0.71687 4.92019,1.68277 6.96699,2.80555z" fill="#717171" fill-rule="evenodd" stroke="#001026" stroke-width="1.2" stroke-linecap="butt" stroke-linejoin="miter"/><path d="M279.29925,179.66205c-1.3181,3.85393 -8.1585,5.0041 -15.27847,2.56897c-7.11997,-2.43513 -11.82332,-7.53341 -10.50522,-11.38734c1.3181,-3.85393 8.1585,-5.0041 15.27847,-2.56897c7.11997,2.43513 11.82332,7.53341 10.50522,11.38734z" fill="#393939" fill-rule="nonzero" stroke="none" stroke-width="NaN" stroke-linecap="butt" stroke-linejoin="miter"/><path d="M285.12923,183.08821c0,0 5.94622,3.93605 5.23707,9.71767c-0.70915,5.78162 -8.58405,13.97405 -27.34819,11.36119c-24.51586,-3.10041 -30.73707,-20.44707 -20.96733,-28.3085c9.8021,-7.95605 17.73844,4.3758 25.88061,6.52641c6.97438,1.8569 9.77007,-3.84522 17.19783,0.70323z" fill="#ffffff" fill-rule="evenodd" stroke="none" stroke-width="1" stroke-linecap="butt" stroke-linejoin="miter"/><path d="M302.18316,190.08345c-5.67681,2.07456 -12.52175,-0.16082 -12.52175,-0.16082" fill="none" fill-rule="evenodd" stroke="#001026" stroke-width="1.2" stroke-linecap="round" stroke-linejoin="round"/><path d="M297.32868,200.26009c-6.12281,-1.56565 -9.19809,-4.62549 -9.19809,-4.62549" fill="none" fill-rule="evenodd" stroke="#001026" stroke-width="1.2" stroke-linecap="round" stroke-linejoin="round"/><path d="M268.3943,179.79544c1.987,0.67958 4.0039,1.58076 3.87199,2.27546c-0.35843,1.35703 -2.68383,3.52095 -4.23009,3.09779c-1.76787,-0.39326 -4.93284,-4.1179 -4.41506,-5.6318c0.29371,-1.16779 2.88079,-0.38866 4.77317,0.25856z" fill="#001026" fill-rule="evenodd" stroke="#001026" stroke-width="1.2" stroke-linecap="round" stroke-linejoin="round"/><path d="M226.30114,163.81371c0,0 7.23113,5.43238 9.53961,9.49821" fill="none" fill-rule="evenodd" stroke="#001026" stroke-width="1.2" stroke-linecap="round" stroke-linejoin="round"/><path d="M234.99197,176.72066c-4.61876,0.217 -11.2646,-3.21852 -11.2646,-3.21852" fill="none" fill-rule="evenodd" stroke="#001026" stroke-width="1.2" stroke-linecap="round" stroke-linejoin="round"/><path d="M283.34559,172.54361c1.28771,5.19633 -0.26808,10.05426 -3.49992,10.85129c-3.23183,0.79704 -6.90473,-2.67857 -8.28705,-7.90726c-1.28771,-5.19633 0.26808,-10.05426 3.49992,-10.85129c3.26419,-0.89165 6.99935,2.71093 8.28705,7.90726z" fill="#ffffff" fill-rule="evenodd" stroke="#001026" stroke-width="1.2" stroke-linecap="round" stroke-linejoin="round"/><path d="M258.97396,167.16742c1.41469,5.13407 -0.52204,10.17878 -3.69162,11.10279c-0.48419,0.09455 -0.96792,0.13073 -1.44627,0.11089c-3.21384,-0.13327 -6.18449,-2.79475 -7.41589,-7.26366c-1.50931,-5.16643 0.22077,-10.07044 3.86591,-11.14887c3.67749,-1.17305 7.27318,2.06478 8.68787,7.19885z" fill="#ffffff" fill-rule="evenodd" stroke="#001026" stroke-width="1.2" stroke-linecap="round" stroke-linejoin="round"/><path d="M256.70578,200.00596c-1.4298,4.18053 -4.28337,6.98998 -6.37364,6.27508c-2.09027,-0.7149 -2.62568,-4.68343 -1.19588,-8.86396c1.4298,-4.18053 4.28337,-6.98998 6.37364,-6.27508c2.09027,0.7149 2.62568,4.68343 1.19588,8.86396z" fill="#000000" fill-rule="nonzero" stroke="#001026" stroke-width="1.2" stroke-linecap="butt" stroke-linejoin="miter"/></g></g></g></svg>