<svg version="1.1" xmlns="http://www.w3.org/2000/svg" xmlns:xlink="http://www.w3.org/1999/xlink" width="93.95053" height="103.39931" viewBox="0,0,93.95053,103.39931"><g transform="translate(-196.92553,-137.32556)"><g data-paper-data="{&quot;isPaintingLayer&quot;:true}" stroke-miterlimit="10" stroke-dasharray="" stroke-dashoffset="0" style="mix-blend-mode: normal"><path d="M245.46977,192.7c4,6.6 0.8,17.3 -6.2,19.2c-5.4,1.5 -11.9,1.4 -11.5,-3.4c0.4,-4.9 7.4,-2.9 9.7,-4.1c2.4,-1.3 2.6,-9.7 2.9,-11.9c0.3,-2.3 3.6,-2.1 5.1,0.2z" data-paper-data="{&quot;index&quot;:null}" fill="#878787" fill-rule="evenodd" stroke="#001026" stroke-width="1.2" stroke-linecap="round" stroke-linejoin="round"/><g fill-rule="evenodd"><path d="M224.78334,201.3c0.6,0.8 3.3,2 -0.2,4.2c-3.6,2.1 -12.7,5 -21.6,-2.9c-9.6,-8.6 -4.5,-20.3 -0.1,-20.7c4.3,-0.4 2.6,6.6 5.7,14.4c4.4,11.3 15.6,4.2 16.2,5z" fill="#878787" stroke="#001026" stroke-width="1.2" stroke-linecap="round" stroke-linejoin="round"/><path d="M205.68334,187.1c0.5,4.4 1.5,7.4 1.5,7.4c0,0 -1.6,-2 -4,-1.6c-2.9,0.5 -3.8,2.9 -3.9,3.6c-0.7,-1.7 -1.3,-3.8 -1.1,-7.4c0.5,-3.5 2.7,-7.1 5.2,-6.7c2,0.4 1.9,2 2.3,4.7z" fill="#ffffff" stroke="none" stroke-width="1" stroke-linecap="butt" stroke-linejoin="miter"/></g><path d="M226.4449,192.91737c-0.53175,2.35738 -4.44264,4.53794 -4.94762,5.53543c-0.10149,0.2995 2.95576,4.87478 4.76209,7.62381c2.60084,3.853 -2.54229,8.48745 -6.4501,6.02796c-3.6083,-2.35799 -7.86791,-10.47931 -8.27824,-12.42138c-1.03797,-4.42523 7.15496,-10.58688 12.52673,-14.78095" fill="#878787" fill-rule="evenodd" stroke="#001026" stroke-width="1.2" stroke-linecap="round" stroke-linejoin="round"/><path d="M248.3198,236.3753c0,3.86599 -11.83333,3 -11.83333,3c0,0 -10.5,0.86599 -10.5,-3c0,-3.45051 2.7452,-32.89294 7.69909,-34.5825c3.83539,-1.30808 4.43187,28.24917 5.13424,28.24917c6.53537,0 9.5,2.46734 9.5,6.33333z" fill="#878787" fill-rule="nonzero" stroke="#001026" stroke-width="1.2" stroke-linecap="butt" stroke-linejoin="miter"/><path d="M242.3198,237.04197c0,3.86599 -11.83333,3 -11.83333,3c0,0 -10.5,0.86599 -10.5,-3c0,-3.45051 2.7452,-32.89294 7.69909,-34.58249c3.83539,-1.30808 4.43187,28.24916 5.13424,28.24916c6.53537,0 9.5,2.46734 9.5,6.33333z" fill="#878787" fill-rule="nonzero" stroke="#001026" stroke-width="1.2" stroke-linecap="butt" stroke-linejoin="miter"/><g fill-rule="evenodd"><path d="M228.46746,211.92774c-9.18562,-0.14169 -6.59918,-8.70522 -6.1184,-18.13437c0.22478,-5.09504 2.32496,-11.27985 8.25588,-12.7846c3.28322,-1.01509 4.71707,5.1431 6.65887,4.10414c2.93427,-1.51331 4.46287,3.07617 4.72896,5.71988c0,0 0.33245,3.94201 -0.02111,6.21687c-0.40861,2.85536 -0.99765,5.79696 -1.69222,7.12646c0,0 -1.91695,7.90424 -11.81198,7.75161z" fill="#878787" stroke="#001026" stroke-width="1.2" stroke-linecap="round" stroke-linejoin="round"/><path d="M239.54139,204.42127c0,0 -1.87085,-0.43583 -3.96129,-1.09921c-2.58071,-0.76155 -5.03204,-1.25242 -4.5644,-4.91184c0.58904,-2.9416 0.7429,-6.56186 6.05356,-5.88595c5.04397,0.58172 4.40781,3.65665 4.40781,3.65665c-0.04435,5.00879 -1.93568,8.24035 -1.93568,8.24035z" fill="#ffffff" stroke="none" stroke-width="1" stroke-linecap="butt" stroke-linejoin="miter"/></g><path d="M220.06371,195.99621l2.11464,-8.76682l4.89755,0.85834l-2.11464,8.76682z" fill="#878787" fill-rule="nonzero" stroke="#001026" stroke-width="0" stroke-linecap="butt" stroke-linejoin="miter"/><g><g><g fill-rule="evenodd"><g><path d="M256.75496,137.82124c0.29787,-0.20316 0.7989,-0.10846 0.90312,0.29046l2.71315,10.67187c0,0 6.44941,4.63198 8.38424,7.91167c3.25806,5.46581 3.40569,9.96449 3.40569,9.96449c0,0 7.12183,2.02471 8.38213,7.71167c1.26029,5.68698 -3.02512,16.53296 -21.78489,20.43181c-18.75977,3.89886 -33.91292,-1.04098 -41.13323,-12.36516c-7.22031,-11.32419 3.83506,-25.04202 3.24356,-24.2357l-2.28941,-17.87677c-0.10423,-0.39892 0.39256,-0.70419 0.79466,-0.50844l12.18297,7.77144c0,0 4.48175,-1.74756 9.17937,-1.9973c2.79772,-0.22964 5.19971,-0.05506 7.50381,0.32057z" fill="#878787" stroke="#001026" stroke-width="1.2" stroke-linecap="butt" stroke-linejoin="miter"/><path d="M271.86545,167.06289c0,0 6.91867,1.72683 8.17896,7.41381c1.26029,5.68698 -3.43039,16.03722 -21.99122,19.83395c-24.1457,5.25596 -35.79753,-9.02146 -29.21014,-19.69181c6.58633,-10.77035 18.18204,-1.79263 26.57521,-2.48154c7.1943,-0.57622 7.92756,-6.88433 16.44719,-5.07443z" fill="#ffffff" stroke="none" stroke-width="1" stroke-linecap="butt" stroke-linejoin="miter"/><path d="M290.27606,167.96801c-4.6595,3.84954 -11.85804,4.02578 -11.85804,4.02578" fill="none" stroke="#001026" stroke-width="1.2" stroke-linecap="round" stroke-linejoin="round"/><path d="M289.09472,179.18114c-6.29435,0.56668 -10.21425,-1.29191 -10.21425,-1.29191" fill="none" stroke="#001026" stroke-width="1.2" stroke-linecap="round" stroke-linejoin="round"/><path d="M254.99075,169.54171c2.09987,-0.02224 4.30188,0.15446 4.40928,0.85336c0.11482,1.39886 -1.35545,4.21458 -2.9543,4.33153c-1.79777,0.21905 -6.02403,-2.23634 -6.04096,-3.83626c-0.11271,-1.19887 2.58608,-1.32745 4.58598,-1.34864z" fill="#001026" stroke="#001026" stroke-width="1.2" stroke-linecap="round" stroke-linejoin="round"/><path d="M209.97741,168.51827c0,0 8.62917,2.70878 12.1618,5.77155" fill="none" stroke="#001026" stroke-width="1.2" stroke-linecap="round" stroke-linejoin="round"/><path d="M222.47622,177.78644c-4.28176,1.74543 -11.69299,0.72386 -11.69299,0.72386" fill="none" stroke="#001026" stroke-width="1.2" stroke-linecap="round" stroke-linejoin="round"/><g fill="#ffffff" stroke="#001026" stroke-width="1.2" stroke-linecap="round" stroke-linejoin="round"><path d="M266.66621,157.71741c2.94748,4.46904 3.10147,9.5677 0.3207,11.39723c-2.78079,1.82955 -7.40276,-0.22163 -10.45023,-4.68961c-2.94748,-4.46904 -3.1316,-10.23368 -0.35081,-12.06323c2.77973,-1.92954 7.53288,0.88656 10.48036,5.35561z"/></g><g fill="#ffffff" stroke="#001026" stroke-width="1.2" stroke-linecap="round" stroke-linejoin="round"><path d="M241.89725,160.77986c3.04642,4.36799 2.90361,9.7698 0.22388,11.69828c-3.27969,1.93484 -7.69427,0.5815 -10.74069,-3.78649c-3.14641,-4.36693 -1.3287,-10.48586 1.74782,-12.71856c3.07546,-2.33269 5.72257,0.43878 8.76899,4.80677z"/></g></g></g><path d="M264.35434,179.63804c0.13308,2.94251 -18.2536,16.17456 -26.52941,16.54884c-8.27581,0.37429 -7.54124,-11.80915 -7.67433,-14.75167c-0.13308,-2.94251 8.79342,1.52093 17.06924,1.14664c8.27581,-0.37429 17.00141,-5.88632 17.13449,-2.94382z" fill="#ffffff" fill-rule="nonzero" stroke="#001026" stroke-width="1.2" stroke-linecap="butt" stroke-linejoin="miter"/><path d="M234.75646,194.74071l-0.13303,-14.0083" fill="none" fill-rule="nonzero" stroke="#001026" stroke-width="1.2" stroke-linecap="round" stroke-linejoin="miter"/></g><path d="M260.34137,168.95335c0.00268,-0.07768 0.02733,-0.16453 0.08636,-0.25937c0.26418,-0.4245 0.6887,-0.16031 0.6887,-0.16031c0.42478,0.27765 3.9651,1.091 4.25392,0.68143c0.24859,-0.35252 0.3652,-0.91247 0.77937,-1.03306c0.90549,-0.26362 2.15095,-0.45904 2.45293,-1.76035l0.01951,-0.51942c0.00065,-0.03567 0.00513,-0.07182 0.01377,-0.10793c0.06428,-0.26856 0.3341,-0.43415 0.60266,-0.36987c0.21873,0.05236 0.36917,0.24107 0.38272,0.4544l0.05684,0.65321c0.3463,0.7184 0.67942,1.51172 0.75449,2.10519c0.08152,0.64457 -0.99664,2.2853 -1.17557,3.24262l0.32926,0.32272c0.12557,0.11887 0.18596,0.29967 0.14282,0.47989c-0.05539,0.23141 -0.2634,0.38638 -0.49171,0.38369l-0.90574,0.0091l-0.00017,-0.01691c-0.04646,0.0014 -0.09307,0.00096 -0.13982,-0.00163c-0.40669,-0.02256 -0.61422,-0.91003 -0.97972,-0.73027c-1.43292,0.70477 0.05731,2.48969 -2.18361,2.25699c-1.23909,-0.12867 -0.58764,-0.80058 -1.25682,-1.29017c-1.08834,-0.79623 -4.05643,-3.02489 -3.66698,-4.27216z" fill="#222222" fill-rule="nonzero" stroke="none" stroke-width="0.5" stroke-linecap="butt" stroke-linejoin="miter"/><path d="M232.75845,171.57123c0.21017,-0.0183 0.33937,0.0598 0.41852,0.15621c0.00157,-0.00355 0.00319,-0.00712 0.00484,-0.01071c0.20949,-0.45399 0.66349,-0.2445 0.66349,-0.2445c1.3175,0.60909 5.28217,1.64825 7.62169,1.38747l0.1232,-0.51471c0.22359,-0.83626 0.81529,-1.49129 1.53795,-1.9868c0.76487,-1.20446 2.3693,-3.47034 2.48622,-1.00186c0.00696,0.14718 -0.08815,0.35037 -0.23174,0.58221c0.07766,0.1041 0.14129,0.2464 0.18751,0.4326c0.55328,2.22852 -0.55911,4.84764 -2.82135,4.99802c-1.21269,0.08061 0.09499,2.50995 -2.19086,1.45289c-0.34194,-0.15812 -0.48893,-0.57329 -0.7334,-0.85994c-0.41637,-0.31156 -2.74163,-0.93251 -3.19876,-0.80031c-0.52307,0.1513 -1.31122,1.52049 -2.09101,0.89251c-1.22578,-0.98714 -0.00047,-2.30815 -1.912,-3.18094l-0.31908,-0.76068c0,0 -0.04334,-0.49811 0.45478,-0.54146zM233.13096,172.00753c-0.00105,-0.00717 -0.00191,-0.01442 -0.0026,-0.02179l-0.08661,-0.02034c0.03022,0.01407 0.05994,0.0281 0.0892,0.04213z" fill="#222222" fill-rule="nonzero" stroke="none" stroke-width="0.5" stroke-linecap="butt" stroke-linejoin="miter"/></g></g></g></svg>