<svg version="1.1" xmlns="http://www.w3.org/2000/svg" xmlns:xlink="http://www.w3.org/1999/xlink" width="97.47767" height="66.02268" viewBox="0,0,97.47767,66.02268"><g transform="translate(-186.86462,-133.36267)"><g data-paper-data="{&quot;isPaintingLayer&quot;:true}" fill-rule="nonzero" stroke="none" stroke-linecap="butt" stroke-linejoin="miter" stroke-miterlimit="10" stroke-dasharray="" stroke-dashoffset="0" style="mix-blend-mode: normal"><path d="M189.18875,165.13162c0.55165,-1.88124 0.59871,-3.75057 0.95295,-5.72869c0.21727,-1.21324 1.00293,-2.21587 1.11884,-3.48097c0.17744,-1.93658 0.12639,-3.73619 0.9749,-5.55147c0.67194,-1.46554 0.29212,-2.94122 0.76129,-4.45299c1.74557,-5.62456 5.32545,-7.84171 10.61982,-9.81306c1.85776,-0.32569 4.83621,-1.07226 6.69272,-0.58367c3.90679,1.02816 8.23422,2.34416 12.18475,0.52714c1.89085,-0.86911 3.46223,-0.88068 5.4018,-1.35996c2.08722,-0.51576 3.96598,-1.67082 6.38676,-1.22502c2.33216,0.42948 4.86196,1.59496 7.06714,2.48046c1.22842,0.50904 2.23944,0.0683 3.51587,0.21272c3.10598,0.35142 7.13939,0.68634 10.08495,1.68699c1.32583,0.4504 6.39754,0.60107 3.54805,2.5578c-2.58854,1.18163 -4.96068,2.18735 -7.4455,3.53855c-3.12545,1.69957 -6.59636,3.07784 -4.78641,7.52633c2.05376,2.74989 4.60554,5.35629 6.8034,8.35276c0.78884,1.07548 0.29079,2.47247 1.10528,3.38078c0.93564,1.04343 2.50509,1.82211 3.68944,2.54595c1.18346,0.73318 3.84275,0.59842 4.27141,2.17297c0.51555,1.89366 -2.33305,4.31141 -2.73113,6.05589c-0.60039,2.631 0.57172,5.35998 2.04263,7.41894c0.85696,1.21899 2.25772,1.95314 3.41506,2.88491c3.8433,3.09418 8.20651,5.1854 12.54701,7.58266c2.13603,1.17973 6.1368,2.59423 6.67243,5.15021c0.08725,0.41634 0.44098,1.90966 0.1426,2.23694c-0.15592,0.17102 -1.9007,0.14095 -2.21587,0.12443c-2.50431,-0.13127 -4.92448,-0.69075 -7.37365,-1.1894c-6.3157,-1.28792 -12.69522,-3.02385 -18.68706,-5.50978c-5.85045,-2.4285 -12.7358,-2.54866 -18.9208,-3.67568c-6.26992,-1.14518 -12.90127,-2.92257 -18.69414,-5.52982c-2.86794,-1.2908 -6.42248,-2.60868 -9.5722,-2.92183c-2.1363,-0.2124 -4.5468,0.34092 -6.57347,-0.62048c-0.84209,-0.39947 -1.43077,-1.02348 -2.34612,-1.37304c-2.26472,-0.88178 -3.31291,-2.76553 -4.59506,-4.44936c-0.52137,-0.68471 -1.00896,-2.35311 -1.86847,-2.85766c-0.49577,-0.29102 -0.90943,-0.72173 -1.26078,-1.17674c-0.6658,-0.86223 -2.45824,-0.54231 -3.33575,-1.0403c-1.58969,-0.90216 -1.89008,-1.91689 -1.91682,-3.65004c0.8935,-0.34609 1.58351,-0.31491 2.32407,-0.24648z" fill="#000000" stroke-width="0.5"/><path d="M222.99679,153.53296c1.10139,-4.12074 22.78131,-2.32607 22.78131,-2.32607c0,0 -10.55203,13.58898 -15.6126,12.2364c-5.06057,-1.35259 -8.27011,-5.78961 -7.16873,-9.91035z" data-paper-data="{&quot;index&quot;:null}" fill="#ffffff" stroke-width="0"/><path d="M217.11131,153.79539c-1.10139,4.12074 -6.09664,6.36478 -11.15721,5.01221c-5.06055,-1.35259 -7.42572,-18.39407 -7.42572,-18.39407c0,0 19.68428,9.26112 18.58291,13.38187z" data-paper-data="{&quot;index&quot;:null}" fill="#ffffff" stroke-width="0"/></g></g></svg>