<svg version="1.1" xmlns="http://www.w3.org/2000/svg" xmlns:xlink="http://www.w3.org/1999/xlink" width="77.1132" height="65.02335" viewBox="0,0,77.1132,65.02335"><g transform="translate(-228.75773,-138.39687)"><g data-paper-data="{&quot;isPaintingLayer&quot;:true}" fill-rule="nonzero" stroke="none" stroke-linecap="butt" stroke-linejoin="miter" stroke-miterlimit="10" stroke-dasharray="" stroke-dashoffset="0" style="mix-blend-mode: normal"><path d="M229.31636,180.85203c-0.02586,-0.23199 0.1546,-0.41245 0.1546,-0.41245c1.9491,-1.9491 2.12427,-3.43505 3.35512,-5.77527c0.46983,-0.89328 1.36166,-1.53433 1.87474,-2.37694c1.33399,-2.19072 2.03485,-4.94974 3.32529,-7.22204c1.55819,-2.71435 4.77211,-8.05488 7.56063,-9.58361c2.25181,-1.2345 6.14566,-2.10893 8.6674,-2.75422c3.81827,-0.95561 7.80012,-2.36111 11.68946,-2.92011c3.21724,-0.4624 5.56522,0.66495 8.13067,-1.6708c1.176,-1.10508 1.5484,-2.86122 2.66266,-4.10789c3.90782,-4.37216 9.21498,-5.64204 14.81624,-5.63176c5.36172,1.34998 6.16186,8.81511 7.53211,13.43925c0.44823,1.51261 0.60167,3.21298 1.67139,4.40558c1.4668,1.69535 2.33457,4.37173 2.90298,6.47925c0.28618,1.06106 0.20623,2.74479 0.90985,3.68419c1.04738,1.39834 1.57046,2.9973 1.16305,4.95746c-0.32121,1.54545 -1.40957,3.22734 -2.04744,4.6755c-1.01665,2.30768 -2.6588,5.81127 -2.64922,8.36582c0.01457,3.88314 4.03693,8.12651 2.08802,11.95863c-2.65842,0.35524 -5.63484,0.39984 -8.31641,0.20967c-4.1283,-0.29277 -8.59712,-1.97964 -12.50782,-0.17147c-3.62626,1.67666 -7.27564,3.31074 -10.86037,5.07454c-1.34327,0.66093 -3.33313,2.18117 -4.8919,1.91363c-1.35252,-0.23214 -2.76835,-1.421 -3.50817,-2.48084c-0.91842,-1.34341 -2.41544,-3.42962 -3.92819,-4.12115c-1.19373,-0.5457 -2.72176,-0.58349 -3.85294,-1.25086c-0.49694,-0.29318 -0.93016,-0.79117 -1.50323,-0.85815c-3.24741,-0.37956 -5.87333,0.14386 -8.91206,-1.37949c-3.06059,-1.53356 -6.95938,-3.31276 -9.67021,-5.15462c-1.2954,-0.88015 -0.25571,-1.69789 -1.48898,-2.37126c-2.02381,-1.10501 -5.82191,-2.28379 -4.7337,-4.7654c0.12467,-0.05197 0.24672,-0.10356 0.36642,-0.15516z" fill="#000000" stroke-width="0.5"/><path d="M272.67092,160.3245c1.27923,4.26387 -1.53599,9.12377 -6.28796,10.85489c-4.75196,1.73111 -15.57111,-11.90673 -15.57111,-11.90673c0,0 20.57983,-3.21203 21.85906,1.05185z" data-paper-data="{&quot;index&quot;:null}" fill="#ffffff" stroke-width="0"/><path d="M277.8904,160.24047c-1.27923,-4.26386 16.98275,-15.20167 16.98275,-15.20167c0,0 -1.31035,18.05654 -6.06232,19.78765c-4.75197,1.73111 -9.64123,-0.3221 -10.92045,-4.58598z" data-paper-data="{&quot;index&quot;:null}" fill="#ffffff" stroke-width="0"/></g></g></svg>