<svg version="1.1" xmlns="http://www.w3.org/2000/svg" xmlns:xlink="http://www.w3.org/1999/xlink" width="100.52419" height="101.05872" viewBox="0,0,100.52419,101.05872"><defs><linearGradient x1="257.42555" y1="207.42928" x2="256.07605" y2="225.98027" gradientUnits="userSpaceOnUse" id="color-1"><stop offset="0" stop-color="#ffffff"/><stop offset="1" stop-color="#9f9f9f"/></linearGradient></defs><g transform="translate(-202.31457,-139.66614)"><g data-paper-data="{&quot;isPaintingLayer&quot;:true}" stroke-miterlimit="10" stroke-dasharray="" stroke-dashoffset="0" style="mix-blend-mode: normal"><path d="M245.6484,198.82641c0.00596,2.22035 -0.90839,10.57282 1.29828,12.17926c2.12079,1.49407 9.32403,0.43885 9.07149,5.34865c-0.23929,4.8107 -6.69527,4.04887 -11.84901,1.84686c-6.68667,-2.81042 -8.44124,-13.83999 -3.60231,-19.85203c1.79142,-2.08106 5.08884,-1.8422 5.08156,0.47727z" data-paper-data="{&quot;index&quot;:null}" fill="#717171" fill-rule="evenodd" stroke="#001026" stroke-width="1.2" stroke-linecap="round" stroke-linejoin="round"/><g fill-rule="nonzero" stroke="#001026" stroke-width="1.2" stroke-linejoin="miter"><g><g><path d="M255.5232,212.90569l0.78359,-10.77154l2.59314,0.18864l-0.78359,10.77154z" fill="#2c2c2c" stroke-linecap="butt"/><path d="M254.84867,224.46223l2.38919,0.2276l-2.00079,14.67641z" fill="#6c6c6c" stroke-linecap="butt"/><path d="M252.38579,225.71182l1.34951,-18.55098l7.3805,0.5369l-1.34951,18.55099z" fill="url(#color-1)" stroke-linecap="butt"/><path d="M253.54667,209.75397l3.57601,0.46067" fill="none" stroke-linecap="round"/><path d="M253.69892,213.17404l3.17705,0.43164" fill="none" stroke-linecap="round"/><path d="M256.08891,216.15529l-2.7636,-0.6021" fill="none" stroke-linecap="round"/><path d="M255.64276,219.53182l-2.1942,-0.15962" fill="none" stroke-linecap="round"/><path d="M252.83196,222.33529l2.94856,0.81608" fill="none" stroke-linecap="round"/></g><path d="M253.64108,202.94288l0.20314,-2.79262l7.57997,0.55141l-0.20315,2.79263z" fill="#2c2c2c" stroke-linecap="butt"/></g><path d="M255.51226,215.81255c-0.21238,2.9194 -1.67948,5.19183 -3.27689,5.07561c-1.5974,-0.1162 -2.72019,-2.57704 -2.50782,-5.49644c0.21238,-2.9194 1.67949,-5.19183 3.2769,-5.07562c1.5974,0.1162 2.72019,2.57704 2.50782,5.49645z" fill="#717171" stroke-linecap="butt"/><path d="M265.75794,215.55525c-0.32457,4.46172 -2.86503,7.91299 -5.67426,7.70863c-2.80922,-0.20435 -4.82343,-3.98696 -4.49886,-8.44867c0.32457,-4.46172 2.86502,-7.913 5.67425,-7.70863c2.80922,0.20435 4.82344,3.98696 4.49887,8.44867z" fill="#717171" stroke-linecap="butt"/></g><g fill-rule="evenodd"><path d="M228.7338,207.87765c0.48973,0.87186 3.00875,2.41608 -0.74987,4.13736c-3.84462,1.60901 -13.24667,3.28875 -21.03205,-5.7117c-8.38737,-9.78631 -1.79495,-20.71517 2.61949,-20.53384c4.3153,0.1682 1.71067,6.8843 3.75941,15.02387c2.87781,11.77999 14.91327,6.21243 15.403,7.08431z" fill="#717171" stroke="#001026" stroke-width="1.2" stroke-linecap="round" stroke-linejoin="round"/><path d="M211.66419,191.29216c-0.08221,4.42755 0.51514,7.5329 0.51514,7.5329c0,0 -1.32347,-2.1928 -3.75521,-2.11148c-2.94055,0.11479 -4.14795,2.37581 -4.33903,3.05661c-0.47067,-1.77721 -0.78968,-3.93782 -0.11859,-7.48037c0.95534,-3.40402 3.60908,-6.6839 6.0349,-5.95903c1.93014,0.65921 1.62087,2.23221 1.66282,4.96135z" fill="#ffffff" stroke="none" stroke-width="1" stroke-linecap="butt" stroke-linejoin="miter"/></g><path d="M248.3198,236.3753c0,3.86599 -11.83333,3 -11.83333,3c0,0 -10.5,0.86599 -10.5,-3c0,-3.45051 2.7452,-32.89294 7.69909,-34.5825c3.83539,-1.30808 4.43187,28.24917 5.13424,28.24917c6.53537,0 9.5,2.46734 9.5,6.33333z" fill="#717171" fill-rule="nonzero" stroke="#001026" stroke-width="1.2" stroke-linecap="butt" stroke-linejoin="miter"/><path d="M242.3198,237.04197c0,3.86599 -11.83333,3 -11.83333,3c0,0 -10.5,0.86599 -10.5,-3c0,-3.45051 2.7452,-32.89294 7.69909,-34.58249c3.83539,-1.30808 4.43187,28.24916 5.13424,28.24916c6.53537,0 9.5,2.46734 9.5,6.33333z" fill="#717171" fill-rule="nonzero" stroke="#001026" stroke-width="1.2" stroke-linecap="butt" stroke-linejoin="miter"/><g fill-rule="evenodd"><path d="M228.87384,214.62757c-9.10782,-1.2013 -5.54995,-9.40893 -3.98372,-18.71951c0.81154,-5.03501 3.61177,-10.93598 9.67676,-11.74589c3.37846,-0.62923 4.09171,5.65333 6.14048,4.84551c3.08936,-1.1644 4.07785,3.57087 4.03693,6.22762c0,0 -0.12491,3.95403 -0.73876,6.17286c-0.73555,2.78908 -1.66029,5.64302 -2.50372,6.88342c0,0 -2.81674,7.63005 -12.62797,6.33597z" fill="#717171" stroke="#001026" stroke-width="1.2" stroke-linecap="round" stroke-linejoin="round"/><path d="M240.74039,208.44988c0,0 -1.80801,-0.64892 -3.80788,-1.54922c-2.47553,-1.05442 -4.85378,-1.82503 -3.96676,-5.40599c0.92473,-2.85392 1.49555,-6.43221 6.69266,-5.14766c4.94307,1.16019 3.95614,4.14112 3.95614,4.14112c-0.62236,4.97017 -2.87415,7.96176 -2.87415,7.96176z" fill="#ffffff" stroke="none" stroke-width="1" stroke-linecap="butt" stroke-linejoin="miter"/></g><path d="M233.8825,193.727c0,0 -2.56742,20.77295 -2.42239,24.98389c0.25344,7.35904 -7.31912,13.22553 -8.49463,-0.80862c-1.21491,-14.50448 2.67411,-25.23216 2.67411,-25.23216" fill="#717171" fill-rule="nonzero" stroke="#001026" stroke-width="1.2" stroke-linecap="round" stroke-linejoin="miter"/><g><path d="M274.74414,145.20402c0.32978,-0.14575 0.80531,0.03829 0.83543,0.44951l0.73174,10.98701c0,0 5.50189,5.72532 6.80952,9.30164c2.21221,5.96625 1.54114,10.41705 1.54114,10.41705c0,0 6.63624,3.28333 6.84372,9.10459c0.20748,5.82126 -5.97475,15.70962 -25.13056,16.13985c-19.1558,0.43023 -33.16111,-7.17711 -38.20683,-19.62343c-5.04572,-12.44631 8.3152,-23.93047 7.58723,-23.24487l0.99228,-17.99543c-0.03012,-0.41121 0.51382,-0.62128 0.87373,-0.35582l10.57064,9.85301c0,0 4.72444,-0.90534 9.3894,-0.29858c2.79295,0.28181 5.12338,0.88932 7.32109,1.67679z" fill="#717171" fill-rule="evenodd" stroke="#001026" stroke-width="1.2" stroke-linecap="butt" stroke-linejoin="miter"/><path d="M278.00234,174.23378c-0.69661,4.01309 -7.27156,6.22308 -14.68557,4.93613c-7.41401,-1.28694 -12.85956,-5.58346 -12.16295,-9.59655c0.69661,-4.01309 7.27156,-6.22308 14.68557,-4.93613c7.41401,1.28694 12.85956,5.58346 12.16295,9.59655z" fill="#393939" fill-rule="nonzero" stroke="none" stroke-width="NaN" stroke-linecap="butt" stroke-linejoin="miter"/><path d="M284.29798,176.70201c0,0 6.4905,2.95355 6.69798,8.7748c0.20748,5.82126 -6.28336,15.14858 -25.22501,15.51448c-24.69858,0.78754 -33.56639,-15.36709 -25.15225,-24.66505c8.43125,-9.39648 18.20549,1.53623 26.58435,2.38167c7.17944,0.73874 9.0451,-5.33162 17.09492,-2.00591z" fill="#ffffff" fill-rule="evenodd" stroke="none" stroke-width="1" stroke-linecap="butt" stroke-linejoin="miter"/><path d="M302.23875,180.93268c-5.28064,2.9402 -12.39168,1.80735 -12.39168,1.80735" fill="none" fill-rule="evenodd" stroke="#001026" stroke-width="1.2" stroke-linecap="round" stroke-linejoin="round"/><path d="M299.04244,191.74532c-6.2927,-0.58483 -9.81029,-3.12382 -9.81029,-3.12382" fill="none" fill-rule="evenodd" stroke="#001026" stroke-width="1.2" stroke-linecap="round" stroke-linejoin="round"/><path d="M267.25361,176.07782c2.06905,0.35915 4.20245,0.93245 4.18125,1.63926c-0.1409,1.39648 -2.09768,3.89869 -3.6912,3.72358c-1.80769,-0.11079 -5.51824,-3.29226 -5.2446,-4.86869c0.1067,-1.19942 2.78402,-0.83618 4.75456,-0.49414z" fill="#001026" fill-rule="evenodd" stroke="#001026" stroke-width="1.2" stroke-linecap="round" stroke-linejoin="round"/><path d="M223.17314,166.90382c0,0 7.99443,4.22956 10.91269,7.88247" fill="none" fill-rule="evenodd" stroke="#001026" stroke-width="1.2" stroke-linecap="round" stroke-linejoin="round"/><path d="M233.78282,178.28603c-4.52739,0.93955 -11.63023,-1.40982 -11.63023,-1.40982" fill="none" fill-rule="evenodd" stroke="#001026" stroke-width="1.2" stroke-linecap="round" stroke-linejoin="round"/><path d="M280.88075,166.56828c2.08766,4.92967 1.31397,9.97163 -1.75263,11.26624c-3.06659,1.29462 -7.23967,-1.56116 -9.42585,-6.50794c-2.08766,-4.92967 -1.31397,-9.97163 1.75263,-11.26624c3.08369,-1.39314 7.3382,1.57826 9.42585,6.50794z" fill="#ffffff" fill-rule="evenodd" stroke="#001026" stroke-width="1.2" stroke-linecap="round" stroke-linejoin="round"/><path d="M255.96726,165.08563c2.2033,4.84825 1.08271,10.13449 -1.90246,11.54472c-0.46334,0.16941 -0.93539,0.28109 -1.41092,0.33661c-3.1949,0.37302 -6.54661,-1.789 -8.46444,-6.00911c-2.30183,-4.86535 -1.36323,-9.98019 2.06736,-11.6176c3.44768,-1.73594 7.50717,0.89713 9.71047,5.74538z" fill="#ffffff" fill-rule="evenodd" stroke="#001026" stroke-width="1.2" stroke-linecap="round" stroke-linejoin="round"/><path d="M258.88354,197.87297c-0.75564,4.35318 -3.13267,7.57585 -5.30926,7.19803c-2.1766,-0.37781 -3.32851,-4.21305 -2.57287,-8.56623c0.75564,-4.35318 3.13267,-7.57585 5.30926,-7.19803c2.1766,0.37781 3.32851,4.21305 2.57287,8.56623z" fill="#000000" fill-rule="nonzero" stroke="#001026" stroke-width="1.2" stroke-linecap="butt" stroke-linejoin="miter"/></g></g></g></svg>