<svg version="1.1" xmlns="http://www.w3.org/2000/svg" xmlns:xlink="http://www.w3.org/1999/xlink" width="107.54247" height="95.0005" viewBox="0,0,107.54247,95.0005"><defs><linearGradient x1="256.17796" y1="204.30269" x2="262.14798" y2="221.91857" gradientUnits="userSpaceOnUse" id="color-1"><stop offset="0" stop-color="#ffffff"/><stop offset="1" stop-color="#9f9f9f"/></linearGradient><radialGradient cx="279.573" cy="175.01901" r="8.13758" gradientUnits="userSpaceOnUse" id="color-2"><stop offset="0" stop-color="#ffffff"/><stop offset="1" stop-color="#1a1a1a"/></radialGradient><radialGradient cx="257.51209" cy="176.49422" r="6.75889" gradientUnits="userSpaceOnUse" id="color-3"><stop offset="0" stop-color="#ffffff"/><stop offset="1" stop-color="#1a1a1a"/></radialGradient></defs><g transform="translate(-200.51079,-145.37716)"><g data-paper-data="{&quot;isPaintingLayer&quot;:true}" stroke-miterlimit="10" stroke-dasharray="" stroke-dashoffset="0" style="mix-blend-mode: normal"><path d="M245.04137,198.00134c0.373,2.1888 0.85223,10.57751 3.29414,11.79698c2.33864,1.12285 9.26826,-1.10881 9.83098,3.77516c0.55941,4.78404 -5.93368,5.10014 -11.38058,3.78055c-7.05931,-1.66617 -10.61338,-12.25383 -6.83507,-18.98319c1.42267,-2.34861 4.7142,-2.65824 5.09053,-0.36948z" data-paper-data="{&quot;index&quot;:null}" fill="#717171" fill-rule="evenodd" stroke="#001026" stroke-width="1.2" stroke-linecap="round" stroke-linejoin="round"/><g fill-rule="nonzero" stroke="#001026" stroke-width="1.2" stroke-linejoin="miter"><g><g><path d="M256.55476,210.08785l-3.46645,-10.22858l2.46242,-0.83452l3.46646,10.22859z" fill="#2c2c2c" stroke-linecap="butt"/><path d="M260.42691,220.99724l2.28966,-0.71931l3.86339,14.29944z" fill="#6c6c6c" stroke-linecap="butt"/><path d="M258.64374,223.10615l-5.97,-17.61588l7.00846,-2.37516l5.97,17.61588z" fill="url(#color-1)" stroke-linecap="butt"/><path d="M253.50825,207.9527l3.47372,-0.96606" fill="none" stroke-linecap="round"/><path d="M258.07326,210.20675l-3.09489,0.83767" fill="none" stroke-linecap="round"/><path d="M255.55927,213.38163l2.78023,-0.51988" fill="none" stroke-linecap="round"/><path d="M257.15779,216.85219l2.0836,-0.70613" fill="none" stroke-linecap="round"/><path d="M257.74185,219.82186l3.03385,-0.39465" fill="none" stroke-linecap="round"/></g><path d="M250.94684,201.64089l-0.89872,-2.65186l7.19789,-2.43935l0.89872,2.65185z" fill="#2c2c2c" stroke-linecap="butt"/></g><path d="M257.67498,212.77022c0.9395,2.77224 0.47145,5.4363 -1.04543,5.95037c-1.51688,0.51407 -3.50818,-1.31653 -4.44768,-4.08876c-0.9395,-2.77224 -0.47145,-5.43631 1.04543,-5.95039c1.51688,-0.51407 3.50818,1.31653 4.44768,4.08877z" fill="#717171" stroke-linecap="butt"/><path d="M267.01433,208.54925c1.43586,4.23682 0.4373,8.40433 -2.23032,9.30838c-2.66762,0.90405 -5.99414,-1.79767 -7.43,-6.03449c-1.43586,-4.23682 -0.4373,-8.40432 2.23032,-9.30837c2.66762,-0.90405 5.99415,1.79767 7.43,6.03448z" fill="#717171" stroke-linecap="butt"/></g><g fill-rule="evenodd"><path d="M228.93446,208.78806c-0.17601,0.98438 0.78739,3.77758 -3.20845,2.7177c-3.99089,-1.2012 -12.31738,-5.87983 -12.60791,-17.77669c-0.25585,-12.88621 11.77974,-17.13412 15.0727,-14.18852c3.22476,2.87245 -3.05459,6.40231 -6.64594,13.98862c-5.26495,10.92385 7.56562,14.2745 7.38959,15.25889z" fill="#717171" stroke="#001026" stroke-width="1.2" stroke-linecap="round" stroke-linejoin="round"/><path d="M226.29662,185.13448c-2.87741,3.36609 -4.38983,6.14323 -4.38983,6.14323c0,0 0.37184,-2.53411 -1.55729,-4.0168c-2.34323,-1.78023 -4.71241,-0.80198 -5.29262,-0.39779c0.76613,-1.67125 1.893,-3.54211 4.66259,-5.85067c2.901,-2.02094 7.03437,-2.86662 8.44656,-0.76524c1.07122,1.73565 -0.16728,2.75355 -1.8694,4.88726z" fill="#ffffff" stroke="none" stroke-width="1" stroke-linecap="butt" stroke-linejoin="miter"/></g><path d="M248.3198,236.3753c0,3.86599 -11.83333,3 -11.83333,3c0,0 -10.5,0.86599 -10.5,-3c0,-3.45051 2.7452,-32.89294 7.69909,-34.5825c3.83539,-1.30808 4.43187,28.24917 5.13424,28.24917c6.53537,0 9.5,2.46734 9.5,6.33333z" fill="#717171" fill-rule="nonzero" stroke="#001026" stroke-width="1.2" stroke-linecap="butt" stroke-linejoin="miter"/><path d="M216.55469,239.33768c-2.89749,2.55938 -10.0824,-6.88281 -10.0824,-6.88281c0,0 -7.60029,-7.29626 -4.7028,-9.85563c2.5861,-2.28431 26.47008,-19.71843 31.01596,-17.1241c3.5195,2.00859 -18.23826,22.02322 -17.77327,22.54963c4.32657,4.89814 4.44,8.75352 1.5425,11.3129z" fill="#717171" fill-rule="nonzero" stroke="#001026" stroke-width="1.2" stroke-linecap="butt" stroke-linejoin="miter"/><g fill-rule="evenodd"><path d="M228.14902,213.73474c-8.64103,-3.11901 -3.41211,-10.37725 0.10671,-19.13841c1.8683,-4.74546 5.86433,-9.91211 11.96234,-9.40785c3.43489,0.10692 2.78973,6.39683 4.96377,6.04528c3.26679,-0.47764 3.221,4.35948 2.61355,6.94618c0,0 -0.96661,3.8361 -2.04024,5.8726c-1.31432,2.5676 -2.82731,5.15814 -3.91623,6.18976c0,0 -4.3815,6.8523 -13.6899,3.49242z" fill="#717171" stroke="#001026" stroke-width="1.2" stroke-linecap="round" stroke-linejoin="round"/><path d="M241.06126,210.23431c0,0 -1.62767,-1.02014 -3.38908,-2.32683c-2.19317,-1.55887 -4.35194,-2.81968 -2.72051,-6.12853c1.51298,-2.59053 2.83495,-5.96431 7.63774,-3.59931c4.58118,2.18925 2.98031,4.89057 2.98031,4.89057c-1.66962,4.72253 -4.50845,7.1641 -4.50845,7.1641z" fill="#ffffff" stroke="none" stroke-width="1" stroke-linecap="butt" stroke-linejoin="miter"/></g><path d="M235.11727,197.41091c-0.91249,2.23772 -5.12893,3.74487 -5.7912,4.64564c-0.14941,0.27872 2.11315,5.29477 3.44239,8.3036c1.93123,4.22851 -3.90451,7.95328 -7.35424,4.88417c-3.17101,-2.9197 -6.03589,-11.63133 -6.121,-13.61446c-0.29549,-4.53572 8.79983,-9.2649 14.7886,-12.51768" fill="#717171" fill-rule="evenodd" stroke="#001026" stroke-width="1.2" stroke-linecap="round" stroke-linejoin="round"/><g><g><path d="M276.77175,147.4295c0.31489,-0.17562 0.80541,-0.03636 0.87344,0.3703l1.74484,10.87224c0,0 6.00787,5.19188 7.64069,8.63191c2.75459,5.73604 2.49806,10.22984 2.49806,10.22984c0,0 6.91148,2.65544 7.65653,8.43254c0.74503,5.77711 -4.49608,16.19491 -23.52997,18.39512c-19.03388,2.20021 -33.6828,-4.07908 -39.85811,-16.00532c-6.17531,-11.92625 6.06609,-24.597 5.40465,-23.84701l-0.67648,-18.01007c-0.06803,-0.40666 0.45415,-0.66615 0.83707,-0.4351l11.43668,8.83303c0,0 4.62044,-1.33846 9.32152,-1.16578c2.80705,0.02227 5.18368,0.41163 7.44479,0.99244z" fill="#717171" fill-rule="evenodd" stroke="#001026" stroke-width="1.2" stroke-linecap="butt" stroke-linejoin="miter"/><path d="M282.70112,176.03345c-0.32243,4.06033 -6.66478,6.86898 -14.16604,6.27333c-7.50126,-0.59565 -13.32086,-4.37008 -12.99845,-8.4304c0.32243,-4.06033 6.66478,-6.86898 14.16605,-6.27333c7.50126,0.59565 13.32086,4.37008 12.99845,8.4304z" fill="#000000" fill-rule="nonzero" stroke="none" stroke-width="NaN" stroke-linecap="butt" stroke-linejoin="miter"/><path d="M289.19807,177.90877c0,0 6.73586,2.34055 7.48089,8.11764c0.74503,5.77711 -4.85524,15.66482 -23.68184,17.78118c-24.51986,3.06867 -34.84389,-12.19646 -27.32583,-22.23283c7.52597,-10.13606 18.26955,-0.15429 26.69068,-0.08749c7.21699,0.07152 8.51317,-6.1454 16.83611,-3.57851z" fill="#ffffff" fill-rule="evenodd" stroke="none" stroke-width="1" stroke-linecap="butt" stroke-linejoin="miter"/><path d="M307.45326,180.46184c-4.98605,3.41603 -12.17138,2.94577 -12.17138,2.94577" fill="none" fill-rule="evenodd" stroke="#001026" stroke-width="1.2" stroke-linecap="round" stroke-linejoin="round"/><path d="M305.27076,191.5238c-6.31981,-0.00027 -10.05716,-2.20303 -10.05716,-2.20303" fill="none" fill-rule="evenodd" stroke="#001026" stroke-width="1.2" stroke-linecap="round" stroke-linejoin="round"/><path d="M272.16902,178.86378c2.09341,0.16624 4.27068,0.53975 4.31495,1.24547c-0.01114,1.40352 -1.72807,4.076 -3.33097,4.04904c-1.81019,0.05688 -5.7991,-2.76773 -5.67246,-4.36271c-0.0047,-1.20415 2.69475,-1.0901 4.68847,-0.93179z" fill="#001026" fill-rule="evenodd" stroke="#001026" stroke-width="1.2" stroke-linecap="round" stroke-linejoin="round"/><path d="M227.42897,173.80636c0,0 8.35138,3.47197 11.59499,6.8393" fill="none" fill-rule="evenodd" stroke="#001026" stroke-width="1.2" stroke-linecap="round" stroke-linejoin="round"/><path d="M239.04598,184.15843c-4.42108,1.35429 -11.71078,-0.32804 -11.71078,-0.32804" fill="none" fill-rule="evenodd" stroke="#001026" stroke-width="1.2" stroke-linecap="round" stroke-linejoin="round"/><path d="M285.97017,172.41801c2.53469,4.71544 1.11865,5.52391 -1.81505,7.09661c-2.9337,1.57271 -7.35304,-0.88484 -9.9874,-5.60819c-1.3182,-2.43552 -3.42385,-7.23206 -2.08541,-6.59067c15.2182,7.29263 12.94166,3.67309 13.48512,4.49504c0.13407,0.20278 0.28708,0.39197 0.40276,0.60719z" fill="url(#color-2)" fill-rule="evenodd" stroke="#001026" stroke-width="1.2" stroke-linecap="round" stroke-linejoin="round"/><path d="M259.91434,168.96265c2.64229,4.62367 2.01547,9.99089 -0.82647,11.67121c-3.44004,1.63281 -7.71542,-0.1111 -10.35771,-4.73476c8.81762,0.15876 8.54188,-11.56011 11.18417,-6.93644z" fill="url(#color-3)" fill-rule="evenodd" stroke="#001026" stroke-width="1.2" stroke-linecap="round" stroke-linejoin="round"/><path d="M270.52041,193.62444c-0.21312,2.68394 -18.31725,8.29475 -22.45108,5.62758c-4.59205,-2.96281 -2.01301,-7.05102 -1.97205,-7.56697c0.05682,-0.71559 0.23889,-0.29906 0.6042,-0.33654c1.00486,-0.10307 3.39174,1.03003 8.33787,1.42279c6.74426,0.53554 15.69417,-1.83082 15.48104,0.85313z" fill="#000000" fill-rule="nonzero" stroke="#001026" stroke-width="1.2" stroke-linecap="butt" stroke-linejoin="miter"/></g><path d="M255.78404,180.83215c0.01571,0.02577 0.02992,0.05516 0.04248,0.08837c0.13673,-0.01533 0.27931,-0.04165 0.4286,-0.08037c0.11757,0.00858 0.23588,0.01799 0.35465,0.02733c0.4579,-0.12413 0.8927,-0.25807 1.11437,-0.29471c0.26303,-0.08202 0.53959,-0.084 0.80625,-0.06791c0.12302,-0.34442 0.32728,-0.62944 0.80958,-0.69953c0.27227,-0.03958 0.51058,-0.01846 0.7052,0.04735c0.10622,-0.09941 0.21235,-0.19318 0.3157,-0.27301c0.5239,-0.99768 0.91413,-2.4913 1.14074,-3.01546l0.02082,-0.26213c0.01093,-0.13763 0.13137,-0.24035 0.269,-0.22942c0.13763,0.01093 0.24035,0.13137 0.22942,0.269l-0.02323,0.29269l-0.063,-0.005c0.00128,0.0073 0.00254,0.01463 0.0038,0.02197l0.05281,0.02271c-0.01169,0.02833 -0.02352,0.05778 -0.03545,0.08828c0.27087,1.89022 -0.58026,4.60356 -1.31168,6.66094c-0.24895,2.05931 -0.77206,4.79866 -1.81024,6.27852l0.04899,0.02128l-0.11775,0.27107c-0.03996,0.09824 -0.14004,0.16376 -0.2514,0.15492c-0.13763,-0.01093 -0.24035,-0.13137 -0.22942,-0.269c0.00006,-0.00081 0.00012,-0.00163 0.0002,-0.00245l0.04376,-0.49773l0.00847,0.00073l-0.00478,-0.02689c0.4633,-1.51738 0.80484,-3.03438 1.27635,-4.54028c0.24933,-0.69295 0.43525,-1.35585 0.58778,-2.00796c0.03715,-0.2687 0.06723,-0.53834 0.08871,-0.80892c0.02519,-0.3093 0.09371,-0.6084 0.1655,-0.90714c-0.11969,0.18717 -0.30731,0.37472 -0.57199,0.54757c-1.09933,0.89557 -2.242,0.88546 -3.3209,0.98693l-0.06964,0.14067c-0.04285,0.09184 -0.13945,0.15199 -0.24642,0.14351c-0.1202,-0.00955 -0.21379,-0.10262 -0.22827,-0.21773c-0.66066,0.10581 -1.28911,0.32342 -1.85899,0.90328l-0.28262,0.39003c-0.04913,0.0703 -0.13318,0.11343 -0.22486,0.10616c-0.12809,-0.01017 -0.22595,-0.11518 -0.23008,-0.24065l-0.01932,-0.40412l0.07613,-0.00364c-0.05965,-0.62122 0.09031,-1.08165 0.38034,-1.42041c-0.01621,-0.03371 -0.03317,-0.0681 -0.05083,-0.103c-1.07495,1.92789 -0.71102,4.32721 -1.44095,6.31154c-0.01315,0.07104 -0.0266,0.14233 -0.04024,0.21401l-0.02244,0.28259c-0.01093,0.13763 -0.13137,0.24034 -0.269,0.22942c-0.13763,-0.01093 -0.24035,-0.13136 -0.22942,-0.269l0.02324,-0.29271l0.00638,0.00051l-0.00495,-0.01391c0.01094,-0.05807 0.02181,-0.11586 0.03254,-0.17346c-0.12286,-0.43606 0.08311,-1.30433 0.11325,-1.66693c0.05457,-0.65703 0.18869,-1.50366 0.4024,-2.35148c0.09737,-0.70808 0.1918,-1.42009 0.25467,-2.1184l-0.056,0.059c-0.05022,0.05378 -0.12359,0.08499 -0.20264,0.07872c-0.13763,-0.01093 -0.24034,-0.13137 -0.22942,-0.269c0.00333,-0.04185 0.01677,-0.08048 0.03775,-0.11367l0.22352,-0.37047l0.01284,0.00775c0.04742,-0.15279 0.10273,-0.30266 0.17094,-0.44699c0.0029,-0.00616 0.00609,-0.01263 0.00952,-0.01938c-0.23022,-0.16535 -0.46185,-0.32627 -0.6955,-0.47287c-0.00388,0.00285 -0.00777,0.00572 -0.01163,0.00867c-0.03692,0.02799 -0.07209,0.06029 -0.10582,0.09619c-0.19535,0.54605 -0.39121,1.08076 -0.66235,1.58531l0.05605,0.02094l-0.17305,0.46321c-0.03646,0.10484 -0.1401,0.1761 -0.25591,0.16689c-0.08059,-0.0064 -0.1492,-0.05034 -0.19003,-0.11329c-0.13629,-0.01226 -0.23763,-0.13202 -0.22677,-0.26879l0.031,-0.39027l0.07754,0.00616c-0.02777,-0.68049 0.1912,-1.16107 0.54227,-1.45406c0.09126,-0.16285 0.19093,-0.32119 0.29614,-0.46822c-0.04941,-0.02363 -0.09893,-0.04625 -0.14856,-0.0678c-0.18311,-0.2173 -0.29435,-0.49953 -0.34638,-0.77886l0.00133,-0.01013l-0.00237,0.0002l-0.0425,-0.49346c-0.00155,-0.01501 -0.00179,-0.03036 -0.00055,-0.04594c0.01093,-0.13763 0.13137,-0.24035 0.269,-0.22942c0.12508,0.00994 0.22134,0.11032 0.22964,0.23186l0.02873,0.33347c0.05058,0.05861 0.10145,0.11298 0.15258,0.16338c0.05025,-0.05854 0.12683,-0.09309 0.20962,-0.08651l0.39027,0.03099l-0.00114,0.01441l0.04081,-0.00802c0.2179,0.09002 0.42132,0.19789 0.61555,0.31508c0.17535,0.05741 0.33164,0.14885 0.4273,0.27822c0.05022,0.03462 0.10005,0.06945 0.14961,0.10432c0.76354,0.01428 1.55459,-0.04687 2.34479,0.60921c0.10346,0.0859 0.16286,0.18627 0.18963,0.29514zM258.08002,181.75494c-0.01646,0.00359 -0.03296,0.0071 -0.04946,0.01053c0.02076,0.00577 0.03385,0.00707 0.03794,0.00253c0.00388,-0.00431 0.00773,-0.00868 0.01152,-0.01307zM260.71772,180.1045c0.01622,-0.09096 0.03262,-0.18221 0.04922,-0.27382c-0.07315,0.13243 -0.14975,0.2585 -0.23008,0.37598c0.03051,0.05828 0.05416,0.11174 0.07157,0.16074c0.00178,-0.01051 0.00352,-0.02107 0.00522,-0.03161c0.01024,-0.06339 0.05599,-0.14809 0.10408,-0.23128zM260.00322,180.88462c-0.04233,-0.00056 -0.08523,-0.00203 -0.12818,-0.00409c-0.08326,0.05089 -0.1696,0.09197 -0.25917,0.12193c-0.00237,0.00079 -0.00477,0.00157 -0.00716,0.00234l0.04481,0.00356c0.05821,0.00462 0.11018,0.02882 0.14993,0.06566c0.08032,-0.06516 0.14664,-0.12855 0.19977,-0.18939zM258.986,180.5394c0.00132,0.00008 0.00266,0.00017 0.00398,0.00025c0.13722,-0.03293 0.28163,-0.05642 0.41998,-0.07308c0.07389,-0.06765 0.15107,-0.14221 0.23021,-0.21984c-0.10382,0.00534 -0.22096,0.02347 -0.34969,0.05613c-0.13184,0.03347 -0.22852,0.11883 -0.30449,0.23654zM254.86067,181.87469c-0.02788,-0.00116 -0.05566,-0.0027 -0.08327,-0.00455c-0.0135,0.03954 -0.02635,0.08006 -0.03875,0.12132l0.10724,-0.09147c0.005,-0.00849 0.00992,-0.01693 0.01476,-0.02529zM258.51421,181.86493c0.20083,-0.07654 0.40193,-0.1731 0.60305,-0.29617c-0.06358,0.01609 -0.12709,0.02808 -0.18898,0.03417c-0.03951,0.06902 -0.11072,0.11668 -0.19224,0.12473l-0.16771,0.01992c-0.01684,0.04045 -0.03481,0.07969 -0.05413,0.11736zM253.30935,181.73357c0.03068,-0.05177 0.06186,-0.10227 0.09357,-0.15137c-0.02752,-0.01958 -0.05506,-0.03926 -0.08261,-0.05903c-0.00288,0.06929 -0.00656,0.13946 -0.01096,0.21041zM254.70408,182.59265c0.00204,-0.00098 0.0041,-0.00196 0.00614,-0.00293c-0.00175,-0.00005 -0.0035,-0.0001 -0.00526,-0.00017zM257.70203,182.08144c-0.14454,-0.07175 -0.30529,-0.14482 -0.43762,-0.17987c-0.10833,0.10201 -0.21608,0.19136 -0.32331,0.26895c0.25223,-0.02022 0.50607,-0.04541 0.76091,-0.08907zM254.12746,181.09211c0.00777,0.04627 0.01342,0.09672 0.01675,0.15162c0.07383,-0.00553 0.14941,-0.00949 0.22615,-0.01161c-0.08086,-0.04582 -0.16179,-0.09266 -0.2429,-0.14001zM254.39079,181.93276c0.00389,0.00286 0.00778,0.00572 0.01166,0.00858c0.004,-0.01344 0.00818,-0.02692 0.01257,-0.04039c-0.00825,0.00946 -0.01632,0.02008 -0.02422,0.03184zM254.04753,183.01603c0.03876,-0.03226 0.07763,-0.0632 0.1166,-0.0928c-0.01085,-0.02005 -0.01905,-0.0417 -0.0241,-0.06442l-0.02188,-0.08845c-0.02245,0.08306 -0.04578,0.16588 -0.07061,0.24568z" fill="#000000" fill-rule="nonzero" stroke="none" stroke-width="0.5" stroke-linecap="butt" stroke-linejoin="miter"/><path d="M284.128,181.66769c0.09061,-0.07993 0.18151,-0.16835 0.27112,-0.26313c-0.08493,0.06241 -0.16148,0.12106 -0.2261,0.17491c-0.01517,0.02944 -0.03018,0.05885 -0.04503,0.08819zM285.64108,180.5049c-0.46656,0.89186 -1.23192,1.84573 -1.8774,1.97459c-0.01974,0.0369 -0.03931,0.07349 -0.05876,0.10977c-0.67365,1.63367 -0.90447,3.16898 -1.02052,4.83705c0.17099,0.95087 0.41173,1.9424 0.06286,2.78737l0.08045,0.03411l-0.11856,0.27964c-0.0394,0.09936 -0.14009,0.16584 -0.2522,0.15694c-0.09949,-0.0079 -0.18072,-0.073 -0.214,-0.16048l-0.16212,-0.40075l0.01462,-0.00591l-0.02884,-0.04318c0.01493,-1.43224 0.04764,-2.74663 0.21286,-4.01839c-0.00085,-1.19678 0.16949,-2.24356 0.90736,-3.52344c0.1707,-0.41766 0.36787,-0.8384 0.59569,-1.26495c0.15087,-0.13117 0.4058,-0.30785 0.68379,-0.50016c-0.45029,0.21618 -1.01968,0.07415 -1.56533,-0.12681c-0.34715,0.07763 -0.66419,0.11017 -0.92992,0.08907c-0.29251,-0.02323 -0.61512,-0.0925 -0.94411,-0.16431c-0.0276,0.2266 0.01002,0.56312 0.1302,1.04596c0.09866,0.39635 0.10117,0.73044 0.30089,1.09329c0.5063,1.66378 0.21407,6.81364 -1.29194,8.32781l0.07702,0.09029l-0.21062,0.17964v0v0c-0.04868,0.04152 -0.1132,0.06447 -0.18203,0.05899c-0.13763,-0.01093 -0.24035,-0.13137 -0.22942,-0.269l0.03099,-0.39027c0.05378,-0.64997 0.00507,-1.30026 0.05739,-1.9591c0.16455,-1.84563 1.02266,-3.78369 0.94499,-5.67756c-0.01776,-0.43304 -0.18155,-0.83685 -0.31268,-1.24531c-0.05808,0.09498 -0.11759,0.18871 -0.17746,0.28034c-0.15837,0.78159 -0.41419,1.76649 -0.73394,2.67638c-0.07813,0.70346 -0.22879,1.33655 -0.56063,1.78037c-0.4066,0.51612 -1.79232,4.82763 -2.38751,4.27353c-0.38707,-0.36035 0.97967,-3.3023 1.0489,-3.79642c0.11473,-0.27361 0.23956,-0.57245 0.3666,-0.8896c-0.0295,-0.93183 -0.11776,-2.30163 0.11581,-2.59776c0.24642,-0.31244 0.58515,-0.52371 0.91346,-0.78304c0.11776,-0.70866 0.14788,-1.40257 0.03179,-2.03034c-0.21947,-0.10894 -0.43338,-0.37766 -0.57764,-0.88503c-0.05426,-0.00972 -0.10922,-0.01812 -0.16496,-0.02524l-0.04576,-0.08671l-0.03078,0.02626l-0.17964,-0.21063c-0.04152,-0.04868 -0.06447,-0.1132 -0.059,-0.18202c0.01093,-0.13763 0.13137,-0.24036 0.269,-0.22943l0.2927,0.02324l-0.00151,0.01896c0.01186,-0.00342 0.02451,-0.00631 0.03803,-0.00856c0.05169,-0.00866 0.09435,-0.00465 0.12951,0.00708c2.16719,-0.13916 3.9759,1.09088 6.41901,-0.25453c0.08353,-0.02067 0.16203,-0.04266 0.23589,-0.06593c0.15064,-0.46492 0.29436,-0.98197 0.57708,-1.19083c0.36464,-0.26936 0.70846,-0.47125 1.02821,-0.60855c0.02816,-0.04703 0.05824,-0.09411 0.09073,-0.14114c-0.08656,-0.25155 -0.03981,-0.46073 0.24169,-0.57251c0.07931,-0.03149 0.15527,-0.03919 0.22799,-0.02623l0.03949,-0.09315c0.0394,-0.09936 0.14009,-0.16584 0.2522,-0.15694c0.13763,0.01093 0.24035,0.13137 0.22942,0.269l-0.02324,0.2927l-0.08409,-0.00668l-0.00437,0.01032c0.04402,0.06217 0.08643,0.13196 0.12726,0.20809c0.97716,0.08608 1.53373,1.07857 1.48194,2.80935c-0.06218,0.85369 -0.14416,1.70129 -0.23464,2.54676c0.3097,2.03339 0.45486,4.50558 -0.49622,5.92423l0.09084,0.06734l-0.29516,0.39821c-0.04935,0.06892 -0.13256,0.11103 -0.22321,0.10383c-0.13763,-0.01093 -0.24035,-0.13137 -0.22942,-0.269l0.02323,-0.2927c0.14285,-1.79899 0.3652,-3.56666 0.56249,-5.33913c-0.02111,-0.79578 -0.09784,-1.59935 -0.27033,-2.41533c-0.07812,-0.28008 -0.52877,-1.59102 -0.80107,-2.54678c-0.06754,-0.02492 -0.13564,-0.04533 -0.20397,-0.06012c-0.28461,0.42348 -0.68659,0.83192 -1.15098,1.20319c0.03028,0.35627 0.07443,0.73331 -0.0458,0.95335c-0.09615,0.17595 -0.30239,0.37465 -0.55258,0.57686zM281.12991,183.49298c-0.07378,1.77203 -0.81714,3.71364 -0.9221,5.2893c-0.02752,0.34659 -0.0282,0.68907 -0.02986,1.0307c0.1667,-0.38792 0.35924,-0.76504 0.40272,-0.92267c0.37165,-1.34724 0.78502,-3.80176 0.54923,-5.39733zM279.60384,181.95835c0.12497,-0.37276 0.21098,-0.70221 0.22976,-0.96222l0.01731,-0.21793c-0.12835,0.33948 -0.20137,0.74305 -0.24706,1.18015zM278.49091,184.51385c0.08591,-0.26969 0.16591,-0.54349 0.23664,-0.81844c-0.21373,0.14011 -0.40367,0.26094 -0.40177,0.26522c0.0788,0.17748 0.13163,0.36261 0.16513,0.55324zM280.4062,180.43759c-0.03077,-0.00545 -0.06147,-0.01068 -0.09207,-0.01564c-0.01952,-0.00062 -0.03896,-0.00132 -0.05832,-0.00212c0.02623,0.01812 0.04871,0.04109 0.06629,0.0675l0.04359,0.06433c0.01146,-0.03366 0.02535,-0.07247 0.04053,-0.11409zM284.72814,180.58529c0.19031,-0.13317 0.37976,-0.26922 0.54409,-0.39917c0.10703,-0.20481 0.19033,-0.40359 0.24044,-0.58302c-0.10075,0.24514 -0.23809,0.43947 -0.46817,0.51138c-0.08889,0.20174 -0.19569,0.35584 -0.31634,0.47079zM288.59693,178.79718c0.14463,0.68516 0.23516,1.28938 0.2844,1.46303c0.00867,0.04299 0.01747,0.08677 0.02639,0.13127c0.02184,-0.25397 0.04223,-0.50838 0.06086,-0.7633c0.00464,-0.14109 0.00624,-0.27605 0.00474,-0.4048c-0.00327,-0.00012 -0.00655,-0.00032 -0.00985,-0.00059c-0.08787,-0.00698 -0.16152,-0.0586 -0.20043,-0.13083l-0.16127,-0.28914c-0.00153,-0.00183 -0.00314,-0.00371 -0.00483,-0.00566zM284.07925,180.25239c0.15539,-0.02887 0.29353,-0.08701 0.40769,-0.18428c-0.13623,0.0656 -0.27243,0.12713 -0.40769,0.18428zM283.97875,179.86475c-0.32294,0.09488 -0.68249,0.18733 -1.05946,0.26892c0.0371,0.0096 0.0741,0.01891 0.11096,0.02786c0.31811,-0.06413 0.63751,-0.16526 0.94852,-0.29677zM285.82493,178.59582c-0.00237,0.00643 -0.00472,0.01287 -0.00704,0.01934c0.00254,-0.00261 0.00507,-0.00524 0.0076,-0.00785c-0.0002,-0.00382 -0.00038,-0.00765 -0.00057,-0.01148zM288.24494,177.46075c0.13543,0.03888 0.26139,0.09157 0.37376,0.15872c-0.11334,-0.15512 -0.25504,-0.25812 -0.42683,-0.30772c0.01807,0.04865 0.03576,0.09839 0.05307,0.149z" fill="#000000" fill-rule="nonzero" stroke="none" stroke-width="0.5" stroke-linecap="butt" stroke-linejoin="miter"/></g></g></g></svg>