<svg version="1.1" xmlns="http://www.w3.org/2000/svg" xmlns:xlink="http://www.w3.org/1999/xlink" width="121.28929" height="93.48191" viewBox="0,0,121.28929,93.48191"><defs><linearGradient x1="260.04393" y1="202.4279" x2="268.97562" y2="218.74309" gradientUnits="userSpaceOnUse" id="color-1"><stop offset="0" stop-color="#ffffff"/><stop offset="1" stop-color="#9f9f9f"/></linearGradient><radialGradient cx="284.67897" cy="173.82929" r="8.13758" gradientUnits="userSpaceOnUse" id="color-2"><stop offset="0" stop-color="#ffffff"/><stop offset="1" stop-color="#1a1a1a"/></radialGradient><radialGradient cx="263.14054" cy="178.82486" r="6.75889" gradientUnits="userSpaceOnUse" id="color-3"><stop offset="0" stop-color="#ffffff"/><stop offset="1" stop-color="#1a1a1a"/></radialGradient></defs><g transform="translate(-192.38202,-146.57628)"><g data-paper-data="{&quot;isPaintingLayer&quot;:true}" stroke-miterlimit="10" stroke-dasharray="" stroke-dashoffset="0" style="mix-blend-mode: normal"><path d="M247.98404,198.15126c0.74657,2.09108 2.6719,10.2699 5.28815,11.04787c2.4978,0.7007 8.936,-2.69778 10.33636,2.01485c1.37979,4.61478 -4.96035,6.05103 -10.55349,5.69507c-7.24123,-0.41794 -12.57586,-10.22975 -10.02055,-17.51195c0.99426,-2.55958 4.18237,-3.43478 4.94953,-1.24583z" data-paper-data="{&quot;index&quot;:null}" fill="#717171" fill-rule="evenodd" stroke="#001026" stroke-width="1.2" stroke-linecap="round" stroke-linejoin="round"/><g fill-rule="nonzero" stroke="#001026" stroke-width="1.2" stroke-linejoin="miter"><g><g><path d="M261.4173,208.0603l-5.18613,-9.47334l2.28061,-1.24851l5.18614,9.47334z" fill="#2c2c2c" stroke-linecap="butt"/><path d="M267.12096,218.13387l2.13042,-1.10512l6.28235,13.41387z" fill="#6c6c6c" stroke-linecap="butt"/><path d="M265.73012,220.51982l-8.93168,-16.31518l6.49098,-3.55346l8.93168,16.31519z" fill="url(#color-1)" stroke-linecap="butt"/><path d="M258.04695,206.48525l3.25382,-1.55328" fill="none" stroke-linecap="round"/><path d="M260.03049,209.27552l2.90295,-1.3612" fill="none" stroke-linecap="round"/><path d="M261.00752,211.47674l2.64813,-0.99369" fill="none" stroke-linecap="round"/><path d="M263.18314,214.61787l1.92975,-1.05644" fill="none" stroke-linecap="round"/><path d="M264.27287,217.44144l2.9196,-0.9143" fill="none" stroke-linecap="round"/></g><path d="M254.43075,200.71265l-1.34456,-2.45605l6.66642,-3.6495l1.34456,2.45605z" fill="#2c2c2c" stroke-linecap="butt"/></g><path d="M262.98531,210.50802c1.40559,2.56755 1.40617,5.27242 0.00129,6.04151c-1.40488,0.7691 -3.68323,-0.68883 -5.08881,-3.25637c-1.40559,-2.56755 -1.40616,-5.27243 -0.00128,-6.04153c1.40488,-0.7691 3.68322,0.68883 5.08881,3.25638z" fill="#717171" stroke-linecap="butt"/><path d="M271.45214,204.73285c2.14817,3.92398 1.88673,8.20147 -0.58392,9.55402c-2.47065,1.35255 -6.21494,-0.732 -8.36312,-4.65599c-2.14817,-3.92398 -1.88674,-8.20146 0.58391,-9.55401c2.47065,-1.35255 6.21495,0.732 8.36312,4.65598z" fill="#717171" stroke-linecap="butt"/></g><g fill-rule="evenodd"><path d="M226.10351,205.06608c-0.51484,0.85728 -0.60863,3.81046 -3.96561,1.39784c-3.30205,-2.54293 -9.41818,-9.87866 -5.45551,-21.09994c4.34719,-12.1335 17.10657,-11.81971 19.13555,-7.895c1.99128,3.83208 -5.1332,4.89594 -11.18942,10.70732c-8.80808,8.33474 1.98984,16.03248 1.47499,16.88977z" fill="#717171" stroke="#001026" stroke-width="1.2" stroke-linecap="round" stroke-linejoin="round"/><path d="M232.05687,182.02248c-3.88701,2.12159 -6.28881,4.17861 -6.28881,4.17861c0,0 1.2494,-2.23583 -0.02572,-4.30804c-1.5562,-2.49764 -4.11842,-2.42664 -4.80449,-2.25542c1.31077,-1.28915 3.02972,-2.63644 6.43958,-3.80813c3.43031,-0.85612 7.59402,-0.17533 8.16585,2.29106c0.38335,2.00326 -1.13633,2.51371 -3.48641,3.90191z" fill="#ffffff" stroke="none" stroke-width="1" stroke-linecap="butt" stroke-linejoin="miter"/></g><path d="M248.3198,236.3753c0,3.86599 -11.83333,3 -11.83333,3c0,0 -10.5,0.86599 -10.5,-3c0,-3.45051 2.7452,-32.89294 7.69909,-34.5825c3.83539,-1.30808 4.43187,28.24917 5.13424,28.24917c6.53537,0 9.5,2.46734 9.5,6.33333z" fill="#717171" fill-rule="nonzero" stroke="#001026" stroke-width="1.2" stroke-linecap="butt" stroke-linejoin="miter"/><path d="M200.93942,229.81355c-3.70715,1.09676 -6.23379,-10.49608 -6.23379,-10.49608c0,0 -3.80919,-9.82293 -0.10204,-10.91968c3.30874,-0.97888 32.32033,-6.6991 35.34585,-2.42806c2.34241,3.30672 -25.83125,12.26388 -25.63199,12.9374c1.85404,6.26686 0.32912,9.80966 -3.37804,10.90642z" fill="#717171" fill-rule="nonzero" stroke="#001026" stroke-width="1.2" stroke-linecap="butt" stroke-linejoin="miter"/><g fill-rule="evenodd"><path d="M226.35299,209.73463c-7.84625,-4.77829 -1.2759,-10.84905 3.91812,-18.73335c2.77642,-4.27802 7.72183,-8.5448 13.59708,-6.83555c3.3447,0.78922 1.45914,6.82444 3.65963,6.91314c3.29645,0.18288 2.28773,4.91388 1.17703,7.32766c0,0 -1.71161,3.56656 -3.1695,5.34829c-1.79959,2.25421 -3.79844,4.49133 -5.07108,5.28529c0,0 -5.65904,5.84182 -14.11127,0.69451z" fill="#717171" stroke="#001026" stroke-width="1.2" stroke-linecap="round" stroke-linejoin="round"/><path d="M239.70379,208.87732c0,0 -1.39176,-1.32402 -2.85747,-2.95549c-1.83857,-1.96462 -3.70282,-3.63031 -1.44477,-6.54772c1.99884,-2.2371 3.96656,-5.27981 8.20178,-2.00522c4.05307,3.0582 1.94603,5.38636 1.94603,5.38636c-2.57716,4.29513 -5.84557,6.12207 -5.84557,6.12207z" fill="#ffffff" stroke="none" stroke-width="1" stroke-linecap="butt" stroke-linejoin="miter"/></g><path d="M239.05264,194.2546c-0.70979,2.31002 -4.77543,4.18631 -5.35494,5.14243c-0.12402,0.29091 2.57581,5.08578 4.16746,7.96443c2.29976,4.03994 -3.18147,8.26911 -6.89056,5.51907c-3.41818,-2.62602 -7.04673,-11.04824 -7.30792,-13.01593c-0.69783,-4.49145 7.9407,-10.01104 13.61635,-13.7837" fill="#717171" fill-rule="evenodd" stroke="#001026" stroke-width="1.2" stroke-linecap="round" stroke-linejoin="round"/><g><g><path d="M277.48754,147.04662c0.28263,-0.22387 0.78914,-0.16511 0.92153,0.22537l3.46659,10.45145c0,0 6.76303,4.1607 8.92662,7.29421c3.6392,5.21979 4.10698,9.69653 4.10698,9.69653c0,0 7.24799,1.51215 8.91026,7.09488c1.66226,5.58273 -1.83951,16.70647 -20.27382,21.93199c-18.43431,5.22552 -33.90091,1.37786 -41.90968,-9.40312c-8.00877,-10.78098 2.04115,-25.25161 1.5086,-24.40521l-3.55726,-17.66822c-0.13239,-0.39048 0.3414,-0.73038 0.75642,-0.56377l12.7057,6.88369c0,0 4.34585,-2.06242 9.01373,-2.64623c2.77425,-0.42838 5.18257,-0.42538 7.50758,-0.21487z" fill="#717171" fill-rule="evenodd" stroke="#001026" stroke-width="1.2" stroke-linecap="butt" stroke-linejoin="miter"/><path d="M287.92933,174.32871c0.33319,4.05945 -5.47637,7.8493 -12.97603,8.46487c-7.49966,0.61557 -13.84944,-2.17626 -14.18264,-6.2357c-0.33319,-4.05945 5.47637,-7.8493 12.97603,-8.46487c7.49966,-0.61557 13.84944,2.17626 14.18264,6.2357z" fill="#000000" fill-rule="nonzero" stroke="none" stroke-width="NaN" stroke-linecap="butt" stroke-linejoin="miter"/><path d="M294.64299,175.13737c0,0 7.02412,1.22952 8.68638,6.81225c1.66226,5.58273 -2.27907,16.24087 -20.52223,21.35036c-23.70987,6.9629 -36.34931,-6.44808 -30.53889,-17.56064c5.80224,-11.21223 18.00812,-3.08347 26.33088,-4.36862c7.13497,-1.08731 7.41692,-7.43164 16.04386,-6.23335z" fill="#ffffff" fill-rule="evenodd" stroke="none" stroke-width="1" stroke-linecap="butt" stroke-linejoin="miter"/><path d="M313.07131,174.72849c-4.37339,4.17174 -11.54108,4.8604 -11.54108,4.8604" fill="none" fill-rule="evenodd" stroke="#001026" stroke-width="1.2" stroke-linecap="round" stroke-linejoin="round"/><path d="M312.69187,185.9973c-6.23798,1.01369 -10.28034,-0.56091 -10.28034,-0.56091" fill="none" fill-rule="evenodd" stroke="#001026" stroke-width="1.2" stroke-linecap="round" stroke-linejoin="round"/><path d="M277.98778,178.81215c2.09296,-0.17179 4.30195,-0.15243 4.45888,0.53704c0.21419,1.38713 -1.05173,4.30045 -2.63819,4.53101c-1.77761,0.34658 -6.16804,-1.80147 -6.29893,-3.3961c-0.19783,-1.1878 2.48494,-1.50834 4.47824,-1.67195z" fill="#001026" fill-rule="evenodd" stroke="#001026" stroke-width="1.2" stroke-linecap="round" stroke-linejoin="round"/><path d="M233.01589,180.99838c0,0 8.80023,2.08709 12.54209,4.89039" fill="none" fill-rule="evenodd" stroke="#001026" stroke-width="1.2" stroke-linecap="round" stroke-linejoin="round"/><path d="M246.1433,189.3525c-4.14652,2.04606 -11.6117,1.5551 -11.6117,1.5551" fill="none" fill-rule="evenodd" stroke="#001026" stroke-width="1.2" stroke-linecap="round" stroke-linejoin="round"/><path d="M290.57597,170.23562c3.2584,4.24769 1.99042,5.27288 -0.65295,7.29589c-2.64337,2.02302 -7.39974,0.30636 -10.7578,-3.93315c-1.69188,-2.19247 -4.53981,-6.58905 -3.11581,-6.17071c16.19109,4.75654 13.36332,1.54914 14.03161,2.27324c0.16487,0.17864 0.34624,0.34083 0.49496,0.53471z" fill="url(#color-2)" fill-rule="evenodd" stroke="#001026" stroke-width="1.2" stroke-linecap="round" stroke-linejoin="round"/><path d="M264.30329,171.00544c3.34988,4.13984 3.5923,9.5381 1.05678,11.65261c-3.13351,2.16359 -7.63329,1.12822 -10.98317,-3.01162c8.72886,-1.258 6.57651,-12.78082 9.9264,-8.64098z" fill="url(#color-3)" fill-rule="evenodd" stroke="#001026" stroke-width="1.2" stroke-linecap="round" stroke-linejoin="round"/><path d="M278.72873,193.6461c0.22025,2.68337 -16.74914,11.12613 -21.25734,9.15675c-5.00791,-2.18768 -3.11821,-6.6367 -3.16055,-7.15255c-0.05872,-0.71543 0.18781,-0.33352 0.54238,-0.42912c0.97531,-0.26296 3.51306,0.47251 8.45813,0.06662c6.74281,-0.55345 15.19712,-4.32508 15.41737,-1.64171z" fill="#000000" fill-rule="nonzero" stroke="#001026" stroke-width="1.2" stroke-linecap="butt" stroke-linejoin="miter"/></g><path d="M262.13086,183.38384c0.01964,0.02292 0.03839,0.04965 0.05611,0.08041c0.1325,-0.03707 0.26901,-0.08593 0.41016,-0.14809c0.11743,-0.01039 0.23572,-0.02009 0.35444,-0.02993c0.43205,-0.19599 0.83973,-0.39795 1.05266,-0.46968c0.24646,-0.12316 0.51913,-0.16949 0.78492,-0.1964c0.06616,-0.35969 0.22204,-0.67379 0.68685,-0.82036c0.2624,-0.08275 0.50101,-0.10014 0.70366,-0.0664c0.0889,-0.11517 0.1786,-0.22475 0.2678,-0.32013c0.35705,-1.06881 0.50258,-2.60569 0.64215,-3.15941l-0.02151,-0.26208c-0.0113,-0.1376 0.09111,-0.25832 0.22871,-0.26961c0.1376,-0.0113 0.25832,0.09111 0.26961,0.22871l0.02402,0.29263l-0.06298,0.00517c0.00244,0.007 0.00486,0.01403 0.00727,0.02107l0.05577,0.01394c-0.007,0.02984 -0.01394,0.06081 -0.02082,0.09283c0.57063,1.82228 0.16586,4.63702 -0.226,6.7851c0.08467,2.07258 0.00784,4.86036 -0.77946,6.48762l0.05177,0.01315l-0.07273,0.28645c-0.02368,0.10338 -0.11196,0.18411 -0.22329,0.19325c-0.1376,0.0113 -0.25832,-0.09111 -0.26961,-0.22871c-0.00007,-0.00081 -0.00014,-0.00163 -0.00019,-0.00245l-0.03666,-0.4983l0.00848,-0.00063l-0.00903,-0.02577c0.21385,-1.57206 0.30757,-3.12421 0.53136,-4.68625c0.13492,-0.72397 0.21208,-1.40812 0.25801,-2.07625c-0.00645,-0.27118 -0.02001,-0.54215 -0.04222,-0.81267c-0.02476,-0.30934 -0.00512,-0.61555 0.01781,-0.92194c-0.08811,0.20395 -0.2432,0.41917 -0.47672,0.63225c-0.9414,1.06035 -2.07089,1.2337 -3.11953,1.50695l-0.04617,0.15002c-0.02756,0.09753 -0.11325,0.1724 -0.2202,0.18118c-0.12018,0.00986 -0.22748,-0.06699 -0.26025,-0.17828c-0.63512,0.21044 -1.22053,0.52606 -1.68999,1.18983l-0.21638,0.43032c-0.03722,0.07727 -0.11326,0.13333 -0.20491,0.14086c-0.12806,0.01051 -0.2415,-0.07744 -0.26571,-0.20062l-0.08391,-0.39578l0.07456,-0.0158c-0.15855,-0.60359 -0.0844,-1.08212 0.14752,-1.46303c-0.02141,-0.03067 -0.04367,-0.0619 -0.0667,-0.09352c-0.75171,2.07538 -0.00755,4.38523 -0.40966,6.46097c-0.00157,0.07223 -0.00342,0.14475 -0.00537,0.21769l0.02319,0.28253c0.0113,0.1376 -0.09111,0.25831 -0.22871,0.26961c-0.1376,0.0113 -0.25832,-0.0911 -0.26961,-0.22871l-0.02402,-0.29264l0.00638,-0.00052l-0.00712,-0.01293c0.00148,-0.05907 0.00294,-0.11786 0.00429,-0.17643c-0.19123,-0.4107 -0.12723,-1.30077 -0.15567,-1.6635c-0.05155,-0.65727 -0.05499,-1.51446 0.01992,-2.38558c-0.01749,-0.71453 -0.03852,-1.43247 -0.08851,-2.13182l-0.04581,0.06723c-0.04094,0.06114 -0.10836,0.10372 -0.18739,0.11021c-0.1376,0.0113 -0.25831,-0.09111 -0.26961,-0.22871c-0.00343,-0.04185 0.00364,-0.08213 0.01903,-0.11825l0.16119,-0.40153l0.01392,0.00559c0.02229,-0.15842 0.05284,-0.31522 0.09701,-0.46863c0.00188,-0.00654 0.00399,-0.01344 0.00629,-0.02066c-0.25377,-0.12627 -0.50821,-0.24795 -0.76236,-0.35516c-0.00338,0.00343 -0.00675,0.0069 -0.0101,0.01042c-0.03195,0.03355 -0.06149,0.07108 -0.08902,0.11192c-0.1052,0.57032 -0.21274,1.12953 -0.39941,1.67104l0.05869,0.01168l-0.09649,0.48497c-0.01917,0.10933 -0.11003,0.19629 -0.22582,0.20579c-0.08057,0.00661 -0.15535,-0.02575 -0.20575,-0.08133c-0.1365,0.00977 -0.25573,-0.09219 -0.26695,-0.22892l-0.03203,-0.39019l0.07753,-0.00636c-0.13659,-0.66721 0.00244,-1.17671 0.30195,-1.52223c0.06396,-0.17538 0.13693,-0.34766 0.21719,-0.50966c-0.05256,-0.01539 -0.10507,-0.02978 -0.15752,-0.04309c-0.21559,-0.1851 -0.37068,-0.44584 -0.46686,-0.7132l-0.00031,-0.01021l-0.00231,0.00058l-0.12112,-0.48025c-0.00394,-0.01456 -0.00663,-0.02968 -0.00791,-0.04526c-0.0113,-0.1376 0.09111,-0.25832 0.22871,-0.26961c0.12506,-0.01026 0.23617,0.07338 0.26386,0.19201l0.08185,0.32454c0.05933,0.04973 0.11826,0.09524 0.17682,0.13678c0.04021,-0.06584 0.11025,-0.11223 0.19302,-0.11902l0.39019,-0.03203l0.00118,0.01441l0.039,-0.01447c0.22952,0.05389 0.44761,0.12773 0.65813,0.21223c0.18229,0.02853 0.35123,0.09371 0.4664,0.20606c0.05512,0.02611 0.1099,0.0525 0.16441,0.07897c0.75594,-0.10841 1.52693,-0.29569 2.41216,0.22511c0.1159,0.06819 0.19064,0.15773 0.23452,0.2609zM264.54514,183.92632c-0.01568,0.00619 -0.0314,0.0123 -0.04713,0.01833c0.02142,0.00236 0.03455,0.00155 0.03786,-0.00359c0.00314,-0.00488 0.00623,-0.0098 0.00927,-0.01475zM266.88388,181.87406c0.00142,-0.09238 0.00295,-0.18509 0.00464,-0.27818c-0.05096,0.14244 -0.10634,0.27918 -0.16678,0.40802c0.03947,0.05263 0.07139,0.1016 0.09643,0.14718c0.00007,-0.01067 0.00009,-0.02136 0.00008,-0.03204c-0.00006,-0.06421 0.03151,-0.15515 0.06563,-0.24498zM266.3038,182.7587c-0.04187,0.00624 -0.08445,0.01167 -0.12718,0.01653c-0.07402,0.06359 -0.15264,0.11799 -0.23625,0.16193c-0.00221,0.00116 -0.00445,0.00232 -0.00669,0.00346l0.04479,-0.00368c0.0582,-0.00478 0.11338,0.01078 0.15853,0.04075c0.06883,-0.0772 0.12412,-0.15042 0.16679,-0.21899zM265.24437,182.58116c0.00132,-0.00013 0.00265,-0.00026 0.00397,-0.00039c0.13016,-0.05451 0.26894,-0.10087 0.40281,-0.13951c0.06209,-0.07863 0.12629,-0.16461 0.19196,-0.25394c-0.10162,0.02192 -0.21433,0.05861 -0.33615,0.1115c-0.12477,0.05418 -0.2065,0.15397 -0.2626,0.28233zM261.38671,184.56103c-0.0277,0.00332 -0.05537,0.00627 -0.08291,0.00887c-0.00698,0.04119 -0.01316,0.08325 -0.01878,0.12596l0.09118,-0.10749c0.00357,-0.00918 0.00708,-0.0183 0.01051,-0.02733zM264.99136,183.96521c0.18594,-0.10776 0.36895,-0.23535 0.54772,-0.38909c-0.06018,0.02608 -0.12093,0.04811 -0.18104,0.06405c-0.02792,0.07446 -0.09056,0.13293 -0.16974,0.15396l-0.16234,0.04656c-0.01014,0.04263 -0.02157,0.08425 -0.0346,0.12452zM259.83285,184.67063c0.02197,-0.05602 0.04465,-0.11087 0.06807,-0.16443c-0.03031,-0.01491 -0.06065,-0.02991 -0.09101,-0.04501c0.00827,0.06885 0.0159,0.1387 0.02294,0.20944zM261.34734,185.29481c0.00186,-0.0013 0.00373,-0.00259 0.00559,-0.00388c-0.00173,0.00024 -0.00347,0.00047 -0.00522,0.00068zM264.22444,184.30922c-0.15419,-0.04763 -0.32457,-0.09397 -0.46081,-0.10733c-0.09056,0.11808 -0.18258,0.22355 -0.27597,0.31733c0.24572,-0.06042 0.49222,-0.12602 0.73676,-0.20999zM260.53745,183.90622c0.01509,0.04442 0.02876,0.09331 0.04086,0.14696c0.07199,-0.01731 0.14596,-0.03334 0.22136,-0.04774c-0.08717,-0.03225 -0.17457,-0.06549 -0.26222,-0.09922zM260.93223,184.69373c0.0043,0.0022 0.0086,0.00439 0.01289,0.00659c0.00179,-0.01391 0.00376,-0.02788 0.00592,-0.04188c-0.00662,0.01065 -0.01288,0.02244 -0.0188,0.03531zM260.76723,185.81804c0.03308,-0.03807 0.06648,-0.07483 0.10019,-0.11031c-0.01393,-0.01805 -0.02548,-0.0381 -0.03412,-0.05972l-0.03579,-0.08379c-0.00883,0.08558 -0.01857,0.17108 -0.03027,0.25383z" fill="#000000" fill-rule="nonzero" stroke="none" stroke-width="0.5" stroke-linecap="butt" stroke-linejoin="miter"/><path d="M290.24169,179.66103c0.07661,-0.09343 0.15215,-0.19529 0.2254,-0.30321c-0.07382,0.07523 -0.13996,0.1454 -0.1951,0.20893c-0.01025,0.03149 -0.02035,0.06292 -0.0303,0.09427zM291.54862,178.27055c-0.31743,0.95517 -0.91983,2.01947 -1.53628,2.25023c-0.01356,0.03959 -0.02702,0.07884 -0.04039,0.11778c-0.40281,1.72059 -0.38431,3.27304 -0.23124,4.93812c0.32133,0.91112 0.71804,1.85117 0.50925,2.74118l0.08488,0.02076l-0.07216,0.29504c-0.02296,0.10439 -0.11167,0.18617 -0.22375,0.19537c-0.09947,0.00816 -0.1901,-0.04307 -0.23698,-0.12407l-0.22431,-0.36954l0.01348,-0.00818l-0.03539,-0.03799c-0.21506,-1.41608 -0.39365,-2.7187 -0.43461,-4.00048c-0.19285,-1.18113 -0.19266,-2.24169 0.33031,-3.62337c0.10148,-0.43964 0.22859,-0.88656 0.38502,-1.34414c0.12788,-0.15368 0.35115,-0.36897 0.59468,-0.60339c-0.40977,0.28563 -0.99457,0.23679 -1.56539,0.12597c-0.33019,0.13232 -0.63791,0.2153 -0.90358,0.23711c-0.29244,0.024 -0.62199,0.0074 -0.95825,-0.01071c0.00911,0.22809 0.10023,0.55422 0.29633,1.01152c0.16098,0.37539 0.21705,0.70475 0.4724,1.03086c0.76668,1.561 1.30448,6.69102 0.06091,8.4272l0.09051,0.07677l-0.17908,0.21111v0v0c-0.04139,0.04879 -0.10139,0.08179 -0.1702,0.08743c-0.1376,0.0113 -0.25832,-0.09111 -0.26961,-0.22871l-0.03203,-0.39019c-0.0512,-0.65018 -0.20361,-1.28423 -0.25767,-1.94292c-0.1337,-1.84812 0.40236,-3.89875 0.02184,-5.75562c-0.08701,-0.42458 -0.31346,-0.79688 -0.50843,-1.17901c-0.04209,0.10307 -0.08578,0.20513 -0.13018,0.30518c-0.03092,0.79687 -0.1254,1.81005 -0.29503,2.75946c0.03575,0.70689 -0.01138,1.35595 -0.26772,1.84726c-0.31852,0.57467 -0.99455,5.05265 -1.67094,4.60122c-0.43988,-0.29358 0.43715,-3.4167 0.42621,-3.91553c0.06934,-0.28847 0.14462,-0.60347 0.21913,-0.9369c-0.17862,-0.91502 -0.48551,-2.25291 -0.30248,-2.58268c0.19311,-0.34793 0.49354,-0.6108 0.77599,-0.91945c0.00254,-0.71837 -0.07907,-1.40813 -0.29438,-2.00914c-0.23411,-0.07232 -0.48836,-0.30323 -0.71215,-0.78088c-0.05512,-0.00089 -0.11071,-0.00037 -0.16687,0.00155l-0.05908,-0.07825l-0.02618,0.03086l-0.2111,-0.17908c-0.04879,-0.04139 -0.08179,-0.10139 -0.08744,-0.1702c-0.0113,-0.1376 0.09111,-0.25832 0.22871,-0.26961l0.29263,-0.02402l0.00156,0.01896c0.01115,-0.00528 0.02318,-0.01016 0.03617,-0.01456c0.04963,-0.01683 0.09238,-0.01972 0.12897,-0.01379c2.11679,-0.48506 4.09942,0.43885 6.29502,-1.2811c0.07913,-0.0338 0.15309,-0.06811 0.22226,-0.10293c0.0741,-0.48306 0.13299,-1.01648 0.37854,-1.26799c0.3167,-0.32438 0.62368,-0.57881 0.91726,-0.76564c0.02025,-0.05095 0.04239,-0.10224 0.06691,-0.15387c-0.1258,-0.23441 -0.11321,-0.44838 0.1467,-0.60387c0.07323,-0.04381 0.14698,-0.06359 0.22083,-0.06247l0.02404,-0.09828c0.02296,-0.10439 0.11167,-0.18617 0.22375,-0.19537c0.1376,-0.0113 0.25832,0.09111 0.26961,0.22871l0.02402,0.29263l-0.08407,0.0069l-0.00266,0.01089c0.05343,0.0543 0.10648,0.11638 0.159,0.18498c0.97831,-0.07181 1.68691,0.81852 1.91347,2.5352c0.07559,0.8526 0.13066,1.70237 0.17701,2.55141c0.63192,1.95735 1.17184,4.37424 0.4607,5.9271l0.10046,0.05189l-0.22744,0.44041c-0.03765,0.07594 -0.11303,0.13085 -0.20366,0.13829c-0.1376,0.0113 -0.25832,-0.09111 -0.26961,-0.22871l-0.02402,-0.29263c-0.14763,-1.79861 -0.21177,-3.57905 -0.30141,-5.36022c-0.14851,-0.78209 -0.35317,-1.56294 -0.65434,-2.34067c-0.12204,-0.26392 -0.77719,-1.48557 -1.19931,-2.38526c-0.07066,-0.01377 -0.14115,-0.02299 -0.21097,-0.02662c-0.21298,0.46366 -0.54422,0.93129 -0.94303,1.37226c0.08705,0.34679 0.19112,0.71187 0.10775,0.94835c-0.06667,0.1891 -0.23837,0.41832 -0.45287,0.65805zM287.57529,181.94369c0.21148,1.76092 -0.21074,3.79663 -0.06154,5.36871c0.02844,0.34651 0.08272,0.68467 0.13589,1.02215c0.10231,-0.40964 0.23184,-0.81276 0.24947,-0.97533c0.15068,-1.38942 0.1649,-3.87846 -0.32383,-5.41553zM285.82277,180.67379c0.06354,-0.38798 0.09558,-0.72697 0.0724,-0.98662l-0.01788,-0.21788c-0.07222,0.35567 -0.07955,0.76574 -0.05452,1.2045zM285.13427,183.37475c0.04152,-0.27998 0.07656,-0.56307 0.10227,-0.84581c-0.18848,0.17259 -0.35658,0.32233 -0.35402,0.32624c0.10625,0.16254 0.1881,0.33679 0.25176,0.51958zM286.37075,179.04399c-0.03125,-0.00044 -0.06239,-0.00067 -0.09339,-0.00066c-0.01937,0.00252 -0.03867,0.00495 -0.05791,0.00727c0.0288,0.01368 0.05468,0.03275 0.07626,0.05599l0.05335,0.0565c0.0059,-0.03506 0.0134,-0.0756 0.0217,-0.11912zM290.6604,178.49637c0.16648,-0.16198 0.33165,-0.32666 0.473,-0.48129c0.07278,-0.21933 0.12311,-0.4289 0.14378,-0.61404c-0.06011,0.25813 -0.16449,0.47198 -0.38006,0.57987c-0.05537,0.21339 -0.13606,0.38263 -0.23671,0.51544zM294.19218,176.11071c0.25268,0.65308 0.43898,1.23495 0.51544,1.39845c0.01546,0.04105 0.03116,0.08285 0.0471,0.12534c-0.01918,-0.25419 -0.03988,-0.50856 -0.06239,-0.76317c-0.01806,-0.14001 -0.03813,-0.27348 -0.06027,-0.40032c-0.00325,0.0004 -0.00652,0.00073 -0.00982,0.001c-0.08785,0.00721 -0.16883,-0.03193 -0.21883,-0.09698l-0.20557,-0.25952c-0.0018,-0.00156 -0.00369,-0.00316 -0.00567,-0.00481zM289.9665,178.27189c0.14874,-0.05342 0.27577,-0.13298 0.37285,-0.24731c-0.12394,0.0866 -0.2485,0.16919 -0.37285,0.24731zM289.80511,177.9054c-0.30353,0.14546 -0.6436,0.2944 -1.0026,0.43541c0.03816,0.00352 0.07618,0.00677 0.11399,0.00969c0.3037,-0.11434 0.60274,-0.2654 0.88862,-0.4451zM291.42378,176.3567c-0.00131,0.00672 -0.00259,0.01346 -0.00384,0.02022c0.00208,-0.00299 0.00416,-0.00599 0.00624,-0.00897c-0.00081,-0.00374 -0.00161,-0.00749 -0.0024,-0.01124zM293.63034,174.84807c0.13992,0.01665 0.27269,0.04844 0.39438,0.09669c-0.13676,-0.13493 -0.29314,-0.21385 -0.47067,-0.23524c0.02564,0.04512 0.05109,0.09137 0.07629,0.13855z" fill="#000000" fill-rule="nonzero" stroke="none" stroke-width="0.5" stroke-linecap="butt" stroke-linejoin="miter"/></g></g></g></svg>