<svg version="1.1" xmlns="http://www.w3.org/2000/svg" xmlns:xlink="http://www.w3.org/1999/xlink" width="61.96573" height="119.27663" viewBox="0,0,61.96573,119.27663"><g transform="translate(-224.90785,-73.55392)"><g data-paper-data="{&quot;isPaintingLayer&quot;:true}" fill-rule="nonzero" stroke="none" stroke-linecap="butt" stroke-linejoin="miter" stroke-miterlimit="10" stroke-dasharray="" stroke-dashoffset="0" style="mix-blend-mode: normal"><path d="M225.11285,146.02095c0,0 -0.39499,-0.30658 -0.08841,-0.70156c0.30658,-0.39499 0.70156,-0.08841 0.70156,-0.08841c0.08317,0.06555 0.16858,0.12867 0.25596,0.18924c0.07071,-0.12165 0.20458,-0.24021 0.45679,-0.22201c0.4987,0.03599 0.46271,0.53469 0.46271,0.53469l-0.01386,0.19212c0.14113,0.06154 0.28468,0.11679 0.42988,0.16538l0.41207,0.14126c-0.2111,-1.45288 -0.46645,-2.90153 -0.55406,-4.34273c-0.17801,-2.92882 0.43049,-6.11426 0.64186,-9.04345c0.18826,-2.60892 0.61878,-5.32114 0.57459,-7.93481c-0.03522,-2.08304 -0.93457,-3.76678 -1.31885,-5.7279c-0.43447,-2.2173 0.1107,-4.886 0.26899,-7.12077c0.25803,-3.31828 2.46855,-3.54567 4.89226,-4.8607c1.40933,-0.76466 2.39945,-2.24834 3.52464,-3.32971c2.16066,-2.07653 4.52903,-3.90624 6.59024,-6.0841c4.81579,-5.08457 9.69999,-9.99937 14.70286,-14.9422c2.82692,-2.79299 6.04951,-5.20706 8.53788,-8.32244l0.61985,-0.77542c0.09908,-0.12748 0.25797,-0.20468 0.43109,-0.19219c0.27184,0.01962 0.47719,0.25307 0.46338,0.52397l-0.04743,0.99735l-0.08548,-0.00406c0.45979,6.31544 -3.36163,12.23624 -3.08533,18.58941c0.03501,0.82284 -0.13755,2.07656 0.10235,2.86046c1.10726,3.61811 7.36187,0.9187 8.96176,3.22556c0.65545,0.94509 0.22766,3.07664 0.43577,4.1393c0.25716,1.31316 1.31735,1.94675 2.30523,2.65735c4.12266,2.98357 14.51601,3.07023 10.11857,10.40312c-0.66599,1.11057 -1.71286,2.13171 -2.48013,3.19035c-2.04036,2.77944 -3.13783,6.71476 -4.63857,9.80101c-1.4569,2.99608 -3.72512,5.26505 -4.91757,8.52492c-2.48753,6.73974 -6.91453,12.19238 -11.13339,17.83582c-1.81796,2.43183 -3.59293,4.86101 -5.78011,6.98379c-2.86278,2.77849 -6.20705,4.97293 -8.61969,8.14717c-4.05278,5.89017 -5.79179,12.39922 -8.08271,19.10129c-0.99257,1.61867 -3.31381,3.87089 -4.28861,0.69709c-0.87052,-2.83429 -0.34572,-6.12766 -0.70809,-9.03901c-0.29066,-2.33527 -0.75027,-4.61452 -0.96777,-6.97187c0.09569,-2.27569 -0.76896,-4.5579 -1.22177,-6.77492c-0.89043,-4.35971 -1.90843,-9.23885 -4.02879,-13.20577c-1.38112,-2.59437 -3.30687,-5.57084 -3.10955,-8.59161l0.00996,-0.13799c-0.25413,-0.14671 -0.49858,-0.30964 -0.7301,-0.48703z" fill="#000000" stroke-width="0.5"/><path d="M250.17855,125.51807c1.19077,3.66546 -1.15067,7.92704 -5.22974,9.51849c-4.07907,1.59145 -13.71064,-10.00057 -13.71064,-10.00057c0,0 17.74961,-3.18337 18.94038,0.48209z" data-paper-data="{&quot;index&quot;:null}" fill="#ffffff" stroke-width="0"/><path d="M254.69453,125.34307c-1.19077,-3.66545 14.40128,-13.49034 14.40128,-13.49034c0,0 -0.78034,15.65423 -4.85941,17.24568c-4.07908,1.59145 -8.35112,-0.08987 -9.54188,-3.75534z" data-paper-data="{&quot;index&quot;:null}" fill="#ffffff" stroke-width="0"/></g></g></svg>