<svg version="1.1" xmlns="http://www.w3.org/2000/svg" xmlns:xlink="http://www.w3.org/1999/xlink" width="85.54638" height="105.83259" viewBox="0,0,85.54638,105.83259"><g transform="translate(-196.92553,-134.89228)"><g data-paper-data="{&quot;isPaintingLayer&quot;:true}" stroke-miterlimit="10" stroke-dasharray="" stroke-dashoffset="0" style="mix-blend-mode: normal"><path d="M245.46977,192.7c4,6.6 0.8,17.3 -6.2,19.2c-5.4,1.5 -11.9,1.4 -11.5,-3.4c0.4,-4.9 7.4,-2.9 9.7,-4.1c2.4,-1.3 2.6,-9.7 2.9,-11.9c0.3,-2.3 3.6,-2.1 5.1,0.2z" data-paper-data="{&quot;index&quot;:null}" fill="#878787" fill-rule="evenodd" stroke="#001026" stroke-width="1.2" stroke-linecap="round" stroke-linejoin="round"/><g fill-rule="evenodd"><path d="M224.78334,201.3c0.6,0.8 3.3,2 -0.2,4.2c-3.6,2.1 -12.7,5 -21.6,-2.9c-9.6,-8.6 -4.5,-20.3 -0.1,-20.7c4.3,-0.4 2.6,6.6 5.7,14.4c4.4,11.3 15.6,4.2 16.2,5z" fill="#878787" stroke="#001026" stroke-width="1.2" stroke-linecap="round" stroke-linejoin="round"/><path d="M205.68334,187.1c0.5,4.4 1.5,7.4 1.5,7.4c0,0 -1.6,-2 -4,-1.6c-2.9,0.5 -3.8,2.9 -3.9,3.6c-0.7,-1.7 -1.3,-3.8 -1.1,-7.4c0.5,-3.5 2.7,-7.1 5.2,-6.7c2,0.4 1.9,2 2.3,4.7z" fill="#ffffff" stroke="none" stroke-width="1" stroke-linecap="butt" stroke-linejoin="miter"/></g><path d="M226.4449,192.91737c-0.53175,2.35738 -4.44264,4.53794 -4.94762,5.53543c-0.10149,0.2995 2.95576,4.87478 4.76209,7.62381c2.60084,3.853 -2.54229,8.48745 -6.4501,6.02796c-3.6083,-2.35799 -7.86791,-10.47931 -8.27824,-12.42138c-1.03797,-4.42523 7.15496,-10.58688 12.52673,-14.78095" fill="#878787" fill-rule="evenodd" stroke="#001026" stroke-width="1.2" stroke-linecap="round" stroke-linejoin="round"/><path d="M248.3198,236.3753c0,3.86599 -11.83333,3 -11.83333,3c0,0 -10.5,0.86599 -10.5,-3c0,-3.45051 2.7452,-32.89294 7.69909,-34.5825c3.83539,-1.30808 4.43187,28.24917 5.13424,28.24917c6.53537,0 9.5,2.46734 9.5,6.33333z" fill="#878787" fill-rule="nonzero" stroke="#001026" stroke-width="1.2" stroke-linecap="butt" stroke-linejoin="miter"/><path d="M242.3198,237.04197c0,3.86599 -11.83333,3 -11.83333,3c0,0 -10.5,0.86599 -10.5,-3c0,-3.45051 2.7452,-32.89294 7.69909,-34.58249c3.83539,-1.30808 4.43187,28.24916 5.13424,28.24916c6.53537,0 9.5,2.46734 9.5,6.33333z" fill="#878787" fill-rule="nonzero" stroke="#001026" stroke-width="1.2" stroke-linecap="butt" stroke-linejoin="miter"/><g fill-rule="evenodd"><path d="M228.46746,211.92774c-9.18562,-0.14169 -6.59918,-8.70522 -6.1184,-18.13437c0.22478,-5.09504 2.32496,-11.27985 8.25588,-12.7846c3.28322,-1.01509 4.71707,5.1431 6.65887,4.10414c2.93427,-1.51331 4.46287,3.07617 4.72896,5.71988c0,0 0.33245,3.94201 -0.02111,6.21687c-0.40861,2.85536 -0.99765,5.79696 -1.69222,7.12646c0,0 -1.91695,7.90424 -11.81198,7.75161z" fill="#878787" stroke="#001026" stroke-width="1.2" stroke-linecap="round" stroke-linejoin="round"/><path d="M239.54139,204.42127c0,0 -1.87085,-0.43583 -3.96129,-1.09921c-2.58071,-0.76155 -5.03204,-1.25242 -4.5644,-4.91184c0.58904,-2.9416 0.7429,-6.56186 6.05356,-5.88595c5.04397,0.58172 4.40781,3.65665 4.40781,3.65665c-0.04435,5.00879 -1.93568,8.24035 -1.93568,8.24035z" fill="#ffffff" stroke="none" stroke-width="1" stroke-linecap="butt" stroke-linejoin="miter"/></g><path d="M220.06371,195.99621l2.11464,-8.76682l4.89755,0.85834l-2.11464,8.76682z" fill="#878787" fill-rule="nonzero" stroke="#001026" stroke-width="0" stroke-linecap="butt" stroke-linejoin="miter"/><g><g><g fill-rule="evenodd"><g><path d="M237.32857,135.26971c0.21034,-0.29285 0.71352,-0.37537 0.94799,-0.03622l6.20214,9.09854c0,0 7.64531,2.14461 10.58587,4.56392c4.93215,4.02044 6.61072,8.19685 6.61072,8.19685c0,0 7.38467,-0.53533 10.51543,4.37672c3.13076,4.91207 2.81669,16.56974 -13.47534,26.65437c-16.29203,10.08463 -32.2207,10.62996 -42.88102,2.46128c-10.66032,-8.1687 -4.96824,-24.84204 -5.24801,-23.88196l-8.27017,-16.01327c-0.23448,-0.33914 0.12781,-0.79603 0.57263,-0.74973l14.10714,3.13188c0,0 3.61285,-3.17606 7.94123,-5.01866c2.55012,-1.1734 4.86677,-1.83155 7.16026,-2.26728z" fill="#878787" stroke="#001026" stroke-width="1.2" stroke-linecap="butt" stroke-linejoin="miter"/><path d="M261.53543,157.57282c0,0 7.09182,-0.74568 10.22258,4.1664c3.13076,4.91207 2.26621,16.24267 -13.87385,26.16325c-20.8881,13.20331 -36.72311,3.77663 -34.18599,-8.50396c2.50189,-12.37419 16.47014,-7.90788 24.12051,-11.42808c6.56249,-3.00396 5.09225,-9.18201 13.71676,-10.39762z" fill="#ffffff" stroke="none" stroke-width="1" stroke-linecap="butt" stroke-linejoin="miter"/><path d="M279.14375,152.12149c-3.06038,5.2119 -9.76376,7.84149 -9.76376,7.84149" fill="none" stroke="#001026" stroke-width="1.2" stroke-linecap="round" stroke-linejoin="round"/><path d="M281.87192,163.06164c-5.72017,2.68695 -10.03946,2.28237 -10.03946,2.28237" fill="none" stroke="#001026" stroke-width="1.2" stroke-linecap="round" stroke-linejoin="round"/><path d="M246.52853,165.67795c1.96541,-0.73966 4.09489,-1.32736 4.43503,-0.70744c0.5867,1.27506 0.16904,4.42395 -1.29321,5.08111c-1.61419,0.82117 -6.42562,-0.03928 -6.98916,-1.53676c-0.51626,-1.08788 1.97549,-2.13246 3.84734,-2.83691z" fill="#001026" stroke="#001026" stroke-width="1.2" stroke-linecap="round" stroke-linejoin="round"/><path d="M203.88395,180.12396c0,0 9.0351,-0.40853 13.4027,1.26005" fill="none" stroke="#001026" stroke-width="1.2" stroke-linecap="round" stroke-linejoin="round"/><path d="M218.80017,184.55406c-3.42567,3.1056 -10.73889,4.68253 -10.73889,4.68253" fill="none" stroke="#001026" stroke-width="1.2" stroke-linecap="round" stroke-linejoin="round"/><g fill="#ffffff" stroke="#001026" stroke-width="1.2" stroke-linecap="round" stroke-linejoin="round"><path d="M253.45139,150.57151c4.29915,3.19019 6.18906,7.92815 4.20249,10.599c-1.98658,2.67088 -7.03145,2.32565 -11.42419,-0.82932c-4.29915,-3.19019 -6.44532,-8.54359 -4.45874,-11.21447c1.95136,-2.76446 7.38131,-1.74542 11.68046,1.44478z"/></g><g fill="#ffffff" stroke="#001026" stroke-width="1.2" stroke-linecap="round" stroke-linejoin="round"><path d="M231.22687,161.92714c4.35752,3.06138 6.07233,8.18577 4.21456,10.915c-2.4193,2.94057 -7.03045,3.18004 -11.38797,0.11867c-4.45111,-3.02616 -4.83764,-9.39765 -2.71119,-12.54855c2.09122,-3.24449 5.52709,-1.54651 9.8846,1.51487z"/></g></g></g><path d="M258.78239,171.95933c1.13224,2.71921 -11.61458,21.44555 -19.26237,24.62996c-7.64779,3.18441 -11.12787,-8.51451 -12.26011,-11.23373c-1.13224,-2.71921 8.78284,-1.58085 16.43064,-4.76526c7.64779,-3.18441 13.95959,-11.35017 15.09182,-8.63097z" fill="#ffffff" fill-rule="nonzero" stroke="#001026" stroke-width="1.2" stroke-linecap="butt" stroke-linejoin="miter"/><path d="M231.22199,183.1642l4.9199,13.11658" fill="none" fill-rule="nonzero" stroke="#001026" stroke-width="1.2" stroke-linecap="round" stroke-linejoin="miter"/></g><path d="M251.35456,163.29366c-0.02408,-0.07391 -0.03064,-0.16394 -0.00764,-0.27326c0.10292,-0.48928 0.59222,-0.38636 0.59222,-0.38636c0.49416,0.11548 4.09902,-0.33212 4.23021,-0.81581c0.11291,-0.41631 0.03081,-0.98235 0.37869,-1.23743c0.76056,-0.55763 1.8639,-1.16756 1.7022,-2.49363l-0.15946,-0.49472c-0.0116,-0.03374 -0.01976,-0.06924 -0.024,-0.10612c-0.03153,-0.27434 0.16531,-0.52228 0.43965,-0.55381c0.22344,-0.02567 0.42939,0.10015 0.51514,0.29595l0.277,0.5943c0.57128,0.55647 1.15583,1.18784 1.4295,1.71977c0.29723,0.57773 -0.1542,2.4884 0.00536,3.44913l0.41984,0.19053c0.15868,0.06871 0.2773,0.21791 0.29845,0.40201c0.02716,0.23639 -0.11523,0.4532 -0.33068,0.52882l-0.84792,0.31857l-0.00595,-0.01583c-0.04317,0.01722 -0.08712,0.03276 -0.13193,0.04632c-0.38984,0.11801 -0.88861,-0.64481 -1.1705,-0.3508c-1.10513,1.15267 0.90604,2.31968 -1.27916,2.86809c-1.20828,0.30323 -0.82617,-0.55107 -1.62251,-0.78204c-1.29513,-0.3756 -4.84679,-1.4537 -4.90779,-2.75893z" fill="#222222" fill-rule="nonzero" stroke="none" stroke-width="0.5" stroke-linecap="butt" stroke-linejoin="miter"/><path d="M226.33388,175.19477c0.19121,-0.08914 0.33934,-0.05997 0.4467,0.00352c0.00026,-0.00388 0.00056,-0.00778 0.00088,-0.01173c0.04144,-0.49827 0.53973,-0.45684 0.53973,-0.45684c1.44641,0.12133 5.52728,-0.25935 7.63622,-1.30517l-0.06043,-0.52579c-0.07616,-0.86228 0.25558,-1.68027 0.76499,-2.39322c0.30639,-1.39351 1.03832,-4.0717 1.99311,-1.79235c0.05692,0.13591 0.03711,0.35938 -0.01845,0.62637c0.1086,0.07123 0.21709,0.18315 0.32426,0.34228c1.28266,1.90452 1.13396,4.74619 -0.94015,5.66184c-1.11185,0.49083 0.94838,2.32582 -1.56121,2.11504c-0.37541,-0.03153 -0.65563,-0.37131 -0.98345,-0.55696c-0.49786,-0.15022 -2.89521,0.06225 -3.27947,0.34294c-0.43968,0.3212 -0.71156,1.87746 -1.6592,1.55433c-1.48962,-0.50794 -0.7905,-2.16857 -2.88531,-2.33433l-0.56018,-0.60551c0,0 -0.21122,-0.45318 0.24197,-0.66442zM226.83323,175.47721c-0.00344,-0.00638 -0.00672,-0.01289 -0.0099,-0.01959l-0.08834,0.01053c0.03321,0.00287 0.06594,0.00589 0.09823,0.00905z" fill="#222222" fill-rule="nonzero" stroke="none" stroke-width="0.5" stroke-linecap="butt" stroke-linejoin="miter"/></g></g></g></svg>