<svg version="1.1" xmlns="http://www.w3.org/2000/svg" xmlns:xlink="http://www.w3.org/1999/xlink" width="86.50574" height="106.7265" viewBox="0,0,86.50574,106.7265"><defs><linearGradient x1="252.45534" y1="209.8092" x2="251.84196" y2="228.39909" gradientUnits="userSpaceOnUse" id="color-1"><stop offset="0" stop-color="#ffffff"/><stop offset="1" stop-color="#9f9f9f"/></linearGradient><radialGradient cx="267.44479" cy="170.93227" r="8.13758" gradientUnits="userSpaceOnUse" id="color-2"><stop offset="0" stop-color="#ffffff"/><stop offset="1" stop-color="#1a1a1a"/></radialGradient><radialGradient cx="245.45226" cy="168.65448" r="6.75889" gradientUnits="userSpaceOnUse" id="color-3"><stop offset="0" stop-color="#ffffff"/><stop offset="1" stop-color="#1a1a1a"/></radialGradient></defs><g transform="translate(-208.09684,-135.13872)"><g data-paper-data="{&quot;isPaintingLayer&quot;:true}" stroke-miterlimit="10" stroke-dasharray="" stroke-dashoffset="0" style="mix-blend-mode: normal"><path d="M244.24984,199.99082c-0.4214,2.18 -2.92588,10.20044 -1.06957,12.20148c1.79366,1.87424 9.06533,2.22483 7.87274,6.99427c-1.16052,4.67474 -7.34925,2.68486 -11.98296,-0.4677c-6.02092,-4.04458 -5.62034,-15.20565 0.28503,-20.17421c2.15839,-1.69746 5.34822,-0.82855 4.89476,1.44618z" data-paper-data="{&quot;index&quot;:null}" fill="#717171" fill-rule="evenodd" stroke="#001026" stroke-width="1.2" stroke-linecap="round" stroke-linejoin="round"/><g fill-rule="nonzero" stroke="#001026" stroke-width="1.2" stroke-linejoin="miter"><g><g><path d="M250.77148,215.35669l0.35617,-10.79414l2.59859,0.08575l-0.35617,10.79414z" fill="#2c2c2c" stroke-linecap="butt"/><path d="M250.55539,226.93088l2.39633,0.13275l-1.4177,14.74416z" fill="#6c6c6c" stroke-linecap="butt"/><path d="M248.14396,228.27707l0.6134,-18.58988l7.39597,0.24404l-0.61339,18.58989z" fill="url(#color-1)" stroke-linecap="butt"/><path d="M248.67161,212.28577l3.59146,0.31861" fill="none" stroke-linecap="round"/><path d="M252.15093,216.00253l-3.19166,-0.30541" fill="none" stroke-linecap="round"/><path d="M248.68022,218.0892l2.78529,0.49213" fill="none" stroke-linecap="round"/><path d="M248.95468,221.90033l2.1988,0.07255" fill="none" stroke-linecap="round"/><path d="M248.45597,224.88552l2.97858,0.6986" fill="none" stroke-linecap="round"/></g><path d="M248.49608,205.47628l0.09233,-2.79847l7.59587,0.25063l-0.09234,2.79848z" fill="#2c2c2c" stroke-linecap="butt"/></g><path d="M250.87573,218.2617c-0.09654,2.92552 -1.47244,5.25429 -3.0732,5.20148c-1.60076,-0.05281 -2.82017,-2.46723 -2.72364,-5.39276c0.09654,-2.92552 1.47245,-5.2543 3.07321,-5.20149c1.60076,0.05281 2.82017,2.46723 2.72363,5.39276z" fill="#717171" stroke-linecap="butt"/><path d="M261.10317,217.59863c-0.14753,4.47108 -2.54923,8.0203 -5.36436,7.92741c-2.81513,-0.09289 -4.97763,-3.79271 -4.8301,-8.26378c0.14753,-4.47108 2.54922,-8.0203 5.36435,-7.92742c2.81513,0.09289 4.97763,3.7927 4.83011,8.26378z" fill="#717171" stroke-linecap="butt"/></g><g fill-rule="evenodd"><path d="M226.83844,209.90913c-0.02851,0.99959 1.33736,3.6196 -2.77127,3.16228c-4.12464,-0.59782 -13.05146,-3.99369 -15.0981,-15.71679c-2.15865,-12.7067 9.11643,-18.68771 12.80878,-16.26147c3.61408,2.36399 -2.07423,6.78363 -4.50424,14.81762c-3.59164,11.58232 9.59335,12.99876 9.56483,13.99836z" fill="#717171" stroke="#001026" stroke-width="1.2" stroke-linecap="round" stroke-linejoin="round"/><path d="M220.73173,186.9057c-2.348,3.75459 -3.43311,6.72486 -3.43311,6.72486c0,0 -0.00699,-2.56123 -2.13419,-3.74235c-2.58073,-1.41415 -4.7792,-0.09628 -5.29325,0.38926c0.51056,-1.76616 1.3484,-3.7831 3.74613,-6.47584c2.57025,-2.42771 6.53313,-3.87533 8.24053,-2.0059c1.31612,1.55815 0.24176,2.748 -1.12613,5.10997z" fill="#ffffff" stroke="none" stroke-width="1" stroke-linecap="butt" stroke-linejoin="miter"/></g><path d="M248.3198,236.3753c0,3.86599 -11.83333,3 -11.83333,3c0,0 -10.5,0.86599 -10.5,-3c0,-3.45051 2.7452,-32.89294 7.69909,-34.5825c3.83539,-1.30808 4.43187,28.24917 5.13424,28.24917c6.53537,0 9.5,2.46734 9.5,6.33333z" fill="#717171" fill-rule="nonzero" stroke="#001026" stroke-width="1.2" stroke-linecap="butt" stroke-linejoin="miter"/><path d="M242.3198,237.04197c0,3.86599 -11.83333,3 -11.83333,3c0,0 -10.5,0.86599 -10.5,-3c0,-3.45051 2.7452,-32.89294 7.69909,-34.58249c3.83539,-1.30808 4.43187,28.24916 5.13424,28.24916c6.53537,0 9.5,2.46734 9.5,6.33333z" fill="#717171" fill-rule="nonzero" stroke="#001026" stroke-width="1.2" stroke-linecap="butt" stroke-linejoin="miter"/><g fill-rule="evenodd"><path d="M227.86869,213.31527c-9.02654,-1.70797 -5.01594,-9.70414 -2.93229,-18.91274c1.09141,-4.98184 4.21675,-10.71725 10.3175,-11.18726c3.40832,-0.43961 3.76967,5.87297 5.86035,5.18081c3.14956,-0.99009 3.87211,3.79299 3.68291,6.44331c0,0 -0.34549,3.94089 -1.08227,6.12198c-0.89013,2.74366 -1.97278,5.54151 -2.88415,6.73289c0,0 -3.23837,7.46087 -12.96204,5.621z" fill="#717171" stroke="#001026" stroke-width="1.2" stroke-linecap="round" stroke-linejoin="round"/><path d="M240.06166,207.80979c0,0 -1.76896,-0.74886 -3.71544,-1.75942c-2.41279,-1.191 -4.74431,-2.0932 -3.65873,-5.61904c1.08264,-2.79783 1.85236,-6.33867 6.96964,-4.76594c4.87058,1.43438 3.71875,4.35555 3.71875,4.35555c-0.8989,4.92767 -3.31422,7.78886 -3.31422,7.78886z" fill="#ffffff" stroke="none" stroke-width="1" stroke-linecap="butt" stroke-linejoin="miter"/></g><g stroke="#001026" stroke-width="1.2"><path d="M234.38479,206.25896c2.73473,-9.43368 5.4712,-22.82146 6.66614,-22.47506c1.19494,0.3464 0.39584,14.2958 -2.3389,23.72948c-2.73472,9.43368 -5.92035,16.80038 -7.11527,16.45398c-1.19494,-0.3464 0.05331,-8.27472 2.78805,-17.70841z" fill="#ff8200" fill-rule="nonzero" stroke-linecap="butt" stroke-linejoin="miter"/><path d="M232.69084,197.61217c0.32694,2.39439 -2.57343,5.8058 -2.69737,6.91694c0.00974,0.31608 4.47494,3.532 7.12915,5.47496c3.78486,2.69905 0.58902,8.84042 -3.93243,7.90418c-4.20536,-0.946 -11.03794,-7.06286 -12.10202,-8.73849c-2.52111,-3.78208 2.99716,-12.42146 6.5613,-18.23033" fill="#717171" fill-rule="evenodd" stroke-linecap="round" stroke-linejoin="round"/></g><g><path d="M272.29805,197.50768c-0.81193,4.57767 -11.50532,6.50869 -23.88436,4.31306c-12.37904,-2.19563 -21.75605,-7.68647 -20.94412,-12.26414c0.81193,-4.57767 11.50532,-6.50869 23.88436,-4.31306c12.37904,2.19563 21.75605,7.68647 20.94412,12.26414z" fill="#ff8200" fill-rule="nonzero" stroke="#001026" stroke-width="1.2" stroke-linecap="butt" stroke-linejoin="miter"/><g><g><g><path d="M269.35086,143.26649c0.34006,-0.11983 0.79995,0.1004 0.7982,0.51271l-0.1194,11.01071c0,0 5.04306,6.13332 6.07044,9.79999c1.7446,6.11934 0.73162,10.50499 0.73162,10.50499c0,0 6.3627,3.78629 6.11977,9.60617c-0.24294,5.81988 -7.17075,15.201 -26.30253,14.1498c-19.13178,-1.0512 -32.50741,-9.71795 -36.57633,-22.51693c-4.06892,-12.79898 10.13941,-23.21642 9.36064,-22.58912l2.37979,-17.86495c0.00175,-0.41231 0.56029,-0.57972 0.89861,-0.28724l9.77771,10.64032c0,0 4.78027,-0.53759 9.3844,0.42781c2.76283,0.49678 5.03935,1.28254 7.16964,2.23747z" fill="#717171" fill-rule="evenodd" stroke="#001026" stroke-width="1.2" stroke-linecap="butt" stroke-linejoin="miter"/><path d="M270.35623,172.46123c-1.0046,3.94727 -7.73066,5.64261 -15.02307,3.78665c-7.29241,-1.85596 -12.38968,-6.5604 -11.38508,-10.50767c1.0046,-3.94727 7.73066,-5.64261 15.02307,-3.78665c7.29241,1.85596 12.38968,6.5604 11.38508,10.50767z" fill="#000000" fill-rule="nonzero" stroke="none" stroke-width="NaN" stroke-linecap="butt" stroke-linejoin="miter"/><path d="M276.44233,175.40854c0,0 6.24288,3.44623 5.99994,9.26611c-0.24294,5.81988 -7.43507,14.61779 -26.34837,13.51901c-24.68559,-1.12323 -32.27865,-17.91476 -23.17122,-26.53478c9.13209,-8.71693 18.03237,2.93833 26.32084,4.42867c7.10089,1.29128 9.43002,-4.61678 17.19881,-0.67901z" fill="#ffffff" fill-rule="evenodd" stroke="none" stroke-width="1" stroke-linecap="butt" stroke-linejoin="miter"/><path d="M294.00258,181.01279c-5.49204,2.52338 -12.49427,0.84446 -12.49427,0.84446" fill="none" fill-rule="evenodd" stroke="#001026" stroke-width="1.2" stroke-linecap="round" stroke-linejoin="round"/><path d="M289.98034,191.54614c-6.22869,-1.0693 -9.53958,-3.87251 -9.53958,-3.87251" fill="none" fill-rule="evenodd" stroke="#001026" stroke-width="1.2" stroke-linecap="round" stroke-linejoin="round"/><path d="M259.49716,173.46921c2.03512,0.51795 4.11783,1.25439 4.04209,1.95743c-0.24839,1.38141 -2.39265,3.72495 -3.96788,3.42723c-1.79372,-0.25014 -5.24736,-3.7088 -4.85273,-5.25937c0.19906,-1.18759 2.84031,-0.61857 4.77853,-0.12528z" fill="#001026" fill-rule="evenodd" stroke="#001026" stroke-width="1.2" stroke-linecap="round" stroke-linejoin="round"/><path d="M216.25733,160.91661c0,0 7.64371,4.83463 10.27099,8.70211" fill="none" fill-rule="evenodd" stroke="#001026" stroke-width="1.2" stroke-linecap="round" stroke-linejoin="round"/><path d="M225.95581,173.08459c-4.58645,0.58692 -11.48653,-2.30426 -11.48653,-2.30426" fill="none" fill-rule="evenodd" stroke="#001026" stroke-width="1.2" stroke-linecap="round" stroke-linejoin="round"/><path d="M274.18976,169.45087c1.70051,5.07624 0.16812,5.63354 -2.98933,6.68733c-3.15746,1.05379 -7.09739,-2.11589 -8.89482,-7.2168c-0.88722,-2.6234 -2.15116,-7.70701 -0.94051,-6.84846c13.7653,9.76179 12.13383,5.80932 12.53042,6.71135c0.09784,0.22254 0.21663,0.43488 0.29424,0.66658z" fill="url(#color-2)" fill-rule="evenodd" stroke="#001026" stroke-width="1.2" stroke-linecap="round" stroke-linejoin="round"/><path d="M249.0939,161.6378c1.82209,5.004 0.2964,10.18784 -2.78881,11.36321c-3.66667,1.02738 -7.58544,-1.4146 -9.40753,-6.4186c8.6637,1.64803 10.37425,-9.94861 12.19634,-4.94461z" fill="url(#color-3)" fill-rule="evenodd" stroke="#001026" stroke-width="1.2" stroke-linecap="round" stroke-linejoin="round"/></g><path d="M243.01533,172.63759c0.01112,0.02806 0.02017,0.05943 0.02692,0.09428c0.13736,0.00802 0.28233,0.0062 0.43602,-0.0067c0.11442,0.02835 0.22945,0.05763 0.34492,0.08692c0.47229,-0.04489 0.92349,-0.10334 1.14818,-0.10195c0.27311,-0.03634 0.54603,0.00849 0.80613,0.06944c0.1795,-0.31864 0.42903,-0.56501 0.91624,-0.55251c0.27505,0.00706 0.50635,0.06817 0.68702,0.16596c0.12152,-0.08001 0.24197,-0.15448 0.35733,-0.21568c0.68512,-0.89468 1.32237,-2.30077 1.63437,-2.77904l0.06486,-0.25484c0.03405,-0.1338 0.17013,-0.21467 0.30394,-0.18062c0.1338,0.03405 0.21467,0.17013 0.18062,0.30394l-0.07242,0.28455l-0.06124,-0.01559c0.00003,0.00742 0.00004,0.01485 0.00002,0.02228l0.04821,0.03132c-0.01632,0.02595 -0.03295,0.05297 -0.04986,0.08101c-0.05277,1.9088 -1.35061,4.43907 -2.41952,6.34308c-0.59371,1.98753 -1.57265,4.5989 -2.8462,5.88182l0.04468,0.02926l-0.1619,0.24725c-0.056,0.09006 -0.16574,0.13772 -0.27399,0.11017c-0.1338,-0.03405 -0.21467,-0.17013 -0.18062,-0.30394c0.0002,-0.00079 0.0004,-0.00159 0.00062,-0.00238l0.12732,-0.48315l0.00822,0.00216l-0.00016,-0.0273c0.7133,-1.41715 1.30652,-2.85452 2.02596,-4.25896c0.36295,-0.64078 0.65833,-1.26269 0.91897,-1.87959c0.08205,-0.25855 0.15732,-0.51921 0.22427,-0.78225c0.07715,-0.30059 0.19527,-0.58378 0.31656,-0.86607c-0.14963,0.16423 -0.36625,0.31734 -0.65636,0.44293c-1.23498,0.69671 -2.35947,0.49346 -3.43998,0.41096l-0.09243,0.12686c-0.05777,0.08327 -0.16314,0.12622 -0.26714,0.09975c-0.11685,-0.02974 -0.19334,-0.1373 -0.18815,-0.2532c-0.66904,-0.00746 -1.32525,0.1007 -1.985,0.57579l-0.34452,0.3366c-0.06032,0.06097 -0.15046,0.08927 -0.23957,0.06659c-0.12452,-0.03169 -0.2032,-0.15175 -0.18606,-0.2761l0.04932,-0.40156l0.07564,0.00929c0.04629,-0.62235 0.27198,-1.05078 0.61513,-1.3356c-0.01028,-0.03597 -0.02118,-0.07273 -0.03268,-0.11012c-1.38557,1.71827 -1.43274,4.14457 -2.48782,5.97684c-0.02497,0.0678 -0.05029,0.13578 -0.07585,0.20412l-0.06992,0.27472c-0.03405,0.1338 -0.17013,0.21467 -0.30394,0.18062c-0.1338,-0.03405 -0.21467,-0.17013 -0.18062,-0.30394l0.07242,-0.28455l0.0062,0.00158l-0.00253,-0.01454c0.02061,-0.05538 0.04109,-0.1105 0.06141,-0.16546c-0.04732,-0.45056 0.30256,-1.27148 0.39358,-1.62375c0.16492,-0.63832 0.44033,-1.45007 0.79438,-2.24952c0.21575,-0.68141 0.42926,-1.36718 0.60934,-2.0448l-0.06518,0.04869c-0.05859,0.04451 -0.13619,0.06286 -0.21303,0.0433c-0.1338,-0.03405 -0.21467,-0.17013 -0.18062,-0.30394c0.01036,-0.04069 0.03015,-0.07649 0.05644,-0.10564l0.28297,-0.32732l0.01135,0.00981c0.07259,-0.14257 0.15245,-0.28092 0.24409,-0.41163c0.00391,-0.00558 0.00815,-0.01141 0.01267,-0.0175c-0.19894,-0.20191 -0.4,-0.39969 -0.60549,-0.5837c-0.00431,0.00214 -0.00862,0.00433 -0.01294,0.00657c-0.04112,0.02134 -0.08126,0.04723 -0.12057,0.0769c-0.28489,0.50514 -0.56838,0.99902 -0.92096,1.45043l0.05171,0.03012l-0.24891,0.42726c-0.05367,0.09715 -0.16787,0.14986 -0.28046,0.1212c-0.07834,-0.01994 -0.13854,-0.07485 -0.16814,-0.1438c-0.13226,-0.03514 -0.21187,-0.17032 -0.17803,-0.30327l0.09656,-0.37941l0.07539,0.01919c0.08774,-0.67538 0.38484,-1.11199 0.78041,-1.34139c0.1175,-0.14506 0.24252,-0.28426 0.37109,-0.41137c-0.0447,-0.03164 -0.08968,-0.06232 -0.13496,-0.09196c-0.1437,-0.24513 -0.2056,-0.54213 -0.20964,-0.82623l0.00302,-0.00976l-0.00237,-0.0002l0.04158,-0.49354c0.001,-0.01505 0.00338,-0.03022 0.00723,-0.04537c0.03405,-0.1338 0.17013,-0.21467 0.30394,-0.18062c0.1216,0.03095 0.19948,0.14617 0.18711,0.26736l-0.0281,0.33352c0.03994,0.06632 0.08087,0.12851 0.12275,0.18684c0.05943,-0.04919 0.14074,-0.07029 0.22123,-0.0498l0.37941,0.09656l-0.00357,0.01401l0.04158,-0.00101c0.19953,0.12558 0.38177,0.2663 0.55339,0.41466c0.16312,0.08624 0.30169,0.20281 0.37408,0.34649c0.04364,0.04261 0.08687,0.08537 0.12981,0.12812c0.75012,0.14323 1.54012,0.21677 2.20795,0.99706c0.08743,0.10216 0.12901,0.21114 0.13696,0.32297zM245.12211,173.93547c-0.01684,0.00075 -0.03369,0.00142 -0.05053,0.00201c0.01948,0.0092 0.03217,0.0127 0.03697,0.00891c0.00456,-0.0036 0.00908,-0.00724 0.01356,-0.01093zM248.00099,172.755c0.03137,-0.08691 0.06296,-0.17408 0.09482,-0.26156c-0.0945,0.11813 -0.19132,0.22945 -0.29037,0.33164c0.02021,0.0626 0.03448,0.11929 0.04335,0.17053c0.00353,-0.01007 0.00703,-0.02017 0.01049,-0.03027c0.02081,-0.06074 0.08024,-0.13648 0.14171,-0.21034zM247.16484,173.403c-0.04162,-0.00771 -0.08365,-0.01642 -0.12565,-0.02571c-0.09067,0.03607 -0.18271,0.06196 -0.27605,0.07633c-0.00247,0.00038 -0.00496,0.00075 -0.00745,0.0011l0.04355,0.01108c0.0566,0.0144 0.10372,0.04706 0.13668,0.09007c0.09019,-0.05063 0.16628,-0.1019 0.22893,-0.15287zM246.22066,172.89069c0.00129,0.00031 0.00259,0.00062 0.00388,0.00093c0.14081,-0.00924 0.28712,-0.00796 0.42628,-0.00098c0.08428,-0.05417 0.17294,-0.11462 0.26409,-0.17774c-0.10322,-0.01231 -0.22174,-0.01425 -0.35414,-0.00383c-0.1356,0.01067 -0.24533,0.07847 -0.34012,0.18162zM241.92891,173.50892c-0.02728,-0.00587 -0.0544,-0.01207 -0.08129,-0.01856c-0.01999,0.03668 -0.0395,0.07445 -0.05871,0.11301l0.12117,-0.07201c0.00636,-0.00752 0.01264,-0.01501 0.01882,-0.02243zM245.53146,174.11731c0.21087,-0.04146 0.42541,-0.10262 0.64446,-0.1899c-0.06539,0.0051 -0.13,0.00619 -0.19203,0.00172c-0.05061,0.06134 -0.12886,0.09627 -0.21057,0.09042l-0.16866,-0.00875c-0.02345,0.03702 -0.04779,0.07266 -0.0732,0.10651zM240.42382,173.10742c0.03899,-0.04583 0.07827,-0.09033 0.11782,-0.13337c-0.02382,-0.02395 -0.04763,-0.04801 -0.07143,-0.07216c-0.01456,0.0678 -0.03006,0.13634 -0.04639,0.20553zM241.65312,174.19004c0.00218,-0.00062 0.00437,-0.00124 0.00655,-0.00185c-0.00172,-0.00033 -0.00344,-0.00069 -0.00516,-0.00106zM244.69435,174.19331c-0.13032,-0.09516 -0.27639,-0.19438 -0.40088,-0.25131c-0.12403,0.08222 -0.24534,0.15206 -0.36414,0.21038c0.25202,0.02274 0.50644,0.04083 0.76501,0.04093zM241.33865,172.61359c-0.00016,0.04691 -0.00314,0.09759 -0.00914,0.15226c0.0737,0.00704 0.14887,0.01593 0.22486,0.02682c-0.07195,-0.05884 -0.1438,-0.11868 -0.21572,-0.17908zM241.45597,173.48666c0.00335,0.00347 0.0067,0.00695 0.01005,0.01042c0.00621,-0.01258 0.01262,-0.02514 0.01921,-0.03769c-0.00972,0.00792 -0.01947,0.01703 -0.02926,0.02728zM240.93442,174.49626c0.04366,-0.02525 0.0872,-0.04915 0.13061,-0.07174c-0.00731,-0.0216 -0.01171,-0.04432 -0.01285,-0.06757l-0.0066,-0.09088c-0.03617,0.07806 -0.07319,0.15575 -0.11115,0.2302z" fill="#000000" fill-rule="nonzero" stroke="none" stroke-width="0.5" stroke-linecap="butt" stroke-linejoin="miter"/><path d="M270.8095,178.25564c0.10283,-0.06345 0.20737,-0.13522 0.31173,-0.21346c-0.09427,0.04715 -0.17962,0.092 -0.25243,0.13416c-0.01993,0.02645 -0.0397,0.05288 -0.0593,0.0793zM272.49747,177.36556c-0.6107,0.80009 -1.52637,1.61074 -2.18437,1.62856c-0.02569,0.03303 -0.05118,0.06578 -0.07649,0.09826c-0.94028,1.49618 -1.42748,2.97032 -1.82404,4.59471c0.00768,0.96609 0.07723,1.98405 -0.40955,2.75784l0.07352,0.04722l-0.16415,0.25556c-0.05565,0.09125 -0.16613,0.13975 -0.27512,0.11201c-0.09672,-0.02461 -0.16577,-0.10253 -0.18377,-0.19437l-0.09199,-0.42239l0.0154,-0.00335l-0.02111,-0.04743c0.25698,-1.40908 0.51156,-2.699 0.88952,-3.92447c0.20161,-1.17967 0.54657,-2.18256 1.4903,-3.31918c0.2389,-0.38277 0.50439,-0.76409 0.80108,-1.14596c0.17089,-0.10376 0.45203,-0.23477 0.75854,-0.37729c-0.48037,0.1369 -1.01753,-0.0994 -1.52131,-0.38977c-0.35527,0.01778 -0.67326,-0.00378 -0.93158,-0.06952c-0.28436,-0.07237 -0.59061,-0.1952 -0.90272,-0.32165c-0.06554,0.21866 -0.08539,0.5567 -0.0486,1.05291c0.0302,0.40733 -0.02385,0.73703 0.11162,1.12844c0.21756,1.72546 -0.94158,6.75166 -2.68202,7.98925l0.06063,0.10203l-0.23798,0.14142v0v0c-0.055,0.03268 -0.12247,0.04438 -0.18938,0.02736c-0.1338,-0.03405 -0.21467,-0.17013 -0.18062,-0.30394l0.09656,-0.37941c0.16295,-0.63151 0.22495,-1.28066 0.38795,-1.92116c0.47437,-1.7912 1.64796,-3.55618 1.89177,-5.43589c0.05575,-0.42981 -0.03737,-0.8555 -0.09753,-1.28026c-0.07331,0.08379 -0.14781,0.16611 -0.22232,0.24628c-0.28829,0.74353 -0.70702,1.67096 -1.17609,2.51366c-0.196,0.68012 -0.45157,1.27859 -0.85371,1.65988c-0.48804,0.43991 -2.58312,4.45488 -3.07601,3.80808c-0.32055,-0.42064 1.52416,-3.089 1.67597,-3.56429c0.15936,-0.25026 0.33295,-0.52367 0.51181,-0.81477c0.12855,-0.92339 0.27326,-2.28838 0.55356,-2.54073c0.29574,-0.26625 0.6653,-0.41718 1.03275,-0.61724c0.23594,-0.67852 0.38299,-1.35735 0.37477,-1.99571c-0.19788,-0.1445 -0.36326,-0.44552 -0.4196,-0.96998c-0.05184,-0.01875 -0.10458,-0.03635 -0.15831,-0.05279l-0.03043,-0.09321l-0.03479,0.02068l-0.14142,-0.23798c-0.03268,-0.055 -0.04438,-0.12247 -0.02736,-0.18938c0.03405,-0.1338 0.17013,-0.21467 0.30394,-0.18062l0.28455,0.07242l-0.00469,0.01843c0.01226,-0.00137 0.02522,-0.00207 0.03894,-0.00201c0.0524,0.00022 0.09378,0.01138 0.12645,0.02889c2.1595,0.22945 3.73408,1.74771 6.36956,0.83495c0.08582,-0.00624 0.16692,-0.01464 0.24365,-0.02508c0.22712,-0.43273 0.45622,-0.91803 0.77019,-1.07605c0.40495,-0.20381 0.77797,-0.34462 1.11634,-0.42586c0.03571,-0.0416 0.07332,-0.08291 0.11329,-0.12376c-0.04276,-0.26257 0.03871,-0.46083 0.33504,-0.52337c0.0835,-0.01762 0.15967,-0.01235 0.22914,0.01271l0.05469,-0.08513c0.05565,-0.09125 0.16613,-0.13975 0.27512,-0.11201c0.1338,0.03405 0.21467,0.17013 0.18062,0.30394l-0.07242,0.28455l-0.08174,-0.0208l-0.00605,0.00943c0.03288,0.06872 0.06287,0.14468 0.09023,0.22663c0.94852,0.25013 1.32919,1.32247 0.98536,3.01956c-0.20569,0.83087 -0.42987,1.65237 -0.66205,2.47037c-0.03873,2.05646 -0.31385,4.51761 -1.49119,5.75493l0.07814,0.08173l-0.35827,0.34255c-0.0603,0.05958 -0.14943,0.087 -0.23756,0.06457c-0.1338,-0.03405 -0.21467,-0.17013 -0.18062,-0.30394l0.07242,-0.28455c0.44511,-1.74891 0.96326,-3.45349 1.45754,-5.16705c0.11381,-0.78789 0.17412,-1.59286 0.14214,-2.42625c-0.02961,-0.28926 -0.25203,-1.65753 -0.35873,-2.64558c-0.06234,-0.03599 -0.12601,-0.06763 -0.19086,-0.09376c-0.35214,0.36923 -0.81741,0.70377 -1.33791,0.99114c-0.03042,0.35625 -0.05068,0.73534 -0.20641,0.93187c-0.12453,0.15715 -0.36141,0.31811 -0.64221,0.47508zM267.54584,179.54749c-0.37247,1.73402 -1.43355,3.52189 -1.80352,5.05709c-0.08575,0.33694 -0.14436,0.67437 -0.20378,1.01081c0.22992,-0.35413 0.48347,-0.69324 0.55299,-0.84126c0.59419,-1.26497 1.4168,-3.61418 1.45431,-5.22664zM266.30136,177.77683c0.18622,-0.34625 0.32672,-0.65641 0.38921,-0.90949l0.05392,-0.21186c-0.18392,0.31287 -0.32417,0.69828 -0.44313,1.12135zM264.7722,180.10725c0.13028,-0.25127 0.25546,-0.50759 0.37168,-0.76662c-0.23435,0.10194 -0.442,0.1889 -0.44086,0.19342c0.04764,0.18826 0.0684,0.37965 0.06917,0.5732zM267.3494,176.4137c-0.02941,-0.01057 -0.05878,-0.02091 -0.0881,-0.03099c-0.01914,-0.00391 -0.03818,-0.00789 -0.05713,-0.01195c0.02278,0.0223 0.04107,0.04874 0.05391,0.07774l0.03208,0.07078c0.01698,-0.03124 0.03725,-0.06714 0.05924,-0.10559zM271.58408,177.29037c0.21009,-0.09906 0.41982,-0.2011 0.60376,-0.30138c0.14013,-0.18375 0.25586,-0.36558 0.33559,-0.53394c-0.14077,0.22457 -0.30899,0.39287 -0.54793,0.42482c-0.12173,0.1838 -0.25307,0.31762 -0.39142,0.41049zM275.69959,176.18244c0.02664,0.69975 0.01365,1.31059 0.03281,1.49006c0.00127,0.04385 0.00254,0.08848 0.0038,0.13384c0.0645,-0.24661 0.12762,-0.4939 0.1891,-0.742c0.02843,-0.13828 0.05285,-0.27102 0.07315,-0.39817c-0.0032,-0.00068 -0.0064,-0.00143 -0.00961,-0.00225c-0.08543,-0.02174 -0.14928,-0.08508 -0.17541,-0.16285l-0.11003,-0.31226c-0.0012,-0.00206 -0.00246,-0.00419 -0.0038,-0.00639zM271.00084,176.8525c0.15802,-0.00216 0.30402,-0.03611 0.43299,-0.11267c-0.14536,0.0416 -0.29001,0.07922 -0.43299,0.11267zM270.96737,176.45345c-0.33433,0.03888 -0.70435,0.06918 -1.08969,0.08582c0.03495,0.01574 0.06984,0.03117 0.10464,0.04623c0.32437,-0.0094 0.65628,-0.05504 0.98505,-0.13204zM273.00158,175.51509c-0.00342,0.00593 -0.00682,0.01188 -0.0102,0.01787c0.00294,-0.00215 0.00588,-0.0043 0.00881,-0.00646c0.00045,-0.00381 0.00092,-0.00761 0.00139,-0.01141zM275.57874,174.80574c0.12691,0.06123 0.24213,0.13446 0.34153,0.21965c-0.08546,-0.17205 -0.20769,-0.29754 -0.36863,-0.37548c0.00958,0.05101 0.01861,0.10301 0.0271,0.15583z" fill="#000000" fill-rule="nonzero" stroke="none" stroke-width="0.5" stroke-linecap="butt" stroke-linejoin="miter"/></g><path d="M250.14808,194.86274c-0.87212,3.42671 -2.96805,5.85111 -4.68141,5.41505c-1.71335,-0.43606 -2.39531,-3.56745 -1.52319,-6.99416c0.87212,-3.42671 2.96805,-5.85111 4.68141,-5.41505c1.71335,0.43606 2.39531,3.56745 1.52319,6.99416z" fill="#000000" fill-rule="nonzero" stroke="#001026" stroke-width="1.2" stroke-linecap="butt" stroke-linejoin="miter"/></g></g></g></g></svg>