<svg version="1.1" xmlns="http://www.w3.org/2000/svg" xmlns:xlink="http://www.w3.org/1999/xlink" width="88.59578" height="114.41589" viewBox="0,0,88.59578,114.41589"><defs><linearGradient x1="259.05027" y1="182.86815" x2="263.83405" y2="202.00767" gradientUnits="userSpaceOnUse" id="color-1"><stop offset="0" stop-color="#ffffff"/><stop offset="1" stop-color="#9f9f9f"/></linearGradient></defs><g transform="translate(-196.92553,-126.30897)"><g data-paper-data="{&quot;isPaintingLayer&quot;:true}" stroke-miterlimit="10" stroke-dasharray="" stroke-dashoffset="0" style="mix-blend-mode: normal"><path d="M241.4054,188.48277c1.99008,1.00908 9.05863,5.66434 11.48045,4.37423c2.28295,-1.26268 4.5502,-8.35224 8.83234,-5.87714c4.19932,2.41767 0.63883,7.99153 -3.63013,11.71279c-5.49704,4.84939 -16.15186,1.41905 -19.37561,-5.76674c-1.06398,-2.59415 0.62007,-5.50968 2.69296,-4.44315z" data-paper-data="{&quot;index&quot;:null}" fill="#878787" fill-rule="evenodd" stroke="#001026" stroke-width="1.2" stroke-linecap="round" stroke-linejoin="round"/><g data-paper-data="{&quot;index&quot;:null}" fill-rule="nonzero" stroke="#001026" stroke-width="1.2" stroke-linejoin="miter"><g><g><path d="M259.04101,189.04139l-2.77766,-11.11327l2.51253,-0.71205l2.77767,11.11327z" fill="#2c2c2c" stroke-linecap="butt"/><path d="M262.17815,200.90676l2.33249,-0.60191l2.90266,15.46656z" fill="#6c6c6c" stroke-linecap="butt"/><path d="M260.25851,203.02096l-4.78376,-19.13951l7.15105,-2.02659l4.78377,19.1395z" fill="url(#color-1)" stroke-linecap="butt"/><path d="M256.14343,186.55685l3.53035,-0.78011" fill="none" stroke-linecap="round"/><path d="M257.40443,189.94594l3.14378,-0.67056" fill="none" stroke-linecap="round"/><path d="M260.6371,192.11511l-2.80868,0.35522" fill="none" stroke-linecap="round"/><path d="M261.31829,195.6685l-2.12599,0.6025" fill="none" stroke-linecap="round"/><path d="M262.63073,199.26338l-3.0534,0.20418" fill="none" stroke-linecap="round"/></g><path d="M254.008,179.66918l-0.72014,-2.88122l7.34435,-2.08137l0.72013,2.88123z" fill="#2c2c2c" stroke-linecap="butt"/></g><path d="M259.98013,191.97072c0.75283,3.01201 0.10843,5.8093 -1.43932,6.24793c-1.54775,0.43864 -3.41274,-1.6475 -4.16556,-4.65952c-0.75283,-3.01201 -0.10842,-5.8093 1.43933,-6.24794c1.54775,-0.43864 3.41274,1.6475 4.16557,4.65952z" fill="#878787" stroke-linecap="butt"/><path d="M269.57981,188.1483c1.15055,4.60326 -0.12329,8.96029 -2.84519,9.73167c-2.7219,0.77139 -5.86114,-2.33497 -7.01168,-6.93824c-1.15055,-4.60326 0.12329,-8.96028 2.84518,-9.73166c2.7219,-0.77139 5.86116,2.33496 7.01171,6.93822z" fill="#878787" stroke-linecap="butt"/></g><g fill-rule="evenodd"><path d="M224.78334,199.99589c0.6,0.81983 3.3,2.04958 -0.2,4.30412c-3.6,2.15206 -12.7,5.12396 -21.6,-2.97189c-9.6,-8.8132 -4.5,-20.80326 -0.1,-21.21318c4.3,-0.40992 2.6,6.76362 5.7,14.75699c4.4,11.58014 15.6,4.30412 16.2,5.12396z" fill="#878787" stroke="#001026" stroke-width="1.2" stroke-linecap="round" stroke-linejoin="round"/><path d="M205.68334,185.44386c0.5,4.50908 1.5,7.58345 1.5,7.58345c0,0 -1.6,-2.04958 -4,-1.63967c-2.9,0.5124 -3.8,2.97189 -3.9,3.68925c-0.7,-1.74214 -1.3,-3.89421 -1.1,-7.58345c0.5,-3.58677 2.7,-7.27602 5.2,-6.8661c2,0.40992 1.9,2.04958 2.3,4.81652z" fill="#ffffff" stroke="none" stroke-width="1" stroke-linecap="butt" stroke-linejoin="miter"/></g><path d="M248.3198,236.28234c0,3.96183 -11.83333,3.07437 -11.83333,3.07437c0,0 -10.5,0.88746 -10.5,-3.07437c0,-3.53605 2.7452,-33.70839 7.69909,-35.43984c3.83539,-1.34051 4.43187,28.9495 5.13424,28.9495c6.53537,0 9.5,2.52851 9.5,6.49034z" fill="#878787" fill-rule="nonzero" stroke="#001026" stroke-width="1.2" stroke-linecap="butt" stroke-linejoin="miter"/><path d="M242.3198,236.96554c0,3.96183 -11.83333,3.07437 -11.83333,3.07437c0,0 -10.5,0.88746 -10.5,-3.07437c0,-3.53605 2.7452,-33.70839 7.69909,-35.43983c3.83539,-1.34051 4.43187,28.94949 5.13424,28.94949c6.53537,0 9.5,2.52851 9.5,6.49034z" fill="#878787" fill-rule="nonzero" stroke="#001026" stroke-width="1.2" stroke-linecap="butt" stroke-linejoin="miter"/><g fill-rule="evenodd"><path d="M228.46746,211.2287c-9.18562,-0.1452 -6.59918,-8.92103 -6.1184,-18.58394c0.22478,-5.22135 2.32496,-11.55949 8.25588,-13.10154c3.28322,-1.04026 4.71707,5.2706 6.65887,4.20589c2.93427,-1.55083 4.46287,3.15243 4.72896,5.86168c0,0 0.33245,4.03974 -0.02111,6.37099c-0.40861,2.92615 -0.99765,5.94067 -1.69222,7.30313c0,0 -1.91695,8.1002 -11.81198,7.94378z" fill="#878787" stroke="#001026" stroke-width="1.2" stroke-linecap="round" stroke-linejoin="round"/><path d="M239.54139,203.53614c0,0 -1.87085,-0.44663 -3.96129,-1.12646c-2.58071,-0.78043 -5.03204,-1.28347 -4.5644,-5.03361c0.58904,-3.01453 0.7429,-6.72454 6.05356,-6.03187c5.04397,0.59614 4.40781,3.7473 4.40781,3.7473c-0.04435,5.13296 -1.93568,8.44464 -1.93568,8.44464z" fill="#ffffff" stroke="none" stroke-width="1" stroke-linecap="butt" stroke-linejoin="miter"/></g><path d="M226.4449,194.82141c-0.53175,2.41582 -4.44264,4.65044 -4.94762,5.67266c-0.10149,0.30692 2.95576,4.99563 4.76209,7.81281c2.60084,3.94852 -2.54229,8.69786 -6.4501,6.1774c-3.6083,-2.41645 -7.86791,-10.7391 -8.27824,-12.72932c-1.03797,-4.53494 7.15496,-10.84934 12.52673,-15.14739" fill="#878787" fill-rule="evenodd" stroke="#001026" stroke-width="1.2" stroke-linecap="round" stroke-linejoin="round"/><g><g fill-rule="evenodd"><g><path d="M242.08305,126.68135c0.22713,-0.28696 0.73428,-0.34116 0.94849,0.01987l5.65833,9.68053c0,0 7.5065,2.6531 10.30025,5.30471c4.68808,4.40922 6.11905,8.7826 6.11905,8.7826c0,0 7.40335,-0.10421 10.24089,5.10898c2.83754,5.21319 1.84091,17.12049 -15.01407,26.45902c-16.85497,9.33853 -32.78823,8.93992 -42.95156,-0.05706c-10.16334,-8.99698 -3.50401,-25.71249 -3.83957,-24.74712l-7.31761,-16.87867c-0.2142,-0.36103 0.17424,-0.80668 0.61557,-0.73261l13.89937,4.05115c0,0 3.79275,-3.03224 8.22166,-4.65738c2.6145,-1.04729 4.96573,-1.58147 7.28082,-1.88952z" fill="#878787" stroke="#001026" stroke-width="1.2" stroke-linecap="butt" stroke-linejoin="miter"/><path d="M264.94139,150.95174c0,0 7.12333,-0.33697 9.96087,4.87622c2.83754,5.21319 1.31054,16.75282 -15.38312,25.93268c-21.62589,12.25305 -36.88131,1.65837 -33.62894,-10.7527c3.22269,-12.50893 16.90522,-7.10095 24.74873,-10.24281c6.72724,-2.67904 5.62154,-9.08767 14.30246,-9.81339z" fill="#ffffff" stroke="none" stroke-width="1" stroke-linecap="butt" stroke-linejoin="miter"/><path d="M282.83889,146.43224c-3.36052,5.14817 -10.20647,7.43577 -10.20647,7.43577" fill="none" stroke="#001026" stroke-width="1.2" stroke-linecap="round" stroke-linejoin="round"/><path d="M284.92131,157.78819c-5.86779,2.40533 -10.15595,1.73205 -10.15595,1.73205" fill="none" stroke="#001026" stroke-width="1.2" stroke-linecap="round" stroke-linejoin="round"/><path d="M249.48534,158.34236c2.00539,-0.63867 4.16563,-1.11203 4.46887,-0.45741c0.51098,1.33966 -0.09048,4.53599 -1.58872,5.12046c-1.65955,0.74316 -6.41227,-0.42606 -6.8871,-1.99186c-0.45162,-1.14393 2.09706,-2.06295 4.00696,-2.6712z" fill="#001026" stroke="#001026" stroke-width="1.2" stroke-linecap="round" stroke-linejoin="round"/><path d="M206.06751,170.56025c0,0 9.04352,0.12464 13.30583,2.0939" fill="none" stroke="#001026" stroke-width="1.2" stroke-linecap="round" stroke-linejoin="round"/><path d="M220.69853,175.9881c-3.60177,2.97141 -10.99483,4.14549 -10.99483,4.14549" fill="none" stroke="#001026" stroke-width="1.2" stroke-linecap="round" stroke-linejoin="round"/><g><path d="M257.2815,143.30375c4.10482,3.52183 5.71386,8.48239 3.57419,11.09548c-2.13967,2.61308 -7.15565,1.95697 -11.35597,-1.53444c-4.10482,-3.52183 -5.71386,-8.48239 -3.57419,-11.09548c2.10999,-2.71094 7.25114,-1.98739 11.35597,1.53444z" fill="#ffffff" stroke="#001026" stroke-width="1.2" stroke-linecap="round" stroke-linejoin="round"/><path d="M260.70426,153.54936c0.32645,1.07648 -0.17041,2.20054 -1.12536,2.50468c-0.95495,0.30413 -1.986,-0.33332 -2.31245,-1.40982c-0.32645,-1.07648 0.17041,-2.20054 1.12536,-2.50468c0.95495,-0.30413 1.986,0.33332 2.31245,1.40982" fill="#001026" stroke="none" stroke-width="1" stroke-linecap="butt" stroke-linejoin="miter"/></g><g><path d="M234.42974,153.5863c4.17064,3.39355 5.58222,8.73894 3.56773,11.41947c-2.58746,2.86301 -7.20472,2.83111 -11.37536,-0.56245c-4.26614,-3.36314 -4.32918,-8.92338 -2.02174,-12.01915c2.27776,-3.19363 5.65873,-2.23143 9.82937,1.16212z" fill="#ffffff" stroke="#001026" stroke-width="1.2" stroke-linecap="round" stroke-linejoin="round"/><path d="M238.54281,162.9889c0.32645,1.07648 -0.17041,2.20054 -1.12536,2.50468c-0.95495,0.30413 -1.986,-0.33332 -2.31245,-1.40982c-0.32645,-1.07648 0.17041,-2.20054 1.12536,-2.50468c0.98463,-0.20627 1.986,0.33332 2.31245,1.40982" fill="#001026" stroke="none" stroke-width="1" stroke-linecap="butt" stroke-linejoin="miter"/></g></g></g><path d="M251.23551,170.63026c0.81951,2.70239 -4.06894,25.44146 -9.07928,27.03715c-5.01033,1.59568 -8.24523,-18.55629 -9.06474,-21.25869c-0.81951,-2.70239 4.96815,0.83231 9.97848,-0.76336c5.01033,-1.59568 7.34602,-7.71749 8.16553,-5.0151z" fill="#000000" fill-rule="nonzero" stroke="#001026" stroke-width="1.2" stroke-linecap="butt" stroke-linejoin="miter"/></g></g></g></svg>