<svg version="1.1" xmlns="http://www.w3.org/2000/svg" xmlns:xlink="http://www.w3.org/1999/xlink" width="100.14783" height="100.01234" viewBox="0,0,100.14783,100.01234"><defs><linearGradient x1="254.47304" y1="206.42199" x2="257.28522" y2="224.80817" gradientUnits="userSpaceOnUse" id="color-1"><stop offset="0" stop-color="#ffffff"/><stop offset="1" stop-color="#9f9f9f"/></linearGradient><radialGradient cx="274.54944" cy="169.73337" r="8.13758" gradientUnits="userSpaceOnUse" id="color-2"><stop offset="0" stop-color="#ffffff"/><stop offset="1" stop-color="#1a1a1a"/></radialGradient><radialGradient cx="252.51358" cy="171.54467" r="6.75889" gradientUnits="userSpaceOnUse" id="color-3"><stop offset="0" stop-color="#ffffff"/><stop offset="1" stop-color="#1a1a1a"/></radialGradient></defs><g transform="translate(-202.96158,-140.71253)"><g data-paper-data="{&quot;isPaintingLayer&quot;:true}" stroke-miterlimit="10" stroke-dasharray="" stroke-dashoffset="0" style="mix-blend-mode: normal"><path d="M244.60347,198.27815c-0.01374,2.22032 -1.00217,10.56435 1.19016,12.1903c2.10745,1.51283 9.31977,0.52157 9.02367,5.42894c-0.28196,4.80838 -6.73094,3.9893 -11.86494,1.74164c-6.66147,-2.86964 -8.3181,-13.91435 -3.42601,-19.88322c1.80981,-2.06508 5.10498,-1.79697 5.07712,0.52235z" data-paper-data="{&quot;index&quot;:null}" fill="#717171" fill-rule="evenodd" stroke="#001026" stroke-width="1.2" stroke-linecap="round" stroke-linejoin="round"/><g fill-rule="nonzero" stroke="#001026" stroke-width="1.2" stroke-linejoin="miter"><g><g><path d="M253.83696,212.18441l-1.63288,-10.67585l2.57011,-0.3931l1.63288,10.67585z" fill="#2c2c2c" stroke-linecap="butt"/><path d="M255.75082,223.60131l2.37993,-0.30974l1.31507,14.75366z" fill="#6c6c6c" stroke-linecap="butt"/><path d="M253.62775,225.36759l-2.81218,-18.38618l7.31493,-1.11882l2.81218,18.38619z" fill="url(#color-1)" stroke-linecap="butt"/><path d="M254.79753,209.20492l-3.58886,0.34659" fill="none" stroke-linecap="round"/><path d="M252.11813,212.85195l3.19345,-0.28611" fill="none" stroke-linecap="round"/><path d="M252.28328,215.2546l2.82829,-0.02794" fill="none" stroke-linecap="round"/><path d="M255.42793,218.61781l-2.17471,0.33262" fill="none" stroke-linecap="round"/><path d="M256.36762,222.11595l-3.05623,-0.13952" fill="none" stroke-linecap="round"/></g><path d="M249.78516,202.89016l-0.42334,-2.76781l7.51264,-1.14906l0.42334,2.76782z" fill="#2c2c2c" stroke-linecap="butt"/></g><path d="M254.47312,215.02082c0.44255,2.89347 -0.48212,5.43538 -2.06534,5.67752c-1.58321,0.24216 -3.22543,-1.90716 -3.66798,-4.80061c-0.44255,-2.89347 0.48213,-5.43538 2.06535,-5.67753c1.58321,-0.24216 3.22543,1.90716 3.66798,4.80062z" fill="#717171" stroke-linecap="butt"/><path d="M264.40467,212.49016c0.67636,4.42208 -1.03245,8.35212 -3.81672,8.77797c-2.78427,0.42586 -5.58966,-2.81372 -6.26603,-7.2358c-0.67636,-4.42208 1.03244,-8.35212 3.81671,-8.77797c2.78427,-0.42586 5.58967,2.81372 6.26604,7.2358z" fill="#717171" stroke-linecap="butt"/></g><g fill-rule="evenodd"><path d="M227.11745,206.76125c0.328,0.94467 2.5346,2.90962 -1.469,3.9398c-4.0684,0.9045 -13.61932,0.89682 -19.69219,-9.33745c-6.52658,-11.11413 1.89289,-20.70645 6.20586,-19.7481c4.2177,0.92791 0.46756,7.07823 1.04612,15.45172c0.75146,12.10312 13.58121,8.74934 13.9092,9.69402z" fill="#717171" stroke="#001026" stroke-width="1.2" stroke-linecap="round" stroke-linejoin="round"/><path d="M213.24636,187.42107c-0.8631,4.34339 -0.82376,7.50543 -0.82376,7.50543c0,0 -0.91527,-2.39212 -3.32313,-2.74167c-2.91458,-0.4065 -4.50243,1.60565 -4.81077,2.24199c-0.1493,-1.83241 -0.08158,-4.0154 1.20477,-7.38367c1.54167,-3.1817 4.73311,-5.94118 6.99272,-4.79915c1.78333,0.98982 1.20103,2.48345 0.76017,5.17708z" fill="#ffffff" stroke="none" stroke-width="1" stroke-linecap="butt" stroke-linejoin="miter"/></g><path d="M248.3198,236.3753c0,3.86599 -11.83333,3 -11.83333,3c0,0 -10.5,0.86599 -10.5,-3c0,-3.45051 2.7452,-32.89294 7.69909,-34.5825c3.83539,-1.30808 4.43187,28.24917 5.13424,28.24917c6.53537,0 9.5,2.46734 9.5,6.33333z" fill="#717171" fill-rule="nonzero" stroke="#001026" stroke-width="1.2" stroke-linecap="butt" stroke-linejoin="miter"/><path d="M242.3198,237.04197c0,3.86599 -11.83333,3 -11.83333,3c0,0 -10.5,0.86599 -10.5,-3c0,-3.45051 2.7452,-32.89294 7.69909,-34.58249c3.83539,-1.30808 4.43187,28.24916 5.13424,28.24916c6.53537,0 9.5,2.46734 9.5,6.33333z" fill="#717171" fill-rule="nonzero" stroke="#001026" stroke-width="1.2" stroke-linecap="butt" stroke-linejoin="miter"/><g fill-rule="evenodd"><path d="M227.86869,213.31527c-9.02654,-1.70797 -5.01594,-9.70414 -2.93229,-18.91274c1.09141,-4.98184 4.21675,-10.71725 10.3175,-11.18726c3.40832,-0.43961 3.76967,5.87297 5.86035,5.18081c3.14956,-0.99009 3.87211,3.79299 3.68291,6.44331c0,0 -0.34549,3.94089 -1.08227,6.12198c-0.89013,2.74366 -1.97278,5.54151 -2.88415,6.73289c0,0 -3.23837,7.46087 -12.96204,5.621z" fill="#717171" stroke="#001026" stroke-width="1.2" stroke-linecap="round" stroke-linejoin="round"/><path d="M240.06166,207.80979c0,0 -1.76896,-0.74886 -3.71544,-1.75942c-2.41279,-1.191 -4.74431,-2.0932 -3.65873,-5.61904c1.08264,-2.79783 1.85236,-6.33867 6.96964,-4.76594c4.87058,1.43438 3.71875,4.35555 3.71875,4.35555c-0.8989,4.92767 -3.31422,7.78886 -3.31422,7.78886z" fill="#ffffff" stroke="none" stroke-width="1" stroke-linecap="butt" stroke-linejoin="miter"/></g><path d="M227.5852,196.02909c-2.3128,0.70069 -6.13917,-1.62499 -7.25594,-1.57203c-0.31058,0.05951 -2.78156,4.97624 -4.28133,7.9038c-2.06795,4.16336 -8.6367,1.97672 -8.4257,-2.63582c0.27051,-4.30195 5.23249,-12.0142 6.71921,-13.32938c3.33684,-3.08635 12.73879,0.99941 19.03732,3.60221" fill="#717171" fill-rule="evenodd" stroke="#001026" stroke-width="1.2" stroke-linecap="round" stroke-linejoin="round"/><g><g><path d="M271.328,142.18976c0.31218,-0.1804 0.80476,-0.04863 0.87897,0.35695l1.91036,10.84438c0,0 6.08631,5.09969 7.77137,8.51445c2.8417,5.6934 2.6537,10.19058 2.6537,10.19058c0,0 6.95116,2.54978 7.78416,8.31486c0.833,5.76508 -4.2487,16.26157 -23.24685,18.75164c-18.99815,2.49007 -33.74106,-3.5652 -40.09744,-15.39594c-6.35638,-11.83074 5.69048,-24.6866 5.04054,-23.92662l-0.95091,-17.99766c-0.07421,-0.40558 0.44395,-0.67299 0.83034,-0.44781l11.56999,8.65768c0,0 4.59951,-1.40872 9.30268,-1.30773c2.80706,-0.02052 5.18935,0.33257 7.45906,0.87884z" fill="#717171" fill-rule="evenodd" stroke="#001026" stroke-width="1.2" stroke-linecap="butt" stroke-linejoin="miter"/><path d="M277.69266,170.70001c-0.26049,4.06476 -6.5593,6.96977 -14.06877,6.48852c-7.50948,-0.48125 -13.38593,-4.16653 -13.12544,-8.23129c0.26049,-4.06476 6.5593,-6.96977 14.06877,-6.48852c7.50948,0.48125 13.38593,4.16653 13.12544,8.23129z" fill="#000000" fill-rule="nonzero" stroke="none" stroke-width="NaN" stroke-linecap="butt" stroke-linejoin="miter"/><path d="M284.21744,172.4761c0,0 6.77076,2.2376 7.60376,8.00268c0.833,5.76508 -4.61591,15.73701 -23.40807,18.14008c-24.47023,3.44206 -35.02574,-11.66394 -27.66153,-21.81375c7.3706,-10.2496 18.26507,-0.43275 26.68624,-0.4943c7.21724,-0.0385 8.41852,-6.27444 16.7796,-3.83471z" fill="#ffffff" fill-rule="evenodd" stroke="none" stroke-width="1" stroke-linecap="butt" stroke-linejoin="miter"/><path d="M302.50942,174.75062c-4.93341,3.49163 -12.12506,3.13095 -12.12506,3.13095" fill="none" fill-rule="evenodd" stroke="#001026" stroke-width="1.2" stroke-linecap="round" stroke-linejoin="round"/><path d="M300.49579,185.84455c-6.31908,0.09606 -10.08958,-2.04947 -10.08958,-2.04947" fill="none" fill-rule="evenodd" stroke="#001026" stroke-width="1.2" stroke-linecap="round" stroke-linejoin="round"/><path d="M267.20494,173.69056c2.0957,0.13431 4.27841,0.4746 4.33343,1.17956c0.01026,1.40353 -1.66574,4.10186 -3.26886,4.09933c-1.80911,0.08447 -5.84062,-2.67902 -5.73829,-4.27574c-0.02305,-1.20394 2.67782,-1.13106 4.67372,-1.00315z" fill="#001026" fill-rule="evenodd" stroke="#001026" stroke-width="1.2" stroke-linecap="round" stroke-linejoin="round"/><path d="M222.393,169.31566c0,0 8.40332,3.34428 11.6979,6.66178" fill="none" fill-rule="evenodd" stroke="#001026" stroke-width="1.2" stroke-linecap="round" stroke-linejoin="round"/><path d="M234.16644,179.48946c-4.39992,1.42151 -11.71442,-0.1495 -11.71442,-0.1495" fill="none" fill-rule="evenodd" stroke="#001026" stroke-width="1.2" stroke-linecap="round" stroke-linejoin="round"/><path d="M280.90624,167.03517c2.60627,4.67626 1.20271,5.50622 -1.70667,7.12346c-2.90939,1.61724 -7.36566,-0.77265 -10.07173,-5.4553c-1.35517,-2.41514 -3.53368,-7.17903 -2.18563,-6.55813c15.32759,7.05983 12.99614,3.4754 13.55206,4.28897c0.13714,0.20071 0.29301,0.38754 0.41197,0.60099z" fill="url(#color-2)" fill-rule="evenodd" stroke="#001026" stroke-width="1.2" stroke-linecap="round" stroke-linejoin="round"/><path d="M254.80075,163.97736c2.71246,4.58286 2.16751,9.95901 -0.64848,11.68244c-3.41476,1.68506 -7.71621,0.00652 -10.42867,-4.57633c8.81902,0.02434 8.36469,-11.68897 11.07715,-7.10611z" fill="url(#color-3)" fill-rule="evenodd" stroke="#001026" stroke-width="1.2" stroke-linecap="round" stroke-linejoin="round"/><path d="M265.7815,188.47463c-0.17219,2.68688 -16.01075,11.62483 -22.76239,11.19215c-6.75164,-0.43269 -1.85964,-10.07216 -1.68745,-12.75904c0.17219,-2.68688 2.20595,0.51714 8.95759,0.94983c6.75164,0.43269 15.66444,-2.06981 15.49225,0.61707z" fill="#ffffff" fill-rule="nonzero" stroke="#001026" stroke-width="1.2" stroke-linecap="butt" stroke-linejoin="miter"/><path d="M244.56701,187.24033l-1.7814,12.16097" fill="none" fill-rule="nonzero" stroke="#001026" stroke-width="1.2" stroke-linecap="round" stroke-linejoin="miter"/></g><path d="M250.85186,175.90844c0.0161,0.02553 0.03076,0.0547 0.04382,0.08771c0.13648,-0.01742 0.27865,-0.0459 0.42733,-0.08689c0.11769,0.00679 0.23614,0.01439 0.35503,0.02191c0.45595,-0.1311 0.88866,-0.27164 1.10976,-0.31165c0.26175,-0.08602 0.53825,-0.09222 0.80513,-0.0802c0.11775,-0.34625 0.31764,-0.63435 0.79882,-0.71179c0.27164,-0.04372 0.51024,-0.02624 0.70583,0.0366c0.10471,-0.10102 0.20938,-0.1964 0.31149,-0.2778c0.50864,-1.00555 0.87605,-2.50494 1.09463,-3.03249l0.01682,-0.26242c0.00883,-0.13779 0.12769,-0.24233 0.26548,-0.2335c0.13779,0.00883 0.24233,0.12769 0.2335,0.26548l-0.01878,0.29302l-0.06306,-0.00404c0.0014,0.00728 0.00277,0.01459 0.00413,0.0219l0.05315,0.0219c-0.01127,0.02851 -0.02263,0.05813 -0.03409,0.08881c0.29965,1.88588 -0.51002,4.61187 -1.21,6.68017c-0.21754,2.06287 -0.69882,4.80986 -1.71433,6.30538l0.04931,0.02054l-0.1136,0.27283c-0.03846,0.09883 -0.13754,0.16588 -0.24901,0.15874c-0.13779,-0.00883 -0.24233,-0.12769 -0.2335,-0.26548c0.00005,-0.00082 0.0001,-0.00164 0.00017,-0.00245l0.03617,-0.49834l0.00848,0.00061l-0.00519,-0.02681c0.44012,-1.52427 0.75849,-3.04631 1.20699,-4.55922c0.23873,-0.69666 0.41454,-1.36233 0.55711,-2.01668c0.03304,-0.26924 0.05901,-0.5393 0.07637,-0.81017c0.02048,-0.30965 0.08442,-0.60976 0.15165,-0.90955c-0.11683,0.18898 -0.30155,0.37936 -0.56357,0.55623c-1.08555,0.91223 -2.22824,0.91954 -3.30547,1.03743l-0.06749,0.14171c-0.04145,0.09249 -0.13711,0.15411 -0.2442,0.14724c-0.12033,-0.00771 -0.21532,-0.09934 -0.23156,-0.21422c-0.65897,0.11587 -1.28404,0.34303 -1.84501,0.9315l-0.27664,0.39429c-0.04806,0.07103 -0.13144,0.11545 -0.22321,0.10957c-0.12823,-0.00822 -0.22767,-0.11173 -0.23372,-0.23711l-0.02548,-0.40378l0.07606,-0.0048c-0.06911,-0.62023 0.07382,-1.0829 0.35865,-1.42604c-0.01672,-0.03346 -0.03421,-0.06759 -0.0524,-0.10222c-1.04543,1.94405 -0.64498,4.33754 -1.34458,6.33277c-0.01206,0.07123 -0.02443,0.14272 -0.03696,0.2146l-0.01813,0.2829c-0.00883,0.13779 -0.12769,0.24233 -0.26548,0.2335c-0.13779,-0.00883 -0.24233,-0.12769 -0.2335,-0.26548l0.01878,-0.29302l0.00639,0.00041l-0.00517,-0.01383c0.01005,-0.05823 0.02004,-0.11618 0.02989,-0.17393c-0.12949,-0.43414 0.06323,-1.30545 0.08782,-1.66846c0.04455,-0.65778 0.16576,-1.50636 0.36652,-2.35734c0.08657,-0.70949 0.17014,-1.42285 0.22235,-2.12204l-0.0551,0.05986c-0.04939,0.05454 -0.12229,0.08687 -0.20141,0.0818c-0.13779,-0.00883 -0.24233,-0.12769 -0.2335,-0.26548c0.00269,-0.0419 0.01554,-0.08073 0.03602,-0.11423l0.21785,-0.37383l0.01296,0.00755c0.04509,-0.1535 0.09811,-0.30419 0.16411,-0.44954c0.00281,-0.0062 0.00591,-0.01272 0.00923,-0.01953c-0.23272,-0.16182 -0.46676,-0.3192 -0.70263,-0.46221c-0.00384,0.0029 -0.00768,0.00584 -0.01151,0.00884c-0.03649,0.02854 -0.07117,0.06138 -0.10435,0.09779c-0.18699,0.54896 -0.37468,1.0866 -0.6381,1.59523l0.05637,0.02009l-0.16597,0.46579c-0.03486,0.10538 -0.1374,0.17821 -0.25334,0.17078c-0.08067,-0.00517 -0.14995,-0.04806 -0.19174,-0.11038c-0.13647,-0.01018 -0.23961,-0.12839 -0.23084,-0.2653l0.02504,-0.3907l0.07763,0.00498c-0.03814,-0.67998 0.17348,-1.16385 0.52004,-1.46216c0.08877,-0.16422 0.18603,-0.32406 0.28898,-0.47268c-0.04976,-0.02287 -0.09962,-0.04474 -0.14959,-0.06553c-0.18639,-0.21447 -0.30192,-0.49499 -0.35821,-0.77349l0.00117,-0.01015l-0.00237,0.00024l-0.05002,-0.49276c-0.00179,-0.01497 -0.00225,-0.03033 -0.00125,-0.04592c0.00883,-0.13779 0.12769,-0.24233 0.26548,-0.2335c0.12522,0.00803 0.22299,0.10693 0.23314,0.22833l0.0338,0.33299c0.05147,0.05783 0.10316,0.11142 0.15506,0.16104c0.04935,-0.0593 0.12539,-0.09501 0.20827,-0.08969l0.3907,0.02504l-0.00092,0.01443l0.04069,-0.00865c0.21924,0.08669 0.42429,0.19144 0.62029,0.30566c0.17621,0.05472 0.33388,0.14378 0.43149,0.27167c0.05074,0.03384 0.1011,0.06792 0.15118,0.10203c0.76366,0.00264 1.55369,-0.07057 2.35381,0.57339c0.10475,0.08431 0.16569,0.18377 0.1941,0.29222zM253.16162,176.79614c-0.01642,0.00384 -0.03285,0.0076 -0.04929,0.01128c0.02084,0.00545 0.03396,0.00656 0.03798,0.00195c0.00382,-0.00437 0.00759,-0.00879 0.01131,-0.01324zM255.77388,175.10568c0.01483,-0.0912 0.02983,-0.1827 0.04503,-0.27455c-0.07112,0.13351 -0.1458,0.26076 -0.22433,0.37944c0.0314,0.05781 0.05586,0.1109 0.07401,0.15963c0.00162,-0.01055 0.0032,-0.02112 0.00474,-0.03168c0.00927,-0.06354 0.05373,-0.14892 0.10055,-0.23284zM255.07135,175.89659c-0.04233,0.00008 -0.08525,-0.00073 -0.12824,-0.00214c-0.08247,0.05215 -0.16817,0.09455 -0.25728,0.12586c-0.00236,0.00083 -0.00474,0.00165 -0.00712,0.00245l0.04485,0.00287c0.05828,0.00373 0.11061,0.02715 0.15093,0.06336c0.07933,-0.06637 0.14467,-0.13078 0.19686,-0.19241zM254.04899,175.56692c0.00133,0.00007 0.00266,0.00013 0.00399,0.0002c0.1367,-0.03501 0.28075,-0.0607 0.41881,-0.07947c0.07287,-0.06876 0.14888,-0.1445 0.22684,-0.22333c-0.10372,0.00691 -0.22057,0.02683 -0.34878,0.06145c-0.13132,0.03546 -0.22669,0.12231 -0.30086,0.24115zM249.94448,176.96494c-0.02789,-0.00075 -0.0557,-0.00185 -0.08332,-0.00328c-0.0129,0.03974 -0.02512,0.08045 -0.03689,0.12189l0.10584,-0.09309c0.00487,-0.00857 0.00966,-0.01708 0.01437,-0.02551zM253.59746,176.89948c0.19963,-0.07959 0.39924,-0.17921 0.59846,-0.30533c-0.06333,0.01705 -0.12664,0.03002 -0.18843,0.03706c-0.03845,0.06961 -0.10892,0.11836 -0.19031,0.12765l-0.16739,0.02246c-0.01623,0.04071 -0.03359,0.08022 -0.05233,0.11816zM248.3912,176.84748c0.02988,-0.05223 0.06029,-0.1032 0.09125,-0.15279c-0.02782,-0.01916 -0.05566,-0.03842 -0.0835,-0.05777c-0.00183,0.06933 -0.00443,0.13954 -0.00775,0.21056zM249.79885,177.6852c0.00203,-0.00101 0.00407,-0.00202 0.0061,-0.00303c-0.00175,-0.00001 -0.0035,-0.00004 -0.00527,-0.00009zM252.78867,177.12834c-0.14562,-0.06954 -0.30746,-0.14016 -0.44031,-0.17318c-0.10677,0.10365 -0.21314,0.19464 -0.31917,0.27384c0.25189,-0.02406 0.5053,-0.05313 0.75946,-0.10065zM249.19944,176.19362c0.00848,0.04614 0.01489,0.0965 0.01906,0.15134c0.07374,-0.00666 0.14926,-0.01176 0.22596,-0.01505c-0.08156,-0.04459 -0.1632,-0.09017 -0.24501,-0.13629zM249.47553,177.03015c0.00393,0.0028 0.00787,0.00559 0.0118,0.00839c0.00379,-0.01351 0.00778,-0.02704 0.01194,-0.04058c-0.0081,0.00957 -0.016,0.02033 -0.02374,0.0322zM249.14884,178.11854c0.03826,-0.03286 0.07665,-0.06437 0.11516,-0.09457c-0.01116,-0.01988 -0.01967,-0.0414 -0.02508,-0.06404l-0.02322,-0.08811c-0.02118,0.08339 -0.04325,0.16656 -0.06686,0.24673z" fill="#000000" fill-rule="nonzero" stroke="none" stroke-width="0.5" stroke-linecap="butt" stroke-linejoin="miter"/><path d="M279.20526,176.31185c0.08938,-0.0813 0.17892,-0.1711 0.26709,-0.26722c-0.08398,0.0637 -0.15961,0.12351 -0.2234,0.17835c-0.01472,0.02967 -0.02928,0.05929 -0.04368,0.08887zM280.70045,175.12614c-0.45291,0.89887 -1.20363,1.86429 -1.84709,2.00298c-0.01917,0.0372 -0.0382,0.07408 -0.05708,0.11067c-0.64866,1.64375 -0.85605,3.1824 -0.94668,4.85204c0.18546,0.94815 0.44129,1.9359 0.10533,2.78609l0.08096,0.03288l-0.11428,0.28142c-0.03789,0.09994 -0.13755,0.16796 -0.24978,0.16076c-0.0996,-0.00638 -0.18182,-0.07025 -0.21642,-0.1572l-0.16821,-0.39822l0.01452,-0.00613l-0.02949,-0.04273c-0.00691,-1.4323 0.00577,-2.74704 0.15158,-4.02116c-0.01909,-1.19662 0.13528,-2.24589 0.85356,-3.53686c0.16432,-0.42022 0.35505,-0.84391 0.57634,-1.27389c0.14886,-0.13345 0.40106,-0.314 0.67608,-0.51053c-0.44694,0.22302 -1.01843,0.08969 -1.56707,-0.10294c-0.34592,0.08291 -0.66244,0.12027 -0.92845,0.10323c-0.29282,-0.01877 -0.61646,-0.0831 -0.94651,-0.1499c-0.02415,0.22699 0.01859,0.5629 0.14613,1.04385c0.10469,0.3948 0.11229,0.72881 0.31752,1.08859c0.5316,1.65588 0.31791,6.80958 -1.16486,8.34653l0.07838,0.08912l-0.20787,0.18283v0v0c-0.04804,0.04225 -0.1122,0.06618 -0.1811,0.06176c-0.13779,-0.00883 -0.24233,-0.12769 -0.2335,-0.26548l0.02504,-0.3907c0.04387,-0.65072 -0.01475,-1.30018 0.02752,-1.95974c0.13639,-1.84792 0.96487,-3.79884 0.85834,-5.69131c-0.02436,-0.43272 -0.19428,-0.83398 -0.33163,-1.2404c-0.05663,0.09585 -0.11469,0.19049 -0.17316,0.28301c-0.14643,0.78391 -0.38721,1.77259 -0.69306,2.68726c-0.0674,0.70458 -0.20838,1.33989 -0.53343,1.78871c-0.39868,0.52226 -1.71853,4.85439 -2.3221,4.30942c-0.39253,-0.35441 0.92922,-3.31685 0.99091,-3.81197c0.11054,-0.27532 0.23081,-0.57603 0.35301,-0.89509c-0.0437,-0.93127 -0.15283,-2.29956 0.07619,-2.59922c0.24164,-0.31616 0.57709,-0.53256 0.90142,-0.79687c0.10695,-0.71036 0.12647,-1.40467 0.00083,-2.03059c-0.22111,-0.10559 -0.43909,-0.371 -0.59106,-0.87611c-0.0544,-0.00889 -0.10948,-0.01647 -0.16532,-0.02273l-0.04708,-0.08601l-0.03039,0.02673l-0.18283,-0.20787c-0.04225,-0.04804 -0.06618,-0.1122 -0.06176,-0.1811c0.00883,-0.13779 0.12769,-0.24233 0.26548,-0.2335l0.29302,0.01878l-0.00122,0.01898c0.01179,-0.0036 0.02441,-0.00668 0.0379,-0.00914c0.05155,-0.00943 0.09427,-0.00608 0.12961,0.00511c2.16482,-0.17217 3.99207,1.03015 6.41439,-0.35234c0.0832,-0.02193 0.16137,-0.04513 0.23487,-0.06952c0.14354,-0.46716 0.27935,-0.98634 0.55886,-1.19948c0.36049,-0.2749 0.7012,-0.48199 1.01882,-0.62416c0.02744,-0.04746 0.0568,-0.09499 0.08857,-0.14251c-0.09038,-0.2502 -0.04682,-0.46008 0.23292,-0.57612c0.07882,-0.0327 0.15466,-0.04154 0.22757,-0.02971l0.03807,-0.09375c0.03789,-0.09994 0.13755,-0.16796 0.24978,-0.16076c0.13779,0.00883 0.24233,0.12769 0.2335,0.26548l-0.01878,0.29302l-0.08418,-0.00539l-0.00421,0.01038c0.04497,0.06149 0.08844,0.13062 0.13042,0.20613c0.97836,0.07118 1.55,1.05507 1.52458,2.78645c-0.04916,0.85454 -0.11821,1.70328 -0.19579,2.55004c0.34065,2.02842 0.52347,4.49814 -0.40586,5.93112l0.09185,0.06594l-0.28905,0.40267c-0.04829,0.06966 -0.13085,0.11303 -0.2216,0.10722c-0.13779,-0.00883 -0.24233,-0.12769 -0.2335,-0.26548l0.01878,-0.29302c0.11542,-1.80097 0.31079,-3.57182 0.48105,-5.34709c-0.03323,-0.79537 -0.1222,-1.59769 -0.30711,-2.41093c-0.08237,-0.27886 -0.55297,-1.58277 -0.8398,-2.53427c-0.0679,-0.02389 -0.13631,-0.04327 -0.20486,-0.05701c-0.27812,0.42777 -0.67383,0.84227 -1.1325,1.22058c0.03571,0.35576 0.0856,0.73209 -0.03126,0.95394c-0.09346,0.1774 -0.29665,0.37922 -0.54373,0.58522zM276.23534,178.18263c-0.04677,1.77296 -0.76044,3.72565 -0.84137,5.30273c-0.02224,0.34697 -0.0177,0.68942 -0.01415,1.03105c0.16077,-0.39042 0.34753,-0.77042 0.38861,-0.92871c0.35107,-1.35276 0.72699,-3.81328 0.46691,-5.40507zM274.68605,176.67144c0.11927,-0.37462 0.20025,-0.70535 0.21507,-0.96561l0.01398,-0.21816c-0.12316,0.34139 -0.19003,0.74603 -0.22905,1.18377zM273.61221,179.24361c0.08178,-0.27096 0.15761,-0.54596 0.22415,-0.82196c-0.21157,0.14335 -0.39965,0.26707 -0.3977,0.2713c0.08149,0.17626 0.13714,0.36056 0.17355,0.55066zM275.46514,175.13862c-0.03086,-0.00497 -0.06162,-0.00973 -0.0923,-0.01423c-0.01953,-0.00032 -0.03898,-0.00072 -0.05835,-0.00122c0.0265,0.01772 0.04934,0.04035 0.06731,0.06648l0.04457,0.06366c0.01094,-0.03383 0.02425,-0.07285 0.03878,-0.11469zM279.78884,175.22044c0.18826,-0.13606 0.3756,-0.27497 0.53794,-0.40741c0.10389,-0.20642 0.18416,-0.40644 0.23152,-0.58661c-0.097,0.24665 -0.23136,0.44305 -0.46032,0.51846c-0.0858,0.20308 -0.19025,0.35879 -0.30913,0.47555zM283.62992,173.37355c0.15505,0.68287 0.25478,1.28566 0.30666,1.45853c0.00933,0.04286 0.01879,0.0865 0.02838,0.13085c0.01798,-0.25427 0.03448,-0.50896 0.04922,-0.76414c0.00248,-0.14115 0.00203,-0.27612 -0.00143,-0.40483c-0.00327,-0.00008 -0.00656,-0.00023 -0.00986,-0.00044c-0.08797,-0.00564 -0.16239,-0.05613 -0.2024,-0.12776l-0.16566,-0.28665c-0.00156,-0.0018 -0.00319,-0.00366 -0.00491,-0.00558zM279.13494,174.89747c0.15492,-0.03123 0.29217,-0.09148 0.40484,-0.19048c-0.13521,0.06766 -0.27046,0.13127 -0.40484,0.19048zM279.02855,174.5114c-0.32145,0.09979 -0.67957,0.19771 -1.05525,0.28503c0.03725,0.00903 0.07439,0.01777 0.11136,0.02617c0.31709,-0.06897 0.63492,-0.17496 0.94388,-0.31119zM280.85516,173.21448c-0.00227,0.00646 -0.00452,0.01294 -0.00674,0.01944c0.00249,-0.00266 0.00499,-0.00531 0.00747,-0.00797c-0.00026,-0.00382 -0.0005,-0.00765 -0.00074,-0.01147zM283.25761,172.04266c0.13601,0.03681 0.26275,0.08757 0.37614,0.153c-0.11569,-0.15337 -0.25893,-0.2542 -0.43147,-0.30117c0.01881,0.04837 0.03726,0.09782 0.05534,0.14817z" fill="#000000" fill-rule="nonzero" stroke="none" stroke-width="0.5" stroke-linecap="butt" stroke-linejoin="miter"/></g></g></g></svg>