<svg version="1.1" xmlns="http://www.w3.org/2000/svg" xmlns:xlink="http://www.w3.org/1999/xlink" width="86.14103" height="106.53512" viewBox="0,0,86.14103,106.53512"><defs><linearGradient x1="207.43283" y1="189.30824" x2="201.16432" y2="206.82013" gradientUnits="userSpaceOnUse" id="color-1"><stop offset="0" stop-color="#ffffff"/><stop offset="1" stop-color="#9f9f9f"/></linearGradient></defs><g transform="translate(-194.83118,-134.18974)"><g data-paper-data="{&quot;isPaintingLayer&quot;:true}" stroke-miterlimit="10" stroke-dasharray="" stroke-dashoffset="0" style="mix-blend-mode: normal"><path d="M242.70226,190.80585c5.5446,5.36819 5.16606,16.53002 -1.12218,20.14499c-4.84223,2.82185 -11.15463,4.3754 -11.9864,-0.36887c-0.85717,-4.841 6.42125,-4.68375 8.34122,-6.42838c1.99131,-1.86674 0.05209,-10.04227 -0.2163,-12.24635c-0.29378,-2.3008 2.94887,-2.94519 4.98367,-1.10138z" data-paper-data="{&quot;index&quot;:null}" fill="#878787" fill-rule="evenodd" stroke="#001026" stroke-width="1.2" stroke-linecap="round" stroke-linejoin="round"/><g fill-rule="evenodd"><path d="M224.79247,204.0537c0.78345,0.62145 3.69965,1.09663 0.87289,4.11316c-2.94887,2.94519 -11.01442,8.06055 -21.62852,2.67902c-11.46888,-5.88088 -9.5065,-18.49233 -5.35223,-19.99634c4.05755,-1.47861 4.19047,5.72363 9.16923,12.481c7.12477,9.81262 16.15518,0.10171 16.93863,0.72316z" fill="#878787" stroke="#001026" stroke-width="1.2" stroke-linecap="round" stroke-linejoin="round"/><path d="M202.71309,195.16827c1.60073,4.12888 3.32963,6.77669 3.32963,6.77669c0,0 -2.05535,-1.52824 -4.27515,-0.53202c-2.67803,1.2199 -2.93921,3.76976 -2.85821,4.47221c-1.10868,-1.46658 -2.22218,-3.34543 -2.94273,-6.87824c-0.405,-3.51226 0.80892,-7.55286 3.32856,-7.80069c2.03602,-0.12088 2.34552,1.45208 3.41791,3.96205z" fill="#ffffff" stroke="none" stroke-width="1" stroke-linecap="butt" stroke-linejoin="miter"/></g><path d="M248.3198,236.3753c0,3.86599 -11.83333,3 -11.83333,3c0,0 -10.5,0.86599 -10.5,-3c0,-3.45051 2.7452,-32.89294 7.69909,-34.5825c3.83539,-1.30808 4.43187,28.24917 5.13424,28.24917c6.53537,0 9.5,2.46734 9.5,6.33333z" fill="#878787" fill-rule="nonzero" stroke="#001026" stroke-width="1.2" stroke-linecap="butt" stroke-linejoin="miter"/><path d="M242.3198,237.04197c0,3.86599 -11.83333,3 -11.83333,3c0,0 -10.5,0.86599 -10.5,-3c0,-3.45051 2.7452,-32.89294 7.69909,-34.58249c3.83539,-1.30808 4.43187,28.24916 5.13424,28.24916c6.53537,0 9.5,2.46734 9.5,6.33333z" fill="#878787" fill-rule="nonzero" stroke="#001026" stroke-width="1.2" stroke-linecap="butt" stroke-linejoin="miter"/><g fill-rule="evenodd"><path d="M231.13877,213.72026c-8.92061,2.19508 -8.59311,-6.74452 -10.52204,-15.98678c-1.07616,-4.98516 -0.61505,-11.50053 4.73949,-14.46177c2.91792,-1.8154 5.86828,3.77697 7.48268,2.27905c2.45391,-2.20871 5.09764,1.8423 6.02622,4.33183c0,0 1.3224,3.72844 1.55798,6.01852c0.32972,2.86554 0.50682,5.86031 0.17255,7.32259c0,0 0.15267,8.13194 -9.45689,10.49655z" fill="#878787" stroke="#001026" stroke-width="1.2" stroke-linecap="round" stroke-linejoin="round"/><path d="M239.94403,203.6482c0,0 -1.9202,0.05344 -4.11057,-0.05746c-2.6895,-0.08139 -5.18513,0.06619 -5.6619,-3.59205c-0.1771,-2.99477 -0.94743,-6.53546 4.36083,-7.23002c5.02639,-0.71795 5.19177,2.41774 5.19177,2.41774c1.22878,4.85593 0.21988,8.46178 0.21988,8.46178z" fill="#ffffff" stroke="none" stroke-width="1" stroke-linecap="butt" stroke-linejoin="miter"/></g><path d="M228.1347,194.60013c-3.80311,5.65531 -9.36905,14.26404 -13.85668,13.54208c-1.96625,-0.27176 -10.36885,-3.94551 -12.97646,-7.37776c-2.73007,-3.72381 1.5285,-9.18225 5.55602,-6.86081c2.87005,1.6071 7.65036,4.33265 7.94192,4.21021c0.95922,-0.57435 2.85734,-4.62986 5.17114,-5.32722" data-paper-data="{&quot;index&quot;:null}" fill="#878787" fill-rule="evenodd" stroke="#001026" stroke-width="1.2" stroke-linecap="round" stroke-linejoin="round"/><g><g fill-rule="evenodd"><g><path d="M250.16535,136.78042c0.31736,-0.17111 0.80584,-0.02486 0.86806,0.38273l1.58947,10.89604c0,0 5.93315,5.27709 7.5167,8.74009c2.67243,5.77478 2.35178,10.26446 2.35178,10.26446c0,0 6.87288,2.75382 7.53537,8.54097c0.66249,5.78715 -4.72678,16.12909 -23.79014,18.05738c-19.06336,1.92829 -33.62115,-4.55946 -39.62559,-16.57264c-6.00445,-12.01319 6.41658,-24.50791 5.7445,-23.76743l-0.41932,-18.01788c-0.06221,-0.40759 0.46362,-0.65959 0.84319,-0.42311l11.30943,8.99538c0,0 4.63908,-1.27236 9.33722,-1.0326c2.80644,0.06234 5.17728,0.48557 7.42988,1.0986z" fill="#878787" stroke="#001026" stroke-width="1.2" stroke-linecap="butt" stroke-linejoin="miter"/><path d="M262.15533,167.43399c0,0 6.70177,2.43646 7.36426,8.22361c0.66249,5.78715 -5.07835,15.59392 -23.93325,17.44133c-24.56116,2.71836 -34.66624,-12.69259 -27.00569,-22.62063c7.66989,-10.0276 18.26988,0.1065 26.68921,0.29351c7.21523,0.17452 8.60002,-6.02325 16.88547,-3.33782z" fill="#ffffff" stroke="none" stroke-width="1" stroke-linecap="butt" stroke-linejoin="miter"/><path d="M280.37221,170.24737c-5.03431,3.34451 -12.21219,2.77174 -12.21219,2.77174" fill="none" stroke="#001026" stroke-width="1.2" stroke-linecap="round" stroke-linejoin="round"/><path d="M278.03204,181.27704c-6.31916,-0.09048 -10.0247,-2.34636 -10.0247,-2.34636" fill="none" stroke="#001026" stroke-width="1.2" stroke-linecap="round" stroke-linejoin="round"/><path d="M245.11439,168.14582c2.09082,0.1961 4.26254,0.60066 4.29674,1.30694c-0.03117,1.40322 -1.78608,4.05092 -3.38843,4.00107c-1.81081,0.03104 -5.75901,-2.85023 -5.6096,-4.44324c0.01249,-1.20409 2.71003,-1.05153 4.70129,-0.86477z" fill="#001026" stroke="#001026" stroke-width="1.2" stroke-linecap="round" stroke-linejoin="round"/><path d="M200.45109,162.45028c0,0 8.30096,3.59084 11.49619,7.00412" fill="none" stroke="#001026" stroke-width="1.2" stroke-linecap="round" stroke-linejoin="round"/><path d="M211.91914,172.96712c-4.43996,1.29104 -11.7049,-0.49517 -11.7049,-0.49517" fill="none" stroke="#001026" stroke-width="1.2" stroke-linecap="round" stroke-linejoin="round"/><g><path d="M257.95538,157.59882c2.46712,4.75114 2.09045,9.83819 -0.8654,11.36886c-2.95585,1.53067 -7.33965,-0.9897 -9.90634,-5.75018c-2.46712,-4.75114 -0.93413,-7.88836 2.02172,-9.41903c2.96519,-1.63023 6.2829,-0.95079 8.75002,3.80034z" fill="#ffffff" stroke="#001026" stroke-width="1.2" stroke-linecap="round" stroke-linejoin="round"/><path d="M252.48743,164.31758c-0.10272,1.09519 -0.98326,1.91656 -1.97889,1.82318c-0.99563,-0.09338 -1.70809,-1.06415 -1.60538,-2.15934c0.10272,-1.09519 0.98326,-1.91656 1.97889,-1.82318c0.99563,0.09338 1.70809,1.06415 1.60538,2.15934" fill="#001026" stroke="none" stroke-width="1" stroke-linecap="butt" stroke-linejoin="miter"/></g><g><path d="M233.00228,158.07077c2.57602,4.66091 1.87264,10.01864 -0.99298,11.65821c-3.463,1.58354 -7.71305,-0.22121 -10.28907,-4.88213c-2.67558,-4.67025 -1.25606,-10.34583 2.03583,-12.24674c3.30123,-2.00047 6.6702,0.80973 9.24622,5.47065z" fill="#ffffff" stroke="#001026" stroke-width="1.2" stroke-linecap="round" stroke-linejoin="round"/><path d="M226.93173,165.50304c-0.10272,1.09519 -0.98326,1.91656 -1.97889,1.82318c-0.99563,-0.09338 -1.70809,-1.06415 -1.60538,-2.15934c0.10272,-1.09519 0.98326,-1.91656 1.97889,-1.82318c0.98629,0.19294 1.70809,1.06416 1.60538,2.15935" fill="#001026" stroke="none" stroke-width="1" stroke-linecap="butt" stroke-linejoin="miter"/></g></g></g><path d="M258.07689,179.09328c-0.19769,2.10784 -22.68696,11.91488 -37.81892,9.67742c-15.13197,-2.23745 0.47777,-13.12579 0.66954,-15.17043c0.19769,-2.10784 9.70936,7.60656 20.20274,8.59073c10.49338,0.98417 17.14434,-5.20556 16.94665,-3.09773z" fill="#000000" fill-rule="nonzero" stroke="#001026" stroke-width="1.2" stroke-linecap="butt" stroke-linejoin="miter"/></g><g data-paper-data="{&quot;index&quot;:null}" fill-rule="nonzero" stroke="#001026" stroke-width="1.2" stroke-linejoin="miter"><g><g><path d="M204.5099,194.20993l3.63978,-10.1682l2.44789,0.87624l-3.63978,10.1682z" fill="#2c2c2c" stroke-linecap="butt"/><path d="M196.51782,219.40178l4.10585,-14.23173l2.27712,0.75813z" fill="#6c6c6c" stroke-linecap="butt"/><path d="M197.68077,205.57317l6.26852,-17.51187l6.96708,2.49392l-6.26851,17.51187z" fill="url(#color-1)" stroke-linecap="butt"/><path d="M206.58334,191.97813l3.45681,1.02497" fill="none" stroke-linecap="round"/><path d="M208.51768,196.0694l-3.08019,-0.89016" fill="none" stroke-linecap="round"/><path d="M205.12614,197.82935l2.77101,0.56704" fill="none" stroke-linecap="round"/><path d="M204.16858,201.09785l2.0713,0.74143" fill="none" stroke-linecap="round"/><path d="M202.57872,204.35244l3.02671,0.44615" fill="none" stroke-linecap="round"/></g><path d="M205.55305,184.17441l0.94365,-2.63621l7.1554,2.56133l-0.94365,2.6362z" fill="#2c2c2c" stroke-linecap="butt"/></g><path d="M205.79213,197.74909c0.98649,-2.75587 3.00861,-4.55237 4.51654,-4.01259c1.50793,0.53978 1.93064,3.21143 0.94416,5.9673c-0.98648,2.75587 -3.0086,4.55237 -4.51653,4.01259c-1.50793,-0.53977 -1.93063,-3.21141 -0.94415,-5.96728z" fill="#878787" stroke-linecap="butt"/><path d="M196.52587,193.37003c1.50765,-4.2118 4.87961,-6.8566 7.53149,-5.90734c2.65187,0.94926 3.57945,5.13313 2.0718,9.34493c-1.50764,4.2118 -4.87959,6.85661 -7.53147,5.90735c-2.65188,-0.94926 -3.57946,-5.13314 -2.07181,-9.34494z" fill="#878787" stroke-linecap="butt"/></g></g></g></svg>