<svg version="1.1" xmlns="http://www.w3.org/2000/svg" xmlns:xlink="http://www.w3.org/1999/xlink" width="68.33214" height="53.84777" viewBox="0,0,68.33214,53.84777"><g transform="translate(-211.47669,-152.59364)"><g data-paper-data="{&quot;isPaintingLayer&quot;:true}" fill-rule="nonzero" stroke="none" stroke-linecap="butt" stroke-linejoin="miter" stroke-miterlimit="10" stroke-dasharray="" stroke-dashoffset="0" style="mix-blend-mode: normal"><path d="M214.60195,163.29154c0.132,-0.23074 0.3165,-0.26862 0.46036,-0.2535c0.14612,-4.00198 0.92865,-8.51627 5.1062,-10.21911c1.04544,-0.42614 3.05363,-0.11585 4.18621,-0.12135c6.95922,-0.03361 13.95605,0.48194 20.96283,0.48316c2.20923,0.00005 4.95856,-0.08104 7.08581,0.50683c4.49786,1.24299 8.26147,4.30857 12.74095,5.55657c2.2127,0.62492 6.74313,3.17204 7.46318,5.47521c0.29099,0.93077 -0.008,2.11737 0.1052,3.07708c0.35098,2.97559 1.45547,5.75404 1.47218,8.78896c1.13389,2.73214 2.1267,5.54058 3.33802,8.23872c0.67697,1.5079 1.841,3.02603 2.06976,4.69006c0.11738,0.85385 0.47926,4.81665 -0.118,5.41814c-0.18927,0.19061 -1.99816,0.15721 -2.3538,0.15801c-3.3337,0.00747 -6.66741,0.00544 -10.00111,0.00545c-1.14841,0 -2.55735,-0.2076 -3.51194,0.62797c-1.78527,1.56267 -2.23306,3.85228 -3.18836,5.83537c-0.48581,1.39544 -1.98524,5.45146 -4.0052,4.81507c-0.75271,-0.23714 -2.33765,-2.31229 -2.98962,-2.90714c-2.20597,-2.0127 -5.9146,-5.21569 -8.87586,-5.80787c-6.80372,-0.46728 -14.45053,1.06005 -20.89223,-1.44589c-3.34825,-0.99283 -6.46958,-1.15735 -9.45789,-3.07752c-1.6656,-1.07025 -3.18485,-1.854 -2.59053,-4.29375c0.44733,-1.8363 1.85179,-3.56479 2.3783,-5.43712c0.2096,-5.87572 3.19218,-11.57412 1.80871,-17.45721c-0.06742,0.03889 -0.15429,0.06394 -0.26621,0.06394c-0.5,0 -0.5,-0.5 -0.5,-0.5c0,-0.47205 0.00075,-0.96485 0.00832,-1.47107l-0.24955,-0.06674c0,0 -0.434,-0.24828 -0.18572,-0.68228z" fill="#000000" stroke-width="0.5"/><path d="M243.70076,168.32152c1.10139,-4.12074 22.78131,-2.32607 22.78131,-2.32607c0,0 -10.55203,13.58898 -15.6126,12.2364c-5.06057,-1.35259 -8.27011,-5.78961 -7.16873,-9.91035z" data-paper-data="{&quot;index&quot;:null}" fill="#ffffff" stroke-width="0"/><path d="M237.81528,168.58395c-1.10139,4.12074 -6.09664,6.36478 -11.15721,5.01221c-5.06055,-1.35259 -7.42572,-18.39407 -7.42572,-18.39407c0,0 19.68428,9.26112 18.58291,13.38187z" data-paper-data="{&quot;index&quot;:null}" fill="#ffffff" stroke-width="0"/></g></g></svg>