<svg version="1.1" xmlns="http://www.w3.org/2000/svg" xmlns:xlink="http://www.w3.org/1999/xlink" width="142.61501" height="169.45384" viewBox="0,0,142.61501,169.45384"><defs><linearGradient x1="236.45583" y1="208.32292" x2="231.79479" y2="226.32944" gradientUnits="userSpaceOnUse" id="color-1"><stop offset="0" stop-color="#ffffff"/><stop offset="1" stop-color="#9f9f9f"/></linearGradient><radialGradient cx="263.34335" cy="164.16692" r="8.13758" gradientUnits="userSpaceOnUse" id="color-2"><stop offset="0" stop-color="#ffffff"/><stop offset="1" stop-color="#1a1a1a"/></radialGradient><radialGradient cx="245.06483" cy="176.60699" r="6.75889" gradientUnits="userSpaceOnUse" id="color-3"><stop offset="0" stop-color="#ffffff"/><stop offset="1" stop-color="#1a1a1a"/></radialGradient><linearGradient x1="279.87371" y1="91.38758" x2="291.39265" y2="92.75653" gradientUnits="userSpaceOnUse" id="color-4"><stop offset="0" stop-color="#ffce72"/><stop offset="1" stop-color="#ff4400"/></linearGradient><linearGradient x1="259.1377" y1="102.62005" x2="314.81965" y2="125.84365" gradientUnits="userSpaceOnUse" id="color-5"><stop offset="0" stop-color="#979797"/><stop offset="1" stop-color="#030303"/></linearGradient><linearGradient x1="263.32955" y1="128.8614" x2="269.31587" y2="138.79738" gradientUnits="userSpaceOnUse" id="color-6"><stop offset="0" stop-color="#ffce72"/><stop offset="1" stop-color="#ff4400"/></linearGradient></defs><g transform="translate(-201.61892,-71.27104)"><g data-paper-data="{&quot;isPaintingLayer&quot;:true}" stroke-miterlimit="10" stroke-dasharray="" stroke-dashoffset="0" style="mix-blend-mode: normal"><path d="M238.17582,218.05908c-3.57956,8.3051 -6.11833,14.92194 -10.61386,13.25656c-6.36486,-2.35787 -1.46028,-8.61269 2.11928,-16.91779c3.57956,-8.3051 8.41808,-15.83636 11.20758,-14.63406c2.7895,1.2023 0.86657,9.99019 -2.713,18.29529z" fill="#717171" fill-rule="nonzero" stroke="#001026" stroke-width="1.2" stroke-linecap="butt" stroke-linejoin="miter"/><g fill-rule="nonzero" stroke="#001026" stroke-width="1.2" stroke-linejoin="miter"><g><g><path d="M233.60036,213.36834l2.70643,-10.45539l2.51704,0.65154l-2.70643,10.45541z" fill="#2c2c2c" stroke-linecap="butt"/><path d="M230.86017,224.61556l2.3094,0.65321l-4.60548,14.07798z" fill="#6c6c6c" stroke-linecap="butt"/><path d="M228.21285,225.40224l4.66105,-18.00652l7.16388,1.85439l-4.66103,18.00653z" fill="url(#color-1)" stroke-linecap="butt"/><path d="M232.22235,209.91275l3.43502,1.09576" fill="none" stroke-linecap="round"/><path d="M234.80533,214.30003l-3.04777,-0.99551" fill="none" stroke-linecap="round"/><path d="M230.96251,215.57782l2.61043,1.0889" fill="none" stroke-linecap="round"/><path d="M230.3975,219.35681l2.12979,0.55131" fill="none" stroke-linecap="round"/><path d="M229.25848,222.16084l2.75392,1.33263" fill="none" stroke-linecap="round"/></g><path d="M233.53913,203.2295l0.70167,-2.71065l7.3575,1.90451l-0.70165,2.71067z" fill="#2c2c2c" stroke-linecap="butt"/></g><path d="M233.06727,216.22592c-0.73352,2.83372 -2.58509,4.80553 -4.13561,4.40416c-1.55052,-0.40136 -2.21283,-3.0239 -1.47931,-5.85761c0.73352,-2.83372 2.5851,-4.80552 4.13561,-4.40416c1.55052,0.40136 2.21284,3.02391 1.47932,5.85762z" fill="#717171" stroke-linecap="butt"/><path d="M243.1924,217.81389c-1.12103,4.33077 -4.24032,7.26935 -6.96709,6.56353c-2.72678,-0.70583 -4.02849,-4.78879 -2.90747,-9.11957c1.12103,-4.33077 4.2403,-7.26936 6.96708,-6.56354c2.72678,0.70583 4.02849,4.78881 2.90748,9.11958z" fill="#717171" stroke-linecap="butt"/></g><g fill-rule="evenodd"><path d="M226.18634,211.32467c0.35662,0.93425 2.62201,2.83109 -1.34838,3.98269c-4.03898,1.02794 -13.58571,1.31104 -19.96734,-8.7336c-6.86191,-10.91028 1.26165,-20.75448 5.60179,-19.92789c4.24398,0.79907 0.68283,7.06072 1.51604,15.4127c1.11957,12.07464 13.84127,8.33182 14.19788,9.26608z" fill="#717171" stroke="#001026" stroke-width="1.2" stroke-linecap="round" stroke-linejoin="round"/><path d="M211.73288,192.41574c-0.73047,4.36766 -0.59489,7.52702 -0.59489,7.52702c0,0 -0.98766,-2.36315 -3.40506,-2.63924c-2.92559,-0.31758 -4.45147,1.74198 -4.74029,2.38741c-0.20502,-1.82702 -0.20379,-4.01106 0.97942,-7.41693c1.4441,-3.22715 4.55005,-6.08251 6.84338,-5.00982c1.81263,0.93507 1.27608,2.44574 0.91743,5.15154z" fill="#ffffff" stroke="none" stroke-width="1" stroke-linecap="butt" stroke-linejoin="miter"/></g><path d="M248.31982,236.37532c0,3.86599 -11.83333,3 -11.83333,3c0,0 -10.5,0.86599 -10.5,-3c0,-3.45051 2.7452,-32.89294 7.69909,-34.5825c3.83539,-1.30808 4.43187,28.24917 5.13424,28.24917c6.53537,0 9.5,2.46734 9.5,6.33333z" fill="#717171" fill-rule="nonzero" stroke="#001026" stroke-width="1.2" stroke-linecap="butt" stroke-linejoin="miter"/><path d="M242.31982,237.04199c0,3.86599 -11.83333,3 -11.83333,3c0,0 -10.5,0.86599 -10.5,-3c0,-3.45051 2.7452,-32.89294 7.69909,-34.58249c3.83539,-1.30808 4.43187,28.24916 5.13424,28.24916c6.53537,0 9.5,2.46734 9.5,6.33333z" fill="#717171" fill-rule="nonzero" stroke="#001026" stroke-width="1.2" stroke-linecap="butt" stroke-linejoin="miter"/><g fill-rule="evenodd"><path d="M229.4845,218.43372c-9.14185,-0.9068 -5.85067,-9.22495 -4.58568,-18.58121c0.64864,-5.05856 3.25701,-11.04683 9.2927,-12.05202c3.35639,-0.73792 4.272,5.51835 6.29363,4.64486c3.05018,-1.26348 4.19096,3.43742 4.23578,6.0941c0,0 0.00274,3.95601 -0.53919,6.19349c-0.64516,2.81136 -1.47734,5.69364 -2.2803,6.96063c0,0 -2.56907,7.71697 -12.41694,6.74016z" fill="#717171" stroke="#001026" stroke-width="1.2" stroke-linecap="round" stroke-linejoin="round"/><path d="M241.14554,211.87635c0,0 -1.82802,-0.59025 -3.85589,-1.42554c-2.50826,-0.97399 -4.91014,-1.66746 -4.13914,-5.27517c0.83216,-2.88227 1.28721,-6.47712 6.52305,-5.36093c4.97793,1.00009 4.08771,4.01131 4.08771,4.01131c-0.46166,4.98767 -2.61574,8.05035 -2.61574,8.05035z" fill="#ffffff" stroke="none" stroke-width="1" stroke-linecap="butt" stroke-linejoin="miter"/></g><g><g><path d="M246.96098,141.79179c0.18265,-0.31088 0.67618,-0.43908 0.94071,-0.1228l7.00859,8.49293c0,0 7.80946,1.43611 10.95904,3.57623c5.27931,3.55232 7.33297,7.55762 7.33297,7.55762c0,0 7.30472,-1.20873 10.87178,3.39628c3.56704,4.60502 4.32092,16.24251 -10.9801,27.77547c-15.30101,11.53294 -31.11298,13.53338 -42.47598,6.3743c-11.36299,-7.15908 -7.2203,-24.28327 -7.41106,-23.30164l-9.70058,-15.18942c-0.26453,-0.31627 0.05443,-0.80438 0.50162,-0.79897l14.33451,1.82803c0,0 3.30712,-3.49329 7.44874,-5.72419c2.43207,-1.4018 4.67879,-2.26913 6.92279,-2.91289z" fill="#717171" fill-rule="evenodd" stroke="#001026" stroke-width="1.2" stroke-linecap="butt" stroke-linejoin="miter"/><path d="M266.55459,163.45824c1.77737,3.66484 -2.27043,9.2977 -9.04106,12.58135c-6.77064,3.28364 -13.70018,2.97464 -15.47756,-0.69019c-1.77737,-3.66484 2.27043,-9.2977 9.04106,-12.58135c6.77064,-3.28364 13.70018,-2.97465 15.47756,0.69019z" fill="#000000" fill-rule="nonzero" stroke="none" stroke-width="NaN" stroke-linecap="butt" stroke-linejoin="miter"/><path d="M273.10689,161.78659c0,0 6.99385,-1.39139 10.5609,3.21364c3.56704,4.60502 3.74281,15.96719 -11.42189,27.32289c-19.59246,15.05904 -36.22353,7.12072 -34.82067,-5.3405c1.35924,-12.5512 15.67756,-9.38162 22.97376,-13.58703c6.26013,-3.59177 4.23078,-9.6094 12.70791,-11.60901z" fill="#ffffff" fill-rule="evenodd" stroke="none" stroke-width="1" stroke-linecap="butt" stroke-linejoin="miter"/><path d="M290.1426,154.74707c-2.57068,5.47007 -9.00535,8.70193 -9.00535,8.70193" fill="none" fill-rule="evenodd" stroke="#001026" stroke-width="1.2" stroke-linecap="round" stroke-linejoin="round"/><path d="M293.86028,165.39173c-5.45034,3.19902 -9.78855,3.19133 -9.78855,3.19133" fill="none" fill-rule="evenodd" stroke="#001026" stroke-width="1.2" stroke-linecap="round" stroke-linejoin="round"/><path d="M258.90453,171.23076c1.88952,-0.91639 3.95626,-1.69645 4.35171,-1.11026c0.70089,1.21602 0.57309,4.38993 -0.82287,5.17811c-1.5323,0.96543 -6.40225,0.54877 -7.10045,-0.89085c-0.61363,-1.03609 1.7721,-2.30427 3.57162,-3.17701z" fill="#001026" fill-rule="evenodd" stroke="#001026" stroke-width="1.2" stroke-linecap="round" stroke-linejoin="round"/><path d="M217.76049,189.5179c0,0 8.95983,-1.23346 13.46177,0.0285" fill="none" fill-rule="evenodd" stroke="#001026" stroke-width="1.2" stroke-linecap="round" stroke-linejoin="round"/><path d="M233.01948,192.56467c-3.12716,3.406 -10.26543,5.64542 -10.26543,5.64542" fill="none" fill-rule="evenodd" stroke="#001026" stroke-width="1.2" stroke-linecap="round" stroke-linejoin="round"/><path d="M267.54358,158.6854c4.57299,2.78347 3.76108,4.19753 2.02721,7.03896c-1.73387,2.84143 -6.78919,2.95923 -11.45216,0.21941c-2.36974,-1.43308 -6.61379,-4.50369 -5.13484,-4.62811c16.81591,-1.41471 13.02029,-3.38376 13.90508,-2.95002c0.21826,0.107 0.44599,0.1927 0.65472,0.31976z" fill="url(#color-2)" fill-rule="evenodd" stroke="#001026" stroke-width="1.2" stroke-linecap="round" stroke-linejoin="round"/><path d="M243.32383,168.89569c4.61935,2.64985 6.79579,7.59586 5.19554,10.48363c-2.14013,3.14958 -6.71001,3.80994 -11.32934,1.16011c7.68469,-4.32681 1.51447,-14.29357 6.13379,-11.64372z" fill="url(#color-3)" fill-rule="evenodd" stroke="#001026" stroke-width="1.2" stroke-linecap="round" stroke-linejoin="round"/><path d="M264.95501,184.79493c1.17488,2.42252 -4.77427,23.38345 -10.86162,26.33572c-6.08736,2.95228 -10.00776,-13.22208 -11.18264,-15.6446c-1.17488,-2.42252 2.17419,-0.63767 8.26152,-3.58994c6.08736,-2.95228 12.60784,-9.52371 13.78272,-7.10119z" fill="#000000" fill-rule="nonzero" stroke="#001026" stroke-width="1.2" stroke-linecap="butt" stroke-linejoin="miter"/></g><path d="M245.77054,181.22281c0.0266,0.01427 0.05373,0.03243 0.08138,0.05471c0.11016,-0.08243 0.21979,-0.17732 0.32896,-0.28629c0.10575,-0.05212 0.21254,-0.10391 0.31969,-0.15597c0.33205,-0.33885 0.63922,-0.67447 0.81186,-0.81829c0.18531,-0.20388 0.42283,-0.3456 0.66095,-0.46672c-0.06827,-0.35928 -0.0364,-0.7085 0.34405,-1.01311c0.21477,-0.17196 0.43098,-0.2744 0.63213,-0.31615c0.0413,-0.13951 0.08533,-0.27411 0.13406,-0.39526c-0.05324,-1.12562 -0.47281,-2.61125 -0.54273,-3.17797l-0.11475,-0.2366c-0.06025,-0.12422 -0.00841,-0.27378 0.11584,-0.33403c0.12422,-0.06025 0.27378,-0.00838 0.33405,0.11585l0.12813,0.26418l-0.05686,0.02757c0.00481,0.00565 0.0096,0.01132 0.01438,0.01703l0.05702,-0.00715c0.00425,0.03036 0.00897,0.06176 0.01413,0.09409c1.1905,1.49302 1.83004,4.26384 2.24077,6.40841c0.82779,1.90197 1.76339,4.52919 1.6172,6.33099l0.05303,-0.00644l0.03568,0.29338c0.01526,0.10495 -0.03787,0.21213 -0.13839,0.26088c-0.12422,0.06025 -0.27378,0.00838 -0.33404,-0.11585c-0.00035,-0.00074 -0.0007,-0.00146 -0.00105,-0.00221l-0.21422,-0.45142l0.00767,-0.00364l-0.01773,-0.02076c-0.36859,-1.54313 -0.842,-3.0243 -1.1977,-4.56167c-0.13576,-0.72381 -0.31101,-1.38962 -0.50957,-2.0292c-0.10401,-0.25054 -0.21454,-0.49829 -0.33299,-0.74251c-0.13486,-0.2795 -0.22717,-0.57213 -0.31649,-0.86609c-0.00847,0.222 -0.07533,0.47871 -0.21608,0.76177c-0.49469,1.32886 -1.48524,1.89859 -2.36433,2.53226l0.01115,0.15658c0.00953,0.10091 -0.0433,0.20168 -0.13987,0.24851c-0.10849,0.05262 -0.23631,0.01974 -0.30708,-0.0722c-0.51619,0.4257 -0.94801,0.93151 -1.14593,1.72005l-0.04629,0.47943c-0.0068,0.08549 -0.05742,0.16525 -0.14016,0.20538c-0.11561,0.05608 -0.25317,0.01504 -0.32025,-0.09106l-0.22123,-0.33874l0.0638,-0.04167c-0.36592,-0.50553 -0.46968,-0.97853 -0.39105,-1.4175c-0.03105,-0.02087 -0.06308,-0.04194 -0.09599,-0.0631c0.04893,2.20678 1.57736,4.09172 1.9524,6.17251c0.02462,0.06792 0.04912,0.13621 0.07365,0.20492l0.12372,0.25506c0.06025,0.12422 0.00838,0.27377 -0.11585,0.33404c-0.12422,0.06025 -0.27377,0.00838 -0.33404,-0.11585l-0.12813,-0.26418l0.00574,-0.0028l-0.0113,-0.00948c-0.01996,-0.05563 -0.03984,-0.11096 -0.05975,-0.16606c-0.32669,-0.31387 -0.58861,-1.16694 -0.74619,-1.49488c-0.28554,-0.59424 -0.59844,-1.39227 -0.84333,-2.23162c-0.27447,-0.65995 -0.55348,-1.32179 -0.85279,-1.95584l-0.01842,0.07924c-0.01608,0.07181 -0.06357,0.13586 -0.13491,0.17046c-0.12422,0.06025 -0.27377,0.00838 -0.33403,-0.11585c-0.01832,-0.03778 -0.02628,-0.0779 -0.025,-0.11713l0.00523,-0.43265l0.01499,0.00018c-0.03646,-0.15578 -0.06462,-0.31302 -0.07886,-0.47202c-0.0006,-0.00679 -0.00114,-0.01399 -0.00161,-0.02155c-0.28226,-0.02605 -0.56346,-0.04756 -0.83919,-0.05573c-0.00191,0.00442 -0.00381,0.00886 -0.00567,0.01336c-0.01766,0.04282 -0.03166,0.0885 -0.04257,0.13652c0.10798,0.5698 0.20974,1.13007 0.23133,1.70248l0.05895,-0.01032l0.08525,0.48707c0.02162,0.10887 -0.03169,0.22279 -0.13621,0.27347c-0.07274,0.03528 -0.15416,0.03212 -0.22124,-0.00149c-0.12374,0.05843 -0.27175,0.00644 -0.33163,-0.11699l-0.17084,-0.35227l0.07,-0.03394c-0.36842,-0.57279 -0.42288,-1.0981 -0.26844,-1.52849c-0.00373,-0.18663 0.00209,-0.37364 0.01836,-0.55371c-0.05458,0.00464 -0.10873,0.0102 -0.16244,0.01673c-0.2679,-0.0947 -0.50672,-0.28179 -0.693,-0.49634l-0.00397,-0.00942l-0.00195,0.00137l-0.28644,-0.40405c-0.00893,-0.01214 -0.01691,-0.02526 -0.02374,-0.03933c-0.06025,-0.12422 -0.00838,-0.27378 0.11585,-0.33405c0.1129,-0.05476 0.24671,-0.0169 0.3154,0.0837l0.19358,0.27305c0.07329,0.02493 0.14468,0.04607 0.21428,0.06365c0.01371,-0.07593 0.06226,-0.14449 0.13698,-0.18071l0.35226,-0.17083l0.00632,0.013l0.03114,-0.02757c0.23348,-0.03268 0.46352,-0.04262 0.69035,-0.03989c0.18027,-0.03927 0.36136,-0.03952 0.50934,0.02362c0.06083,0.00443 0.12145,0.00923 0.18184,0.01421c0.66571,-0.37422 1.31695,-0.8274 2.33054,-0.66161c0.1327,0.0217 0.23476,0.07819 0.31294,0.15853zM248.21774,180.85636c-0.01238,0.01143 -0.02483,0.02282 -0.03732,0.03412c0.02083,-0.00554 0.03278,-0.01104 0.03402,-0.01702c0.00116,-0.00569 0.00225,-0.0114 0.00331,-0.0171zM249.65699,178.09772c-0.03206,-0.08666 -0.06412,-0.17366 -0.09619,-0.26107c0.00395,0.15123 0.00171,0.29875 -0.00811,0.44073c0.05582,0.03481 0.10328,0.06894 0.14309,0.10239c-0.00379,-0.00997 -0.00764,-0.01995 -0.0115,-0.0299c-0.02327,-0.05986 -0.02667,-0.15606 -0.02733,-0.25216zM249.43573,179.13219c-0.0368,0.02095 -0.07452,0.04138 -0.11262,0.06136c-0.04604,0.08603 -0.09969,0.16518 -0.16177,0.23636c-0.00165,0.00189 -0.00331,0.00378 -0.00499,0.00563l0.04043,-0.01961c0.05255,-0.02548 0.10963,-0.03092 0.16256,-0.01927c0.03631,-0.09686 0.06139,-0.18511 0.07641,-0.26447zM248.38371,179.34942c0.0012,-0.0006 0.00239,-0.00119 0.00357,-0.00181c0.10166,-0.09786 0.21432,-0.19123 0.32519,-0.27561c0.0295,-0.09575 0.05828,-0.19913 0.08723,-0.30613c-0.08684,0.05714 -0.17868,0.13209 -0.27315,0.22543c-0.09676,0.0956 -0.13692,0.21817 -0.14286,0.35813zM245.502,182.58934c-0.02463,0.01311 -0.04937,0.02586 -0.07409,0.03823c0.00837,0.04093 0.0178,0.08236 0.028,0.12424l0.04618,-0.13318c0.00001,-0.00985 -0.00002,-0.01962 -0.00008,-0.02929zM248.64787,180.7314c0.13445,-0.16766 0.25899,-0.35275 0.37013,-0.56071c-0.04669,0.04605 -0.09538,0.08857 -0.14567,0.12514c0.00088,0.07952 -0.03641,0.15668 -0.10263,0.20489l-0.13455,0.10206c0.00594,0.04342 0.01033,0.08636 0.01272,0.12861zM244.09271,183.25295c0.00025,-0.06016 0.00158,-0.1195 0.00406,-0.1779c-0.03364,-0.00295 -0.06736,-0.00597 -0.10114,-0.00909c0.03259,0.06121 0.06493,0.12359 0.09707,0.18699zM245.73041,183.28778c0.00127,-0.00189 0.00255,-0.00376 0.00381,-0.00564c-0.00153,0.00084 -0.00307,0.00169 -0.00462,0.00253zM248.05704,181.32925c-0.16098,0.01131 -0.3366,0.02965 -0.46844,0.06641c-0.04178,0.14284 -0.08948,0.27441 -0.14269,0.3956c0.20728,-0.14511 0.41342,-0.29536 0.61112,-0.462zM244.47351,182.28562c0.03011,0.03595 0.06053,0.07662 0.09119,0.12226c0.06087,-0.04215 0.12405,-0.08382 0.18917,-0.12451c-0.09294,0.00142 -0.18644,0.00202 -0.28036,0.00223zM245.12614,182.87727c0.00481,0.00049 0.0096,0.00099 0.01439,0.00149c-0.00337,-0.01361 -0.00657,-0.02736 -0.00963,-0.0412c-0.00232,0.01233 -0.00391,0.02557 -0.00478,0.03972zM245.37852,183.98526c0.01708,-0.04745 0.03494,-0.0938 0.05357,-0.13906c-0.01952,-0.01181 -0.03753,-0.02632 -0.05339,-0.04335l-0.06364,-0.0652c0.02269,0.08301 0.04449,0.16624 0.06347,0.24763z" fill="#000000" fill-rule="nonzero" stroke="none" stroke-width="0.5" stroke-linecap="butt" stroke-linejoin="miter"/><path d="M270.63733,167.59488c0.03768,-0.11479 0.0713,-0.23708 0.10063,-0.36417c-0.04167,0.09683 -0.07797,0.18615 -0.10643,0.26531c0.00182,0.03306 0.00375,0.06601 0.0058,0.09886zM271.3536,165.82613c0.04913,1.00533 -0.12804,2.21539 -0.61948,2.65328c0.00167,0.04182 0.00329,0.08329 0.00489,0.12442c0.24606,1.7499 0.82423,3.1908 1.56855,4.68808c0.62883,0.73347 1.33838,1.4667 1.46524,2.372l0.08665,-0.01132l0.03933,0.30117c0.01631,0.10564 -0.03687,0.21393 -0.13806,0.26302c-0.08979,0.04355 -0.19282,0.02852 -0.26581,-0.03008l-0.34268,-0.26353l0.0096,-0.01248l-0.04673,-0.02265c-0.71218,-1.24271 -1.34933,-2.39284 -1.85064,-3.57321c-0.60657,-1.03166 -0.98958,-2.02065 -1.00115,-3.49795c-0.06422,-0.44662 -0.10717,-0.90927 -0.12663,-1.39245c0.0637,-0.1895 0.19413,-0.47091 0.33651,-0.77749c-0.27889,0.4144 -0.84184,0.58014 -1.41412,0.68304c-0.26009,0.24268 -0.51703,0.43122 -0.75688,0.54755c-0.264,0.12803 -0.57729,0.23165 -0.89737,0.33624c0.09089,0.20939 0.2937,0.48055 0.64178,0.83612c0.28574,0.29187 0.457,0.57872 0.81294,0.79056c1.27888,1.17856 3.63387,5.7677 3.10159,7.83591l0.11213,0.0389l-0.09071,0.26155v0v0c-0.02096,0.06043 -0.065,0.11289 -0.12711,0.14303c-0.12422,0.06025 -0.27377,0.00838 -0.33404,-0.11585l-0.17084,-0.35226c-0.28265,-0.58777 -0.65385,-1.12392 -0.94226,-1.71857c-0.79241,-1.67495 -1.03346,-3.78076 -2.05917,-5.37472c-0.23452,-0.36446 -0.58019,-0.62977 -0.90006,-0.91567c-0.00201,0.11131 -0.00586,0.22226 -0.01112,0.33161c0.25908,0.75421 0.53706,1.73306 0.72192,2.67965c0.28873,0.64623 0.47931,1.26846 0.41778,1.81919c-0.08936,0.65094 0.89819,5.07066 0.10437,4.89412c-0.51624,-0.11481 -0.82686,-3.34385 -1.01728,-3.80501c-0.03957,-0.29403 -0.0832,-0.61495 -0.13418,-0.95279c-0.49716,-0.78867 -1.26671,-1.92531 -1.21519,-2.29893c0.05434,-0.39421 0.2395,-0.74785 0.39136,-1.13772c-0.25719,-0.67077 -0.58249,-1.28443 -1.0004,-1.76705c-0.24443,0.01715 -0.56492,-0.1063 -0.94617,-0.47083c-0.0517,0.0191 -0.10338,0.03966 -0.15504,0.06173l-0.08334,-0.05162l-0.01327,0.03825l-0.26154,-0.0907c-0.06043,-0.02096 -0.11289,-0.065 -0.14302,-0.12712c-0.06025,-0.12422 -0.00838,-0.27378 0.11584,-0.33404l0.26417,-0.12814l0.00831,0.01712c0.00849,-0.00896 0.01794,-0.01785 0.02846,-0.02665c0.0402,-0.03361 0.07902,-0.05177 0.11528,-0.05944c1.79855,-1.21708 3.98107,-1.07195 5.4069,-3.469c0.06158,-0.06011 0.11814,-0.11881 0.17006,-0.17628c-0.10543,-0.47721 -0.24325,-0.99586 -0.10515,-1.3191c0.1781,-0.41689 0.37243,-0.76505 0.57867,-1.04532c0.00047,-0.05482 0.00258,-0.11066 0.00678,-0.16766c-0.20199,-0.17313 -0.26757,-0.37718 -0.08139,-0.61606c0.05246,-0.06732 0.11409,-0.1124 0.18335,-0.13804l-0.01311,-0.10033c-0.01631,-0.10564 0.03686,-0.21393 0.13805,-0.26301c0.12422,-0.06025 0.27378,-0.00838 0.33404,0.11585l0.12813,0.26418l-0.07589,0.0368l0.00145,0.01112c0.06943,0.03132 0.14134,0.07004 0.21511,0.11503c0.88628,-0.42043 1.86869,0.15374 2.7002,1.6726c0.37853,0.7677 0.73691,1.54016 1.0869,2.3151c1.29642,1.59681 2.67311,3.65537 2.57107,5.36026l0.11243,0.01209l-0.05297,0.49284c-0.00767,0.08442 -0.05809,0.16285 -0.13993,0.20253c-0.12422,0.06025 -0.27378,0.00838 -0.33405,-0.11586l-0.12814,-0.26417c-0.7875,-1.62375 -1.49061,-3.26076 -2.21772,-4.88922c-0.42104,-0.6756 -0.894,-1.32976 -1.45584,-1.94613c-0.20916,-0.202 -1.26143,-1.1044 -1.98009,-1.79082c-0.07087,0.01269 -0.13994,0.02957 -0.20635,0.0514c-0.03107,0.50928 -0.17098,1.06499 -0.38351,1.62027c0.20648,0.29192 0.43542,0.59472 0.4431,0.84535c0.00615,0.20041 -0.07113,0.4762 -0.18452,0.77722zM268.9758,170.68672c0.83343,1.56555 1.17525,3.61629 1.88237,5.02827c0.15171,0.31284 0.3245,0.60853 0.49602,0.904c-0.05261,-0.41894 -0.07748,-0.84162 -0.11977,-0.99959c-0.36149,-1.35 -1.24755,-3.67603 -2.25862,-4.93269zM266.88285,170.13582c-0.08092,-0.38472 -0.17354,-0.7124 -0.28896,-0.94613l-0.0954,-0.19672c0.06118,0.35774 0.20248,0.74274 0.38435,1.14283zM267.21672,172.90305c-0.06245,-0.27605 -0.13204,-0.55269 -0.21024,-0.82562c-0.11338,0.22903 -0.21604,0.42938 -0.21225,0.4321c0.15781,0.11316 0.2971,0.24608 0.42248,0.39351zM266.80494,168.4181c-0.02929,0.01088 -0.05842,0.02192 -0.08732,0.03312c-0.01714,0.00934 -0.03428,0.0186 -0.05136,0.02769c0.0318,0.00236 0.06282,0.01079 0.09134,0.02465l0.07016,0.03341c-0.00718,-0.03482 -0.01482,-0.07533 -0.0228,-0.11891zM270.60697,166.35761c0.0967,-0.21118 0.19121,-0.42441 0.26716,-0.61967c-0.01138,-0.23081 -0.04017,-0.44442 -0.08778,-0.6245c0.0372,0.2624 0.01715,0.49953 -0.14486,0.67803c0.02547,0.21898 0.01137,0.40596 -0.03449,0.56614zM273.0382,162.85705c0.47158,0.51766 0.85552,0.99292 0.98589,1.11775c0.02926,0.0327 0.059,0.06599 0.0892,0.09985c-0.10972,-0.23008 -0.22093,-0.4598 -0.33392,-0.68909c-0.06744,-0.12403 -0.13437,-0.24122 -0.20084,-0.35151c-0.00288,0.00153 -0.00583,0.00304 -0.0088,0.00449c-0.07931,0.03846 -0.16896,0.03123 -0.23907,-0.01137l-0.28546,-0.16773c-0.00224,-0.00081 -0.00457,-0.00161 -0.00703,-0.00242zM269.87884,166.39901c0.11939,-0.10355 0.20909,-0.22363 0.25829,-0.36532c-0.08428,0.12552 -0.17058,0.24756 -0.25829,0.36532zM269.59594,166.11558c-0.23048,0.24531 -0.49376,0.50705 -0.77757,0.76824c0.03685,-0.01051 0.07348,-0.02121 0.10981,-0.03213c0.24188,-0.21635 0.46612,-0.46525 0.66778,-0.7361zM270.5457,164.08668c0.00122,0.00675 0.00245,0.01347 0.00372,0.02022c0.00087,-0.00353 0.00173,-0.00707 0.00258,-0.01062c-0.00211,-0.00319 -0.0042,-0.0064 -0.0063,-0.0096zM272.05812,161.88271c0.1365,-0.03503 0.27177,-0.05336 0.40268,-0.05234c-0.17627,-0.0764 -0.3506,-0.09349 -0.52387,-0.04929c0.04023,0.0328 0.08064,0.06675 0.12121,0.10163z" fill="#000000" fill-rule="nonzero" stroke="none" stroke-width="0.5" stroke-linecap="butt" stroke-linejoin="miter"/></g><path d="M228.32464,217.50046c-2.21744,8.7676 -3.67493,15.70329 -8.37766,14.77178c-6.6582,-1.31884 -2.80743,-8.27219 -0.58999,-17.0398c2.21744,-8.7676 5.8006,-16.97079 8.74545,-16.226c2.94485,0.74479 2.43963,9.72641 0.2222,18.49401z" fill="#717171" fill-rule="nonzero" stroke="#001026" stroke-width="1.2" stroke-linecap="butt" stroke-linejoin="miter"/><path d="M249.28229,144.03806c0,0 0.03496,0.24754 -0.21257,0.28251c-0.24754,0.03497 -0.28251,-0.21257 -0.28251,-0.21257c-0.09262,-0.65551 -0.18524,-1.31103 -0.27786,-1.96654c-0.15446,-0.38527 -0.30205,-0.76905 -0.44363,-1.14855l-0.12517,-0.33612c0,0 -0.08726,-0.23428 0.14704,-0.32152c0.06646,-0.02474 0.12109,-0.02362 0.16527,-0.00931c-0.24157,-1.70981 -0.48315,-3.41962 -0.72472,-5.12942c-0.48963,-3.46558 -0.97928,-6.93116 -1.46892,-10.39673c-0.30466,-2.15632 -3.05199,-7.68566 -4.84178,-8.97286c-0.93363,-0.68935 -2.05183,-1.19607 -2.88545,-1.71221c-1.92385,-1.19118 1.11633,-5.25487 1.80182,-6.57937c1.35539,-2.61886 4.82436,-6.02219 7.29358,-7.63715c2.92914,-1.91578 5.85827,-3.83154 8.7874,-5.7473c2.92914,-1.91578 5.85826,-3.83155 8.78739,-5.74733c2.92995,-1.91631 5.86866,-3.81768 8.81506,-5.70861c2.94558,-1.89041 5.89116,-3.7808 8.83671,-5.67118c2.42503,-1.55632 6.36717,-5.36786 9.18548,-4.60915c3.41363,0.91897 6.67924,1.80754 10.21198,2.04625c1.11482,0.07532 3.64966,0.1717 4.55129,0.88647c1.39686,1.10737 1.56095,4.2075 1.935,5.79941c0.22455,0.9558 0.28347,2.49948 0.77303,3.33841c0.99577,1.70643 3.63309,3.33646 5.09878,4.68849c2.68928,2.48075 4.86785,4.75842 6.88625,7.81653c1.71215,0.85232 3.71648,1.79025 5.10333,2.58839c0.85364,0.49129 1.65001,3.24887 2.09233,4.14824c1.45603,2.96072 1.56486,6.86409 2.42608,10.14679c1.17107,3.21274 2.1114,6.73805 3.86114,9.67844c1.71074,2.87485 4.88823,5.0052 6.89924,7.72926c0.87929,1.19106 2.68103,4.01004 2.5492,5.57788c-0.10953,1.30265 -1.87511,2.93158 -2.70781,3.82179c-3.22865,1.41054 -6.54409,2.59533 -9.84344,3.82846c-3.30537,1.23539 -6.67789,2.05433 -9.9813,3.19564c-3.34274,1.2223 -6.05075,3.33153 -8.8899,5.41173c-1.1303,0.43893 -2.26467,0.86716 -3.40049,1.29152l-0.15353,0.16159c-1.72058,1.81063 -3.54743,3.51764 -5.3949,5.19678c-1.94283,2.67535 -4.78359,5.26328 -7.34627,7.45831c-2.25647,1.93195 -4.59853,5.56295 -5.71423,8.43989c-0.5592,1.44197 -0.05731,2.50649 -0.32849,3.82794c-0.3314,1.61484 -3.17619,3.87026 -4.27739,5.06143c-0.97394,1.05351 -1.55464,2.79982 -2.70202,3.63233c-1.6096,1.16788 -3.71284,1.70938 -5.55391,2.39701c-3.3226,1.30845 -6.18746,2.94004 -9.0946,5.0161c-2.54818,1.81167 -6.49842,3.63031 -9.43656,4.72324c-1.63355,0.60549 -3.57575,1.61815 -5.35931,1.53479c-1.58883,-0.07425 -5.00016,-1.41027 -2.04287,-2.51192c3.37521,-1.26246 6.26546,-2.63028 7.06453,-6.22315c0.23026,-1.78552 1.16166,-3.8974 2.5291,-5.40995c0.00186,-0.00916 0.0034,-0.0144 0.0034,-0.0144c0.85367,-2.89173 1.08075,-5.78688 0.50783,-8.75696c-0.61526,-3.21322 -2.30712,-6.43995 -3.51208,-9.67608c-1.20549,-3.29481 -0.08318,-6.81714 -1.33129,-10.25942c-1.21759,-3.27898 -2.25008,-6.55607 -4.21478,-9.46823c-1.59487,-1.50406 -2.81171,-3.5344 -3.78466,-5.6423c0.00673,0.04758 0.01345,0.09519 0.02017,0.14278z" fill="#000000" fill-rule="nonzero" stroke="none" stroke-width="0.5" stroke-linecap="butt" stroke-linejoin="miter"/><g><path d="M279.87371,91.38758c0.9893,-8.32439 -2.64473,-18.41955 -2.64473,-18.41955c0,0 15.15297,11.46411 14.16368,19.7885c-0.9893,8.32439 -3.5202,7.61653 -6.70106,7.2385c-3.18087,-0.37802 -5.80718,-0.28305 -4.81789,-8.60744z" data-paper-data="{&quot;index&quot;:null}" fill="url(#color-4)" fill-rule="nonzero" stroke="#001026" stroke-width="1.2" stroke-linecap="butt" stroke-linejoin="miter"/><g><g><g><path d="M267.84458,90.93574c-0.02098,-0.35996 0.31795,-0.74087 0.71367,-0.62504l10.54724,3.16316c0,0 7.28979,-3.14786 11.09757,-3.1199c6.36315,0.01779 10.2969,2.2054 10.2969,2.2054c0,0 5.39988,-5.0657 10.92501,-3.22098c5.52512,1.84473 12.62148,11.09899 6.31454,29.19189c-6.30694,18.09287 -18.33809,28.54617 -31.76329,28.91251c-13.4252,0.36634 -19.50169,-16.17079 -19.11453,-15.24878l-16.50774,-7.23287c-0.3957,-0.11585 -0.40194,-0.69889 -0.02722,-0.943l12.93146,-6.44961c0,0 0.80689,-4.74225 3.00927,-8.89912c1.24228,-2.51729 2.62761,-4.48727 4.13499,-6.2699z" fill="url(#color-5)" fill-rule="evenodd" stroke="#001026" stroke-width="1.2" stroke-linecap="butt" stroke-linejoin="miter"/><path d="M300.69355,93.02036c0,0 5.03993,-5.04471 10.56505,-3.19997c5.52512,1.84473 11.9879,11.19151 5.69572,29.06127c-7.9138,23.40964 -26.15117,26.05699 -31.91274,14.91903c-5.84787,-11.1885 7.81593,-16.51397 11.54277,-24.06586c3.20677,-6.46581 -1.82551,-10.33961 4.10922,-16.7145z" fill="#ffffff" fill-rule="evenodd" stroke="none" stroke-width="1" stroke-linecap="butt" stroke-linejoin="miter"/><path d="M310.94049,77.69813c0.90422,5.97598 -2.64772,12.23968 -2.64772,12.23968" fill="none" fill-rule="evenodd" stroke="#001026" stroke-width="1.2" stroke-linecap="round" stroke-linejoin="round"/><path d="M319.9485,84.47941c-2.75197,5.68916 -6.36228,8.09454 -6.36228,8.09454" fill="none" fill-rule="evenodd" stroke="#001026" stroke-width="1.2" stroke-linecap="round" stroke-linejoin="round"/><path d="M294.13861,108.76622c1.06116,-1.81218 2.34542,-3.60957 3,-3.34216c1.25865,0.62114 2.91691,3.33041 2.19472,4.76164c-0.73697,1.65435 -5.01662,4.0154 -6.39731,3.20692c-1.08606,-0.52007 0.19199,-2.90052 1.2026,-4.62642z" fill="#001026" fill-rule="evenodd" stroke="#001026" stroke-width="1.2" stroke-linecap="round" stroke-linejoin="round"/><path d="M270.10526,146.84048c0,0 6.76189,-6.00639 11.20558,-7.46022" fill="none" fill-rule="evenodd" stroke="#001026" stroke-width="1.2" stroke-linecap="round" stroke-linejoin="round"/><path d="M284.48271,140.88995c-0.70584,4.56966 -5.39436,10.39956 -5.39436,10.39956" fill="none" fill-rule="evenodd" stroke="#001026" stroke-width="1.2" stroke-linecap="round" stroke-linejoin="round"/><path d="M306.29488,115.76704c2.32335,1.36049 33.2488,1.42387 26.96301,5.51123c-17.00977,11.06067 -9.39599,15.19879 -11.16682,22.38172c-1.96122,7.95522 -27.26026,-6.21458 -28.17628,-6.75097c-2.32335,-1.36049 6.55623,-2.59435 9.97488,-8.43256c3.41866,-5.83821 0.08184,-14.0699 2.40518,-12.70942z" fill="#000000" fill-rule="nonzero" stroke="#001026" stroke-width="1.2" stroke-linecap="butt" stroke-linejoin="miter"/></g><path d="M290.26945,119.61525c0.05395,0.07951 0.11028,0.15759 0.16289,0.19441c0.00874,0.00613 0.01748,0.01228 0.02617,0.01846c-0.05168,-0.00567 -0.11012,-0.00766 -0.17587,-0.00556c-0.07078,-0.12348 -0.15092,-0.24733 -0.23829,-0.37083c0.07524,0.05484 0.15027,0.10933 0.22509,0.16354zM290.66066,120.59813c0.03163,0.0743 0.05982,0.16161 0.08351,0.26231c-0.05047,0.01976 -0.09488,0.056 -0.1244,0.1064l-0.02271,0.03878c0.00035,-0.00249 0.00068,-0.00498 0.001,-0.00747c0.01204,-0.09369 0.01264,-0.18929 0.00309,-0.2864c0.02056,-0.03778 0.04056,-0.07574 0.0595,-0.11361zM289.90694,121.3636c-0.07288,-0.11964 -0.10764,-0.24385 -0.08036,-0.37711c0.02665,-0.13011 0.0613,-0.24347 0.10172,-0.33923c0.03541,0.10505 0.06895,0.20697 0.09767,0.30296c-0.04523,0.13177 -0.08697,0.27201 -0.11709,0.40988c-0.00063,0.00117 -0.00132,0.00232 -0.00196,0.00348zM289.3128,125.65873c0.00542,0.00799 0.01088,0.01611 0.01635,0.02431l0.03566,0.13637c-0.03176,-0.02914 -0.06264,-0.05834 -0.09235,-0.08771c0.01368,-0.02404 0.02715,-0.04838 0.04033,-0.07297zM290.89479,122.36541c-0.02548,-0.03379 -0.05298,-0.06704 -0.08206,-0.09982l0.05509,-0.15963c0.02826,-0.07688 0.01634,-0.16176 -0.02858,-0.22736c0.02146,-0.05837 0.0383,-0.12076 0.0515,-0.185c0.02321,0.23464 0.02259,0.45772 0.00405,0.67185zM288.51029,126.99381c-0.06197,-0.03485 -0.12354,-0.06871 -0.18466,-0.10148c0.0298,-0.01619 0.05952,-0.0324 0.08912,-0.04866c0.0304,0.04993 0.06229,0.1 0.09553,0.15014zM289.88854,126.11017c0.00083,-0.00156 0.00164,-0.00311 0.00245,-0.00467c-0.00001,0.00226 -0.00003,0.00455 -0.00004,0.0068zM290.73607,123.19086c-0.07168,0.24842 -0.15951,0.4879 -0.25113,0.72376c-0.02315,-0.13031 -0.05667,-0.26621 -0.10134,-0.40815c0.08917,-0.10387 0.22496,-0.21674 0.35248,-0.31563zM288.28905,125.978c0.07794,-0.05239 0.15533,-0.10485 0.2318,-0.1577c-0.0315,0.07001 -0.06088,0.1398 -0.08804,0.20867c-0.05088,-0.02089 -0.09875,-0.03778 -0.14378,-0.05092zM289.98623,126.88769c-0.06104,-0.05709 -0.12543,-0.11417 -0.19043,-0.17054l0.08914,0.01882c0.02265,0.00532 0.04569,0.00738 0.06847,0.00634c0.00967,0.04797 0.02059,0.09643 0.03278,0.14537z" fill="#000000" fill-rule="nonzero" stroke="none" stroke-width="0.5" stroke-linecap="butt" stroke-linejoin="miter"/><path d="M301.86987,99.22126c-0.01996,-0.02616 -0.0399,-0.05246 -0.05979,-0.07894c-0.02034,-0.08165 -0.03982,-0.17606 -0.05902,-0.27971c0.04628,0.12195 0.0863,0.24226 0.1188,0.35864zM302.20763,102.71497c1.53904,0.48249 3.56869,1.92334 4.6197,2.84453c0.12297,0.10779 0.37862,0.44532 0.65526,0.7643c-0.30684,-0.15024 -0.61485,-0.29997 -0.91487,-0.47566c-1.37276,-0.78057 -2.79695,-2.29514 -4.36007,-3.13314zM301.9776,105.53517c-0.18621,-0.05283 -0.37586,-0.08587 -0.56994,-0.09222c-0.00468,-0.00016 -0.03074,-0.22374 -0.06381,-0.47716c0.21673,0.18339 0.42839,0.37466 0.63376,0.5694zM299.22702,102.12229l-0.0769,0.01122c-0.03142,0.00432 -0.06189,0.01456 -0.08963,0.03028c0.00914,-0.01706 0.01825,-0.03428 0.0273,-0.05159c0.01779,-0.02538 0.03586,-0.05075 0.05416,-0.07608c0.03086,0.03177 0.05974,0.0612 0.08506,0.08616zM301.15678,98.2097c-0.05093,-0.15866 -0.14315,-0.32191 -0.28608,-0.48978c0.03544,-0.23845 -0.0797,-0.44668 -0.25652,-0.64413c0.13971,0.12322 0.28238,0.28476 0.42017,0.4703c0.04544,0.20452 0.08543,0.43432 0.12244,0.6636zM301.23153,93.94833c0.00248,-0.00068 0.00489,-0.00131 0.00719,-0.00188l0.33053,-0.01928c0.08197,-0.00358 0.16049,-0.04739 0.20504,-0.12346c0.00167,-0.00285 0.00327,-0.00574 0.00482,-0.00862c0.11656,0.05472 0.23733,0.11492 0.36235,0.18053c0.2214,0.12778 0.44154,0.25688 0.66065,0.38714c-0.04392,-0.01135 -0.08716,-0.02249 -0.12966,-0.03341c-0.17775,-0.03127 -0.76112,-0.21286 -1.44089,-0.38101zM300.58616,98.20164c0.03786,0.14514 0.03007,0.29483 -0.01161,0.44727c0.00745,-0.14666 0.01135,-0.29608 0.01161,-0.44727zM300.18183,98.57057c-0.01703,0.33724 -0.06507,0.6688 -0.14584,0.9831c-0.02412,0.02928 -0.04861,0.05854 -0.0734,0.08776c0.09069,-0.37488 0.16403,-0.73883 0.21923,-1.07085zM299.84334,96.3561c0.00353,0.0015 0.00705,0.00299 0.01057,0.00449c0.00126,0.00343 0.00252,0.00684 0.00377,0.01025c-0.00481,-0.00488 -0.00959,-0.00981 -0.01434,-0.01474zM299.87523,93.68329c-0.05311,-0.00646 -0.10558,-0.01219 -0.15724,-0.01709c0.11945,-0.13306 0.27387,-0.21578 0.46285,-0.25026c-0.10937,0.07194 -0.21164,0.16238 -0.30562,0.26737z" fill="#000000" fill-rule="nonzero" stroke="none" stroke-width="0.5" stroke-linecap="butt" stroke-linejoin="miter"/></g><path d="M288.79101,111.13105c3.04762,1.27109 3.93293,6.10243 1.97743,10.79106c-1.95552,4.68864 -15.55372,4.07723 -15.55372,4.07723c0,0 10.52868,-16.1394 13.57631,-14.8683z" fill="#ffffff" fill-rule="nonzero" stroke="#001026" stroke-width="1.2" stroke-linecap="butt" stroke-linejoin="miter"/><path d="M294.59421,83.98759c0,0 10.00276,9.23198 8.04724,13.92063c-1.95552,4.68864 -6.01137,7.45912 -9.059,6.18804c-3.04762,-1.27109 1.01175,-20.10868 1.01175,-20.10868z" data-paper-data="{&quot;index&quot;:null}" fill="#ffffff" fill-rule="nonzero" stroke="#001026" stroke-width="1.2" stroke-linecap="butt" stroke-linejoin="miter"/></g><path d="M271.80779,126.93112c3.16031,1.31809 4.98118,4.16343 4.06702,6.35527c-0.91417,2.19182 -4.21717,2.90013 -7.37747,1.58203c-3.16031,-1.31809 -4.98117,-4.16343 -4.06702,-6.35527c0.91417,-2.19182 4.21717,-2.90013 7.37747,-1.58203z" fill="#000000" fill-rule="nonzero" stroke="#001026" stroke-width="1.2" stroke-linecap="butt" stroke-linejoin="miter"/><path d="M265.41161,125.85505c0.0323,-0.21351 0.22113,-0.2147 0.27198,-0.21106c0.06817,-0.08302 0.18515,-0.11543 0.28941,-0.07194c0.02991,0.01246 0.05611,0.03008 0.07801,0.05137c0.30187,-0.13776 0.33701,-0.59379 0.73982,-0.72164c1.02938,-0.32669 2.83151,-0.47475 3.91319,-0.06527c1.78414,0.77654 3.5257,1.6455 5.03756,3.40172c1.3527,2.08277 3.19674,4.71489 1.16857,6.9174c-0.80475,0.10598 -1.77538,0.90992 -2.52546,0.69066c-1.27225,-0.37188 -0.14128,-1.20772 0.61622,-1.16788l0.07968,0.08138c1.36085,-0.93123 0.88065,-3.16301 0.02521,-4.61583c-0.94394,-1.41598 -1.38987,-2.91439 -3.07858,-3.67106c-0.03263,0.01473 -0.05782,0.01965 -0.05782,0.01965c-1.57369,0.2759 -3.33056,-0.09587 -5.04383,0.16051l-0.15907,0.0735c0,0 -0.23121,0.09511 -0.32632,-0.1361c-0.00488,-0.01185 -0.00888,-0.02333 -0.01212,-0.03447l-0.11572,0.15076c-0.09985,-0.04478 -0.23711,-0.09968 -0.35273,-0.16812c-0.13609,0.01036 -0.22058,-0.11646 -0.22058,-0.11646c-0.05627,-0.09894 -0.11253,-0.19789 -0.16881,-0.29684c-0.07021,-0.02621 -0.18498,-0.09625 -0.15864,-0.27029z" fill="#cf0000" fill-rule="nonzero" stroke="none" stroke-width="0.5" stroke-linecap="butt" stroke-linejoin="miter"/><path d="M273.15689,129.71187c1.65308,2.74375 3.33943,4.75938 -3.84102,9.08552c-7.18044,4.32614 -23.86312,-4.76929 -23.86312,-4.76929c0,0 10.69635,-0.84056 17.87679,-5.16669c7.18044,-4.32614 8.17427,-1.89328 9.82735,0.85047z" fill="url(#color-6)" fill-rule="nonzero" stroke="#001026" stroke-width="1.2" stroke-linecap="butt" stroke-linejoin="miter"/></g></g></g></svg>